<?xml version="1.0" standalone="no"?><!DOCTYPE svg PUBLIC "-//W3C//DTD SVG 1.1//EN" "http://www.w3.org/Graphics/SVG/1.1/DTD/svg11.dtd"><svg t="1620972576611" class="icon" viewBox="0 0 1024 1024" version="1.1" xmlns="http://www.w3.org/2000/svg" p-id="9037" xmlns:xlink="http://www.w3.org/1999/xlink" width="200" height="200"><defs><style type="text/css"></style></defs><path d="M652.8 855.04H386.56c-5.12 0-25.6 0-46.08-17.92-10.24-10.24-17.92-28.16-17.92-43.52v-240.64c0-107.52 89.6-194.56 197.12-194.56s197.12 87.04 197.12 194.56V793.6c0 33.28-28.16 61.44-64 61.44z" fill="#8E98E6" p-id="9038"></path><path d="M422.4 396.8a99.84 23.04 0 1 0 199.68 0 99.84 23.04 0 1 0-199.68 0Z" fill="#6F7FDD" p-id="9039"></path><path d="M435.2 391.68a87.04 23.04 0 1 0 174.08 0 87.04 23.04 0 1 0-174.08 0Z" fill="#E3E8FF" p-id="9040"></path><path d="M593.92 368.64c0 2.56-2.56 5.12-5.12 7.68-15.36 5.12-43.52 12.8-74.24 12.8s-56.32-7.68-71.68-12.8c-2.56 0-5.12-2.56-5.12-7.68v-40.96h156.16v40.96z" fill="#D2D7FC" p-id="9041"></path><path d="M593.92 330.24c-15.36 5.12-43.52 12.8-79.36 12.8-33.28 0-58.88-7.68-76.8-12.8V192h156.16v138.24z" fill="#8E98E6" p-id="9042"></path><path d="M440.32 192a76.8 12.8 0 1 0 153.6 0 76.8 12.8 0 1 0-153.6 0Z" fill="#D2D7FC" p-id="9043"></path><path d="M325.12 762.88v33.28c0 33.28 15.36 56.32 46.08 69.12 33.28 12.8 69.12 23.04 104.96 25.6 66.56 5.12 130.56 2.56 194.56-23.04 30.72-12.8 48.64-35.84 48.64-71.68v-33.28c-43.52 15.36-104.96 28.16-179.2 30.72-92.16 2.56-166.4-15.36-215.04-30.72z" fill="#D2D7FC" p-id="9044"></path><path d="M430.08 389.12l-61.44 107.52h15.36l61.44-107.52zM460.8 396.8s-30.72 53.76-30.72 133.12l-15.36-12.8s15.36-107.52 30.72-120.32h15.36z" fill="#6F7FDD" p-id="9045"></path><path d="M430.08 373.76l-61.44 125.44h15.36l61.44-125.44zM460.8 381.44s-30.72 61.44-30.72 156.16l-15.36-15.36s15.36-122.88 30.72-140.8h15.36z" fill="#D2D7FC" p-id="9046"></path><path d="M432.64 394.24s5.12 10.24 20.48 10.24c7.68 0 30.72-15.36 25.6-35.84 0-5.12-10.24-7.68-15.36-10.24-5.12-2.56-15.36 2.56-17.92 5.12-10.24 12.8-12.8 30.72-12.8 30.72z" fill="#6F7FDD" p-id="9047"></path><path d="M432.64 366.08s35.84-15.36 35.84 0-35.84 30.72-35.84 30.72-35.84-46.08 0-30.72z" fill="#8E98E6" p-id="9048"></path></svg>