<?xml version="1.0" standalone="no"?><!DOCTYPE svg PUBLIC "-//W3C//DTD SVG 1.1//EN" "http://www.w3.org/Graphics/SVG/1.1/DTD/svg11.dtd"><svg class="icon" width="200px" height="200.00px" viewBox="0 0 1024 1024" version="1.1" xmlns="http://www.w3.org/2000/svg"><path d="M313.856 470.016h252.416c-12.288 26.624-24.576 53.76-37.376 80.384-71.68 0.512-143.36 0.512-215.04 1.024V470.016z" fill="#94AAF3" /><path d="M912.896 333.824c-12.8-23.04-38.4-37.888-65.536-37.888H281.6l-27.136-108.032c-2.048-13.824-14.848-24.576-28.672-24.576-1.024 0-2.56 0-3.584 0.512H133.632c-18.944 0-33.28 14.336-33.28 33.28 0 17.92 15.36 33.28 33.28 33.28h59.904l0.512 2.048 121.856 451.584c4.608 16.384 17.92 26.624 32.256 24.576h392.192c13.824 0 25.088-7.168 31.744-20.48l143.36-286.72c11.776-18.944 10.752-46.592-2.56-67.584z m-192 307.712H376.832l-0.512-2.048L302.08 362.496h559.616l-140.8 279.04z" fill="#728BC4" /><path d="M915.456 332.288z" fill="#576994" /><path d="M327.68 816.128c-31.744 0-55.808 24.064-55.808 55.808s24.064 55.808 55.808 55.808 55.808-24.064 55.808-55.808c-0.512-31.744-24.064-55.808-55.808-55.808zM763.392 816.128c-30.208 0-55.808 25.6-55.808 55.808 0 31.744 24.064 55.808 55.808 55.808s55.808-24.064 55.808-55.808c-0.512-31.744-24.064-55.808-55.808-55.808z" fill="#728BC4" /></svg>