<?xml version="1.0" standalone="no"?><!DOCTYPE svg PUBLIC "-//W3C//DTD SVG 1.1//EN" "http://www.w3.org/Graphics/SVG/1.1/DTD/svg11.dtd"><svg class="icon" width="200px" height="200.00px" viewBox="0 0 1024 1024" version="1.1" xmlns="http://www.w3.org/2000/svg"><path d="M784.384 248.32l-1.536-1.536c-68.096-68.608-174.08-110.592-276.48-110.592-100.352 0-194.56 38.912-265.728 110.08l-3.072 3.072v0.512C168.448 320.512 131.072 413.184 131.072 512c0 99.84 38.912 194.56 109.568 265.728l3.072 3.584h0.512C314.368 849.92 407.552 887.808 506.88 887.808h268.288c21.504 0 39.936-17.92 39.936-38.912v-107.008c17.92-26.624 48.64-77.312 60.416-113.664 12.288-37.376 17.92-76.288 17.92-116.224-0.512-99.328-39.424-193.024-109.056-263.68z m-29.184 467.456l-2.048 3.072v13.824l2.56 94.208-248.32-3.072c-82.944 0-161.792-32.256-221.184-91.136l-6.144-5.632C224.768 669.184 194.56 592.896 194.56 512c0-83.968 32.256-161.792 91.136-220.16l6.656-6.656C350.72 229.888 427.008 199.68 506.88 199.68c86.528 0 175.616 35.328 231.424 91.648l1.536 1.536c57.856 58.88 90.112 137.216 90.112 219.648-0.512 33.28-5.632 66.56-15.36 96.256s-37.888 76.8-53.76 99.328l-5.632 7.68z" fill="#728BC4" /><path d="M342.016 506.88m-46.08 0a46.08 46.08 0 1 0 92.16 0 46.08 46.08 0 1 0-92.16 0Z" fill="#94AAF3" /><path d="M508.928 506.88m-46.08 0a46.08 46.08 0 1 0 92.16 0 46.08 46.08 0 1 0-92.16 0Z" fill="#94AAF3" /><path d="M675.328 506.88m-46.08 0a46.08 46.08 0 1 0 92.16 0 46.08 46.08 0 1 0-92.16 0Z" fill="#94AAF3" /></svg>