<?xml version="1.0" encoding="utf-8"?>
<!-- Generator: Adobe Illustrator 22.1.0, SVG Export Plug-In . SVG Version: 6.00 Build 0)  -->
<svg version="1.1" id="图层_1" xmlns="http://www.w3.org/2000/svg" xmlns:xlink="http://www.w3.org/1999/xlink" x="0px" y="0px"
	 viewBox="0 0 200 200" style="enable-background:new 0 0 200 200;" xml:space="preserve">
<style type="text/css">
	.st0{fill:#EDEDED;}
	.st1{fill:#FFFFFF;stroke:#616161;stroke-width:1.3;stroke-linejoin:round;stroke-miterlimit:10;}
	.st2{fill:#F1F1F1;stroke:#616161;stroke-width:1.3;stroke-linejoin:round;stroke-miterlimit:10;}
	.st3{fill:#FFFFFF;stroke:#616161;stroke-linejoin:round;stroke-miterlimit:10;}
	.st4{fill:#616161;}
	.st5{fill:none;stroke:#616161;stroke-linejoin:round;stroke-miterlimit:10;}
	.st6{fill:#616161;stroke:#616161;stroke-linejoin:round;stroke-miterlimit:10;}
</style>
<ellipse class="st0" cx="100.1" cy="150.7" rx="97.9" ry="20.2"/>
<polygon class="st1" points="44.8,63.7 49.6,46.3 128.2,34.1 121.8,57.4 "/>
<polygon class="st2" points="126.1,132.5 87.7,130.5 87.7,76.4 131.8,73.2 131.8,132.5 "/>
<polygon class="st1" points="44.8,140.6 35,146.8 110.5,159.5 121.8,147.9 "/>
<polygon class="st1" points="87.7,76.4 87.7,130.5 44.8,140.6 44.8,63.7 "/>
<polygon class="st3" points="136.1,132.5 121.8,147.9 44.8,140.6 87.7,130.5 "/>
<polygon class="st1" points="122.7,57.4 44.8,63.7 87.7,76.4 124.1,73.7 "/>
<g>
	<g>
		<path class="st4" d="M149.1,58.2c5.9-2.9,11.2-7,15.2-12.2c1.4-1.8,3-4.2,2.5-6.6c-0.4-2.4-2.9-3.8-5.1-4.2
			c-2.1-0.4-4.4,0.2-5.8,1.9c-1.7,2.2-0.9,4.8,0.4,6.9c3.1,4.8,8.3,6.8,13.4,3.8c3.3-2,6.1-5.1,8.7-7.9c2.7-3,5.2-6.2,7.5-9.5
			c0.5-0.7-0.7-1.3-1.1-0.7c-3.4,5-7.3,9.6-11.7,13.7c-2.2,2.1-5,4.5-8.3,4.6c-3.4,0.1-6.3-2.6-7.8-5.4c-1.2-2.2-1-4.6,1.4-5.9
			c1.8-1,4.7-0.4,6.1,1.1c2.7,2.9-0.7,6.8-2.7,9.1c-3.7,4.3-8.2,7.6-13.3,10.1C147.7,57.5,148.3,58.6,149.1,58.2L149.1,58.2z"/>
	</g>
</g>
<g>
	<g>
		<path class="st4" d="M28.7,109.4c-1.7,2.7-4,4.9-6.9,6.3c-1.4,0.7-2.9,1.2-4.5,1.5c-1.2,0.2-3,0-4.1,0.4c-1.3,0.5-1.8,2.1-1.7,3.4
			c0.3,2,1.9,3.5,3.8,4.1c4.2,1.5,8.8-1.3,11.3-4.7c2.3-3.1,3.1-7,3.2-10.8c0-0.8-1.3-0.8-1.3,0c-0.1,2.9-0.6,5.9-2.1,8.5
			c-2,3.7-7.1,7.6-11.4,5.4c-0.8-0.3-1.4-0.9-1.9-1.6c-0.4-2.3,0.2-3.3,1.7-3.1c0.7-0.2,1.7-0.1,2.4-0.3c1.7-0.3,3.3-0.8,4.8-1.6
			c3.2-1.6,5.8-4,7.7-7C30.2,109.3,29.1,108.7,28.7,109.4z"/>
	</g>
</g>
<polygon class="st1" points="161.8,135.7 121.8,147.9 121.8,57.4 162,70.7 "/>
<line class="st5" x1="151" y1="121.1" x2="161.6" y2="121.1"/>
<line class="st5" x1="161.6" y1="92.3" x2="141.8" y2="89.9"/>
<path class="st6" d="M143.9,90.3c-0.2,0.4-0.3,0.9-0.3,1.4c0,2.2,2,4,4.5,4c2.7,0,4.8-2,4.5-4.4l0,0L143.9,90.3z"/>
</svg>
