<?xml version="1.0" encoding="utf-8"?>
<!-- Generator: Adobe Illustrator 22.1.0, SVG Export Plug-In . SVG Version: 6.00 Build 0)  -->
<svg version="1.1" id="图层_1" xmlns="http://www.w3.org/2000/svg" xmlns:xlink="http://www.w3.org/1999/xlink" x="0px" y="0px"
	 viewBox="0 0 180 140" style="enable-background:new 0 0 180 140;" xml:space="preserve">
<style type="text/css">
	.st0{opacity:0.2;fill:#CC6675;enable-background:new    ;}
	.st1{opacity:0.4;fill:#FFFFFF;enable-background:new    ;}
	.st2{opacity:0.1;enable-background:new    ;}
	.st3{opacity:0.2;fill:#FFFFFF;enable-background:new    ;}
	.st4{fill:#656D78;}
	.st5{fill:#E6E9ED;}
	.st6{fill:#ED5564;}
	.st7{fill:#CCD1D9;}
	.st8{fill:#434A54;}
	.st9{fill:#FFCE54;}
	.st10{fill:#F6BB42;}
</style>
<path class="st0" d="M78,1.2c-5,0-9.1,4.9-9.1,10.9v115c0,6,4.1,10.9,9.1,10.9h81.3c5,0,9.1-4.9,9.1-10.9V44.6L134.9,1.2H78z"/>
<path class="st1" d="M158.9,69.2c0.9,0,1.8-0.3,1.8-0.9v-4.2c0-1.2-1.8-1.2-1.8-1.2h-84l9.4,6.3H158.9z M158.9,91.2
	c0.9,0,1.8-1.2,1.8-1.2v-3.9c0-1.2-1.8-1.2-1.8-1.2h-51.2l9.4,6.3C117.1,91.2,158.9,91.2,158.9,91.2z M157.8,113.1
	c1.5,0,2.9-0.6,2.9-1.2V108c0-1.2-2.9-1.2-2.9-1.2h-33.1l7.2,6.3C131.9,113.1,157.8,113.1,157.8,113.1z"/>
<path class="st2" d="M168.4,44.8v2.1h-22.7c0,0-11.4-2.8-11-14.3c0,0,0.4,12.2,10.7,12.2H168.4z"/>
<path class="st3" d="M134.9,1.2v31.2c0,3.4,2,12.4,10.8,12.4h22.7L134.9,1.2z"/>
<path class="st4" d="M22,9.9c-5.9,0-10.7,4.8-10.7,10.7v96.2c0,1.5,1.1,2.7,2.7,2.7h13.4V9.9H22z"/>
<path class="st5" d="M22,108.7c-4.4,0-8,3.6-8,8s3.6,8,8,8h88.1v-16H22L22,108.7z"/>
<path class="st6" d="M112.8,12.5c0-1.5-1.1-2.7-2.7-2.7H27.3v101.5h82.8c1.5,0,2.7-1.1,2.7-2.7V12.5z"/>
<path class="st7" d="M46,119.4H24.6c-1.5,0-2.7-1.1-2.7-2.7c0-1.5,1.1-2.7,2.7-2.7h21.3c1.5,0,2.7,1.1,2.7,2.7
	C48.6,118.2,47.5,119.4,46,119.4z M88.8,114c-1.5,0-2.7,1.1-2.7,2.7c0,1.5,1.1,2.7,2.7,2.7h21.3v-5.3L88.8,114L88.8,114z"/>
<path class="st8" d="M13.9,31.3c1.5,0,2.7-1.1,2.7-2.7c0-1.5-1.1-2.7-2.7-2.7h-2.7v5.3h2.7C13.9,31.2,13.9,31.3,13.9,31.3z
	 M13.9,47.2c1.5,0,2.7-1.1,2.7-2.7s-1.1-2.7-2.7-2.7h-2.7v5.3h2.7C13.9,47.1,13.9,47.2,13.9,47.2z M13.9,63.3c1.5,0,2.7-1.1,2.7-2.7
	c0-1.6-1.1-2.7-2.7-2.7h-2.7v5.3h2.7C13.9,63.2,13.9,63.3,13.9,63.3z M13.9,79.3c1.5,0,2.7-1.1,2.7-2.7c0-1.5-1.1-2.7-2.7-2.7h-2.7
	v5.3L13.9,79.3L13.9,79.3z M13.9,95.3c1.5,0,2.7-1.1,2.7-2.7c0-1.5-1.1-2.7-2.7-2.7h-2.7v5.3L13.9,95.3L13.9,95.3z"/>
<path class="st6" d="M112.8,124.8c0-1.5-1.1-2.7-2.7-2.7H27.3v5.3h82.8C111.5,127.4,112.8,126.3,112.8,124.8z"/>
<path class="st4" d="M27.3,122.1H22c-2.9,0-5.3-2.4-5.3-5.3s2.4-5.3,5.3-5.3h5.3v-5.3H22c-5.9,0-10.7,4.8-10.7,10.7
	c0,5.9,4.8,10.7,10.7,10.7h5.3V122.1L27.3,122.1z"/>
<path class="st9" d="M43.3,116.7H24.6v18.7c0,0.8,0.4,1.7,1.1,2.2s1.6,0.6,2.4,0.3l7.2-2.4l7.2,2.4c0.3,0.1,0.5,0.1,0.8,0.1
	c0.5,0,1.1-0.2,1.6-0.5c0.7-0.5,1.1-1.4,1.1-2.2v-18.7C46,116.7,43.3,116.7,43.3,116.7z"/>
<path class="st10" d="M67.3,84.7c-1.5,0-2.7-1.1-2.7-2.7V33.9c0-1.5,1.1-2.7,2.7-2.7c1.5,0,2.7,1.1,2.7,2.7V82
	C70,83.5,68.8,84.7,67.3,84.7z"/>
<path class="st8" d="M83.3,84.7h-32c-1.5,0-2.7-1.1-2.7-2.7c0-1.5,1.1-2.7,2.7-2.7h32.1c1.5,0,2.7,1.1,2.7,2.7
	C86,83.5,84.9,84.7,83.3,84.7z"/>
<path class="st5" d="M51.1,38.5C51.1,38.5,51.1,38.4,51.1,38.5c0-0.1-0.1-0.1-0.1-0.2v-0.1c0,0,0-0.1-0.1-0.1c0,0,0-0.1-0.1-0.1
	c0,0,0-0.1-0.1-0.1l-0.1-0.1c0,0,0-0.1-0.1-0.1l-0.1-0.1l-0.1-0.1l-0.1-0.1l-0.1-0.1c0,0-0.1,0-0.1-0.1L49.9,37c0,0-0.1,0-0.1-0.1
	c0,0-0.1,0-0.1-0.1c0,0-0.1,0-0.1-0.1h-0.1c0,0-0.1,0-0.1-0.1l0,0c0,0,0,0-0.1,0h-0.1H49h-0.1h-0.1h-0.1h-0.1h-0.1h-0.1h-0.1h-0.1
	h-0.1H48l0,0l0,0c0,0-0.1,0-0.1,0.1h-0.1c0,0-0.1,0-0.1,0.1c0,0-0.1,0-0.1,0.1c0,0-0.1,0-0.1,0.1c0,0-0.1,0-0.1,0.1
	c0,0-0.1,0-0.1,0.1l-0.1,0.1l-0.1,0.1L47,37.5c-0.1,0.1-0.1,0.1-0.2,0.2l-0.1,0.1c0,0,0,0.1-0.1,0.1c0,0,0,0.1-0.1,0.1
	c0,0,0,0.1-0.1,0.1v0.1c0,0,0,0.1-0.1,0.1l0,0l-8,24c-0.4,1.4,0.3,2.9,1.7,3.3c0.3,0.1,0.5,0.1,0.8,0.1c1.1,0,2.2-0.7,2.5-1.8
	l5.4-16.4l5.4,16.4c0.4,1.1,1.5,1.8,2.5,1.8c0.3,0,0.5,0,0.8-0.1c1.4-0.4,2.2-2,1.7-3.3L51.1,38.5L51.1,38.5z M96.6,62.5l-8-24l0,0
	v-0.1c0,0,0-0.1-0.1-0.1c0,0,0-0.1-0.1-0.1c0,0,0-0.1-0.1-0.1c0,0,0-0.1-0.1-0.1L88,37.8c0,0,0-0.1-0.1-0.1l-0.1-0.1l-0.1-0.1
	l-0.1-0.1l-0.1-0.1c0,0-0.1,0-0.1-0.1l-0.1-0.1c0,0-0.1,0-0.1-0.1c0,0-0.1,0-0.1-0.1c0,0-0.1,0-0.1-0.1h-0.1c0,0-0.1,0-0.1-0.1
	c0,0,0,0-0.1,0s0,0-0.1,0h-0.1h-0.1h-0.1h-0.1H86h-0.1c-0.1,0-0.2,0-0.3,0h-0.1h-0.1h-0.1c-0.1,0-0.1,0-0.1,0s0,0-0.1,0l0,0
	c0,0-0.1,0-0.1,0.1h-0.1c-0.1,0-0.2,0.1-0.2,0.1s-0.1,0-0.1,0.1l-0.1,0.1c0,0-0.1,0-0.1,0.1l-0.1,0.1l-0.1,0.1l-0.1,0.1L84,37.6
	c0,0,0,0.1-0.1,0.1l-0.1,0.1c0,0,0,0.1-0.1,0.1c0,0,0,0.1-0.1,0.1c0,0,0,0.1-0.1,0.1v0.1c0,0,0,0.1-0.1,0.1l0,0l-8,24
	c-0.4,1.4,0.3,2.9,1.7,3.3c0.3,0.1,0.5,0.1,0.8,0.1c1.1,0,2.2-0.7,2.5-1.8L86,47.8l5.4,16.4c0.3,1,1.4,1.8,2.5,1.8
	c0.3,0,0.5,0,0.8-0.1C96.3,65.4,97,63.9,96.6,62.5L96.6,62.5z"/>
<path class="st9" d="M86,41.9H48.6c-1.5,0-2.7-1.1-2.7-2.7c0-1.5,1.1-2.7,2.7-2.7H86c1.5,0,2.7,1.1,2.7,2.7S87.5,41.9,86,41.9
	L86,41.9z"/>
<path class="st9" d="M48.6,74C42.8,74,38,69.2,38,63.3h21.3C59.3,69.2,54.6,74,48.6,74z"/>
<path class="st9" d="M86,74c-5.9,0-10.7-4.8-10.7-10.7h21.3C96.7,69.2,91.9,74,86,74z"/>
</svg>
