<?xml version="1.0" encoding="utf-8"?>
<!-- Generator: Adobe Illustrator 22.1.0, SVG Export Plug-In . SVG Version: 6.00 Build 0)  -->
<svg version="1.1" id="图层_1" xmlns="http://www.w3.org/2000/svg" xmlns:xlink="http://www.w3.org/1999/xlink" x="0px" y="0px"
	 viewBox="0 0 184.3 140" style="enable-background:new 0 0 184.3 140;" xml:space="preserve">
<style type="text/css">
	.st0{opacity:0.15;fill:#A85D5D;enable-background:new    ;}
	.st1{opacity:0.3;fill:#FFFFFF;enable-background:new    ;}
	.st2{opacity:0.1;enable-background:new    ;}
	.st3{opacity:0.15;fill:#FFFFFF;enable-background:new    ;}
	.st4{fill:#ED5564;}
	.st5{fill:#7F4545;}
	.st6{fill:#A85D5D;}
	.st7{fill:#965353;}
	.st8{fill:#434A54;}
	.st9{opacity:0.1;fill:#FFFFFF;enable-background:new    ;}
	.st10{fill:#E6E9ED;}
	.st11{fill:#CCD1D9;}
</style>
<path class="st0" d="M85,2.2c-5,0-9.1,4.9-9.1,10.9v115c0,6,4.1,10.9,9.1,10.9h81.3c5,0,9.1-4.9,9.1-10.9V45.6L141.9,2.2H85z"/>
<path class="st1" d="M165.9,70.2c0.9,0,1.8-0.3,1.8-0.9v-4.2c0-1.2-1.8-1.2-1.8-1.2h-84l9.4,6.3H165.9z M165.9,92.2
	c0.9,0,1.8-1.2,1.8-1.2v-3.9c0-1.2-1.8-1.2-1.8-1.2h-51.2l9.4,6.3C124.1,92.2,165.9,92.2,165.9,92.2z M164.8,114.1
	c1.5,0,2.9-0.6,2.9-1.2V109c0-1.2-2.9-1.2-2.9-1.2h-33.1l7.2,6.3C138.9,114.1,164.8,114.1,164.8,114.1z"/>
<path class="st2" d="M175.4,45.8v2.1h-22.7c0,0-11.4-2.8-11-14.3c0,0,0.4,12.2,10.7,12.2H175.4z"/>
<path class="st3" d="M141.9,2.2v31.2c0,3.4,2,12.4,10.8,12.4h22.7L141.9,2.2z"/>
<path class="st4" d="M68.2,10.9C68.2,10.9,68.3,10.9,68.2,10.9c0,0-0.9,0.6-2.5,0.9c-2.1,0.4-4.5,0-6.9-1.3
	c-8.6-4.3-18.8-0.3-19.2-0.1l0,0c-1.1,0.4-1.8,1.5-1.8,2.7c0,1.6,1.3,2.9,2.9,2.9c0.5,0,0.9-0.1,1.3-0.3c1.2-0.4,8.5-2.9,14.2,0
	c3,1.5,5.7,2,8,2c4.7,0,7.6-2.2,7.7-2.4C71.9,15.5,68.2,10.9,68.2,10.9z"/>
<path class="st5" d="M70.1,7.3c-1.6,0-2.9,1.3-2.9,2.9v96.9h5.9V10.2C73.1,8.6,71.7,7.3,70.1,7.3z M146.5,86.6
	c0-1.6-1.3-2.9-2.9-2.9c-0.3,0-0.6,0-0.8,0.1h-0.1l-29.8,8.6l1.6,5.6l29.9-8.6C145.6,89.1,146.5,87.9,146.5,86.6L146.5,86.6z"/>
<path class="st6" d="M8.4,83.6l27.5,9.2c0,0,10.8,11.4,34.2,11.4s29.4-8,29.4-8l23.5-6.7c2.6,44.1-33.8,41.2-33.8,41.2H37.3
	C13.5,129,17,106.2,17,106.2l-3.6-2.7l-1.2-5l-6.7-3.2L8.4,83.6L8.4,83.6z"/>
<path class="st7" d="M123.1,90.9c-1.6,36.5-33.9,33.9-33.9,33.9H37.3c-15.8-1.1-19.6-11.6-20.3-18.4c-0.2,1.6-2.5,22.7,20.3,24.3
	h51.9C89.2,130.6,124.8,133.5,123.1,90.9L123.1,90.9z"/>
<path class="st8" d="M81.9,113c0,1.6,1.3,2.9,2.9,2.9l0,0c1.6,0,2.9-1.3,2.9-2.9s-1.3-2.9-2.9-2.9C83.2,110.1,81.9,111.4,81.9,113z
	 M70.1,113c0,1.6,1.3,2.9,2.9,2.9s2.9-1.3,2.9-2.9s-1.3-2.9-2.9-2.9S70.1,111.4,70.1,113z M58.4,113c0,1.6,1.3,2.9,2.9,2.9
	c1.6,0,2.9-1.3,2.9-2.9s-1.3-2.9-2.9-2.9S58.4,111.4,58.4,113z M46.6,113c0,1.6,1.3,2.9,2.9,2.9c1.6,0,2.9-1.3,2.9-2.9
	s-1.3-2.9-2.9-2.9C47.9,110.1,46.6,111.4,46.6,113z M32.9,89.5C37.1,55.7,26,24.9,26,24.9h71.7c22.1,25.8,6.9,64.6,6.9,64.6
	C77.9,77.3,32.9,89.5,32.9,89.5z"/>
<path class="st9" d="M97.8,24.9h-5.9c19.1,22.3,10.3,54.3,7.6,62.6c1.8,0.6,3.5,1.3,5.2,2C104.6,89.6,119.8,50.8,97.8,24.9z"/>
<path class="st10" d="M52.5,52.6c0-9.7,7.9-17.6,17.6-17.6s17.6,7.9,17.6,17.6c0,5.2-2.3,9.9-5.9,13.1v7.4H58.4v-7.4
	C54.8,62.6,52.5,57.9,52.5,52.6z"/>
<path class="st8" d="M74.5,52.6c0,1.6,1.3,2.9,2.9,2.9s2.9-1.3,2.9-2.9s-1.3-2.9-2.9-2.9C75.8,49.7,74.5,51,74.5,52.6z M59.8,52.6
	c0,1.6,1.3,2.9,2.9,2.9s2.9-1.3,2.9-2.9s-1.3-2.9-2.9-2.9C61.2,49.7,59.8,51,59.8,52.6z"/>
<path class="st11" d="M81.9,73.2c0-1.6-1.3-2.9-2.9-2.9s-2.9,1.3-2.9,2.9H81.9L81.9,73.2L81.9,73.2z"/>
<path class="st11" d="M76,73.2c0-1.6-1.3-2.9-2.9-2.9s-2.9,1.3-2.9,2.9H76L76,73.2L76,73.2z M70.1,73.2c0-1.6-1.3-2.9-2.9-2.9
	s-2.9,1.3-2.9,2.9H70.1L70.1,73.2L70.1,73.2z M64.3,73.2c0-1.6-1.3-2.9-2.9-2.9c-1.6,0-2.9,1.3-2.9,2.9H64.3L64.3,73.2L64.3,73.2z"
	/>
</svg>
