<?xml version="1.0" encoding="utf-8"?>
<!-- Generator: Adobe Illustrator 22.1.0, SVG Export Plug-In . SVG Version: 6.00 Build 0)  -->
<svg version="1.1" id="图层_1" xmlns="http://www.w3.org/2000/svg" xmlns:xlink="http://www.w3.org/1999/xlink" x="0px" y="0px"
	 viewBox="0 0 180 140" style="enable-background:new 0 0 180 140;" xml:space="preserve">
<style type="text/css">
	.st0{opacity:0.2;fill:#C66CE0;enable-background:new    ;}
	.st1{opacity:0.4;fill:#FFFFFF;enable-background:new    ;}
	.st2{opacity:0.1;enable-background:new    ;}
	.st3{opacity:0.2;fill:#FFFFFF;enable-background:new    ;}
	.st4{fill:#D3D3E8;}
	.st5{fill:#6E6E96;}
	.st6{opacity:0.47;fill:#FFFFFF;enable-background:new    ;}
	.st7{opacity:0.42;fill:#FFFFFF;enable-background:new    ;}
	.st8{opacity:0.15;fill:#6E6E96;enable-background:new    ;}
	.st9{fill:#E794FF;}
	.st10{opacity:0.34;fill:#FFFFFF;enable-background:new    ;}
	.st11{opacity:0.73;fill:#FFFFFF;enable-background:new    ;}
	.st12{opacity:0.48;fill:#C66CE0;enable-background:new    ;}
	.st13{opacity:0.2;fill:#6E6E96;enable-background:new    ;}
	.st14{opacity:0.62;fill:#FFFFFF;enable-background:new    ;}
</style>
<path class="st0" d="M80.8,1.2c-5,0-9.1,4.9-9.1,10.9v115c0,6,4.1,10.9,9.1,10.9h81.3c5,0,9.1-4.9,9.1-10.9V44.6L137.8,1.2H80.8z"/>
<path class="st1" d="M161.8,69.2c0.9,0,1.8-0.3,1.8-0.9v-4.2c0-1.2-1.8-1.2-1.8-1.2h-84l9.4,6.3H161.8z M161.8,91.2
	c0.9,0,1.8-1.2,1.8-1.2v-3.9c0-1.2-1.8-1.2-1.8-1.2h-51.2l9.4,6.3C119.9,91.2,161.8,91.2,161.8,91.2z M160.6,113.1
	c1.5,0,2.9-0.6,2.9-1.2V108c0-1.2-2.9-1.2-2.9-1.2h-33.1l7.2,6.3C134.8,113.1,160.6,113.1,160.6,113.1z"/>
<path class="st2" d="M171.3,44.8v2.1h-22.7c0,0-11.4-2.8-11-14.3c0,0,0.4,12.2,10.7,12.2H171.3z"/>
<path class="st3" d="M137.8,1.2v31.2c0,3.4,2,12.4,10.8,12.4h22.7L137.8,1.2z"/>
<path class="st4" d="M106.2,103.1c0,9.1-18.8,16.7-42.1,16.7S22,112.4,22,103.1V88.3h84.2V103.1L106.2,103.1z"/>
<path class="st5" d="M64,121.7c-11.5,0-22.3-1.8-30.6-5c-8.8-3.5-13.6-8.3-13.6-13.6V88.3c0-1.1,0.9-2,2-2H106c1.1,0,2,0.9,2,2v14.8
	c0,5.3-4.8,10.1-13.6,13.6C86.4,119.9,75.5,121.7,64,121.7z M23.9,90.4v12.7c0,3.5,4.1,7.1,11.1,9.9c7.7,3,18,4.7,29,4.7
	c11.1,0,21.3-1.7,29-4.7c7-2.8,11.1-6.4,11.1-9.9V90.4H23.9z"/>
<path class="st6" d="M26.9,100.4c0,0,35.4,21.1,74.3-1.6l2.4-7.3c0,0-40.8,19.8-78.3,4.5C25.2,96.1,26.9,100.4,26.9,100.4z"/>
<path class="st7" d="M20.2,101.1c-0.1,0.1,0,0.6,0.3,1.2s0.7,1,0.9,0.9l0,0c0.1-0.1,0-0.6-0.3-1.2C20.7,101.3,20.3,101,20.2,101.1
	L20.2,101.1z"/>
<path class="st4" d="M23,87.3c0,9.1,18.2,16.7,40.6,16.7s40.6-7.4,40.6-16.7l0,0c0-9.1-18.2-16.7-40.6-16.7S23,78.1,23,87.3L23,87.3
	z"/>
<path class="st5" d="M63.7,105.9c-11.1,0-21.5-1.8-29.5-5.1c-8.5-3.4-13.1-8.2-13.1-13.5s4.6-10.1,13.2-13.6
	c7.9-3.3,18.4-5.1,29.5-5.1s21.5,1.8,29.5,5.1c8.5,3.5,13.2,8.3,13.2,13.6s-4.6,10.2-13.2,13.7C85.2,104.1,74.7,105.9,63.7,105.9z
	 M63.7,72.6c-10.6,0-20.5,1.7-28,4.7c-6.8,2.8-10.6,6.4-10.6,9.9s3.8,7.1,10.6,9.9c7.4,3,17.4,4.7,28,4.7s20.5-1.7,28-4.7
	c6.8-2.8,10.6-6.4,10.6-9.9s-3.8-7.1-10.6-9.9C84.2,74.3,74.3,72.6,63.7,72.6z"/>
<path class="st8" d="M64,118.3c-11.5,0-22.3-1.8-30.6-5c-8.7-3.4-13.6-8.3-13.6-13.6V82.9h88.3v16.8c0,5.3-4.8,10.1-13.6,13.6
	C86.4,116.5,75.5,118.3,64,118.3z M23.9,87v12.7c0,3.5,4.1,7.1,11.1,9.9c7.7,3,18,4.7,29,4.7c11.1,0,21.3-1.7,29-4.7
	c7-2.8,11.1-6.4,11.1-9.9V87H23.9z"/>
<path class="st9" d="M13.1,63.7c0,25.1,18.8,40.3,50.4,40.3S114,89,114,63.7c0-27.9-22.7-50.4-50.4-50.4
	C35.6,13.3,13.1,36,13.1,63.7z"/>
<path class="st10" d="M29.6,57.2c-4.3-11.7,3.7-25.4,17.8-30.6s29.1,0.1,33.4,11.8s-7.2,18-21.3,23.2S33.9,68.8,29.6,57.2z"/>
<path class="st11" d="M43.3,44c-1.5-4.1,1.2-8.9,6.2-10.7s10.1,0,11.6,4.1s-1.2,4.4-6.2,6.2S44.6,48.1,43.3,44z"/>
<path class="st4" d="M12.5,92.6c-1.4,3.3,0.6,7.9,5.4,12.6c2.3,2.3,2.8,3.8,2.6,4.4c-0.3,0.8-2.7,2.4-9.4,2.4c-0.1,0-1.4,0-2.7,0.5
	c-2.3,0.7-3.5,2.4-3.5,4.4c0,2.4,1,3.7,1.8,4.5c1.8,1.7,4.3,1.7,4.8,1.7c0.6,0,10.3,0,14.7-6.9c3.4-5.3,2.6-13-2.3-22.7v0.1
	c-0.7-1.6-2.6-4.2-5.9-4.2C15.4,89.3,13.4,90.6,12.5,92.6z M103.5,93.5L103.5,93.5c-4.8,9.6-5.6,17.3-2.3,22.6c4.4,7,14.2,7,14.7,7
	h-0.2c0.3,0,3,0.2,5.1-1.7c0.8-0.8,1.8-2.1,1.8-4.5c0-2-1.2-3.6-3.5-4.4c-1.4-0.5-2.6-0.5-2.7-0.5c-6.7,0-9-1.5-9.4-2.4
	c-0.2-0.7,0.2-2.1,2.6-4.4c4.7-4.7,6.8-9.4,5.4-12.6c-0.9-2-2.9-3.3-5.6-3.3C106.3,89.3,104.3,91.9,103.5,93.5z"/>
<path class="st5" d="M11.4,125c-1.4,0-3.9-0.3-6-2.3c-1.1-1-2.5-2.9-2.5-6.1c0-2.9,1.8-5.3,5-6.3c1.6-0.6,3-0.6,3.4-0.6
	c4.3,0,6.3-0.7,7.1-1c-0.2-0.5-0.8-1.1-1.8-2.3C11.3,101,9,95.7,10.8,91.5c1.1-2.8,3.9-4.5,7.6-4.5c3.9,0,6.5,2.8,7.7,5.3
	c5.2,10.4,5.9,18.6,2.1,24.6c-4.8,7.7-15.1,7.9-16.2,7.9h-0.2C11.6,125,11.5,125,11.4,125z M18.2,91.4c-1.1,0-3,0.2-3.8,2
	c-1,2.4,0.9,6.4,5,10.4c2.7,2.7,3.7,5,2.9,6.7c-0.9,2.3-5,3.6-11.2,3.6c0,0-1,0-2,0.3c-1.4,0.5-2.1,1.2-2.1,2.5c0,1.4,0.5,2.4,1.1,3
	c1.2,1.1,3,1.1,3.4,1.1h0.1h0.1c0.9,0,9.1-0.1,12.9-6c2.9-4.6,2.1-11.6-2.4-20.6l0,0v-0.1l0,0C22.1,94,20.7,91.4,18.2,91.4z
	 M116.2,125c-0.1,0-0.2,0-0.3,0c-1.4,0-11.5-0.3-16.2-7.9c-3.7-6-2.9-14.2,2.1-24.6c1.1-2.5,3.7-5.3,7.7-5.3c3.6,0,6.4,1.7,7.6,4.5
	c1.7,4.1-0.3,9.4-5.9,14.9c-1,1-1.6,1.8-1.8,2.3c0.8,0.3,2.8,1,7.1,1c0.2,0,1.8,0,3.4,0.6c3,1,5,3.4,5,6.3c0,3-1.4,5-2.5,6.1
	C120.2,124.9,117.3,125,116.2,125z M116,120.9c0.6,0,2.3,0,3.5-1.1c0.8-0.7,1.1-1.8,1.1-3c0-1.1-0.7-2-2.1-2.5c-1-0.3-2-0.3-2-0.3
	c-6.2,0-10.3-1.4-11.2-3.6c-0.7-1.7,0.3-3.9,2.9-6.7c4.1-4.1,6-8,5-10.4c-0.7-1.7-2.7-2-3.8-2c-2.6,0-3.8,2.6-3.9,2.8l0,0v0.1l0,0
	c-4.5,9-5.3,15.9-2.4,20.6C106.8,120.6,115.3,120.8,116,120.9L116,120.9C115.8,120.9,116,120.9,116,120.9z"/>
<path class="st12" d="M62.8,11.9c-27.9,0-50.4,22.7-50.4,50.4c0,25.1,18.8,40.3,50.4,40.3s50.4-15,50.4-40.3
	C113.3,34.5,90.5,11.9,62.8,11.9z M59,89c-26.3,0-42-12.5-42-33.5c0-23.1,18.8-42,42-42s42,18.8,42,42C100.8,76.6,85.2,89,59,89z"/>
<path class="st8" d="M109.4,90.5c0,0,3.9,3.4-2,17.9C107.3,108.4,123.5,92.4,109.4,90.5z"/>
<path class="st13" d="M100.8,100.3c0,0-3.3,15.8,11.6,17.1c14.8,1.4,6.9-5.1,6.9-5.1s9.1,11.3-7.9,10
	C94.3,121.1,100.8,100.3,100.8,100.3z"/>
<path class="st5" d="M63.5,106c-15.9,0-29.2-3.8-38.3-11.2C15.9,87.5,11,76.7,11,63.7c0-28.9,23.6-52.4,52.4-52.4
	c14,0,27.2,5.4,37.1,15.3s15.3,23.1,15.3,37.1c0,13-4.8,23.8-14.1,31.1C92.8,102.2,79.4,106,63.5,106z M63.5,15.4
	c-26.7,0-48.4,21.8-48.4,48.4c0,11.7,4.4,21.4,12.6,28c8.3,6.7,20.8,10.3,35.8,10.3s27.4-3.5,35.8-10.3c8.2-6.5,12.6-16.2,12.6-28
	c0-12.9-5.1-25-14.2-34.2S76.3,15.4,63.5,15.4z"/>
<path class="st13" d="M8.4,112.3c0,0-1.2,4.2,5,4.2s14.9-2.1,12.7-18.4c0,0,6.1,23.3-15,24.7C11.1,122.9-2.1,118.5,8.4,112.3z"/>
<path class="st8" d="M18.2,89.3c0,0-2.9,12.2,4.1,19.2C22.3,108.5,2.6,91.3,18.2,89.3z"/>
<path class="st4" d="M73.8,112.1c0-6.5-4.1-12-9-12s-9,5.4-9,12v10.7c0,6.5,4.1,12,9,12s9-5.4,9-12V112.1z"/>
<path class="st4" d="M73.8,112.1c0-6.5-4.1-12-9-12s-9,5.4-9,12v10.7c0,6.5,4.1,12,9,12s9-5.4,9-12V112.1z"/>
<path class="st14" d="M64.8,99.6c-5,0-9,5.4-9,12v7c0-6.5,4.1-12,9-12s9,5.4,9,12v-7C73.8,105,69.8,99.6,64.8,99.6z"/>
<path class="st5" d="M64.8,136.7c-6.1,0-11.1-6.2-11.1-14V112c0-7.7,5-14,11.1-14s11.1,6.2,11.1,14v10.7
	C75.8,130.4,70.8,136.7,64.8,136.7z M64.8,102.2c-3.8,0-7,4.5-7,9.9v10.7c0,5.4,3.2,9.9,7,9.9c3.8,0,7-4.5,7-9.9v-10.7
	C71.8,106.7,68.5,102.2,64.8,102.2z"/>
<path class="st5" d="M64.8,136.7c-6.1,0-11.1-6.2-11.1-14V112c0-7.7,5-14,11.1-14s11.1,6.2,11.1,14v10.7
	C75.8,130.4,70.8,136.7,64.8,136.7z M64.8,102.2c-3.8,0-7,4.5-7,9.9v10.7c0,5.4,3.2,9.9,7,9.9c3.8,0,7-4.5,7-9.9v-10.7
	C71.8,106.7,68.5,102.2,64.8,102.2z"/>
<path class="st8" d="M64.5,126.9c-5,0-9-5.4-9-12v7c0,6.5,4.1,12,9,12s9-5.4,9-12v-7C73.5,121.5,69.4,126.9,64.5,126.9z"/>
</svg>
