<?xml version="1.0" encoding="utf-8"?>
<!-- Generator: Adobe Illustrator 22.1.0, SVG Export Plug-In . SVG Version: 6.00 Build 0)  -->
<svg version="1.1" id="图层_1" xmlns="http://www.w3.org/2000/svg" xmlns:xlink="http://www.w3.org/1999/xlink" x="0px" y="0px"
	 viewBox="0 0 204 140" style="enable-background:new 0 0 204 140;" xml:space="preserve">
<style type="text/css">
	.st0{opacity:0.3;}
	.st1{fill:#9BC0D1;}
	.st2{opacity:0.64;fill:#FFFFFF;enable-background:new    ;}
	.st3{opacity:0.62;fill:#6E6E96;enable-background:new    ;}
	.st4{opacity:0.5;fill:#FFFFFF;enable-background:new    ;}
	.st5{fill:#6E6E96;}
	.st6{fill:#ACD5E8;}
	.st7{fill:#FFE4AD;}
	.st8{opacity:0.52;fill:#6E6E96;enable-background:new    ;}
</style>
<g class="st0">
	<path class="st1" d="M104,2.2c-5,0-9.1,4.9-9.1,10.9v115c0,6,4.1,10.9,9.1,10.9h81.3c5,0,9.1-4.9,9.1-10.9V45.6L160.9,2.2H104z"/>
	<path class="st2" d="M184.9,70.2c0.9,0,1.8-0.3,1.8-0.9v-4.2c0-1.2-1.8-1.2-1.8-1.2h-84l9.4,6.3H184.9z M184.9,92.2
		c0.9,0,1.8-1.2,1.8-1.2v-3.9c0-1.2-1.8-1.2-1.8-1.2h-51.2l9.4,6.3C143.1,92.2,184.9,92.2,184.9,92.2z M183.8,114.1
		c1.5,0,2.9-0.6,2.9-1.2V109c0-1.2-2.9-1.2-2.9-1.2h-33.1l2.2,6.3C152.9,114.1,183.8,114.1,183.8,114.1z"/>
	<path class="st3" d="M194.4,45.8v2.1h-22.7c0,0-11.4-2.8-11-14.3c0,0,0.4,12.2,10.7,12.2H194.4z"/>
	<path class="st4" d="M160.9,2.2v31.2c0,3.4,2,12.4,10.8,12.4h22.7L160.9,2.2z"/>
</g>
<path class="st1" d="M25.1,68.6c0,31,25.2,56.2,56.2,56.2s56.2-25.2,56.2-56.2l0,0c0-31-25.2-56.2-56.2-56.2S25.1,37.6,25.1,68.6
	L25.1,68.6z"/>
<path class="st5" d="M81.3,15.5c29.3,0,53.3,23.8,53.3,53.3S110.7,122,81.3,122S28.1,98,28.1,68.6C28.1,39.3,52,15.5,81.3,15.5z
	 M22,68.6c0,32.7,26.6,59.3,59.3,59.3s59.3-26.6,59.3-59.3S114,9.3,81.3,9.3S22,36,22,68.6z"/>
<path class="st6" d="M32.9,63c0,24.5,20,44.5,44.5,44.5s44.5-20,44.5-44.5S102,18.6,77.4,18.6S32.9,38.4,32.9,63z"/>
<path class="st7" d="M75.9,42.4c0,7.2,5.8,13.1,13.1,13.1c7.2,0,13.1-5.8,13.1-13.1l0,0c-0.1-7.2-5.9-13-13.2-13
	C81.8,29.4,75.9,35.2,75.9,42.4L75.9,42.4z"/>
<path class="st5" d="M88.9,32.4c5.6,0,10,4.4,10,10s-4.4,10-10,10s-10-4.4-10-10S83.5,32.4,88.9,32.4z M72.9,42.4
	c0,8.9,7.2,16.1,16.1,16.1s16.1-7.2,16.1-16.1S97.9,26.3,89,26.3S72.9,33.5,72.9,42.4z"/>
<path class="st8" d="M10.5,17.3c0,3.9,3.1,7,7,7s7-3.1,7-7l0,0c0-3.9-3.1-7-7-7S10.5,13.4,10.5,17.3L10.5,17.3z"/>
<path class="st1" d="M48.1,56.3c0,3.1,2.5,5.6,5.6,5.6s5.6-2.5,5.6-5.6s-2.5-5.6-5.6-5.6S48.1,53.2,48.1,56.3z"/>
<path class="st1" d="M69.6,77.4c0,4.3,3.4,7.8,7.8,7.8s7.8-3.4,7.8-7.8l0,0c0-4.3-3.4-7.8-7.8-7.8C73,69.7,69.6,73.1,69.6,77.4
	L69.6,77.4z"/>
<path class="st5" d="M119.2,29.5c13.7-2.4,23.3-1,25.6,3.4c4.7,9.1-17.6,33.2-56.9,53.2c-29.3,14.9-58.7,22.4-71.6,18.3
	c-2.4-0.8-4.1-1.9-4.8-3.4C8.9,96,15,85.9,27.4,75c1.3-1.1,1.4-3.1,0.2-4.3c-1.1-1.3-3.1-1.4-4.3-0.2l0,0C8,83.8,1.9,95.7,5.9,103.6
	c1.5,3,4.3,5.2,8.3,6.5c14.6,4.7,45.2-2.7,76.3-18.6c34.9-17.8,67.6-45.4,59.5-61.4c-3.8-7.3-14.8-9.7-32.1-6.7
	c-1.6,0.3-2.7,1.9-2.4,3.5C116,28.7,117.6,29.7,119.2,29.5z"/>
<path class="st3" d="M138,123.1c0,5.1,4.2,9.4,9.4,9.4s9.4-4.2,9.4-9.4l0,0c0-5.1-4.2-9.4-9.4-9.4C142.1,113.8,138,117.9,138,123.1z
	"/>
</svg>
