<?xml version="1.0" encoding="utf-8"?>
<!-- Generator: Adobe Illustrator 22.1.0, SVG Export Plug-In . SVG Version: 6.00 Build 0)  -->
<svg version="1.1" id="图层_1" xmlns="http://www.w3.org/2000/svg" xmlns:xlink="http://www.w3.org/1999/xlink" x="0px" y="0px"
	 viewBox="0 0 190 140" style="enable-background:new 0 0 190 140;" xml:space="preserve">
<style type="text/css">
	.st0{opacity:0.16;fill:#B76C7C;enable-background:new    ;}
	.st1{opacity:0.4;fill:#FFFFFF;enable-background:new    ;}
	.st2{opacity:0.12;enable-background:new    ;}
	.st3{opacity:0.5;fill:#FFFFFF;enable-background:new    ;}
	.st4{fill:#656D78;}
	.st5{fill:#965353;}
	.st6{fill:#7F4545;}
	.st7{fill:#A85D5D;}
	.st8{fill:#ED5564;}
	.st9{fill:#434A54;}
</style>
<path class="st0" d="M93,2.2c-5,0-9.1,4.9-9.1,10.9v115c0,6,4.1,10.9,9.1,10.9h81.3c5,0,9.1-4.9,9.1-10.9V45.6L149.9,2.2H93z"/>
<path class="st1" d="M173.9,70.2c0.9,0,1.8-0.3,1.8-0.9v-4.2c0-1.2-1.8-1.2-1.8-1.2h-84l9.4,6.3H173.9z M173.9,92.2
	c0.9,0,1.8-1.2,1.8-1.2v-3.9c0-1.2-1.8-1.2-1.8-1.2h-51.2l9.4,6.3C132.1,92.2,173.9,92.2,173.9,92.2z M172.8,114.1
	c1.5,0,2.9-0.6,2.9-1.2V109c0-1.2-2.9-1.2-2.9-1.2h-33.1l7.2,6.3C146.9,114.1,172.8,114.1,172.8,114.1z"/>
<path class="st2" d="M183.4,45.8v2.1h-22.7c0,0-11.4-2.8-11-14.3c0,0,0.4,12.2,10.7,12.2H183.4z"/>
<path class="st3" d="M149.9,2.2v31.2c0,3.4,2,12.4,10.8,12.4h22.7L149.9,2.2z"/>
<path class="st4" d="M97.4,105.8H14.7c-1.8,0-3.5,1.5-3.5,3.5v10.4c0,1.8,1.5,3.5,3.5,3.5h82.6c1.8,0,3.5-1.5,3.5-3.5l0,0v-10.4
	C100.7,107.5,99.2,105.8,97.4,105.8z"/>
<path class="st5" d="M158.9,133.3c-2.3-0.1-4.3-0.9-6.1-2.3l-70-55.7c-1.5-1.2-1.7-3.5-0.5-4.8L91,59.8c0.5-0.8,1.4-1.2,2.3-1.3
	s1.7,0.1,2.5,0.8l70,55.7c4.4,3.6,5.2,10.1,1.6,14.5C165.4,132,162.1,133.4,158.9,133.3L158.9,133.3z"/>
<path class="st6" d="M107.5,37.7L81.8,17.4c-1.5-1.2-3.7-0.9-4.8,0.5c-1,1.2-1,2.8-0.2,4c-0.1,0.2-0.3,0.8-1,1.6
	c-0.7,0.8-1.2,1.2-1.4,1.4c-1.4-0.5-2.9-0.1-3.9,1.2c-1.2,1.4-0.9,3.6,0.6,4.8l0,0l25.5,20.5l0,0c0.6,0.5,1.3,0.8,2.1,0.8h0.1
	c1.8,0,3.5-1.5,3.5-3.2c0-0.8-0.1-1.4-0.5-2.1c0.1-0.2,0.3-0.9,1-1.6c0.7-0.7,1.2-1.2,1.4-1.4c1.4,0.5,2.9,0.1,3.9-1.2
	C109.2,41.1,109,38.9,107.5,37.7L107.5,37.7z M75.4,25.5L75.4,25.5C75.3,25.4,75.4,25.5,75.4,25.5z M103.1,43.2L103.1,43.2
	L103.1,43.2z M75.3,78.2L75.3,78.2L49.7,57.8l0,0c-1.5-1.2-3.7-0.9-4.8,0.5c-0.9,1.2-1,2.8-0.2,4c-0.1,0.2-0.3,0.8-1,1.6
	c-0.6,0.8-1.2,1.2-1.4,1.4c-1.4-0.5-2.9-0.1-3.9,1.2c-1.2,1.5-0.9,3.7,0.5,4.8l0,0l25.5,20.5l0,0c0.6,0.5,1.3,0.8,2.1,0.8h0.1
	c1.8,0,3.5-1.5,3.5-3.2c0-0.8-0.1-1.4-0.5-2.1c0.1-0.2,0.3-0.9,1-1.6c0.6-0.8,1.2-1.2,1.4-1.4c1.4,0.5,2.9,0.1,3.9-1.2
	C76.9,81.5,76.6,79.3,75.3,78.2z M71,83.5L71,83.5L71,83.5C71.1,83.6,71,83.6,71,83.5L71,83.5z"/>
<path class="st6" d="M96.3,86.1l13-16.1l-5.4-4.3L91,81.9L96.3,86.1z M150.2,129l12.9-16.1l-5.4-4.3l-12.9,16.1L150.2,129z"/>
<path class="st7" d="M105.6,50.8c-0.1-0.9-0.5-1.7-1.3-2.3L72,22.8c-0.8-0.6-1.6-0.9-2.5-0.8s-1.7,0.5-2.3,1.3L41.4,55.6
	c-0.6,0.8-0.9,1.6-0.8,2.5c0.1,0.9,0.5,1.7,1.3,2.3l32.3,25.7c0.6,0.5,1.3,0.8,2.1,0.8c1.2,0,2.2-0.5,2.8-1.3l25.8-32.3
	C105.4,52.6,105.6,51.7,105.6,50.8L105.6,50.8z"/>
<path class="st6" d="M73.6,40.8c-7.6-0.2-14,5.6-14.3,13.2c-0.2,7.6,5.6,14,13.3,14.3c7.6,0.2,14-5.6,14.3-13.3
	C87.1,47.5,81.2,41,73.6,40.8z"/>
<path class="st7" d="M76.6,54.6c-0.1,1.8-1.6,3.5-3.6,3.2c-1.8,0-3.5-1.6-3.2-3.6c0-1.8,1.6-3.5,3.6-3.2
	C75.1,51.1,76.6,52.7,76.6,54.6z"/>
<path class="st7" d="M120.7,32c-0.1-0.9-0.5-1.7-1.3-2.3L87,4c-0.8-0.6-1.6-0.9-2.5-0.8c-0.9,0.1-1.7,0.5-2.3,1.3l-8.6,10.7
	c-0.6,0.8-0.9,1.6-0.8,2.5c0.1,0.9,0.5,1.7,1.3,2.3l32.3,25.8c0.6,0.5,1.3,0.8,2.1,0.8c1.2,0,2.2-0.5,2.8-1.3l8.6-10.7
	C120.4,33.9,120.7,33,120.7,32z M72.2,88.9L39.8,63.2c-0.8-0.6-1.6-0.9-2.5-0.8c-0.9,0.1-1.7,0.5-2.3,1.3l-8.6,10.7
	c-1.2,1.5-0.9,3.7,0.5,4.8l32.3,25.9c0.6,0.5,1.3,0.8,2.1,0.8c1.2,0,2.2-0.5,2.8-1.3l8.6-10.7c0.6-0.8,0.9-1.6,0.8-2.5
	C73.4,90.4,72.8,89.5,72.2,88.9L72.2,88.9z"/>
<path class="st8" d="M104.1,116.2H7.8c-1.8,0-3.5,1.5-3.5,3.5v13.7c0,1.8,1.5,3.5,3.5,3.5h96.3c1.8,0,3.5-1.5,3.5-3.5v-13.7
	C107.7,117.6,106.2,116.2,104.1,116.2z"/>
<path class="st9" d="M80.1,105.8L80.1,105.8v3.6c0,1.8,1.5,3.5,3.5,3.5s3.5-1.5,3.5-3.5l0,0v-3.5l0,0L80.1,105.8L80.1,105.8z
	 M66.3,105.8L66.3,105.8v3.6c0,1.8,1.5,3.5,3.5,3.5c1.8,0,3.5-1.5,3.5-3.5v-3.5l0,0L66.3,105.8L66.3,105.8z M52.6,105.8v3.6
	c0,1.8,1.5,3.5,3.5,3.5l0,0c1.8,0,3.5-1.5,3.5-3.5v-3.5l0,0L52.6,105.8L52.6,105.8z M38.8,105.8L38.8,105.8v3.6
	c0,1.8,1.5,3.5,3.5,3.5c1.8,0,3.5-1.5,3.5-3.5v-3.5l0,0L38.8,105.8L38.8,105.8z M25.1,105.8L25.1,105.8v3.6c0,1.8,1.5,3.5,3.5,3.5
	s3.5-1.5,3.5-3.5v-3.5l0,0L25.1,105.8L25.1,105.8z"/>
</svg>
