<?xml version="1.0" encoding="utf-8"?>
<!-- Generator: Adobe Illustrator 22.1.0, SVG Export Plug-In . SVG Version: 6.00 Build 0)  -->
<svg version="1.1" id="图层_1" xmlns="http://www.w3.org/2000/svg" xmlns:xlink="http://www.w3.org/1999/xlink" x="0px" y="0px"
	 viewBox="0 0 180 140" style="enable-background:new 0 0 180 140;" xml:space="preserve">
<style type="text/css">
	.st0{opacity:0.2;fill:#E0BF8C;enable-background:new    ;}
	.st1{opacity:0.4;fill:#FFFFFF;enable-background:new    ;}
	.st2{opacity:0.1;fill:#BC9C71;enable-background:new    ;}
	.st3{opacity:0.2;fill:#FFFFFF;enable-background:new    ;}
	.st4{fill:#4A89DC;}
	.st5{fill:#5D9CEC;}
	.st6{fill:#434A54;}
	.st7{fill:#E6E9ED;}
	.st8{fill:#ED5564;}
	.st9{fill:#DA4453;}
	.st10{fill:#F6BB42;}
	.st11{fill:#FFCE54;}
	.st12{fill:#CCD1D9;}
	.st13{fill:#967ADC;}
	.st14{fill:#AC92EB;}
</style>
<path class="st0" d="M76.6,2.2c-5,0-9.1,4.9-9.1,10.9v115c0,6,4.1,10.9,9.1,10.9h81.3c5,0,9.1-4.9,9.1-10.9V45.6L133.4,2.2H76.6z"/>
<path class="st1" d="M157.5,70.2c0.9,0,1.8-0.3,1.8-0.9v-4.2c0-1.2-1.8-1.2-1.8-1.2h-84l9.4,6.3H157.5z M157.5,92.2
	c0.9,0,1.8-1.2,1.8-1.2v-3.9c0-1.2-1.8-1.2-1.8-1.2h-51.2l9.4,6.3C115.7,92.2,157.5,92.2,157.5,92.2z M156.4,114.1
	c1.5,0,2.9-0.6,2.9-1.2V109c0-1.2-2.9-1.2-2.9-1.2h-33.1l11.2,6.3C134.5,114.1,156.4,114.1,156.4,114.1z"/>
<path class="st2" d="M167,45.8v2.1h-22.7c0,0-11.4-2.8-11-14.3c0,0,0.4,12.2,10.7,12.2H167z"/>
<path class="st3" d="M133.4,2.2v31.2c0,3.4,2,12.4,10.8,12.4H167L133.4,2.2z"/>
<path class="st4" d="M42.6,19.4c-0.3-1.4,0.6-2.8,2-3.1c1.4-0.3,2.8,0.6,3.1,2C47.7,18.4,42.6,19.4,42.6,19.4z M32.4,21.5
	c-0.3-1.4,0.6-2.8,2-3.1c1.4-0.3,2.8,0.6,3.1,2C37.5,20.5,32.4,21.5,32.4,21.5z M22.2,23.6c-0.3-1.4,0.6-2.8,2-3.1
	c1.4-0.3,2.8,0.6,3.1,2C27.3,22.5,22.2,23.6,22.2,23.6z M56.7,69.8L36.3,74l-9.4-40.7l20.4-4.2L56.7,69.8z"/>
<path class="st5" d="M47.3,29.1l-20.4,4.2l-4.6-9.7l25.5-5.2L47.3,29.1z"/>
<path class="st6" d="M46.5,74.5c-1.2,0-2.2-0.8-2.5-2L36.6,42c-0.3-1.4,0.5-2.8,1.9-3.1s2.8,0.5,3.1,1.9L49,71.3
	c0.3,1.4-0.5,2.8-1.9,3.1C46.9,74.5,46.7,74.5,46.5,74.5z"/>
<path class="st7" d="M77.4,91.6c-0.1,0-0.3,0-0.4,0c-1.4-0.2-2.4-1.6-2.1-3l0,0L85,28.9c0.2-1.4,1.6-2.4,3-2.1
	c1.4,0.2,2.4,1.6,2.1,3L79.9,89.4C79.7,90.7,78.6,91.6,77.4,91.6z"/>
<path class="st8" d="M87.5,8.5c-11.5,0-20.8,9.3-20.8,20.8S76,50.1,87.5,50.1s20.8-9.3,20.8-20.8C108.3,17.9,98.9,8.5,87.5,8.5z"/>
<path class="st9" d="M97.6,42.4c2,0.5,4,0.7,5.5,0.7c1.4-1.6,2.6-3.4,3.4-5.4c-0.2,0-0.4,0-0.6,0c0,0-3.5,0.5-7.2-0.4
	c-3.1-0.8-5.5-2.4-7.1-4.7c4.5,0,8.7-1.9,12.1-5.5c1.4-1.5,2.5-3.1,3.3-4.4c-0.7-2-1.7-3.9-3-5.6c-0.1,0.2-0.2,0.4-0.3,0.5
	c0,0-1.3,3.3-4,6c-2.2,2.3-4.8,3.6-7.6,3.7c2.3-3.9,2.7-8.4,1.3-13.3c-0.6-2-1.4-3.8-2.2-5.1c-2.1-0.4-4.2-0.5-6.4-0.3
	C84.9,8.8,85,9,85.1,9.1c0,0,2.1,2.7,3.2,6.3c0.9,3.2,0.7,6-0.5,8.6c-2.3-3.9-5.9-6.6-10.8-7.8c-2-0.5-4-0.7-5.5-0.7
	c-1.4,1.6-2.6,3.4-3.4,5.4c0.2,0,0.4,0,0.6,0c0,0,3.4-0.5,7,0.4c3.2,0.8,5.6,2.4,7.2,4.8c-4.5,0-8.7,1.9-12.1,5.5
	c-1.4,1.5-2.5,3.1-3.3,4.4c0.7,2,1.7,3.9,3,5.6c0.1-0.2,0.2-0.4,0.3-0.6c0,0,1.3-3.2,3.8-5.9c2.3-2.4,4.9-3.7,7.7-3.8
	c-2.3,3.9-2.7,8.4-1.3,13.3c0.6,2,1.4,3.8,2.2,5.1c2.1,0.4,4.2,0.5,6.4,0.3c-0.1-0.2-0.2-0.4-0.3-0.5c0,0-2.1-2.7-3.2-6.3
	c-0.9-3.2-0.7-6,0.5-8.6C89.1,38.5,92.8,41.2,97.6,42.4z"/>
<path class="st3" d="M87.5,8.5c-0.4,0-0.9,0-1.3,0c10.8,0.7,19.5,9.8,19.5,20.8s-8.6,20.1-19.5,20.8c0.4,0,0.9,0,1.3,0
	c11.5,0,20.8-9.3,20.8-20.8C108.3,17.9,98.9,8.5,87.5,8.5z"/>
<path class="st10" d="M25.1,47.6c-1.4,0-2.6,1.2-2.6,2.6v2.6c0,1.4,1.2,2.6,2.6,2.6s2.6-1.2,2.6-2.6v-2.6
	C27.7,48.7,26.6,47.6,25.1,47.6z M35.6,47.6c-1.4,0-2.6,1.2-2.6,2.6v2.6c0,1.4,1.2,2.6,2.6,2.6c1.4,0,2.6-1.2,2.6-2.6v-2.6
	C38.2,48.7,37,47.6,35.6,47.6z M46,47.6c-1.4,0-2.6,1.2-2.6,2.6v2.6c0,1.4,1.2,2.6,2.6,2.6s2.6-1.2,2.6-2.6v-2.6
	C48.6,48.7,47.4,47.6,46,47.6z M56.4,47.6c-1.4,0-2.6,1.2-2.6,2.6v2.6c0,1.4,1.2,2.6,2.6,2.6c1.4,0,2.6-1.2,2.6-2.6v-2.6
	C59,48.7,57.8,47.6,56.4,47.6z M66.8,47.6c-1.4,0-2.6,1.2-2.6,2.6v2.6c0,1.4,1.2,2.6,2.6,2.6s2.6-1.2,2.6-2.6v-2.6
	C69.4,48.7,68.2,47.6,66.8,47.6z M77.2,47.6c-1.4,0-2.6,1.2-2.6,2.6v2.6c0,1.4,1.2,2.6,2.6,2.6s2.6-1.2,2.6-2.6v-2.6
	C79.8,48.7,78.6,47.6,77.2,47.6z M87.6,47.6c-1.4,0-2.6,1.2-2.6,2.6v2.6c0,1.4,1.2,2.6,2.6,2.6s2.6-1.2,2.6-2.6v-2.6
	C90.2,48.7,89.1,47.6,87.6,47.6z M98,47.6c-1.4,0-2.6,1.2-2.6,2.6v2.6c0,1.4,1.2,2.6,2.6,2.6s2.6-1.2,2.6-2.6v-2.6
	C100.6,48.7,99.5,47.6,98,47.6z"/>
<path class="st11" d="M105.8,130.6l-5.2-78c-0.1-1.4-1.2-2.4-2.6-2.4H25.1c-1.4,0-2.5,1.1-2.6,2.4l-5.2,78.1c0,0.7,0.2,1.4,0.7,2
	c0.5,0.5,1.2,0.8,1.9,0.8h83.3c1.4,0,2.6-1.2,2.6-2.6C105.8,130.8,105.8,130.7,105.8,130.6L105.8,130.6z"/>
<path class="st10" d="M105.6,126.8c-0.4,0.9-1.3,1.5-2.3,1.5H19.9c-0.7,0-1.4-0.3-1.9-0.8c-0.2-0.2-0.3-0.4-0.4-0.6l-0.3,3.9
	c0,0.7,0.2,1.4,0.7,2c0.5,0.5,1.2,0.8,1.9,0.8h83.3c1.4,0,2.6-1.2,2.6-2.6c0-0.1,0-0.2,0-0.3L105.6,126.8z"/>
<path class="st7" d="M74.6,81.4c0-7.2-5.8-13-13-13s-13,5.8-13,13c0,4.3,2,8,5.2,10.4V97h15.6v-5.2C72.6,89.4,74.6,85.7,74.6,81.4
	L74.6,81.4z"/>
<path class="st6" d="M59,81.4c0,1.4-1.2,2.6-2.6,2.6c-1.4,0-2.6-1.2-2.6-2.6s1.2-2.6,2.6-2.6S59,80,59,81.4z M69.4,81.4
	c0,1.4-1.2,2.6-2.6,2.6s-2.6-1.2-2.6-2.6s1.2-2.6,2.6-2.6S69.4,80,69.4,81.4z"/>
<path class="st12" d="M61.6,91.8c-1.4,0-2.6,1.2-2.6,2.6l0,0V97h5.2v-2.6C64.2,93,63,91.8,61.6,91.8z M82.3,117.9
	c-0.3,0-0.6-0.1-0.9-0.2l-41.7-15.6c-1.3-0.5-2-2-1.5-3.4c0.5-1.3,2-2,3.3-1.5l41.7,15.6c1.3,0.5,2,2,1.5,3.4
	C84.4,117.3,83.4,117.9,82.3,117.9z"/>
<path class="st13" d="M125.4,113c-0.8-0.5-1.8-0.5-2.6-0.1l-14.8,7.8c-0.9,0.5-1.4,1.3-1.4,2.3s0.5,1.8,1.4,2.3l14.8,7.8
	c0.4,0.2,0.8,0.3,1.2,0.3c0.5,0,0.9-0.1,1.3-0.4c0.8-0.5,1.3-1.3,1.3-2.2v-15.6C126.7,114.3,126.2,113.5,125.4,113z M98.4,120.8
	L83.6,113c-0.8-0.4-1.8-0.4-2.6,0.1c-0.8,0.5-1.3,1.3-1.3,2.2v15.6c0,0.9,0.5,1.8,1.3,2.2c0.4,0.2,0.9,0.4,1.3,0.4s0.8-0.1,1.2-0.3
	l14.8-7.8c0.9-0.5,1.4-1.3,1.4-2.3C99.8,122.1,99.2,121.2,98.4,120.8L98.4,120.8z"/>
<path class="st14" d="M112.2,115.5c-2.4-1.8-5.6-2.8-8.9-2.8s-6.5,1-8.9,2.8c-2.6,1.9-4.1,4.7-4.1,7.6s1.5,5.7,4.1,7.6
	c2.4,1.8,5.6,2.8,8.9,2.8s6.5-1,8.9-2.8c2.6-2,4.1-4.7,4.1-7.6S114.8,117.4,112.2,115.5L112.2,115.5z"/>
<path class="st7" d="M40.7,117.9c-1.1,0-2-0.6-2.4-1.7c-0.5-1.3,0.2-2.8,1.5-3.4l41.7-15.6c1.3-0.5,2.8,0.2,3.4,1.5
	c0.5,1.3-0.2,2.8-1.5,3.4l-41.7,15.6C41.3,117.8,41,117.9,40.7,117.9z"/>
</svg>
