<?xml version="1.0" encoding="utf-8"?>
<!-- Generator: Adobe Illustrator 22.1.0, SVG Export Plug-In . SVG Version: 6.00 Build 0)  -->
<svg version="1.1" id="图层_1" xmlns="http://www.w3.org/2000/svg" xmlns:xlink="http://www.w3.org/1999/xlink" x="0px" y="0px"
	 viewBox="0 0 180 140" style="enable-background:new 0 0 180 140;" xml:space="preserve">
<style type="text/css">
	.st0{opacity:0.2;fill:#F4BE8E;enable-background:new    ;}
	.st1{opacity:0.4;fill:#FFFFFF;enable-background:new    ;}
	.st2{opacity:0.1;enable-background:new    ;}
	.st3{opacity:0.2;fill:#FFFFFF;enable-background:new    ;}
	.st4{fill:#F6BB42;}
	.st5{fill:#FFCE54;}
	.st6{fill:#434A54;}
	.st7{fill:#EAAD7A;}
	.st8{fill:#ED5564;}
	.st9{fill:#965353;}
	.st10{fill:#7F4545;}
	.st11{fill:#F4BE8E;}
	.st12{fill:#FFD2A6;}
	.st13{fill:#5D9CEC;}
	.st14{fill:#656D78;}
</style>
<path class="st0" d="M72,2.2c-5,0-9.1,4.9-9.1,10.9v115c0,6,4.1,10.9,9.1,10.9h81.3c5,0,9.1-4.9,9.1-10.9V45.6L128.9,2.2H72z"/>
<path class="st1" d="M152.9,70.2c0.9,0,1.8-0.3,1.8-0.9v-4.2c0-1.2-1.8-1.2-1.8-1.2h-84l9.4,6.3H152.9z M152.9,92.2
	c0.9,0,1.8-1.2,1.8-1.2v-3.9c0-1.2-1.8-1.2-1.8-1.2h-51.2l9.4,6.3C111.1,92.2,152.9,92.2,152.9,92.2z M151.8,114.1
	c1.5,0,2.9-0.6,2.9-1.2V109c0-1.2-2.9-1.2-2.9-1.2h-33.1l7.2,6.3C125.9,114.1,151.8,114.1,151.8,114.1z"/>
<path class="st2" d="M162.4,45.8v2.1h-22.7c0,0-11.4-2.8-11-14.3c0,0,0.4,12.2,10.7,12.2H162.4z"/>
<path class="st3" d="M128.9,2.2v31.2c0,3.4,2,12.4,10.8,12.4h22.7L128.9,2.2z"/>
<path class="st4" d="M70,23.7c-1.5,0-2.7-1.2-2.7-2.7V4.8c0-1.5,1.2-2.7,2.7-2.7s2.7,1.2,2.7,2.7V21C72.7,22.5,71.5,23.7,70,23.7z"
	/>
<path class="st5" d="M75.4,12.9H64.6c-1.5,0-2.7-1.2-2.7-2.7s1.2-2.7,2.7-2.7h10.8c1.5,0,2.7,1.2,2.7,2.7S76.9,12.9,75.4,12.9z"/>
<path class="st6" d="M70,56.2c-0.7,0-1.4-1.2-1.4-2.7v-8.1c0-1.5,0.6-2.7,1.4-2.7c0.7,0,1.4,1.2,1.4,2.7v8.1
	C71.4,55,70.7,56.2,70,56.2z"/>
<path class="st5" d="M64.6,38h10.8v7.3H64.6V38z"/>
<path class="st7" d="M83.1,35.7L72.3,19.5c-0.5-0.8-1.3-1.2-2.3-1.2c-0.9,0-1.7,0.5-2.3,1.2L56.9,35.7c-0.3,0.4-0.5,1-0.5,1.5v16.2
	c0,1.5,1.2,2.7,2.7,2.7h21.6c1.5,0,2.7-1.2,2.7-2.7V37.2C83.5,36.7,83.4,36.2,83.1,35.7z M78.1,50.8H61.9V38.1L70,25.9l8.1,12.2
	V50.8z"/>
<path class="st8" d="M80.8,40H59.2c-1,0-1.9-0.5-2.4-1.4s-0.4-1.9,0.1-2.8l10.8-16.2c0.5-0.8,1.3-1.2,2.3-1.2c0.9,0,1.7,0.5,2.3,1.2
	l10.8,16.2c0.6,0.8,0.6,1.9,0.1,2.8C82.7,39.4,81.8,40,80.8,40z"/>
<path class="st9" d="M53.8,88.6h-8.1c-1.5,0-2.7-1.2-2.7-2.7V64.3c0-1.5,1.2-2.7,2.7-2.7l0,0h8.1c1.5,0,2.7,1.2,2.7,2.7v21.6
	C56.5,87.4,55.3,88.6,53.8,88.6z M94.3,88.6h-8.1c-1.5,0-2.7-1.2-2.7-2.7V64.3c0-1.5,1.2-2.7,2.7-2.7h8.1c1.5,0,2.7,1.2,2.7,2.7
	v21.6C97,87.4,95.8,88.6,94.3,88.6z"/>
<path class="st10" d="M53.8,69.7H43v5.4h10.8c1.5,0,2.7-1.2,2.7-2.7S55.3,69.7,53.8,69.7z M86.2,75.1H97v-5.4H86.2
	c-1.5,0-2.7,1.2-2.7,2.7C83.5,73.9,84.7,75.1,86.2,75.1z M97,67H43c-1.5,0-2.7-1.2-2.7-2.7s1.2-2.7,2.7-2.7h54
	c1.5,0,2.7,1.2,2.7,2.7S98.5,67,97,67z"/>
<path class="st11" d="M86.2,50.8H53.8c-1.5,0-2.7,1.2-2.7,2.7l0,0V86c0,1.5,1.2,2.7,2.7,2.7h32.5c1.5,0,2.7-1.2,2.7-2.7V53.5
	C88.9,52,87.7,50.8,86.2,50.8z"/>
<path class="st9" d="M45.7,94h-27c-1.5,0-2.7,1.2-2.7,2.7v32.5c0,1.5,1.2,2.7,2.7,2.7h27c1.5,0,2.7-1.2,2.7-2.7V96.8
	C48.4,95.3,47.2,94,45.7,94z M121.4,94h-27c-1.5,0-2.7,1.2-2.7,2.7v32.5c0,1.5,1.2,2.7,2.7,2.7h27c1.5,0,2.7-1.2,2.7-2.7V96.8
	C124.1,95.3,122.9,94,121.4,94L121.4,94L121.4,94z"/>
<path class="st12" d="M95.8,83.6l-1.7-1.1L72.9,68.3c-0.8-0.5-1.8-0.6-2.6-0.2l-6.8,3c-0.1,0.1-0.3,0.1-0.4,0.2L44.2,83.7
	C43.4,84.2,43,85,43,85.9v43.3c0,1.5,1.2,2.7,2.7,2.7h48.7c1.5,0,2.7-1.2,2.7-2.7V85.9C97,85,96.6,84.1,95.8,83.6L95.8,83.6z"/>
<path class="st8" d="M70,104.9c-4.5,0-8.1,3.6-8.1,8.1v16.2h16.2V113C78.1,108.5,74.5,104.9,70,104.9L70,104.9z"/>
<path class="st13" d="M75.4,91.4c0,3-2.4,5.4-5.4,5.4s-5.4-2.4-5.4-5.4S67,86,70,86S75.4,88.4,75.4,91.4z"/>
<path class="st11" d="M70,83.3c-4.5,0-8.1,3.6-8.1,8.1s3.6,8.1,8.1,8.1s8.1-3.6,8.1-8.1C78.1,87,74.5,83.3,70,83.3z M70,94.1
	c-1.5,0-2.7-1.2-2.7-2.7s1.2-2.7,2.7-2.7s2.7,1.2,2.7,2.7S71.5,94.1,70,94.1z"/>
<path class="st13" d="M24,104.9h10.8v16.2H24V104.9z"/>
<path class="st10" d="M34.8,123.8H24c-1.5,0-2.7-1.2-2.7-2.7v-16.2c0-1.5,1.2-2.7,2.7-2.7h10.8c1.5,0,2.7,1.2,2.7,2.7v16.2
	C37.5,122.6,36.3,123.8,34.8,123.8z M26.7,118.4h5.4v-10.8h-5.4C26.7,107.6,26.7,118.4,26.7,118.4z"/>
<path class="st13" d="M105.2,104.9H116v16.2h-10.8V104.9z"/>
<path class="st10" d="M116,123.8h-10.8c-1.5,0-2.7-1.2-2.7-2.7v-16.2c0-1.5,1.2-2.7,2.7-2.7H116c1.5,0,2.7,1.2,2.7,2.7v16.2
	C118.7,122.6,117.5,123.8,116,123.8z M107.9,118.4h5.4v-10.8h-5.4V118.4z"/>
<path class="st14" d="M126.8,131.9H13.2c-1.5,0-2.7-1.2-2.7-2.7s1.2-2.7,2.7-2.7h113.6c1.5,0,2.7,1.2,2.7,2.7
	S128.3,131.9,126.8,131.9L126.8,131.9z"/>
<path class="st8" d="M40.3,91c-0.9,0-1.8-0.4-2.3-1.3c-0.8-1.3-0.4-2.9,0.9-3.7l29.7-18.6c1.3-0.8,2.9-0.4,3.7,0.9
	c0.8,1.3,0.4,2.9-0.9,3.7L41.7,90.6C41.3,90.9,40.8,91,40.3,91z"/>
<path class="st8" d="M99.7,91c-0.5,0-1-0.1-1.4-0.4L68.6,72c-1.3-0.8-1.6-2.5-0.9-3.7c0.8-1.3,2.5-1.7,3.7-0.9L101.2,86
	c1.3,0.8,1.6,2.5,0.9,3.7C101.5,90.6,100.7,91,99.7,91z"/>
</svg>
