<?xml version="1.0" encoding="utf-8"?>
<!-- Generator: Adobe Illustrator 22.1.0, SVG Export Plug-In . SVG Version: 6.00 Build 0)  -->
<svg version="1.1" id="图层_1" xmlns="http://www.w3.org/2000/svg" xmlns:xlink="http://www.w3.org/1999/xlink" x="0px" y="0px"
	 viewBox="0 0 180 140" style="enable-background:new 0 0 180 140;" xml:space="preserve">
<style type="text/css">
	.st0{opacity:0.2;fill:#E8BE8E;enable-background:new    ;}
	.st1{opacity:0.6;fill:#FFFFFF;enable-background:new    ;}
	.st2{opacity:0.1;enable-background:new    ;}
	.st3{opacity:0.2;fill:#FFFFFF;enable-background:new    ;}
	.st4{fill:#FFFBD4;}
	.st5{opacity:0.31;fill:#E8BE8E;enable-background:new    ;}
	.st6{fill:#6E6E96;}
	.st7{fill:#FA9191;}
	.st8{fill:#ED8A8A;}
	.st9{fill:#FFDF80;}
	.st10{opacity:0.41;fill:#E8A558;enable-background:new    ;}
	.st11{fill:#E0B536;}
	.st12{fill:#D67B7B;}
</style>
<path class="st0" d="M87.2,1.2c-5,0-9.1,4.9-9.1,10.9v115c0,6,4.1,10.9,9.1,10.9h81.3c5,0,9.1-4.9,9.1-10.9V44.6L144,1.2H87.2z"/>
<path class="st1" d="M168,69.2c0.9,0,1.8-0.3,1.8-0.9v-4.2c0-1.2-1.8-1.2-1.8-1.2H84l9.4,6.3H168z M168,91.2c0.9,0,1.8-1.2,1.8-1.2
	v-3.9c0-1.2-1.8-1.2-1.8-1.2h-51.2l9.4,6.3C126.3,91.2,168,91.2,168,91.2z M167,113.1c1.5,0,2.9-0.6,2.9-1.2V108
	c0-1.2-2.9-1.2-2.9-1.2h-33.1l7.2,6.3C141,113.1,167,113.1,167,113.1z"/>
<path class="st2" d="M177.5,44.8v2.1h-22.7c0,0-11.4-2.8-11-14.3c0,0,0.4,12.2,10.7,12.2H177.5z"/>
<path class="st3" d="M144,1.2v31.2c0,3.4,2,12.4,10.8,12.4h22.7L144,1.2z"/>
<path class="st4" d="M35.8,83.2c0,0,15.6,0.3,6.3,24.4c-3.9,10.1-0.4,20.1,8.7,20.1H75c0,0,15.9,0-8.4-47.7"/>
<path class="st5" d="M46.7,99.5c0,0-0.2-6,6-6s2.3,3.6,11,8.2c0,0-11.9,10.1-9.1,26.3h10.7c0,0-8.2-7.8,8-27.9
	c0,0-16.8-9.3-19.6-16.8H42.2C42.2,83.5,48.8,92,46.7,99.5L46.7,99.5z"/>
<path class="st6" d="M35.8,85.3L35.8,85.3c0.1,0,3.7,0.2,5.7,3.2c2.4,3.6,1.9,10-1.3,18.3c-2.6,6.6-2.3,13.4,0.9,18
	c2.2,3.2,5.6,5,9.7,5h24.3c0.3,0,3.5-0.1,5.5-3.5c4.3-7.1,0.3-23-12-47.2L65,81c15.6,30.9,13.8,40.5,12.2,43.1
	c-0.9,1.5-1.9,1.6-2.1,1.6c0,0,0,0,0.1,0H50.8c-2.7,0-4.9-1.1-6.3-3.2c-2.3-3.4-2.5-8.8-0.4-14.1c3.8-9.9,4.1-17.3,0.9-22.1
	c-3.2-4.9-8.8-5.1-9.1-5.1C35.9,81.2,35.8,85.3,35.8,85.3z"/>
<path class="st7" d="M118.2,59.6c0,25.1-25.7,24-57.3,24c-31.7,0-57.4,1-57.4-24s25.7-45.3,57.3-45.3S118.2,34.5,118.2,59.6z"/>
<path class="st8" d="M61.4,14.7C29.8,14.7,4.1,35,4.1,60.1s25.7,24,57.3,24s57.3,1,57.3-24S93,14.7,61.4,14.7z M56.6,70.9
	c-24.4,0-44.2,0.8-44.2-18.5c0-19.4,19.8-35,44.2-35s44.2,15.7,44.2,35S81,70.9,56.6,70.9z"/>
<path class="st6" d="M116.1,59.6c0,6.1-1.6,10.6-4.9,14c-8.1,8.1-26,8.1-46.8,8h-3.6h-3.6c-20.8,0-38.7,0-46.8-8
	c-3.2-3.2-4.9-7.8-4.9-14c0-23.9,24.8-43.3,55.2-43.3C91.3,16.2,116.1,35.7,116.1,59.6z M60.8,12.1C28,12.1,1.3,33.4,1.3,59.5
	c0,7.3,1.9,12.8,6.1,16.9c9.3,9.3,28.1,9.3,49.7,9.2h3.6h3.6c21.7,0,40.4,0,49.7-9.2c4.1-4.1,6.1-9.6,6.1-16.9
	C120.3,33.4,93.7,12.1,60.8,12.1z"/>
<path class="st4" d="M78.3,94c0,0-27.5,33.8-6.2,33.8h16.6c0,0,10,1,5.1-7.7c-5-9-8.1-11,2.6-21.8"/>
<path class="st5" d="M69.1,111.9c0,0,3.5-8.1,10.7-5.5c7.3,2.7-5.7,19.3,2.8,19.3s13.4,3.5,11.6-2.8s-8.9-8.8-4.2-16.6l-17-5.2
	l-4.4,11.8"/>
<path class="st6" d="M76.8,92.7c-1.9,2.4-18.5,23.1-14,32.6c1.4,3,4.5,4.5,9.3,4.5h16.6c-0.1,0-0.1,0-0.2,0c0.5,0,5.7,0.4,7.9-2.8
	c1.3-2.1,1.1-4.7-0.8-7.9c-0.5-0.9-1-1.7-1.4-2.5c-3.9-6.7-4.8-8.2,3.7-16.8l-2.9-2.9c-10.4,10.4-9,14-4.3,21.8
	c0.4,0.8,0.9,1.5,1.4,2.5c1,1.7,1.3,3,0.9,3.7c-0.5,0.9-2.7,1.1-4,1c-0.1,0-0.1,0-0.2,0H72.1c-3,0-4.9-0.8-5.6-2.3
	c-2.6-5.4,6.9-20.1,13.4-28.2L76.8,92.7L76.8,92.7z"/>
<path class="st9" d="M124,96.7c-4.5,16.5-21.2,11-42,5.3c-20.8-5.8-34.8-17.1-27.1-32.4c4.5-9.1,19.1-19,39.9-13.2
	C115.3,62.2,128.5,80.2,124,96.7z"/>
<path class="st10" d="M94.3,57.5c-3.7-1-7-1.5-10.3-1.6c2.3,0.1,4.8,0.5,7.4,1.3c16.6,4.7,27,19,23.3,32.1s-16.9,8.8-33.4,4.2
	C64.8,89,53.7,80,59.7,67.8c1.4-2.8,4-5.7,7.7-8c-5,2.7-8.6,6.5-10.4,10.2c-7.3,14.3,6,24.9,25.5,30.4c19.5,5.4,35.1,10.5,39.4-5
	S113.8,63,94.3,57.5z"/>
<path class="st6" d="M121.8,96.1c-1.1,3.8-2.8,6.4-5.4,7.9c-6.6,3.7-18.2,0.4-31.7-3.4l-2.3-0.6c-14.1-3.9-23.5-10-26.6-17
	c-1.7-3.9-1.4-8,0.8-12.5c4-7.9,17.3-17.8,37.4-12.1C113.7,63.9,126.3,80.9,121.8,96.1z M95.2,54.4C72.7,48.1,57.6,59.5,53,68.7
	c-2.8,5.6-3.1,10.9-0.9,16c3.6,8.1,14,15.1,29.2,19.3l2.3,0.6c14.4,4,26.8,7.5,34.9,2.9c3.6-2.1,6.1-5.4,7.4-10.4
	C130.8,79.8,117.1,60.5,95.2,54.4z"/>
<path class="st11" d="M103.7,89c0,1.9,1.8,3.6,4.1,3.6c2.3,0,4.1-1.6,4.1-3.6l0,0c0-1.9-1.8-3.6-4.1-3.6
	C105.6,85.4,103.7,87,103.7,89L103.7,89z"/>
<path class="st11" d="M66.6,79.3c0,3,3.1,5.4,7,5.4s7-2.4,7-5.4l0,0c0-3-3.1-5.4-7-5.4S66.6,76.3,66.6,79.3L66.6,79.3z"/>
<path class="st11" d="M88.7,70.6c0,1.8,2.1,3.4,4.7,3.4s4.7-1.5,4.7-3.4l0,0c0-1.8-2.1-3.4-4.7-3.4S88.7,68.6,88.7,70.6L88.7,70.6z"
	/>
<path class="st12" d="M73.3,41.2c0,3,3.6,5.4,8,5.4s8-2.4,8-5.4l0,0c0-3-3.6-5.4-8-5.4C77,35.8,73.3,38.2,73.3,41.2L73.3,41.2z"/>
<path class="st12" d="M17.6,53.7c0,4.5,4.9,8.2,10.8,8.2s10.8-3.7,10.8-8.2l0,0c0-4.5-4.9-8.2-10.8-8.2
	C22.5,45.3,17.6,49.1,17.6,53.7L17.6,53.7z"/>
<path class="st12" d="M42.6,32.4c0,2.4,2.9,4.4,6.5,4.4s6.5-1.9,6.5-4.4S52.7,28,49.1,28C45.6,28,42.6,30,42.6,32.4z"/>
</svg>
