<?xml version="1.0" encoding="utf-8"?>
<!-- Generator: Adobe Illustrator 22.1.0, SVG Export Plug-In . SVG Version: 6.00 Build 0)  -->
<svg version="1.1" id="图层_1" xmlns="http://www.w3.org/2000/svg" xmlns:xlink="http://www.w3.org/1999/xlink" x="0px" y="0px"
	 viewBox="0 0 200 150" style="enable-background:new 0 0 200 150;" xml:space="preserve">
<style type="text/css">
	.st0{opacity:0.2;fill:#5D9CEC;enable-background:new    ;}
	.st1{opacity:0.4;fill:#FFFFFF;enable-background:new    ;}
	.st2{opacity:0.1;enable-background:new    ;}
	.st3{opacity:0.2;fill:#FFFFFF;enable-background:new    ;}
	.st4{fill:#5D9CEC;}
	.st5{fill:#434A54;}
	.st6{fill:#CCD1D9;}
</style>
<path class="st0" d="M97.2,4.2c-5,0-9.1,4.9-9.1,10.9v115c0,6,4.1,10.9,9.1,10.9h81.3c5,0,9.1-4.9,9.1-10.9V47.6L154.1,4.2H97.2z"/>
<path class="st1" d="M178.1,72.2c0.9,0,1.8-0.3,1.8-0.9v-4.2c0-1.2-1.8-1.2-1.8-1.2h-84l9.4,6.3C103.5,72.2,178.1,72.2,178.1,72.2z
	 M178.1,94.2c0.9,0,1.8-1.2,1.8-1.2v-3.9c0-1.2-1.8-1.2-1.8-1.2h-51.2l9.4,6.3C136.3,94.2,178.1,94.2,178.1,94.2z M177,116.1
	c1.5,0,2.9-0.6,2.9-1.2V111c0-1.2-2.9-1.2-2.9-1.2h-33.1l7.2,6.3C151.1,116.1,177,116.1,177,116.1z"/>
<path class="st2" d="M187.6,47.8v2.1h-22.7c0,0-11.4-2.8-11-14.3c0,0,0.4,12.2,10.7,12.2H187.6z"/>
<path class="st3" d="M154.1,4.2v31.2c0,3.4,2,12.4,10.8,12.4h22.7L154.1,4.2z"/>
<path class="st4" d="M137.7,54.7c-0.3-0.6-1-1.2-1.7-1.4l-28.5-7.8c-1.2-17.3-15.6-31.1-33.3-31.1S42.2,28.2,41,45.5l-28.5,7.8
	c-0.7,0.2-1.4,0.6-1.7,1.4s-0.4,1.5-0.2,2.1L21.7,90c0.3,1,1.1,1.6,2,1.8c1,0.2,1.9-0.1,2.6-0.7l7.9-7.9l6.9,20.8
	c0.3,0.9,1,1.5,1.7,1.7c0.9,0.3,1.7,0.1,2.5-0.3l5.8-4c1.6,2.9,4.5,7.9,7.6,12.8c9.3,14.5,12.9,16.6,15.5,16.6s6.3-2,15.5-16.6
	c3.1-4.9,6-9.8,7.6-12.8l5.8,4c0.7,0.5,1.6,0.6,2.5,0.3c0.9-0.3,1.5-1,1.7-1.7l6.9-20.7l7.9,7.9c0.6,0.6,1.7,1,2.6,0.7
	c1-0.2,1.7-1,2-1.8l11-33.1C138.1,56.2,138,55.5,137.7,54.7L137.7,54.7z"/>
<path class="st3" d="M41,51.2C42.2,33.8,56.6,20,74.2,20s32.1,13.8,33.2,31.1v-5.6c-1.1-17.3-15.5-31.1-33.2-31.1S42.2,28.2,41,45.5
	V51.2z"/>
<path class="st2" d="M136.9,54l-10.3,30.7c-0.3,1-1.1,1.6-2,1.8c-1,0.2-1.9-0.1-2.6-0.7l-7.9-7.9l-6.8,20.7c-0.3,0.9-1,1.5-1.7,1.7
	c-0.9,0.3-1.7,0.2-2.5-0.3l-5.8-4c-1.6,2.9-4.5,7.9-7.6,12.8c-9.3,14.5-12.9,16.6-15.5,16.6s-6.3-2-15.5-16.6
	c-3.1-4.9-6-9.8-7.6-12.8l-5.8,4c-0.7,0.5-1.6,0.6-2.5,0.3c-0.9-0.3-1.5-1-1.7-1.7l-7.2-20.7L26,85.8c-0.6,0.6-1.7,1-2.6,0.7
	c-1-0.2-1.7-1-2-1.8L11.5,54c-0.9,0.7-1.2,1.9-0.9,3l11.1,33.2c0.3,1,1.1,1.6,2,1.8c1,0.2,1.9-0.1,2.6-0.7l7.9-7.9l6.8,20.7
	c0.3,0.9,1,1.5,1.7,1.7c0.9,0.3,1.7,0.1,2.5-0.3l5.8-4c1.6,2.9,4.5,7.9,7.6,12.8c9.3,14.5,12.9,16.6,15.5,16.6s6.3-2,15.5-16.6
	c3.1-4.9,6-9.8,7.6-12.8l5.8,4c0.7,0.5,1.6,0.6,2.5,0.3c0.9-0.3,1.5-1,1.7-1.7l6.9-20.7l7.9,7.9c0.6,0.6,1.7,1,2.6,0.7
	c1-0.2,1.7-1,2-1.8L137.7,57c0.2-0.7,0.2-1.5-0.2-2.1C137.5,54.4,137.3,54.2,136.9,54L136.9,54z"/>
<path class="st5" d="M68.7,42.2c0,1.5-1.3,2.8-2.8,2.8s-2.8-1.3-2.8-2.8s1.3-2.8,2.8-2.8S68.7,40.6,68.7,42.2z M85.3,42.2
	c0,1.5-1.3,2.8-2.8,2.8s-2.8-1.3-2.8-2.8s1.3-2.8,2.8-2.8S85.3,40.6,85.3,42.2z"/>
<path class="st6" d="M24.3,119.8c-1.5,0-2.8-1.3-2.8-2.8v-11.1c0-1.5,1.3-2.8,2.8-2.8s2.8,1.3,2.8,2.8V117
	C27.1,118.6,25.8,119.8,24.3,119.8z M124.1,119.8c-1.5,0-2.8-1.3-2.8-2.8v-11.1c0-1.5,1.3-2.8,2.8-2.8s2.8,1.3,2.8,2.8V117
	C126.9,118.6,125.6,119.8,124.1,119.8z M46.6,147.6c-1.5,0-2.8-1.3-2.8-2.8v-22.2c0-1.5,1.3-2.8,2.8-2.8s2.8,1.3,2.8,2.8v22.2
	C49.3,146.3,48,147.6,46.6,147.6z M101.9,147.6c-1.5,0-2.8-1.3-2.8-2.8v-22.2c0-1.5,1.3-2.8,2.8-2.8s2.8,1.3,2.8,2.8v22.2
	C104.7,146.3,103.5,147.6,101.9,147.6z"/>
<path class="st5" d="M81.3,59.2c-1.3-0.9-3-0.4-3.8,0.9c0,0-1.1,1.5-3.2,1.5c-1.9,0-3-1.2-3.2-1.5c-0.5-0.7-1.4-1.3-2.4-1.3
	c-1.5,0-2.8,1.3-2.8,2.8c0,0.5,0.1,1.1,0.4,1.5l0,0c1,1.5,3.6,4.1,7.9,4.1s6.9-2.6,7.9-4.1C83,61.8,82.6,60.1,81.3,59.2z"/>
</svg>
