<?xml version="1.0" encoding="utf-8"?>
<!-- Generator: Adobe Illustrator 22.1.0, SVG Export Plug-In . SVG Version: 6.00 Build 0)  -->
<svg version="1.1" id="图层_1" xmlns="http://www.w3.org/2000/svg" xmlns:xlink="http://www.w3.org/1999/xlink" x="0px" y="0px"
	 viewBox="0 0 190 140" style="enable-background:new 0 0 190 140;" xml:space="preserve">
<style type="text/css">
	.st0{opacity:0.2;fill:#967ADC;enable-background:new    ;}
	.st1{opacity:0.3;fill:#FFFFFF;enable-background:new    ;}
	.st2{opacity:0.1;enable-background:new    ;}
	.st3{fill:#967ADC;}
	.st4{fill:#AC92EB;}
	.st5{opacity:0.2;fill:#FFFFFF;enable-background:new    ;}
</style>
<path class="st0" d="M93,1.2c-5,0-9.1,4.9-9.1,10.9v115c0,6,4.1,10.9,9.1,10.9h81.3c5,0,9.1-4.9,9.1-10.9V44.6L149.9,1.2H93z"/>
<path class="st1" d="M173.9,69.2c0.9,0,1.8-0.3,1.8-0.9v-4.2c0-1.2-1.8-1.2-1.8-1.2h-84l9.4,6.3H173.9z M173.9,91.2
	c0.9,0,1.8-1.2,1.8-1.2v-3.9c0-1.2-1.8-1.2-1.8-1.2h-51.2l9.4,6.3C132.1,91.2,173.9,91.2,173.9,91.2z M172.8,113.1
	c1.5,0,2.9-0.6,2.9-1.2V108c0-1.2-2.9-1.2-2.9-1.2h-33.1l7.2,6.3C146.9,113.1,172.8,113.1,172.8,113.1z"/>
<path class="st2" d="M183.4,44.8v2.1h-22.7c0,0-11.4-2.8-11-14.3c0,0,0.4,12.2,10.7,12.2H183.4z"/>
<path class="st1" d="M149.9,1.2v31.2c0,3.4,2,12.4,10.8,12.4h22.7L149.9,1.2z"/>
<path class="st3" d="M121.4,104.4c-0.6-0.1-1.3-0.4-1.6-0.9c-1.3-1.2-1.2-3.3,0.1-4.5c0.1-0.1,5-5.1,9.5-13.6
	c4.1-8,8.9-20.8,7.6-36.9c-0.7-9.8,1.5-17.6,6.9-23.1c8.8-9,22.4-8.4,23-8.3c1.7,0.1,3.1,1.5,3.1,3.4c-0.1,1.7-1.5,3.1-3.4,3.1
	c-0.1,0-11.5-0.5-18.1,6.5c-4,4.1-5.8,10.2-5.1,18.1c1.4,17.7-3.8,31.9-8.4,40.6c-5,9.5-10.4,14.8-10.6,15
	C123.5,104.2,122.5,104.6,121.4,104.4L121.4,104.4z"/>
<path class="st4" d="M122.9,34.1c-9.5-14-23.9-23.2-40.5-26.3S49.1,8.3,35.1,17.9S12,41.8,9,58.5c-3,16.6,0.5,33.3,10.2,47.2
	s23.9,23.2,40.5,26.3c16.6,3,33.3-0.5,47.2-10.2s23.2-23.9,26.3-40.5C136.1,64.7,132.5,47.9,122.9,34.1z"/>
<path class="st3" d="M98.8,13.1C94.1,16.4,83.2,24.5,71,37.9c-9.3,10.3-17.4,21.5-24.1,33.5c-8,14.3-14,29.6-17.6,45.7
	c1.6,1.6,3.5,2.9,5.4,4.3c0.1-0.2,0.2-0.5,0.3-0.8c3.6-16.1,9.3-31.6,17.4-45.9c6.3-11.6,14.2-22.4,23.2-32.2
	c12-13.7,24.3-22.6,28.9-25.5c0.1-0.1,0.2-0.2,0.4-0.5C102.8,15.3,100.9,14.2,98.8,13.1z"/>
<path class="st3" d="M82.4,7.8c-0.3-0.1-0.7-0.1-0.9-0.2c-5.1,3.7-14.9,11.7-25.7,23.9c-8.9,10-16.4,20.8-22.6,31.8
	C26.1,76.2,21.1,89.8,18,103.8c0.4,0.7,0.8,1.2,1.2,1.8c1.1,1.6,2.3,3,3.4,4.5c0.4-0.5,0.7-0.9,0.8-1.6c2.8-14.4,7.9-28.5,15.2-41.9
	c5.9-10.8,13.2-21.1,21.6-30.7c11.7-13.2,23.4-22.3,28.1-25.2c0.4-0.2,0.8-0.7,1-1.1C87.1,8.8,84.8,8.2,82.4,7.8z"/>
<path class="st3" d="M40.4,26.1C33,34.5,26.8,43.9,21.8,53.5c-5.3,10.1-9.3,20.8-11.9,31.9c0.9,3.3,2,6.5,3.3,9.5
	c0.9-0.5,1.5-1.3,1.7-2.2c2.2-12.6,6.4-24.7,12.3-36.2c4.7-9.2,10.7-18,17.7-26.2c9.6-11.1,19.3-18.8,23-21.3
	c0.8-0.5,1.3-1.3,1.3-2.2C65.8,7,62.2,7.2,58.8,8C54.4,11.5,47.6,17.5,40.4,26.1z M74.4,86.8c18.9,3.5,37.9,3.9,56.8,1.5
	c0.6-2.2,1.1-4.4,1.5-6.7c-21.4,3-43,2.1-64.3-2.7c2.1-3.4,4.2-6.6,6.3-9.9c0.9,0.2,2,0.4,3,0.5C96,73,114.9,74,134,72.7
	c0.2-2.2,0-4.2-0.1-6.3c-18.7,1.3-37.3,0.3-55.1-3c2.4-3.4,5.1-6.7,7.9-9.9c0.2,0,0.3,0.1,0.6,0.1c18.3,3.4,35.4,2.3,45,1.2
	c-0.5-2-1-4.1-1.8-6.1c-8.7,0.9-23.3,1.7-38.8-0.7c2.9-3.3,6-6.3,9.2-9.3c10.3,1.6,18.8,1.7,24.2,1.4c0.5,0,1.1,0,1.6,0
	c-1.1-2.1-2.4-4.2-3.7-6.2l0,0c-4.2,0.1-9.6-0.1-15.8-0.7c4.1-3.5,7.4-5.8,9.4-7.1c-1.5-1.6-3.1-3-4.8-4.3
	c-3.9,2.7-14.3,10.3-26.5,23.9c-0.8,0.8-1.6,1.6-2.2,2.5c0,0,0,0.1-0.1,0.1c-4.1,4.9-8.1,10.3-12,15.7c0,0,0,0.1-0.1,0.1
	c-3.3,4.8-6.4,9.7-9.3,14.6c-0.2,0.3-0.3,0.7-0.5,1l0,0c-3,4.7-5.6,9.8-8,14.9c0,0.1,0,0.1-0.1,0.2c-2.3,4.9-4.3,9.8-6.2,14.8v0.1
	c-1.9,5.1-3.7,10.3-5.3,15.4c1.9,1,3.7,1.9,5.8,2.7c1.3-4.5,2.7-8.9,4.3-13.2c4.5,1.3,8.9,2.3,13.5,3.1c5.3,1,10.5,1.7,15.7,2
	c10,0.8,19.8,0.4,29.5-1c3-2.4,5.8-5,8.3-7.8c-0.1,0-0.2,0.1-0.3,0c-12,2.5-24.4,3.4-36.8,2.5c-9.1-0.7-18.4-2.3-27.5-4.8
	c1.2-3,2.5-6.1,3.9-9c4.6,1.2,9.2,2.3,13.9,3.2c17.7,3.3,35.2,3.6,52.2,1.2c1.5-2.3,2.7-4.5,3.9-7.1c-21.9,3.9-44.4,2.9-67.5-3.1
	c1.5-3.2,3.3-6.3,4.9-9.4C68.4,85.5,71.4,86.2,74.4,86.8L74.4,86.8z"/>
<path class="st5" d="M25.4,106.7c-9.6-13.8-13.2-30.5-10.1-47.2c3-16.6,12.3-31,26.3-40.5c13-9,28.5-12.7,44-10.6
	c-1-0.2-2.1-0.5-3-0.7C66,4.7,49.2,8.2,35.3,17.9S12.1,41.7,9.1,58.4C6,75,9.6,91.7,19.2,105.6s23.8,23.2,40.5,26.3
	c1,0.2,2.1,0.4,3.1,0.5C47.6,128.8,34.3,119.8,25.4,106.7z"/>
</svg>
