<?xml version="1.0" encoding="utf-8"?>
<!-- Generator: Adobe Illustrator 22.1.0, SVG Export Plug-In . SVG Version: 6.00 Build 0)  -->
<svg version="1.1" id="图层_1" xmlns="http://www.w3.org/2000/svg" xmlns:xlink="http://www.w3.org/1999/xlink" x="0px" y="0px"
	 viewBox="0 0 190 140" style="enable-background:new 0 0 190 140;" xml:space="preserve">
<style type="text/css">
	.st0{opacity:0.16;fill:#434A54;enable-background:new    ;}
	.st1{opacity:0.4;fill:#FFFFFF;enable-background:new    ;}
	.st2{opacity:0.1;enable-background:new    ;}
	.st3{opacity:0.2;fill:#FFFFFF;enable-background:new    ;}
	.st4{fill:#EAC6BB;}
	.st5{fill:#DA4453;}
	.st6{fill:#FC6E51;}
	.st7{fill:#ED5564;}
	.st8{fill:#434A54;}
	.st9{fill:#656D78;}
	.st10{fill:#E6E9ED;}
	.st11{fill:#CCD1D9;}
</style>
<path class="st0" d="M94.2,1.9c-5,0-9.1,4.9-9.1,10.9v115c0,6,4.1,10.9,9.1,10.9h81.3c5,0,9.1-4.9,9.1-10.9V45.3L151,1.9H94.2z"/>
<path class="st1" d="M175,69.9c0.9,0,1.8-0.3,1.8-0.9v-4.2c0-1.2-1.8-1.2-1.8-1.2H91l9.4,6.3H175z M175,91.9c0.9,0,1.8-1.2,1.8-1.2
	v-3.9c0-1.2-1.8-1.2-1.8-1.2h-51.2l9.4,6.3C133.3,91.9,175,91.9,175,91.9z M173.9,113.9c1.5,0,2.9-0.6,2.9-1.2v-3.9
	c0-1.2-2.9-1.2-2.9-1.2h-33.1l8.2,6.3C149,113.9,173.9,113.9,173.9,113.9z"/>
<path class="st2" d="M184.5,45.5v2.1h-22.7c0,0-11.4-2.8-11-14.3c0,0,0.4,12.2,10.7,12.2H184.5z"/>
<path class="st3" d="M151,1.9v31.2c0,3.4,2,12.4,10.8,12.4h22.7L151,1.9z"/>
<path class="st4" d="M72,34.3C51.7,34.3,35.3,53,35.3,81s22.3,52,36.7,52s36.7-24,36.7-52S92.3,34.3,72,34.3z"/>
<path class="st5" d="M102.7,106.3L68.9,72.4l-4,4.1l35,35C101,109.8,102,108,102.7,106.3L102.7,106.3z"/>
<path class="st6" d="M83.2,104.8H60.8c0,0-11.2,10.5-11.2,17s18,16.9,22.6,17c4.6-0.1,22.6-10.5,22.6-17
	C94.6,115.3,83.2,104.8,83.2,104.8L83.2,104.8z"/>
<path class="st7" d="M83.2,99.2c-2.3,0-4.4-0.9-5.9-2.4c-1.7-1.7-2.5-3.7-2.5-5.9s0.9-4.4,2.5-5.9c1.5-1.5,3.7-2.5,5.9-2.5
	c2.3,0,4.4,0.9,5.9,2.5c1.5,1.7,2.5,3.7,2.5,5.9c0,2.3-0.9,4.4-2.5,5.9C87.6,98.3,85.6,99.2,83.2,99.2L83.2,99.2z"/>
<path class="st5" d="M91.2,82.8c-2.2-2.2-5.1-3.3-7.9-3.3c-2.9,0-5.7,1.1-7.9,3.3c-4.4,4.4-4.4,11.6,0,16c2.1,2.1,5,3.3,7.9,3.3
	c3,0,5.8-1.2,7.9-3.3C95.6,94.4,95.6,87.2,91.2,82.8z M87.2,94.7c-1.1,1.1-2.5,1.7-4,1.7s-3-0.6-4-1.7c-1.1-1.1-1.7-2.5-1.7-4
	s0.6-3,1.7-4c1.1-1.1,2.5-1.7,4-1.7s3,0.6,4,1.7c1.1,1.1,1.7,2.5,1.7,4C88.9,92.3,88.3,93.7,87.2,94.7L87.2,94.7z"/>
<path class="st8" d="M60.8,90.7c0,1.5-1.2,2.9-2.9,2.9S55,92.4,55,90.7c0-1.5,1.2-2.9,2.9-2.9S60.8,89.2,60.8,90.7z M74.9,110.5
	h-5.6c-1.5,0-2.9,1.2-2.9,2.9c0,1.7,1.2,2.9,2.9,2.9h5.6c1.5,0,2.9-1.2,2.9-2.9C77.7,111.8,76.4,110.5,74.9,110.5z"/>
<path class="st9" d="M64.8,88.2l-11.2-5.6l0,0c-0.4-0.2-0.8-0.3-1.2-0.3c-1.5,0-2.9,1.2-2.9,2.9c0,1.1,0.7,2.1,1.5,2.5l11.2,5.6l0,0
	c0.4,0.2,0.8,0.3,1.2,0.3c1.5,0,2.9-1.2,2.9-2.9C66.4,89.6,65.7,88.7,64.8,88.2z"/>
<path class="st8" d="M134.7,58.8c-3.5-3.2-8.5-5.6-13.7-8.3c-2.9-1.4-5.9-3-8.6-4.6c-4-2.3-7.9-9.1-12.1-16.3
	C93,17.4,84.8,3.4,72,3.3l0,0C59.2,3.4,51,17.4,43.7,29.6c-4.2,7.2-8.3,14-12.1,16.3c-2.8,1.7-5.7,3.1-8.6,4.6
	c-5.2,2.6-10.1,5.1-13.7,8.3c-4.4,4-5.9,8.6-4.6,13.8c1.1,4.2,3.2,7.3,6.3,9.1c2.6,1.7,6.1,2.5,10.5,2.5c6.1,0,13.4-1.7,21.2-3.3
	c9.1-2,19.4-4.3,29.3-4.3s20.2,2.3,29.3,4.3c7.8,1.8,15.2,3.3,21.3,3.3c4.3,0,7.7-0.8,10.5-2.5c3.1-2,5.3-5.1,6.4-9.3
	C140.6,67.4,139.1,62.7,134.7,58.8L134.7,58.8z"/>
<path class="st3" d="M134.7,58.8c-3.5-3.2-8.5-5.6-13.7-8.3c-2.9-1.4-5.9-3-8.6-4.6c-4-2.3-7.9-9.1-12.1-16.3
	C93,17.4,84.8,3.4,72,3.3l0,0c-1,0-1.9,0.1-2.8,0.2C80.5,5.3,88,18.1,94.7,29.6c4.2,7.2,8.3,14,12.1,16.3c2.8,1.7,5.7,3.1,8.6,4.6
	c5.2,2.6,10.1,5.1,13.7,8.3c4.4,4,5.9,8.6,4.6,13.8c-1.1,4.2-3.2,7.3-6.4,9.3c-2.1,1.3-4.7,2.1-7.8,2.4c1,0.1,2,0.1,3,0.1
	c4.3,0,7.7-0.8,10.5-2.5c3.1-2,5.3-5.1,6.4-9.3C140.6,67.4,139.1,62.7,134.7,58.8L134.7,58.8z"/>
<path class="st10" d="M88.9,45.7c0-9.4-7.6-17-17-17s-17,7.6-17,17c0,5.1,2.2,9.5,5.6,12.6v7.2h22.6v-7.2
	C86.7,55.1,88.9,50.6,88.9,45.7z"/>
<path class="st8" d="M67.7,45.7c0,1.5-1.2,2.9-2.9,2.9c-1.5,0-2.9-1.2-2.9-2.9s1.2-2.9,2.9-2.9C66.5,42.8,67.7,44,67.7,45.7z
	 M81.8,45.7c0,1.5-1.2,2.9-2.9,2.9l0,0c-1.5,0-2.9-1.2-2.9-2.9s1.2-2.9,2.9-2.9C80.6,42.8,81.8,44,81.8,45.7z"/>
<path class="st11" d="M69.1,62.5c-1.5,0-2.9,1.2-2.9,2.9H72C72,63.8,70.7,62.5,69.1,62.5z"/>
<path class="st11" d="M74.8,62.5c-1.5,0-2.9,1.2-2.9,2.9h5.6C77.6,63.8,76.3,62.5,74.8,62.5z M80.4,62.5c-1.5,0-2.9,1.2-2.9,2.9h5.6
	C83.2,63.8,82,62.5,80.4,62.5L80.4,62.5z M63.5,62.5c-1.5,0-2.9,1.2-2.9,2.9h5.6C66.3,63.8,65.1,62.5,63.5,62.5z"/>
</svg>
