<?xml version="1.0" encoding="utf-8"?>
<!-- Generator: Adobe Illustrator 22.1.0, SVG Export Plug-In . SVG Version: 6.00 Build 0)  -->
<svg version="1.1" id="图层_1" xmlns="http://www.w3.org/2000/svg" xmlns:xlink="http://www.w3.org/1999/xlink" x="0px" y="0px"
	 viewBox="0 0 220.5 160" style="enable-background:new 0 0 220.5 160;" xml:space="preserve">
<style type="text/css">
	.st0{opacity:0.2;fill:#5D9CEC;enable-background:new    ;}
	.st1{opacity:0.4;fill:#FFFFFF;enable-background:new    ;}
	.st2{opacity:0.1;fill:#656D78;enable-background:new    ;}
	.st3{opacity:0.2;fill:#FFFFFF;enable-background:new    ;}
	.st4{fill:#AAB2BC;}
	.st5{fill:#434A54;}
	.st6{fill:#656D78;}
	.st7{fill:#5D9CEC;}
	.st8{fill:#CCD1D9;}
</style>
<path class="st0" d="M117.3,11.8c-5,0-9.1,4.9-9.1,10.9v115c0,6,4.1,10.9,9.1,10.9h81.3c5,0,9.1-4.9,9.1-10.9V55.2l-33.6-43.4
	C174.1,11.8,117.3,11.8,117.3,11.8z"/>
<path class="st1" d="M198.2,79.8c0.9,0,1.8-0.3,1.8-0.9v-4.2c0-1.2-1.8-1.2-1.8-1.2h-84l9.4,6.3C123.6,79.8,198.2,79.8,198.2,79.8z
	 M198.2,101.8c0.9,0,1.8-1.2,1.8-1.2v-3.9c0-1.2-1.8-1.2-1.8-1.2H147l9.4,6.3C156.4,101.8,198.2,101.8,198.2,101.8z M197,123.8
	c1.5,0,2.9-0.6,2.9-1.2v-3.9c0-1.2-2.9-1.2-2.9-1.2h-33.1l9.2,6.3C173.1,123.8,197,123.8,197,123.8z"/>
<path class="st2" d="M207.7,55.4v2.1H185c0,0-11.4-2.8-11-14.3c0,0,0.4,12.2,10.7,12.2H207.7z"/>
<path class="st3" d="M174.1,11.8V43c0,3.4,2,12.4,10.8,12.4h22.7L174.1,11.8z"/>
<path class="st4" d="M79.3,56.5c-0.1,0-0.2,0-0.3,0c-1.7-0.2-2.9-1.7-2.7-3.5c0.1-0.6,0.9-5.8,9.6-5.8s9.5,5.2,9.6,5.8
	c0.2,1.7-1,3.2-2.7,3.5c-1.5,0.2,3.2,49.5,2.9,48c-0.2-0.2-17.4-1.4-19.7-1.4s-12.7,20-2.4-23.3C73.2,81.3,80.7,56.5,79.3,56.5
	L79.3,56.5z M43.9,34L55,32.5l13.5,4.3l5.4,5l1.2-14.4c0-0.2,0-0.5,0-0.7l0,0c0-0.2-0.5-2.8-2.3-5.3c-1.7-2.3-5.2-5-11.6-5
	c-11.7,0-14.7,7.1-15,8.2l0,0v0.1l0,0c0,0.1,0,0.1,0,0.2C46,24.9,43.9,34,43.9,34z"/>
<path class="st5" d="M77.5,35.8c-4.4-4.6-10.9-6.9-19.3-6.9c-11.3,0-18.3,5.7-22.1,10.4c-4.1,5.1-5.4,10.2-5.6,10.4l-17.6,64.6
	c-0.5,1.6,0.5,3.4,2.2,3.8c0.2,0.1,0.6,0.1,0.8,0.1c1.4,0,2.5-0.9,3-2.3l48.6,5c-0.2,1.7,0.9,3.2,2.7,3.5c0.1,0,0.2,0,0.3,0
	c1.5,0,2.9-1.2,3-2.7l9.3-71.1v-0.1h0.1C82.9,50.2,83.4,42.1,77.5,35.8L77.5,35.8z"/>
<path class="st4" d="M128,34l-11.1-1.5l-13.5,4.3l-5.4,5l-1.2-14.4c0-0.2,0-0.5,0-0.7l0,0c0-0.2,0.5-2.8,2.3-5.3
	c1.7-2.3,5.2-5,11.6-5c11.7,0,14.7,7.1,15,8.2l0,0v0.1l0,0c0,0.1,0,0.1,0,0.2C125.8,24.9,128,34,128,34z"/>
<path class="st5" d="M94.5,35.8c4.4-4.6,10.9-6.9,19.3-6.9c11.3,0,18.3,5.7,22.1,10.4c4.1,5.1,5.4,10.2,5.6,10.4l0,0l17.6,64.6
	c0.5,1.6-0.5,3.4-2.2,3.8c-0.2,0.1-0.6,0.1-0.8,0.1c-1.4,0-2.5-0.9-3-2.3l-48.6,5c0.2,1.7-0.9,3.2-2.7,3.5c-0.1,0-0.2,0-0.3,0
	c-1.5,0-2.9-1.2-3-2.7l-9.3-71.1v-0.1H89C88.9,50.2,88.6,42.1,94.5,35.8L94.5,35.8z"/>
<path class="st6" d="M42.6,90.4c-17,0-30.8,13.8-30.8,30.8S25.6,152,42.6,152s30.8-13.8,30.8-30.8S59.6,90.4,42.6,90.4z M129,90.4
	c-17,0-30.8,13.8-30.8,30.8S112,152,129,152s30.8-13.8,30.8-30.8S146,90.4,129,90.4z"/>
<path class="st7" d="M42.6,99.7c-11.9,0-21.5,9.7-21.5,21.5c0,11.9,9.7,21.5,21.5,21.5c11.9,0,21.5-9.7,21.5-21.5
	C64.3,109.3,54.6,99.7,42.6,99.7z M129,99.7c-11.9,0-21.5,9.7-21.5,21.5c0,11.9,9.7,21.5,21.5,21.5c11.9,0,21.5-9.7,21.5-21.5
	C150.6,109.3,140.9,99.7,129,99.7z"/>
<path class="st3" d="M129,99.7c-0.5,0-1,0-1.5,0c11.2,0.8,20,10.2,20,21.5s-8.9,20.7-20,21.5c0.5,0,1,0,1.5,0
	c11.9,0,21.5-9.7,21.5-21.5C150.6,109.3,140.9,99.7,129,99.7z M42.6,99.7c-0.5,0-1,0-1.5,0c11.2,0.8,20,10.2,20,21.5
	s-8.9,20.7-20,21.5c0.5,0,1,0,1.5,0c11.9,0,21.5-9.7,21.5-21.5C64.3,109.3,54.6,99.7,42.6,99.7z"/>
<path class="st8" d="M75.7,105c0,5.4,4.4,10,10,10c5.4,0,10-4.4,10-10s-4.4-10-10-10C80.2,95.1,75.7,99.5,75.7,105z"/>
</svg>
