<?xml version="1.0" encoding="utf-8"?>
<!-- Generator: Adobe Illustrator 22.1.0, SVG Export Plug-In . SVG Version: 6.00 Build 0)  -->
<svg version="1.1" id="图层_1" xmlns="http://www.w3.org/2000/svg" xmlns:xlink="http://www.w3.org/1999/xlink" x="0px" y="0px"
	 viewBox="0 0 200 140" style="enable-background:new 0 0 200 140;" xml:space="preserve">
<style type="text/css">
	.st0{opacity:0.2;fill:#D186AE;enable-background:new    ;}
	.st1{opacity:0.4;fill:#FFFFFF;enable-background:new    ;}
	.st2{fill:#FFA6CC;}
	.st3{fill:#F28CB7;}
	.st4{fill:#C71870;}
	.st5{fill:#6E6E96;}
	.st6{opacity:0.1;fill:#AA688B;enable-background:new    ;}
	.st7{opacity:0.2;fill:#FFFFFF;enable-background:new    ;}
</style>
<path class="st0" d="M101.5,1.2c-5,0-9.1,4.9-9.1,10.9v115c0,6,4.1,10.9,9.1,10.9h81.3c5,0,9.1-4.9,9.1-10.9V44.6L158.4,1.2H101.5z"
	/>
<path class="st1" d="M182.4,69.2c0.9,0,1.8-0.3,1.8-0.9v-4.2c0-1.2-1.8-1.2-1.8-1.2h-84l9.4,6.3H182.4z M182.4,91.2
	c0.9,0,1.8-1.2,1.8-1.2v-3.9c0-1.2-1.8-1.2-1.8-1.2h-51.2l9.4,6.3C140.6,91.2,182.4,91.2,182.4,91.2z M181.3,113.1
	c1.5,0,2.9-0.6,2.9-1.2V108c0-1.2-2.9-1.2-2.9-1.2h-33.1l2.2,6.3C150.4,113.1,181.3,113.1,181.3,113.1z"/>
<path class="st2" d="M105.5,104.1c20.2-2.4,35.1,7.7,20.2,10.3c0,0-4.9,3.7,3.7,3.7c12.1,0,32.8-26.9-31.9-29.8"/>
<path class="st3" d="M113.4,97.7c0,0-7.8-2.1-13.7-0.9l6,7.3c20.2-2.4,35.1,7.7,20.2,10.3c5.6,0,14.9-2.8,8.4-9.2
	C127.7,98.8,113.4,97.7,113.4,97.7z"/>
<path class="st2" d="M54,57.7c0,0-10.5-8.2-3.5-24.6c7.2-17-5.8-23.7-15.4-20.9c-12.1,3.4-7.5,15.6-6.7,17.4
	c1.8,3.9,8.6,5.6,9.6,2.7c1.5-4.1-3.2,0.4-4.4-3.4c-1.3-4,0.2-7.2,6-7.3c2.2,0,5.3,3.1,2.3,14.9c-3.4,14-10.7,34,7.3,42.4
	C49.3,78.9,55.1,76.9,54,57.7z"/>
<path class="st3" d="M43.3,41.9c6-20.5,4.3-20.5,1.2-23.6S29.8,13.9,29.8,25c0,6.5,2.4,8.3,4.4,8.7c0.2,0,0.5,0.1,0.7,0.1
	c1.1,0,1.9-0.2,1.9-0.2c0.6-0.2,1.1-0.6,1.3-1.3c1.5-4.1-3.2,0.4-4.4-3.4c-1.3-4,0.2-7.2,6-7.3c2.2,0,5.3,3.1,2.3,14.9
	c-3.4,14-10.7,34,7.3,42.4c0,0,3.8-1.3,4.6-12C46.1,71.9,38.8,57.1,43.3,41.9z"/>
<path class="st3" d="M39.6,107.7c-20,1.7-17.4-27.2-11.6-40.6c4.5-10.2-5.5-7-5.5-7c-13.6,6.2-2.7,18.4-2.7,25.7c0,3.2-3.8,1-3.8,1
	C2.3,78.6,0.2,44.2,29.5,44.2c22,0,17.5,20.7,8.2,30.1c-5.2,5.2,7.5,10.8,11.7,3.4c2.2-4,5-12,3.5-23.2C49,24.6,69.2,14.1,72.8,12.3
	c-3.3,2.1,27.8-13,44.7,12.9c20.7,31.7-17.7,40.6-14.5,54.1c9.1,37.6-44.3,25.6-60.9,23.9"/>
<path class="st2" d="M38.9,73L38.9,73L38.9,73z M57.3,62.6c0,0-2.2,21.1-16.2,18.5c-9.6-1.8-4.4-6.9,1.2-16.6C42,67.1,41,70,39,73
	c8.4-9.9,11.5-28.7-9.5-28.7C0.2,44.2,2.3,78.6,16.1,86.8c0,0,1.1,0.6,2,0.7c-0.4-1.1-0.5-1.7-0.3-1.7c0,0-19-21.8,2.2-33.3
	c4.3-2.3,8.5-2.9,12.1-2c0,0,9.9,3.1,2.9,16.5c-7.1,13.4-4.4,31.8,18.5,20.5C53.5,87.6,62.1,79.3,57.3,62.6z M95.9,86
	c0,7.3,11.5,18.2,11.5,18.2c21.5,21.5-8.3,31.2-15.6,28.2c-4.1-1.7,0-3.4,0-3.4c17.4-2.4,11.8-15-2.9-18.3
	c-14.1-3.1-11.2-16.8-11.2-16.8s-0.5-7.2,7.7-10.6C93.5,79.9,95.9,83.1,95.9,86z"/>
<path class="st4" d="M96.1,38.6c0.9-0.7-0.4-2.7-1.2-3.2c-0.7-0.5-2.1-0.4-3,0.3s-1,1.7-0.1,2.2c0.2,0.1,0.5,0.2,0.1,1.8
	c-1.1,0.5,1.6,6.5,2,7.2s1.7,1,2.8,0.5c1.1-0.4,1.6-1.5,1.1-2.2C97.5,44.6,96.7,44.4,96.1,38.6z"/>
<path class="st2" d="M116.1,42.6c0,16.4-14.7,20.1-27.2,29.7c-11.1,8.4,1.7,22.5-14.7,30.2c-1.9,0.9-22,1.2-27.3-7.7
	c-2.2-3.7,10.8-1.8,10.8-23.4c0-11.3-2.2-21.8-0.9-28.8C60.1,26.7,71,13.1,86.1,13.1S116.1,26.3,116.1,42.6z"/>
<path class="st5" d="M74.6,48.7c1.7,0.4,3.6-1.3,4.3-3.7c0.6-2.4-0.3-4.8-2-5.2l0,0c-1.6-0.9-3.6,0.5-4.5,2.9
	c-0.9,2.3-0.3,5,1.4,5.7C74,48.4,74.3,48.6,74.6,48.7z"/>
<path class="st3" d="M100.3,129c5.8-2.4,11.8-15-2.9-18.3c-13.9-3.1-11.1-16.9-11.1-16.9s-0.5-7.2,7.7-10.6c0.2-0.1,0.4-0.2,0.6-0.2
	c-1.4-1.4-4.1-1.9-9.4,0.2c-8.2,3.4-7.7,10.6-7.7,10.6s-2.9,13.7,11.1,16.9c14.7,3.3,20.3,15.8,2.9,18.3c0,0-4.1,1.7,0,3.4
	c1.8,0.7,5.1,0.7,8.5-0.1C96.4,130.6,100.3,129,100.3,129z"/>
<path class="st2" d="M62.3,90c0,0-6.9-1.8-14.8,2.7c-13.9,7.9-10.1,27.1,5.8,32.7c12.5,4.5,29.7-7.8,23.9-22.2
	c-1.5-3.8-4.6-9.8-9.7-11.5c0,0-8-3.9-14.1,2.2c0,0-2.9,3.1,5.1,3.1s11.1,13.9,4.8,16.5s-9.7-9.9,3.1-9.9"/>
<path class="st3" d="M62.6,89.8c2.9,0.2,5,1.4,5,1.4c5.1,3.5,8.2,8.3,9.7,12c5.7,14.5-11.3,26.7-23.9,22.2
	c-10.5-3.7-15.8-12.6-14.1-21c0,0-1.1,6,2.9,10.5c3.9,4.6,9.7,13.1,22.4,6.3C83,110,64.8,84.5,53.2,96.1
	C53.2,96.1,52.5,89.8,62.6,89.8z"/>
<path class="st3" d="M54.1,98c0,0-8.7,5.4-5.2,13.1c3.5,7.4,18.4,8,17.6-4.1c0.1,3-0.9,5.6-3.3,6.6c-5.6,2.3-8.9-7.8,0-9.7
	C60.4,96.7,54.1,98,54.1,98z M66.5,106L66.5,106L66.5,106L66.5,106z M87.2,102.5c0,0-4.3-5.7,13.9-2.7l-14.8-5.3
	C86.2,94.6,84.9,98.9,87.2,102.5z M72.1,70.8c0,0-6.4,13.5-2.2,22.6c3.7,8.4,11.2,3.3,11.2,3.3S82.8,73.3,72.1,70.8z M126.4,93.9
	c0,0-2.6,4.7,2,7.4l-8.2-2.7L126.4,93.9z"/>
<path class="st3" d="M91.9,24.3c0,2.2,1.8,4.1,4.1,4.1c2.2,0,4.1-1.8,4.1-4.1s-1.8-4.1-4.1-4.1C93.7,20.2,91.9,22,91.9,24.3z"/>
<path class="st3" d="M75.4,21.3c0,0.9,0.7,1.6,1.6,1.6s1.6-0.7,1.6-1.6l0,0c0-0.9-0.7-1.6-1.6-1.6S75.4,20.5,75.4,21.3L75.4,21.3z"
	/>
<path class="st3" d="M83.1,33c0,1,0.7,1.8,1.8,1.8c1,0,1.8-0.7,1.8-1.8c0-1.1-0.7-1.8-1.8-1.8C83.9,31.3,83.1,32.1,83.1,33z"/>
<path class="st3" d="M105.5,33.8c0,3.6,3,6.6,6.6,6.6s6.6-3,6.6-6.6s-3-6.6-6.6-6.6S105.5,30.2,105.5,33.8z"/>
<path class="st3" d="M59.4,29.5c0,1.6,1.4,2.9,3.2,2.9c1.7,0,3.2-1.3,3.2-2.9l0,0c0-1.6-1.4-2.9-3.2-2.9S59.4,27.9,59.4,29.5
	L59.4,29.5z"/>
<path class="st5" d="M86.3,52.7c1.7,0.7,4-0.6,5.1-3.1c1.1-2.4,0.5-5.1-1.2-5.8c-1.6-1-3.9,0.2-5.2,2.7c-1.2,2.4-0.9,5.1,0.7,6.1
	C86,52.6,86.1,52.7,86.3,52.7z"/>
<path class="st2" d="M81.9,90.7c0,0,37.1,22.8,47.6-5.1c0,0,3.4-7.4-2.4-19.2c-5.7-11.8,4.8-17.9,8.4-11.8s3.7-8.8-6.5-11.6
	c-10.2-2.8-13.5,13.9-10.2,25.5s-17,13.7-22.5,0.5c-5.5-13.3-21.1-6.1-23,2C71.6,79.2,73.8,85.9,81.9,90.7z"/>
<path class="st3" d="M137.2,50.8c-1.3-2.3-3.1-3.9-5.8-3.9c-17.4,0-6.9,25.3-6.6,27.6c3.6,30.2-38.6,15.4-43.1,5.1
	c-9.2-11.2-0.2-16.2-0.7-15.7c-0.7,1.1-7.1,6.2-7.4,7.3c-1.8,8.1,0.3,14.8,8.5,19.7c0,0,37.1,22.8,47.6-5.1c0,0,3.4-7.4-2.4-19.2
	c-5.7-11.8,4.8-17.9,8.4-11.8C137.7,58,138.6,54.7,137.2,50.8z"/>
<path class="st3" d="M81.8,81.9c0,2.6,2,4.6,4.6,4.6s4.6-2,4.6-4.6s-2-4.6-4.6-4.6S81.8,79.4,81.8,81.9z"/>
<path class="st3" d="M99.3,91c0,1.7,1.4,3,3,3s3-1.4,3-3l0,0c0-1.7-1.4-3-3-3S99.3,89.3,99.3,91L99.3,91z"/>
<path class="st3" d="M112.6,84.4c0,0.9,0.7,1.6,1.6,1.6s1.6-0.7,1.6-1.6l0,0c0-0.9-0.7-1.6-1.6-1.6S112.6,83.5,112.6,84.4z"/>
<path class="st3" d="M94.9,80.8c0,0.5,0.4,1,1,1s1-0.4,1-1s-0.4-1-1-1S94.9,80.2,94.9,80.8L94.9,80.8z"/>
<path class="st2" d="M33.3,90.6c0,2,1.6,3.7,3.7,3.7c2,0,3.7-1.6,3.7-3.7l0,0c0-2-1.6-3.7-3.7-3.7C34.9,87,33.3,88.6,33.3,90.6
	L33.3,90.6z"/>
<path class="st3" d="M127.4,102.5c0,1.2,1,2,2,2c1.2,0,2-1,2-2l0,0c0-1.2-1-2-2-2S127.4,101.5,127.4,102.5L127.4,102.5z"/>
<path class="st3" d="M98.1,107.3c0,1.4,1.1,2.4,2.4,2.4s2.4-1.1,2.4-2.4l0,0c0-1.4-1.1-2.4-2.4-2.4S98.1,105.9,98.1,107.3
	L98.1,107.3z"/>
<path class="st3" d="M137.1,104.1c0,0.5,0.4,1,1,1c0.5,0,1-0.4,1-1c0-0.5-0.4-1-1-1C137.5,103.2,137.1,103.6,137.1,104.1
	L137.1,104.1z"/>
<path class="st2" d="M46.1,109.1c0,2.2,1.8,4,4,4s4-1.8,4-4s-1.8-4-4-4C47.9,105.1,46.1,106.9,46.1,109.1z"/>
<path class="st3" d="M63.9,120.2c0,1.5,1.2,2.6,2.6,2.6c1.5,0,2.6-1.2,2.6-2.6l0,0c0-1.5-1.2-2.6-2.6-2.6S63.9,118.8,63.9,120.2
	L63.9,120.2z"/>
<path class="st3" d="M38.8,54.3c0,0.7,0.5,1.3,1.3,1.3s1.3-0.5,1.3-1.3S40.8,53,40.1,53S38.8,53.5,38.8,54.3z"/>
<path class="st2" d="M20.9,50.7c0,2.1,1.7,3.8,3.8,3.8s3.8-1.7,3.8-3.8l0,0c0-2.1-1.7-3.8-3.8-3.8S20.9,48.6,20.9,50.7z"/>
<path class="st2" d="M108.8,92.2c0,2.2,1.8,3.9,3.9,3.9c2.2,0,3.9-1.8,3.9-3.9s-1.8-3.9-3.9-3.9C110.6,88.2,108.8,90,108.8,92.2z"/>
<path class="st2" d="M121.1,78.4c0,1.9,1.5,3.4,3.4,3.4s3.4-1.5,3.4-3.4l0,0c0-1.9-1.5-3.4-3.4-3.4
	C122.6,75.1,121.1,76.6,121.1,78.4L121.1,78.4z"/>
<path class="st2" d="M84.7,103.4c0,1.7,1.4,3.2,3.2,3.2c1.7,0,3.2-1.4,3.2-3.2l0,0c0-1.7-1.4-3.2-3.2-3.2
	C86.1,100.3,84.7,101.7,84.7,103.4L84.7,103.4z"/>
<path class="st6" d="M191.9,44.8v2.1h-22.7c0,0-11.4-2.8-11-14.3c0,0,0.4,12.2,10.7,12.2H191.9z"/>
<path class="st7" d="M158.4,1.2v31.2c0,3.4,2,12.4,10.8,12.4h22.7L158.4,1.2z"/>
</svg>
