<?xml version="1.0" encoding="utf-8"?>
<!-- Generator: Adobe Illustrator 22.1.0, SVG Export Plug-In . SVG Version: 6.00 Build 0)  -->
<svg version="1.1" id="图层_1" xmlns="http://www.w3.org/2000/svg" xmlns:xlink="http://www.w3.org/1999/xlink" x="0px" y="0px"
	 viewBox="0 0 180 140" style="enable-background:new 0 0 180 140;" xml:space="preserve">
<style type="text/css">
	.st0{opacity:0.2;fill:#AC92EB;enable-background:new    ;}
	.st1{opacity:0.4;fill:#FFFFFF;enable-background:new    ;}
	.st2{opacity:0.1;enable-background:new    ;}
	.st3{opacity:0.2;fill:#FFFFFF;enable-background:new    ;}
	.st4{fill:#656D78;}
	.st5{fill:#E6E9ED;}
	.st6{fill:#AC92EB;}
	.st7{fill:#CCD1D9;}
	.st8{fill:#434A54;}
	.st9{fill:#ED5564;}
	.st10{fill:#FFCE54;}
</style>
<path class="st0" d="M78,1.2c-5,0-9.1,4.9-9.1,10.9v115c0,6,4.1,10.9,9.1,10.9h81.3c5,0,9.1-4.9,9.1-10.9V44.6L134.9,1.2H78z"/>
<path class="st1" d="M158.9,69.2c0.9,0,1.8-0.3,1.8-0.9v-4.2c0-1.2-1.8-1.2-1.8-1.2h-84l9.4,6.3H158.9z M158.9,91.2
	c0.9,0,1.8-1.2,1.8-1.2v-3.9c0-1.2-1.8-1.2-1.8-1.2h-51.2l9.4,6.3C117.1,91.2,158.9,91.2,158.9,91.2z M157.8,113.1
	c1.5,0,2.9-0.6,2.9-1.2V108c0-1.2-2.9-1.2-2.9-1.2h-33.1l7.2,6.3C131.9,113.1,157.8,113.1,157.8,113.1z"/>
<path class="st2" d="M168.4,44.8v2.1h-22.7c0,0-11.4-2.8-11-14.3c0,0,0.4,12.2,10.7,12.2H168.4z"/>
<path class="st3" d="M134.9,1.2v31.2c0,3.4,2,12.4,10.8,12.4h22.7L134.9,1.2z"/>
<path class="st4" d="M24.1,14.8c-5.6,0-10.2,4.5-10.2,10.2v91.2c0,1.4,1.2,2.6,2.6,2.6h12.6v-104C29.1,14.8,24.1,14.8,24.1,14.8z"/>
<path class="st5" d="M24.1,108.4c-4.2,0-7.6,3.4-7.6,7.6s3.4,7.6,7.6,7.6h83.6v-15.2H24.1z"/>
<path class="st6" d="M110.1,17.3c0-1.4-1.2-2.6-2.6-2.6H29.1v96.2h78.4c1.4,0,2.6-1.2,2.6-2.6C110.1,108.3,110.1,17.3,110.1,17.3z"
	/>
<path class="st7" d="M46.8,118.6H26.5c-1.4,0-2.6-1.2-2.6-2.6s1.2-2.6,2.6-2.6h20.2c1.4,0,2.6,1.2,2.6,2.6
	C49.4,117.4,48.2,118.6,46.8,118.6z M87.3,113.4c-1.4,0-2.6,1.2-2.6,2.6s1.2,2.6,2.6,2.6h20.2v-5.1L87.3,113.4L87.3,113.4z"/>
<path class="st8" d="M16.5,35c1.4,0,2.6-1.2,2.6-2.6s-1.2-2.6-2.6-2.6h-2.6v5h2.6V35z M16.5,50.2c1.4,0,2.6-1.2,2.6-2.6
	c0-1.4-1.2-2.6-2.6-2.6h-2.6v5L16.5,50.2L16.5,50.2z M16.5,65.3c1.4,0,2.6-1.2,2.6-2.6s-1.2-2.6-2.6-2.6h-2.6v5.1L16.5,65.3
	L16.5,65.3z M16.5,80.5c1.4,0,2.6-1.2,2.6-2.6s-1.2-2.6-2.6-2.6h-2.6v5h2.6V80.5z M16.5,95.7c1.4,0,2.6-1.2,2.6-2.6
	s-1.2-2.6-2.6-2.6h-2.6v5h2.6V95.7z"/>
<path class="st6" d="M110.1,123.6c0-1.4-1.2-2.6-2.6-2.6H29.1v5h78.4C108.9,126.2,110.1,125,110.1,123.6z"/>
<path class="st4" d="M29.1,121h-5c-2.8,0-5-2.2-5-5s2.2-5,5-5h5v-5h-5c-5.6,0-10.2,4.5-10.2,10.2s4.5,10.2,10.2,10.2h5
	C29.1,126.2,29.1,121,29.1,121z"/>
<path class="st9" d="M44.3,116H26.5v17.7c0,0.9,0.4,1.6,1.1,2c0.6,0.4,1.5,0.6,2.2,0.3l6.8-2.2l6.8,2.2c0.2,0.1,0.5,0.1,0.7,0.1
	c0.5,0,1.1-0.2,1.5-0.4c0.6-0.4,1.1-1.3,1.1-2V116C46.8,116,44.3,116,44.3,116z"/>
<path class="st5" d="M84.8,50.2c0-9.8-7.9-17.7-17.7-17.7s-17.7,7.9-17.7,17.7c0,6,3,11.3,7.6,14.5v8.2h20.2v-8.2
	C81.8,61.5,84.8,56.2,84.8,50.2z"/>
<path class="st8" d="M62,50.2c0,1.4-1.2,2.6-2.6,2.6c-1.4,0-2.6-1.2-2.6-2.6c0-1.4,1.2-2.6,2.6-2.6C60.8,47.6,62,48.8,62,50.2z
	 M77,50.2c0,1.4-1.2,2.6-2.6,2.6s-2.6-1.2-2.6-2.6c0-1.4,1.2-2.6,2.6-2.6C75.9,47.6,77,48.8,77,50.2z"/>
<path class="st10" d="M110.1,108.4v-7.6c-10.2,0-10.2,10.2-10.2,10.2h7.6C108.9,111,110.1,109.8,110.1,108.4z M107.5,14.8h-7.6
	C99.9,25,110.1,25,110.1,25v-7.7C110.1,15.9,108.9,14.8,107.5,14.8z"/>
<path class="st8" d="M87.3,88.1H46.8c-1.4,0-2.6-1.2-2.6-2.6s1.2-2.6,2.6-2.6l0,0h40.5c1.4,0,2.6,1.2,2.6,2.6
	C89.9,87,88.7,88.1,87.3,88.1z M77.2,98.3H57c-1.4,0-2.6-1.2-2.6-2.6s1.2-2.6,2.6-2.6h20.2c1.4,0,2.6,1.2,2.6,2.6
	C79.7,97.1,78.6,98.3,77.2,98.3z"/>
<path class="st7" d="M65.8,70.5c0-1.4-1.2-2.6-2.6-2.6c-1.4,0-2.6,1.2-2.6,2.6V73h5v-2.6L65.8,70.5L65.8,70.5z M70.9,67.9
	c-1.4,0-2.6,1.2-2.6,2.6V73h5v-2.6C73.4,69.1,72.3,67.9,70.9,67.9z"/>
</svg>
