<?xml version="1.0" encoding="utf-8"?>
<!-- Generator: Adobe Illustrator 22.1.0, SVG Export Plug-In . SVG Version: 6.00 Build 0)  -->
<svg version="1.1" id="图层_1" xmlns="http://www.w3.org/2000/svg" xmlns:xlink="http://www.w3.org/1999/xlink" x="0px" y="0px"
	 viewBox="0 0 190 140" style="enable-background:new 0 0 190 140;" xml:space="preserve">
<style type="text/css">
	.st0{opacity:0.2;fill:#8E6565;enable-background:new    ;}
	.st1{opacity:0.3;fill:#FFFFFF;enable-background:new    ;}
	.st2{opacity:0.1;fill:#965353;enable-background:new    ;}
	.st3{opacity:0.2;fill:#FFFFFF;enable-background:new    ;}
	.st4{fill:#965353;}
	.st5{fill:#EAAD7A;}
	.st6{fill:#7F4545;}
	.st7{fill:#A85D5D;}
	.st8{fill:#F4BE8E;}
	.st9{fill:#F6BB42;}
	.st10{fill:#FFCE54;}
</style>
<path class="st0" d="M85.5,2.2c-5,0-9.1,4.9-9.1,10.9v115c0,6,4.1,10.9,9.1,10.9h81.3c5,0,9.1-4.9,9.1-10.9V45.6L142.3,2.2H85.5z"/>
<path class="st1" d="M166.4,70.2c0.9,0,1.8-0.3,1.8-0.9v-4.2c0-1.2-1.8-1.2-1.8-1.2h-84l9.4,6.3H166.4z M166.4,92.2
	c0.9,0,1.8-1.2,1.8-1.2v-3.9c0-1.2-1.8-1.2-1.8-1.2h-51.2l9.4,6.3C124.6,92.2,166.4,92.2,166.4,92.2z M164.3,114.2
	c1.9,0,3.8-0.6,3.8-1.2v-3.9c0-1.2-3.8-1.2-3.8-1.2h-33l10.9,6.3C142.2,114.2,164.3,114.2,164.3,114.2z"/>
<path class="st2" d="M175.9,45.8V48h-22.7c0,0-11.4-2.8-11-14.3c0,0,0.4,12.2,10.7,12.2h23V45.8z"/>
<path class="st3" d="M142.3,2.2v31.2c0,3.4,2,12.4,10.8,12.4h22.7L142.3,2.2z"/>
<path class="st4" d="M133.1,96c-0.8,4.4-3.2,5.8-4.5,6.2L26.4,133.7c-0.6,0.2-1.4,0.1-2-0.2s-1.1-0.9-1.3-1.6l-6.3-20.5
	c-0.4-1.4,0.3-2.9,1.8-3.3l102.1-31.5c0.5-0.2,1.1-0.2,1.6-0.2c4.1,0,8,4.3,10,10.7C133.2,90.2,133.5,93.3,133.1,96L133.1,96z"/>
<path class="st5" d="M19.2,110.6c2.8-0.9,6.5,3,8.3,8.7c1.7,5.7,0.9,10.9-1.9,11.8s-6.5-3-8.3-8.7C15.6,116.8,16.5,111.5,19.2,110.6
	L19.2,110.6z"/>
<path class="st6" d="M30.1,118.5c1,3.1,1.3,6.3,0.9,8.9c-0.5,3.3-2.1,5.5-4.5,6.2c-0.5,0.2-1.1,0.2-1.6,0.2c-4.1,0-8-4.3-10-10.7
	c-1-3.1-1.3-6.3-0.9-8.9c0.5-3.3,2.1-5.5,4.5-6.2c0.5-0.2,1.1-0.2,1.6-0.2C24.1,107.9,28.1,112.2,30.1,118.5z M24.8,128.5
	c0.1,0,0.5-0.5,0.9-2c0.3-1.8,0.1-4.2-0.6-6.4c-1.4-4.5-4-6.9-4.9-6.9l0,0c-0.1,0-0.5,0.5-0.9,2c-0.3,1.8-0.1,4.2,0.6,6.4
	C21.3,126.2,23.7,128.5,24.8,128.5C24.7,128.5,24.7,128.5,24.8,128.5z M108.3,100c-1.4,0.4-1.7,1.1-1.8,1.7c-0.1,0.8,0,1.4,0.1,1.7
	l0,0l-5.1,1.6c-0.1-0.3-1-3.4,0.5-6.3c0.6-1.3,2-2.9,4.7-3.8c4.3-1.3,20.6-6.5,25.4-8c0,0.1,0,0.1,0.1,0.2c0.5,1.7,0.9,3.4,1,5
	C127.7,93.8,112.5,98.8,108.3,100z"/>
<path class="st6" d="M63.4,99.8l-5.1,1.6l0,0c0.1,0.2,0.2,1,0.1,1.7c-0.1,0.6-0.4,1.3-1.8,1.7c-10.2,3.1-20.5,6.3-30.7,9.4l1.6,5.1
	c0,0,25.6-7.9,30.7-9.4c2.8-0.9,4.1-2.5,4.7-3.8C64.4,103.3,63.5,100.1,63.4,99.8z"/>
<path class="st7" d="M130.3,111.4l-6.3,20.5c-0.4,1.4-1.9,2.3-3.3,1.7L18.5,102.2c-1.4-0.4-3.9-1.8-4.5-6.2
	c-0.4-2.7-0.1-5.8,0.9-8.9c1.9-6.4,6-10.7,10-10.7c0.5,0,1.1,0.1,1.6,0.2l102.1,31.5c0.6,0.2,1.3,0.6,1.6,1.3
	C130.4,110,130.5,110.8,130.3,111.4L130.3,111.4z"/>
<path class="st4" d="M44.4,99c0.5,1.4,0.8,3.1,0.8,5c0,3.1-0.8,5.9-0.8,6v0.1l-5.1-1.6c0.1-0.5,0.5-2.6,0.5-4.6c0-0.9-0.1-3.6-1.3-4
	c-4.6-1.4-21.9-6.8-24.9-7.7c0.1-1.7,0.4-3.4,1-5.3c0,0,0,0,0-0.1h0.1C15,87,35,93.2,40,94.7C41.5,95.3,43.5,96.4,44.4,99L44.4,99z
	 M90.4,104.8c5.1,1.6,30.7,9.4,30.7,9.4l-1.6,5.1l-30.7-9.4c-2.4-0.8-5-2.9-5.1-9.1c0-3.1,0.6-5.9,0.6-6.1c0-0.1,0-0.1,0-0.2
	l5.1,1.6C88.8,99.4,88.8,104.2,90.4,104.8z"/>
<path class="st8" d="M127.7,110.6c-2.8-0.9-6.5,3-8.3,8.7c-1.7,5.7-0.9,10.9,1.9,11.8s6.5-3,8.3-8.7
	C131.4,116.8,130.5,111.5,127.7,110.6L127.7,110.6z"/>
<path class="st4" d="M128.5,108.1c2.4,0.8,4,3,4.5,6.2c0.4,2.7,0.1,5.8-0.9,8.9c-1.9,6.4-6,10.7-10,10.7c-0.5,0-1.1-0.1-1.6-0.2
	c-2.4-0.8-4-3-4.5-6.2c-0.4-2.7-0.1-5.8,0.9-8.9c1.9-6.4,6-10.7,10-10.7C127.4,107.9,127.9,108,128.5,108.1z M127.1,121.7
	c0.8-2.4,1-4.7,0.6-6.4c-0.2-1.5-0.8-1.9-0.9-2l0,0c-1,0-3.5,2.4-4.9,6.9c-0.8,2.4-1,4.7-0.6,6.4c0.2,1.5,0.8,1.9,0.9,2l0,0
	C123.2,128.5,125.7,126.2,127.1,121.7z"/>
<path class="st9" d="M108.3,64.8c-1.4-6.6-5.1-13.2-11-19.5c-6.4-6.9-10.1-14.8-10.7-23.8C85.9,14.8,87.4,10,87.4,10l1.4-4.7
	l-4.7,1.4c-13,3.8-22.8,9.6-29.3,17.8c-5,6.3-8,14-9,22.9c0,0,0-0.1-0.1-0.1c-0.6-0.9-1.2-1.8-1.8-2.6l-2.8-3.4l-1.8,4.1
	c-3.3,7.5-4.7,14.9-4.3,22c0.4,6.3,2.4,12.3,5.8,17.7c3.6,5.7,8.9,10.5,15.1,13.9c5.8,3.2,12.3,5,18.3,5.1c0.3,0,0.5,0,0.9,0
	c10.6,0,25.6-8.4,31.4-21.9C109,76.6,109.6,70.8,108.3,64.8z"/>
<path class="st10" d="M86.8,70.1C79.3,61.3,76,52.6,76,52.5l-1.4-3.8l-3,2.8c-7.9,7.3-13.3,14.4-15.8,20.9
	c-2.3,5.8-2.5,11.1-0.5,16.1c1.8,4.6,5.5,8.7,10.7,11.9c2,1.3,4,2.1,5.1,2.7c2.4,1,2.9,1,3.1,1h0.5l0.4-0.2c4.9-1.8,13.6-8,16-16.9
	C92.8,81.2,91.2,75.4,86.8,70.1L86.8,70.1z"/>
</svg>
