<?xml version="1.0" encoding="utf-8"?>
<!-- Generator: Adobe Illustrator 22.1.0, SVG Export Plug-In . SVG Version: 6.00 Build 0)  -->
<svg version="1.1" id="图层_1" xmlns="http://www.w3.org/2000/svg" xmlns:xlink="http://www.w3.org/1999/xlink" x="0px" y="0px"
	 viewBox="0 0 180 140" style="enable-background:new 0 0 180 140;" xml:space="preserve">
<style type="text/css">
	.st0{opacity:0.2;fill:#AAB2BC;enable-background:new    ;}
	.st1{opacity:0.4;fill:#FFFFFF;enable-background:new    ;}
	.st2{opacity:0.1;fill:#434A54;enable-background:new    ;}
	.st3{opacity:0.2;fill:#FFFFFF;enable-background:new    ;}
	.st4{fill:#967ADC;}
	.st5{fill:#CCD1D9;}
	.st6{fill:#AAB2BC;}
	.st7{fill:#AC92EB;}
	.st8{fill:#434A54;}
</style>
<path class="st0" d="M82.8,1.2c-5,0-9.1,4.9-9.1,10.9v115c0,6,4.1,10.9,9.1,10.9h81.3c5,0,9.1-4.9,9.1-10.9V44.6L139.6,1.2
	C139.5,1.2,82.8,1.2,82.8,1.2z"/>
<path class="st1" d="M163.6,69.2c0.9,0,1.8-0.3,1.8-0.9v-4.2c0-1.2-1.8-1.2-1.8-1.2h-84l9.4,6.3C89,69.2,163.6,69.2,163.6,69.2z
	 M163.6,91.2c0.9,0,1.8-1.2,1.8-1.2v-3.9c0-1.2-1.8-1.2-1.8-1.2h-51.2l9.4,6.3C121.8,91.2,163.6,91.2,163.6,91.2z M162.5,113.1
	c1.5,0,2.9-0.6,2.9-1.2V108c0-1.2-2.9-1.2-2.9-1.2h-33.1l8.2,6.3C137.5,113.1,162.5,113.1,162.5,113.1z"/>
<path class="st2" d="M173.1,44.8v2.1h-22.7c0,0-11.4-2.8-11-14.3c0,0,0.4,12.2,10.7,12.2H173.1z"/>
<path class="st3" d="M139.5,1.2v31.2c0,3.4,2,12.4,10.8,12.4H173L139.5,1.2z"/>
<path class="st4" d="M135,108.2l-22.9-28.5c-0.9-1.1-2.4-1.3-3.7-0.7l-38.6,22.1L31.2,79c-1.3-0.7-2.8-0.4-3.7,0.7L4.7,108.2
	c-0.7,0.9-0.8,2.2-0.3,3.2c0.6,1,1.8,1.6,2.9,1.4c0,0,2.7-0.4,6.4-0.4c5.1,0,14.4,0.7,20,5.4c0.9,0.7,2.2,0.9,3.3,0.3
	c0.1,0,5.1-3,11.4-3c5.8,0,10.8,2.7,14.8,8c0.5,0.7,1.3,1.2,2.2,1.2h8.9c0.9,0,1.8-0.4,2.2-1.2c3.8-5.3,8.9-8,14.8-8
	c6.2,0,11.4,3,11.4,3c1.1,0.6,2.4,0.5,3.3-0.3c5.5-4.7,14.9-5.4,20-5.4c3.8,0,6.4,0.4,6.4,0.4c1.2,0.2,2.2-0.4,2.9-1.4
	C135.9,110.4,135.7,109.2,135,108.2L135,108.2z"/>
<path class="st5" d="M101.4,14.5C93,6.1,81.7,1.5,69.9,1.5S46.7,6,38.2,14.5S25.1,34.2,25.1,46.1s4.7,23.2,13.1,31.6
	s19.7,13.1,31.6,13.1s23.2-4.7,31.6-13.1c8.4-8.4,13.1-19.7,13.1-31.6S109.9,23,101.4,14.5z"/>
<path class="st3" d="M101.4,14.5C93,6.1,81.7,1.5,69.9,1.5c-1,0-1.9,0-2.9,0.1c10.9,0.7,21,5.3,28.7,13c8.4,8.4,13.1,19.7,13.1,31.6
	s-4.7,23.2-13.1,31.6c-7.8,7.8-17.9,12.3-28.7,13c0.9,0.1,1.9,0.1,2.9,0.1c11.9,0,23.2-4.7,31.6-13.1c8.4-8.4,13.1-19.7,13.1-31.6
	S109.9,23,101.4,14.5L101.4,14.5z"/>
<path class="st6" d="M52.7,58.6c0,1.6-1.3,2.9-2.9,2.9c-1.6,0-2.9-1.3-2.9-2.9c0-1.6,1.3-2.9,2.9-2.9C51.3,55.7,52.7,57,52.7,58.6z"
	/>
<path d="M72.7,95.7c0,1.6-1.3,2.9-2.9,2.9S67,97.3,67,95.7l0,0c0-1.6,1.3-2.9,2.9-2.9C71.5,92.9,72.7,94.2,72.7,95.7z"/>
<path class="st4" d="M64.1,85.4c-1.6,0-2.9-1.3-2.9-2.9v-6.8c0-1.6,1.3-2.9,2.9-2.9c1.6,0,2.9,1.3,2.9,2.9v6.8
	C67,84.1,65.7,85.4,64.1,85.4z M75.6,85.4c-1.6,0-2.9-1.3-2.9-2.9v-6.8c0-1.6,1.3-2.9,2.9-2.9c1.6,0,2.9,1.3,2.9,2.9v6.8
	C78.4,84.1,77.2,85.4,75.6,85.4L75.6,85.4z M58.5,130c-0.8,0-1.7-0.4-2.2-1.1c-1-1.3-0.8-3,0.4-4l7-5.7c1.3-1,3-0.8,4,0.4
	s0.8,3-0.4,4l-7,5.7C59.7,129.9,59,130,58.5,130z M81.2,130c-0.6,0-1.3-0.3-1.8-0.7l-7-5.7c-1.3-1-1.3-2.8-0.4-4
	c1-1.3,2.8-1.3,4-0.4l7,5.7c1.3,1,1.3,2.8,0.4,4C82.9,129.7,82.2,130,81.2,130L81.2,130z"/>
<path class="st7" d="M35.6,118.6c-1.3,0-2.6-1-2.8-2.3L27.1,82c-0.3-1.5,0.7-3,2.3-3.3c1.5-0.3,3,0.7,3.3,2.3l5.7,34.3
	c0.3,1.5-0.7,3-2.3,3.3C35.9,118.6,35.7,118.6,35.6,118.6L35.6,118.6z M104.1,118.6c-0.2,0-0.3,0-0.4-0.1c-1.5-0.3-2.6-1.8-2.3-3.3
	l5.7-34.3c0.3-1.5,1.8-2.6,3.3-2.3s2.6,1.8,2.3,3.3l-5.7,34.3C106.7,117.6,105.5,118.6,104.1,118.6z M79.2,81.2
	c-2.5-1.7-5.9-2.6-9.4-2.6c-3.6,0-6.9,0.9-9.4,2.6c-3.1,2.1-4.8,5.3-4.8,8.9c0,11.8,11.1,45.3,11.5,46.7c0.4,1.2,1.4,2,2.8,2
	c1.3,0,2.3-0.7,2.8-2c0.4-1.4,11.5-34.9,11.5-46.7C84.2,86.5,82.4,83.3,79.2,81.2z"/>
<path class="st8" d="M68.4,90.1c0,1.6-1.3,2.9-2.9,2.9c-1.6,0-2.9-1.3-2.9-2.9c0-1.6,1.3-2.9,2.9-2.9C67.1,87.2,68.4,88.4,68.4,90.1
	z M77,90.1c0,1.6-1.3,2.9-2.9,2.9s-2.9-1.3-2.9-2.9c0-1.6,1.3-2.9,2.9-2.9C75.7,87.1,77,88.4,77,90.1z"/>
<path class="st6" d="M89.8,47.1c-4.7,0-8.6,3.8-8.6,8.6s3.8,8.6,8.6,8.6c4.7,0,8.6-3.8,8.6-8.6C98.4,51,94.5,47.1,89.8,47.1z
	 M61.3,18.6c-6.4,0-11.4,5.1-11.4,11.4s5,11.5,11.4,11.5S72.6,36.3,72.6,30C72.7,23.8,67.5,18.6,61.3,18.6z"/>
</svg>
