<?xml version="1.0" encoding="utf-8"?>
<!-- Generator: Adobe Illustrator 22.1.0, SVG Export Plug-In . SVG Version: 6.00 Build 0)  -->
<svg version="1.1" id="图层_1" xmlns="http://www.w3.org/2000/svg" xmlns:xlink="http://www.w3.org/1999/xlink" x="0px" y="0px"
	 viewBox="0 0 178.9 140" style="enable-background:new 0 0 178.9 140;" xml:space="preserve">
<style type="text/css">
	.st0{opacity:0.24;fill:#BA9B70;enable-background:new    ;}
	.st1{opacity:0.3;fill:#FFFFFF;enable-background:new    ;}
	.st2{opacity:0.1;enable-background:new    ;}
	.st3{opacity:0.24;fill:#FFFFFF;enable-background:new    ;}
	.st4{fill:#BA9B70;}
	.st5{fill:#604C9A;}
</style>
<path class="st0" d="M85,2.2c-5,0-9.1,4.9-9.1,10.9v115c0,6,4.1,10.9,9.1,10.9h81.3c5,0,9.1-4.9,9.1-10.9V45.6L141.9,2.2H85z"/>
<path class="st1" d="M165.9,70.2c0.9,0,1.8-0.3,1.8-0.9v-4.2c0-1.2-1.8-1.2-1.8-1.2h-84l9.4,6.3H165.9z M165.9,92.2
	c0.9,0,1.8-1.2,1.8-1.2v-3.9c0-1.2-1.8-1.2-1.8-1.2h-51.2l9.4,6.3C124.1,92.2,165.9,92.2,165.9,92.2z M164.8,114.1
	c1.5,0,2.9-0.6,2.9-1.2V109c0-1.2-2.9-1.2-2.9-1.2h-33.1l7.2,6.3C138.9,114.1,164.8,114.1,164.8,114.1z"/>
<path class="st2" d="M175.4,45.8v2.1h-22.7c0,0-11.4-2.8-11-14.3c0,0,0.4,12.2,10.7,12.2H175.4z"/>
<path class="st3" d="M141.9,2.2v31.2c0,3.4,2,12.4,10.8,12.4h22.7L141.9,2.2z"/>
<path class="st4" d="M39.8,113.7V74.9H44V70H22.3v4.3h4.3v39.2L39.8,113.7L39.8,113.7z"/>
<path class="st5" d="M15.4,65.8h105.4c2.5-1.2,2.4-3.5,0.1-5.2c-2.4-1.6-52.9-38-52.9-38s-50,36.3-52.7,38
	C12.9,62.3,12.8,64.5,15.4,65.8z M68.1,40.7c4.2,0,7.6,3.4,7.6,7.6s-3.4,7.6-7.6,7.6s-7.6-3.4-7.6-7.6S63.8,40.7,68.1,40.7z
	 M18,122.4h100.1v-4.2H18C18,118.1,18,122.4,18,122.4z M13.7,131.1h108.8v-4H13.7V131.1z"/>
<polygon class="st4" points="74.8,113.7 74.8,74.5 79,74.5 79,70.2 57.3,70.2 57.3,74.3 61.5,74.3 61.5,113.6 "/>
<polygon class="st4" points="109.5,113.7 109.5,74.5 113.8,74.5 113.8,70.2 92.1,70.2 92.1,74.3 96.3,74.3 96.3,113.6 "/>
<polygon class="st4" points="133,53.3 134.9,54.7 137.3,54.3 136.6,56.5 137.9,58.6 135.5,58.7 133.9,60.5 133.2,58.2 130.9,57.2 
	132.7,55.7 "/>
<path class="st4" d="M13.1,21.7c0,5.9,4.8,10.8,10.8,10.8s10.8-4.8,10.8-10.8s-4.8-10.8-10.8-10.8C18.1,10.8,13.1,15.6,13.1,21.7z"
	/>
<path class="st4" d="M24,0.8c0.6,0,1.4,0.5,1.4,1.4v4.3c0,0.6-0.5,1.4-1.4,1.4s-1.4-0.5-1.4-1.4V2.2C22.8,1.3,23.3,0.8,24,0.8z"/>
<path class="st4" d="M45.3,21.5c0,0.6-0.5,1.3-1.4,1.4h-4.3c-0.6,0-1.4-0.5-1.4-1.4c0-0.6,0.5-1.4,1.4-1.4h4.3
	C44.7,20.1,45.3,20.9,45.3,21.5z"/>
<path class="st4" d="M9.9,21.5c0,0.6-0.5,1.3-1.4,1.4H4.2c-0.6,0-1.4-0.5-1.4-1.4c0-0.6,0.5-1.4,1.4-1.4h4.3
	C9.1,20.1,9.9,20.9,9.9,21.5z"/>
<path class="st4" d="M24,42.5c-0.6,0-1.4-0.5-1.4-1.4v-4.3c0-0.6,0.5-1.4,1.4-1.4c0.6,0,1.4,0.5,1.4,1.4v4.3
	C25.3,42,24.8,42.5,24,42.5z"/>
<path class="st4" d="M38.8,6.9c0.4,0.4,0.4,1.4,0,1.8l-3.1,3.1c-0.4,0.4-1.4,0.4-1.8,0c-0.4-0.4-0.4-1.4,0-1.8L37,6.9
	C37.4,6.4,38.2,6.5,38.8,6.9z"/>
<path class="st4" d="M39.1,36.6c-0.4,0.4-1.3,0.5-1.8,0l-3.1-3.1c-0.4-0.4-0.4-1.4,0-1.8c0.4-0.4,1.4-0.4,1.8,0l3.1,3.1
	C39.6,35.3,39.7,36.1,39.1,36.6z"/>
<path class="st4" d="M14,11.4c-0.4,0.4-1.3,0.5-1.8,0L9,8.3C8.6,7.9,8.6,7,9,6.6s1.4-0.4,1.8,0L14,9.7C14.5,10.1,14.5,11,14,11.4z"
	/>
<path class="st4" d="M9.3,36.4c-0.4-0.4-0.4-1.4,0-1.8l3.1-3.1c0.4-0.4,1.4-0.4,1.8,0c0.4,0.4,0.4,1.4,0,1.8l-3.1,3.1
	C10.5,37,9.9,36.9,9.3,36.4z"/>
<path class="st4" d="M119.3,17.9c1.2,2,1.8,4.3,1.8,6.9c0,7.6-6.3,13.9-13.9,13.9c-1.1,0-2-0.1-3.1-0.3c2.3,5.2,7.4,8.7,13.4,8.7
	c8.2,0,14.6-6.6,14.6-14.6C132.3,24.9,126.5,18.7,119.3,17.9L119.3,17.9z M97.7,4.3l1.7,3.3l3.5,1.2l-2.6,2.6l0.1,3.7l-3.3-1.7
	l-3.5,1.1l0.5-3.7l-2.3-2.9l3.7-0.5L97.7,4.3L97.7,4.3z"/>
</svg>
