<?xml version="1.0" encoding="utf-8"?>
<!-- Generator: Adobe Illustrator 22.1.0, SVG Export Plug-In . SVG Version: 6.00 Build 0)  -->
<svg version="1.1" id="图层_1" xmlns="http://www.w3.org/2000/svg" xmlns:xlink="http://www.w3.org/1999/xlink" x="0px" y="0px"
	 viewBox="0 0 180 140" style="enable-background:new 0 0 180 140;" xml:space="preserve">
<style type="text/css">
	.st0{opacity:0.2;fill:#A5A6A8;enable-background:new    ;}
	.st1{opacity:0.5;fill:#FFFFFF;enable-background:new    ;}
	.st2{opacity:0.1;enable-background:new    ;}
	.st3{opacity:0.2;fill:#FFFFFF;enable-background:new    ;}
	.st4{fill:#434A54;}
	.st5{opacity:0.1;fill:#FFFFFF;enable-background:new    ;}
	.st6{fill:#656D78;}
	.st7{fill:#E6E9ED;}
	.st8{fill:#EC87C0;}
</style>
<path class="st0" d="M82,2.2c-5,0-9.1,4.9-9.1,10.9v115c0,6,4.1,10.9,9.1,10.9h81.3c5,0,9.1-4.9,9.1-10.9V45.6L138.9,2.2H82z"/>
<path class="st1" d="M162.9,70.2c0.9,0,1.8-0.3,1.8-0.9v-4.2c0-1.2-1.8-1.2-1.8-1.2h-84l9.4,6.3H162.9z M162.9,92.2
	c0.9,0,1.8-1.2,1.8-1.2v-3.9c0-1.2-1.8-1.2-1.8-1.2h-51.2l9.4,6.3C121.1,92.2,162.9,92.2,162.9,92.2z M161.8,114.1
	c1.5,0,2.9-0.6,2.9-1.2V109c0-1.2-2.9-1.2-2.9-1.2h-33.1l8.2,6.3C136.9,114.1,161.8,114.1,161.8,114.1z"/>
<path class="st2" d="M172.4,45.8v2.1h-22.7c0,0-11.4-2.8-11-14.3c0,0,0.4,12.2,10.7,12.2H172.4z"/>
<path class="st3" d="M138.9,2.2v31.2c0,3.4,2,12.4,10.8,12.4h22.7L138.9,2.2z"/>
<path class="st4" d="M68,135.9c25.4,0,45.9-3.7,45.9-8l-2.6-70.2c0,0-10.9-5.4-43.1-5.4c-32.5,0-43.1,5.4-43.1,5.4l-2.6,70.2
	C22.1,132.2,42.6,135.9,68,135.9L68,135.9z"/>
<path class="st5" d="M111.1,57.5c0,0-10.9-5.4-43.1-5.4c-0.9,0-1.8,0-2.6,0c30.3,0.2,40.5,5.4,40.5,5.4l2.6,70.2
	c0,4.3-19.1,7.8-43.1,8c0.8,0,1.8,0,2.6,0c25.4,0,45.9-3.7,45.9-8L111.1,57.5L111.1,57.5z"/>
<path class="st6" d="M132.8,54.8c0,10.4-28.9,18.9-64.8,18.9S3.2,65.3,3.2,54.8s29-18.9,64.8-18.9S132.8,44.4,132.8,54.8z"/>
<path class="st4" d="M68,63c-11.7,0-22.9-1-31.1-2.9C27.4,58,25,55.6,24.9,55c0.1-0.6,2.5-3,12-5.1c8.4-2,19.4-2.9,31.1-2.9
	s22.9,1,31.1,2.9c9.5,2.2,11.9,4.6,12,5.1c-0.1,0.6-2.5,3-12,5.1C90.9,61.9,79.7,63,68,63z"/>
<path class="st7" d="M35.4,59.6c0.5,0.1,0.8,0.2,1.4,0.3c7.7,1.8,17.8,2.7,28.5,2.9C63.4,29.3,45.8,6,40,6c-0.8,0-1.5,0.5-1.7,1.6
	C34.3,25,30.7,40,35,57.5C35.1,58.3,35.3,59,35.4,59.6z"/>
<path class="st8" d="M43.9,36.7c0,0.1,3.1,9.3,5.1,25.2c1.8,0.2,3.8,0.3,5.5,0.5C52.4,45.7,49.2,36,48.9,35c0,0,0,0,0-0.1l0,0
	c-0.3-1-1.4-1.8-2.5-1.8c-1.5,0-2.6,1.3-2.6,2.6C43.7,36.1,43.9,36.5,43.9,36.7L43.9,36.7z"/>
<path class="st7" d="M99.1,59.9c0.5-0.1,0.9-0.2,1.4-0.3c0.1-0.7,0.3-1.4,0.5-2.1c4.2-17.5,0.6-32.5-3.3-49.8
	c-0.2-1-0.8-1.6-1.7-1.6c-5.7,0-23.5,23.2-25.3,56.7C81.5,62.8,91.5,61.7,99.1,59.9L99.1,59.9z"/>
<path class="st8" d="M86.9,62C88.6,49.5,91,40.2,92,36.8c0.1-0.2,0.1-0.6,0.1-0.8c0-1.5-1.3-2.6-2.6-2.6c-1.3,0-2.2,0.7-2.5,1.8l0,0
	c0,0,0,0,0,0.1c-0.3,0.9-3.4,10.8-5.6,27.3C83.2,62.3,85,62.1,86.9,62L86.9,62z"/>
</svg>
