<?xml version="1.0" encoding="utf-8"?>
<!-- Generator: Adobe Illustrator 22.1.0, SVG Export Plug-In . SVG Version: 6.00 Build 0)  -->
<svg version="1.1" id="图层_1" xmlns="http://www.w3.org/2000/svg" xmlns:xlink="http://www.w3.org/1999/xlink" x="0px" y="0px"
	 viewBox="0 0 180 140" style="enable-background:new 0 0 180 140;" xml:space="preserve">
<style type="text/css">
	.st0{opacity:0.2;fill:#4B89DA;enable-background:new    ;}
	.st1{opacity:0.3;fill:#FFFFFF;enable-background:new    ;}
	.st2{opacity:0.1;enable-background:new    ;}
	.st3{opacity:0.2;fill:#FFFFFF;enable-background:new    ;}
	.st4{fill:#4B89DA;}
	.st5{fill:#F5BA45;}
	.st6{fill:#EAC6BB;}
	.st7{fill:#5E9CEA;}
	.st8{fill:#FECD57;}
	.st9{fill:#434A54;}
	.st10{fill:#646C77;}
</style>
<path class="st0" d="M82.2,1.2c-5,0-9.1,4.9-9.1,10.9v115c0,6,4.1,10.9,9.1,10.9h81.3c5,0,9.1-4.9,9.1-10.9V44.6L139.1,1.2H82.2z"/>
<path class="st1" d="M163.1,69.2c0.9,0,1.8-0.3,1.8-0.9v-4.2c0-1.2-1.8-1.2-1.8-1.2h-84l9.4,6.3H163.1z M163.1,91.2
	c0.9,0,1.8-1.2,1.8-1.2v-3.9c0-1.2-1.8-1.2-1.8-1.2h-51.2l9.4,6.3C121.3,91.2,163.1,91.2,163.1,91.2z M162,113.1
	c1.5,0,2.9-0.6,2.9-1.2V108c0-1.2-2.9-1.2-2.9-1.2h-33.1l7.2,6.3C136.1,113.1,162,113.1,162,113.1z"/>
<path class="st2" d="M172.6,44.8v2.1h-22.7c0,0-11.4-2.8-11-14.3c0,0,0.4,12.2,10.7,12.2H172.6z"/>
<path class="st3" d="M139.1,1.2v31.2c0,3.4,2,12.4,10.8,12.4h22.7L139.1,1.2z"/>
<path class="st4" d="M32.9,12.2l-6.2,1c0,0-24.5,62-19.1,65.7c25.4,16.9,5.7,60,42.2,60V71.6l14.4-0.5L32.9,12.2z"/>
<path class="st5" d="M15.2,44.2h23.2L36,32.7H19.2C17.9,36.4,16.6,40.2,15.2,44.2z M8.2,67.1H42l-2.9-11.5H11.4
	C10.1,59.9,9.1,63.8,8.2,67.1z M49.8,86.3l-3.1-7.7H7.4c0.1,0.1,0.1,0.1,0.2,0.1c4.5,3.1,7.6,7,9.9,11.3h32.2L49.8,86.3L49.8,86.3z
	 M24,113.1h25.8v-11.5H21.6C22.6,105.4,23.3,109.2,24,113.1L24,113.1z M27.1,124.4c3.2,8.4,9.1,14.3,22.7,14.3v-14.3
	C49.8,124.4,27.1,124.4,27.1,124.4z"/>
<path class="st4" d="M95.4,12.2l6.2,1c0,0,24.5,62,19.1,65.7c-25.4,16.9-5.6,60-42.2,60V71.6l-14.3-0.5L95.4,12.2L95.4,12.2z"/>
<path class="st5" d="M113.2,44.2H90l2.4-11.5h16.8C110.4,36.4,111.7,40.2,113.2,44.2z M120.1,67.1H86.4l2.9-11.5H117
	C118.2,59.9,119.2,63.8,120.1,67.1z M78.5,86.3l3.1-7.7h39.3c0,0.1-0.1,0.1-0.2,0.1c-4.5,3.1-7.6,7-9.9,11.3H78.6L78.5,86.3
	C78.6,86.3,78.5,86.3,78.5,86.3z M104.3,113.1H78.5v-11.5h28.3C105.8,105.4,105,109.2,104.3,113.1L104.3,113.1z M101.3,124.4
	c-3.2,8.4-9.1,14.3-22.7,14.3v-14.3C78.6,124.4,101.3,124.4,101.3,124.4z"/>
<path class="st6" d="M93,52.5C93,73,80.1,98.7,64.2,98.7S35.4,73.1,35.4,52.6s12.9-28.5,28.8-28.5S93,31.9,93,52.5z"/>
<path class="st7" d="M95.4,12.2c0,0-16.5-10-31.2-11C49.5,2.1,33,12.2,33,12.2l-6.2,1L35.4,51c0,0,9.3-13.5,28.8-13.5
	C83.8,37.2,93,50.9,93,50.9l8.6-37.8C101.7,13.2,95.4,12.2,95.4,12.2z"/>
<path class="st4" d="M67,1.5c-1-0.1-1.8-0.3-2.8-0.3s-1.9,0.1-2.9,0.2v35.9c1-0.1,1.9-0.1,2.9-0.1s1.9,0,2.9,0.1L67,1.5L67,1.5z"/>
<path class="st8" d="M55.7,38.2l-8.4-33c-8.3,3.1-14.5,7-14.5,7l14.1,29C49.8,39.9,52.7,38.8,55.7,38.2z M72.7,38.2l8.4-33
	c8.3,3.1,14.5,7,14.5,7l-14.2,29C78.5,39.9,75.6,38.8,72.7,38.2L72.7,38.2z"/>
<path class="st4" d="M55.6,93.7v30.7c0,4.7,8.6,8.6,8.6,8.6s8.6-3.9,8.6-8.6V93.7H55.6z"/>
<path class="st8" d="M55.6,107.3h17.2v11.5H55.6V107.3z"/>
<path class="st9" d="M55.6,58.5c0,1.5-1.3,2.9-2.9,2.9c-1.5,0-2.9-1.3-2.9-2.9c0-1.5,1.3-2.9,2.9-2.9S55.6,57,55.6,58.5z"/>
<path class="st10" d="M58.4,61.4c-0.4,0-0.9-0.1-1.3-0.2l-11.7-5.7c-1.4-0.8-2-2.4-1.3-3.9c0.8-1.4,2.4-2,3.9-1.3L59.6,56
	c1.4,0.8,2,2.4,1.3,3.9C60.4,60.8,59.5,61.4,58.4,61.4z"/>
<path class="st9" d="M72.8,58.5c0,1.5,1.3,2.9,2.9,2.9c1.5,0,2.9-1.3,2.9-2.9c0-1.5-1.3-2.9-2.9-2.9S72.8,57,72.8,58.5z"/>
<path class="st10" d="M69.9,61.4c-1.1,0-2.1-0.6-2.6-1.5c-0.8-1.4-0.1-3.1,1.3-3.9l11.7-5.7c1.4-0.8,3.1-0.1,3.9,1.3
	c0.8,1.4,0.1,3.1-1.3,3.9l-11.7,5.7C70.8,61.3,70.4,61.4,69.9,61.4z"/>
<path class="st9" d="M67,81.5h-5.7c-1.5,0-2.9-1.3-2.9-2.9c0-1.5,1.3-2.9,2.9-2.9l0,0H67c1.5,0,2.9,1.3,2.9,2.9S68.6,81.5,67,81.5z"
	/>
</svg>
