<?xml version="1.0" encoding="utf-8"?>
<!-- Generator: Adobe Illustrator 22.1.0, SVG Export Plug-In . SVG Version: 6.00 Build 0)  -->
<svg version="1.1" id="图层_1" xmlns="http://www.w3.org/2000/svg" xmlns:xlink="http://www.w3.org/1999/xlink" x="0px" y="0px"
	 viewBox="0 0 180 140" style="enable-background:new 0 0 180 140;" xml:space="preserve">
<style type="text/css">
	.st0{opacity:0.2;fill:#AC92EB;enable-background:new    ;}
	.st1{opacity:0.4;fill:#FFFFFF;enable-background:new    ;}
	.st2{opacity:0.1;enable-background:new    ;}
	.st3{opacity:0.2;fill:#FFFFFF;enable-background:new    ;}
	.st4{fill:#F5F7FA;}
	.st5{fill:#E6E9ED;}
	.st6{fill:#AC92EB;}
	.st7{fill:#656D78;}
	.st8{fill:#FFCE54;}
	.st9{fill:#434A54;}
</style>
<path class="st0" d="M79.8,2.2c-5,0-9.1,4.9-9.1,10.9v115c0,6,4.1,10.9,9.1,10.9h81.3c5,0,9.1-4.9,9.1-10.9V45.6L136.8,2.2H79.8z"/>
<path class="st1" d="M160.8,70.2c0.9,0,1.8-0.3,1.8-0.9v-4.2c0-1.2-1.8-1.2-1.8-1.2h-84l9.4,6.3H160.8z M160.8,92.2
	c0.9,0,1.8-1.2,1.8-1.2v-3.9c0-1.2-1.8-1.2-1.8-1.2h-51.2l9.4,6.3C118.9,92.2,160.8,92.2,160.8,92.2z M159.6,114.1
	c1.5,0,2.9-0.6,2.9-1.2V109c0-1.2-2.9-1.2-2.9-1.2h-33.1l7.2,6.3C133.8,114.1,159.6,114.1,159.6,114.1z"/>
<path class="st2" d="M170.3,45.8v2.1h-22.7c0,0-11.4-2.8-11-14.3c0,0,0.4,12.2,10.7,12.2H170.3z"/>
<path class="st3" d="M136.8,2.2v31.2c0,3.4,2,12.4,10.8,12.4h22.7L136.8,2.2z"/>
<path class="st4" d="M114.9,130.4H13.6v-9l101.3-2.6V130.4z"/>
<path class="st5" d="M113.3,116.8h5V128h-5V116.8z"/>
<path class="st6" d="M117.5,128.9H14.8v-15.7H9.6v18.3c0,1.5,1.1,2.6,2.6,2.6h105.3c1.5,0,2.6-1.1,2.6-2.6
	C120.1,130.1,119,128.9,117.5,128.9z"/>
<path class="st6" d="M117.5,7.8H12.2c-1.5,0-2.6,1.1-2.6,2.6l0,0v110.5c0,1.5,1.1,2.6,2.6,2.6h105.3c1.5,0,2.6-1.1,2.6-2.6V10.4
	C120.1,9.1,119,7.8,117.5,7.8z"/>
<path class="st7" d="M22.7,123.6V7.9H12.2c-1.5,0-2.6,1.1-2.6,2.6l0,0v120.9c0,1.5,1.1,2.6,2.6,2.6h10.5v-5.3h-7.9v-5.2L22.7,123.6
	L22.7,123.6z"/>
<path class="st8" d="M70.2,52.6l22.9-12.8c-1.1-2.1-2.6-4.1-4.4-5.7c-10.3-10.3-26.9-10.3-37.2,0s-10.3,26.9,0,37.2
	s26.9,10.3,37.2,0c1.8-1.8,3.2-3.6,4.4-5.7C93.1,65.4,70.2,52.6,70.2,52.6z"/>
<path class="st9" d="M74.6,41.3c-1,1-2.7,1-3.8,0c-1-1-1-2.7,0-3.8c1-1,2.7-1,3.8,0C75.6,38.6,75.6,40.2,74.6,41.3z M101.5,97.3
	H38.4c-1.5,0-2.6-1.1-2.6-2.6s1.1-2.6,2.6-2.6h63.2c1.5,0,2.6,1.1,2.6,2.6C104.2,96.1,102.9,97.3,101.5,97.3L101.5,97.3z
	 M85.7,107.8H54.1c-1.5,0-2.6-1.1-2.6-2.6s1.1-2.6,2.6-2.6h31.6c1.5,0,2.6,1.1,2.6,2.6S87.2,107.8,85.7,107.8z"/>
</svg>
