<?xml version="1.0" standalone="no"?><!DOCTYPE svg PUBLIC "-//W3C//DTD SVG 1.1//EN" "http://www.w3.org/Graphics/SVG/1.1/DTD/svg11.dtd"><svg class="icon" width="200px" height="200.00px" viewBox="0 0 1024 1024" version="1.1" xmlns="http://www.w3.org/2000/svg"><path d="M526.336 194.56m-57.344 0a57.344 57.344 0 1 0 114.688 0 57.344 57.344 0 1 0-114.688 0Z" fill="#4E6691" /><path d="M426.496 878.08H328.192c10.24-288.256-7.68-450.56-15.36-487.936 12.288 0 68.096-1.024 76.288 0 5.12 6.144 32.768 40.96 35.84 62.464 6.144 64 1.536 182.272 1.536 425.472zM603.136 366.592c28.16 43.52 33.28 97.792 28.16 139.264-30.208 242.688-1.024 102.4-1.024 349.184v23.552c15.36 0 83.456-2.56 97.792-1.536V482.304c0-13.312-6.144-42.496-21.504-67.072-11.776-19.968-67.072-47.616-103.424-48.64z" fill="#9FB1FF" /><path d="M756.224 874.496v-23.552-336.896c0-23.552-2.048-48.64-6.144-71.168-12.288-61.952-47.616-101.376-123.904-109.568-52.736-6.144-157.184-1.024-196.096 54.784 0-5.12-28.672-38.912-35.328-43.008h-128c13.312 42.496 17.408 65.536 27.136 147.456 11.264 81.408 7.168 382.464 7.168 382.464v30.72H455.68v-31.744s0 6.144 0 0V426.496c0-20.48 28.16-44.032 72.704-50.176 30.72-4.096 59.392-1.536 67.584 22.016 6.144 16.384 8.192 34.304 8.192 50.688v457.728h153.088c-1.024-11.776-1.024-32.256-1.024-32.256s0 10.24 0 0z m-343.04-1.024l-71.168-0.512c10.24-288.256-14.336-450.048-22.016-487.424 12.288 0 47.616-1.024 55.808 0 5.12 6.144 32.768 40.96 35.84 62.464 6.144 64 1.536 182.272 1.536 425.472z m229.376 0v-21.504-353.28c0-41.472 4.096-87.552-23.552-131.072 36.352 1.024 64 23.552 76.288 43.52 15.36 25.088 21.504 53.76 21.504 67.072v394.752c-14.336-1.536-58.88 0.512-74.24 0.512zM504.32 281.6c57.856 11.264 108.544-39.424 97.28-97.28-6.144-32.768-32.256-58.88-65.024-65.024-57.856-11.264-108.544 39.424-97.28 97.28 6.656 32.768 32.768 58.88 65.024 65.024z m8.192-121.344a41.2672 41.2672 0 0 1 48.64 48.64c-3.072 16.384-16.384 29.184-32.256 32.256a41.2672 41.2672 0 0 1-48.64-48.64c3.072-16.384 15.872-29.184 32.256-32.256z" fill="#4E6691" /></svg>