<?xml version="1.0" standalone="no"?><!DOCTYPE svg PUBLIC "-//W3C//DTD SVG 1.1//EN" "http://www.w3.org/Graphics/SVG/1.1/DTD/svg11.dtd"><svg class="icon" width="200px" height="200.00px" viewBox="0 0 1024 1024" version="1.1" xmlns="http://www.w3.org/2000/svg"><path fill="#333333" d="M762.88 911.872l-0.512-5.632c-1.024-11.264-1.024-31.232-1.024-31.744v-360.448c0-24.576-2.048-50.176-6.144-72.192-13.824-69.632-54.784-105.984-128.512-113.664-49.664-5.632-151.552-2.048-196.096 50.688-8.704-13.824-29.184-35.328-33.28-37.888l-1.024-0.512H259.584l2.048 6.656c13.312 41.472 16.896 63.488 27.136 146.432 11.264 79.872 7.168 378.88 7.168 381.952v35.84H460.8V426.496c0-17.408 26.112-39.424 68.096-45.056 35.84-4.608 55.808 1.536 61.952 18.944 5.12 13.824 7.68 30.208 7.68 48.64v462.848H762.88zM628.224 373.76c30.208 4.096 52.224 23.552 62.464 40.448 15.36 24.576 20.992 52.736 20.992 64.512v389.12c-11.776-0.512-31.744 0-48.128 0.512-6.144 0-11.776 0.512-15.872 0.512V498.688v-14.336c0.512-34.304 1.024-73.728-19.456-110.592z m-302.08 16.896h9.216c13.312 0 30.72-0.512 37.888 0 11.264 13.824 30.72 41.472 33.28 57.856 4.096 40.96 3.584 104.96 2.56 210.944-0.512 55.808-1.024 125.44-1.024 208.896l-60.928-0.512c10.24-287.232-14.848-444.928-20.992-477.184zM503.296 286.72c5.632 1.024 11.264 1.536 16.896 1.536 23.04 0 45.568-9.216 62.464-25.6 20.48-20.48 29.696-50.176 24.064-79.36-6.656-34.816-34.304-62.464-69.12-69.12-28.672-5.632-58.368 3.584-79.36 24.064-20.48 20.48-29.696 50.176-24.064 79.36 7.168 34.816 34.816 62.464 69.12 69.12z m-17.92-93.184c2.56-14.336 13.824-25.6 28.16-28.16 2.56-0.512 5.12-0.512 7.168-0.512 9.728 0 18.432 3.584 25.6 10.752 8.704 8.704 12.288 20.48 9.728 32.768-2.56 14.336-13.824 25.6-28.16 28.16-12.288 2.56-24.064-1.024-32.768-9.728-8.704-9.216-12.288-20.992-9.728-33.28z"  /></svg>