<?xml version="1.0" standalone="no"?><!DOCTYPE svg PUBLIC "-//W3C//DTD SVG 1.1//EN" "http://www.w3.org/Graphics/SVG/1.1/DTD/svg11.dtd"><svg class="icon" width="200px" height="200.00px" viewBox="0 0 1024 1024" version="1.1" xmlns="http://www.w3.org/2000/svg"><path d="M223.418182 44.993939c-55.854545 0-100.848485 44.993939-100.848485 100.848485s44.993939 100.848485 100.848485 100.848485 100.848485-44.993939 100.848485-100.848485-44.993939-100.848485-100.848485-100.848485z m0 153.6c-29.478788 0-52.751515-24.824242-52.751515-52.751515S195.490909 93.090909 223.418182 93.090909s52.751515 24.824242 52.751515 52.751515-21.721212 52.751515-52.751515 52.751515z" fill="#333333" /><path d="M636.121212 220.315152V74.472727C636.121212 41.890909 609.745455 15.515152 577.163636 15.515152h-99.296969C445.284848 15.515152 418.909091 41.890909 418.909091 74.472727v145.842425c-170.666667 48.09697-294.787879 203.248485-294.787879 387.878787 0 223.418182 179.975758 403.393939 403.39394 403.39394s403.393939-179.975758 403.393939-403.39394c0-184.630303-124.121212-341.333333-294.787879-387.878787zM498.036364 77.575758h58.957575c9.309091 0 17.066667 7.757576 17.066667 17.066666V201.69697h-93.090909V94.642424c0-9.309091 7.757576-17.066667 17.066667-17.066666zM527.515152 938.666667c-181.527273 0-330.472727-148.945455-330.472728-330.472728S345.987879 277.721212 527.515152 277.721212s330.472727 148.945455 330.472727 330.472727S709.042424 938.666667 527.515152 938.666667z" fill="#333333" /><path d="M577.163636 603.539394h-20.169697c-15.515152-1.551515-26.375758-13.963636-24.824242-29.478788 1.551515-15.515152 13.963636-26.375758 29.478788-24.824242 26.375758 1.551515 91.539394 1.551515 150.49697-46.545455 48.09697-38.787879 65.163636-89.987879 71.369697-116.363636 3.10303-13.963636 18.618182-23.272727 32.581818-20.169697 13.963636 3.10303 23.272727 17.066667 20.169697 32.581818-7.757576 32.581818-27.927273 96.193939-89.987879 145.842424s-130.327273 58.957576-169.115152 58.957576z" fill="#333333" /></svg>