<?xml version="1.0" standalone="no"?><!DOCTYPE svg PUBLIC "-//W3C//DTD SVG 1.1//EN" "http://www.w3.org/Graphics/SVG/1.1/DTD/svg11.dtd"><svg class="icon" width="200px" height="200.00px" viewBox="0 0 1024 1024" version="1.1" xmlns="http://www.w3.org/2000/svg"><path d="M189.284848 415.806061c-23.272727 49.648485-37.236364 103.951515-37.236363 162.909091 0 209.454545 170.666667 380.121212 380.121212 380.121212s380.121212-170.666667 380.121212-380.121212c0-58.957576-12.412121-113.260606-37.236364-162.909091-20.169697-6.206061-55.854545-17.066667-100.848484-20.169697-181.527273-15.515152-269.963636 91.539394-429.769697 74.472727-32.581818-3.10303-88.436364-13.963636-155.151516-54.30303z" fill="#9FB1FF" /><path d="M240.484848 136.533333m-48.096969 0a48.09697 48.09697 0 1 0 96.193939 0 48.09697 48.09697 0 1 0-96.193939 0Z" fill="#9FB1FF" /><path d="M224.969697 44.993939C169.115152 44.993939 124.121212 89.987879 124.121212 145.842424s44.993939 100.848485 100.848485 100.848485S325.818182 201.69697 325.818182 145.842424s-44.993939-100.848485-100.848485-100.848485z m0 153.6c-29.478788 0-52.751515-24.824242-52.751515-52.751515S195.490909 93.090909 224.969697 93.090909s52.751515 24.824242 52.751515 52.751515-23.272727 52.751515-52.751515 52.751515z" fill="#4E6691" /><path d="M636.121212 220.315152V74.472727C636.121212 41.890909 609.745455 15.515152 577.163636 15.515152h-99.296969c-31.030303 0-58.957576 26.375758-58.957576 58.957575v145.842425c-170.666667 48.09697-294.787879 203.248485-294.787879 387.878787 0 223.418182 179.975758 403.393939 403.39394 403.39394s403.393939-179.975758 403.393939-403.39394c0-184.630303-124.121212-341.333333-294.787879-387.878787zM498.036364 77.575758h58.957575c10.860606 0 17.066667 7.757576 17.066667 17.066666V201.69697h-93.090909V94.642424c0-9.309091 7.757576-17.066667 17.066667-17.066666zM527.515152 938.666667c-181.527273 0-330.472727-148.945455-330.472728-330.472728S345.987879 277.721212 527.515152 277.721212s330.472727 148.945455 330.472727 330.472727S710.593939 938.666667 527.515152 938.666667z" fill="#4E6691" /><path d="M577.163636 603.539394h-20.169697c-15.515152-1.551515-26.375758-13.963636-24.824242-29.478788 1.551515-15.515152 13.963636-26.375758 29.478788-24.824242 26.375758 1.551515 91.539394 1.551515 150.49697-46.545455 48.09697-38.787879 65.163636-89.987879 71.369697-116.363636 3.10303-13.963636 18.618182-23.272727 32.581818-20.169697 13.963636 3.10303 23.272727 17.066667 20.169697 32.581818-7.757576 32.581818-27.927273 96.193939-89.987879 145.842424-60.509091 49.648485-128.775758 58.957576-169.115152 58.957576z" fill="#4E6691" /></svg>