<?xml version="1.0" standalone="no"?><!DOCTYPE svg PUBLIC "-//W3C//DTD SVG 1.1//EN" "http://www.w3.org/Graphics/SVG/1.1/DTD/svg11.dtd"><svg class="icon" width="200px" height="200.00px" viewBox="0 0 1024 1024" version="1.1" xmlns="http://www.w3.org/2000/svg"><path d="M848.678788 335.127273c-7.757576 0-15.515152-3.10303-21.721212-7.757576-49.648485-37.236364-153.6-100.848485-296.339394-105.50303-155.151515-4.654545-269.963636 60.509091-324.266667 100.848485-15.515152 12.412121-38.787879 7.757576-51.2-7.757576-12.412121-15.515152-7.757576-38.787879 7.757576-51.2 62.060606-44.993939 192.387879-119.466667 369.260606-114.812121 162.909091 4.654545 282.375758 77.575758 338.230303 119.466666 15.515152 12.412121 18.618182 35.684848 7.757576 51.2-7.757576 10.860606-18.618182 15.515152-29.478788 15.515152zM508.89697 726.109091h-23.272728c-238.933333-9.309091-394.084848-147.393939-449.939394-206.351515-13.963636-13.963636-12.412121-37.236364 1.551516-51.2 13.963636-13.963636 37.236364-13.963636 51.2 1.551515C138.084848 521.309091 276.169697 643.878788 488.727273 651.636364c257.551515 9.309091 423.563636-161.357576 454.593939-195.490909 13.963636-15.515152 35.684848-15.515152 51.2-3.103031 15.515152 13.963636 15.515152 37.236364 3.10303 51.2-34.133333 38.787879-211.006061 221.866667-488.727272 221.866667z" fill="#333333" /><path d="M515.10303 929.357576c-20.169697 0-37.236364-17.066667-37.236363-37.236364l3.10303-184.630303c0-20.169697 17.066667-35.684848 35.684848-35.684848 20.169697 0 35.684848 17.066667 35.684849 37.236363l-1.551515 184.630303c1.551515 18.618182-15.515152 35.684848-35.684849 35.684849zM876.606061 822.30303c-12.412121 0-23.272727-6.206061-31.030303-17.066666l-99.29697-152.048485c-10.860606-17.066667-6.206061-38.787879 10.860606-51.2 17.066667-10.860606 38.787879-6.206061 51.2 10.860606l99.29697 152.048485c10.860606 17.066667 6.206061 38.787879-10.860606 51.2-7.757576 4.654545-13.963636 6.206061-20.169697 6.20606zM134.981818 822.30303c-6.206061 0-13.963636-1.551515-20.169697-6.20606-17.066667-10.860606-21.721212-34.133333-10.860606-51.2l99.29697-152.048485c10.860606-17.066667 34.133333-21.721212 51.2-10.860606 17.066667 10.860606 21.721212 34.133333 10.860606 51.2l-99.29697 152.048485c-7.757576 10.860606-18.618182 17.066667-31.030303 17.066666z" fill="#333333" /></svg>