<?xml version="1.0" standalone="no"?><!DOCTYPE svg PUBLIC "-//W3C//DTD SVG 1.1//EN" "http://www.w3.org/Graphics/SVG/1.1/DTD/svg11.dtd"><svg class="icon" width="200px" height="200.00px" viewBox="0 0 1024 1024" version="1.1" xmlns="http://www.w3.org/2000/svg"><path d="M60.509091 611.29697a451.490909 274.618182 0 1 0 902.981818 0 451.490909 274.618182 0 1 0-902.981818 0Z" fill="#9FB1FF" /><path d="M504.242424 929.357576H480.969697c-238.933333-9.309091-394.084848-147.393939-449.939394-206.351515-13.963636-13.963636-12.412121-37.236364 1.551515-51.2 13.963636-13.963636 37.236364-13.963636 51.2 1.551515 49.648485 52.751515 187.733333 175.321212 400.290909 183.078788 257.551515 9.309091 423.563636-161.357576 454.59394-195.490909 13.963636-15.515152 35.684848-15.515152 51.2-3.103031 15.515152 13.963636 15.515152 37.236364 3.10303 51.2-32.581818 37.236364-211.006061 220.315152-488.727273 220.315152zM504.242424 291.684848H480.969697c-238.933333 9.309091-394.084848 147.393939-449.939394 206.351516-13.963636 13.963636-12.412121 37.236364 1.551515 51.2 13.963636 13.963636 37.236364 13.963636 51.2-1.551516C133.430303 494.933333 271.515152 372.363636 484.072727 364.606061c257.551515-9.309091 423.563636 161.357576 454.59394 195.490909 13.963636 15.515152 35.684848 15.515152 51.2 3.10303 15.515152-13.963636 15.515152-37.236364 3.10303-51.2-32.581818-37.236364-211.006061-220.315152-488.727273-220.315152z" fill="#4E6691" /><path d="M504.242424 63.612121c-20.169697 0-37.236364 17.066667-37.236363 37.236364l1.551515 184.630303c0 20.169697 17.066667 35.684848 35.684848 35.684848 20.169697 0 35.684848-17.066667 35.684849-37.236363V100.848485c0-20.169697-15.515152-37.236364-35.684849-37.236364zM864.193939 170.666667c-12.412121 0-23.272727 6.206061-31.030303 17.066666l-99.296969 150.49697c-10.860606 17.066667-6.206061 38.787879 10.860606 51.2 17.066667 10.860606 38.787879 6.206061 51.2-10.860606l99.296969-150.49697c10.860606-17.066667 6.206061-38.787879-10.860606-51.2-6.206061-4.654545-12.412121-6.206061-20.169697-6.20606zM122.569697 170.666667c-6.206061 0-13.963636 1.551515-20.169697 6.20606-17.066667 10.860606-21.721212 34.133333-10.860606 51.2l99.29697 152.048485c10.860606 17.066667 34.133333 21.721212 51.2 10.860606 17.066667-10.860606 21.721212-34.133333 10.860606-51.2L153.6 186.181818c-7.757576-10.860606-18.618182-15.515152-31.030303-15.515151z" fill="#4E6691" /><path d="M496.484848 580.266667m-170.666666 0a170.666667 170.666667 0 1 0 341.333333 0 170.666667 170.666667 0 1 0-341.333333 0Z" fill="#4E6691" /><path d="M512 491.830303c0 31.030303 24.824242 57.406061 57.406061 57.406061 31.030303 0 57.406061-24.824242 57.40606-57.406061 0-31.030303-24.824242-57.406061-57.40606-57.406061-32.581818 1.551515-57.406061 26.375758-57.406061 57.406061z" fill="#FFFFFF" /></svg>