<?xml version="1.0" standalone="no"?><!DOCTYPE svg PUBLIC "-//W3C//DTD SVG 1.1//EN" "http://www.w3.org/Graphics/SVG/1.1/DTD/svg11.dtd"><svg class="icon" width="200px" height="200.00px" viewBox="0 0 1024 1024" version="1.1" xmlns="http://www.w3.org/2000/svg"><path d="M477.866667 96.193939C273.066667 111.709091 108.606061 279.272727 94.642424 484.072727c-7.757576 103.951515 23.272727 200.145455 80.678788 276.169697 23.272727-9.309091 49.648485-15.515152 76.024243-23.272727-57.406061-66.715152-89.987879-156.70303-82.230303-252.89697 13.963636-164.460606 144.290909-299.442424 308.751515-314.957575 218.763636-21.721212 401.842424 161.357576 380.121212 380.121212-15.515152 162.909091-147.393939 293.236364-310.303031 308.751515-77.575758 7.757576-150.49697-10.860606-212.557575-48.09697-9.309091-6.206061-21.721212-7.757576-31.030303-3.10303-1.551515 0-1.551515 0-3.103031 1.551515-27.927273 10.860606-29.478788 48.09697-4.654545 63.612121 71.369697 43.442424 156.70303 66.715152 248.242424 58.957576 204.8-13.963636 370.812121-179.975758 387.878788-383.224243C949.527273 290.133333 736.969697 76.024242 477.866667 96.193939z" fill="#333333" /><path d="M988.315152 370.812121c9.309091-12.412121 18.618182-24.824242 21.721212-38.787879 4.654545-13.963636 7.757576-32.581818 0-49.648484-7.757576-18.618182-23.272727-27.927273-38.787879-32.581819-13.963636-4.654545-29.478788-6.206061-44.99394-7.757575-24.824242-1.551515-54.30303 3.10303-89.987878 9.309091 0-1.551515-1.551515-1.551515-3.103031-3.103031 0 27.927273-4.654545 54.30303-10.860606 77.575758 6.206061 1.551515 10.860606 1.551515 17.066667 0 41.890909-9.309091 76.024242-13.963636 97.745455-12.412121 3.10303 0 6.206061 1.551515 7.757575 0-3.10303 3.10303-4.654545 4.654545-6.20606 7.757575-13.963636 17.066667-38.787879 40.339394-72.921212 66.715152-74.472727 57.406061-190.836364 124.121212-327.369697 189.284848-134.981818 63.612121-263.757576 108.606061-355.29697 128.775758-41.890909 9.309091-76.024242 13.963636-97.745455 12.412121-3.10303 0-6.206061-1.551515-7.757575 0 1.551515-3.10303 3.10303-4.654545 4.654545-6.20606 13.963636-17.066667 38.787879-40.339394 72.921212-66.715152 4.654545-3.10303 7.757576-7.757576 9.309091-10.860606-21.721212-18.618182-44.993939-31.030303-66.715151-41.890909v4.654545c-26.375758 21.721212-49.648485 43.442424-65.163637 63.612122-9.309091 12.412121-18.618182 24.824242-21.721212 38.787878-4.654545 13.963636-7.757576 32.581818 0 49.648485 7.757576 18.618182 23.272727 27.927273 38.787879 32.581818s29.478788 6.206061 44.993939 7.757576c31.030303 0 69.818182-4.654545 113.260606-15.515151 96.193939-21.721212 224.969697-68.266667 359.951515-130.327273 108.606061-51.2 217.212121-100.848485 291.684849-152.048485v23.272727c21.721212-7.757576 43.442424-18.618182 65.163636-27.927272l-4.654545-41.89091c-20.169697 15.515152-34.133333 37.236364-58.957576 49.648485 23.272727-12.412121 38.787879-32.581818 58.957576-49.648485 0-3.10303-1.551515-6.206061-1.551515-9.30909 31.030303-23.272727 54.30303-44.993939 69.818182-65.163637z" fill="#333333" /><path d="M311.854545 414.254545c7.757576-40.339394 40.339394-74.472727 80.678788-82.230303 18.618182-3.10303 35.684848-1.551515 52.751515 4.654546 9.309091 3.10303 18.618182 1.551515 24.824243-6.206061 10.860606-12.412121 7.757576-32.581818-7.757576-37.236363-21.721212-7.757576-44.993939-10.860606-68.266667-7.757576-66.715152 7.757576-122.569697 63.612121-128.775757 130.327273-3.10303 24.824242 1.551515 49.648485 9.309091 71.369697 6.206061 15.515152 26.375758 18.618182 38.787879 6.20606 6.206061-6.206061 7.757576-15.515152 4.654545-24.824242-7.757576-15.515152-9.309091-34.133333-6.206061-54.303031z" fill="#333333" /></svg>