<?xml version="1.0" standalone="no"?><!DOCTYPE svg PUBLIC "-//W3C//DTD SVG 1.1//EN" "http://www.w3.org/Graphics/SVG/1.1/DTD/svg11.dtd"><svg class="icon" width="200px" height="200.00px" viewBox="0 0 1024 1024" version="1.1" xmlns="http://www.w3.org/2000/svg"><path d="M512 747.830303c-200.145455 0-361.50303-162.909091-361.50303-361.50303S311.854545 23.272727 512 23.272727 873.50303 186.181818 873.50303 384.775758 712.145455 747.830303 512 747.830303z m0-651.636364c-159.806061 0-290.133333 130.327273-290.133333 290.133334S352.193939 674.909091 512 674.909091s290.133333-130.327273 290.133333-290.133333S671.806061 96.193939 512 96.193939z" fill="#333333" /><path d="M512 747.830303c172.218182 0 322.715152 97.745455 397.187879 242.036364 6.206061 10.860606 17.066667 18.618182 31.030303 18.618181h6.20606c24.824242 0 41.890909-26.375758 29.478788-49.648484C889.018182 789.721212 713.69697 674.909091 512 674.909091S133.430303 791.272727 48.09697 958.836364c-10.860606 23.272727 4.654545 49.648485 31.030303 49.648484h6.20606c12.412121 0 24.824242-7.757576 31.030303-18.618181 72.921212-144.290909 223.418182-242.036364 395.636364-242.036364z" fill="#333333" /></svg>