<?xml version="1.0" standalone="no"?><!DOCTYPE svg PUBLIC "-//W3C//DTD SVG 1.1//EN" "http://www.w3.org/Graphics/SVG/1.1/DTD/svg11.dtd"><svg class="icon" width="200px" height="200.00px" viewBox="0 0 1024 1024" version="1.1" xmlns="http://www.w3.org/2000/svg"><path d="M206.351515 386.327273C207.90303 217.212121 344.436364 82.230303 513.551515 82.230303S817.648485 220.315152 817.648485 387.878788c0 169.115152-136.533333 304.09697-305.648485 304.09697-169.115152 0-305.648485-136.533333-305.648485-305.648485z" fill="#9FB1FF" /><path d="M512 749.381818C311.854545 749.381818 150.49697 588.024242 150.49697 387.878788S311.854545 24.824242 512 24.824242 873.50303 187.733333 873.50303 387.878788 712.145455 749.381818 512 749.381818z m0-651.636363c-159.806061 0-290.133333 130.327273-290.133333 290.133333S352.193939 676.460606 512 676.460606 802.133333 547.684848 802.133333 387.878788 671.806061 97.745455 512 97.745455z" fill="#4E6691" /><path d="M512 749.381818c172.218182 0 322.715152 97.745455 397.187879 242.036364 6.206061 10.860606 17.066667 18.618182 31.030303 18.618182h6.20606c24.824242 0 41.890909-26.375758 29.478788-49.648485C890.569697 792.824242 713.69697 676.460606 512 676.460606S133.430303 792.824242 48.09697 961.939394c-10.860606 23.272727 4.654545 49.648485 29.478788 49.648485h6.20606c12.412121 0 24.824242-7.757576 31.030303-18.618182 74.472727-144.290909 224.969697-243.587879 397.187879-243.587879zM367.709091 435.975758h-4.654546c-26.375758 0-46.545455-21.721212-46.545454-46.545455v-77.575758c0-26.375758 21.721212-46.545455 46.545454-46.545454h4.654546c26.375758 0 46.545455 21.721212 46.545454 46.545454v77.575758c1.551515 24.824242-20.169697 46.545455-46.545454 46.545455zM584.921212 437.527273h-4.654545c-26.375758 0-46.545455-21.721212-46.545455-46.545455v-77.575757c0-26.375758 21.721212-46.545455 46.545455-46.545455h4.654545c26.375758 0 46.545455 21.721212 46.545455 46.545455v77.575757c0 24.824242-20.169697 46.545455-46.545455 46.545455z" fill="#4E6691" /></svg>