<svg width="10" height="10" viewBox="0 0 10 10" fill="none" xmlns="http://www.w3.org/2000/svg">
<g id="Frame">
<path id="Vector" d="M4.60938 6.01562C4.60938 6.11923 4.65053 6.21858 4.72379 6.29184C4.79704 6.3651 4.8964 6.40625 5 6.40625C5.1036 6.40625 5.20296 6.3651 5.27621 6.29184C5.34947 6.21858 5.39062 6.11923 5.39062 6.01562C5.39062 5.91202 5.34947 5.81267 5.27621 5.73941C5.20296 5.66615 5.1036 5.625 5 5.625C4.8964 5.625 4.79704 5.66615 4.72379 5.73941C4.65053 5.81267 4.60938 5.91202 4.60938 6.01562Z" fill="#6674CF"/>
<path id="Vector_2" d="M8.69141 1.25H7.26562C7.16202 1.25 7.06267 1.29116 6.98941 1.36441C6.91615 1.43767 6.875 1.53702 6.875 1.64062C6.875 1.74423 6.91615 1.84358 6.98941 1.91684C7.06267 1.99009 7.16202 2.03125 7.26562 2.03125H8.20312C8.30673 2.03125 8.40608 2.07241 8.47934 2.14566C8.5526 2.21892 8.59375 2.31827 8.59375 2.42188V6.48438C8.59375 6.58798 8.5526 6.68733 8.47934 6.76059C8.40608 6.83385 8.30673 6.875 8.20312 6.875H6.33672C6.24695 6.87499 6.15805 6.89267 6.07511 6.92702C5.99217 6.96137 5.9168 7.01172 5.85332 7.0752L5.27227 7.65625L5 7.92852L4.72773 7.65625L4.33711 7.26562L4.14668 7.0752C4.0832 7.01172 4.00783 6.96137 3.92489 6.92702C3.84195 6.89267 3.75305 6.87499 3.66328 6.875H1.79688C1.69327 6.875 1.59392 6.83385 1.52066 6.76059C1.44741 6.68733 1.40625 6.58798 1.40625 6.48438V2.42188C1.40625 2.31827 1.44741 2.21892 1.52066 2.14566C1.59392 2.07241 1.69327 2.03125 1.79688 2.03125H2.73438C2.83798 2.03125 2.93733 1.99009 3.01059 1.91684C3.08384 1.84358 3.125 1.74423 3.125 1.64062C3.125 1.53702 3.08384 1.43767 3.01059 1.36441C2.93733 1.29116 2.83798 1.25 2.73438 1.25H1.30859C1.12729 1.25 0.953419 1.32202 0.82522 1.45022C0.697021 1.57842 0.625 1.75229 0.625 1.93359V6.97266C0.625 7.15396 0.697021 7.32783 0.82522 7.45603C0.953419 7.58423 1.12729 7.65625 1.30859 7.65625H3.62305L4.72383 8.75723C4.79708 8.83046 4.89642 8.8716 5 8.8716C5.10358 8.8716 5.20292 8.83046 5.27617 8.75723L6.37695 7.65625H8.69141C8.87271 7.65625 9.04658 7.58423 9.17478 7.45603C9.30298 7.32783 9.375 7.15396 9.375 6.97266V1.93359C9.375 1.75229 9.30298 1.57842 9.17478 1.45022C9.04658 1.32202 8.87271 1.25 8.69141 1.25Z" fill="#999999"/>
<path id="Vector_3" d="M5 5C5.1036 5 5.20296 4.95884 5.27621 4.88559C5.34947 4.81233 5.39062 4.71298 5.39062 4.60938V1.64062C5.39062 1.53702 5.34947 1.43767 5.27621 1.36441C5.20296 1.29116 5.1036 1.25 5 1.25C4.8964 1.25 4.79704 1.29116 4.72379 1.36441C4.65053 1.43767 4.60938 1.53702 4.60938 1.64062V4.60938C4.60938 4.71298 4.65053 4.81233 4.72379 4.88559C4.79704 4.95884 4.8964 5 5 5Z" fill="#999999"/>
</g>
</svg>
