<?xml version="1.0" encoding="utf-8"?>
<!-- Generator: Adobe Illustrator 22.1.0, SVG Export Plug-In . SVG Version: 6.00 Build 0)  -->
<svg version="1.1" id="图层_1" xmlns="http://www.w3.org/2000/svg" xmlns:xlink="http://www.w3.org/1999/xlink" x="0px" y="0px"
	 viewBox="0 0 38 38" style="enable-background:new 0 0 38 38;" xml:space="preserve">
<style type="text/css">
	.st0{fill:#B5BCEA;}
	.st1{fill:#C4C9F7;}
	.st2{fill:#E7E4F4;}
	.st3{fill:#D2D0E2;}
	.st4{fill:#D8D8E5;}
	.st5{fill:#EDE9FF;}
	.st6{fill:#C9C8DB;}
	.st7{fill:#97A1D3;}
</style>
<rect x="4.7" y="12.1" class="st0" width="28.5" height="18.1"/>
<rect x="3.5" y="9.4" class="st1" width="30.9" height="3.3"/>
<rect x="6.9" y="26.5" class="st1" width="24.2" height="5.3"/>
<path class="st2" d="M8.6,33.1h-7V10.5C1.6,8.6,3.2,7,5.1,7h0C7,7,8.6,8.6,8.6,10.5V33.1z"/>
<path class="st2" d="M36.3,33.1h-7V10.5c0-1.9,1.6-3.5,3.5-3.5h0c1.9,0,3.5,1.6,3.5,3.5V33.1z"/>
<rect x="1.6" y="20.8" class="st3" width="7" height="3.8"/>
<rect x="29.3" y="20.8" class="st3" width="7" height="3.8"/>
<rect x="1.6" y="12.8" class="st4" width="7" height="6.2"/>
<rect x="29.3" y="12.8" class="st4" width="7" height="6.2"/>
<polygon class="st5" points="37,20.6 1,20.6 1.6,19 36.3,19 "/>
<polygon class="st6" points="37,20.6 1,20.6 1.6,22.3 36.3,22.3 "/>
<path class="st2" d="M21.6,32.3h-5.2V9.6C16.3,8.2,17.5,7,19,7h0c1.4,0,2.6,1.2,2.6,2.6V32.3z"/>
<path class="st5" d="M19,25.9L19,25.9c-3,0-5.4-2.4-5.4-5.4v0c0-2.9,2.4-5.4,5.4-5.4H19c2.9,0,5.4,2.4,5.4,5.4v0
	C24.4,23.5,21.9,25.9,19,25.9z"/>
<path class="st0" d="M19,24.3L19,24.3c-2.1,0-3.8-1.7-3.8-3.8v0c0-2.1,1.7-3.8,3.8-3.8h0c2.1,0,3.8,1.7,3.8,3.8v0
	C22.8,22.6,21,24.3,19,24.3z"/>
<circle class="st7" cx="19" cy="19.4" r="1.7"/>
<path class="st7" d="M19,23L19,23c-0.4,0-0.7-0.3-0.7-0.7v-1.5c0-0.4,0.3-0.7,0.7-0.7h0c0.4,0,0.7,0.3,0.7,0.7v1.5
	C19.7,22.7,19.4,23,19,23z"/>
</svg>
