<?xml version="1.0" standalone="no"?><!DOCTYPE svg PUBLIC "-//W3C//DTD SVG 1.1//EN" "http://www.w3.org/Graphics/SVG/1.1/DTD/svg11.dtd"><svg class="icon" width="200px" height="136.26px" viewBox="0 0 1503 1024" version="1.1" xmlns="http://www.w3.org/2000/svg"><path d="M116.658228 7.777215h1272.870886c57.032911 0 101.103797 46.663291 101.103797 101.103798v803.645569c0 57.032911-46.663291 101.103797-101.103797 101.103798H116.658228c-57.032911 0-101.103797-46.663291-101.103798-101.103798v-803.645569C15.55443 54.440506 62.217722 7.777215 116.658228 7.777215z" fill="#848484" opacity=".17" /><path d="M1060.293671 267.017722h-28.516456c12.962025-23.331646 20.739241-46.663291 18.146836-67.402532 0-18.146835-10.36962-41.478481-41.478481-62.217722-23.331646-18.146835-57.032911-20.739241-93.326583-10.36962-57.032911 12.962025-119.250633 64.810127-163.321519 127.027848-44.070886-62.217722-106.288608-111.473418-163.321519-127.027848-38.886076-10.36962-69.994937-2.592405-93.326582 10.36962-31.108861 20.739241-38.886076 44.070886-41.478481 62.217722-2.592405 20.739241 2.592405 44.070886 18.146836 67.402532h-28.516456c-41.478481 0-75.179747 33.701266-75.179747 75.179746V440.708861c0 33.701266 20.739241 62.217722 54.440506 72.587342-2.592405 7.777215-2.592405 18.146835-2.592405 23.331645V829.56962c0 41.478481 33.701266 75.179747 75.179747 75.179747h518.481013c41.478481 0 75.179747-33.701266 75.179747-75.179747V534.035443c0-10.36962 0-18.146835-2.592405-23.331646 31.108861-10.36962 54.440506-38.886076 54.440506-72.587341v-98.511393c-2.592405-38.886076-36.293671-72.587342-80.364557-72.587341m-44.070886 583.291139H777.721519v-337.012658h238.501266c12.962025 0 20.739241 10.36962 20.73924 20.73924v292.941772c-2.592405 15.55443-15.55443 23.331646-20.73924 23.331646m-217.762026-575.513924c46.663291-54.440506 85.549367-82.956962 127.027849-93.326583 20.739241-7.777215 41.478481 0 54.440506 7.777216 12.962025 10.36962 12.962025 18.146835 12.962025 23.331645 2.592405 20.739241-20.739241 46.663291-33.701266 57.032912l-160.729114 5.18481z m287.756963 72.587341V440.708861c0 12.962025-18.146835 20.739241-28.516456 20.73924h-285.164557v-137.397468h287.756962c12.962025 0 28.516456 2.592405 28.516456 18.146835m-365.529114 173.69114v337.012658h-235.908861c-12.962025 0-20.739241-10.36962-20.739241-20.739241V541.812658c0-12.962025 10.36962-20.739241 20.739241-20.73924l235.908861-5.18481zM508.111392 209.98481c0-7.777215 0-18.146835 10.369621-23.331645 12.962025-10.36962 31.108861-12.962025 54.440506-10.369621 44.070886 10.36962 82.956962 41.478481 129.620253 95.918988h-163.321519c-10.36962-10.36962-28.516456-31.108861-31.108861-57.032912m-90.734177 129.620253c0-12.962025 10.36962-23.331646 23.331646-23.331645h282.572152v137.397468H440.708861c-12.962025 0-23.331646-10.36962-23.331646-23.331645v-90.734178z" fill="#FFFFFF" opacity=".85" /></svg>