<?xml version="1.0" encoding="utf-8"?>
<!-- Generator: Adobe Illustrator 18.0.0, SVG Export Plug-In . SVG Version: 6.00 Build 0)  -->
<!DOCTYPE svg PUBLIC "-//W3C//DTD SVG 1.1//EN" "http://www.w3.org/Graphics/SVG/1.1/DTD/svg11.dtd">
<svg version="1.1" id="图层_1" xmlns="http://www.w3.org/2000/svg" xmlns:xlink="http://www.w3.org/1999/xlink" x="0px" y="0px"
	 viewBox="0 0 200 200" enable-background="new 0 0 200 200" xml:space="preserve">
<g>
	<g>
		<path fill="#A6ABCC" d="M100.2,37.6c5.8-4.6,11.7-9.1,17.4-13.7c1.4-1.1,2.6-1.3,4.2-0.7c21.4,7.8,42.9,15.4,64.4,23.2
			c3.4,1.2,3.7,2.5,1.2,5.1c-4.6,4.8-9.2,9.6-13.9,14.3c-1.1,1.1-1.3,1.9-0.5,3.4c3.8,6.9,7.4,13.9,11,20.8c1.3,2.4,1.1,3.1-1.4,4.4
			c-3.1,1.7-6.1,3.5-9.3,5c-1.4,0.7-1.8,1.6-1.8,3.1c0.1,13.2,0,37,0.1,50.2c0,2.2-0.7,3.4-2.7,4.3c-19.5,8.8-38.9,17.6-58.3,26.5
			c-1.4,0.7-2.7,0.7-4.2,0.2c-22.9-8.9-45.7-17.8-68.6-26.6c-3.2-1.2-3.2-1.3-3.2-4.8c0-13.7,0-38,0-51.6c0-1.5-0.4-2.2-1.8-2.8
			c-6.5-2.6-13-5.4-19.5-8.1c-2.8-1.2-3-2.6-0.7-4.6c6.6-5.7,13.3-11.5,20-17.2c1.1-1,1.3-1.6,0.5-2.9c-3.9-6.5-7.8-13-11.6-19.6
			c-1.6-2.6-1.3-3.5,1.6-4.6c20.6-8,41.1-16.1,61.7-24.1c2.4-0.9,2.9-0.8,4.3,1.6C92.7,24.6,96.4,31,100.2,37.6z M106.3,99
			c-0.5,0.3-0.8,0.4-1,0.6c-7.1,5.6-14.3,11.1-21.4,16.7c-1.7,1.4-3.1,1.5-5.1,0.7c-11.8-5-23.7-9.9-35.5-14.8
			c-1.4-0.6-2.9-1.2-4.5-1.8c0,0.7-0.1,1-0.1,1.4c0,13,0,36.6,0,49.6c0,1.5,0.7,1.9,1.8,2.3c19,7.3,37.9,14.7,56.9,22
			c2.9,1.1,5.8,2.2,8.8,3.4C106.3,155.9,106.3,122.3,106.3,99z M163.9,67.1c-0.7-0.3-1.1-0.5-1.5-0.7c-20.3-7.6-40.7-15.3-61-22.8
			c-1-0.4-2.5-0.4-3.5,0.1c-18,7.4-36,15-53.9,22.5c-0.4,0.2-0.8,0.5-1.3,0.7c0.2,0.2,0.3,0.2,0.3,0.2c21.4,8.3,42.9,16.6,64.3,24.8
			c0.7,0.3,1.8,0.1,2.6-0.2c17.2-7.8,34.4-15.6,51.6-23.4C162.1,67.9,162.9,67.5,163.9,67.1z M110.9,103c-0.1,0-0.2,0.1-0.3,0.1
			c0,21.6,0,53.8,0,75.6c1-0.4,1.9-0.8,2.7-1.1c17.4-7.9,34.9-15.9,52.3-23.7c1.5-0.7,1.9-1.4,1.9-3c-0.1-11.7,0-34,0-45.6
			c0-0.8,0-1.7,0-2.7c-0.9,0.5-1.5,0.7-2.1,1c-12.7,6.9-25.4,13.8-38.1,20.7c-2.4,1.3-3.1,1.1-4.5-1.2c-0.9-1.5-1.8-3.1-2.8-4.6
			C117,113.3,113.9,108.2,110.9,103z M16.9,86.6c0.7,0.3,1.1,0.5,1.5,0.7c20.4,8.5,40.7,17,61.1,25.5c1.1,0.5,1.8,0.3,2.7-0.4
			c3.5-2.8,7.2-5.5,10.7-8.3c3.7-2.8,7.4-5.7,11.2-8.6c-0.7-0.3-1.2-0.5-1.7-0.7c-6.3-2.5-12.6-4.9-19-7.4c-15-5.8-30-11.6-45-17.4
			c-0.7-0.3-1.8-0.3-2.3,0.1C29.9,75.4,23.5,80.9,16.9,86.6z M168.6,69.6c-19.1,8.7-38.2,17.4-57.3,26.1c5,8.4,9.8,16.5,14.6,24.7
			c18.2-9.9,36.1-19.6,54-29.3C176.1,83.8,172.4,76.7,168.6,69.6z M96.6,39.7c-3.8-6.5-7.4-12.8-11-19.1
			c-20.1,7.8-40,15.6-60.1,23.4c0.4,0.8,0.7,1.3,1.1,1.9c3.3,5.5,6.6,11.1,9.8,16.7c0.8,1.4,1.5,1.6,2.9,1
			C52.2,58.1,65.1,52.8,78,47.4C84.1,44.9,90.2,42.3,96.6,39.7z M183.3,49.7c-0.6-0.3-1.1-0.4-1.5-0.6c-18.5-6.6-37.1-13.1-55.5-20
			c-4.3-1.6-7.5-1.6-10.9,1.7c-3.5,3.3-7.5,6-11.6,9.1c0.6,0.3,1,0.4,1.3,0.6c6.1,2.3,12.2,4.6,18.3,6.9
			c14.6,5.5,29.2,10.9,43.8,16.5c1.3,0.5,2.1,0.3,3.1-0.7c1.6-1.8,3.3-3.4,5-5.2C177.9,55.3,180.5,52.5,183.3,49.7z"/>
		<path fill="#D2D7FF" d="M106.3,99c0,23.3,0,56.9,0,80.1c-3-1.2-5.9-2.2-8.8-3.4c-19-7.3-37.9-14.7-56.9-22
			c-1.1-0.4-1.9-0.8-1.8-2.3c0.1-13,0-36.6,0-49.6c0-0.4,0-0.8,0.1-1.4c1.6,0.6,3,1.2,4.5,1.8C55.1,107.1,67,112,78.8,117
			c2,0.8,3.4,0.7,5.1-0.7c7.1-5.6,14.3-11.1,21.4-16.7C105.5,99.5,105.7,99.3,106.3,99z"/>
		<path fill="#B3B8E0" d="M163.9,67.1c-1,0.5-1.7,0.9-2.5,1.2c-17.2,7.8-34.4,15.6-51.6,23.4c-0.8,0.3-1.9,0.5-2.6,0.2
			c-21.5-8.2-42.9-16.5-64.3-24.8c-0.1,0-0.1-0.1-0.3-0.2c0.5-0.3,0.9-0.5,1.3-0.7c18-7.5,35.9-15,53.9-22.5c1-0.4,2.5-0.4,3.5-0.1
			c20.4,7.5,40.7,15.2,61,22.8C162.8,66.6,163.2,66.8,163.9,67.1z"/>
		<path fill="#D2D7FF" d="M110.9,103c3.1,5.1,6.1,10.3,9.2,15.4c0.9,1.5,1.8,3.1,2.8,4.6c1.4,2.3,2.2,2.5,4.5,1.2
			c12.7-6.9,25.4-13.8,38.1-20.7c0.6-0.3,1.2-0.6,2.1-1c0,1.1,0,1.9,0,2.7c0,11.7,0,34,0,45.6c0,1.6-0.4,2.3-1.9,3
			c-17.5,7.9-34.9,15.8-52.3,23.7c-0.8,0.4-1.7,0.7-2.7,1.1c0-21.8,0-54.1,0-75.6C110.6,103.1,110.8,103.1,110.9,103z"/>
		<path fill="#F8FAFF" d="M16.9,86.6c6.6-5.7,12.9-11.2,19.3-16.6c0.5-0.4,1.6-0.4,2.3-0.1c15,5.8,30,11.6,45,17.4
			c6.3,2.5,12.6,4.9,19,7.4c0.5,0.2,0.9,0.4,1.7,0.7c-3.9,3-7.5,5.8-11.2,8.6c-3.6,2.8-7.2,5.5-10.7,8.3c-0.9,0.7-1.6,0.9-2.7,0.4
			c-20.4-8.5-40.7-17-61.1-25.5C18,87.1,17.6,86.9,16.9,86.6z"/>
		<path fill="#F3F5FF" d="M168.6,69.6c3.8,7.2,7.5,14.2,11.3,21.5c-17.9,9.7-35.8,19.4-54,29.3c-4.9-8.2-9.7-16.3-14.6-24.7
			C130.4,86.9,149.5,78.3,168.6,69.6z"/>
		<path fill="#F8FAFF" d="M96.6,39.7c-6.4,2.6-12.5,5.2-18.6,7.7c-12.9,5.4-25.8,10.7-38.6,16.1c-1.5,0.6-2.1,0.4-2.9-1
			c-3.2-5.6-6.6-11.1-9.8-16.7c-0.3-0.6-0.6-1.1-1.1-1.9c20-7.8,39.9-15.5,60.1-23.4C89.2,26.9,92.8,33.2,96.6,39.7z"/>
		<path fill="#F8FAFF" d="M183.3,49.7c-2.7,2.8-5.3,5.5-8,8.2c-1.7,1.7-3.4,3.4-5,5.2c-0.9,1.1-1.7,1.2-3.1,0.7
			c-14.6-5.5-29.2-11-43.8-16.5c-6.1-2.3-12.2-4.6-18.3-6.9c-0.4-0.1-0.7-0.3-1.3-0.6c4-3.1,8.1-5.8,11.6-9.1
			c3.5-3.3,6.6-3.3,10.9-1.7c18.4,6.9,37,13.4,55.5,20C182.2,49.3,182.6,49.5,183.3,49.7z"/>
	</g>
</g>
</svg>
