<?xml version="1.0" encoding="utf-8"?>
<!-- Generator: Adobe Illustrator 22.0.0, SVG Export Plug-In . SVG Version: 6.00 Build 0)  -->
<svg version="1.1" id="图层_1" xmlns="http://www.w3.org/2000/svg" xmlns:xlink="http://www.w3.org/1999/xlink" x="0px" y="0px"
	 viewBox="0 0 200 200" style="enable-background:new 0 0 200 200;" xml:space="preserve">
<style type="text/css">
	.st0{fill:#ADADAD;}
</style>
<g>
	<g>
		<path class="st0" d="M74.5,157.3c0,2.5,2,4.5,4.5,4.5s4.5-2,4.5-4.5s-2-4.5-4.5-4.5S74.5,154.8,74.5,157.3L74.5,157.3z"/>
		<path class="st0" d="M135.2,157.3c0,2.5,2,4.5,4.5,4.5s4.5-2,4.5-4.5s-2-4.5-4.5-4.5S135.2,154.8,135.2,157.3z"/>
		<path class="st0" d="M149.9,140.3H82.5c0,0-5.3,0-9.3-0.6c-2.8-0.4-5.5-4.7-6.8-13.2l-9.7-65.6c0-0.1-1.8-11.4-2.3-14.1
			c-1-6.3-3.9-8.4-8-8.4c-2,0-3.6,0-3.6,0l0,0c-2.6,0-4.7,0.5-4.7,3.9c0,2.5,4,2.5,6.9,2.5c0,0,1.9-0.4,3.4,1.3s2.7,11.9,3.1,14.5
			s9.8,67.1,9.8,67.1v0.1c2.4,16.2,8.9,17.5,10,17.7c0.1,0,0.2,0,0.4,0.1l3.6,0.3l74.3-0.1c2.6,0,4.8-0.6,4.7-2.9
			C154.2,140.6,152.4,140.3,149.9,140.3z"/>
		<path class="st0" d="M161.2,74.1c1.2-5.4,1.3-9.7-1.1-13.1c-3.5-5-9-4.7-9.6-4.8c-0.1,0-0.2,0-0.3,0l-82.9,0.3
			c-2.6,0-4.1,0.3-4.1,2.9c0,1.8,2.5,2.3,5.1,2.3c0,0,80-0.3,81.2-0.3c2.8,0,4.6,1.4,5.6,2.4c1.2,1.3,2.1,3.5,1.7,6
			c0,0.2-0.8,4.5-1.2,6.1c0,0-6.4,34.9-6.4,35.2c-1.8,10.7-6.5,9.6-9.8,10.2l-60.2,5c-2.6,0.2-4.7,0-4.5,2.6
			c0.2,2.4,2.4,2.6,4.8,2.6c0.1,0,0.3,0,0.4,0l61.5-5.2c0.8-0.1,4.9-0.8,6.7-1.9c2.2-1.4,3.6-2.9,4.7-6.9
			C153.1,116.6,161.2,74.1,161.2,74.1z"/>
	</g>
</g>
</svg>
