<?xml version="1.0" encoding="utf-8"?>
<!-- Generator: Adobe Illustrator 18.0.0, SVG Export Plug-In . SVG Version: 6.00 Build 0)  -->
<!DOCTYPE svg PUBLIC "-//W3C//DTD SVG 1.1//EN" "http://www.w3.org/Graphics/SVG/1.1/DTD/svg11.dtd">
<svg version="1.1" id="图层_1" xmlns="http://www.w3.org/2000/svg" xmlns:xlink="http://www.w3.org/1999/xlink" x="0px" y="0px"
	 viewBox="0 420 1080 1080" enable-background="new 0 420 1080 1080" xml:space="preserve">
<metadata><?xpacket begin="﻿" id="W5M0MpCehiHzreSzNTczkc9d"?>
<x:xmpmeta xmlns:x="adobe:ns:meta/" x:xmptk="Adobe XMP Core 5.6-c011 79.156289, 2014/03/31-23:39:12        ">
   <rdf:RDF xmlns:rdf="http://www.w3.org/1999/02/22-rdf-syntax-ns#">
      <rdf:Description rdf:about=""
            xmlns:xmp="http://ns.adobe.com/xap/1.0/"
            xmlns:xmpGImg="http://ns.adobe.com/xap/1.0/g/img/"
            xmlns:xmpTPg="http://ns.adobe.com/xap/1.0/t/pg/"
            xmlns:stDim="http://ns.adobe.com/xap/1.0/sType/Dimensions#"
            xmlns:xmpG="http://ns.adobe.com/xap/1.0/g/"
            xmlns:dc="http://purl.org/dc/elements/1.1/">
         <xmp:CreatorTool>Adobe Illustrator CC 2014 (Windows)</xmp:CreatorTool>
         <xmp:CreateDate>2018-03-06T10:55:36+08:00</xmp:CreateDate>
         <xmp:Thumbnails>
            <rdf:Alt>
               <rdf:li rdf:parseType="Resource">
                  <xmpGImg:width>184</xmpGImg:width>
                  <xmpGImg:height>256</xmpGImg:height>
                  <xmpGImg:format>JPEG</xmpGImg:format>
                  <xmpGImg:image>/9j/4AAQSkZJRgABAgEASABIAAD/7QAsUGhvdG9zaG9wIDMuMAA4QklNA+0AAAAAABAASAAAAAEA&#xA;AQBIAAAAAQAB/+4ADkFkb2JlAGTAAAAAAf/bAIQABgQEBAUEBgUFBgkGBQYJCwgGBggLDAoKCwoK&#xA;DBAMDAwMDAwQDA4PEA8ODBMTFBQTExwbGxscHx8fHx8fHx8fHwEHBwcNDA0YEBAYGhURFRofHx8f&#xA;Hx8fHx8fHx8fHx8fHx8fHx8fHx8fHx8fHx8fHx8fHx8fHx8fHx8fHx8fHx8f/8AAEQgBAAC4AwER&#xA;AAIRAQMRAf/EAaIAAAAHAQEBAQEAAAAAAAAAAAQFAwIGAQAHCAkKCwEAAgIDAQEBAQEAAAAAAAAA&#xA;AQACAwQFBgcICQoLEAACAQMDAgQCBgcDBAIGAnMBAgMRBAAFIRIxQVEGE2EicYEUMpGhBxWxQiPB&#xA;UtHhMxZi8CRygvElQzRTkqKyY3PCNUQnk6OzNhdUZHTD0uIIJoMJChgZhJRFRqS0VtNVKBry4/PE&#xA;1OT0ZXWFlaW1xdXl9WZ2hpamtsbW5vY3R1dnd4eXp7fH1+f3OEhYaHiImKi4yNjo+Ck5SVlpeYmZ&#xA;qbnJ2en5KjpKWmp6ipqqusra6voRAAICAQIDBQUEBQYECAMDbQEAAhEDBCESMUEFURNhIgZxgZEy&#xA;obHwFMHR4SNCFVJicvEzJDRDghaSUyWiY7LCB3PSNeJEgxdUkwgJChgZJjZFGidkdFU38qOzwygp&#xA;0+PzhJSktMTU5PRldYWVpbXF1eX1RlZmdoaWprbG1ub2R1dnd4eXp7fH1+f3OEhYaHiImKi4yNjo&#xA;+DlJWWl5iZmpucnZ6fkqOkpaanqKmqq6ytrq+v/aAAwDAQACEQMRAD8A9U4q7FXYq7FXYq7FXYq7&#xA;FXYq7FUFqeqwaesbSoz+oSBxp28a/PLsOA5LphOfCx7T9citr67uHV2juGLKopUfESK1Phmwy6Yy&#xA;jEDo0RyUSWVwTLNCkqghZFDAHY0IrmrlGjTkg2vyKXYq7FXYq7FXYq7FXYq7FXYq7FXYqsmmigia&#xA;WVuMaCrNuafdkoxMjQQTSEfUq3dosJV7WcSF5RuBwWvXoMtGH0yv6hTHi3HciLa8trkMYJBIEPFi&#xA;Olfnlc8co8wyEgeS65lMNvLMByMaM/Hx4itMEI2QO9SaDGtO8wajJfwpKyyRTOEMYUDjU0qKCu3v&#xA;myy6WAga5hx45DbKc1bkuxV2KtFVYUIBHvjapbp+kPb313cSFGSdiY1A3ALE71GZOXOJRiB0a4wo&#xA;kpnmM2OxV2KqF1eRwW004pJ6IPJQR1HY+GWQxmUgO9iZULXxTxyJG1QplUMikitCK5ExIJ8kgqmR&#xA;S7FXYq7FXYq7FXYq7FVK6dkt5GWL1mA2i/m9t8lAWRvSDyS6CQwwLZSW0cU92JWjhX+72WtH37+2&#xA;ZMhZ4gSRGt+rWDW1c0VpXqi3MclqLVkNOKU4t/lCmVZ6uweJlDlypGEAih6ZSzQkGk6dBN68MCrL&#xA;2bc0r4Amg+jLZZ5yFE7MRABF5UydirsVdirsVdirsVdiqSg6cuoXUvoSLEqsLqVv7pjXf4TWuZvr&#xA;4ALF9O9q2sr4PqX6YLmGT1pFrbzneMrx/Zp02yMuLw+YrqOqiuJN8xG12KuxV2Koe81Gzs1BuJAn&#xA;L7K7kn6BlmPFKfIMZSA5t2l7a3cZkt5A6jY9QQfcHfBkxygaITGQPJXyCXYq7FVjQQvKkzIDLHUI&#xA;/cctjkhIgV0KKX5FLsVQer3Utrp008VPUTjxqKjdgP45dggJTALGZoWt0W9mvLBZpqc+TAkCnQ4d&#xA;TjEJ0EY5WEdlDN2KuxV2KuxVp5EjQu7BUUVZjsAMIBJoKl6+YNJaT0xPQk0DEMF+8jLzpcgF01+J&#xA;FG3EEdzbvC5PpyChKneh8MphIxNjozIsLo0WONY12VAFUewFMBNm0hdgV2KuxV2KsS80wzrqAlYE&#xA;xOoEbdtuozbaKQ4K6uNmG6v5Shn9eaahEHDjXsWqCPuGQ18hQHVOEbphfeZLK1maEK0roaOVoAD4&#xA;VOY+PRykL5M5ZQEZp+pWt/GXhJquzo2zCuU5cMoGizjMFFZUydirsVUb36z9Ul+rf3/E+n06/Ttk&#xA;8dcQ4uSJXWzFr/8AxF9Uf65y+r7c68KdRTpv1zaYvB4vTzcaXHW63Tv0/wDVh9S5ehU0pwpXv1w5&#xA;vC4vVzWPFWzLLP1/qsX1j+/4D1On2qb9Ns1WSuI1ycmN1uq5BLsVdirsVSTzW8gsolBIjeT4yPYE&#xA;jM3QgcR9zTm5N3+naQmju6IgCpWKYfaZqfD8XepxxZshyUUyjHhRHl15X0mIyb0LKpP8oNBlerAG&#xA;Q0nF9KZZjNjsVU7p2jtppF2ZEZlPuBXJQFyAQeSU+Wb26uop/rEhkKMvEnruD/TMvWY4xIoNeKRP&#xA;NOswm1plVhxYBh4EVGEGlbVQoAUAAdAOmC1YvoV1Z2EtzHe/u7kNTmwJ6dQKA/25s9TCUwDHk4+M&#xA;gXavoJWbV7y5t142pBAFKCpYEbfQchqtscYn6k495EjkyHNe3uxV2KuxVCataS3eny28RAd+NOWw&#xA;2YH+GXYJiEwSxmLFLNGspbKxWGUgvyJPHcb4dRkE5WEY40EdlDN2KuxV2KuxVSurWG5haGZeSN1H&#xA;h7jJQmYmwgi0oXynaCSrTSNEDUJsD9/9mZh10q5C2rwQnUUUcUaxxqFRBRVHYDMIkk2W4BdgV2Ks&#xA;WudA1dUlla6V0UMzVd6kDfpTNpDVYyQK+5xjjl3oLStMvr1ZDbSrGEIDVZlrWtPsg5dnzRhXELYw&#xA;gTyZTpNnc2lp6VxL6snIkEEkAHsCc1efJGcrApyIRIG6Nylm7FUPc6dY3LBp4Vdh+10P3jLIZpR5&#xA;FiYg81WGGGGMRxIEQdFUUGRlIk2UgUvyKXYq7FXYq7FXYq7FXYq7FWpHWNGdtlUEseuw37YQLNKU&#xA;li8y2zX7oz/6KVURNxblz75mS0cuD+k0jKL8k7zCbnYq7FXYq7FVk0YlheImgdSpPzFMMTRtBCC0&#xA;fSf0dHIpk9RpCCTSgAHTxy/UZ/EI2qmMIcKYZjs3Yq7FXYq7FXYq7FXYq7FXYq7FXYq7FXYq7FUN&#xA;Hp8CXsl2PtyKFK7UFO4y05SYiLHhF2icqZOxV2KuxV2KuxV2KuxV2KuxV2KuxV2KuxVB60dRGjX5&#xA;0wA6l9Xl+og0p6/A+lXlt9unXJ464hxcr3QbrZ80T6P+dLTO0kWttIWPJg9wQT7ENT7s6AT0/wDR&#xA;+xwqn5q3lj81PO3lXV/q2rzXN3axOEvdPvSzSoO/BpPjRgOgrT2wZtHjyRuNA94WOWUTu+l7K8tr&#xA;2zgvLVxJbXMazQyDoyOAyn6Qc56USDRc0G1bAl2KuxV2KuxV2KuxV2KuxV2KuxV2KuxV2KuxV2Ku&#xA;xV2KuxV2KuxV4r/zkdoNqLXTNejQLcmU2c7gfbUqZI+XuvBqfPNv2XkNmPxcbUR6si/LnzVb6b+T&#xA;ttrF6Glj0yOZJEjoXIjmZY1HhsyjfKNVhMtQYjqzxyqFsf8A+hlLH/qwy/8ASQv/AFTy/wDko/zv&#xA;sYfmfJ3/AEMpY/8AVhl/6SF/6p4/yUf532L+Z8nf9DKWP/Vhl/6SF/6p4/yUf532L+Z8nf8AQylj&#xA;/wBWGX/pIX/qnj/JR/nfYv5nyUn/AOclkDHh5dLL2JvKH7hAcP8AJP8AS+z9q/mfJb/0Mv8A9+5/&#xA;0+/9m+P8k/0vs/aj8z5O/wChl/8Av3P+n3/s3x/kn+l9n7V/M+Tf/Qy//fuf9Pv/AF4x/kn+l9n7&#xA;V/M+T0LyF+ZOh+cYZRZq9tfW4DXFlLQsFJoHRhsy12r27jpmDqdJLFz5N0MgkyzMVsdirsVdirsV&#xA;dirsVdirsVdirsVdirzz8+bL6x+XlxNSv1O4gmr4Vf0f+ZuZ/Z0qyjzDTnHpSr/nH+S3v/I2oabd&#xA;Is8KXkiSQyAMhimiQ8SpqKE8ss7TBjkBHcxwbxpOJ/Jn5fQzyRHy1bHgxWtWFaGlcMZZSAeMsJSi&#xA;DVKR8oeQK7eW7WnzbJ/vf55Y8ce5r/CHkH/qW7X72x/e/wA8rxx7nf4Q8g/9S3a/e2P73+eV449z&#xA;v8IeQf8AqW7X72x/e/zyvHHud/hDyD/1Ldr97Y/vf55Xjj3O/wAIeQf+pbtfvbH97/PK8ce5B6p5&#xA;U/L4Wxiby5AomBXnFI8br/lKwruMsxRyk/WfkxlkiOjzH8pZHsvzVsoLN2aBpbm3JO5eIRyfap/q&#xA;hsydcLwm04T6g+oM5tznYq7FXYq7FXYq7FXYq7FXYq7FXYqxn8zLL655A12GleNpJNT/AIwfvfb+&#xA;TMjSSrLH3sMg9Jeaf8413lJdesiftLbzIPkZFb9a5se1Y/Sfe0aY83pGrpw1GYeJB+8A5VgNwDDK&#xA;PUUBLJ6cTycWbgpbioqxoK0A8cua2EWn5u+XpdMurqeN7e6tzRLFiC8lfs8TQD/W8MvOnlaLZP5b&#xA;1tNc0a31NIHt1nDUik3I4sVqD3BpscqnHhNJTGV/TieTiz8FLcFFWNBWgHjkVYPa/m55fk026ubi&#xA;OS2u7ZuK2DbySE/Z4mgH+tXpl508rRbJ/LetprmjW+ppA9us4akUm5HFitQe4NNjlU48JpKG8y3Y&#xA;t4JZj0t4XlNemwJ/41zI042a582Af84/6cbvz1JeOCRY2ssof/LkKxD71dsq7TnWOu8uRgHqfSGa&#xA;BzXYq7FXYq7FXYq7FXYq7FXYq7FXYqhtUtBe6Zd2Z6XMMkP/ACMQr/HJQlRBQRYfPX/OPd4YPPM9&#xA;u231mylQKf5kdH/Upze9pxvHfcXE059T2vX0439f5kB/WP4Zg6U+hOcepKpWdInaNPUdVJSOtORA&#xA;2FT0rmS0vELzyV5x106j5hlsBaz+pzWwMZjeSn2uEZG9Pf7XuczxljGo2h675WudSudAs5dStPqN&#xA;2U4vbAcAoU8VPD9ioFePbMPIADslNHLBGKjkwBIWtKnwrkFeH33krzlrr6l5gmsRbXHq8xYlODyU&#xA;+16aEfFQDqfte+Z4yxjUbQ9b8qXeo3WgWc2o2f1G74cXtuPCgQ8QQh+xUCvHtmHkAB2Sx38x730d&#xA;C1Nwd2RYVH+uQh/AnMvCNg1Hmq/8426bxsta1Nh/eSQ20beHpqzuPp9Rc13as94hzdOOZe0ZqHJd&#xA;irsVdirsVdirsVdirsVdirsVdirsVfM/kn/cN+dqWx+FY9Qu7SnQEOJI18O5BGdDqPXp78gXChtN&#xA;735jSksD+KsPuI/rms0h2LZqBuEnzMcd2KpT5j80aR5etFudRkKiQlYYkHKRyNyFG3TxJpk4QMjs&#xA;qA8s/mB5f8w3DWtm0sN0oLLBcKFZlHUrxZ1NPCtclPDKPNFslypLsVeVfmteU0iGIH4rm55Ef5Kq&#xA;xP4kZsoCmqPN6X+Rmm/U/wAvLOQji99LNcsPm/pqfpWMZoe0Z3lPk7HAKiz/ADBbXYq7FXYq7FXY&#xA;q7FXYq7FXYq7FXYq7FXzP51/3Dfna9yPhSPUbS7r0BD+nK3h3JBzodP69PXkQ4U9pvoLzGlbeJ/B&#xA;yPvH9manSHct2cbBIMz3Fdirzf8ANSwvItU0jXfqpvtOsT/pVvSqgK4f4tjQONq9NsycBFEdUFL9&#xA;DnPmn8wrPWtL09rHT7JP9JmoF5MFYfEV+Hk3ILTrTJSHBCid1esZiJUrp+FvI3gpp88lAWQg8ni3&#xA;5r3PK+sLWv8AdxPLT/jI3H/mXmyiwi+jfKOm/ozytpNgQA1taQpJT+cRjmfpapzls8+KZPm7OAoB&#xA;NsqZOxV2KuxV2KuxV2KuxV2KuxV2KuxV2KvnD/nIO0Nv56guV2+s2UUnIbfEjun6lGb/ALMleOvN&#xA;w9QPU9zv72O68s22osfgljhnrT/fij/mvNXp4kZeH3tuY+i2NHVbUdOR+Q/rm08CTh8YWHV4OyMf&#xA;nQfxyXgFHGpS67DGKsoUb7s4HT6MP5fzRxoKbzjpcX95d2sXb45kHXfuRkhpx3rxFAy/mLoSDfUL&#xA;b/YEt+quS/LheIpdd/mh5dKMhvTIO6pFJ29yo/Xk44QN1NlgkHr+dfP1lBBCTFczRxrGRUrbxmrs&#xA;1K9F5McOaYhAlnjjZAfWGcq7J2KuxV2KuxV2KuxV2KuxV2KuxV2KuxV2KvEf+cktNf8A3Camq/AP&#xA;WtpW8CeLxj6aPm47Kn9UXF1A5FOdI1nV9d/JJF8vKJ9ZsoYrJ4KAupt2VTxB2LekAy/1yuURj1Ny&#xA;2B3+bL6sdB5mPLf5yXjUFpqamo6kwCvTqSmbI6rCP4g4/hS7laP8p/zcuh+9tZVUjrNeRePSnqk/&#xA;hkDr8I6/YWQwy7kVD/zj95+nYmWSyhJJJMszkk/7CN+uVntPEO9PgSTK3/5xv8wNT6xq9pH4+mkk&#xA;n6xHkD2rHoCy/LnvTK3/AOcaoxQ3HmAnxWO1A/Eyn9WVntXuj9rL8t5pnb/844+Vl/3o1O+k/wCM&#xA;Zhj/AFpJlR7Vn0AT+XDMvJv5ceWPKXqPpcTvdSjhJeXDB5SnXiCAqqK/ygVzFz6qeX6uTbDGI8mU&#xA;ZjM3Yq7FXYq7FXYq7FXYq7FXYq7FXYq7FXYqkXnfypa+afLlzpE7em8lHtp6V9OZPsPTw7H2Jy7T&#xA;5jjmJBhOPEKfPFtp35reQr+4Wwt7u1L/AAyzQQ/WLaQL0apSSM9dqio9s3pngzAXR+wuIBOCM/5W&#xA;d+dH/LTc/wDSBB/1QyP5TT9w+Z/WnxJtr+Zn51MwVZ7pmOwAsICSf+RGP5TT+Xz/AGr4k1b/AB/+&#xA;e3jff9w2L/qhg/Laby/037V8TI7/AB/+e3jff9w2L/qhj+W03l/pv2r4mR3+P/z28b7/ALhsX/VD&#xA;H8tpvL/TftXxMiyTz3+eki8WOoAVr8Onop+9YBiNPpvL5/tXjyLF86fniGBDakSDsPqQP4GHD4Gm&#xA;/o/P9q8c3vvky61678r6fca/D6GryRk3URXgQeRCll/ZZkoSOxzSZ4xEyI/S5cCa35p1lLJ2KuxV&#xA;2KuxV2KuxV2KuxV2KuxV2KuxV2KoPWdUt9J0m81O5BMFlC88iruxEalqD3NMnjgZSER1QTQt5L5S&#xA;/P271bzRa6Zf6bFBZ38y29vJCztIjytxj512YciAaAePtmzzdmiMDIHcOPDPZp7Nmpcl2KuxV2Kv&#xA;D5/+cjpk1xli0uN9FWTiGLsLhowacx+xWm/GntXvm4HZY4efq+xxfzG/LZ7fG6yIroao4DKfEHcZ&#xA;py5TeKuxV2KuxV2KuxV2KuxV2KuxV2KuxV2KuxV2KqN7Z217Zz2d0gltrmNopoz0ZHBVgfmDhjIg&#xA;2EEWwDy3+R3lbQ9ej1dJ7i6a2f1LO3mKcEcdGYqoLFTuvTM7L2hOceHYNUcIBt6LmA3OxV2KuxV5&#xA;rP8AkJ5Om15tTaS4Fs8hmfTQyiIsTUqG48wntX6c2A7SyCNbX3tPgRu3pQAUAAUA2AHSma9udirs&#xA;VdirsVdirsVdirsVdirsVdirsVdirsVdirsVdirsVdirsVdirsVdirsVdirsVdirsVdirsVdirsV&#xA;dirsVdiq2X1eH7unL3wxrqgoN/0h3r/safwy4cDHdSb6539T8ckOHyRupkTd+X01yWyGiGPWuFVu&#xA;FXYq2AT0wK2BJ2r+OOyrwLjtz+iuDZO69Rfduf01/jkTwruiIvr9RypT/Kp/DK5cDIWisqZOxV2K&#xA;uxV2KuxV2KuxV2KuxV2KuxV2KuxV2KuxV2KuxV2KuxV2KuxV2KuxV2KuxV2KuxV2KuxV2KuxV2Ku&#xA;xV2KuxV2KuxV2KuxV2KuxV2KuxV2KuxV2KuxV2KuxV2KuxV2KuxV2KuxV2KuxV2KuxV2KuxV2Kux&#xA;V2KuxV2KuxV2KuxV2KuxV2KuxV2KuxV2KuxV2KuxV2KuxV2KuxV2KuxV2KuxV2KuxV2KuxV2KuxV&#xA;2KuxV2KuxV2KuxV2KuxV2KuxV2KuxV2KuxV2KuxV2KuxV2KuxV2KuxV2KuxV2KuxV2KuxV2KuxV2&#xA;KuxVjHmy8uILqIRyOqmFvhSSSMcmmjTl+7ZKkBjSu2Z2kgCDff5dxacppCWGpahGZZJL3jcs1u8l&#xA;sVV1Kv6UfFXJrUI6M+3V8syY4mgBtvv8z+uvcxjI97Wpz60NRv0kmSCC4gmCmRiHit1fg0qgEVIR&#xA;S4A337YcUYcMaFkEfE936FkTZRmhatrdzefV7541R4JWHpxFWSSJbct1Z68WuGWlOq5Vnw44xuPe&#xA;Ovfxfq+1lCRJ3/HJCW2oXTXqzzahcwPelkRPQWqRQ1KclaJvifkSae1emWSxjhoRB4fPqfixEjfN&#xA;M9Xa4XQUZbuSUtNEWnPO3Yp6g5KTAquoptsMowgeJy6Hz+9nL6WOQ3dw1xOI7iRmS8gSILeX8hCE&#xA;Qlgqv8Lj4mrz9+1MzZQFCx/Cf4Y+f42agd/j3lkOuXd5aG/lUTQq0ISOXmDbjnRBMa/FG0RPxKv2&#xA;hQ/LDwQjLhGx3+Pu87bZki12m31sNUNrZ3D3Ec8Kn95LIzI0Zbm4Wauzc1+zgyYzwXIVR7h+hYyF&#xA;0Eo/Ssi6g88+rXCBZfqduDDGDwJBeVl9PjQuu3eg98yfCHDQiOVnc/Lmw4t+acXFxXR2mW7mvybi&#xA;KKNlb6q3KWRIgvKNV+EGSp2zGjH11QjsfPlv1Zk7d6RWx1lrlA3rvGWvPh+vyiot5AtA3H9jce+Z&#xA;cuCun8P8I6hrF38+rMtLkWTTbWVefGWJJB6jF2o6hqFjueua3KKkR5t8eSJytk7FXYq7FXYq7FXY&#xA;q7FXYq7FUn1vRZ9SmjKSJAscbfvaF3ZyQVQqfh4cgGbue1MycGYQHf8Aj72ucLQM/lRmNoYIkhcS&#xA;xzXbm5ndVPINKkUTAoQeIAJp0HhlsdVzvfahsPhZYnHyRN55bikv57qCGNmli/3az0aYS+oOdKko&#xA;P5enbIQ1JEQCev2V96Tj3tuw0S8iuwZ3X6vFbzQpLG7evJJcyLJNM54oEJMYICk08cGTPEjbnYPk&#xA;K5BMYG27jy2r3trKtzcmOL1PULXMvIcloOJr9+MdTUSKHyCnHurXul3P1VLe1Z5VDl3aa7uYnrSg&#xA;Akiq5H+STTIwyi7P+5B+9Jjtt96VQeW9WiluX2PryCQAajfqRSNI6EjdvsVqd+3QDMiWpgQPL+hH&#xA;vaxjP4JTO60/UJbua6MdvMzQrawQyOwRUf4p2aiGvJgop4DqMojkiABuN7/UzMTdqGmaPq2n3Rka&#xA;aK/9RBF60pdHhRR8KIP3nJK+JDHuTksuaExVGP6fuRGBB71X9E3/AKlsJJRO3rrdXdyzEUZAQscU&#xA;VCAvb7XuanI+LGjW21AfrKeErb3RL46dPZW8/OMz281osrMGiWOZJHQyA8iBw+HuOmGGePEJEdDf&#xA;ntX9qmBqlGbRNRksY7MwWJhhBEA/fVUkEVDdamu/jkhniJcVys+5BgarZONMt5LbTrW3kp6kMMcb&#xA;03FUUA0+7MbLLikSOpbIigicgl2KuxV2KuxV2KuxV2KuxV2KuxV2KuxV2KuxV2KuxV2KuxV2KuxV&#xA;2KuxV2KuxV2KuxV2KuxV2KpD/iu3b6+Ionma1b9ysaNVk9FJC7VpQBnofo8cy/yp9Nmr/WQ1eJzR&#xA;thrIu7F7hLaUzRqpe3oquSyhvh5sq0oe5yrJh4ZVYrvZRnYS/wDxa/P1P0bcfVPq31n1edrXhWnK&#xA;vr8eNPevtl35TpxC7r+L/iWPi+X3Iu+18WgsvVtZ42upOLxek8rIvFj1gEqcvhHwhq0yuGn4rojb&#xA;zr76ZGdUoQ+abeTU2tEeKRUnaFvTbm4Uxo8cgC8qqWYqfD6DkzpSI3vyv7WIyb0rz6+keoraCF3A&#xA;ma3kKqXPIQxzAgLXakoBJyEdPcbvpf2kfoZGe9NaP5g+v2EV01rLHG1uJ5JStE5cQWSNT+8elTuF&#xA;phzafgkRY51+OiIzsWlUvnlkuo7VraKOWUEj1HuBTsvwi25Hkenyy8aGxdn7P+KYeNvX4+5O4dcs&#xA;Fso7i9uYbYuShMpMClhuQvrCNjt7ZinBLiqIJ+37mwTFbqcPmGxZr0ySp6VvNFFC0ZLmUTwxyRlQ&#xA;teXIyEDj4ZI6eW23MH4USFExup6p5jSyuzarbySyhV41jlVC7uqgerwMdPj6167dcOLTcUbv7vu5&#xA;olko01aa/dSXfoXFkIV5TR80l9Q8oFDMKcE618cM9OALBvl071EzfJqPzBfXIiks9JuJIiR69ZLQ&#xA;MqtHzX4fX2b4lNGpscTp4xsSkL/zu/8Aqrxk8h93627zzNHbWN5PPbvaTW1AsVyY/jZlLKFMTyDc&#xA;DxxhpjKQANg91/ppTkoFD3nm70bpY4YBPACWlnQyMoQpzUkpGwFajJw0liyaPw/Wg5d0Zc64bVw0&#xA;yRCD0Vklf1o19J2NAJOZSiv+y3jtlUcHFyu77ufuZGdJdpvnWC7u7a3b6upnBB43MJIf1AiqF5VN&#xA;QenU9suyaIxBO+3kWEc1lGN5kJAEVo3KST0oTI6qrH1/QJJUOR8Xtlf5bvP4q2XiK+i61LqLMslu&#xA;sH7iG5TjIZKpO0igGqpQj0j45DNhEORvcj5V+tMJ2mmUM3Yq7FXYqwy50+ANqGnWRkjvHuPq1oIy&#xA;arE1naiR5GNTwUAManc0HXNnHIfTKX01Z/00qrzccx5gfjYIuwRbK2u4L25u/ryKglSMVZ1UhI5L&#xA;cRpUhtlP8vQ+OV5DxEGIjw/jY7so7De7Sr/D2otfFS03p+l9YGmmVeXp+ty4F/s8y/x0+zX4ffMj&#xA;8xHh6c64q8vu6d/Vr4Daa3gS7bR4UvLhUadi1vJVLr4Ek5uWNJAErxqv39Mx4enjNDlz6dPg2Het&#xA;0MZpoNVMzWs9rpszxy2ttx4vPcoqxKrcSeC0AYK1CaV7EZOgYVYMhzPcObG6Pkv1Czgj1WadLpZH&#xA;aQyOJbmWArIVEZAEEY24Iq9fngxzJgBX2A/eUyG6I0Cwt/UKfWQHiieKyjhmaQQxORy4c40pTitK&#xA;8shnyHu672Of2phFIYIGdJhJPM/KWdX5D1OQ9Qp8RNjPy2QdXanamZcpVWw5D7v64+5qA/H4DINP&#xA;Gonyxp8Fu8sk+oW8bTXkrchArxKZHqd+54L4+2YeTh8WRNVE8u/f8W2xvhHmhLHT4Y9Qu9Z0qFLt&#xA;LaZYFjQq3qW6WkCfuXPw842DAb7/ABLlk8hMRCZqxfx4jz9/6igR3JH42d5gjW7u5pTdSukEUUkl&#xA;rGTG0KtLEx9UR0evCr/F06jpXHTnhAFDcnfv2PL7lnuUZYf4ai1G3OnO91dSO9f9InmCBkJeRhI7&#xA;rvxAr75Xk8UxPFsPcB8GUeG9lKZraPV9US91SWwilnjkSBCsXqL9WiTmJSpenJCvwsOmSAJhHhiJ&#xA;be/qeiDzNmkRLW90K6stIg5wkm3gllkYKysgdpebhmYBm496nID05BKZ35/sSd40GNapaajfXmqX&#xA;Js4pWQKsrRhp1VlQRsFZSlSpWpUAkd8zcU4wjEWfu82mQJJNJvqd881vbT2qBLmC09Wa4iYMwjkY&#xA;Rxxq4oDzILb9OOY+LHRIPIy5fb9n6WyR7kBYW2rWGq2wmdomkljjjjaRi7iSUTzKqEfGsaycXYVF&#xA;d69suyShOBru7vKh8+jCIIKKkgnWFfr1vLaWlvKxe65cfha95hwUPJABvU0236ZWJC/SQSRy/wA1&#xA;lXf+N020AaHFdyw6TKbpPRjEtwsxnRBGzenEGqwB+NjSuY+o8QgGYrfur4s4cN7J7mI2uxV//9k=</xmpGImg:image>
               </rdf:li>
            </rdf:Alt>
         </xmp:Thumbnails>
         <xmpTPg:MaxPageSize rdf:parseType="Resource">
            <stDim:w>1080.000000</stDim:w>
            <stDim:h>1080.000000</stDim:h>
            <stDim:unit>Pixels</stDim:unit>
         </xmpTPg:MaxPageSize>
         <xmpTPg:NPages>1</xmpTPg:NPages>
         <xmpTPg:HasVisibleTransparency>False</xmpTPg:HasVisibleTransparency>
         <xmpTPg:HasVisibleOverprint>False</xmpTPg:HasVisibleOverprint>
         <xmpTPg:PlateNames>
            <rdf:Seq>
               <rdf:li>Cyan</rdf:li>
               <rdf:li>Magenta</rdf:li>
               <rdf:li>Yellow</rdf:li>
            </rdf:Seq>
         </xmpTPg:PlateNames>
         <xmpTPg:SwatchGroups>
            <rdf:Seq>
               <rdf:li rdf:parseType="Resource">
                  <xmpG:groupName>默认色板组</xmpG:groupName>
                  <xmpG:groupType>0</xmpG:groupType>
               </rdf:li>
            </rdf:Seq>
         </xmpTPg:SwatchGroups>
         <dc:format>image/svg+xml</dc:format>
      </rdf:Description>
   </rdf:RDF>
</x:xmpmeta>
                                                                                                    
                                                                                                    
                                                                                                    
                                                                                                    
                                                                                                    
                                                                                                    
                                                                                                    
                                                                                                    
                                                                                                    
                                                                                                    
                                                                                                    
                                                                                                    
                                                                                                    
                                                                                                    
                                                                                                    
                                                                                                    
                                                                                                    
                                                                                                    
                                                                                                    
                                                                                                    
                           
<?xpacket end="w"?>
	</metadata>
<g>
	<path id="椭圆_1_1_" fill="#E5EBFF" d="M540.1,1123.6c102.4,0,185.5,7.1,185.5,15.9c0,8.7-83.1,15.9-185.5,15.9
		s-185.5-7.1-185.5-15.9C354.6,1130.7,437.6,1123.6,540.1,1123.6z"/>
	<g>
		<path id="圆角矩形_2" fill="#B8C9FF" d="M538.8,437.3h4.1c2.5,0,4.6,2.1,4.6,4.6v43.5c0,2.5-2.1,4.6-4.6,4.6h-4.1
			c-2.5,0-4.6-2.1-4.6-4.6v-43.5C534.2,439.4,536.3,437.3,538.8,437.3z M518.8,457h43.7c2.5,0,4.6,2.1,4.6,4.6v4
			c0,2.5-2.1,4.6-4.6,4.6h-43.7c-2.5,0-4.6-2.1-4.6-4.6v-4C514.3,459.1,516.4,457,518.8,457L518.8,457z M394.6,545.6h10.8
			c1.7,0,3.3,1.4,3.3,3.3v69.2c0,1.7-1.4,3.3-3.3,3.3h-10.8c-1.7,0-3.3-1.4-3.3-3.3V549C391.3,547.1,392.8,545.6,394.6,545.6
			L394.6,545.6z M364.4,575.6h69.4c1.7,0,3.3,1.4,3.3,3.3v10.6c0,1.7-1.4,3.3-3.3,3.3h-69.4c-1.7,0-3.3-1.4-3.3-3.3V579
			C361.1,577.2,362.7,575.6,364.4,575.6L364.4,575.6z M793.4,574.2h7.8c2.5,0,4.6,2.1,4.6,4.6v66.5c0,2.5-2.1,4.6-4.6,4.6h-7.8
			c-2.5,0-4.6-2.1-4.6-4.6v-66.5C789,576.3,790.9,574.2,793.4,574.2z M763.9,603.6h66.9c2.5,0,4.6,2.1,4.6,4.6v7.6
			c0,2.5-2.1,4.6-4.6,4.6h-66.9c-2.5,0-4.6-2.1-4.6-4.6v-7.6C759.3,605.7,761.3,603.6,763.9,603.6L763.9,603.6z M576.6,643.1
			c2.5,0,4.6,2.1,4.6,4.6v27.5c0,2.5-2.1,4.6-4.6,4.6s-4.6-2.1-4.6-4.6v-27.5C572.2,645.2,574.2,643.1,576.6,643.1z M563,656.8h27.5
			c2.5,0,4.6,2.1,4.6,4.6l0,0l0,0c0,2.5-2.1,4.6-4.6,4.6l0,0H563c-2.5,0-4.6-2.1-4.6-4.6l0,0l0,0C558.3,658.9,560.4,656.8,563,656.8
			L563,656.8z"/>
		<g id="形状_2_1_">
			<path fill="#B8C9FF" d="M378.9,491.2c1.7,0,3.3,1.4,3.3,3.3c0,1.7-1.4,3.3-3.3,3.3c-1.7,0-3.3-1.4-3.3-3.3
				C375.5,492.6,377,491.2,378.9,491.2 M642.2,571.7c8.4,0,15.2,6.8,15.2,15.2s-6.8,15.4-15.4,15.4c-8.4,0-15.4-6.8-15.4-15.2
				C626.8,578.5,633.6,571.7,642.2,571.7L642.2,571.7L642.2,571.7 M197.2,599.6c7.6,0,13.7,6.2,13.7,13.7c0,7.6-6.2,13.8-13.8,13.8
				s-13.7-6.2-13.8-13.7c0-3.7,1.4-7.1,4-9.7C190,601.2,193.5,599.8,197.2,599.6L197.2,599.6 M378.9,478.4c-8.9,0-16,7.1-16,16
				s7.1,16,16,16l0,0c8.9,0,16-7.1,16-16l0,0C394.9,485.6,387.6,478.4,378.9,478.4L378.9,478.4z M888.1,526.7
				C887.9,526.7,887.9,526.7,888.1,526.7C887.9,526.7,887.9,526.7,888.1,526.7c-12.1,0-21.6,9.7-21.6,21.6s9.7,21.4,21.4,21.4l0,0
				c11.9,0,21.4-9.7,21.4-21.6l0,0l0,0l0,0C909.3,536.3,899.8,526.7,888.1,526.7L888.1,526.7z M642.2,559L642.2,559
				C642.2,559,642,559,642.2,559c-15.7,0-28.1,12.7-28.1,28.1c0,15.4,12.5,28,28.1,28c0,0,0,0,0.2,0c15.6,0,28.1-12.7,28-28.1l0,0
				C670.2,571.4,657.6,559,642.2,559L642.2,559z M197.2,586.9L197.2,586.9L197.2,586.9c-14.8,0-26.5,11.9-26.5,26.5
				s11.9,26.4,26.5,26.4c0,0,0,0,0.2,0c14.6,0,26.4-11.9,26.4-26.5C223.5,598.8,211.8,586.9,197.2,586.9L197.2,586.9z"/>
		</g>
		<path id="圆角矩形_3_1_" fill="#B8C9FF" d="M288.7,481.6c2.2,0,4.1,1.9,4.1,4.1l0,0v12.4c0,2.4-1.9,4.1-4.1,4.1
			c-2.4,0-4.1-1.9-4.1-4.1v-12.4C284.4,483.5,286.3,481.6,288.7,481.6z M315.3,496.9c1.1,1.9,0.5,4.4-1.4,5.6l0,0l-11,6.2
			c-2.1,1.1-4.6,0.5-5.7-1.6c-1.1-1.9-0.5-4.4,1.4-5.6l0,0l11-6.2C311.5,494.2,314.1,495,315.3,496.9L315.3,496.9z M315.3,527.4
			c-1.1,2.1-3.8,2.7-5.7,1.6l-11-6.2c-1.9-1.1-2.7-3.7-1.6-5.6l0,0c1.1-2.1,3.8-2.7,5.7-1.6l11,6.2
			C315.8,522.8,316.5,525.3,315.3,527.4L315.3,527.4L315.3,527.4z M288.7,542.6c-2.4,0-4.1-1.9-4.1-4.1l0,0v-12.4
			c0-2.4,1.9-4.1,4.1-4.1c2.4,0,4.1,1.9,4.1,4.1v12.4C292.8,540.7,290.9,542.6,288.7,542.6L288.7,542.6z M261.8,527.4
			c-1.1-1.9-0.5-4.4,1.4-5.6l0,0l11-6.2c2.1-1.1,4.6-0.5,5.7,1.6c1.1,1.9,0.5,4.4-1.4,5.6l0,0l-11,6.2
			C265.6,530.1,263.1,529.4,261.8,527.4z M261.8,496.9c1.1-2.1,3.8-2.7,5.7-1.6l11,6.2c1.9,1.1,2.7,3.7,1.6,5.6l0,0
			c-1.1,2.1-3.8,2.7-5.7,1.6l-11-6.2C261.5,501.5,260.7,498.9,261.8,496.9L261.8,496.9L261.8,496.9z M691.4,486.5
			c2.4,0,4.1,1.9,4.1,4.1V503c0,2.4-1.9,4.1-4.1,4.1c-2.4,0-4.1-1.9-4.1-4.1v-12.4C687.3,488.5,689.1,486.5,691.4,486.5L691.4,486.5
			L691.4,486.5z M718.1,501.8c1.1,1.9,0.5,4.4-1.4,5.7l0,0l-11,6.2c-2.1,1.1-4.6,0.5-5.7-1.6c-1.1-1.9-0.5-4.4,1.4-5.6l0,0l11-6.2
			C714.5,499.1,717,499.7,718.1,501.8z M718.1,532.3c-1.1,2.1-3.8,2.7-5.7,1.6l-11-6.2c-1.9-1.1-2.7-3.7-1.6-5.6l0,0
			c1.1-2.1,3.8-2.7,5.7-1.6l11,6.2C718.6,527.7,719.2,530.2,718.1,532.3C718.1,532.1,718.1,532.1,718.1,532.3z M691.4,547.4
			c-2.4,0-4.1-1.9-4.1-4.1v-12.5c0-2.4,1.9-4.1,4.1-4.1c2.4,0,4.1,1.9,4.1,4.1l0,0v12.4C695.6,545.6,693.8,547.4,691.4,547.4
			L691.4,547.4L691.4,547.4z M664.8,532.3c-1.1-2.1-0.5-4.4,1.6-5.7l0,0l11-6.2c2.1-1.1,4.6-0.5,5.7,1.6c1.1,2.1,0.5,4.4-1.6,5.7
			l0,0l-11,6.2C668.4,534.8,665.9,534.2,664.8,532.3L664.8,532.3z M664.8,501.8c1.1-2.1,3.8-2.7,5.7-1.6l11,6.2
			c2.1,1.1,2.7,3.7,1.6,5.7l0,0c-1.1,2.1-3.8,2.7-5.7,1.6l-11-6.2C664.3,506.2,663.6,503.7,664.8,501.8L664.8,501.8L664.8,501.8z"/>
	</g>
	<g enable-background="new    ">
		<path fill="#7791E5" d="M358.1,1331.8h2.7v18.3c-0.2,6-1,11-2.7,14.6c-1.6,3.3-4.4,6-8.3,7.9l-1.6-2.5c3.7-1.7,6.2-4.3,7.8-7.5
			c1.4-3.3,2.1-7.5,2.1-12.5V1331.8L358.1,1331.8z M368.4,1324.5v34.5h-2.9v-31.8h-12.4v31.8h-2.9v-34.5H368.4z M362.8,1361
			c3.2,3.2,5.9,6.4,7.9,9.4l-2.1,2.1c-1.9-3-4.6-6.2-7.8-9.5L362.8,1361z M380,1322.3c-0.5,2.5-1.3,5.2-2.2,8.1h18.4
			c0,18.7-0.3,30.5-1,35.1c-0.6,4.4-3,6.8-7.1,6.8c-1.4,0-4,0-7.6-0.2l-0.8-2.7c3,0.2,5.6,0.2,7.8,0.2c2.7,0,4.1-1.6,4.8-4.6
			c0.6-3.8,1-14.3,1-31.8h-16.7c-1.6,3.5-3.5,6.5-5.6,9.2l-1.7-2.4c3.8-4.9,6.5-11.1,7.9-18.3L380,1322.3z M384.9,1346.4
			c1.9,4.1,3.7,9.1,5.6,14.6l-2.5,1.3c-0.5-1.3-0.8-2.7-1.3-4.1c-4.4,1.1-9.4,1.9-15.1,2.4l-0.5-2.5c2.4-2.2,5.2-8.7,8.4-19.2l2.7,1
			c-2.5,7.8-5.1,13.8-7.6,18.1c4.3-0.5,8.1-1.1,11.1-1.9c-1.3-3.3-2.4-6.2-3.3-8.3L384.9,1346.4z"/>
		<path fill="#7791E5" d="M408.6,1336.9c-0.6,2.9-1.6,5.7-2.7,8.4l-2.5-0.8c2.4-5.9,3.7-12.1,4.1-18.7l2.7,0.2
			c-0.2,2.4-0.5,5.1-1,7.9h4.6V1322h3v11.9h5.1v2.9h-5.1v14.6c1.6-0.6,3.2-1.6,4.9-2.5v2.9c-1.9,1-3.5,1.9-4.9,2.5v18.4h-3v-17
			c-3,1.3-6.2,2.4-9.2,3.5l-0.8-3c3.5-1,6.8-2.1,10-3.3V1337L408.6,1336.9L408.6,1336.9z M432.4,1322.8c-0.8,3.5-1.4,6.4-2.2,8.6
			h21.9c0,17.9-0.3,29.1-0.8,33.5c-0.6,5.1-3.5,7.5-8.9,7.5c-0.8,0-2.1,0-4.1-0.2l-0.6-2.7c1.7,0.2,3.2,0.2,4.4,0.2
			c3.7,0,5.7-1.9,6.4-5.7c0.3-3.3,0.6-13.2,0.8-29.7h-4.8c-1.3,9.5-3,17-5.2,22.4c-2.5,5.7-6.4,11-11.3,15.6l-1.9-2.4
			c4.8-4.3,8.3-9.1,10.5-14.3c2.2-5.2,4-12.4,5.1-21.4h-5.1c-2.2,12.2-6.5,21.1-12.9,26.7l-1.9-2.2c5.9-5.1,10-13.3,12.1-24.5h-4.8
			c-1.4,3.7-3.2,6.7-5.2,9.1l-2.2-1.9c3.7-4.6,6.4-11.1,7.8-19.5L432.4,1322.8z"/>
		<path fill="#7791E5" d="M461.8,1329.6h13.3c1.4-3.2,2.5-5.7,3.2-7.8l3,0.6c-1.1,2.7-2.1,4.9-3,7h28.9v3h-30.3
			c-2.7,5.1-5.6,9.5-8.9,13.5h15.9v-8.7h3v8.7h17.5v2.9h-17.5v9.1h21.4v3h-21.4v12.2h-3v-12.2H461v-3h22.9v-9.1h-19.1l-0.6-2.9
			c3.5-3.7,6.7-8.1,9.5-13.5h-11.8v-2.9h-0.1V1329.6z"/>
		<path fill="#7791E5" d="M538.6,1349.6H521v-25.3h38.1v25.3h-17.5v7.3h20.5v2.9h-20.5v7.9h22.7v3h-48.6v-3h22.9v-7.9h-20.5v-2.9
			h20.5L538.6,1349.6L538.6,1349.6z M538.6,1327.2H524v8.4h14.6V1327.2z M523.9,1338.5v8.4h14.6v-8.4H523.9z M556.1,1335.6v-8.4
			h-14.6v8.4H556.1z M541.5,1346.7h14.6v-8.4h-14.6V1346.7z"/>
		<path fill="#7791E5" d="M572.8,1336.4c3.7,2.7,6.7,5.6,9.2,8.4l-2.1,2.2c-2.2-2.5-5.2-5.4-9.2-8.4L572.8,1336.4z M583.3,1352.5
			c-2.4,6.7-5.2,13.3-8.6,19.7l-3-1.3c3.5-6.5,6.4-13,8.7-19.5L583.3,1352.5z M574.4,1323.1c3.8,2.7,7.1,5.6,9.8,8.4l-2.1,2.1
			c-2.4-2.7-5.7-5.4-9.8-8.4L574.4,1323.1z M587.3,1349.4v-2.9h28.9v2.7c-2.4,5.6-6,10.2-11,14.1c4.6,3,10,5.4,16.4,7l-1.4,2.7
			c-7-1.9-12.7-4.6-17.3-7.9c-4.6,3.2-10.3,5.7-16.8,7.6l-1.4-2.7c6.4-1.7,11.6-4.1,15.9-6.8c-4.4-3.8-7.6-8.4-9.7-13.8
			L587.3,1349.4L587.3,1349.4z M592.6,1324.5h18.9v12.4c0,1.3,0.8,1.9,2.4,1.9h6.4v2.9h-6.8c-3.2,0-4.8-1.4-4.8-4.3v-10h-13v2.9
			c0,5.9-2.9,10.5-8.7,13.8l-2.1-2.2c5.2-2.7,7.8-6.4,7.8-11.3L592.6,1324.5L592.6,1324.5z M612.7,1349.4h-19.2
			c2.1,4.8,5.1,8.9,9.2,12.2C607.3,1358.2,610.6,1354,612.7,1349.4z"/>
		<path fill="#7791E5" d="M642,1356.4c-3.8,5.1-8.4,9.7-13.8,13.5l-1.9-2.4c5.4-3.7,9.8-7.9,13.5-12.9L642,1356.4z M628.1,1329.1
			h13.8c1.3-2.9,2.4-5.6,3.2-7.6l3,0.6c-1,2.4-1.9,4.8-3,7H674v3h-30.3c-2.9,5.7-6,10.6-9.4,14.6H651v-8.7h3v8.7h17.9v2.7H654v18.4
			c0,3.2-1.6,4.8-4.8,4.8h-5.9l-0.6-2.9c2.4,0.2,4.3,0.2,5.4,0.2c1.9,0,2.9-1,2.9-2.9v-17.6h-19.9l-0.8-2.5c3.7-4,7-8.9,10-14.8
			h-12.4v-3L628.1,1329.1L628.1,1329.1z M663.2,1354.5c5.2,4.6,9.5,9.1,12.9,13.5l-2.2,2.2c-3-4.3-7.3-8.7-12.7-13.7L663.2,1354.5z"
			/>
		<path fill="#7791E5" d="M682.2,1324.7h49.4v3h-17v9.5h13.7v35.3h-3v-2.7h-36.5v2.7h-3v-35.3h13.3v-9.5h-16.8L682.2,1324.7
			L682.2,1324.7z M688.7,1366.9h36.5v-9.5h-8.7c-3.3,0-4.9-1.6-4.9-4.9v-12.2h-9.5v1.4c-0.2,8.7-3.2,15.1-9.2,19.1l-2.4-2.1
			c5.6-3.5,8.6-9.2,8.6-17v-1.4h-10.3L688.7,1366.9L688.7,1366.9z M702.1,1327.7v9.5h9.5v-9.5H702.1z M714.5,1340.1v11.8
			c0,1.7,1,2.7,2.7,2.7h7.9v-14.5H714.5z"/>
	</g>
	<g enable-background="new    ">
		<path fill="#7791E5" d="M241.3,1442.7c-0.2,5.6-0.8,10.8-2.1,15.9l-2.5-0.6c1.3-4.9,1.9-10,2.2-15.4L241.3,1442.7z M245,1432h3
			v50.3h-3V1432z M252.1,1441.2c1.4,3.3,2.9,7.5,4.1,12.4l-2.5,0.6c-1.1-4.1-2.4-8.3-4-12.2L252.1,1441.2z M256.6,1440.6h10.5v-8.7
			h3v8.7h11.8v16.7h4.9v3h-16.2c3.7,8.3,9.4,14.8,17.3,19.5l-2.1,2.4c-7.9-5.4-13.8-12.2-17.3-20.6c-2.4,9.4-7.5,16-15.1,20.3
			l-1.9-2.4c7.5-4,12.2-10.3,14.3-19.4h-12.1v-3h12.7c0.5-2.7,0.6-5.6,0.6-8.6v-5.2h-10.5L256.6,1440.6L256.6,1440.6z M270.1,1443.5
			v4.6c0,3-0.3,6.2-0.8,9.2h9.7v-13.8L270.1,1443.5L270.1,1443.5z"/>
		<path fill="#7791E5" d="M293.6,1459.5v-3h22.6v-14.8h-20.3v-3h20.3v-6.7h3v6.7h21v3h-21v14.8h6.2c2.2-4,4.3-8.1,5.9-12.5l3,1
			c-1.9,4.6-3.8,8.4-5.9,11.6h13.3v3h-19.2c4,6.7,11,12.7,20.8,17.9l-2.1,2.5c-10.2-6.2-17.2-12.9-21.1-20.5h-0.6v23h-3v-23h-0.8
			c-3.5,7.9-10.6,14.8-21.6,20.5l-1.7-2.7c10.5-5.1,17.5-11.1,20.8-17.8H293.6L293.6,1459.5z M303.6,1444.4c1.9,2.9,3.7,6,5.4,9.7
			l-2.5,1.3c-1.7-3.7-3.5-6.8-5.4-9.7L303.6,1444.4z"/>
		<path fill="#7791E5" d="M366.6,1457.3c-2.2,1.1-4.6,2.4-7.3,3.5v16.5c0,3.2-1.4,4.8-4.3,4.8h-4.8l-0.6-2.9
			c2.1,0.2,3.5,0.2,4.4,0.2c1.6,0,2.4-1,2.4-2.9V1462c-2.9,1.1-5.6,2.1-7.8,2.9l-0.8-3.2c3.2-0.8,6-1.7,8.7-2.7v-13.7h-7.9v-3h7.9
			V1432h3v10.3h7.1v3h-7.1v12.5c2.9-1.3,5.2-2.5,7.3-3.7v3h-0.2V1457.3z M395.6,1443.3l0.5,2.9l-17.6,3.3c0.3,3.8,0.8,7,1.4,9.7
			c0.6,2.5,1.1,4.8,1.7,6.5c4-3.8,7.5-8.3,10.2-13.5l2.5,1.4c-3.2,6-7,11.1-11.6,15.2c0.6,2.1,1.4,3.7,2.4,5.1
			c2.1,3.3,4.1,5.1,5.9,5.1c1.4-0.2,2.9-3.8,4.3-10.8l2.7,1.7c-0.8,3.2-1.7,5.9-2.7,8.1c-1.3,2.7-2.5,4-4.1,4
			c-2.5,0-4.9-1.7-7.5-5.2c-1.3-1.7-2.4-3.8-3.3-6.2c-3.8,2.9-7.9,5.2-12.5,6.8l-1.6-2.7c4.9-1.7,9.2-4.1,13-7.1
			c-0.8-2.5-1.4-4.6-1.9-6.5c-0.8-3-1.4-6.8-1.9-11.1l-7.8,1.4l-0.3-2.9l7.9-1.4c-0.5-4.8-0.6-9.8-0.6-15.2h3
			c0,5.6,0.2,10.5,0.6,14.6L395.6,1443.3z M385.9,1431.7c2.1,2.5,3.8,5.1,5.4,7.6l-2.7,1.3c-1.7-2.9-3.5-5.4-5.4-7.6L385.9,1431.7z"
			/>
		<path fill="#7791E5" d="M418.1,1432h3v9.7h8.6v2.9h-8.6v11.4c3.2-0.5,6.2-1.1,9.2-1.9v2.9c-8.4,1.7-17.2,3.2-26.4,4.3l-0.8-2.9
			c1.1-0.2,2.9-0.3,5.2-0.5v-20.6h3v20.2l6.5-1V1432H418.1z M404.8,1477.6h48.1v3h-48.1V1477.6z M410.8,1466.2h36.1v3h-36.1V1466.2z
			 M452.6,1439.3c-4.8,2.5-10.2,4.6-16.4,6.2v9.4c0,1.7,0.8,2.5,2.2,2.5h7.1c1.4,0,2.5-0.3,3.2-1c0.8-1,1.4-3.3,1.6-7.1l2.9,1
			c-0.3,4.6-1.1,7.6-2.4,8.7c-1,1-2.5,1.3-4.8,1.3h-8.7c-2.9,0-4.3-1.6-4.3-4.8v-23.3h3v10.5c5.2-1.4,10.2-3.3,14.5-5.7
			L452.6,1439.3z"/>
		<path fill="#7791E5" d="M460.8,1443.5H483v-5.9c-6,0.3-11.9,0.5-17.6,0.5l-1-2.7c15.4,0,28.1-1.1,38-3.3l1.4,2.5
			c-5.1,1.3-11.1,2.1-17.9,2.7v6.2H508v2.9h-18.7c4.1,4.9,10.8,8.7,20,11.4l-1.3,2.7c-10.3-3.5-17.6-8.3-21.9-14.1l0,0v12.5h14.6
			v23.7h-3v-3.2h-26.4v3.2h-2.7v-23.7h14.6v-12.5h-0.3c-3.7,5.7-10.8,10.6-21.6,14.8l-1.6-2.5c10-3.5,16.8-7.6,20.3-12.2h-19v-2.9
			L460.8,1443.5L460.8,1443.5z M471.5,1467.8h26.4v-6.2h-26.4V1467.8L471.5,1467.8z M471.5,1476.5h26.4v-6.2h-26.4V1476.5
			L471.5,1476.5z"/>
		<path fill="#7791E5" d="M516.3,1446.3H534v2.4c-3,12.2-8.9,21.6-17.5,28l-1.9-2.5c7.8-5.9,13.3-14.1,16.2-24.9h-14.6L516.3,1446.3
			L516.3,1446.3z M561.8,1442.7c-4.4,5.6-9.1,10-14,13.7c4.4,7.3,10.3,13.5,17.6,18.3l-1.9,2.9c-10.3-7.6-17.5-16.7-21.6-27.2v27.5
			c0,3-1.4,4.6-4.4,4.6h-7.1l-0.6-2.9c3.2,0.2,5.4,0.2,6.8,0.2c1.6,0,2.5-1,2.5-2.7v-45.3h3v11.4c1.1,3.8,2.7,7.5,4.6,11
			c4.6-3.8,8.9-8.1,12.7-13.2L561.8,1442.7z"/>
		<path fill="#7791E5" d="M586.5,1457.9c-1.6,1-3.3,1.7-5.4,2.7v17.8c0,2.7-1.4,4-4.1,4h-4.8l-0.6-2.9c2.1,0.2,3.5,0.2,4.4,0.2
			c1.4,0,2.1-0.6,2.1-2.1v-15.7c-2.1,1-4.3,1.7-6.7,2.5l-0.8-2.9c2.7-0.8,5.1-1.6,7.5-2.5v-13.7h-6.8v-3h6.8V1432h3v10.3h5.4v3h-5.4
			v12.4c1.9-1,3.7-1.9,5.4-2.9L586.5,1457.9L586.5,1457.9z M617.6,1435v22.6h-25.3v18.4c0,1.6,1,2.4,2.9,2.4h17.9
			c1.7,0,2.9-0.8,3.5-2.1c0.5-1.1,1-3.8,1.3-7.9l2.9,1c-0.3,3.8-0.8,6.5-1.3,8.3c-1,2.4-2.7,3.7-5.6,3.7H594c-3.2,0-4.8-1.4-4.8-4.3
			V1435H617.6L617.6,1435z M602,1438.1h-9.7v16.7h9.7V1438.1z M604.7,1454.7h9.8V1438h-9.8V1454.7z"/>
		<path fill="#7791E5" d="M674.4,1438.2v10.3h-3v-7.5h-40.5v7.5h-3v-10.3h22.4c-0.8-2.4-1.6-4.3-2.5-6l3.2-0.5
			c1,1.9,1.6,4.1,2.4,6.7h21.1v-0.2H674.4z M668.4,1454.7c-7.6,3.8-17.2,6.8-28.6,9.2v10.8c0,2.2,1,3.2,3,3.2h20.5
			c2.2,0,3.8-0.3,4.8-1.1c1.3-1.1,2.1-4.1,2.4-9.1l2.9,1c-0.5,5.7-1.6,9.2-3.2,10.6c-1.3,1.1-3.5,1.6-6.5,1.6h-21.9
			c-3.3,0-5.1-1.9-5.1-5.6v-29.1h3v14.5c10.5-2.2,19.4-5.1,26.5-8.6L668.4,1454.7z"/>
		<path fill="#7791E5" d="M682.1,1445.8h6.5v-14h3v14h6v2.9h-6v18.6c1.6-0.5,3.5-1.3,6-2.2v3c-4.6,1.9-9.7,3.5-15.1,4.6l-0.8-3
			c2.2-0.5,4.4-1,6.8-1.6v-19.4H682L682.1,1445.8L682.1,1445.8z M711.3,1475.1c-3.3,2.9-7.3,5.4-12.1,7.6l-1.7-2.2
			c4.6-1.9,8.4-4.3,11.8-7.1L711.3,1475.1z M699.4,1436.3h14.1c0.2-1.6,0.3-3.2,0.5-4.6l3,0.3l-0.5,4.3h14v2.5H716
			c-0.2,1.3-0.5,2.7-0.8,4.3H727v25.9h5.2v2.9h-34.8v-2.9h5.4v-25.9h9.5c0.5-2.1,0.6-3.5,0.8-4.3h-13.7V1436.3L699.4,1436.3
			L699.4,1436.3z M705.7,1449.8h18.6v-4.3h-18.4v4.3H705.7z M705.7,1456.2h18.6v-4.1h-18.4v4.1H705.7z M705.7,1462.5h18.6v-4.1
			h-18.4v4.1H705.7z M705.7,1469h18.6v-4.3h-18.4v4.3H705.7z M720.7,1473.5c4,1.9,7.5,4.3,11,7l-1.9,2.1c-3.7-3-7.3-5.4-11-7.5
			L720.7,1473.5z"/>
		<path fill="#7791E5" d="M739.2,1446c4,3,7.1,6,10,9.2l-2.2,2.1c-2.5-3-5.9-6-9.8-9.2L739.2,1446z M749.7,1461.6
			c-2.5,7.1-5.4,14-8.6,20.5l-2.9-1.3c3.5-6.7,6.4-13.5,8.7-20.3L749.7,1461.6z M740.7,1432.3c3.7,3,6.7,6,9.1,9.1l-2.2,2.2
			c-2.1-2.7-5.1-5.7-9.1-9.1L740.7,1432.3z M751,1446.8h36.2v2.9h-11.1v6.8h9.2v21.1c0,3-1.4,4.6-4.3,4.6h-4.8l-0.8-2.7l4.6,0.2
			c1.6,0,2.4-1,2.4-2.7v-17.8h-6.5c0,1.1,0,2.1-0.2,3.2c1.7,2.4,3.3,4.9,4.9,7.6l-1.4,2.1c-1.3-2.9-2.5-5.2-3.8-7.3
			c-1,5.1-3,9.7-6.4,13.8l-2.1-1.7c4.1-5.1,6.4-11.1,6.4-17.6h-8.1c0,1.1-0.2,1.9-0.2,2.4c1.7,2.4,3.3,4.6,4.8,6.8l-1.4,2.1
			c-1.4-2.7-2.7-4.8-3.7-6.5c-1,4.3-2.7,8.1-5.4,11.4l-2.1-1.7c3.3-4.3,5.1-9.2,5.4-14.6h-6.5v23.2h-2.9v-25.9h9.4v-6.8H751V1446.8
			L751,1446.8z M752.3,1436.8h8.6v-4.6h3v4.6h10.6v-4.6h3v4.6h9.1v2.9h-9.1v4.3h-3v-4.3h-10.6v4.3h-3v-4.3h-8.6V1436.8z
			 M765.5,1456.3h7.9v-6.8h-7.9V1456.3z"/>
		<path fill="#7791E5" d="M809.6,1436.8v39.2h-3v-3.3h-8.3v4.6h-3v-40.5L809.6,1436.8L809.6,1436.8z M798.5,1469.8h8.3v-30.2h-8.3
			V1469.8z M839.8,1434.7v24.1h-21.9v16.2c0,2.4,1.1,3.7,3.5,3.7h14c1.6,0,2.5-0.8,3.3-2.2c0.5-1.1,0.8-4,1.1-8.3l2.9,1
			c-0.3,4-0.6,6.7-1.3,8.6c-1,2.5-2.7,3.8-5.2,4h-15.7c-3.7,0-5.4-1.9-5.4-5.7V1435h24.8L839.8,1434.7L839.8,1434.7z M825.8,1437.6
			H818v18.4h7.8V1437.6z M828.7,1456h8.3v-18.4h-8.3V1456z"/>
	</g>
	<g>
		<path id="形状_3" fill="#C2DAFF" d="M669.7,950l-211.9,16.7L436,780.4l242.2-0.5l20.5,2.4L669.7,950z"/>
		<path id="形状_3_拷贝_2" fill="#9EBEFF" d="M652.5,936.3l28.3-156.1l17.9,2.1l-29,167.7l-211.9,16.7l-1-14.9L652.5,936.3z"/>
		<path id="形状_3_拷贝" fill="#4156A3" d="M460.2,1054.8c-0.2,9.1,7,16.5,16,16.7c9.1,0.2,16.5-7,16.7-16
			c0.2-9.1-7-16.5-16-16.7c-0.2,0-0.2,0-0.3,0C467.7,1038.6,460.3,1045.8,460.2,1054.8L460.2,1054.8z M628.9,1054.8
			c-0.2,9.1,7,16.5,16,16.7c9.1,0.2,16.5-7,16.7-16c0.2-9.1-7-16.5-16-16.7c-0.2,0-0.2,0-0.3,0
			C636.2,1038.6,628.9,1045.8,628.9,1054.8z M687.3,1000.7L687.3,1000.7l-226.2,0.8l-6.8-0.8c-2.2-1-14.9-9.2-18.4-33.4l-28-212
			c0-0.3,0-0.6,0-1c-1.6-22.2-8.1-34.8-15.7-41.5c-5.2-4.8-11.6-8.1-18.4-9.8c-0.8-0.2-1.7-0.3-2.5-0.3l-27.6-0.2h-0.2
			c-7.3,0-13.3,5.9-13.5,13.2c0,7.3,5.9,10,13.3,10l25.7,0.2c8.4,4.6,14.5,12.7,16.7,22.1c0,0.3,0,0.6,0.2,1l29.2,221.9v0.2
			c6.8,45.9,31,49.4,34.1,50l1,0.2l8.9,1c0.5,0,1,0.2,1.4,0.2l0,0l227-0.8c7.5,0,13.5-3.2,13.3-10.5
			C700.6,1003.7,694.6,1000.7,687.3,1000.7L687.3,1000.7z M716.8,798.8c3.5-15.2,1.7-27.8-5.2-37.6c-5.7-8.4-15.4-13.3-25.6-12.9
			c-0.3,0-0.6,0-1,0l-245.9,0.8c-7.5,0-13.5,3-13.3,10.5c0,7.3,6,10.5,13.5,10.5l245.2-0.8c3.2,0.5,6,2.1,8.1,4.6
			c1.6,2.2,5.1,5.4,4.9,9.5c-0.2,0.5-0.2,1-0.3,1.4l-1,6.4c-0.2,0.5-0.3,1.1-0.5,1.6c-0.3,1.4-0.5,2.9-0.5,4.4l-21.9,128.3
			c-0.2,0.6-0.3,1.4-0.3,2.1c-2.2,20.3-14.1,22.9-15.6,23.2l-189,15.7c-7.5,0.6-12.9,4.3-12.2,11.6c0.6,6.8,6.5,9.2,13.3,9.2
			c0.5,0,0.8,0,1.3,0l186.3-15.7c2.2-0.2,10.2,1.6,18.3-4.9c6.4-5.2,11.3-12.2,14.1-20C690.8,944.6,716.8,798.8,716.8,798.8z"/>
		<path id="圆角矩形_2_拷贝_2" fill="#4156A3" d="M533.7,814.4l4.8,4.8c1.3,1.3,1.3,3.5,0,4.8l-33,33.2
			c-1.3,1.3-3.3,1.3-4.8,0l0,0l-4.8-4.8c-1.3-1.3-1.3-3.5,0-4.8l33-33.2C530.2,813.1,532.5,813.1,533.7,814.4L533.7,814.4z
			 M505.3,814.4l33,33.2c1.3,1.3,1.3,3.5,0,4.8l-4.8,4.8c-1.3,1.3-3.5,1.3-4.8,0l-33-33.2c-1.3-1.3-1.3-3.5,0-4.8l4.8-4.8
			C502,813.1,504,813.1,505.3,814.4L505.3,814.4z"/>
		<path id="圆角矩形_2_拷贝_3" fill="#4156A3" d="M632.2,814.4l4.8,4.8c1.3,1.3,1.3,3.5,0,4.8l-33,33.2
			c-1.3,1.3-3.5,1.3-4.8,0l-4.8-4.8c-1.3-1.3-1.3-3.5,0-4.8l33-33.2C628.7,813.1,630.9,813.1,632.2,814.4L632.2,814.4z M603.8,814.4
			l33,33.2c1.3,1.3,1.3,3.5,0,4.8l-4.8,4.8c-1.3,1.3-3.5,1.3-4.8,0l-33-33.2c-1.3-1.3-1.3-3.5,0-4.8l4.8-4.8
			C600.4,813.1,602.5,813.1,603.8,814.4L603.8,814.4z"/>
		<g id="椭圆_2_拷贝">
			<path fill="#4156A3" d="M566.4,882.7L566.4,882.7L566.4,882.7c-12.4,0-22.2,10-22.2,22.2l0,0c0,12.2,10,22.2,22.2,22.2l0,0
				c12.2,0,22.2-10,22.2-22.2C588.7,892.5,578.7,882.7,566.4,882.7L566.4,882.7z M566.4,914.7c-5.4,0-9.8-4.4-9.8-9.8l0,0
				c0-5.4,4.4-9.8,9.8-9.8l0,0l0,0c5.4,0,9.8,4.4,9.8,9.8C576.2,910.3,572,914.7,566.4,914.7L566.4,914.7L566.4,914.7z"/>
		</g>
	</g>
</g>
</svg>
