<?xml version="1.0" encoding="utf-8"?>
<!-- Generator: Adobe Illustrator 22.0.0, SVG Export Plug-In . SVG Version: 6.00 Build 0)  -->
<svg version="1.1" id="图层_1" xmlns="http://www.w3.org/2000/svg" xmlns:xlink="http://www.w3.org/1999/xlink" x="0px" y="0px"
	 viewBox="0 0 126 126" style="enable-background:new 0 0 126 126;" xml:space="preserve">
<style type="text/css">
	.st0{fill:#F3F8FF;stroke:#F9F9F9;stroke-width:2;stroke-miterlimit:10;}
	.st1{fill:#FFFFFF;stroke:#E2E2E2;stroke-width:0.75;stroke-linecap:round;stroke-linejoin:round;stroke-miterlimit:10;}
	.st2{fill:#F4F4F4;}
	.st3{fill:none;stroke:#F9F9F9;stroke-miterlimit:10;}
</style>
<circle class="st0" cx="63.1" cy="62.8" r="60.9"/>
<path class="st1" d="M101,110.5c0-0.4,0-0.8,0-1.2V82.9c3.2-6.1,5.2-13.1,5.2-20.7c0-19.2-12.2-35.3-29.1-40.5
	c-0.9-2.7-3.5-4.6-6.4-4.6c-2.6,0-5.2,1.5-6.4,4c-0.6-0.3-1.2-0.9-1.7-1.2c-2.6-1.2-5.2-1.5-5.8-0.3c-0.6,1.2,1.2,3.3,3.8,4.6
	c0.9,0.3,1.5,0.6,2.3,0.9c-0.8,0.4-1.5,0.7-2.3,0.9c-2.6,1.2-4.4,3.3-3.8,4.6c0.6,1.2,2.9,1.2,5.5-0.3c0.6-0.3,1.2-0.7,1.7-1.2
	c1.5,2.4,3.8,4,6.4,4c2.3,0,4.4-0.9,5.5-2.7C87.1,33.9,95.5,44,97.8,56.2C92.3,44,81.1,35.6,66.4,35.5C42.3,35.2,31.5,51.9,31.5,72
	v7.3c-2.3,2.6-4.8,5.7-7.1,9.3c-3.4,5.1-5.7,10-7.3,14.1c1,1.1,2,2.2,3.2,3.4c1,1,2,1.9,3,2.8c2.7-5.5,5.3-10.9,8-16.4
	c-0.1,7.4-0.2,14.7-0.3,22.1c4.4,2.8,17.4,10.3,35.5,9.3C84.8,122.9,97,113.7,101,110.5z"/>
<path class="st2" d="M65.8,54.1l7-3.5c0.6-0.3,1.5,0,2,0.6c0.3,0.6,0,1.5-0.6,2l-4.4,2.3l4.4,2.3c0.6,0.4,0.8,1.1,0.6,1.7
	c-0.3,0.6-1.2,0.9-2,0.6l-7-3.5C64.7,56.2,64.7,54.7,65.8,54.1z"/>
<path class="st2" d="M44.6,55.6c0-2,1.5-3.5,3.5-3.5c2,0,3.5,1.5,3.5,3.5c0,2-1.5,3.5-3.5,3.5C46.1,59.1,44.6,57.6,44.6,55.6z"/>
<path class="st2" d="M58.6,80.9c-6.7,0-10.2-5.5-10.2-15.4v-1.7c0-0.6,0.3-0.9,0.9-0.9h18.3c0.6,0,0.9,0.3,0.9,0.9v1.7
	C68.7,75.4,65,80.9,58.6,80.9z"/>
<circle class="st3" cx="63.1" cy="63" r="60.9"/>
</svg>
