<?xml version="1.0" standalone="no"?><!DOCTYPE svg PUBLIC "-//W3C//DTD SVG 1.1//EN" "http://www.w3.org/Graphics/SVG/1.1/DTD/svg11.dtd"><svg t="1617356068732" class="icon" viewBox="0 0 1024 1024" version="1.1" xmlns="http://www.w3.org/2000/svg" p-id="5449" xmlns:xlink="http://www.w3.org/1999/xlink" width="200" height="200"><defs><style type="text/css"></style></defs><path d="M514.133333 507.733333m-426.666666 0a426.666667 426.666667 0 1 0 853.333333 0 426.666667 426.666667 0 1 0-853.333333 0Z" fill="#E0E0E0" p-id="5450"></path><path d="M514.133333 256c-106.666667 0-192 85.333333-192 189.866667s192 311.466667 192 311.466666 192-206.933333 192-311.466666-85.333333-189.866667-192-189.866667z m0 283.733333c-49.066667 0-91.733333-40.533333-91.733333-91.733333s40.533333-91.733333 91.733333-91.733333 91.733333 40.533333 91.733334 91.733333-42.666667 91.733333-91.733334 91.733333z" fill="#FFFFFF" p-id="5451"></path></svg>