<?xml version="1.0" encoding="utf-8"?>
<!-- Generator: Adobe Illustrator 18.0.0, SVG Export Plug-In . SVG Version: 6.00 Build 0)  -->
<!DOCTYPE svg PUBLIC "-//W3C//DTD SVG 1.1//EN" "http://www.w3.org/Graphics/SVG/1.1/DTD/svg11.dtd">
<svg version="1.1" id="图层_1" xmlns="http://www.w3.org/2000/svg" xmlns:xlink="http://www.w3.org/1999/xlink" x="0px" y="0px"
	 viewBox="0 420 1080 1080" enable-background="new 0 420 1080 1080" xml:space="preserve">
<metadata><?xpacket begin="﻿" id="W5M0MpCehiHzreSzNTczkc9d"?>
<x:xmpmeta xmlns:x="adobe:ns:meta/" x:xmptk="Adobe XMP Core 5.6-c011 79.156289, 2014/03/31-23:39:12        ">
   <rdf:RDF xmlns:rdf="http://www.w3.org/1999/02/22-rdf-syntax-ns#">
      <rdf:Description rdf:about=""
            xmlns:xmp="http://ns.adobe.com/xap/1.0/"
            xmlns:xmpGImg="http://ns.adobe.com/xap/1.0/g/img/"
            xmlns:xmpTPg="http://ns.adobe.com/xap/1.0/t/pg/"
            xmlns:stDim="http://ns.adobe.com/xap/1.0/sType/Dimensions#"
            xmlns:xmpG="http://ns.adobe.com/xap/1.0/g/"
            xmlns:dc="http://purl.org/dc/elements/1.1/">
         <xmp:CreatorTool>Adobe Illustrator CC 2014 (Windows)</xmp:CreatorTool>
         <xmp:CreateDate>2018-03-06T10:59:11+08:00</xmp:CreateDate>
         <xmp:Thumbnails>
            <rdf:Alt>
               <rdf:li rdf:parseType="Resource">
                  <xmpGImg:width>184</xmpGImg:width>
                  <xmpGImg:height>256</xmpGImg:height>
                  <xmpGImg:format>JPEG</xmpGImg:format>
                  <xmpGImg:image>/9j/4AAQSkZJRgABAgEASABIAAD/7QAsUGhvdG9zaG9wIDMuMAA4QklNA+0AAAAAABAASAAAAAEA&#xA;AQBIAAAAAQAB/+4ADkFkb2JlAGTAAAAAAf/bAIQABgQEBAUEBgUFBgkGBQYJCwgGBggLDAoKCwoK&#xA;DBAMDAwMDAwQDA4PEA8ODBMTFBQTExwbGxscHx8fHx8fHx8fHwEHBwcNDA0YEBAYGhURFRofHx8f&#xA;Hx8fHx8fHx8fHx8fHx8fHx8fHx8fHx8fHx8fHx8fHx8fHx8fHx8fHx8fHx8f/8AAEQgBAAC4AwER&#xA;AAIRAQMRAf/EAaIAAAAHAQEBAQEAAAAAAAAAAAQFAwIGAQAHCAkKCwEAAgIDAQEBAQEAAAAAAAAA&#xA;AQACAwQFBgcICQoLEAACAQMDAgQCBgcDBAIGAnMBAgMRBAAFIRIxQVEGE2EicYEUMpGhBxWxQiPB&#xA;UtHhMxZi8CRygvElQzRTkqKyY3PCNUQnk6OzNhdUZHTD0uIIJoMJChgZhJRFRqS0VtNVKBry4/PE&#xA;1OT0ZXWFlaW1xdXl9WZ2hpamtsbW5vY3R1dnd4eXp7fH1+f3OEhYaHiImKi4yNjo+Ck5SVlpeYmZ&#xA;qbnJ2en5KjpKWmp6ipqqusra6voRAAICAQIDBQUEBQYECAMDbQEAAhEDBCESMUEFURNhIgZxgZEy&#xA;obHwFMHR4SNCFVJicvEzJDRDghaSUyWiY7LCB3PSNeJEgxdUkwgJChgZJjZFGidkdFU38qOzwygp&#xA;0+PzhJSktMTU5PRldYWVpbXF1eX1RlZmdoaWprbG1ub2R1dnd4eXp7fH1+f3OEhYaHiImKi4yNjo&#xA;+DlJWWl5iZmpucnZ6fkqOkpaanqKmqq6ytrq+v/aAAwDAQACEQMRAD8A9U4q7FXYq7FXYq7FXYqt&#xA;klijFZHVB4sQP14REnkgltWV1DKQynoQajEikt4FQ9/fR2VsZ5FZlBAooqd8sxYzOVBjKVC2M/py&#xA;L9NfXuL+lx48Nq/Zp40675svyx8Lg6uP4nqtk1hex3tstxGrKrEijddjTtmty4zCVFyIysWiMrZO&#xA;xV2KuxV2KuxV2KuxV2KuxV2KuxV2KuxV2KuxV2KsZS3TVNbuo7uRgsJZYowaVCtx2/XmzMzixAxH&#xA;Nx64pG1XRw1nrU9hFIZLehPyIAP370OQ1HrxCZFFMNpUyHNe3uIBFDuPDFUs/RDfpr69VPR409Om&#xA;9ePH5Zk+P+74erXweq0zAAFBsPDMZsdirsVdirsVad0jRnc8UUEsx6ADCBZoKluq6p6emG6spFb4&#xA;lUOKMOu+ZGDDc+GQa5z2sI1ry3RoklkVJZacEJ3JPgMpGMmyBsGfEFbIJdirsVdiqSeZLq4Q21tH&#xA;J6KzsRJJWmwIHXw33zN0cAbkRdNOUnYIW2E2m6xDax3BuIZgOa+Fa9qn55bOsmMyIohiPTKrZLmt&#xA;ch2KuxV2KpXqPl+3u5/XV2hmP2mXcGnem2+ZWLVGArmGuWME2raZpFvp4YoS8r/akbrTwHhkM2oO&#xA;TnyTCAijsoZuxV2KuxV2KqN1e2toqvcSCNWPFSamp+jJwxylyCDIDmrZBLsVWymMROZaemFJevTj&#xA;TeuGN3tzQUm0l9H9S7a3Vkg+H1Glp6XXalffxzMzjJQvn5c2qHDvTatpC63IJUcXjMPTaTdCT04U&#xA;/jiRk8Lb6U+ni806zCbXYq7FXYqhr/T7a+h9KcGgNVYbMD7ZZiyygbDGUQeaH0/QbKyl9VOUkvRW&#xA;em1fAADLMuqlMV0YxxgJjmO2LZJEjjaSQ8UQEsx7AYQCTQUlqGaOaJZYzyjcVU+xxlEg0UA2vwJd&#xA;irsVdirsVdirsVca0269sVYhrk2ryIgvoVjQMfTK9z95zb6aOMH0m3FyGXVPdLn1mSVxfQrHGF+F&#xA;h15V6dTmDmjjA9B3boGXVMsxmxplVlKsAysKFTuCMINKgNU003Gnm1tgkdGBVacV2Ptl+DNwz4pb&#xA;sJwsUEYbeFvTMiK7RU4MQCQR3Fcp4yLrqypUyKUs1/UbixtUeCnN34ksK7UJzJ0uITlRa8kiBsjr&#xA;SZprSGZgA0kauQOlWAOU5I1IjuLOJsKuQS7FXYq7FUr9DV5HntLkrJazKwS4WgZa9AV2/wA++ZXF&#xA;jFSj9Q6NdS5Hkta31eFbezsyqQRoPUuWoSTXcBTX9WETxm5S59yKkNgm2Yja7FXYqkXmm7uYFtlg&#xA;laIOXLcCVJ48abj55naLHGV2Lac0iKTexkeSyt5HNXeJGY+JKgnMTKKkQO9tidlbIJdirsVQuoab&#xA;b38aJPyARuQKmh+XfLcWYwNhjKAPNFZUydirsVdirsVWTxtJDJGrFGdSocdQSKV+jJRNEFBDD9V0&#xA;a4sYUkkmEgZuIAr4V75t8GoEzQFOLOBCYaVoN0Gtbv6zRKJLwFa0IB4/wzHz6qO8a8myGM7G2R5r&#xA;m92KuxV2KpRJp0tr9Z1AztcXSo5iqNlFOnGpzLGYSqFVFq4as9VqafLfQ2t+J2t7wovJ1GxHuu3X&#xA;CcogTCriojdHqnOYba7FUDrVhPfWfowuEbmGPIkAgV2NK/PL9PlEJWWGSJIYpqWk3On+n6zI3q8u&#xA;PAk/ZpWtQPHNrhzxyXXRxpwMUXa+Wb+WOGdZY0VwrqatyAIr4dfpymesgCRRZDEebLs1LlOxV2Ku&#xA;xV2KuxV2KuxV2KuxVD31hbXsQjnBKqeQoaEHplmPLKBsMZRB5q0caRxrGgoiAKo8ABQZAmzZZALs&#xA;CuxV2KuxV2KuxV2KuxV2Kpfq+kLqKxVlMTRE0NOQIaldqjwzI0+o8O9rthOHEjYIVhgjhUkrGoQE&#xA;9aKKZTKVknvZAUF+RS7FXYq7FXYq7FXYq4kAVOwHU4qlreYtJEvp+rXenMKSv35kjSZKumvxYpir&#xA;KyhlIZWFQRuCDmORTY3gV2KpJc+ZCJ3jtLZrhIvtyAmm3XoDt75mw0e1yNW0nLvsEw03Uob+D1Yw&#xA;VINHQ9Qcx82E4zRbIS4gi8qZOxV2KuxV2KuxV2KuxV2KuxV2KuxV2KuxV2KuxVA62JTpVyIq8uPb&#xA;+Wo5f8LXL9NXiC2GT6SkcTaH+gyHCi74nt+89TtQ+GZ0hl8Xb6fsaRw8Pmm3lsSjSo/U6cm9Ov8A&#xA;LX+tcxNZXiGm3F9KaZitjsVYta3V3ojz2z2xlDmsbioB7A1oajNpOEcwEgacYEw2pMPLVlcQQzTT&#xA;qUa4YEIRQgCu9O1eWY+syCRAHRsxRI5pzmG2uxV2KuxV2KuxV2KpZrPmfy9oqBtV1G3s6iqpLIod&#xA;v9VPtN9AyzHhnP6RbEyA5scP50/lmGKnWRUGm1vdEfeIqZkfkM3837Qw8aPenejed/KOsyCLTNWt&#xA;riY/ZhDhZD8o34ufuynJp8kOYLMTB5FO8pZMW8zfmZ5M8uF47+/WS7TrZ2/76avgQuyH/XIzJw6T&#xA;Jk5DZrlkiHm2sf8AOSM5Zl0bR1VR9ma8kLE/OOPjT/g82EOyh/FL5NJ1HcEiP/OQHn9g0ggshHXq&#xA;IJOI9qmQ5d/JmLzYfmJM+/LH85j5m1FdG1e2jtdSkVmtpoOQil4DkycWLFW4gnqQfbvhavQeGOKJ&#xA;sN2PNxGi9RzWt7sVQDaDpLS+qbccq1oCQtf9UGmZA1WSqth4cUeAFAVRQDYAdAMx2bsVdirsVdir&#xA;sVdirsVdirsVdirxj81vznnsbmfQfLUgW4iJjvdSFG4MNmjh7ch0Zu3Qb75ttHoARxT+TjZc1bBi&#xA;Pl38nfNXmFP0xrl1+jLW4+M3F3yluZa/temSG3/ymBzLya2EDwwHEfLk1DETudmQP+SXldY+K6he&#xA;yy0/vKRItfHhxc0/2WAarJ1AYkR6Md1r8mdWtlabSLtbwLuIJB6Uv+xapQn5kZdHUg82NMeu/O3n&#xA;+2sm0K61S8hhi+B7d2KyAD9kuaScfblTJDT4ieIAMvElVWy7yh+R8+taRBrVzqkT2k6iRILP95IR&#xA;+0rOwCo6nqtDmPl7QEZcNfNmMJItm+keRfK2kqPq2nxvKOs049WSvzetP9jTIyyyPVrpNb8qlk6g&#xA;AAgKF7fL7scQuTGXJ47p0Edn+cmnxWSrEg1C2+FdgBIEMgFP9ZtsytT/AHUvcyxcw+oM5d2LsVdi&#xA;rsVdirsVdirsVdirsVdirsVdirEPzW81SeW/Jt3d278L65ItbJh1EkoNWHuqBmHvmVo8PiZADy5t&#xA;eWXDF5X+RnkS21S7n8zatGJbKwfjaRyCqvcAcmkavURginufbNn2hqDECEeZcfDC9y9Y1C+ku5ix&#xA;NIxtGngP65j4sYgGM58RQuWsGiQASTQDcnFXkv5uy6bJHbysg/SEkhETjZhCo+Ll4ipFM2OKNCms&#xA;Gyzj8gNLvtN8pX2q3cjLZ38oe0gPQLCCjSD/AIyN8P8AsRmo7RkJ5BEcw5uHaJJZLI5d2c9WJJ+n&#xA;fLQKFOMSkmuX8UauXYLDbqXlY9BQVP3DMvBChbXMvM/ystpvMX5pwX7LWOB5b+XavFUFIx9Dsgwa&#xA;+fDiPns3YI+oPprOcc92KuxV2KuxV2KuxV2KuxV2KuxV2KuxV4l/zkpeOI9BswfgY3MzjtVRGqf8&#xA;SbNx2VH6j7nG1J5M18j2SaZ+V+jwxjibi3SZj3JuSZj/AMSp8sx5ni1BPd+jZJ2xr8ynGdiqR6/r&#xA;lpaWksssojtYhWWQ9/YeP8cysOKty1yleweSaVp2p/mH52jt4w0du5rI3UQWiHc/62/0sctz5hih&#xA;ZbMcLNPoa+a0tbWDSbBBFZWaLEiL0AQcQv0Zp8ED9cuZbss+gSi9uhBFt/eNso/jmbjhxFx5GnlP&#xA;5l+YxFb/AKHges09Hu2HUJ1C/Njv8vnmfEMIh6L+RPk19G8uPq93HwvtX4ugYUKWy7xj/Z1LfKma&#xA;PtHPxz4Ryj97n4IULenZrm92KuxV2KuxV2KuxV2KuxV2KuxV2KuxV4Z/zkncWTXGhQLIpvYluHki&#xA;FOQjkMYQt33KNx+nNz2UDUj02cXUdGZeQdVh1L8q9NmB+KxjFvMo3Km3b0/+IUbKZwMdQR3/AKUk&#xA;3j9ynJq8Y2jQt7nYfxzOGA9XEM2L6/8AmBpFirJNdCWUdLW3+Jq+DEbD/ZHMiGEBjZLzue68z+fN&#xA;Yi0/TrVnUGsVrGfgQd5JXNBt/MfoyWTJHGLkWcIE7B7h5R8rad5J0drCzcXGrXNDqN8BT4gNkTwV&#xA;a7ffmonKWaXFL6RyDkEiAoc1W6u47dKtu5+yvc5kwgZNBNMJ83+boNItmlkIkvpgRbQf8bN4KMzo&#xA;QrYNXNjv5Vfl/d+cNbfW9ZDPpEEnOdnH+9M3X0h/kj9v2277Yut1Xhx4R9R+xysOO/c+lAAoAAoB&#xA;sAOlM55zXYq7FXYq7FXYq7FXYq7FXYq7FXYq7FWJfmP+YNj5P0czHjNqlwCthaE/aYdXem/Be/j0&#xA;zK0umOWXl1a8mThDwvy35E81fmDLquv3M/EASP8AWphtPcBarEnQKo2BPRRQZucuohgqADixgZ2U&#xA;s8see/Nvlm2vNI0ziEu3Imt5YvUZZAODcVPRqChqO2W5dPCZEj0YxmQKTGHyt+bHmX7dreC3fq1x&#xA;S0hp40f01b6AcE9Vij1/SgYj3Mn0L8ibOErN5j1ZXpQmy08cifYzOAB70X6cxp62R+iPxLYIRHMv&#xA;R9NttK0Wx/R+hWaafan+8KbyyEd5JDVmPzOY3hmR4pniKnJtQ2Qt5fxwAqvxS+HYfPMrHiMvc0yl&#xA;TBfN3na10hWQEXGpOKpDXZfBnp0HgO+ZkY9zAC2OeRPy+13z9qrapqUjxaSrj61eEUaSn+6oBSnt&#xA;Xovz2zH1WrjiFD6nIxYuL3PYdL/Mn8utM1QeUbSb6ktg31WJmXjbc0NCgkJ68q1Ztie+amekyyj4&#xA;h3vfzckZIg0zvrmE2uxV2KuxV2KuxV2KuxV2KuxV2KuxVL/MOuWWhaLd6temlvaRl2A6seioPdmI&#xA;AyzFjM5CI6olKhb548t6Hrn5qec7jUtUkaPT4iGvJV6RxVPp28Ne5/qx3673LkjpsdR5/jdw4xOS&#xA;Vl7hdSWdnaRaTpkS29haqI1jjFFoOw/j4nNfhxknjl9RZZZ9ByQNvS3keW3HoySf3jp8LN8yOuZE&#xA;og82oSI5Lnkkc1dix8WJP68QAOSk2pSzRRLykYKPfJCJPJiSlV/rSpE7hxBAgq8zkLQeNTsMyYYK&#xA;5sDLueZeaPzJHx2mimrGoe9Yf8mwf+JHMkRQIpx+Xf5K6hrUqaz5pElvYOfUS0YkXFxXernqiH/g&#xA;j7dc1+q7QEfTDcuVjw3uXvtpaWtnbR2tpEkFtCoSKGNQqKo6AAbDNHKRJsuYA8q/Mr8kYdYnuNZ8&#xA;usINTmZpbmyc0imdjVmVj9h2Pj8J9s2ek7Q4Rwz5OPkw3uGD+TfzT80eSLw6LrtvNcafAeD2c1Vu&#xA;IP8AjEzfs06KdvAjMzPo4ZhxR5tUMpjsX0D5f8w6R5g0yPUtKuBcWslRUbMrjqjqd1YV6HNHlxSg&#xA;alzcuMgRYTHK2TsVdirsVdirsVdirsVdirsVeN/85H6xNFpmk6RGSI7qSS4nptX0QqoPcVkJ+gZt&#xA;uysdky7nG1B2AZb5J0eHyv8Al/YW0QC3V3Gtxcv3M06hmP8AsVoo+WU5JeLmJPIJPog000K/adR8&#xA;yMyxElxbUJNRtE/a5HwUVyYwyKDIJffa8kETSO6W0K9ZZGAA+k0GXRwDqxM2C65+Z2l25ZLINf3H&#xA;T1DVYgf9Y7n6B9OZAgjhY3Y6d598/wB2I7WF5rZWozgelaRf6zHao+lvDIZc8MY9RbYYyeT2fyD+&#xA;S+h+XGjv9SK6nq60ZXZf3ELf8VoepH8zfQBml1Ovlk2G0XLx4QOfN6KXQMqlgGavFSdzTc0zAbm8&#xA;VdirHPOXkHy75stPS1KDjcoKW99FRZo/YN+0v+S23075kYNTPEduXcwnjEuap5J8l6X5R0f9G2DP&#xA;Jzcy3E8h+KSQgCtBsAAAABg1GeWWVlYQERSf5QzdirsVdirsVdirsVdirsVdirzr85/y/v8AzVpV&#xA;rdaWA+paaXKW5IX1Y5OPJQTQcgUBFffM/QakY5ES5FpzY+IbPHIPzA866JFDo2rI8kFiOEVpdoY5&#xA;Y1G3ENQNTag5Vp2zdY8WOzKPVw52dj0VZPzXvyP3VhEp/wAp2b9QXLeFhwoZPOvnnV39HTYC0h24&#xA;WcDSv+PqHBIxjzNJELTXTvyf/MvzDMs+pIbSNt/Xv5fiA8BGvNx8iozEydoYo8jfubo4JFmfl78r&#xA;Pyy0bXIdJ1vVE1XX3CsljIfSjqRyA9NSakjorPv4Zh5dZmnHiiKj3tscUQaJ3ewW1tbWsCW9tEkE&#xA;EY4xwxqERR4Kq0AzVEkmy5ICpgV4N/zkFpesWfmDTPMUM0n1UosMDKT+4niYuKeHMHkPcHN12ZOJ&#xA;iYdfvcTOCDb1b8vvNsPmnyva6mCBdAejfRj9mdAOew6BtmHsc1upweHMx6dHIxz4hbI8x2bsVdir&#xA;sVdirsVdirsVdirsVdirsVdirsVWTQQTxmOeNZYz1RwGU/QcIJHJUEvlzy8rmRdLtA7facQRAn5n&#xA;jk/Fn3lHCEeiIihUUKo6KBQD6BlaW8VfNvm4m3/PlHcfY1TT5KDuCIWH4Z0GDfTf5p/S4U/7z4vp&#xA;LOfc12KpN5w8tWvmXy7eaPcUX6wn7mX/AH3KvxRv9DDf22y3BlOOYkGM48Qp4L+Unma68oedptD1&#xA;WsFteSGzu0Y7RXCMVjfw+18JPga9s3etxDLj4o8xv8HExS4ZUX0nnPua7FXYq7FXYq7FXYq7FXYq&#xA;7FXYq7FXYq7FXYq7FXYq7FXzZ+ZRe3/Oxp6A/wClafIo/wBWKEb/AErnQaTfT15H9LhZPrfSec+5&#xA;rsVdiry/8xfyYHmjX4tXsLyOxklCpqAdC3LhsJF4nduNBQ06dc2Ol1/hx4SL7mjJh4jb06FGjhSN&#xA;nMjIoUyNTkxApU07nNeW9dgV2KuxV2KuxV2KuxV2KuxV2KuxV2KuxV2KuxV2KuxVg/mL8pdC13zZ&#xA;B5jubieOaMxNNbJx4SGGnDcjkvQA0/DMzFrZQhwANUsQJtnGYba7FXYq7FXYq7FXYq7FXYq7FXYq&#xA;7FXYq7FXYq7FXYq7FXYq7FXYq7FXYq7FXYq7FXYq7FXYq7FXYq7FXYq7FXYq7FXYq7FXYq7FVsnq&#xA;cD6dOXavTCK6qhHbUPDb/JplwEGG6izXnfmPvGSAj5I3WFpu5b6a5KghYWbuThpXcm8TjStYVb5N&#xA;4nBSthn7E40q4NP2LfRXBQXdUVr3tzP35EiKd1aM6h4VH+VTIHgSLRi8qDl1706ZSWbsVdirsVdi&#xA;rsVdirsVdirsVdirsVdirsVdirsVdQeGKtcV8BjatgAdBirsVdirsVdirsVdirsVdirsVdirsVdi&#xA;rsVdirsVdirsVdirsVdirsVdirsVdirsVdirsVdirsVdirsVdirsVdirsVdirsVdirsVdirsVdir&#xA;sVdirsVdirsVdirsVdirsVdirsVdirsVdirsVdirsVdirsVdirsVdirsVdirsVdirsVdirsVdirs&#xA;VdirsVdirsVdirsVdirsVdirsVdirsVdirsVdirsVdirsVdirsVdirsVdirsVdirsVdirsVdirsV&#xA;dirsVdirsVdirsVdirB55ZDqPoGB5p7m7ujCxupUWSOAyFogAyhGFEC7U3zaxA4bugIx6DrW/wB7&#xA;jE7/ABROiXc3G+u7BWcSWpmtIZZXK7TzIhYys3H4UHLK88BsJd++3kO5lA8yEulvdTmsrBbdizwA&#xA;zQWcZKTPyRl9aaf+7SvLmF7hqdaHLxCAlK+vXp7gOfl8GBJoJpf6hx8rRBdRV5BSKaS5jcSyTAqz&#xA;AAtGVpuaUO2Y+PH+9+n5HavtZyl6eah+ktTmv57mK7VJD9Wt7TjECk0Uk7I0qKzuRRia79AD3yfh&#xA;wEQCO8nfltyRxG7a1aR49YupZZpVS25yNIskqq3o2iOYgsbpuwZ5B0+zjhFwAAG/u6y5/cPisuf4&#xA;7neVzLHq0UJvGmLxtI6mYSKzrs8jCOeVeTch9paeGOqowuq+H2bxC4+fP8fNmmaxyHYq7FXYq7FX&#xA;Yq7FXYq7FXYq7FXYq7FXYq7FXYqkP+FoplvDdSH1biSQwSId4VaYygxmgo5qOR9sy/zRFV0+3amr&#xA;w+dut/LSwSX4hjgjt7mFIIrc85I+K1qXX4KVBFVU9amu+MtTfDd2DajHVqQ8s3cU9vJA9myRJMjQ&#xA;tbBIQZTEapGhrX91uWc5L8yCCDxdOu+1/r7l8M+StFoeoxWmnxxXEMU9pNNK7hCyUl9TZUqv+/PH&#xA;InPEmRINED7KSIGgpHy3qJmguWuojc6eXNh+7+BjKayGWtT8XQBfs9dzkvzMaIo1Ln+ivxujwzz7&#xA;la58tm9nu5bqUoJ2DRpGQ6isAgfkrrQ1Xko9j45COp4QABy/XaTjvmp6N5Wl0++kumvHk+NvSUhT&#xA;WNlUUNVqvxD9nJZtUJxqkQx0btkGYba7FXYq7FXYq7FXYq7FXYq7FXYq7FXYq7FXYq7FXYq7FXYq&#xA;7FXYq7FXYq7FXYq7FXYq7FXYq7FXYq7FXYq7FXYq7FUHqN7JarGYlSWRnAMDOqSOpND6fKgLCvQ9&#xA;csxwEuf497GRpKJvNVzHqf1QW8RTg55VuTUq6qNxbkU37VHv45I0oMOKz9n/ABTA5Ddfj7kXceZL&#xA;S31X6nOTHElu80szRy8AVK0pJx4FSCd/Gg67ZXHTSMOId9cwk5ADSno3mi2v7lreVoo5JR6toquG&#xA;LRHs9PsyClWX+3Dm0pgLF+fv/V5rDJaDu/OF7FLGkGmm4HqcJWhkWUA8WbgCu3P4a03/AFZbDRxI&#xA;3lXw/GzE5T3I9fMPLS5L8RxBUkjj3nXgOcioS7qrcOHKpqMpOn9fDv8AJlx7Wt/T9zzlQRWrPDLH&#xA;A6C5kJ5zFQm3odDz69Ovhh/Ljz3F8u7/ADl4/wAfgLpvMlvFHp0knGIXcQuJwxLenEUFKUFWYyOq&#xA;gU338MA0xJkB02/HwU5OShpvmqS91IWgtGCySP6ZrxkSFFBEksbfEoeo4+PIe+TyaURjxX/b5FEc&#xA;lmlfU9Z1Gxin/wBAMsvqLFZFXXhIZaiOvIq1Q2zgdBv0yGLDGRHq9/lXP9iZTI6K1jrEs9sbmazl&#xA;igVeXqLxl5EGhCxxGR/wyM8IBoEX8vv2SJWOSXSea7j6rYyQ2ylrqJZXeYmBBxAaVQJAG+xUo3Q+&#xA;+XDSCyCeR6b+79rDxNgnOlXz31jFdNCYDKAwiLBiAQCK06HfpmNlhwSIu2yJsWi8rZOxV2KuxV2K&#xA;uxV2KuxV2KuxVKPM0f8AoEcyW5ubiG5tXiRFDSEJcxuwUnp8KnvTMjTH1VdAiX3FrycmJT2c4jku&#xA;mRozJfTQwL8PElbl0EaD6wvKirSgh7dO+bGMxy/oj/c8/p/S0EdfP9PvTbVNMT9N3d3cy+nJHaVs&#xA;XjG0IDcIhShr8bc+nWnhmPiy/uwAP4t/Pv8A1Nko72e5vSLuGfU44bhlMQWaYIVYqXnoQhJWn7oe&#xA;oPkRjmgRCx5fZ+vZYmylsx0s3dw3qW7xGZnt6OlFUigAHqJx+7Lhx0OfLf8AFMDVppZvaL5drEIr&#xA;i5S5gM6wlWZgbwNGhNTX4TQVOUTB8TfYUef9VmK4fx3oFNEv9Na2mm+rQW+nn66ZpDwRTOQrWnOt&#xA;CqmpVu3w5ac8Z2BZMtvl/F+PNjwEfD8UibizkYaMyrxubazjPFLR5pg/Div7z4UTh8XEO1OW5GQj&#xA;MevuMj/FQ/HuSRy93cgtMQG9sJVupBd3Nw0dxIIplkZQHNHndjHIPgG1KD9mmWZT6ZCtgO8eXTmE&#xA;R5hF3UWlPqN9+6t7axkdP31xaCW3knhMiykbqocF6cj13yuJnwjcmXlKjRqkkCz3e5ryvBZWunus&#xA;OoWdvOIj6ssMESyqqyD4nkLMG2NNx3w6qUpS3jIi+81yXGABzCEuomgt9IRJZp3+rxyTWcSxTXYc&#xA;oOFY5FqItzUE0FOnXLIGzLYDfnuB9nViRVMp8tb6VGzTLNKxrOFjWLhJxAePgqoRxP8AMK5gan6+&#xA;Vfa34+Sa5js3Yq7FXYq7FX//2Q==</xmpGImg:image>
               </rdf:li>
            </rdf:Alt>
         </xmp:Thumbnails>
         <xmpTPg:MaxPageSize rdf:parseType="Resource">
            <stDim:w>1080.000000</stDim:w>
            <stDim:h>1080.000000</stDim:h>
            <stDim:unit>Pixels</stDim:unit>
         </xmpTPg:MaxPageSize>
         <xmpTPg:NPages>1</xmpTPg:NPages>
         <xmpTPg:HasVisibleTransparency>False</xmpTPg:HasVisibleTransparency>
         <xmpTPg:HasVisibleOverprint>False</xmpTPg:HasVisibleOverprint>
         <xmpTPg:PlateNames>
            <rdf:Seq>
               <rdf:li>Cyan</rdf:li>
               <rdf:li>Magenta</rdf:li>
               <rdf:li>Yellow</rdf:li>
            </rdf:Seq>
         </xmpTPg:PlateNames>
         <xmpTPg:SwatchGroups>
            <rdf:Seq>
               <rdf:li rdf:parseType="Resource">
                  <xmpG:groupName>默认色板组</xmpG:groupName>
                  <xmpG:groupType>0</xmpG:groupType>
               </rdf:li>
            </rdf:Seq>
         </xmpTPg:SwatchGroups>
         <dc:format>image/svg+xml</dc:format>
      </rdf:Description>
   </rdf:RDF>
</x:xmpmeta>
                                                                                                    
                                                                                                    
                                                                                                    
                                                                                                    
                                                                                                    
                                                                                                    
                                                                                                    
                                                                                                    
                                                                                                    
                                                                                                    
                                                                                                    
                                                                                                    
                                                                                                    
                                                                                                    
                                                                                                    
                                                                                                    
                                                                                                    
                                                                                                    
                                                                                                    
                                                                                                    
                           
<?xpacket end="w"?>
	</metadata>
<g>
	<path id="椭圆_1" fill="#E5EBFF" d="M539.9,1123c102.4,0,185.5,7.1,185.5,15.9c0,8.7-83.1,15.9-185.5,15.9s-185.5-7.1-185.5-15.9
		C354.4,1130.3,437.5,1123,539.9,1123z"/>
	<g>
		<path id="形状_7_拷贝" fill="#C2DAFF" d="M440.5,878.7c2.7,5.4-4.4,11.3-2.1,16.2s15.6,6,20.2,5.2
			c30.7-5.7,51.9-8.9,80.4-22.7c44.9-25.6,63.5-58.8,79.4-83.9c3.7-5.6,11.8-24.1,7.3-28.9c-3.3-3.5-15.6-15.2-19.9-19.7
			c15.2-5.9,30.2-12.7,44.8-17.8c14.3-4.8,30-3.7,43.7,2.9c13.5,7,9.7,15.2,7.3,38.4c-2.7,25.6-34,70.7-52.4,88.5
			c-55.9,54.3-95.6,79.4-167.6,110.4c-19.4,8.4-59.2,12.7-80.5,14c-5.1,0-10-0.5-14.9-1.6c-3.8-0.3-6.7-3.7-6.5-7.5
			c0-0.2,0-0.5,0-0.6c1.9-9.4,4.8-18.4,8.4-27.3c9.1-19.7,26-37.3,40.7-53.2C432.4,887,436.2,883.2,440.5,878.7z M451.6,818.2
			c8.4-49.1,49.4-76.7,95.5-68c20.2,3.8,36.8,14,51.1,28.3c1,1.3,1.3,3.2,0.8,4.8c-13.2,22.2-27.3,43.7-46.1,61.8
			c-7.8,7.6-17.6,11.8-27.5,15.7c-19.1,7.5-38.8,13.2-58.8,16.8c-1.9,0.6-4.1-0.5-4.8-2.4V875C452.3,855.9,448.8,835.7,451.6,818.2z
			"/>
		<path id="形状_7_拷贝_2" fill="#9EBEFF" d="M645.1,853.8C589.2,908.1,549.8,931,478,962c-19.4,8.4-46.9,17.2-68.1,18.4
			c-4.9,0.3-13-2.2-18.1-3.2c-4.3-0.8-9.4-8.1-8.6-12.2c0.2-1.3,0.6-3,1-4.8c1.4,0.2,2.9,0.2,4.3,0c21.3-1.3,53.7-5.6,73.4-12.9
			c74.2-27.4,111.1-53.8,167-108.1c18.3-17.8,50-65.1,52.7-90.7c1.3-12.5,3-20.8,2.1-26.7c2.2,0.8,4.4,1.6,6.7,2.7
			c13.5,7,9.7,15.2,7.3,38.4C695.1,788.7,663.3,836,645.1,853.8z M588.2,769.8c1,1.3,1.3,3.2,0.8,4.8c-4.4,7.5-2.1,15.9-6.8,23
			c-12.7,18.3-27.6,38.1-54.8,55c-1,0.3-1.9,0.8-2.9,1.1c-19.1,7.5-38.8,13.2-58.9,16.8c-1.9,0.6-4.1-0.5-4.8-2.4v-0.2
			c-2.1-4.3-4-8.6-5.6-13c18.1-3.7,35.9-8.9,53-15.7c9.8-4.4,18.9-10.6,26.4-18.4c18.7-18.1,26.7-30.5,38.1-60.7
			c0.3-1.1,0.3-2.2,0-3.3C578.4,760.7,583.4,765,588.2,769.8z"/>
		<path id="形状_7" fill="#4156A3" d="M429.9,767.9c12.9-19.4,32.4-33.2,55-39.1c7.8-2.4,16-3.5,24.1-3.7c5.6-0.2,11.1,0.2,16.7,1
			c15.7,1.7,30.8,6.8,44.3,14.9c2.2,1.6,5.1,1.6,7.3,0.2c24-11.8,48.3-22.4,74.8-27.2c10.5-1.9,21.3-2.5,32.1-1.9
			c23.3,1.9,33,17.5,31.1,44.6c-0.2,29.7-14.6,96.2-145.5,183.8c-77.8,46.5-147.1,60.2-185.3,51.6c-8.6-0.2-15.9-3.3-23.3-7.9
			c-11.4-7-16.5-19.9-13.3-34.8c3.7-17.6,12.4-32.9,23.5-46.5c12.9-15.7,26.8-30.7,40.7-45.6c2.4-2.1,3.3-5.2,2.5-8.3
			c-3.8-18.6-2.7-37.6,3-55.7C419.9,786.1,425.7,773.3,429.9,767.9z M422.6,875.6c-4.4,4.4-8.1,8.3-11.8,12.2
			c-14.6,15.9-31.1,31.1-40.2,51c-2.7,5.6-4.4,11.6-5.4,17.6c-0.6,4.1,4.6,11,8.9,11.8c4.9,0.8,15.2,7.5,20.3,7.3
			c23.2,0.2,46.4-2.9,68.8-9.1c47.6-15.7,104.7-38.8,176.1-106.6c18.3-17.8,43.7-51.9,54.3-85.8c3.2-9.5,4.1-19.7,2.9-29.7
			c-1.7-5.2-3.7-9.8-11.3-11.6c-3.2-0.6-6.5-1.1-9.8-1.1c-13.5,0.3-26.8,2.9-39.4,7.6c-14.8,5.1-29.2,11-44.5,16.8
			c4.3,4.4,7.8,7.9,11.1,11.4c4.6,4.9,5.2,8.6,1.7,14.1c-8.1,17.8-17.9,34.8-29.5,50.7c-11.9,15.7-27.2,28.6-44.6,37.6
			c-28.3,13.8-58.6,21.1-89.3,26.8c-4.6,0.8-8.1-1.6-10.5-6.4C427.8,885.9,425.3,881.1,422.6,875.6L422.6,875.6z M433.7,815.1
			c-2.9,17.5,0.6,37.6,10.3,57c0.5,1.9,2.5,3.2,4.6,2.5h0.2c20.2-3.7,39.9-9.4,58.9-16.8c9.8-4,25.7-11.9,33.5-19.4
			c18.7-18.1,29.5-33,40-58.1c0.5-1.6,0.2-3.3-0.8-4.8c-14.3-14.5-31-24.5-51.1-28.3C483.1,738.3,442.1,766,433.7,815.1L433.7,815.1
			z M657.3,1035.3c-2.2,4.8-5.2,7.1-9.8,7.8c-4.4,0.6-8.6-1.9-10.3-5.9c-10.2-18.6-20.3-37.2-30.5-55.9c-1.3-2.4-2.7-4.6-3.8-7.1
			c-2.5-5.1-0.5-11.1,4.4-13.7c5.1-2.5,11.1-0.5,13.7,4.4c4.9,8.7,9.5,17.5,14.5,26.2c6.4,11.6,12.9,23.3,19.1,35.1
			C655.5,1029.3,656.5,1032.3,657.3,1035.3L657.3,1035.3z M515.5,986.9c3.8,1.6,6.2,5.4,6,9.5c0.8,21.6,1.6,43.2,2.2,64.8
			c0,5.4-4.3,10-9.8,10h-0.2c-5.6,0.2-10.3-4.3-10.3-10v-0.2c-0.8-18.1-1.3-36.2-1.9-54.3c-0.2-3.8-0.5-7.6-0.3-11.3
			c0.6-5.7,5.6-9.8,11.3-9.2C513.6,986.3,514.5,986.6,515.5,986.9L515.5,986.9z M719.9,941.3c-2.7-1.7-5.1-3.5-7.6-5.1
			c-15.6-10.8-31.1-21.8-46.7-32.6c-6.2-4.3-7.6-9.7-4-14.8c3.8-5.6,9.4-6,15.7-1.7c16.7,11.4,33.2,23,49.9,34.6
			c4.1,2.9,6.7,6.4,5.7,11.4c-0.6,4-3.8,7.3-7.8,7.9C723.2,941.3,721.5,941.3,719.9,941.3z"/>
	</g>
	<g>
		<g enable-background="new    ">
			<path fill="#7791E5" d="M468.1,1368.1l-0.8-3l5.6,0.2c1.6,0,2.4-0.8,2.4-2.5v-39.7h-37.6v45.1h-3v-48.1h43.5v43.2
				c0,3-1.4,4.6-4.4,4.6h-5.6v0.2H468.1z M455.4,1356c-1.9-3-4-6-6-8.9c-2.1,5.6-4.6,10.5-7.8,14.8l-1.9-2.4
				c3.2-4.3,5.7-9.4,7.6-15.2c-3-4-5.7-7.3-8.1-10l1.9-1.9c2.2,2.4,4.8,5.2,7.3,8.7c1.1-4,2.1-8.4,3-13.7l2.9,0.5
				c-1,5.9-2.2,11.3-3.7,16c2.1,2.7,4.3,6,6.8,10.2L455.4,1356z M471.9,1358.5c-1.9-3.3-4.1-6.7-6.4-10.2
				c-2.2,5.7-5.1,10.6-8.4,14.8l-1.9-2.4c3.3-4.3,6-9.4,8.3-15.4c-2.9-4.1-5.4-7.6-8.1-10.8l1.9-1.9c2.4,2.9,4.9,5.9,7.1,9.4
				c1.4-4.3,2.5-9.2,3.3-14.6l2.9,0.5c-1.1,6.2-2.4,11.9-4.1,17.2c2.4,3.7,4.8,7.3,7.1,11.3L471.9,1358.5z"/>
			<path fill="#7791E5" d="M506.7,1360.8c-5.6,2.1-11.8,3.8-18.6,5.2l-0.3-2.9c7.3-1.3,13.5-3,19.1-5.2v2.9H506.7z M500.2,1318.8
				c-2.9,7.5-5.7,13.3-8.7,17.8c2.4-0.3,5.2-0.8,8.6-1.6l3-5.9l2.5,1c-4.9,9.8-9.1,16.8-12.4,20.8c4.1-0.8,8.4-1.9,12.5-3.5v2.7
				c-5.7,1.9-11.1,3.3-16.2,4.1l-0.8-2.9c0.5-0.2,1-0.5,1.4-0.8c2.2-2.5,5.1-6.7,8.4-12.5c-3.8,0.8-7.1,1.4-9.8,1.7l-0.8-2.9
				c0.5-0.3,1-0.6,1.3-1.1c3.2-5.2,6-11.1,8.3-17.9L500.2,1318.8z M518.8,1318c-0.5,1.6-1.1,3.3-1.9,4.9h15.6v2.2
				c-2.2,4.8-5.2,8.9-9.2,12.5c4,3,8.9,5.4,14.8,7.1l-1.7,2.4c-6-1.7-11.1-4.4-15.2-7.8c-4.1,3.2-9.1,5.9-14.6,8.1l-1.9-2.4
				c5.6-2.1,10.2-4.6,14.3-7.6c-2.4-2.2-4.4-4.8-6-7.8c-1.6,2.1-3.5,3.8-5.4,5.4l-1.7-2.4c5.1-4.3,8.6-9.4,10.3-15.4L518.8,1318z
				 M532.6,1348.1v20h-2.9v-2.5h-16.5v2.5h-2.9v-20H532.6z M513.2,1362.8h16.5v-11.9h-16.5V1362.8z M514.5,1327.6
				c1.7,3.2,4,5.9,6.5,8.3c3.5-3,6.4-6.4,8.3-10.2h-13.7L514.5,1327.6z"/>
			<path fill="#7791E5" d="M564.4,1344.8v18.9h-15.9v4h-2.9v-22.9h7.8v-12.1h-10.3v-2.9h10.3v-11.3h3v11.3h9.7v2.9h-9.7v12.1H564.4z
				 M548.7,1360.8h13v-13.3h-13V1360.8z M565.3,1343.1l-1.9-2.2c4.9-5.9,8.1-13.7,9.8-23.3l2.9,0.5c-0.6,3.5-1.4,6.7-2.4,9.5h18.6v3
				h-4.8c-0.3,9.5-2.5,17.8-6.8,24.5c3.3,4.8,7.5,8.4,12.2,11.1l-1.6,2.5c-4.6-2.7-8.7-6.5-12.2-11.3c-3.2,4.3-7.3,7.8-12.4,10.8
				l-1.6-2.5c5.1-2.9,9.2-6.4,12.2-10.8c-3.2-4.9-5.9-10.8-7.8-17.6C568.4,1339.5,566.9,1341.4,565.3,1343.1z M572.8,1330.6
				l-1.4,3.3c1.9,7.3,4.4,13.3,7.6,18.4c3.7-6.2,5.6-13.5,5.7-21.9h-11.9L572.8,1330.6L572.8,1330.6z"/>
			<path fill="#7791E5" d="M600.4,1320.1h15.2v2.4c-1.6,5.4-3.5,10.8-5.7,16.5c3.3,4.8,5.1,9.2,5.4,13.5c0,2.2-0.6,4-1.6,4.9
				c-1.4,1.3-3.7,1.9-7,1.9l-1.1-3c0.6,0.2,1.3,0.2,1.7,0.2c1.9-0.2,3.3-0.5,4-1.1c0.6-0.5,1-1.6,1-3c0-4-1.7-8.3-5.4-13
				c2.5-6.4,4.3-11.9,5.6-16.5h-9.1v45.6h-3L600.4,1320.1L600.4,1320.1z M618.1,1322.3h12.4c-0.5-1.6-1-3-1.4-4.3l3-0.6
				c0.5,1.6,1.1,3.2,1.4,4.8h13.2v2.5h-5.4c-0.5,2.2-1.1,4.3-2.1,6.5h8.7v2.5h-32.1v-2.5h9.4c-0.5-2.1-1.1-4.1-1.9-6.5h-5.2
				L618.1,1322.3L618.1,1322.3z M619.8,1338.1h24.6v16h-10.6v4.6h14.6v2.5h-14.6v7h-3v-7H616v-2.5h14.8v-4.6h-11V1338.1
				L619.8,1338.1z M622.8,1345h18.7v-4.4h-18.9v4.4H622.8z M641.6,1351.6v-4.1h-18.9v4.1H641.6z M636.3,1331.3
				c1-2.1,1.6-4.3,2.1-6.5h-11.9c0.6,2.1,1.3,4.3,1.7,6.5H636.3z"/>
		</g>
		<g enable-background="new    ">
			<path fill="#7791E5" d="M347.7,1444.8H359v25.4c1.7-1.4,3.7-3.5,5.9-5.9l0.8,3.2c-3,3.2-6.2,5.9-9.7,8.6l-1.1-2.7
				c0.8-0.6,1.1-1.4,1.1-2.2v-23.3h-8.3L347.7,1444.8L347.7,1444.8z M353.9,1428.1c3.8,2.9,7.1,5.9,9.7,8.6l-2.1,2.1
				c-2.5-2.9-5.7-5.7-9.8-8.7L353.9,1428.1z M380,1427.5h3v4h14.1v2.5H383v4.4h12.1v2.5H383v4.4h15.6v2.5h-33.8v-2.5h15.4v-4.4
				h-11.8v-2.5H380v-4.4h-13.8v-2.5H380V1427.5z M371.9,1469.3v8.9H369v-25.9h24.8v21.6c0,2.7-1.4,4.1-4.3,4.1h-4.6l-0.8-2.7
				l4.6,0.2c1.6,0,2.2-0.6,2.2-2.1v-4L371.9,1469.3L371.9,1469.3L371.9,1469.3z M391.1,1459.6v-4.8H372v4.8H391.1z M371.9,1461.9
				v4.8H391v-4.8H371.9z"/>
			<path fill="#7791E5" d="M404.4,1438.8h7.3v-11.1h3v11.1h6v3h-6v3.2c2.4,2.7,4.6,5.7,7,9.1l-1.7,2.5c-2.1-3.7-3.8-6.5-5.4-8.6
				v30.2h-3v-29.3c-1.9,6.4-4.4,11.9-7.6,17l-1.3-3.3c4.3-6,7.3-13,8.9-20.8h-7.1L404.4,1438.8L404.4,1438.8z M438.8,1427.6
				c3,7.1,8.1,13.3,15.6,18.7l-1.7,2.5c-6.8-4.9-12.1-11.1-15.4-18.4c-4,7.9-9.1,14.1-15.2,18.6l-1.6-2.5
				c6.7-4.9,11.9-11.1,15.6-18.9L438.8,1427.6L438.8,1427.6z M421.8,1473.5h19.4c2.4-5.9,4.6-13.3,6.4-22.4l2.9,0.8
				c-1.7,8.1-3.8,15.2-6.4,21.6h9.2v3h-31.6v-3H421.8z M427.2,1452.6c1.6,4.8,3,10.2,4.3,16.2l-2.7,0.8c-1.1-5.1-2.4-10.5-4.3-15.9
				L427.2,1452.6z M429.2,1443.8h16.7v2.9h-16.7V1443.8z M435.9,1450.5c1.6,4.8,2.9,10,4,15.6l-2.7,0.8c-1.1-5.7-2.4-10.8-3.8-15.4
				L435.9,1450.5z"/>
			<path fill="#7791E5" d="M461.8,1432.8h21.1v-5.4h3v5.4H507v2.9h-17.8c4.3,4.6,11,8.3,20.2,10.8l-1.3,2.7
				c-10.3-3.3-17.5-7.9-21.6-13.5h-0.6v13h-3v-13h-0.6c-4.3,5.4-11.6,10-21.6,13.5l-1.6-2.5c9.4-2.9,16.4-6.5,20.6-11h-17.9
				L461.8,1432.8L461.8,1432.8z M460.7,1473.8h47.5v2.9h-47.5V1473.8z M468.1,1448.9h32.6v19.5h-32.6V1448.9z M471.2,1457.5h26.7
				v-5.7h-26.7V1457.5z M497.7,1465.8v-5.6H471v5.6H497.7z"/>
			<path fill="#7791E5" d="M551.5,1477.8l-0.8-3l5.6,0.2c1.6,0,2.4-0.8,2.4-2.5v-39.7H521v45.1h-3v-47.8h43.5v43.2
				c0,3-1.4,4.6-4.4,4.6L551.5,1477.8L551.5,1477.8z M538.8,1465.8c-1.9-3-4-6-6-8.9c-2.1,5.6-4.6,10.5-7.8,14.8l-1.9-2.4
				c3.2-4.3,5.7-9.4,7.6-15.2c-3-4-5.7-7.3-8.1-10l1.9-1.9c2.2,2.4,4.8,5.2,7.3,8.7c1.1-4,2.1-8.4,3-13.7l2.9,0.5
				c-1,5.9-2.2,11.3-3.7,16c2.1,2.7,4.3,6,6.8,10.2L538.8,1465.8z M555.3,1468.3c-1.9-3.3-4.1-6.7-6.4-10.2
				c-2.2,5.7-5.1,10.6-8.4,14.8l-1.9-2.4c3.3-4.3,6-9.4,8.3-15.4c-2.9-4.1-5.4-7.6-8.1-10.8l1.9-1.9c2.4,2.9,4.9,5.9,7.1,9.4
				c1.4-4.3,2.5-9.2,3.3-14.6l2.9,0.5c-1.1,6.2-2.4,11.9-4.1,17.2c2.4,3.7,4.8,7.3,7.1,11.3L555.3,1468.3z"/>
			<path fill="#7791E5" d="M590.1,1470.5c-5.6,2.1-11.8,3.8-18.6,5.2l-0.3-2.9c7.1-1.3,13.5-3,19.1-5.2v2.9H590.1z M583.6,1428.6
				c-2.9,7.5-5.7,13.3-8.7,17.8c2.4-0.3,5.2-0.8,8.6-1.6l3-5.9l2.5,1c-4.9,9.8-9.1,16.8-12.4,20.8c4.1-0.8,8.4-1.9,12.5-3.5v2.7
				c-5.7,1.9-11.1,3.3-16.2,4.1l-0.8-2.9c0.5-0.2,1-0.5,1.4-0.8c2.2-2.5,5.1-6.7,8.4-12.5c-3.8,0.8-7.1,1.4-9.8,1.7l-0.8-2.9
				c0.5-0.3,1-0.6,1.3-1.1c3.2-5.2,6-11.1,8.3-17.9L583.6,1428.6z M602.2,1427.8c-0.5,1.6-1.1,3.3-1.9,4.9h15.6v2.2
				c-2.2,4.8-5.2,8.9-9.2,12.5c4,3,8.9,5.4,14.8,7.1l-1.7,2.4c-6-1.7-11.1-4.4-15.2-7.8c-4.1,3.2-9.1,5.9-14.6,8.1l-1.9-2.4
				c5.6-2.1,10.2-4.6,14.3-7.6c-2.4-2.2-4.4-4.8-6-7.8c-1.6,2.1-3.5,3.8-5.4,5.4l-1.7-2.4c5.1-4.3,8.6-9.4,10.3-15.4L602.2,1427.8z
				 M616,1457.8v20h-2.9v-2.5h-16.5v2.5h-2.9v-20H616z M596.6,1472.4h16.5v-11.9h-16.5V1472.4z M597.9,1437.3c1.7,3.2,4,5.9,6.5,8.3
				c3.5-3,6.4-6.4,8.3-10.2H599L597.9,1437.3z"/>
			<path fill="#7791E5" d="M662.7,1477.3c-1.9,0-5.1,0-9.8-0.2c-3.7-0.2-6.5-0.5-8.6-1.1c-2.2-0.6-4.1-2.1-5.9-4.1
				c-0.6-1-1.4-1.4-2.1-1.4c-1.6,0-4,2.5-7.1,7.8l-2.2-2.1c3.2-4.9,5.9-7.6,8.1-8.4v-17.8h-8.3v-2.9h11.1v20.8
				c0.6,0.3,1.3,0.8,1.7,1.4c1.3,1.6,2.9,2.9,4.4,3.7c1.7,0.6,4.3,1.1,7.5,1.1c3.7,0,7.3,0.2,10.6,0.2h7.8l6-0.2l-0.8,3h-12.5
				L662.7,1477.3L662.7,1477.3z M630.1,1428.6c3.7,2.9,6.8,5.7,9.5,8.6l-2.1,2.2c-2.2-2.7-5.4-5.6-9.4-8.7L630.1,1428.6z
				 M642.4,1433.5h9.2c0.8-2.2,1.6-4.3,2.4-6.4l2.9,0.6c-0.5,1.6-1.3,3.5-2.1,5.7h20v2.9h-21.1c-1.7,4-3.8,7.6-6,10.8h10.2v-7.1h3
				v7.1h12.4v2.9h-12.5v7.6h14.9v2.9h-14.9v11h-3v-11H642v-2.9h15.6v-7.6h-13.2l-0.6-2.9c2.5-3,4.8-6.5,6.7-10.8h-7.9v-2.9h-0.2
				V1433.5z"/>
			<path fill="#7791E5" d="M683,1477.8l-0.6-2.9c2.1,0.2,3.7,0.2,4.4,0.2c1.6,0,2.4-1,2.4-2.7v-14.6c-2.4,1-4.9,1.9-7.6,2.7l-0.8-3
				c2.9-0.8,5.7-1.6,8.4-2.7v-13.2h-7.1v-3h7.1v-10.8h3v10.8h5.1v3h-5.1v11.9c2.4-1.1,4.1-2.1,5.4-2.7v3c-1.9,1.1-3.8,1.9-5.4,2.5
				v16.7c0,3-1.4,4.6-4.3,4.6H683V1477.8z M714.3,1450.8c-0.6,1.7-1.4,3.5-2.2,4.9h19.7v2.9h-6.5c-0.8,4.4-2.7,8.3-5.6,11.3
				c4,1.9,7.9,4,11.6,6.2l-1.6,2.4c-3.8-2.4-7.9-4.6-12.2-6.5c-3.5,2.9-9.4,4.9-17.6,6.7l-1.1-2.7c7-1.3,12.2-3.2,15.7-5.4
				c-3.3-1.6-7-3.2-11.3-4.9c1.6-2.2,3-4.4,4.3-6.8h-8.1v-2.9h9.7c0.8-1.7,1.6-3.5,2.4-5.2H714.3z M707.8,1436.8
				c1.6,2.7,2.9,5.6,4.1,8.6h5.9c1.6-3,3-6,4.1-9.2l2.9,1c-1.1,3.2-2.4,5.9-3.8,8.1h9.7v2.9h-30.8v-2.9h9.1
				c-1.3-2.9-2.5-5.2-3.7-7.3L707.8,1436.8z M715.1,1427.3c0.5,1.3,1.1,3.2,1.9,5.6h12.7v2.9h-28.4v-2.9H714
				c-0.6-1.9-1.3-3.5-2.1-4.9L715.1,1427.3z M710.7,1458.4c-1,1.7-2.2,3.7-3.7,5.7c3.5,1.3,7,2.7,10,4.3c2.9-2.5,4.8-5.9,5.6-10
				H710.7L710.7,1458.4z"/>
		</g>
	</g>
	<g>
		<path id="圆角矩形_2_1_" fill="#B8C9FF" d="M647.1,530.8h4c2.5,0,4.6,2.1,4.6,4.6v43c0,2.5-2.1,4.6-4.6,4.6h-4
			c-2.5,0-4.6-2.1-4.6-4.6v-43C642.5,532.8,644.6,530.8,647.1,530.8z M627.4,550.3H671c2.5,0,4.6,2.1,4.6,4.6v4
			c0,2.5-2.1,4.6-4.6,4.6h-43.5c-2.5,0-4.6-2.1-4.6-4.6v-4C622.8,552.4,624.9,550.3,627.4,550.3z M540.4,441.3h4
			c2.5,0,4.6,2.1,4.6,4.6v43c0,2.5-2.1,4.6-4.6,4.6h-4c-2.5,0-4.6-2.1-4.6-4.6v-43C535.8,443.4,537.9,441.3,540.4,441.3z
			 M520.5,460.9H564c2.5,0,4.6,2.1,4.6,4.6v3.8c0,2.5-2.1,4.6-4.6,4.6h-43.5c-2.5,0-4.6-2.1-4.6-4.6v-3.8
			C516.1,462.9,518.2,460.9,520.5,460.9z M482.7,576h9.8c2.5,0,4.6,2.1,4.6,4.6v65.9c0,2.5-2.1,4.6-4.6,4.6h-9.8
			c-2.5,0-4.6-2.1-4.6-4.6v-65.9C478.3,578.1,480.4,576,482.7,576z M454.5,604.3H521c2.5,0,4.6,2.1,4.6,4.6v9.5
			c0,2.5-2.1,4.6-4.6,4.6h-66.5c-2.5,0-4.6-2.1-4.6-4.6v-9.5C449.9,606.4,451.9,604.3,454.5,604.3z M875,548.9h6.8
			c2.5,0,4.6,2.1,4.6,4.6v55c0,2.5-2.1,4.6-4.6,4.6H875c-2.5,0-4.6-2.1-4.6-4.6v-55.1C870.4,550.8,872.5,548.9,875,548.9z
			 M850.9,572.8h55c2.5,0,4.6,2.1,4.6,4.6v6.8c0,2.5-2.1,4.6-4.6,4.6h-55c-2.5,0-4.6-2.1-4.6-4.6v-6.8
			C846.5,574.9,848.4,572.8,850.9,572.8z"/>
		<g id="形状_2">
			<path fill="#B8C9FF" d="M425.6,483.7L425.6,483.7c6.8,0,12.4,5.6,12.4,12.4s-5.6,12.4-12.4,12.4c-3.3,0-6.4-1.3-8.7-3.7
				s-3.7-5.4-3.7-8.7C413.2,489.3,418.7,483.7,425.6,483.7 M239.1,520.4c4.9,0,9.1,4,9.1,9.1c0,4.9-4,9.1-9.1,9.1
				c-4.9,0-9.1-4-9.1-9.1C230.2,524.4,234.2,520.4,239.1,520.4 M802.9,671.3c3.3,0,6.5,1.3,8.7,3.7c2.4,2.4,3.7,5.6,3.7,8.7
				c0,6.8-5.6,12.4-12.4,12.4c-6.8,0-12.4-5.6-12.4-12.4S796.1,671.3,802.9,671.3 M193.5,696.4c6.2,0,11.3,5.1,11.3,11.3
				c0,3-1.1,5.9-3.3,7.9c-2.1,2.1-4.9,3.3-7.9,3.3c-6.2,0-11.3-5.1-11.3-11.3C182.1,701.5,187.2,696.4,193.5,696.4L193.5,696.4
				L193.5,696.4 M425.6,471c-13.8,0-25.1,11.3-25.1,25.1s11.3,25.1,25.1,25.1l0,0c13.8,0,25.1-11.3,25.1-25.1l0,0
				C450.7,482.3,439.4,471,425.6,471L425.6,471z M239.1,507.7c-11.9,0-21.6,9.7-21.8,21.8c0,11.9,9.7,21.8,21.8,21.8l0,0
				c11.9,0,21.8-9.7,21.8-21.8S251.2,507.7,239.1,507.7L239.1,507.7z M802.9,658.6c-13.8,0-25.1,11.3-25.1,25.1s11.1,25.1,25.1,25.3
				c0,0,0,0,0.2,0c13.8,0,25.1-11.3,25.1-25.1l0,0C828,669.9,816.8,658.6,802.9,658.6L802.9,658.6z M193.5,683.7L193.5,683.7
				C193.4,683.7,193.4,683.7,193.5,683.7c-13.3,0-24.1,10.8-24,24.1c0,13.2,10.8,24,24,24l0,0c13.3,0,24-10.8,24-24.1l0,0
				C217.5,694.5,206.7,683.7,193.5,683.7L193.5,683.7z"/>
		</g>
		<path id="圆角矩形_3" fill="#B8C9FF" d="M331.9,562.8h0.8c2.5,0,4.6,2.1,4.6,4.6v15.9c0,2.5-2.1,4.6-4.6,4.6h-0.8
			c-2.5,0-4.6-2.1-4.6-4.6v-15.9C327.4,564.9,329.5,562.8,331.9,562.8z M363.9,581.1c1.4,2.4,0.6,5.4-1.7,6.8l-13,7.5
			c-2.4,1.4-5.4,0.5-6.8-1.9s-0.5-5.4,1.9-6.8l13-7.5C359.5,577.9,362.5,578.7,363.9,581.1L363.9,581.1z M363.9,617.8
			c-1.4,2.4-4.4,3.2-6.8,1.9l0,0l-13-7.5c-2.4-1.4-3.2-4.4-1.9-6.8c1.3-2.4,4.4-3.2,6.8-1.9l13,7.5
			C364.6,612.4,365.4,615.4,363.9,617.8z M332.3,636.2c-2.7,0-4.9-2.2-4.9-4.9l0,0v-15.1c0-2.7,2.2-4.9,4.9-4.9s4.9,2.2,4.9,4.9l0,0
			v15.1C337.3,634,335,636.2,332.3,636.2L332.3,636.2L332.3,636.2z M300.7,617.8c-1.4-2.4-0.5-5.4,1.9-6.8l13-7.5
			c2.4-1.3,5.4-0.5,6.8,1.9c1.3,2.4,0.5,5.4-1.7,6.7l-13,7.5C305.2,621,302,620.2,300.7,617.8L300.7,617.8z M300.7,581.1
			c1.4-2.4,4.4-3.2,6.8-1.9l0,0l13,7.5c2.4,1.4,3.2,4.4,1.7,6.8c-1.4,2.4-4.3,3.2-6.7,1.7l-13-7.5
			C300.1,586.5,299.3,583.5,300.7,581.1z M780.5,482.5h1.3c2.4,0,4.4,1.9,4.4,4.4l0,0v17.6c0,2.4-1.9,4.4-4.4,4.4l0,0h-1.3
			c-2.4,0-4.4-1.9-4.4-4.4l0,0v-17.6C776.1,484.4,778.2,482.5,780.5,482.5L780.5,482.5z M813.7,502c1.4,2.5,0.6,5.7-1.9,7.3
			l-13.3,7.9c-2.4,1.4-5.4,0.6-6.8-1.7l-0.2-0.2c-1.4-2.5-0.6-5.7,1.9-7.3l13.3-7.9c2.4-1.4,5.4-0.6,6.8,1.7
			C813.6,501.9,813.6,501.9,813.7,502z M813.7,540.8c-1.3,2.4-4.3,3.3-6.8,2.1c0,0-0.2,0-0.2-0.2l-13.3-7.9
			c-2.4-1.6-3.3-4.8-1.9-7.3c1.3-2.4,4.3-3.3,6.8-2.1c0,0,0.2,0,0.2,0.2l13.3,7.9C814.2,535,815,538.2,813.7,540.8L813.7,540.8z
			 M781.2,560.1c-2.9,0-5.1-2.4-5.1-5.2V539c-0.2-2.9,2.1-5.2,4.9-5.2c2.9-0.2,5.2,2.1,5.2,4.9c0,0.2,0,0.2,0,0.3v15.9
			C786.4,557.8,784,560.1,781.2,560.1L781.2,560.1z M748.8,540.8c-1.4-2.5-0.6-5.7,1.9-7.3l13.3-7.9c2.4-1.4,5.4-0.6,6.8,1.7
			c0,0,0,0.2,0.2,0.2c1.4,2.5,0.6,5.7-1.9,7.3l-13.3,7.9c-2.4,1.4-5.4,0.6-6.8-1.7C748.8,540.9,748.8,540.9,748.8,540.8L748.8,540.8
			z M748.8,502c1.3-2.4,4.3-3.3,6.8-2.1c0,0,0.2,0,0.2,0.2l13.3,7.9c2.4,1.6,3.3,4.8,1.9,7.3c-1.3,2.4-4.3,3.3-6.8,2.1
			c0,0-0.2,0-0.2-0.2l-13.3-7.9C748.1,507.6,747.3,504.4,748.8,502z"/>
	</g>
</g>
</svg>
