<?xml version="1.0" encoding="utf-8"?>
<!-- Generator: Adobe Illustrator 18.0.0, SVG Export Plug-In . SVG Version: 6.00 Build 0)  -->
<!DOCTYPE svg PUBLIC "-//W3C//DTD SVG 1.1//EN" "http://www.w3.org/Graphics/SVG/1.1/DTD/svg11.dtd">
<svg version="1.1" id="图层_1" xmlns="http://www.w3.org/2000/svg" xmlns:xlink="http://www.w3.org/1999/xlink" x="0px" y="0px"
	 viewBox="0 0 50 50" enable-background="new 0 0 50 50" xml:space="preserve">
<g>
	<g>
		<defs>
			<rect id="SVGID_1_" x="1" y="20.4" width="48" height="9.3"/>
		</defs>
		<clipPath id="SVGID_2_">
			<use xlink:href="#SVGID_1_"  overflow="visible"/>
		</clipPath>
		<path clip-path="url(#SVGID_2_)" fill="#FFFFFF" d="M25,20.4c-1.2,0-2.3,0.5-3.2,1.4c-1.1,0.8-1.4,1.8-1.4,3.2
			c0,1.4,0.3,2.4,1.2,3.3c0.9,0.9,2,1.4,3.2,1.4c1.2,0,2.4-0.5,3.3-1.4c0.8-0.9,1.2-2,1.2-3.3c0-1.4-0.5-2.4-1.2-3.2
			C27.4,20.9,26.2,20.4,25,20.4L25,20.4z M5.5,20.4c-1.2,0-2.3,0.5-3.2,1.4C1.5,22.5,1,23.6,1,24.9c0,1.4,0.5,2.4,1.4,3.3
			c0.8,0.8,1.8,1.2,3.2,1.2s2.4-0.5,3.3-1.4c0.8-0.8,1.2-1.8,1.2-3.2c0-1.4-0.5-2.4-1.2-3.2C7.9,20.9,6.9,20.4,5.5,20.4L5.5,20.4z
			 M47.7,21.8c-0.9-0.9-2-1.4-3.2-1.4c-1.2,0-2.3,0.5-3.2,1.4c-1.1,0.8-1.4,1.8-1.4,3.2c0,1.4,0.3,2.4,1.2,3.3
			c0.9,0.9,2,1.4,3.2,1.4c1.2,0,2.3-0.5,3.2-1.4c0.9-0.9,1.4-2,1.4-3.3C49.1,23.6,48.6,22.5,47.7,21.8L47.7,21.8z M47.7,21.8"/>
	</g>
</g>
</svg>
