<?xml version="1.0" encoding="utf-8"?>
<!-- Generator: Adobe Illustrator 22.1.0, SVG Export Plug-In . SVG Version: 6.00 Build 0)  -->
<svg version="1.1" id="图层_1" xmlns="http://www.w3.org/2000/svg" xmlns:xlink="http://www.w3.org/1999/xlink" x="0px" y="0px"
	 viewBox="0 0 85 85" style="enable-background:new 0 0 85 85;" xml:space="preserve">
<style type="text/css">
	.st0{fill:#8C8C8C;}
</style>
<g>
	<path class="st0" d="M42.5,83.7c-22.8,0-41.3-18.5-41.3-41.3c0-22.8,18.5-41.3,41.3-41.3c22.8,0,41.3,18.5,41.3,41.3
		C83.8,65.2,65.3,83.7,42.5,83.7z M42.5,5.1C21.9,5.1,5.2,21.8,5.2,42.4c0,20.6,16.7,37.3,37.3,37.3S79.8,63,79.8,42.4
		C79.8,21.8,63.1,5.1,42.5,5.1z"/>
</g>
<g>
	<g>
		<circle class="st0" cx="42.5" cy="19.2" r="3.9"/>
	</g>
	<g>
		<path class="st0" d="M42.5,69.5L42.5,69.5c-2.1,0-3.9-1.7-3.9-3.9V33.4c0-2.1,1.7-3.9,3.9-3.9h0c2.1,0,3.9,1.7,3.9,3.9v32.2
			C46.4,67.7,44.6,69.5,42.5,69.5z"/>
	</g>
</g>
</svg>
