<?xml version="1.0" encoding="utf-8"?>
<!-- Generator: Adobe Illustrator 18.0.0, SVG Export Plug-In . SVG Version: 6.00 Build 0)  -->
<!DOCTYPE svg PUBLIC "-//W3C//DTD SVG 1.1//EN" "http://www.w3.org/Graphics/SVG/1.1/DTD/svg11.dtd">
<svg version="1.1" id="图层_1" xmlns="http://www.w3.org/2000/svg" xmlns:xlink="http://www.w3.org/1999/xlink" x="0px" y="0px"
	 viewBox="0 0 200 200" enable-background="new 0 0 200 200" xml:space="preserve">
<g>
	<path fill="#B0BBFF" d="M141.8,37.8c13.6,0,24.7,11.1,24.7,24.7s-11.1,24.7-24.7,24.7h-24.1c-0.4,0-0.7-0.3-0.7-0.7v-24
		C117,48.9,128.1,37.8,141.8,37.8"/>
	<path fill="#576994" d="M135.6,39.6c13.6,0,24.7,11.1,24.7,24.7s-11.1,24.7-24.7,24.7h-24.1c-0.4,0-0.7-0.3-0.7-0.7v-24
		C110.8,50.7,122,39.6,135.6,39.6 M135.5,33C118.1,33,104,47.1,104,64.5v24.1c0,4.1,3.3,7.4,7.4,7.4h24.1C153,96,167,82,167,64.6
		S152.8,33,135.5,33z M64.3,39.6c13.7,0,24.8,11.1,24.8,24.8v24.1c0,0.4-0.3,0.7-0.7,0.7h-24c-13.7,0-24.8-11.1-24.8-24.8
		S50.6,39.6,64.3,39.6 M64.5,33C47.1,33,33,47.1,33,64.5S47.1,96,64.5,96h24.1c4.1,0,7.4-3.4,7.4-7.4V64.5C96,47.1,81.9,33,64.5,33z
		 M135.3,110.8c13.7,0,24.8,11.1,24.8,24.8s-11.1,24.8-24.8,24.8c-13.7,0-24.8-11.1-24.8-24.8v-24.1c0-0.4,0.3-0.7,0.7-0.7
		L135.3,110.8 M135.5,104h-24.1c-4.1,0-7.4,3.3-7.4,7.4v24.1c0,17.4,14.1,31.5,31.5,31.5s31.5-14.1,31.5-31.5S152.8,104,135.5,104
		L135.5,104z"/>
	<g>
		<path fill="#576994" d="M88.6,104H64.5c-13.7,0-25.2,8.6-29.6,20.8c0.9,0.1,6.7,1.4,6.7,1.4c3.7-8.9,12.6-15.3,22.9-15.3l24-0.1
			c0.4,0,0.7,0.3,0.7,0.7v24.1c0,13.7-11.1,24.8-24.8,24.8c-13.6,0-24.6-10.9-24.8-24.5c0-0.1-6.6,0.5-6.6,0.8
			c0.7,16.8,14.6,30.2,31.5,30.2c17.4,0,31.5-14.1,31.5-31.5v-24.1C96,107.3,92.7,104,88.6,104z"/>
		<circle fill="#576994" cx="38.2" cy="125.3" r="3.3"/>
		<circle fill="#576994" cx="36.3" cy="136.3" r="3.3"/>
	</g>
</g>
</svg>
