<?xml version="1.0" encoding="utf-8"?>
<!-- Generator: Adobe Illustrator 18.0.0, SVG Export Plug-In . SVG Version: 6.00 Build 0)  -->
<!DOCTYPE svg PUBLIC "-//W3C//DTD SVG 1.1//EN" "http://www.w3.org/Graphics/SVG/1.1/DTD/svg11.dtd">
<svg version="1.1" id="图层_1" xmlns="http://www.w3.org/2000/svg" xmlns:xlink="http://www.w3.org/1999/xlink" x="0px" y="0px"
	 width="50px" height="50px" viewBox="0 0 50 50" style="enable-background:new 0 0 50 50;" xml:space="preserve">
<style type="text/css">
	.st0{fill:#B0BBFF;stroke:#B0BBFF;stroke-width:0.9313;stroke-linecap:round;stroke-linejoin:round;stroke-miterlimit:10;}
	.st1{fill:#516289;}
</style>
<rect x="23.9" y="16.7" class="st0" width="9" height="2.5"/>
<g>
	<path class="st1" d="M39.8,21.3H21.6c-0.4,0-0.6-0.3-0.6-0.7c0-0.4,0.3-0.7,0.6-0.7h16.5L31,12.4h-12l-7.2,7.5h5
		c0.4,0,0.6,0.3,0.6,0.7s-0.3,0.7-0.6,0.7h-6.6c-0.3,0-0.5-0.2-0.6-0.5s0-0.6,0.2-0.8l8.6-8.9c0.1-0.1,0.3-0.2,0.4-0.2h12.5
		c0.2,0,0.3,0.1,0.4,0.2l8.6,8.9c0.2,0.2,0.3,0.5,0.2,0.8C40.3,21.1,40.1,21.3,39.8,21.3L39.8,21.3z"/>
	<path class="st1" d="M25,39.1c-0.2,0-0.3-0.1-0.5-0.2c-0.1-0.3-14.1-17.1-14.8-17.9c-0.3-0.3-0.3-0.8,0-1.1c0.3-0.3,0.7-0.3,0.9,0
		c0.6,0.7,11.9,14.4,14.4,17.3L39.4,20c0.2-0.3,0.7-0.3,0.9,0c0.3,0.3,0.3,0.8,0,1.1L25.5,38.8C25.3,39,25.1,39.1,25,39.1L25,39.1z"
		/>
	<path class="st1" d="M25,39.1c-0.2,0-0.5-0.2-0.6-0.4l-8.4-17.9C16,20.7,16,20.5,16,20.4l2.1-8.9c0.1-0.4,0.5-0.6,0.8-0.5
		c0.3,0.1,0.5,0.5,0.5,0.9l-2.1,8.6l8.3,17.6c0.2,0.3,0.1,0.8-0.3,1C25.2,39,25.1,39.1,25,39.1L25,39.1z"/>
	<path class="st1" d="M25,39.1c-0.1,0-0.2,0-0.3-0.1c-0.3-0.2-0.4-0.6-0.3-1l8.3-17.6l-2.1-8.6c-0.1-0.4,0.1-0.8,0.5-0.9
		c0.3-0.1,0.7,0.1,0.8,0.5l2.1,8.9c0,0.2,0,0.4-0.1,0.5l-8.4,17.9C25.4,38.9,25.2,39.1,25,39.1L25,39.1z"/>
</g>
</svg>
