<?xml version="1.0" standalone="no"?><!DOCTYPE svg PUBLIC "-//W3C//DTD SVG 1.1//EN" "http://www.w3.org/Graphics/SVG/1.1/DTD/svg11.dtd"><svg t="1617862168364" class="icon" viewBox="0 0 1024 1024" version="1.1" xmlns="http://www.w3.org/2000/svg" p-id="3052" xmlns:xlink="http://www.w3.org/1999/xlink" width="200" height="200"><defs><style type="text/css"></style></defs><path d="M489.472 342.016h184.32v51.2h-184.32z" fill="#DDDDDD" p-id="3053"></path><path d="M815.104 436.224H442.368c-8.192 0-12.288-6.144-12.288-14.336 0-8.192 6.144-14.336 12.288-14.336h337.92L634.88 253.952H389.12l-147.456 153.6h102.4c8.192 0 12.288 6.144 12.288 14.336s-6.144 14.336-12.288 14.336h-135.168c-6.144 0-10.24-4.096-12.288-10.24s0-12.288 4.096-16.384l176.128-182.272c2.048-2.048 6.144-4.096 8.192-4.096h256c4.096 0 6.144 2.048 8.192 4.096l176.128 182.272c4.096 4.096 6.144 10.24 4.096 16.384-4.096 6.144-8.192 10.24-14.336 10.24z" fill="#333333" p-id="3054"></path><path d="M512 800.768c-4.096 0-6.144-2.048-10.24-4.096-2.048-6.144-288.768-350.208-303.104-366.592-6.144-6.144-6.144-16.384 0-22.528 6.144-6.144 14.336-6.144 18.432 0 12.288 14.336 243.712 294.912 294.912 354.304L806.912 409.6c4.096-6.144 14.336-6.144 18.432 0 6.144 6.144 6.144 16.384 0 22.528L522.24 794.624c-4.096 4.096-8.192 6.144-10.24 6.144z" fill="#333333" p-id="3055"></path><path d="M512 800.768c-4.096 0-10.24-4.096-12.288-8.192L327.68 425.984v-8.192l43.008-182.272c2.048-8.192 10.24-12.288 16.384-10.24s10.24 10.24 10.24 18.432l-43.008 176.128 169.984 360.448c4.096 6.144 2.048 16.384-6.144 20.48-2.048-2.048-4.096 0-6.144 0z" fill="#333333" p-id="3056"></path><path d="M512 800.768c-2.048 0-4.096 0-6.144-2.048-6.144-4.096-8.192-12.288-6.144-20.48l169.984-360.448-43.008-176.128c-2.048-8.192 2.048-16.384 10.24-18.432 6.144-2.048 14.336 2.048 16.384 10.24l43.008 182.272c0 4.096 0 8.192-2.048 10.24l-172.032 366.592c-2.048 4.096-6.144 8.192-10.24 8.192z" fill="#333333" p-id="3057"></path></svg>