<?xml version="1.0" encoding="UTF-8"?>
<svg width="44px" height="44px" viewBox="0 0 44 44" version="1.1" xmlns="http://www.w3.org/2000/svg" xmlns:xlink="http://www.w3.org/1999/xlink">
    <!-- Generator: Sketch 53.2 (72643) - https://sketchapp.com -->
    <title>-g-nav_more_white</title>
    <desc>Created with Sketch.</desc>
    <g id="组件" stroke="none" stroke-width="1" fill="none" fill-rule="evenodd">
        <g id="NT/Icon/Nav/nav_more_white" fill="#FFFFFF">
            <g id="-g-nav_more_white">
                <rect id="Rectangle-5" opacity="0" x="0" y="0" width="44" height="44"></rect>
                <path d="M7.45712103,18 C9.91868813,18 11.9142857,19.9950075 11.9142857,22.4575574 C11.9142857,24.9193655 9.91868813,26.9142857 7.45712103,26.9142857 C4.99559754,26.9142857 3,24.9193655 3,22.4575574 C3,19.9948766 4.99559754,18 7.45712103,18 Z M37.5429662,18 C40.0044415,18 42,19.9950075 42,22.4575574 C42,24.9193655 40.0044415,26.9142857 37.5429662,26.9142857 C35.0814473,26.9142857 33.0857143,24.9193655 33.0857143,22.4575574 C33.0857143,19.9948766 35.0814473,18 37.5429662,18 Z M22.5000654,18 C24.9615843,18 26.9571428,19.9950075 26.9571429,22.4575574 C26.9571429,24.9193655 24.9615844,26.9142857 22.5000654,26.9142857 C20.0385465,26.9142857 18.0428571,24.9193655 18.0428571,22.4575574 C18.0428571,19.9948766 20.0385465,18 22.5000654,18 Z" id="nav_more_white" fill-rule="nonzero" transform="translate(22.500000, 22.457143) rotate(-90.000000) translate(-22.500000, -22.457143) "></path>
            </g>
        </g>
    </g>
</svg>