<?xml version="1.0" encoding="utf-8"?>
<!-- Generator: Adobe Illustrator 18.0.0, SVG Export Plug-In . SVG Version: 6.00 Build 0)  -->
<!DOCTYPE svg PUBLIC "-//W3C//DTD SVG 1.1//EN" "http://www.w3.org/Graphics/SVG/1.1/DTD/svg11.dtd">
<svg version="1.1" id="图层_1" xmlns="http://www.w3.org/2000/svg" xmlns:xlink="http://www.w3.org/1999/xlink" x="0px" y="0px"
	 viewBox="0 420 1080 1080" enable-background="new 0 420 1080 1080" xml:space="preserve">
<metadata><?xpacket begin="﻿" id="W5M0MpCehiHzreSzNTczkc9d"?>
<x:xmpmeta xmlns:x="adobe:ns:meta/" x:xmptk="Adobe XMP Core 5.6-c011 79.156289, 2014/03/31-23:39:12        ">
   <rdf:RDF xmlns:rdf="http://www.w3.org/1999/02/22-rdf-syntax-ns#">
      <rdf:Description rdf:about=""
            xmlns:xmpMM="http://ns.adobe.com/xap/1.0/mm/"
            xmlns:stRef="http://ns.adobe.com/xap/1.0/sType/ResourceRef#"
            xmlns:stEvt="http://ns.adobe.com/xap/1.0/sType/ResourceEvent#"
            xmlns:dc="http://purl.org/dc/elements/1.1/"
            xmlns:xmp="http://ns.adobe.com/xap/1.0/"
            xmlns:xmpGImg="http://ns.adobe.com/xap/1.0/g/img/"
            xmlns:xmpTPg="http://ns.adobe.com/xap/1.0/t/pg/"
            xmlns:stDim="http://ns.adobe.com/xap/1.0/sType/Dimensions#"
            xmlns:xmpG="http://ns.adobe.com/xap/1.0/g/">
         <xmpMM:DerivedFrom rdf:parseType="Resource">
            <stRef:instanceID>xmp.iid:fbb86ab1-5ceb-5443-a199-63b3fcde9bfa</stRef:instanceID>
            <stRef:documentID>xmp.did:fbb86ab1-5ceb-5443-a199-63b3fcde9bfa</stRef:documentID>
            <stRef:originalDocumentID>xmp.did:fbb86ab1-5ceb-5443-a199-63b3fcde9bfa</stRef:originalDocumentID>
         </xmpMM:DerivedFrom>
         <xmpMM:DocumentID>xmp.did:d99881c6-5aaa-364a-862d-38d9ce99fa7e</xmpMM:DocumentID>
         <xmpMM:InstanceID>xmp.iid:d99881c6-5aaa-364a-862d-38d9ce99fa7e</xmpMM:InstanceID>
         <xmpMM:OriginalDocumentID>xmp.did:fbb86ab1-5ceb-5443-a199-63b3fcde9bfa</xmpMM:OriginalDocumentID>
         <xmpMM:History>
            <rdf:Seq>
               <rdf:li rdf:parseType="Resource">
                  <stEvt:action>saved</stEvt:action>
                  <stEvt:instanceID>xmp.iid:fbb86ab1-5ceb-5443-a199-63b3fcde9bfa</stEvt:instanceID>
                  <stEvt:when>2018-03-06T10:07:27+08:00</stEvt:when>
                  <stEvt:softwareAgent>Adobe Illustrator CC 2014 (Windows)</stEvt:softwareAgent>
                  <stEvt:changed>/</stEvt:changed>
               </rdf:li>
               <rdf:li rdf:parseType="Resource">
                  <stEvt:action>saved</stEvt:action>
                  <stEvt:instanceID>xmp.iid:d99881c6-5aaa-364a-862d-38d9ce99fa7e</stEvt:instanceID>
                  <stEvt:when>2018-03-06T10:07:50+08:00</stEvt:when>
                  <stEvt:softwareAgent>Adobe Illustrator CC 2014 (Windows)</stEvt:softwareAgent>
                  <stEvt:changed>/</stEvt:changed>
               </rdf:li>
            </rdf:Seq>
         </xmpMM:History>
         <dc:format>image/svg+xml</dc:format>
         <xmp:CreatorTool>Adobe Illustrator CC 2014 (Windows)</xmp:CreatorTool>
         <xmp:CreateDate>2018-03-06T10:07:50+08:00</xmp:CreateDate>
         <xmp:MetadataDate>2018-03-06T10:07:50+08:00</xmp:MetadataDate>
         <xmp:ModifyDate>2018-03-06T10:07:50+08:00</xmp:ModifyDate>
         <xmp:Thumbnails>
            <rdf:Alt>
               <rdf:li rdf:parseType="Resource">
                  <xmpGImg:width>244</xmpGImg:width>
                  <xmpGImg:height>256</xmpGImg:height>
                  <xmpGImg:format>JPEG</xmpGImg:format>
                  <xmpGImg:image>/9j/4AAQSkZJRgABAgEASABIAAD/7QAsUGhvdG9zaG9wIDMuMAA4QklNA+0AAAAAABAASAAAAAEA&#xA;AQBIAAAAAQAB/+4ADkFkb2JlAGTAAAAAAf/bAIQABgQEBAUEBgUFBgkGBQYJCwgGBggLDAoKCwoK&#xA;DBAMDAwMDAwQDA4PEA8ODBMTFBQTExwbGxscHx8fHx8fHx8fHwEHBwcNDA0YEBAYGhURFRofHx8f&#xA;Hx8fHx8fHx8fHx8fHx8fHx8fHx8fHx8fHx8fHx8fHx8fHx8fHx8fHx8fHx8f/8AAEQgBAAD0AwER&#xA;AAIRAQMRAf/EAaIAAAAHAQEBAQEAAAAAAAAAAAQFAwIGAQAHCAkKCwEAAgIDAQEBAQEAAAAAAAAA&#xA;AQACAwQFBgcICQoLEAACAQMDAgQCBgcDBAIGAnMBAgMRBAAFIRIxQVEGE2EicYEUMpGhBxWxQiPB&#xA;UtHhMxZi8CRygvElQzRTkqKyY3PCNUQnk6OzNhdUZHTD0uIIJoMJChgZhJRFRqS0VtNVKBry4/PE&#xA;1OT0ZXWFlaW1xdXl9WZ2hpamtsbW5vY3R1dnd4eXp7fH1+f3OEhYaHiImKi4yNjo+Ck5SVlpeYmZ&#xA;qbnJ2en5KjpKWmp6ipqqusra6voRAAICAQIDBQUEBQYECAMDbQEAAhEDBCESMUEFURNhIgZxgZEy&#xA;obHwFMHR4SNCFVJicvEzJDRDghaSUyWiY7LCB3PSNeJEgxdUkwgJChgZJjZFGidkdFU38qOzwygp&#xA;0+PzhJSktMTU5PRldYWVpbXF1eX1RlZmdoaWprbG1ub2R1dnd4eXp7fH1+f3OEhYaHiImKi4yNjo&#xA;+DlJWWl5iZmpucnZ6fkqOkpaanqKmqq6ytrq+v/aAAwDAQACEQMRAD8A9U4q7FXYq7FXYq7FXYq7&#xA;FXYq7FXYq7FXYq7FUg1vW7V7V4LWZhOGAJXkNgd6NmfptNISuQ2aMmQVsidJ1qzlit7ZpS1yVCnk&#xA;DuwG++V59PIEyr0soZAdk2zEbXYq7FXYq7FXYq7FXYq7FXYq7FXYq7FXYq7FXYq7FXYq7FXYq7FU&#xA;PfXsNlbmeUEoCBRdzvlmLGZmgxlKhaIytk7FXYq7FXYq7FXYqkut6PC1m72lsDcFgTwG9Cd9szdN&#xA;qDxVI7NWSG2wRWmaVbQQQSNAq3SoOTdw1N8qzZ5SJF+llCAA80wzHZuxVb60Xq+lzX1acvTqOVPG&#xA;nXDwmr6ItdgS7FXYq7FXYq7FXYq7FXYq7FXYq7FXYq7FXYq7FXYq4gEUPTFUksrfTpWuLX601zbA&#xA;qfTetFNdqSd6nM3JKYqVcMvx0aYgHa9lWz+qyatO7Xby3EbMqQMCqqOhAB+1TI5OIYwOGh3pjXFz&#xA;TbMRtQ9/fQ2Vs08tSBsqjqWPQZZixGcqDGUqFpba+ZBJPHFcW7W6zf3UhJINenUD78yZ6OgSDdMB&#xA;l33CdZhNrsVdirsVdirsVQmp6gthbeuYzIOQWg269yctw4uOVXTGcqFsYOsqdZXUfSPECnp13+wV&#xA;60zafl/3fBbjcfqtk2l6it/bmYRmOjFaHetPA5rM2HwzV25EJcQRmUs2ndEFXYKPEmmEAlWwQRUG&#xA;oPQ4FdirsVdirsVdirsVdirsVdirsVdirsVdiriARQ9MVS/UNKjnsDa2wSAFg2woNjv0zIxZzGfF&#xA;LdhKFigjDbwGYTmNfWAoJKDlT55TxmqvZlQ5qmRSluvafLe2XCHeWNuar0rsRT8cydLlEJb8mvJG&#xA;wljQaxqc1tFc2/oRQGryUpXpWlfl2zJEseMExNktdSlVslzWuQ7FXYq7FXYq7FXYqlbaVOdeW/5L&#xA;6IXcb8q8CtMyhnHhcHVr4DxWmmYrY7FWM+guqa3cw3crIsPJYYwabA02rX55s+LwsQMRzceuKRtW&#xA;8vs8OoXVisnq20dSjdQCGA/Gu+V6oAwEqopxbEhkGYDe7FXYq7FXYq7FXYq7FXYq7FXYq7FXYq7F&#xA;XYq7FXYq7FXYqkes393BqtnFFIUjfjzUUoavQ1+jM3T4oyxyJG7TOREgnmYTc7FXYq7FWP35vNS1&#xA;d9PjlMMEK1cjvsKkgEV+1TNhi4cePjIslolcpUtgF1pWrQWvrGa2uNgrdqmnTtvjLhy4zKqIUXGV&#xA;MizXt7sVdiqW6joNney+sxaOU/aZab08QcycWqlAVzDXLGCr6dpltYRlIQSW3d23JpleXNKZ3ZRg&#xA;IovKmShe3aWtrJcEcxGN1B6mtMsx4+KQHeiUqFqkUqyRpINhIoZQetCK5CUaNKCvwJdirsVdirsV&#xA;dirsVdirsVY9qry3espp7TmC3Cg7bciRX+zNhgAhj46stE95Uu0OWaHUrjT/AFTPBGCUfrQgj+uD&#xA;UxBgJ1RTjNEhP8wG52KuxV2Kpdq9lqNz6X1O49DjXmOTJWtKbrXMnT5IRviFtc4k8mN6hZajDewR&#xA;XE/qTvT05ObNxq1BuRUb5scWSBiSBQaJRIO6cWek67FdRSTXvOJWBdfUkao8KEUzDyZ8RiQI7+4N&#xA;sYSvmnuYLc7FXYqk+paRdtefXtPlEdwRR1PQ0FPcfQczMOePDwTFhqlA3YW2GjXrXwvdRlEkifYQ&#xA;b79vACnthy6iPDwwGyIwN2U6zCbnYqo3d7a2kYkuH4ITxBoTv8gDk8eOUzQRKQHNfBPFPEssTco3&#xA;FVbx+/BKJiaKg2vyKXYqkdsuj/XLtI3c25Um4Vv7gHkK7nv4ZnTOThiTz6d7SOGyvQab+m6SNJ66&#xA;gfVkf+6A4/7rp7ZE8fhbVXXv+KduJOcw212KuxV2KuxV2KuxV2KuxVA6jo9nf0aWqyKKCRDQ08DW&#xA;uX4dRLHy5MJQEl+naVaWCsIQSzfadt2Pt2wZc8p80xgIovKWTsVdirsVdiqW6jo5u723uRLw9GlV&#xA;pWtG5eOZOLUcETGubXKFm0yzGbHYq7FXYq7FXYq7FVKe6trcAzyrHy+zyIFaZOMJS5C0Egc0h8zX&#xA;tpcWkSwTJIwkqQpB2ocztHjlGRsVs05ZAhF6NqNhFpkEclwiOoPJSwBHxHKtRhmZkgMoSFJrDNFM&#xA;gkicOh6MpqNsxJRINFsBtfgShryxjuLOW2WkQl7qB1rWtPoyzHkMZCXOmMo2KVYreNI4kIDGJQqs&#xA;QK7CmRlIknzSAqZFLsVdirsVdirsVdirsVdirsVdirsVdirsVdirsVdirsVdirsVdirsVdirsVS3&#xA;V9GGomI+r6RjqPs8gQae48MydPqPDva7a54+JINX0P8AR8KS+v6vNuNOPGmxPicz8Gp8Q1VNM8fC&#xA;rWHlr63aR3H1nh6gJ48K0oSOvIZDLrOCRFJjisXbIdMsBY2gtw/qUJJalOvtU5r82XjlbfCNCkVl&#xA;TJ2KuxV2KuxV2KuxV2KuxV2KuxV2KuxV2KuxVpmVQWYgKNyTsMQFaSSOReUbB1P7SkEfhhII5ra7&#xA;ArsVdirsVdirsVdirsVdirsVdiqXa3pst/bpHG6oyPyq1aUoR2zI02YYzZYZIcQROnWrWtlFbswZ&#xA;oxQkdNzXK80+KRKYihSIytk7FXYq7FXYq7FXYq7FXYq7FXYq7FXYq7FXYq7FUBrdnPd2DQwH46hu&#xA;JNOQHbL9NkEJ2WGSJI2Q/l3Truyhl+sfCZCCsdQaUrU7bb5Zq80ZkUxxRI5pvmI2sS/MT8xNO8m6&#xA;bHLJH9Z1C5qLOzB48uP2ndt6Itfp/VlaXSnKe4BryZBEPJIfzT/ObWOV3pNlJJakkAWdg00Y3O3M&#xA;rKf+GzZnR6eO0jv5lx/FmeSp/jn8/v8Aq3X3/cLP/VLH8vpe8f6b9qePJ+A7/HP5/f8AVuvv+4Wf&#xA;+qWP5fS94/037V48n4Dv8c/n9/1br7/uFn/qlj+X0veP9N+1ePJ+A7/HP5/f9W6+/wC4Wf8Aqlj+&#xA;X0veP9N+1ePJ+A7/ABz+f3/Vuvv+4Wf+qWP5fS94/wBN+1ePJ+A7/HP5/f8AVuvv+4Wf+qWP5fS9&#xA;4/037V48n4CnP+ZX536fGbu/sriK2j3ka404xx0/ym4JT78RpNNLYEX70eJMPS/yx/NS084JJZ3M&#xA;K2es26epJCpJjkStC8ddxQndT08Tmv1ejOLcbxb8eXi97Pcwm12KuxV2KuxV2KuxV2KuxV2KuxV2&#xA;KuxV2KuxV2KuxV2KuxV2KuxV88fnDENR/Nqw0+5YtbOtnb8QaUjlk+ID/gzm90J4cBI83Dzbze2a&#xA;nKNPgt7CxRbaCNAESMBQqLsqqB0Apmu08BO5S3bM0yNgln169/5aJP8Ag2/rmX4ce4NHHLvd9evf&#xA;+WiT/g2/rj4ce4Lxy73fXr3/AJaJP+Db+uPhx7gvHLvd9evf+WiT/g2/rj4ce4Lxy73fXr3/AJaJ&#xA;P+Db+uPhx7gvHLvd9evf+WiT/g2/rj4ce4Lxy70DqN7qMSrNHdzdaMjOzKa+KsSMuxY4HYxHyYSn&#xA;Ib2XkvlkJp/512qWKi3ie7I9JNkCzxEuij+X4zQdsu1Mf3BB32Z4j6g+ls5xz3Yq7FXYq7FXYq7F&#xA;XYq7FXYq7FXYq7FXYq7FXYq7FXYq7FXYq7FXz3+aH/k6tM/4y6f/AMnBm90n+Ln4uJl+t7L5i/3q&#xA;i/1P4nMHSfSU5+aU5ltDsVdirsVdirsVQeq/7yj/AFh/HLsH1MJ8nlWjg/8AK7LI9vrce/8AzyAy&#xA;3Vf3Mvc2YfqD6WzmnYOxV2KuxV2KuxV2KuxV2KuxV2KuxV2KuxV2KuxV2KuxV2KuxV2Kvnv80P8A&#xA;ydWmf8ZdP/5ODN7pP8XPxcTL9aJ138uPPa+fJNSe+VraW8NzFc+s3IQ+pyVeH+Svw8en0ZLT6jGc&#xA;dAdGGWJEt3o2VMEh82ebrPy1BbT3UEs0dxJ6ZaICiACpJJpv4DvlmPGZIQSfmPoFxrtlpNhzvWvA&#xA;K3EIqkZYVAau+w+1/L9+HwTVlbZXlSWPeaPOmneXLmxivopWivWYGdACsYWgJbuftdBlmPEZXSFG&#xA;w/MDRdR8yjQ7BXuSUZjex0MIKryIr4duXSu2E4SI2VTvVf8AeUf6w/jhwfUxnyQPl3UPywHmyygl&#xA;ij/xfxKC4Kvx5kHipavp+p6fQ0r2rXbMbWRzVI/5NycBjQ73p+ahy3Yq7FXYq7FXYq7FXYq7FXYq&#xA;7FXYq7FXYq7FXYq7FXYq7FXYq7FXz3+aH/k6tM/4y6f/AMnBm90n+Ln4uJl+t615i1fSf0pHafXY&#xA;PrQAQ2/qp6gYk/Dwryr7Zh6SB4bpc53QmZLSxL8yk1y50NdP0qw+um+cRTvQN6a9QQD0qf2/2fuy&#xA;7DQNkoLGPKPlTzT5U8026fVI72zvowlzdxjaIdW+Miq8T2/aHv0tyZIzir1TMRLB/wA0LPX9Ss7P&#xA;SdLsBcxXUlZ7igPpFCOO5+xWpq3htl+AgGyUFLfIXl7zL5Y8yz6dNZpcabdJyfUkFAvAErRjvu3w&#xA;lD8/nLLOM431Vn2q/wC8o/1h/HIYPqYz5PKtH/8AJ22X/MXH/wAmRl2q/uZe5sw/UH0tnMuwdirs&#xA;VdirsVdirsVdirsVdirsVdirsVdirsVdirsVdirsVdirsVfPf5of+Tq0z/jLp/8AycGb3Sf4ufi4&#xA;mX60z138mbhPOMmqfpQNa3F017xKH1RylMhStaVrty/DHT6vix1XLZhlhRZ5kGDsVdirsVdirsVQ&#xA;eq/7yj/WH8cuwfUwnyeVaP8A+Ttsv+YuL/kyMu1X9zL3NmH6g+ls5l2DsVdirsVdirsVdirsVdir&#xA;sVdirsVdirsVdirsVdirsVdirsVdir57/ND/AMnVpn/GXT/+Tgze6T/Fz8XEy/W9G8w+fPKDa2NN&#xA;GpxG8jb6u8Y5UEvIjgWpxrXbrmNpcExCyEZpAlE5c1OxVLfMWqXel6TNe2llJqE8dONvH1NTQk0q&#xA;aD2ByUIgmiaVg/8AytDzT/1K0/8AyW/6pZkeBH+ci2TeT/NGqa4tz9e0ibTTCV4PJXi/LsOao1R8&#xA;spyQEeRtWSZWlB6r/vKP9Yfxy7B9TCfJ5Vo//k7bL/mLi/5MjLtV/cy9zZh+oPpbOZdg7FXYq7FX&#xA;Yq7FXYq7FXYq7FXYq7FXYq7FXYq7FXYq7FXYq7FXYq+e/wA0P/J1aZ/xl0//AJODN7pP8XPxcTL9&#xA;bKNe/J3y7H5lbVVubms85vGt+ScObSFyoPHlxr71yvTauUoV3bMcsACyfC1uxV2KuxV2KuxVB6r/&#xA;ALyj/WH8cuwfUwnyeVaP/wCTtsv+YuL/AJMjLtV/cy9zZh+oPpbOZdg7FXYq7FXYq7FXYq7FXYq7&#xA;FXYq7FXYq7FXYq7FXYq7FXYq7FXYq+e/zQ/8nVpn/GXT/wDk4M3uk/xc/FxMv1vZfMX+9UX+p/E5&#xA;g6T6SnPzSnMtodirsVdirsVdiqD1X/eUf6w/jl2D6mE+TyrRyD+dtlT/AJbI/wDkyMu1X9zL3NmH&#xA;6g+ls5l2DsVdirsVdirsVdirsVdirsVdirsVdirsVdirsVdirsVdirsVdirxn89/IuqXVzb+atIi&#xA;eV7eNYr6OIEyKI2LJMoG5pWjU6UB8c23Z2oiBwS+DjZ4HmEit/z8uJtPhi1fSxcX0I4m8hlEYkHi&#xA;0ZQgH5GnsMyo6DhJ4TsejVLJxDfm7/leFn/1aZP+Ry/80ZZ+VPe127/leFn/ANWmT/kcv/NGP5U9&#xA;627/AJXhZ/8AVpk/5HL/AM0Y/lT3rbv+V4Wf/Vpk/wCRy/8ANGP5U9627/leFn/1aZP+Ry/80Y/l&#xA;T3rbv+V4Wf8A1aZP+Ry/80Y/lT3raA1X85XuYuFtpvpsPsmSXkoPiQFFfvGW48PCxItN/wAlPJer&#xA;6l5j/wAYarGyWsXOS1eQUM80oK8lB/YQE7+NKd8wu0dSBHgHMuTgx7297zRuW7FXYq7FXYq7FXYq&#xA;7FXYq7FXYq7FXYq7FXYq7FXYq7FXYq7FXYq7FUpuvKPlO7mae60WwuJ33eWW1hdyeu7MpOWjPMCh&#xA;I/NiYDuUv8C+Sf8AqXtM/wCkO3/5ow/mMn86XzK8Ee53+BfJP/UvaZ/0h2//ADRj+YyfzpfMrwR7&#xA;nf4F8k/9S9pn/SHb/wDNGP5jJ/Ol8yvBHud/gXyT/wBS9pn/AEh2/wDzRj+YyfzpfMrwR7nf4F8k&#xA;/wDUvaZ/0h2//NGP5jJ/Ol8yvBHud/gXyT/1L2mf9Idv/wA0Y/mMn86XzK8Ee5fD5M8nwyLLDoWn&#xA;xSqaq6WkCsD7EJgOfIf4j814I9ycAAAACgHQZUydirsVdirsVdirsVdirsVdirsVdirsVdirsVdi&#xA;rsVdirsVdirsVdirsVdirsVdirXJfEY0ruS+IxpW8VdirsVdirsVdirsVdirsVdirsVdirsVdirs&#xA;VdirsVdirsVdirsVdirsVdiqyUTFf3RAb3yUa6oKEdNQ8SfkQMtBgx3UmjvO4c/eckDFFFYY5+6t&#xA;9IOSsIpb6cn8p+7DYWncH/lP3Y2Fdwf+U/djYV3pv/KfuxsKuEc3QI33HBYWlwju+wcfeMFxTRVU&#xA;TUOxI+ZH8cgTBO6LhFwAfVIPhTKpV0ZC1TIpdirsVdirsVdirsVdirsVdirsVdirsVdirsVdirsV&#xA;dirsVdirsVdirsVdirsVdirsVdirsVdirsVdirsVdirsVdirsVdirsVdirsVdirsVdirsVdirsVd&#xA;irsVdirsVdirsVdirsVdirsVdirsVdirsVdirsVdirsVdirsVdirsVdirsVdirsVdirsVdirsVdi&#xA;rsVdirsVdirsVdirsVdirsVdirsVdirsVdirsVdirsVdirsVdirsVdirsVdirsVdirsVdirsVdir&#xA;sVdirsVdirsVdirsVdirsVdirsVdirsVdirsVdirsVdirsVdirsVdirsVdirsVdirsVdirsVdirs&#xA;VdirsVdirsVdiqT29xqF5JdLaXYSNJF4Ge2kWRKqS0ZRxDyXoVf6N+uZMoxiBY+R+3r8msEnk1pl&#xA;3qhs7m9u545kga6jEKRGMk28zxhuXN/tCPpTvjlhDiEQKuuveP2rEmrKRr5o11m9AJAGk/0xJOct&#xA;Vtwykwf7zbnfjy4/Z998yvyuPnv3dOff9TX4kvx/Ym9/r12lvp08PpQpewGUrIrzOZCIykUaRsjM&#xA;SHbenbtmPjwAmQNnhPu79yzlM7eag+p+YrNo4bhopHmYGEvAyBzI9fREiylFdAaAN1ptXJjFjluL&#xA;28/t5I4pBfcalrVzqE+nWk0MMqyFQViaVo4wOSvK3MIvPoBSvt3wRxwjESIJHvq/dskyJNBUsNZ1&#xA;aS6lhnjiLRQvJLBxMEiOrKEBLPIrK4LfEtRt1yOTDACx1Pv/AELGZtDWfmHVZbS3Qxot3dGGVJJP&#xA;iURXTyGMFU9MgqqU+jJz08AT3C/mKtAmaV7jzHNbaU01xxN4LlrdVijkYOI5xGxCjkfsnx65GOnE&#xA;p0OVX9lpOSg6PzDeCW6f9HztbrdRRB5SkfASJEoHCpkJ5Py+z3xOnjQ9Quj+n4LxnuZBmG2uxV2K&#xA;uxV2KuxV2KuxV2KuxV2KuxV2KuxV2KuxV2KuxV2KuxV2KpZEmoxapezGNfqTBWWnxSyMEUfCKgKB&#xA;Q9euXkxMAP4vsYb2e5bY2V2dGlgalvNcTXMlJFEnFJ7h5AGVWG/B6H4tsM5jjB5gAfYAFANJH/g+&#xA;9GqoouKW4tmX1gs/EHmtI6evXpv1pmV+cjwct78v+JavCN/j9acXFpJFY21nLaTagsQ+F7RktwgU&#xA;cVB5zxt9n3OY0Z3IyBEffv8A71sI2qr/AB70DpVnPbyc5tJvzIJ3eJ2uYnVYy5KBlNya8V9jluWY&#xA;I2lHl3H/AIljEV0P4+Kpr9rcXIuRb6ZeNdMvGG5juI44ywFA3H6wh+9MGnkI1co13Uf+J/SmYvof&#xA;x8URaRJHDdR/om9jjlib1BNNFLzAB+Bf9IlILcj4fPITNkHijz7iP96Ej3H8fFLrXQ/MFsiPxiuH&#xA;aaGdVlmYPEsVVWBpOL81RT9oCta7Hrl0s+OXeNiOXO+tMBCQRrafqn6CuY2gU3r3TXK26SAqwFwJ&#xA;QquwTqo2qBlXiQ8QG/TVfZTLhPD5rbgXkjSSLpV9zeUXCxtLaLEZURFj58ZyxVTGG+eGPCNuKPKu&#xA;UuXy81N9x+xPoBMIIxMQZuK+qV6FqfFT6cxJVe3JsC/Al2KuxV2KuxV2KuxV2KuxV2KuxV2KuxV2&#xA;KuxV2KuxV2KuxV2KuxV2KuxV2KuxV2KuxV2KuxV2KuxV2KuxV2KuxV2KuxV2KuxV2KuxV2KuxV2K&#xA;uxV2KpBN5wsVsL25iVpntVd4kjSSRXQKWjdmRCEV+J3OwzMGjlxAHa/c1HKKJTFdZs3sp7yISvHb&#xA;sVmQxvHIpABNUlCMKBq/LKPBkJCJrfz/AFM+MVaAPmy3WeVXtLhIYoopvWKilJmdRXegHwbGu/0Z&#xA;d+UNDcXZ+ymHi+SM1HVpbO2iuBZSzRycOQBjRkMjKqqwdl3q3bKseISNWAylKui221i6mv2sn06W&#xA;J0RJJXZ4SqpIXVT8LkneNumGWECPFxD7fx1USN1Td1rEiyTxWlnLdS20qRzceKqOQR2oSeojkr+G&#xA;McI2MiBY/H2qZdwVrfVIJWuFdXt2tlWSYTALRG5ENUEinwHISxEV1tIkl1t5qWSQCW0mCtGj8oke&#xA;WjSklEbiuzGLi5Hvl8tLXIj7vxvswGTyVbnzPYQ29nOod0u2YqOElVijNJJGAViAtR865GOlkSR3&#xA;ff0CTkGzk8z6cbieN2ZYYmRI5wkjIxdQT8SqVFCwG564nSyod/wXxAo6t5wsdOedWCyGD7X72NSW&#xA;7rxJ5VHyyWLRynXn5FEsoCI0vzDbXpkDSWycV5oI5/VJQdWb4UCgbdzkMunMe/5MozBRD6tb/XLW&#xA;3hdJVuDIC6uDxKLy7V65AYjwknoni3XnVrD6oLxZDJbMxRZI0d6kEg0CqSRVevTB4Ur4eq8Qq0Da&#xA;eabGSq3KyW0hmMMfKKbi9WpGQxRftAjr3y2elkOW+18x8erEZB1VLrzDa2uoyWsySLDDCJZpxHKV&#xA;Qs1FDEJxo1Go1abGuCGnMo2OZPkkzANN6brv1uSKCa0mtbqRC7RyAUAHvWv4Y5MHDZBBCxnaEbza&#xA;ptjNFYTVVfUMcrRKfTMRmDgq8g+yOnXLPym9GQ+3vryY+LtyRdvrqtYX93cwNANP5GeMEOSqwpPV&#xA;SKD7MgyqWD1RiDfF+umQnsSeiZo4dFcdGAI+nKSKZt4FdirsVdirsVdirsVdirsVdiriKgitK7VH&#xA;XFWES6dH9WuNLsLh4buaWWzjhRYnBt/hV2m5o7cEWvQip26nNoMm4nIWAAevPy35uNw9AmGnzRW1&#xA;ndi6v7oag8q/W7fhC8omK8f3SLD8SyhfhNCKDt8WU5AZSFRHDW3Oq89+jOJobndK4dK1aPUJBJJO&#xA;bW3gs5DYxiFpkiWWcwj7BV2iKcuIHegrxXMg5YGO1WTLferqN9dr/HMsBE38v0ptq0dpqKWEEN3P&#xA;PPdPEQFkaP8AcxS85JXjQIoIClalR8VMx8RMOIkAAX8yNgzlRrdWtNJiTzHdUuLk+lbWkg5TyGpM&#xA;txs1T8S/D0Pv45GeUnENhzl0HdFIj6vl+lJ7qW0k1SeaRreKO9klkjnufUoy24itwFCPH1KMa5kR&#xA;EhAAX6a5V1s9zWav3oi0hsbux1m1UwSRJDG7y2pkUPs7BH5u5oOPSvQ5CcpRlA78+vwZAAghqGI/&#xA;6MlTbpNParDCCFdyIyZbgDruW41/ycJPPrQl9+w/HegLL76ysOnxTPPaTw2F/A/1eEMXMTwR/YMc&#xA;vGOTjyqAO2+GFXIiiDKJ3PfxeY3Cm9vcVa6SOx0uG2WeNIb9LcR2bGkgneVAzRL1KtyLN4H5nIwJ&#xA;nMmt43v5UeaTsK70N5oT/cw8F1dNJC8HqRJI8Uaxl3dTwDLxrxH2jVvfJ6U+iwN789/x8kZOe6K8&#xA;sS/BqNwJJJLWB+K2MPCWM8o1c8EVdjUnZKDxGV6kfSOp6nb8fFOPqoXmifXJ7eCZki1K6ee6khVq&#xA;iKkapHG/AglOFEfxqfHJwz8IJH0ih79+fv6hBhfvT0a3Hb2MfqWM6XIb0F0+JAXLIvI+lUqjIF3D&#xA;A07ddsxPAuXMVzv9fm2cdDkgbPU7G+uItQ1K9toRF8Vpp/qrWJiKF5qkVlA2pSi+53y2eKUAYxBP&#xA;ea5+7y+9iJA7koXWZLebV55FlAl52drEAxHMxl55RQH4qJKK5ZhBEBt/OP3AfaET5/JT8qPaRXtu&#xA;LWaJLa6t43PpIh9S5WFVliaXxUKJOI3J5HsclqxIxNg2D8hexr7PkjHV7KFvbNJFbjUhNpdtJHDA&#xA;8shjSoFoyEcv3igN03ofkclKVE8NSO56/wA5AHft/YmyR6e+ja3b2k8l4skbia5qsvN2txHxT0hv&#xA;xRFFAK5jkyE4EivLl182e1GmRJx4LxFFoKClKD5ZhlubwK7FXYq7FXYq7FXYq7FXYq7FXYq0qIpJ&#xA;VQCdyQKVOG1boK1pv44Fa4qGLUHIgAt3IFaD8cbVugrypv0r3pirqCtabnYn5YqtEcYIIUAgUBA6&#xA;A70w2rZjQliVFWFGNOoHY/fjatCOMEEKKqKKaDYeAxtV2BWiiFgxUFl+ySNxhtXcV5FqDkQAT3oO&#xA;n68CuCqCSAAW3Yjv23xtWhDEJDKEUSMKM4A5EDsThs1S0uoMCrXiicguisR0qAf14QSFpr0YeYf0&#xA;15itGoKiux3+jHiK0u4rtsPh+z7dtsFq5kRxxZQy+BFRiCrlREHFVCr4AUGJKt4q7FXYq7FXYq7F&#xA;XYq//9k=</xmpGImg:image>
               </rdf:li>
            </rdf:Alt>
         </xmp:Thumbnails>
         <xmpTPg:MaxPageSize rdf:parseType="Resource">
            <stDim:w>1080.000000</stDim:w>
            <stDim:h>1080.000000</stDim:h>
            <stDim:unit>Pixels</stDim:unit>
         </xmpTPg:MaxPageSize>
         <xmpTPg:NPages>1</xmpTPg:NPages>
         <xmpTPg:HasVisibleTransparency>False</xmpTPg:HasVisibleTransparency>
         <xmpTPg:HasVisibleOverprint>False</xmpTPg:HasVisibleOverprint>
         <xmpTPg:PlateNames>
            <rdf:Seq>
               <rdf:li>Cyan</rdf:li>
               <rdf:li>Magenta</rdf:li>
               <rdf:li>Yellow</rdf:li>
            </rdf:Seq>
         </xmpTPg:PlateNames>
         <xmpTPg:SwatchGroups>
            <rdf:Seq>
               <rdf:li rdf:parseType="Resource">
                  <xmpG:groupName>默认色板组</xmpG:groupName>
                  <xmpG:groupType>0</xmpG:groupType>
               </rdf:li>
            </rdf:Seq>
         </xmpTPg:SwatchGroups>
      </rdf:Description>
   </rdf:RDF>
</x:xmpmeta>
                                                                                                    
                                                                                                    
                                                                                                    
                                                                                                    
                                                                                                    
                                                                                                    
                                                                                                    
                                                                                                    
                                                                                                    
                                                                                                    
                                                                                                    
                                                                                                    
                                                                                                    
                                                                                                    
                                                                                                    
                                                                                                    
                                                                                                    
                                                                                                    
                                                                                                    
                                                                                                    
                           
<?xpacket end="w"?>
	</metadata>
<g>
	<path id="椭圆_1" fill="#E5EBFF" d="M540,1128.4c102.4,0,185.5,7.1,185.5,15.9c0,8.7-83.1,15.9-185.5,15.9s-185.5-7.1-185.5-15.9
		S437.6,1128.4,540,1128.4z"/>
	<g>
		<g id="形状_2">
			<path fill="#B8C9FF" d="M378.8,516.9c5.4,0,9.8,4.4,9.8,10c0,5.4-4.4,9.8-10,9.8c-2.7,0-5.1-1.1-7-2.9c-1.9-1.9-2.9-4.3-2.9-7
				C368.9,521.3,373.4,517,378.8,516.9 M770.1,532.3c3.2,0,6.2,1.3,8.4,3.5s3.5,5.2,3.5,8.4c0,6.5-5.4,11.9-11.9,11.9
				c-3.2,0-6.2-1.3-8.4-3.5s-3.5-5.2-3.5-8.4C758.2,537.7,763.6,532.3,770.1,532.3 M606.7,569.3c8.1,0,14.6,6.5,14.6,14.6
				c0,4-1.6,7.6-4.3,10.3s-6.5,4.3-10.5,4.3c-8.1,0-14.8-6.5-14.8-14.6c0-4,1.6-7.6,4.3-10.3C599.1,570.9,602.7,569.3,606.7,569.3
				L606.7,569.3L606.7,569.3 M199.3,602.8c5.4,0,9.8,4.4,9.8,10c0,5.4-4.4,9.8-10,9.8c-2.7,0-5.1-1.1-7-2.9c-1.9-1.9-2.9-4.3-2.9-7
				C189.5,607.3,193.9,602.8,199.3,602.8 M304.3,733.8c0.6,0,1,0.5,1,1c0,0.2,0,0.5-0.3,0.8s-0.6,0.3-0.8,0.3c-0.6,0-1-0.5-1-1
				C303.2,734.3,303.7,733.8,304.3,733.8L304.3,733.8 M378.8,504.2c-12.5,0-22.6,10.2-22.6,22.6c0,12.5,10,22.7,22.6,22.7l0,0
				c12.5,0,22.6-10.2,22.6-22.6l0,0C401.3,514.3,391.3,504.3,378.8,504.2L378.8,504.2z M770.1,519.6c-13.7,0-24.6,11-24.6,24.6
				c0,13.7,11,24.6,24.6,24.6l0,0c13.7,0,24.6-11,24.6-24.6C794.8,530.7,783.8,519.6,770.1,519.6L770.1,519.6z M606.7,556.6
				L606.7,556.6L606.7,556.6c-15.2,0-27.5,12.2-27.5,27.5c0,15.1,12.2,27.3,27.5,27.3l0,0c15.1,0,27.3-12.2,27.3-27.5l0,0
				C634.2,568.8,621.8,556.6,606.7,556.6L606.7,556.6z M199.3,590.1c-12.5,0-22.6,10.2-22.6,22.6c0,12.5,10,22.7,22.6,22.7l0,0
				c12.5,0,22.6-10.2,22.6-22.6C221.9,600.3,211.9,590.1,199.3,590.1L199.3,590.1z M304.3,721.1L304.3,721.1
				c-7.6,0-13.7,6.2-13.7,13.8s6.2,13.7,13.7,13.7l0,0c7.6,0,13.7-6.2,13.7-13.8S311.8,721.1,304.3,721.1L304.3,721.1z"/>
		</g>
		<path id="圆角矩形_2_拷贝" fill="#B8C9FF" d="M654,483.8h5.4c2.5,0,4.6,2.1,4.6,4.6v49.4c0,2.5-2.1,4.6-4.6,4.6H654
			c-2.5,0-4.6-2.1-4.6-4.6v-49.4C649.4,485.9,651.5,483.8,654,483.8z M632.1,505.9h49.4c2.5,0,4.6,2.1,4.6,4.6v5.4
			c0,2.5-2.1,4.6-4.6,4.6h-49.4c-2.5,0-4.6-2.1-4.6-4.6v-5.4C627.5,508,629.6,505.9,632.1,505.9z M532.7,423.2h5.4
			c2.5,0,4.6,2.1,4.6,4.6v49.4c0,2.5-2.1,4.6-4.6,4.6h-5.4c-2.5,0-4.6-2.1-4.6-4.6v-49.4C528.1,425.2,530.2,423.2,532.7,423.2z
			 M510.8,445.3h49.4c2.5,0,4.6,2.1,4.6,4.6v5.4c0,2.5-2.1,4.6-4.6,4.6h-49.4c-2.5,0-4.6-2.1-4.6-4.6v-5.4
			C506.2,447.2,508.2,445.3,510.8,445.3L510.8,445.3z M730.7,614.7h12.9c2.1,0,3.7,1.6,3.7,3.7l0,0V706c0,2.1-1.6,3.7-3.7,3.7l0,0
			h-12.9c-2.1,0-3.7-1.6-3.7-3.7l0,0v-87.7C727.1,616.3,728.8,614.7,730.7,614.7z M693.4,652h87.7c2.1,0,3.7,1.6,3.7,3.7l0,0v12.9
			c0,2.1-1.6,3.7-3.7,3.7l0,0h-87.7c-2.1,0-3.7-1.6-3.7-3.7l0,0v-12.9C689.8,653.8,691.4,652,693.4,652L693.4,652L693.4,652z
			 M421,561.7h8.7c2.1,0,3.7,1.6,3.7,3.7l0,0v71.3c0,2.1-1.6,3.7-3.7,3.7l0,0H421c-2.1,0-3.7-1.6-3.7-3.7l0,0v-71.3
			C417.4,563.3,419.1,561.7,421,561.7z M389.8,593h71.3c2.1,0,3.7,1.6,3.7,3.7l0,0v8.7c0,2.1-1.6,3.7-3.7,3.7l0,0h-71.3
			c-2.1,0-3.7-1.6-3.7-3.7l0,0v-8.7C386.1,594.5,387.8,593,389.8,593z"/>
		<path id="圆角矩形_3" fill="#B8C9FF" d="M263,474L263,474c2.5,0,4.6,2.1,4.6,4.6l0,0v14c0,2.5-2.1,4.6-4.6,4.6l0,0
			c-2.5,0-4.6-2.1-4.6-4.6v-14C258.4,476.1,260.5,474,263,474z M292.4,490.8c1.3,2.2,0.5,4.9-1.6,6.2l0,0l-12.1,7
			c-2.2,1.3-5.1,0.5-6.4-1.7s-0.5-4.9,1.6-6.2l0,0l12.1-7C288.3,488,291.1,488.6,292.4,490.8z M292.4,524.7c-1.3,2.2-4.1,3-6.4,1.7
			l-12.1-7c-2.2-1.3-3-4-1.7-6.2l0,0c1.3-2.2,4.1-3,6.4-1.7l12.1,7C292.9,519.6,293.7,522.4,292.4,524.7L292.4,524.7z M262.9,541.5
			c-2.5,0-4.6-2.1-4.6-4.6v-13.8c0-2.5,2.2-4.6,4.8-4.6s4.4,2.1,4.6,4.6v13.8C267.5,539.4,265.4,541.5,262.9,541.5L262.9,541.5z
			 M233.3,524.7c-1.3-2.2-0.5-4.9,1.6-6.2l0,0l12.1-7c2.2-1.3,5.1-0.5,6.4,1.7c1.3,2.2,0.5,4.9-1.6,6.2l0,0l-12.1,7
			C237.4,527.7,234.6,526.9,233.3,524.7L233.3,524.7z M233.3,490.8c1.3-2.2,4.1-3,6.4-1.7l12.1,7c2.2,1.3,3,4,1.7,6.2l0,0
			c-1.3,2.2-4.1,3-6.4,1.7l-12.1-7C232.8,495.9,232,493.2,233.3,490.8C233.3,491,233.3,490.8,233.3,490.8L233.3,490.8z M873.1,572.6
			L873.1,572.6c2.5,0,4.6,2.1,4.6,4.6v14c0,2.5-2.1,4.6-4.6,4.6l0,0c-2.5,0-4.6-2.1-4.6-4.6v-14
			C868.4,574.7,870.5,572.6,873.1,572.6z M902.8,589.5c1.3,2.2,0.5,4.9-1.6,6.2l0,0l-12.1,7c-2.2,1.3-5.1,0.5-6.4-1.7
			c-1.3-2.2-0.5-4.9,1.6-6.2l0,0l12.1-7C898.6,586.6,901.3,587.2,902.8,589.5L902.8,589.5z M902.8,623.3c-1.3,2.2-4.1,3-6.4,1.7
			l-12.1-7c-2.2-1.3-3-4-1.7-6.2l0,0c1.3-2.2,4.1-3,6.4-1.7l12.1,6.8C903.2,618.2,904,621.1,902.8,623.3L902.8,623.3L902.8,623.3z
			 M873.2,640.1c-2.5,0-4.6-2.1-4.6-4.6v-13.8c0-2.5,2.1-4.6,4.6-4.6s4.6,2.1,4.6,4.6v13.8C877.8,638.1,875.8,640.1,873.2,640.1
			L873.2,640.1L873.2,640.1z M843.7,623.3c-1.3-2.2-0.5-4.9,1.6-6.2l0,0l12.1-7c2.2-1.3,5.1-0.5,6.4,1.7c1.3,2.2,0.5,4.9-1.6,6.2
			l0,0l-12.1,7C847.8,626.3,844.9,625.5,843.7,623.3L843.7,623.3z M843.7,589.5c1.3-2.2,4.1-3,6.4-1.7l12.1,7c2.2,1.3,3,4,1.7,6.2
			l0,0c-1.3,2.2-4.1,3-6.4,1.7l-12.1-7C843.2,594.5,842.4,591.8,843.7,589.5C843.7,589.6,843.7,589.5,843.7,589.5L843.7,589.5z"/>
	</g>
	<g enable-background="new    ">
		<path fill="#7791E5" d="M371.2,1323.7H383v26.5c2.4-1.9,5.1-4,7.8-6.7l0.8,3.3c-3.8,3.5-7.8,6.5-11.6,9.1l-1.3-2.9
			c0.8-0.6,1.3-1.4,1.3-2.1v-24.1h-8.7L371.2,1323.7L371.2,1323.7z M377.2,1306.4c4,3,7.3,6,10,9.2l-2.1,2.2c-2.5-3-5.9-6-10-9.2
			L377.2,1306.4z M390.5,1309.4h32.9v3H411v40.2c0,3.3-1.6,4.9-4.9,4.9h-7.5l-0.6-3c3.3,0.2,5.6,0.2,7,0.2c1.9,0,2.9-1,2.9-3v-39.4
			h-17.3v-2.9H390.5z"/>
		<path fill="#7791E5" d="M435.5,1315h23.7c1.9-3,3.5-6.2,4.8-9.4l3,1c-1.4,3.3-2.9,6.2-4.6,8.4H473v23h-17.2v5.9h23.7v3h-23.7v11.3
			h-3.2v-11.3H429v-3h23.7v-5.9h-17.2V1315z M438.5,1325.1h14.1v-7.3h-14.1V1325.1z M452.6,1335.1v-7.3h-14.1v7.3H452.6z
			 M443.8,1305.8c1.9,2.2,3.8,4.8,5.6,7.8l-2.7,1.3c-1.7-2.9-3.7-5.4-5.6-7.8L443.8,1305.8z M455.8,1317.8v7.3H470v-7.3H455.8z
			 M470,1335.1v-7.3h-14.1v7.3H470z"/>
		<path fill="#7791E5" d="M492,1335.3h38.9v3H513v14.8h22.7v3h-48.4v-3h22.6v-14.8H492V1335.3z M511.1,1305.6c1,2.1,1.7,4.1,2.2,6.4
			h22.1v11h-3v-8.1h-41.8v8.1h-3v-11h22.9c-1-2.2-1.7-4.1-2.5-5.7L511.1,1305.6z M507,1321.6c-4.3,4.1-9.8,7.5-16.5,10.2l-1.4-2.9
			c6.4-2.4,11.8-5.6,16-9.5L507,1321.6z M516.5,1318.9c6,2.9,11.4,6.2,16.5,10.3l-1.7,2.7c-5.4-4.6-10.8-8.1-16.4-10.5L516.5,1318.9
			z"/>
		<path fill="#7791E5" d="M549.2,1335.3h38.9v3h-17.9v14.8h22.7v3h-48.4v-3H567v-14.8h-17.8V1335.3z M568.3,1305.6
			c1,2.1,1.7,4.1,2.2,6.4h22.1v11h-3v-8.1h-41.8v8.1h-3v-11h22.9c-1-2.2-1.7-4.1-2.5-5.7L568.3,1305.6z M564.1,1321.6
			c-4.3,4.1-9.8,7.5-16.5,10.2l-1.4-2.9c6.4-2.4,11.8-5.6,16-9.5L564.1,1321.6z M573.7,1318.9c6,2.9,11.4,6.2,16.5,10.3l-1.7,2.7
			c-5.4-4.6-10.8-8.1-16.4-10.5L573.7,1318.9z"/>
		<path fill="#7791E5" d="M613.4,1306.1c-1,5.2-1.6,8.7-2.1,10.6h12.1v1.9c-0.6,9.5-3,17.6-6.8,24.5c3.8,2.9,6.7,5.4,9.1,7.5
			l-2.1,2.5c-2.2-2.1-5.1-4.6-8.6-7.3c-3.2,4.8-7.3,8.7-12.2,12.1l-2.1-2.5c4.9-3.2,8.9-7,11.9-11.4c-3.3-2.5-6.7-4.9-10-7.3
			c1.9-5.4,3.5-11,4.9-16.7h-7.1v-3h7.8c0.8-4,1.4-7.6,2.1-11L613.4,1306.1z M620.5,1319.6h-9.8c-1.4,6.4-2.9,11.6-4.6,15.7
			c3.3,2.4,6,4.3,8.1,5.7C617.8,1335,619.9,1327.8,620.5,1319.6z M648.3,1311.3v44.2h-3v-3.5h-13v3.5h-3v-44.2H648.3z M632.3,1349
			h13v-34.6h-13V1349z"/>
		<path fill="#7791E5" d="M682.5,1305.6h3v14l17.2-3.8c0,11-0.2,17.6-0.5,20.2c-0.5,4-2.9,5.9-7.1,5.9h-2.5l-0.8-2.9h4.1
			c2.2,0,3.5-1.6,3.8-4.8c0.2-1.7,0.2-6.5,0.2-14.5l-14.3,3.2v21.4h-3v-20.8l-13.3,2.9v22.2c0,3,1.4,4.6,4.3,4.6H699
			c2.4,0,4-0.5,5.1-1.3c1-1,1.6-4.1,2.1-9.7l2.9,1c-0.5,6.2-1.3,9.8-2.5,11.1c-1.3,1.3-3.5,1.9-7,1.9h-26.5c-4.4,0-6.7-2.4-6.7-7.3
			V1327l-9.5,2.1v-3l9.5-2.2V1310h3v13l13.3-3v-14.4H682.5z"/>
	</g>
	<g enable-background="new    ">
		<path fill="#7791E5" d="M204.2,1426.8c-0.2,5.7-0.8,11.1-2.2,16.4l-2.5-0.6c1.3-5.1,2.1-10.3,2.2-15.9L204.2,1426.8z
			 M207.9,1415.8h3v51.8h-3V1415.8z M215.2,1425.2c1.4,3.3,2.9,7.6,4.3,12.7l-2.5,0.6c-1.1-4.3-2.4-8.4-4.1-12.7L215.2,1425.2z
			 M219.8,1424.7h10.8v-9.1h3v9.1h12.1v17.2h5.1v3h-16.5c3.8,8.4,9.7,15.1,17.8,20l-2.1,2.4c-8.3-5.6-14.1-12.5-17.8-21.1
			c-2.4,9.5-7.6,16.5-15.6,21l-1.9-2.4c7.6-4,12.5-10.6,14.8-19.9h-12.4v-3h13c0.5-2.9,0.6-5.7,0.6-8.9v-5.4H220v-2.9L219.8,1424.7
			L219.8,1424.7z M233.6,1427.6v4.8c0,3.2-0.3,6.4-0.8,9.5h9.8v-14.3H233.6z"/>
		<path fill="#7791E5" d="M257.9,1444.1v-3h23.2v-15.2h-21v-3h21v-7h3v7h21.4v3h-21.3v15.2h6.4c2.4-4,4.4-8.4,6.2-13l3,1
			c-1.9,4.8-4,8.7-6.2,11.9h13.7v3h-19.9c4.1,7,11.3,13,21.3,18.4l-2.1,2.7c-10.5-6.4-17.6-13.3-21.8-21h-0.6v23.7H281v-23.7h-0.8
			c-3.5,8.3-11,15.2-22.2,21l-1.7-2.7c10.8-5.2,17.9-11.4,21.4-18.3H257.9z M268.1,1428.5c1.9,3,3.8,6.2,5.6,9.8l-2.7,1.4
			c-1.7-3.7-3.7-7-5.6-9.8L268.1,1428.5z"/>
		<path fill="#7791E5" d="M317.8,1419.3H362v3h-9.8v16.2H365v3h-12.9v25.7h-3v-25.7h-17.6c-0.5,6-1.6,11-3.3,14.9
			c-2.2,4.8-5.7,8.4-10.6,11.1l-1.7-2.7c4.8-2.7,8.1-6.2,10-10.8c1.3-3.5,2.2-7.6,2.5-12.5h-13.7v-3h13.8v-2.5v-13.7h-10.8v-3H317.8
			z M331.8,1422.3v14.9v1.3h17.3v-16.2L331.8,1422.3L331.8,1422.3z"/>
		<path fill="#7791E5" d="M381,1438.1v2.5c0,10.5-2.5,19.5-7.6,27.2l-2.4-2.1c4.6-6.5,7-14.9,7-25.1v-18.4h19.2
			c-1-2.4-1.9-4.4-2.9-6.4l3.2-0.6c1,2.1,1.9,4.3,2.9,7h18.3v15.9H381L381,1438.1z M415.6,1425H381v10h34.6V1425z M418,1446.6v21.3
			h-3v-3.2h-26.4v3.2h-3v-21.3H418z M388.6,1461.9H415v-12.2h-26.4V1461.9z"/>
		<path fill="#7791E5" d="M435.7,1434.7c-1.9,2.9-4.1,5.7-7,8.7l-1-3.3c6.4-7.3,11-15.6,13.7-24.8l2.9,1.3
			c-1.4,4.4-3.3,8.7-5.6,12.9v38.1h-3V1434.7z M452,1426c-1.9,4.4-4.1,8.7-6.7,12.5l-2.7-1.6c4.4-6.4,7.6-13.5,9.7-21.4l3,0.6
			c-0.6,2.4-1.4,4.8-2.2,7h24.8v2.1c-1,3.5-2.2,7-3.7,10.5l-3-0.8c1.4-2.5,2.5-5.4,3.5-8.7H452V1426z M454.2,1439.5
			c-2.2,8.1-4.9,15.1-8.3,21.1l-3-1.1c3.2-5.4,6-12.4,8.4-20.8L454.2,1439.5z M452,1467.3l-0.6-2.9c3.3,0.2,5.7,0.2,7.1,0.2
			s2.2-0.8,2.2-2.2v-31.1h3v31.9c0,2.9-1.4,4.1-4.1,4.1H452L452,1467.3z M471.2,1438.4c3,6.8,5.7,14.1,8.1,22.1l-2.9,1.3
			c-2.4-8.4-5.1-15.9-8.1-22.4L471.2,1438.4z"/>
		<path fill="#7791E5" d="M505.5,1425.8v38.4h-3v-3.5h-11.6v5.1h-3v-40h5.1c1.1-3.2,2.1-6.7,2.5-10.2l3.2,0.5
			c-0.6,3.5-1.6,6.8-2.7,9.8h9.5V1425.8z M490.9,1441.6h11.6v-12.7h-11.6V1441.6L490.9,1441.6z M490.9,1457.9h11.6v-13.5h-11.6
			V1457.9L490.9,1457.9z M535.1,1425.8c0,18.3-0.3,29.7-0.8,34.3c-0.6,4.6-3.2,6.8-7.9,6.8l-5.6-0.2l-0.8-2.9c2.2,0.2,4.3,0.2,6,0.2
			c3,0,4.9-1.7,5.2-5.1c0.5-3.2,0.6-13.2,0.8-30.2h-16.8c-1.6,3.8-3.5,7.1-5.7,10l-1.9-2.4c4.1-5.7,7-12.7,8.4-21l3,0.3
			c-0.8,3.8-1.6,7.1-2.7,10L535.1,1425.8L535.1,1425.8z M515.2,1438.7c4.4,4.8,7.6,9.1,10,12.5l-2.4,1.7c-2.2-3.7-5.6-7.9-10-12.7
			L515.2,1438.7z"/>
		<path fill="#7791E5" d="M544.3,1427.6h22.9v-6.2c-6.2,0.3-12.2,0.6-18.1,0.6l-1-2.7c15.9,0,28.9-1.1,39.1-3.3l1.4,2.5
			c-5.2,1.3-11.4,2.2-18.4,2.7v6.4h22.7v2.9h-19.4c4.3,5.1,11.1,8.9,20.6,11.8l-1.3,2.9c-10.6-3.7-18.1-8.6-22.4-14.5h-0.2v12.9
			h14.9v24.3h-3v-3.3h-27.2v3.3h-3v-24.3H567v-12.9l0,0c-3.8,5.9-11.1,11-22.2,15.2l-1.6-2.7c10.3-3.7,17.3-7.8,20.8-12.5h-19.7
			V1427.6L544.3,1427.6z M555.1,1452.5h27.2v-6.4h-27.2V1452.5z M555.1,1461.6h27.2v-6.4h-27.2V1461.6z"/>
		<path fill="#7791E5" d="M601.1,1430.4h18.4v2.4c-3,12.7-9.1,22.2-17.9,28.7l-1.9-2.5c8.1-6,13.7-14.6,16.7-25.7h-15.2
			L601.1,1430.4L601.1,1430.4z M648.2,1426.8c-4.6,5.7-9.4,10.3-14.3,14.1c4.6,7.6,10.6,13.8,18.1,18.7l-1.9,2.9
			c-10.6-7.8-17.9-17.2-22.2-28v28.3c0,3.2-1.6,4.8-4.6,4.8h-7.5l-0.6-3c3.3,0.2,5.6,0.2,7,0.2c1.7,0,2.5-1,2.5-2.9v-46.5h3v11.8
			c1.3,4,2.9,7.8,4.8,11.3c4.8-3.8,9.2-8.4,13.2-13.5L648.2,1426.8z"/>
		<path fill="#7791E5" d="M679.9,1415.3c1.9,2.9,3.7,6.4,5.4,10.5h17.9v2.4c-6.7,12.7-16.7,22.4-29.9,29.2c0.3,0.3,0.5,0.5,0.6,0.8
			c2.4,3,5.7,4.8,10,5.1c2.7,0.2,6.4,0.2,11.4,0.2c3,0,7.1,0,12.5-0.2l-0.8,3h-11c-4.3,0-7.8,0-10.8-0.2c-6-0.2-10.6-2.4-14-7
			c-1-1.3-1.9-1.9-2.7-1.9c-1.7,0-4.3,3.3-7.6,10l-2.5-1.7c3.7-7.6,7.1-11.4,10.3-11.4c0.8,0,1.4,0.2,1.9,0.6l0.5,0.3
			c12.4-6.4,21.9-15.1,28.3-26.4h-37.8v-3h20.2c-1.6-3.5-3.3-6.8-5.6-9.8L679.9,1415.3z"/>
		<path fill="#7791E5" d="M715,1424.1h20.6v3h-12.4v8.6h11.3c0,14.3-0.3,23-1,26.7c-0.6,3.5-3,5.1-7.5,5.1c-0.5,0-1.3,0-2.2-0.2
			l-0.8-2.7c1,0.2,1.9,0.2,2.5,0.2c2.9,0,4.4-1.1,5.1-3.3c0.5-2.5,0.8-10,1-22.9h-8.4c-0.3,13.2-2.7,22.9-7,29.2l-2.4-2.1
			c4.1-6.2,6.4-16,6.4-29.9v-8.7h-5.1L715,1424.1L715,1424.1L715,1424.1z M724.2,1415.2c1.4,3,2.5,5.6,3.3,7.6l-2.9,1
			c-1-2.7-2.1-5.2-3.5-7.8L724.2,1415.2z M742.8,1425.4c-1.9,3.5-4,6.4-6.4,8.6l-2.2-1.9c4.1-4.1,7.3-9.7,9.5-16.8l2.9,1.1
			c-0.8,2.1-1.4,4.1-2.4,6h20v3L742.8,1425.4L742.8,1425.4z M765.4,1443.5c-2.5,2.7-5.6,4.9-9.4,6.7c2.4,5.9,5.9,10.8,10.3,14.8
			l-1.9,2.5c-8.3-7.1-13.2-17.8-14.8-31.6c-2.1,0.5-4.1,0.8-6.2,1v26.4c3.8-1,7.1-1.9,10-2.9l0.5,3c-4.1,1.3-8.7,2.5-13.8,3.7
			l-0.6-2.9c0.6-0.3,1-0.8,1-1.4v-28.3c7-0.8,13.8-2.4,20.2-4.8l1.6,2.5c-3.3,1.3-6.7,2.2-10,3c0.5,4.3,1.3,8.4,2.7,12.2
			c3.3-1.7,6.2-3.8,8.4-6.4L765.4,1443.5z"/>
		<path fill="#7791E5" d="M788.7,1420.6v40.3h-3v-3.5h-8.4v4.8h-3v-41.6L788.7,1420.6L788.7,1420.6z M777.1,1454.6h8.4v-31h-8.4
			V1454.6z M819.7,1418.7v24.8h-22.4v16.5c0,2.5,1.3,3.8,3.7,3.8h14.3c1.6,0,2.7-0.8,3.3-2.2c0.5-1.3,0.8-4.1,1.1-8.6l3,1
			c-0.3,4-0.6,7-1.3,8.7c-1,2.5-2.7,4-5.2,4H800c-3.8,0-5.6-1.9-5.6-5.9v-42.4h25.3V1418.7z M805.2,1421.5h-8.1v19.1h8.1V1421.5z
			 M808.1,1440.4h8.4v-19.1h-8.4V1440.4z"/>
		<path fill="#7791E5" d="M842.2,1457.3c0.5,0.5,0.8,1.3,0.8,2.1c0,0.8-0.3,1.4-0.8,2.1c-0.6,0.5-1.3,0.8-2.1,0.8s-1.4-0.3-2.1-0.8
			c-0.6-0.5-0.8-1.3-0.8-2.1c0-1,0.3-1.6,0.8-2.1s1.3-0.8,2.1-0.8C841.1,1456.5,841.8,1456.8,842.2,1457.3z M838.3,1421.4h3.8
			l-0.6,30.2h-2.7L838.3,1421.4z"/>
	</g>
	<g>
		<path id="圆角矩形_1" fill="#C2DAFF" d="M440.1,762.1h217.4c12.7,0,22.9,10.2,22.9,22.9v238.2c0,12.7-10.2,22.9-22.9,22.9
			H440.1c-12.7,0-22.9-10.2-22.9-22.9V785C417.2,772.4,427.6,762.1,440.1,762.1L440.1,762.1z"/>
		<path id="圆角矩形_1_拷贝" fill="#9EBEFF" d="M657.5,1046.1h-18.3c12.7,0,22.9-10.2,22.9-22.9V785
			c0-12.7-10.2-22.9-22.9-22.9h18.3c12.7,0,22.9,10.2,22.9,22.9v238.2C680.4,1035.8,670.2,1046.1,657.5,1046.1z"/>
		<g>
			<path fill="#4156A3" d="M700.1,857.9c-0.2-5.1-4.4-9.2-9.5-9.2c-5.2,0-9.5,4.3-9.5,9.5c0,0.3,0,0.6,0,1v-1.4h19.1L700.1,857.9
				L700.1,857.9z"/>
			<path fill="#4156A3" d="M700.1,822.1L700.1,822.1v-45.6c0-23.5-19.1-42.7-42.7-42.7H422.6c-23.5,0.2-42.6,19.2-42.7,42.7v245.7
				c0,23.5,19.1,42.7,42.7,42.7h234.7c23.5-0.2,42.6-19.2,42.7-42.7c0,0,0-164.9,0-164.7c0,0-13.2-7.3-19.2-0.5v165
				c0,13-10.5,23.5-23.5,23.5H422.6c-13,0-23.5-10.5-23.5-23.5V776.6c0-13,10.5-23.5,23.5-23.5h234.7c13,0,23.5,10.5,23.5,23.5v45.6
				l0,0C686.6,824.4,693.7,825.2,700.1,822.1z"/>
			<path fill="#4156A3" d="M690.4,832.5c5.2,0,9.7-4.3,9.7-9.5l0,0c0-0.3,0-0.5,0-0.8H681c0,0.3,0,0.5,0,0.8
				C680.9,828.2,685.2,832.5,690.4,832.5z"/>
		</g>
		<path id="形状_1_拷贝" fill="#4156A3" d="M425.2,826.6h-9.4c-12.4,0-12.4,21,0,21h9.4C437.6,847.6,437.6,826.6,425.2,826.6
			L425.2,826.6L425.2,826.6z M425.2,889.6h-9.4c-12.4,0-12.4,21,0,21h9.4C437.6,910.6,437.6,889.6,425.2,889.6L425.2,889.6
			L425.2,889.6z M425.2,952.7h-9.4c-12.4,0-12.4,21,0,21h9.4C437.6,973.7,437.6,952.7,425.2,952.7L425.2,952.7L425.2,952.7z"/>
		<path id="圆角矩形_2_拷贝_5" fill="#4156A3" d="M527.3,844.2l4.8,4.8c1.3,1.3,1.3,3.5,0,4.8l-33,33.2
			c-1.3,1.3-3.5,1.3-4.8,0l0,0l-4.8-4.8c-1.3-1.3-1.3-3.5,0-4.8l0,0l33-33.2C524,842.9,526,842.9,527.3,844.2L527.3,844.2z
			 M499,844.2l33,33.2c1.3,1.3,1.3,3.5,0,4.8l-4.8,4.8c-1.3,1.3-3.5,1.3-4.8,0l0,0l-33-33.2c-1.3-1.3-1.3-3.5,0-4.8l4.8-4.8
			C495.5,842.9,497.6,842.9,499,844.2L499,844.2L499,844.2z M625.6,844.2l4.8,4.8c1.3,1.3,1.3,3.5,0,4.8l-33,33.2
			c-1.3,1.3-3.5,1.3-4.8,0l0,0l-4.8-4.8c-1.3-1.3-1.3-3.5,0-4.8l0,0l33-33.2C622.3,842.9,624.3,842.9,625.6,844.2L625.6,844.2z
			 M597.3,844.2l33,33.2c1.3,1.3,1.3,3.5,0,4.8l-4.8,4.8c-1.3,1.3-3.5,1.3-4.8,0l0,0l-33-33.2c-1.3-1.3-1.3-3.5,0-4.8l4.8-4.8
			C593.8,842.9,596.1,842.9,597.3,844.2L597.3,844.2L597.3,844.2z"/>
		<path id="圆角矩形_580" fill="#4156A3" d="M533.8,942.8h50.3c3.8,0,6.8,3,6.8,6.8l0,0c0,3.8-3,6.8-6.8,6.8h-50.3
			c-3.8,0-6.8-3-6.8-6.8l0,0C527,946,530.2,942.8,533.8,942.8z"/>
	</g>
	<rect x="31.8" y="420" fill="none" width="1016.5" height="1080"/>
</g>
</svg>
