<?xml version="1.0" encoding="utf-8"?>
<!-- Generator: Adobe Illustrator 18.0.0, SVG Export Plug-In . SVG Version: 6.00 Build 0)  -->
<!DOCTYPE svg PUBLIC "-//W3C//DTD SVG 1.1//EN" "http://www.w3.org/Graphics/SVG/1.1/DTD/svg11.dtd">
<svg version="1.1" id="图层_1" xmlns="http://www.w3.org/2000/svg" xmlns:xlink="http://www.w3.org/1999/xlink" x="0px" y="0px"
	 viewBox="0 0 200 200" enable-background="new 0 0 200 200" xml:space="preserve">
<g>
	<g>
		<path fill="#B0BBFF" d="M92.6,100.9c-8,5.2-15.5,11.1-22,18.1c-4.4,4.8-7,6.2-7.5,8.5c3.6,2.7,12.6,4.8,17.6,5.4
			c6.2,0.7,12.3,0.1,18.2-2c7.6-2.7,13.5-7.6,17.9-14.3c5.6-8.2,8.6-17.5,10.7-27c1.8-8.4,2.8-17,3.4-25.6c0-0.4,0-0.7,0-1.3
			c-4.1,0.1-8.2,0.2-12.2,0.5c-9.9,0.6-19.6,1.9-29.1,4.9c-8.9,2.8-17.1,7-23.3,14.3c-5,6-7.5,13.1-8.1,20.8
			c-0.5,6.5,0.2,13,1.6,19.4c0,0.2,0.1,0.3,0.3,0.6c0.6-0.7,1.1-1.3,1.5-1.9c6.3-8.1,13.9-14.9,22.2-20.9c1.9-1.4,3.9-2.6,5.8-3.9
			c1.5-1,3.1-0.8,4,0.5C94.5,98.3,94.1,100,92.6,100.9z"/>
	</g>
	<path fill="#576994" d="M158.8,34.8c-12.7-0.1-25-0.9-37.6,0.8c-13.1,1.8-25.9,4.7-38,10.1c-9.6,4.3-18.2,9.9-25.1,17.9
		c-9.4,11-13.5,24-14,38.2c-0.4,11.2,1.3,22.2,4.2,33c0.3,1.1,0.6,2.4,0,3.4c-4.4,7.2-8.3,14.4-11.1,22.4c-0.6,1.6-0.1,3.5,1.3,4.4
		c1,0.7,2.1,0.8,3,0.3c1.2-0.5,2.2-2,2.8-3.3c5.9-15,14.2-28.6,25.2-40.4c9.3-10.1,19.2-18.5,30.8-26c2.2-1.4,3.5-3.7,2.3-5.6
		c-1.2-1.8-3.6-2.1-5.7-0.7c-2.8,1.9-5.6,3.7-8.3,5.6c-11.9,8.6-21.9,17.9-30.9,29.6c-0.7,0.9-2.7,3.8-3.5,4.7
		c-0.2-0.5-0.7-1.3-0.8-1.5c-2-9.1-3.2-18.2-2.4-27.6c0.9-11.1,4.3-22,11.5-30.7c8.8-10.5,21.1-17.8,33.9-21.9
		c13.6-4.3,26.9-5,41-5.9c5.8-0.3,13.3,0.1,19.3-0.1c0,0.8-1.1,23.8-5.3,39.6c-4.8,18.2-7,26-15,37.8c-6.4,9.5-14.9,16-25.9,19.9
		c-8.5,3-17.8,3.9-26.6,2.9c-7.1-0.9-11.5-2.2-18.3-3.9c-2.3-0.6-4.1,0.2-4.7,2.2c-0.6,2.1,0.6,4.1,2.8,4.8
		c11.2,3.2,19.6,5.2,31.3,4.4c18.2-1.2,33.1-8.7,44.4-23.3c6.7-8.7,10.9-17.5,14.2-28.5c5.7-19.4,8.6-38.2,9.6-58.3
		C163.2,36.3,161.7,34.8,158.8,34.8z"/>
</g>
</svg>
