<?xml version="1.0" encoding="utf-8"?>
<!-- Generator: Adobe Illustrator 18.0.0, SVG Export Plug-In . SVG Version: 6.00 Build 0)  -->
<!DOCTYPE svg PUBLIC "-//W3C//DTD SVG 1.1//EN" "http://www.w3.org/Graphics/SVG/1.1/DTD/svg11.dtd">
<svg version="1.1" id="图层_1" xmlns="http://www.w3.org/2000/svg" xmlns:xlink="http://www.w3.org/1999/xlink" x="0px" y="0px"
	 viewBox="0 0 200 200" enable-background="new 0 0 200 200" xml:space="preserve">
<g>
	<g>
		<polygon fill="#B0BBFF" points="79,100.8 96.5,100.9 104.6,79.6 113,100.9 130.7,100.8 115.5,112.6 121,131.8 104.6,120.8 
			88.2,132.5 93.6,112.6 		"/>
	</g>
	<g>
		<polygon fill="none" points="115.7,132.5 99.4,120.8 82.9,131.8 88.4,112.6 73.2,100.8 91,100.9 99.4,79.6 107.5,100.9 
			124.9,100.8 110.4,112.6 		"/>
		<g>
			<g>
				<path fill="#576994" d="M116.7,115l17.5-13.6l-0.9-5.8H111l-8.7-23.3h-5.8l-8.7,23.3l-22.3,0l-0.9,5.8l17,12.7l-5.4,25.1
					l2.9,2.9l20.3-14.5l20.3,14.5l2.9-2.9L116.7,115z M110.4,112.6l5.4,19.9l-16.3-11.6l-16.5,11l5.5-19.2l-15.2-11.8l17.8,0.1
					l8.4-21.3l8.1,21.3l17.5-0.1L110.4,112.6z"/>
			</g>
		</g>
		<g>
			<g>
				<path fill="#576994" d="M41.5,50.8v110.8c0,1.9,1.5,3.4,3.4,3.4h2.9h106.3h2.9c1.9,0,3.4-1.5,3.4-3.4v-2.9V67.6
					c0-1.9-1.5-3.4-3.4-3.4s-3.4,1.5-3.4,3.4v86.9c0,1.9-1.5,3.4-3.4,3.4H51.9c-1.9,0-3.4-1.5-3.4-3.4V61.8c0-1.9,1.5-3.4,3.4-3.4
					h101.9l0,0h3.4c1.9,0,3.4-1.5,3.4-3.4v-4.2c0-0.6-0.1-1.1-0.4-1.7l-7-12.5c-0.6-1.1-1.7-1.7-2.9-1.7H51.9
					c-1.2,0-2.3,0.7-2.9,1.7l-7,12.5C41.7,49.7,41.5,50.3,41.5,50.8z M52.6,45.8l1.5-2.3c0.6-0.9,1.7-1.5,2.8-1.5h88.6
					c1.1,0,2.2,0.6,2.8,1.5l1.5,2.3c1.5,2.2,2.9,5.2,0.2,5.2H52.4C49.7,51,51.1,48,52.6,45.8z"/>
			</g>
		</g>
	</g>
</g>
</svg>
