<?xml version="1.0" encoding="utf-8"?>
<!-- Generator: Adobe Illustrator 18.0.0, SVG Export Plug-In . SVG Version: 6.00 Build 0)  -->
<!DOCTYPE svg PUBLIC "-//W3C//DTD SVG 1.1//EN" "http://www.w3.org/Graphics/SVG/1.1/DTD/svg11.dtd">
<svg version="1.1" id="图层_1" xmlns="http://www.w3.org/2000/svg" xmlns:xlink="http://www.w3.org/1999/xlink" x="0px" y="0px"
	 width="81px" height="80.7px" viewBox="9.5 9.6 81 80.7" style="enable-background:new 9.5 9.6 81 80.7;" xml:space="preserve">
<style type="text/css">
	.st0{opacity:0.53;fill:#C2398F;enable-background:new    ;}
</style>
<path class="st0" d="M85.7,68.7c0.5-0.2,0.7-0.6,0.5-1.1L83.9,60c-0.2-0.5,0-1.1,0.4-1.3l5.9-5.3c0.3-0.3,0.4-0.8,0.1-1.2l-5-5.8
	c-0.3-0.3-0.3-1-0.2-1.3l3.5-7.1c0.2-0.4,0.1-0.9-0.4-1.1l-6.9-3.7c-0.4-0.2-0.7-0.8-0.6-1.1l0.5-7.9c0.1-0.4-0.3-0.8-0.8-0.9
	l-8-0.8c-0.4-0.1-1-0.5-1.1-0.8l-2.6-7.4c-0.2-0.5-0.6-0.7-1.1-0.5L60,16.1c-0.5,0.2-1.1,0-1.3-0.4l-5.2-5.8
	c-0.3-0.3-0.8-0.4-1.2-0.1l-6,4.9c-0.3,0.3-1,0.3-1.3,0.2l-7.1-3.5c-0.4-0.2-0.9-0.1-1.1,0.4l-3.7,6.9c-0.2,0.4-0.8,0.7-1.1,0.6
	l-7.9-0.5c-0.4-0.1-0.8,0.3-0.9,0.8l-0.8,7.9c-0.1,0.4-0.4,0.9-0.8,1.1l-7.5,2.7c-0.5,0.2-0.7,0.6-0.5,1.1L16,40
	c0.2,0.5,0,1.1-0.4,1.3l-5.8,5.2c-0.3,0.3-0.4,0.8-0.1,1.2l4.9,6c0.3,0.3,0.3,1,0.2,1.3l-3.2,6.8c-0.2,0.4-0.1,0.9,0.4,1.1l6.9,3.7
	c0.4,0.2,0.7,0.8,0.6,1.1l-0.5,7.9c-0.1,0.4,0.3,0.8,0.8,0.9l7.9,0.8c0.4,0.1,0.9,0.4,1.1,0.8l2.7,7.5c0.2,0.5,0.6,0.7,1.1,0.5
	l7.6-2.3c0.5-0.2,1,0.1,1.3,0.4l5.3,5.9c0.3,0.3,0.8,0.4,1.2,0.1l5.8-5c0.3-0.3,1-0.3,1.3-0.2l7.1,3.5c0.4,0.2,0.9,0.1,1.1-0.4
	l3.7-6.9c0.2-0.4,0.8-0.7,1.1-0.6l7.9,0.5c0.4,0.1,0.9-0.4,0.9-0.8l0.8-8c0.1-0.4,0.4-0.9,0.8-1.1L85.7,68.7z M40.8,35.6
	c0.3-1.1-0.1-2.2-1.6-2.7c-1.7-0.4-3.2,0.1-3.6,1.8c-1.4,4.7,5.4,7,3.5,13.7c-1.3,4.3-5.2,6-10,4.7c-2.5-0.7-6.5-2.4-5.2-6.8
	c0.8-2.9,3.4-3.8,5.7-3.2c1.4,0.4,2.2,1.1,2.1,2.3c-2.6-0.5-3.8,0.2-4.4,2.3c-0.6,2,0.7,3.3,2.1,3.8c2.5,0.7,3.8-1.1,4.4-3.4
	c1.7-5.7-4.4-8.8-3.3-13.3c0.9-3.2,5.2-4.5,8.9-3.6c1.7,0.4,5,1.7,4,5.1c-0.5,1.8-1.8,2.8-3.5,2.3c-0.5-0.1-1-0.5-1.2-1
	C39.6,37.5,40.5,36.5,40.8,35.6L40.8,35.6z M68.5,61.9c1.4,0.4,2.9,0,4.4-0.8c-1,3.3-3.8,3.4-6.9,2.6c-2.1-0.7-3.2-2.2-3.3-4
	c-1.9,1.1-4,2-5.4,1.5c-2-0.6-3.1-1.7-3-3.4c-1.8,0.9-3.6,1.5-4.8,1.2c-2-0.6-3.2-1.7-3-3.4c-1.3,1-3,1.9-4.8,1.3
	c-3-0.8-3.2-3.2-2.7-4.9c1.6-5.2,5.1-10.9,11.2-9.2c0.7,0.2,1.4,0.7,1.9,1.4l0.4-0.8l4.3,1.3l-5.1,9.7c-0.2,0.3-0.3,0.6-0.3,0.9
	c-0.2,0.7-0.1,1.2,1.2,1.7c0.6,0.2,1.3,0,2.2-0.4c0.2-0.3,0.3-0.8,0.5-1.2l7.9-14.8l4.6,0.6l-8.2,15.3c-0.2,0.4-0.3,0.6-0.5,1
	c-0.2,0.7,0,1.2,1.2,1.6c0.7,0.2,1.7-0.1,2.5-0.5c0-0.3,0.1-0.6,0.2-1c1.1-3.8,4.7-10.2,10.2-8.6c2.5,0.7,3.7,2.1,2.9,4.2
	c-1.1,3.8-5.6,4.6-8.6,4.1c-0.2,0.4-0.3,0.9-0.5,1.2C66.4,60.7,67.3,61.6,68.5,61.9L68.5,61.9z M68.1,56c2.9,0.8,5.5-1.1,6.1-3.2
	c0.2-0.6,0.3-1.7-0.6-2.1C72,50.4,69.6,53.4,68.1,56L68.1,56z M51.3,45.5c-0.4-0.6-0.9-0.9-1.4-1c-2.4-0.7-5.4,3.7-6.6,7.7
	c-0.5,1.9,0.4,2.5,1.2,2.8c0.7,0.2,1.6-0.3,2.4-1c0.2-0.3,0.3-0.6,0.5-1L51.3,45.5z"/>
</svg>
