<?xml version="1.0" standalone="no"?><!DOCTYPE svg PUBLIC "-//W3C//DTD SVG 1.1//EN" "http://www.w3.org/Graphics/SVG/1.1/DTD/svg11.dtd"><svg class="icon" width="200px" height="136.26px" viewBox="0 0 1503 1024" version="1.1" xmlns="http://www.w3.org/2000/svg"><path d="M116.658228 7.777215h1272.870886c57.032911 0 101.103797 46.663291 101.103797 101.103798v803.645569c0 57.032911-46.663291 101.103797-101.103797 101.103798H116.658228c-57.032911 0-101.103797-46.663291-101.103798-101.103798v-803.645569C12.962025 54.440506 59.625316 7.777215 116.658228 7.777215z" fill="#848484" opacity=".17" /><path d="M546.997468 300.718987v-181.468354h407.007595v181.468354h-41.478481v482.187342c0 85.549367-64.810127 147.767089-132.212658 158.136709-106.288608 12.962025-191.837975-46.663291-191.837975-160.729114V326.643038c0-20.739241 0-20.739241-20.73924-20.739241-2.592405-5.18481-12.962025-5.18481-20.739241-5.18481z m95.918988 145.174684v326.643038c0 64.810127 38.886076 116.658228 103.696202 116.658228 67.402532 0 116.658228-54.440506 116.658228-116.658228V443.301266c0-2.592405 0 7.777215 0 0-72.587342 2.592405-147.767089 2.592405-220.35443 2.592405z m0-139.989874V388.860759h220.35443V248.870886H907.341772v-77.772152H593.660759v82.956962h111.473418V311.088608c-20.739241-5.18481-36.293671-5.18481-62.217721-5.184811z" fill="#FFFFFF" opacity=".85" /></svg>