<?xml version="1.0" encoding="utf-8"?>
<!-- Generator: Adobe Illustrator 18.0.0, SVG Export Plug-In . SVG Version: 6.00 Build 0)  -->
<!DOCTYPE svg PUBLIC "-//W3C//DTD SVG 1.1//EN" "http://www.w3.org/Graphics/SVG/1.1/DTD/svg11.dtd">
<svg version="1.1" id="图层_1" xmlns="http://www.w3.org/2000/svg" xmlns:xlink="http://www.w3.org/1999/xlink" x="0px" y="0px"
	 viewBox="0 0 200 200" enable-background="new 0 0 200 200" xml:space="preserve">
<g>
	<g>
		<circle fill="#ABB4FF" cx="66.1" cy="49.3" r="11"/>
	</g>
	<g>
		<polygon fill="#ABB4FF" points="86.3,135.7 106.4,101 126.4,135.7 		"/>
	</g>
	<path fill="#576994" d="M61.1,38.3c6.1,0,11,4.9,11,11s-4.9,11-11,11s-11-4.9-11-11S55,38.3,61.1,38.3 M61.1,31.3
		c-9.9,0-18,8.1-18,18s8.1,18,18,18s18-8.1,18-18S71.1,31.3,61.1,31.3L61.1,31.3z"/>
	<polygon fill="#576994" points="90,45.8 78,45.8 78,52.8 90,52.8 90,45.8 	"/>
	<path fill="#576994" d="M103,44.6v27c0,1.1-0.9,2-2,2h-2c-1.1,0-2-0.9-2-2v-27c0-1.1,0.9-2,2-2h2C102.1,42.6,103,43.5,103,44.6z
		 M90,37.6v38c0,1.1,0.9,2,2,2h16c1.1,0,2-0.9,2-2v-38c0-1.1-0.9-2-2-2H92C90.9,35.6,90,36.5,90,37.6z"/>
	<path fill="#576994" d="M103.4,96.7l21.4,37.1H81.9L103.4,96.7 M103.4,84.7l-31.8,55.1h63.6L103.4,84.7L103.4,84.7z"/>
	<g>
		<polyline fill="none" points="121.8,77.7 128.5,77.7 128.5,77.7 71.5,77.7 46.3,118.7 71.6,161.7 128.4,161.7 153.7,118.7 		"/>
		<polyline fill="#576994" points="128.5,77.7 128.5,77.7 132.7,77.7 132.4,70.7 67.6,70.7 38.1,118.7 67.6,168.7 132.4,168.7 
			161.9,118.7 140.5,83.8 136.4,83.8 134.6,87.7 153.7,118.7 128.4,161.7 71.6,161.7 46.3,118.7 71.5,77.7 		"/>
	</g>
	<circle fill="#576994" cx="137.4" cy="85.5" r="3.4"/>
	<circle fill="#576994" cx="132.2" cy="74.2" r="3.4"/>
</g>
</svg>
