<?xml version="1.0" encoding="utf-8"?>
<!-- Generator: Adobe Illustrator 18.0.0, SVG Export Plug-In . SVG Version: 6.00 Build 0)  -->
<!DOCTYPE svg PUBLIC "-//W3C//DTD SVG 1.1//EN" "http://www.w3.org/Graphics/SVG/1.1/DTD/svg11.dtd">
<svg version="1.1" id="图层_1" xmlns="http://www.w3.org/2000/svg" xmlns:xlink="http://www.w3.org/1999/xlink" x="0px" y="0px"
	 viewBox="0 0 200 200" enable-background="new 0 0 200 200" xml:space="preserve">
<g>
	<rect x="83.7" y="108.8" fill="#B0BBFF" width="43.9" height="25.5"/>
	<path fill="#576994" d="M122.4,108.6v21.8c0,1.1-0.9,2-2,2H79.6c-1.1,0-2-0.9-2-2v-21.8c0-1.1,0.9-2,2-2h40.8
		C121.5,106.6,122.4,107.5,122.4,108.6z M70.6,101.6v35.8c0,1.1,0.9,2,2,2h54.8c1.1,0,2-0.9,2-2v-35.8c0-1.1-0.9-2-2-2H72.6
		C71.5,99.6,70.6,100.5,70.6,101.6z"/>
	<path fill="#576994" d="M119.5,43v7.4c0,2.2-0.8,3-3,3H83.5c-2.2,0-3-0.8-3-3V43c0-2.2,0.8-3,3-3h32.9
		C118.7,40,119.5,40.8,119.5,43z M77.5,33c-2.2,0-4,1.8-4,4v19.4c0,2.2,1.8,4,4,4h44.9c2.2,0,4-1.8,4-4V37c0-2.2-1.8-4-4-4H77.5z"/>
	<polygon fill="#B0BBFF" points="64.4,115.4 42.9,115.4 42.9,123.6 64.4,123.6 64.4,115.4 	"/>
	<polygon fill="#576994" points="106,56.5 94,56.5 94,70.8 106,70.8 106,56.5 	"/>
	<polygon fill="#B0BBFF" points="157.4,115.4 135.9,115.4 135.9,123.6 157.4,123.6 157.4,115.4 	"/>
	<g>
		<path fill="none" d="M154.2,79.2c0,0.1,0,0.1,0,0.2l0,0V79.2z"/>
		<path fill="none" d="M154.2,80.2V159l0-79.5c0,0,0,0,0,0C154.2,79.7,154.2,79.9,154.2,80.2z"/>
		<path fill="none" d="M154.2,79.2L154.2,79.2l0,0.2c0,0,0,0,0,0C154.2,79.3,154.2,79.3,154.2,79.2z"/>
		<path fill="none" d="M146.6,76.9H46.8c-0.6,0-1,0.4-1,1V159c0,0.6,0.4,1,1,1h106.5c0.6,0,1-0.4,1-1V80.2c0-0.3,0-0.5,0-0.7
			c0,0,0,0,0,0v4.4"/>
		<path fill="#4E5572" d="M154.2,79.5C154.2,79.5,154.2,79.5,154.2,79.5L154.2,79.5C154.2,79.4,154.2,79.4,154.2,79.5z"/>
		<path fill="#4E5572" d="M154.2,79.4c0,0,0,0.1,0,0.1c0,0,0,0,0,0L154.2,79.4L154.2,79.4z"/>
		<path fill="#4E5572" d="M161.2,79.5c0-0.3,0-0.6-0.1-0.8c0,0.3,0.1,0.6,0.1,1C161.2,79.6,161.2,79.5,161.2,79.5z"/>
		<path fill="#4E5572" d="M154.2,79.4C154.2,79.4,154.2,79.4,154.2,79.4l0,0.1c0,0,0,0,0,0C154.2,79.5,154.2,79.4,154.2,79.4z"/>
		<path fill="#576994" d="M161.2,79.6c0-0.3,0-0.7-0.1-1c-0.4-1.5-1.7-2.7-3.4-2.7c-1.9,0-3.5,1.5-3.5,3.4v0.1l0,79.5
			c0,0.6-0.4,1-1,1H46.8c-0.6,0-1-0.4-1-1V77.9c0-0.6,0.4-1,1-1h99.8v-7H46.8c-4.4,0-8,3.6-8,8V159c0,4.4,3.6,8,8,8h106.5
			c4.4,0,8-3.6,8-8V80.2C161.2,80,161.2,79.8,161.2,79.6z"/>
		<circle fill="#576994" cx="147" cy="73.4" r="3.5"/>
	</g>
</g>
</svg>
