<?xml version="1.0" encoding="utf-8"?>
<!-- Generator: Adobe Illustrator 18.0.0, SVG Export Plug-In . SVG Version: 6.00 Build 0)  -->
<!DOCTYPE svg PUBLIC "-//W3C//DTD SVG 1.1//EN" "http://www.w3.org/Graphics/SVG/1.1/DTD/svg11.dtd">
<svg version="1.1" id="图层_1" xmlns="http://www.w3.org/2000/svg" xmlns:xlink="http://www.w3.org/1999/xlink" x="0px" y="0px"
	 viewBox="0 0 200 200" enable-background="new 0 0 200 200" xml:space="preserve">
<g>
	<path fill="#B0BBFF" d="M103.7,120.8c-12.5,0-22.7-10.2-22.7-22.7s10.2-22.7,22.7-22.7s22.7,10.2,22.7,22.7
		S116.2,120.8,103.7,120.8z"/>
	<g>
		<path fill="#576994" d="M120.9,166L120.9,166c-2.6,0-5-1-6.6-2.8c-2.2-2.4-9.1-8.6-14.7-8.6c-5.6,0-12.6,6.2-14.6,8.4
			c-1.6,1.7-4.1,2.8-6.6,2.8c-1.2,0-2.3-0.2-3.4-0.7l-0.2-0.1l-17.1-9.6l-0.2-0.1c-3.1-2.2-4.3-6.5-2.8-9.9c0,0,1.6-3.7,1.6-7
			c0-10-8.2-18.2-18.2-18.2h-0.6c0,0-0.1,0-0.1,0c-2.9,0-5.2-2.6-6-6.5c-0.1-0.3-1.5-7.8-1.5-13.7c0-5.9,1.4-13.4,1.5-13.7
			c0.8-4,3.1-6.6,6.1-6.5h0.6c10,0,18.2-8.2,18.2-18.2c0-3.3-1.6-6.9-1.6-7c-1.5-3.5-0.3-7.8,2.8-9.9l0.2-0.1l18.1-9.9l0.2-0.1
			c1-0.4,2.1-0.6,3.3-0.6c2.5,0,5,1,6.6,2.7c2.1,2.2,8.9,8.1,14.4,8.1c5.4,0,12.2-5.7,14.3-7.9c1.6-1.7,4-2.7,6.5-2.7
			c1.2,0,2.3,0.2,3.4,0.7l0.2,0.1l17.5,9.7l0.2,0.1c3.1,2.2,4.3,6.4,2.8,9.9c0,0-1.6,3.7-1.6,7c0,10,8.2,18.2,18.2,18.2h0.6
			c2.9-0.1,5.3,2.5,6.1,6.5c0.1,0.3,1.5,7.8,1.5,13.7c0,5.9-1.4,13.4-1.5,13.7c-0.8,4-3.1,6.6-6.1,6.5h-0.6
			c-10,0-18.2,8.2-18.2,18.2c0,3.3,1.6,6.9,1.6,7c1.5,3.5,0.3,7.8-2.8,9.9l-0.2,0.1l-17.8,9.8l-0.2,0.1
			C123.2,165.8,122.1,166,120.9,166L120.9,166z M120.7,158.6c0.1,0.1,0.3,0.1,0.6,0.1c0,0,0,0,0,0l16.9-9.3
			c-0.4-0.9-2.3-5.5-2.3-10.3c0-14.3,11.3-26.1,25.4-26.8c0.2-1.1,1.3-7.4,1.3-12.2c0-4.7-1.1-11.1-1.3-12.2
			c-14.2-0.7-25.4-12.5-25.4-26.8c0-4.8,1.9-9.4,2.3-10.3l-16.6-9.2c0,0,0,0-0.1,0c-0.3,0-0.6,0.1-0.6,0.2c-0.3,0.3-2.7,2.7-6.1,5.2
			c-5.1,3.6-10,5.4-14.4,5.4c-4.5,0-9.3-1.9-14.5-5.5c-3.5-2.5-5.9-5-6.2-5.3c-0.1-0.1-0.4-0.2-0.6-0.2c0,0,0,0-0.1,0l-17.2,9.5
			c0.4,1,2.3,5.5,2.3,10.3c0,14.3-11.3,26.1-25.4,26.8c-0.2,1.1-1.3,7.4-1.3,12.2c0,4.7,1.1,11.1,1.3,12.2
			C52.7,113,64,124.7,64,139.1c0,4.8-1.9,9.4-2.3,10.3l16.3,9.1c0,0,0,0,0,0c0.2,0,0.5-0.1,0.6-0.1c0.3-0.3,2.7-2.9,6.2-5.5
			c5.2-3.8,10.2-5.8,14.8-5.8c4.6,0,9.6,2,14.9,5.9C118,155.7,120.4,158.3,120.7,158.6L120.7,158.6z"/>
		<path fill="#576994" d="M99.7,70.6c-16.2,0-29.4,13.2-29.4,29.4c0,16.2,13.2,29.4,29.4,29.4c16.2,0,29.4-13.2,29.4-29.4
			C129,83.8,115.9,70.6,99.7,70.6z M99.7,122.8c-12.6,0-22.8-10.2-22.8-22.8s10.2-22.8,22.8-22.8s22.8,10.2,22.8,22.8
			S112.3,122.8,99.7,122.8z"/>
	</g>
</g>
</svg>
