<?xml version="1.0" encoding="utf-8"?>
<!-- Generator: Adobe Illustrator 18.0.0, SVG Export Plug-In . SVG Version: 6.00 Build 0)  -->
<!DOCTYPE svg PUBLIC "-//W3C//DTD SVG 1.1//EN" "http://www.w3.org/Graphics/SVG/1.1/DTD/svg11.dtd">
<svg version="1.1" id="图层_1" xmlns="http://www.w3.org/2000/svg" xmlns:xlink="http://www.w3.org/1999/xlink" x="0px" y="0px"
	 viewBox="0 420 1080 1080" enable-background="new 0 420 1080 1080" xml:space="preserve">
<metadata><?xpacket begin="﻿" id="W5M0MpCehiHzreSzNTczkc9d"?>
<x:xmpmeta xmlns:x="adobe:ns:meta/" x:xmptk="Adobe XMP Core 5.6-c011 79.156289, 2014/03/31-23:39:12        ">
   <rdf:RDF xmlns:rdf="http://www.w3.org/1999/02/22-rdf-syntax-ns#">
      <rdf:Description rdf:about=""
            xmlns:xmp="http://ns.adobe.com/xap/1.0/"
            xmlns:xmpGImg="http://ns.adobe.com/xap/1.0/g/img/"
            xmlns:xmpTPg="http://ns.adobe.com/xap/1.0/t/pg/"
            xmlns:stDim="http://ns.adobe.com/xap/1.0/sType/Dimensions#"
            xmlns:xmpG="http://ns.adobe.com/xap/1.0/g/"
            xmlns:dc="http://purl.org/dc/elements/1.1/">
         <xmp:CreatorTool>Adobe Illustrator CC 2014 (Windows)</xmp:CreatorTool>
         <xmp:CreateDate>2018-03-06T11:01:55+08:00</xmp:CreateDate>
         <xmp:Thumbnails>
            <rdf:Alt>
               <rdf:li rdf:parseType="Resource">
                  <xmpGImg:width>184</xmpGImg:width>
                  <xmpGImg:height>256</xmpGImg:height>
                  <xmpGImg:format>JPEG</xmpGImg:format>
                  <xmpGImg:image>/9j/4AAQSkZJRgABAgEASABIAAD/7QAsUGhvdG9zaG9wIDMuMAA4QklNA+0AAAAAABAASAAAAAEA&#xA;AQBIAAAAAQAB/+4ADkFkb2JlAGTAAAAAAf/bAIQABgQEBAUEBgUFBgkGBQYJCwgGBggLDAoKCwoK&#xA;DBAMDAwMDAwQDA4PEA8ODBMTFBQTExwbGxscHx8fHx8fHx8fHwEHBwcNDA0YEBAYGhURFRofHx8f&#xA;Hx8fHx8fHx8fHx8fHx8fHx8fHx8fHx8fHx8fHx8fHx8fHx8fHx8fHx8fHx8f/8AAEQgBAAC4AwER&#xA;AAIRAQMRAf/EAaIAAAAHAQEBAQEAAAAAAAAAAAQFAwIGAQAHCAkKCwEAAgIDAQEBAQEAAAAAAAAA&#xA;AQACAwQFBgcICQoLEAACAQMDAgQCBgcDBAIGAnMBAgMRBAAFIRIxQVEGE2EicYEUMpGhBxWxQiPB&#xA;UtHhMxZi8CRygvElQzRTkqKyY3PCNUQnk6OzNhdUZHTD0uIIJoMJChgZhJRFRqS0VtNVKBry4/PE&#xA;1OT0ZXWFlaW1xdXl9WZ2hpamtsbW5vY3R1dnd4eXp7fH1+f3OEhYaHiImKi4yNjo+Ck5SVlpeYmZ&#xA;qbnJ2en5KjpKWmp6ipqqusra6voRAAICAQIDBQUEBQYECAMDbQEAAhEDBCESMUEFURNhIgZxgZEy&#xA;obHwFMHR4SNCFVJicvEzJDRDghaSUyWiY7LCB3PSNeJEgxdUkwgJChgZJjZFGidkdFU38qOzwygp&#xA;0+PzhJSktMTU5PRldYWVpbXF1eX1RlZmdoaWprbG1ub2R1dnd4eXp7fH1+f3OEhYaHiImKi4yNjo&#xA;+DlJWWl5iZmpucnZ6fkqOkpaanqKmqq6ytrq+v/aAAwDAQACEQMRAD8A9U4q7FXYq7FXYq7FXYqt&#xA;klijFZHVB4sQP14REnkgltXV1DKQynoQajEikt4FQ9/ex2Vs1xIrMqkCi9dzTvlmLGZyoMZSoWxn&#xA;9ORfpr69xf0uPHhtX7NPGnXfNl+WPhcHVx/E9VsmsL6O9thPGrKpJFGFDtmty4zCVFyIysWiMrZO&#xA;xV2KuxV2KuxV2KuxV2KuxV2KuxV2KuxV2KuxV2KsaS2XVdauku5CFgLLHGDQ0VqbfxzZGfhYgYjm&#xA;49cUjapo4Nnrc9hFIZLehO/YgA9u+9DkdR68QmRumG0qZDmvb3EAih3HhiqWfohv019eqno8aenT&#xA;evHj8syfH/d8PVr4PVaZgACg2HhmM2OxV2KuxV2KtO6ojO5CooJZj0AG5OEC9lS3VNU9PTDdWciv&#xA;8QUOPiAqd8yMOG58Mg1zntYRrXltGYklkVJJacEJ3JPgMpGMmyBsGfEFbIJdirsVdiqSeZLq4Q21&#xA;tFJ6KzsQ8labAgdfDffM3RwBuRF005SdghbYTaZrENrHcG4imA5r4cq9qn55bOsmMyIohiPTKrZL&#xA;mtch2KuxV2KpXqGgW93P9YSRoJj9pl3B7VptvmVi1RgKqw1yxgm1bTNHt7AMUJeV9mkbrTwHgMhm&#xA;1Byc+SYQEUdlDN2KuxV2KuxVRury2tUV7hxGrHiCQTv9GThjlI0EGQHNWBBFR0yCXYqtlMYicyU9&#xA;MKS9enGm9cMbvbmpSbSn0b1Lp7dGSD4fUaSnpddqV9/HMzOMlC+f2tMOHemw2kLrjiZHF2xX02k3&#xA;QkjbjT8K41k8Lb6U+ni806zCbXYq7FXYqhr/AE+2vofSnBoDVWGzA+2WYssoGwxlEHmh9P0Gyspf&#xA;VTlJL0VnptXwAAyzLqpTFdGMcYCY5jti2SRI42kkPFEBLMewGEAk0FJahmjmiWWM8o3FVPscZRIN&#xA;FANr8CXYq7FXYq7FXYq7FXGtNuvbFWI63PrEkKi+hWOIP8BWnWh9z2zbaaOMH0my4uQy6p3pE2sS&#xA;MRewrHCEHBh1r957ZhZ44x9J3boGXVM8xmxplVlKsAysKEHcEHEGlQGqaabjTja2wSOhBVacV2Pt&#xA;mRgzcM+KW7CcLFBGG3hYR+oiu0dODMASCO4rlPGRddWVKmRSl2vX89lZrLBTm0gSrCuxBP8ADMnS&#xA;4hOVHua8kiBsjLOVprSCZqcpI1dqdKsoOU5I1IjuLOJsKuQS7FXYq7FUr9DV5HntLkrJazKwS4Wg&#xA;Za9AV2/z75lcWMVKP1Do11LkeS1rfV4Vt7OzKpBGg53LUJJruAu/6sInjNylz7kVIbBNsxG12Kux&#xA;VIvNF5dW4thBK0fPmW4mhNONP15naLHGV2Lac0iKpN7GR5LK3kc1d4kZj4kqCcxMoqRA722J2Vsg&#xA;l2KuxVC6hp1vfRLHMWCo3IcTQ16dwctxZjA2GMogooAAADoNhlTJ2KuxV2KuxVZPG0kMkasUZ1Kh&#xA;x1BIpX6MlE0QUEMQ1XRbixt1lkmEis4QKK9SCa7/ACzbYNQJmgKcaeMgI/StBug1rd/WaJRJeArW&#xA;hAPH+GUZ9VHeNeTOGM7G2R5rm92KuxV2KpRJp0tr9Z1AztcXSo5iqNlFOnGpzLGYSqFVFq4as9Vq&#xA;afLfQ2t+J2t7wovJ1GxHuu3XCcogTCriojdHqnOYba7FUDrNhNfWfowuEbkGPKoBArsaffl+nyiE&#xA;rLDJGwxTUtJudP8AT9Zkb1eXHgSfs0rWoHjm1w545Lro404GKLtfLN/LHDOssaK4V1NW5AEV8Ov0&#xA;5TPWQBIoshiPNl2alynYq7FXYq7FXYq7FXYq7FXYqoXtjb3sPozglAQwoaEEf7eWY8hgbDGUQear&#xA;HGkcaxoKIgCqPAAUGQJs2WQC7ArsVdirsVdirsVdirsVdiqX6xo66isX70xNETQ05AhqV2qPDMjT&#xA;6jw72u2E4cSNt4RDBHCpqI1VAT1IUUymUrJPeyAoL8il2KuxV2KuxV2KuxVxIAqdgOpxVLW8xaSs&#xA;vp+tXehcKSv35kjSZKumvxYpijq6h0IZWFVYbgg5jkU2N4FdiqSXPmXjO8VrbtcLHXm4JA260oDt&#xA;75mw0e1yNNJy77BMNN1KG/g9WMFSDR0PUHMfNhOM0WyMuIIvKmTsVdirsVdirsVdirsVdirsVdir&#xA;sVdirsVdirsVQWtiU6VciKvPj2/lqOX/AAtcv01eILYZPpKRW8mh/oRlkVfrQVq1H7znvxofDM6Y&#xA;y+Lt9P2NIMeHzTby0Jf0UnqVpyb06/y1/rXMTWV4mzbi+lNMxWx2KsWs7m50SSe3ktjJzNUkG1ad&#xA;N6HbNpkhHMAQacaJMNqTDy3Z3EMU88y+mbhgVjIpQCu9O32sx9ZkBIA6NmKJG6c5htrsVdirsVdi&#xA;rsVdirsVdirsVdirsVdirsVdirsVdiqAbQdJaX1TAOR3IBIWvyBpmQNVkAq2HhxRyqqqFUAKBQAb&#xA;ADMclm3irsVdirsVdirsVdirsVWySRxxtJIwSNAWd2IAAHUknEBWNzfmb5AhkaN9dtCymh4PzH0M&#xA;tQcyBpMp/hLDxI96z/laX5e/9X22+9v6YfyeX+aUeLHvd/ytL8vf+r7bfe39MfyeX+aV8WPe7/la&#xA;X5e/9X22+9v6Y/k8v80r4se93/K0vy9/6vtt97f0x/J5f5pXxY97v+Vpfl7/ANX22+9v6Y/k8v8A&#xA;NK+LHvd/ytL8vf8Aq+233t/TH8nl/mlfFj3u/wCVpfl7/wBX22+9v6Y/k8v80r4se9Ws/wAxvIt5&#xA;Otvb65aNK+yK0gSp8AX4iuCWlyAWYlIyR72R5js3Yq7FXYq7FXYq7FXYq7FXYq7FXYq7FXif/ORH&#xA;mLUEk03y7bMyW9whubkKf708ykaGnYFSad9vDNv2XiG8y42okeSHtfyC0+10mCbWdRn/AEjMAWt7&#xA;YII4yRUryYOWp47ZbHXmciIj0tcsQiN+al/ypPQP+W67/wCSf/NGX/mj3NVO/wCVJ6B/y3Xf/JP/&#xA;AJox/NHuWnf8qT0D/luu/wDkn/zRj+aPctO/5UnoH/Ldd/8AJP8A5ox/NHuWnf8AKk9A/wCW67/5&#xA;J/8ANGP5o9y07/lSegf8t13/AMk/+aMfzR7lp3/Kk9A/5brv/kn/AM0Y/mj3LSUeZ/yghsNJnvtL&#xA;u5JpLZDLJBMFPJFFW4lQNwO1N8nDUWaK09C/IPzLe6r5WnsLyQzSaVKsUMjElvRdaopJ/lKsB7UH&#xA;bNV2liEZ2P4nLwSsPTs1ze7FXYq7FXYq7FXYq7FXYq7FXYq7FXhP55f+TE8uf8Yof+ols3XZ/wDd&#xA;S/HRxc31B655k/49/wDZ/wDGuYWj6p1HRJMzXHdirsVdirsVdirsVQ2p/wDHNu/+MMn/ABE4hQxX&#xA;/nGv/eHXv+Mtv/xGTIdq84/FyNN1e0ZqHJdirsVdirsVdirsVdirsVdirsVdirwL/nICF5/O+iQp&#xA;TnLbRotelWuHAzd9mmscvf8AocTP9QSV9Y/NnyCy2+pJLLp4NEiux9atWA7JKCSnyV1y8Qw5t48/&#xA;LYsCZR2LKtC/OTyrqHGLVYZNHuDsZVrcWxP0D1Ur8m+eVT02SPL1D5FFxPkzi2aG8tRd2M8V7aHp&#xA;cWziVPkSvQ+xynjF0dj5qYF2TYuxV2KoLU9Z0rS4fW1G7jto+3qMATT+VerfQMMYk8lYDrv50WMX&#xA;KLRbVrl+guJ6pH8wg+Nvp45kQ0x6oti5n/MLzZKrzPILIkHif3FvxrX7Ipz/AOGzIGOMeSDJ7d+V&#xA;HkNPKWnXi/pGPUJ7x09cwD93G0QYcA1ST9reoHyzQ63U+KRtVOdihwhnWYTa7FXYq7FXYq7FXYq7&#xA;FXYq7FXYq7FXhP54/wDkxPLn/GKH/qJbN12f/dS/HRxc31B635nVXWBWAZWDgqdwR8OYWj6p1HR5&#xA;vrn5X+VdU5SRwGwuG/3bbUVa+8Z+D7gM2cc8g41MIufy789eWrk33l+7ebh0ltHaGbiP5o6/EPYF&#xA;su8WExUgkEjkjtJ/OnW7Ob6p5n05bwoeMkyL9VulPiy09Nj7FR88rloxzga+0MuO+YZLe/m55Jjs&#xA;VurWa4nmf/jxMJSVT/lMT6VPk5+WVwwZCaIQa6FhOpfml5t1mY2ujW/1RW2CwKZpiPdyKD6FHzzK&#xA;jp4jnuwtD2X5d6/qc31rWroxM+7l2M05+ZrQffltgcmJkzXQvIOjWXFre09eYf8AHzPRzXxFfhH0&#xA;DISygc0blkV5pIXTrppXJYQyEBNqfCe/XMc5+5kIJP8A842O50/XULHgJbcha7AlXqae9BmH2rzj&#xA;8XL0/V7Nmpcl2KuxV2KuxV2KuxV2KuxV2KuxV2KvCfzx/wDJieXP+MUP/US2brs/+6l+Oji5vqD1&#xA;zzJ/x7/7P/jXMLR9U6jokmZrjuxVAaroOjavF6epWcdyoFFZ1+Jf9VxRl+g5KMyOSsIufyp8tW+o&#xA;h0E8sTiq2rPVQa+KgOR9OZmPKSN2EiyfTfLsVrCIreGO0hH7CKB9NB/HIyzgebERJTaHT7aLfjzb&#xA;xbf8Mx5ZZFmIhE5WyQ2p/wDHNu/+MMn/ABE4hQxX/nGv/eHXv+Mtv/xGTIdq84/FyNN1e0ZqHJdi&#xA;rsVdirsVdirsVdirsVdirsVdirwn88f/ACYnlz/jFD/1Etm67P8A7qX46OLm+oPXPMn/AB7/AOz/&#xA;AONcwtH1TqOiSZmuO7FXYq6grXv44q7FXYq7FUNqf/HNu/8AjDJ/xE4hQxX/AJxr/wB4de/4y2//&#xA;ABGTIdq84/FyNN1e0ZqHJdirsVdirsVdirsVdirsVdirsVdirwn88f8AyYnlz/jFD/1Etm67P/up&#xA;fjo4ub6g9c8yf8e/+z/41zC0fVOo6JJma47sVdirsVdirsVdiqG1P/jm3f8Axhk/4icQoYr/AM41&#xA;/wC8Ovf8Zbf/AIjJkO1ecfi5Gm6vaM1DkuxV2KuxV2KuxV2KuxV2KuxV2KuxV4x/zkJ5Y1Of9H+Z&#xA;LJHkiskMN2UqWiAbnHJt2qSCe22bbszMBcD1cbURPNK7f8/YrjSoIdX0x5NRgFGuYHUJJtQsUYDi&#xA;T3of6ZkR0BjImJ9Ja5ZeIb81P/ld2lf9Wyf/AINMu/Knvard/wAru0r/AKtk/wDwaY/lT3rbv+V3&#xA;aV/1bJ/+DTH8qe9bd/yu7Sv+rZP/AMGmP5U9627/AJXdpX/Vsn/4NMfyp71t3/K7tK/6tk//AAaY&#xA;/lT3rbv+V3aV/wBWyf8A4NMfyp71tKPM/wCb0mpaXLp+m2bWxuVMc08jBmCMKMqKB1I71yUNPRsr&#xA;b0v8iPKt/ovlie8v4mguNUlWVIXBVlhjWiFgehYsx+VM1PaOYTnQ6OZgjQel5r252KuxV2KuxV2K&#xA;uxV2KuxV2KuxV2KuIBBBFQeoxVJpPJPkyR2kk0HTndjVna0gJJ8SSmXDUZP50vmWPBHuW/4F8k/9&#xA;S9pn/SHb/wDNGP5jJ/Ol8yvBHud/gXyT/wBS9pn/AEh2/wDzRj+YyfzpfMrwR7nf4F8k/wDUvaZ/&#xA;0h2//NGP5jJ/Ol8yvBHud/gXyT/1L2mf9Idv/wA0Y/mMn86XzK8Ee53+BfJP/UvaZ/0h2/8AzRj+&#xA;YyfzpfMrwR7nf4F8k/8AUvaZ/wBIdv8A80Y/mMn86XzK8Ee53+BfJP8A1L2mf9Idv/zRj+Yyfzpf&#xA;MrwR7lW28oeUrSdLi10SwgnjNUlitYUdT4hlUEYDnmRRkfmogO5NsqZOxV2KuxV2KuxV2KuxV2Ku&#xA;xV2KuxV2KuxV2KuxV2KuxV2KuxV2KuxV2KuxV2KuxV2KuxV2KuxV2KuxV2KuxV2KuxV2KuxV2Kux&#xA;V2KuxV2KuxV2KuxV2KuxV2KuxV2KuxV2KuxV2KuxV2KuxVbJ6nE+nQt2r0wiuqoR21Dwp/qgHLgI&#xA;MN1FnvO5cfeMkBFG6wvN3ZvpJyVBC0ux6k/fhpWuTeJxpXcm8TjSu5N4nGlbDv2Y/fjSrg8/Zm+g&#xA;nBQXdUV73tzP3nIkRTurRtqHhUf5VBkCIJFoxeVBy696dMpLN2KuxV2KuxV2KuxV2KuxV2KuxV2K&#xA;uxV2KuxV2KtcV8Bjau4r4DG1b4r4DG1dirsVdirsVdirsVdirsVdirsVdirsVdirsVdirsVdirsV&#xA;dirsVdirsVdirsVdirsVdirsVdirsVdirsVdirsVdirsVdirsVdirsVdirsVdirsVdirsVdirsVd&#xA;irsVdirsVdirsVdirsVdirsVdirsVdirsVdirsVdirsVdirsVdirsVdirsVdirsVdirsVdirsVdi&#xA;rsVdirsVdirsVdirsVdirsVdirsVdirsVdirsVdirsVdirsVdirsVdirsVdirsVdirsVdirsVdir&#xA;HL24vJ9auiomt1062Btii8mlMr0kYL6c7U/dhRRCevY5mwjEQHI8R38q+I7+9pJJPuWaE96bh4vU&#xA;ukQmSciWOQKXduRH72zthuzVoHGHOI1e3dz/AFTP3LC/x/YkJniMepxtcXhiSWKC6SVyis0xX1y3&#xA;xcI/U9QrxoeIFQewy+E3E1HkSPhy99U1Xz5pvpd6n+H9TY3crTc5LWOaSVphyMfqRcSpYCglAJFN&#xA;xmNlh+8jsK58q67/AHNkT6Sk8kitC0UVxKtyFBB9SbYnox/ettse2ZIG9kCvh+prtkOt6hKZYJra&#xA;9eKC5j4wfHFBEHVjzeR5lY0oRRVFcw8GMUQRuPeflTbOXcULaloL+2srDVGnt2kQw8J4JaKrB5Ul&#xA;jCK9GQNxZTt7ZZLeJlKNH3Ee6kDY0C1Pd6n9dvJLef1Jboz231cQt+7S3Z0R1ep58RVyq7npjGEe&#xA;EAjYUbvndf2KSbKZ6NcXKXNra/Wo7uyktDLBIkZjNI2RF3LvXZsozRBBNVLi/WzgTy6UnmYrY7FX&#xA;Yq7FXYq7FXYq7FXYq7FXYq7FXYq7FUm1jRru8luXhaICaGCJRJUisU5kbkAN1KmmZOHMIgXexP2i&#xA;muUCVK30C8jv4ZwLO3RElVms4TDJV1op3Lg0O++SlqImJHqPLmbQIG+iHk8nqsdwttxSR7qKWGUy&#xA;Sq/pIsHqc3QqxdnhLVr3rUVOTGs3F9x7ue/60eEibbRNTt7G/to50V764DeuXlkZIjDHE5BlLsX+&#xA;A8atTp8shLPEyiSPpHlzsnp0SIEAjvUH8vaityGVklgjhjt4Slzc2b+nEXK8/Q2Y/H/QCuSGojXn&#xA;ZPIS5+9HAb/ATSeLV3SILHakhf3glMj0b/JNASKeOURMBf1MzaF0vTdXsljjYWbRiR3d1Vw/GSQu&#xA;wHy5UGWZckJb+pEYkdyra6PcxXiTvdl4kmnlW24qFHrszbMAGr8fc5GWYGNVvQ39yRE23YaZcw6n&#xA;NdSLBFb8Gjt4oeRP7yQyO7khaFjTYY5MoMABd9b91LGJu00zHZuxV2KuxV2KuxV2KuxV2KuxV2Ku&#xA;xV2KuxV2KuxV2KuxV2KuxV2KuxV2KuxV2KuxV2KuxV2KuxV2KuxVxIUFmNANyT0AxVLbfWQUb6xC&#xA;4ZXZUe3SS4jdR0ZWiVqddwaGtcvlh7j89vvYCaD03X7y60X67JFHHOyRSQrJzgjk9SMOVDSilftA&#xA;EEjocsyaeMZ8IO2/n9zGMyRarqfmA29qhhglS5kkjj4S287KpkYKalF4sRX9ljXtkcWns7kVv1CZ&#xA;ToLrjzBHbrYm4UQGdfUuhJyHpJTj0IVqmVlVQRvue2MdOTdb1y8/wFM6pTh8yxPegOqppszGK1vC&#xA;325F/mH7KP0Ru9PdamWmIj/SHMfj7f7VGTfyWyeZZEMrejb8I7n6twNwRMf3wi5CP0/etOWEaYd5&#xA;5Xy25X3o8RF2Grm8vBEsfGIxSPU/a5RzNEfah41yvJh4Y3+OVshKyrS3xj1a2svh4zwTykn7XKJo&#xA;gAPmJG+7ICFwMu4j7b/Uknelmq6nLYiIx2z3HqE8uJoFApuTQ9a5LFiE73pZSpI4PO8ztdobH1JL&#xA;Z3Ajif4iFQPShXdu3zzKloQK35tQzeTK817e4mgJpWnYYqk1v5jZ7i7S4sbiCG2ZVMhQPTkit8Sx&#xA;s7VJb9kHMmWn2FEElrGTyWx+aLU2ep3bAiOwfigKOhcFFKD4wPiZzSnywnSniiP5y+IKJ7kPP5tN&#xA;tNDBc23CZdr1TJAvE8Kgxhpa0LU69jXJx0nECQdunP8AUg5a5oq48x+k0HG0dkmRJHJZAUWSURKa&#xA;AsG3aux6ZXHT3e/L9VpOTyQtr5ov5pYQ9hEkEotmLi4ZmCXcjxoePoqCQYzUcvpyyWliAfUb36fz&#xA;Rff5oGQ9zI8wm12KuxV2KuxVxAIIIqDsQcVYjMZfWS3hs75YYL6WptTLCkkZ5Fh+7aNaBuFCx8af&#xA;tZsRVWTGzEc6P46/img+4813L1/KWoaW1qzTadZPCAyVPrKkkaqgodwqqwI7MMHLNGd7Slfw2/Hw&#xA;XnAjuClevdT30t59Tv0jj+qXCxyNL6SNDM0k37svwJaFUFEU0PvXJQAERG4/xDpe4ob+++aDZN0e&#xA;irqbpqF9YX0cCl0RpI4zaPcSuvJkiYuvBVXjVlDNQE13yOIcEZRJ/wBlQ8/wEy3IP6FHTmQ3dhc9&#xA;Zrq5eOZTZJGlKSH4ZvSWp+Aft75LJykOgH873dL/AEIjzB/QtuZCNWkvodQkYvNDa2UbJbn129at&#xA;wEAiDMkYYDkN6g/FhiPRwmPQk89ttuvM932Ked2jNLubWzvrhpZkZbOGYXTRn1AjSXTuqNxr8dD9&#xA;nrleWJlEUOZFf6VlEgH8d6s9hqV5KdbEfpXsJU6daSfCRCteaSfytMGP+r8PhkBkjEeH/CeZ8/L3&#xA;fbunhJ9XVdrLjV9EaW0e5jeJ1WW2j5JIH5KGWRQrOeANaDr7jHCPDyUa9/6ln6o7MfsNMP160iMk&#xA;tpcLOqRGNEgkMPpuzMFMSPxDqAa/DmZky+knYivfvY82qMdwzGXRbSaQySS3XM05FLu5jGwp9iOR&#xA;EH0DNaMxGwEf9KP1OQYD8FaNGsIKy+pcEIrVE11cyx0oQeUbyMrCnYjHxpHbb4CI/QjgAYvpdhYy&#xA;396tLWKNgfRvLbT5Lf0x6ArJHcc2SIKa1DH4jXxzPy5JCI5+4yB693VpjEWf1IueKG88u6tcSlLk&#xA;CZ5oZ0r6busCRmRKGhHLlTrv7jK4kxyRA22r7WRFxKlqTG51a+5XDQ+lKIwqx3jggRoa1hYIOvTJ&#xA;YxwwG17f0e/zRLcn9qrKNQvbfTbiG0eVbmys2kdCOKH1o5WqXPI7fM5EcMTIE8pS+4hO5r3BQ0xN&#xA;Agt7QyTvLq6NBE+n+u/qCSKQ8QYSahY2Zm+zSm+SynISdvRvvXl3+aI8I97Nc1jkOxV2Kv8A/9k=</xmpGImg:image>
               </rdf:li>
            </rdf:Alt>
         </xmp:Thumbnails>
         <xmpTPg:MaxPageSize rdf:parseType="Resource">
            <stDim:w>1080.000000</stDim:w>
            <stDim:h>1080.000000</stDim:h>
            <stDim:unit>Pixels</stDim:unit>
         </xmpTPg:MaxPageSize>
         <xmpTPg:NPages>1</xmpTPg:NPages>
         <xmpTPg:HasVisibleTransparency>False</xmpTPg:HasVisibleTransparency>
         <xmpTPg:HasVisibleOverprint>False</xmpTPg:HasVisibleOverprint>
         <xmpTPg:PlateNames>
            <rdf:Seq>
               <rdf:li>Cyan</rdf:li>
               <rdf:li>Magenta</rdf:li>
               <rdf:li>Yellow</rdf:li>
            </rdf:Seq>
         </xmpTPg:PlateNames>
         <xmpTPg:SwatchGroups>
            <rdf:Seq>
               <rdf:li rdf:parseType="Resource">
                  <xmpG:groupName>默认色板组</xmpG:groupName>
                  <xmpG:groupType>0</xmpG:groupType>
               </rdf:li>
            </rdf:Seq>
         </xmpTPg:SwatchGroups>
         <dc:format>image/svg+xml</dc:format>
      </rdf:Description>
   </rdf:RDF>
</x:xmpmeta>
                                                                                                    
                                                                                                    
                                                                                                    
                                                                                                    
                                                                                                    
                                                                                                    
                                                                                                    
                                                                                                    
                                                                                                    
                                                                                                    
                                                                                                    
                                                                                                    
                                                                                                    
                                                                                                    
                                                                                                    
                                                                                                    
                                                                                                    
                                                                                                    
                                                                                                    
                                                                                                    
                           
<?xpacket end="w"?>
	</metadata>
<g>
	<path id="椭圆_1" fill="#E5EBFF" d="M539.9,1123.2c102.4,0,185.5,7.1,185.5,15.9c0,8.7-83.1,15.9-185.5,15.9
		s-185.5-7.1-185.5-15.9C354.4,1130.3,437.5,1123.2,539.9,1123.2z"/>
	<g>
		<path id="形状_11" fill="#C2DAFF" d="M685.1,850.8v-1l-136,54.6l-136.1-54V912l0,0v78.3c-0.2,6,2.2,11.9,6.5,16.2
			c4.1,4.3,10,6.8,16,6.7h227.1c6,0.2,11.8-2.2,16-6.7c4.3-4.3,6.7-10.2,6.5-16.2V852.6V850.8L685.1,850.8L685.1,850.8z
			 M549.1,884.2l136-54.6v-29.1c0.2-6-2.2-11.9-6.5-16.2c-4.1-4.3-10-6.8-16-6.7H435.4c-3,0-6,0.6-8.7,1.9c-2.7,1.1-5.1,2.9-7,4.9
			c-2.1,2.1-3.7,4.4-4.8,7.1c-1.3,2.9-1.9,5.9-1.7,8.9v27l0,0v2.9L549.1,884.2z"/>
		<path id="形状_11_拷贝_2" fill="#9EBEFF" d="M687.5,870.5L540,929.6v-22.9l147.4-59.2L687.5,870.5L687.5,870.5L687.5,870.5z"
			/>
		<g>
			<path fill="#4156A3" d="M702.2,869.1c-4.7-1.1-10.8-3.6-14.7-1.9c-0.6,0.2-1.3,1.6-1.2,3.4v118.1c0,12.4-10,22.6-22.4,22.6
				c-0.2,0-0.2,0-0.3,0H416.2c-12.4,0.2-22.6-10-22.7-22.4c0-0.2,0-0.2,0-0.3V911v-84h0.2v-26.7c0-3,0.6-6,1.9-8.7
				c2.4-5.4,6.7-9.5,11.9-11.9c2.7-1.3,5.7-1.9,8.7-1.9h247.3c12.4-0.2,22.6,9.8,22.7,22.4c0,0.2,0,0.2,0,0.3v49.9l16-6.5v-51.3
				c0-17.9-14.5-32.4-32.4-32.4c0,0,0,0-0.2,0H410c-17.9,0-32.4,14.5-32.4,32.2c0,0,0,0,0,0.2v203.6c0,17.9,14.5,32.4,32.4,32.4
				c0,0,0,0,0.2,0H670c17.9,0,32.4-14.5,32.4-32.2v-0.2V869.1H702.2z"/>
			<path fill="#4156A3" d="M702.4,869.1L702.4,869.1c0-4.4-3.5-7.9-8.1-7.9c-4.4,0.2-7.9,3.7-7.9,8.1c0,0.5,0.1,0.9,0.2,1.3v-1.5
				L702.4,869.1L702.4,869.1z"/>
			<polygon fill="#4156A3" points="539.9,888.5 393.6,830.3 393.6,850.5 539.9,908.6 686.2,850.3 686.2,830.3 			"/>
		</g>
	</g>
	<g>
		<g enable-background="new    ">
			<path fill="#7791E5" d="M410,1336c-2.1,3.2-4.1,5.9-6.2,8.3l-1-3.2c5.7-7,9.8-14.9,12.2-23.7l2.9,1.3c-1.3,4.1-2.9,8.3-4.9,12.1
				v37.8h-3V1336z M418.3,1325.7h35.9v2.9h-35.9V1325.7z M450.2,1350v18.6h-3v-3h-21.9v3h-2.9V1350H450.2z M423.3,1333.9h26v2.7
				h-25.9v-2.7H423.3z M423.3,1341.7h26v2.9h-25.9v-2.9H423.3z M425.4,1362.7h21.9v-9.8h-21.9V1362.7z M435.7,1317.7
				c1.3,2.4,2.2,4.4,2.9,6.5l-2.7,1.1c-1-2.5-1.9-4.8-3-6.8L435.7,1317.7z"/>
			<path fill="#7791E5" d="M460.7,1339.5h9.4v-6.4h3v6.4h7.9v2.9h-7.9v2.2c2.9,2.7,5.7,5.7,8.6,9.2l-1.6,2.5
				c-2.7-3.8-5.1-6.8-6.8-9.1v21.3H470v-22.1c-2.4,5.6-5.7,10.5-10.2,14.8l-1.3-3.2c5.2-4.6,8.9-9.8,11.1-15.7h-9.1v-2.8
				L460.7,1339.5L460.7,1339.5z M467,1325.2c-1.4,2.4-3,4.4-4.8,6.5l-2.5-1.7c3.5-3.7,6.2-7.8,7.8-12.5l3,0.6
				c-0.3,1.1-1,2.5-1.9,4.4H484v2.7h-9.8c1.7,2.2,3.2,4.4,4.3,6.4l-2.9,1.1c-1.3-2.5-2.9-5.1-4.8-7.5H467z M490.8,1325.2
				c-1.3,2.7-2.9,5.1-4.3,7l-2.5-1.6c3-4,5.4-8.4,6.8-13.5l2.9,0.6c-0.5,1.6-1.1,3.2-1.6,4.8h17.2v2.7H498c1.7,2.2,3.2,4.1,4.3,6
				l-2.7,1.1c-1.4-2.5-3-4.9-4.8-7.1H490.8z M505.6,1335.4v33.2h-3v-2.7h-15.1v2.7h-3v-33.2H505.6z M487.5,1344.6h15.1v-6.4h-15.1
				V1344.6z M487.5,1353.5h15.1v-6.4h-15.1V1353.5z M487.5,1363.2h15.1v-7h-15.1V1363.2z"/>
			<path fill="#7791E5" d="M539.1,1346.2h-23.5v-2.7h48.9v2.7h-22.4v7.1h16.5v2.9h-16.5v8.4c3,0.3,6.4,0.5,10.2,0.5
				c3.7,0,7.6,0,11.9-0.2l-0.8,3h-10.8c-9.2,0-15.2-0.8-18.6-2.2c-3-1.3-5.6-4-7.9-7.9c-2.2,4.4-4.9,7.9-8.4,10.8l-2.1-2.4
				c5.2-4.3,8.7-10,10.5-17.3l2.9,0.5c-0.5,2.1-1.1,4-1.9,5.9c2.4,4.3,5.1,7,8.3,8.1c1.1,0.3,2.4,0.6,3.8,1L539.1,1346.2
				L539.1,1346.2z M523.6,1320H557v18.7h-33.4V1320z M526.6,1328.2h27.3v-5.6h-27.3V1328.2z M553.9,1336v-5.4h-27.3v5.4H553.9z"/>
			<path fill="#7791E5" d="M576.6,1346.5h37.8v2.9h-17.5v14.3H619v3h-47v-3h21.9v-14.3h-17.3L576.6,1346.5L576.6,1346.5z
				 M595.2,1317.6c1,2.1,1.6,4,2.2,6.2h21.4v10.8h-3v-7.9h-40.7v7.8h-3v-10.6h22.2c-0.8-2.2-1.6-4.1-2.4-5.6L595.2,1317.6z
				 M591.2,1333.3c-4.3,4-9.5,7.3-16,9.8l-1.4-2.7c6.2-2.4,11.4-5.4,15.6-9.2L591.2,1333.3z M600.4,1330.8c5.9,2.7,11.1,6,16,10
				l-1.7,2.5c-5.2-4.4-10.5-7.8-15.9-10.2L600.4,1330.8z"/>
			<path fill="#7791E5" d="M645.4,1327.8v37.3h-2.9v-3.3h-11.3v4.9h-2.9v-38.9h4.9c1.1-3.2,1.9-6.5,2.5-10l3,0.3
				c-0.6,3.3-1.4,6.7-2.7,9.5h9.2v0.2H645.4z M631.2,1343.2h11.3v-12.4h-11.3V1343.2z M631.2,1359h11.3v-13.2h-11.3V1359z
				 M674.1,1327.9c0,17.8-0.3,28.9-0.8,33.4s-3.2,6.7-7.8,6.7l-5.4-0.2l-0.8-2.9c2.2,0.2,4.1,0.2,5.9,0.2c3,0,4.8-1.6,5.2-4.9
				c0.5-3,0.6-12.9,0.8-29.2h-16.4c-1.6,3.7-3.5,7-5.6,9.7l-1.7-2.4c4-5.6,6.7-12.4,8.1-20.5l3,0.3c-0.6,3.7-1.6,6.8-2.5,9.7H674
				L674.1,1327.9L674.1,1327.9z M654.8,1340.5c4.3,4.8,7.5,8.7,9.7,12.2l-2.4,1.7c-2.2-3.7-5.4-7.8-9.7-12.4L654.8,1340.5z"/>
		</g>
		<g enable-background="new    ">
			<path fill="#7791E5" d="M264.4,1445h11.1v25.3c1.7-1.6,3.8-3.5,6-6l0.8,3.2c-3,3.3-6.2,6.4-9.5,8.9l-1.1-2.7
				c0.6-0.6,1.1-1.3,1.1-1.9V1448h-8.1v-3H264.4z M270.6,1428.3c3.7,2.9,6.7,5.9,9.2,8.9l-2.1,2.1c-2.4-2.9-5.6-5.9-9.2-8.9
				L270.6,1428.3z M304.4,1473.1c-1.6-3.3-2.9-7.8-3.5-13.5c-0.6-4.6-1.1-10.8-1.3-18.6h-17.8v-3h17.8c0-2.2-0.2-5.7-0.2-10.5h3
				c0,4.9,0,8.4,0.2,10.5h11.3v3h-11.3c0.3,10.3,1,18.1,1.9,23.5c1.3,6.2,2.9,9.4,4.6,9.7c1.4-0.2,2.7-3.8,4-10.6l2.4,1.9
				c-1.7,7.9-3.8,11.9-6.4,11.9C307.4,1477.4,305.8,1475.9,304.4,1473.1z M288.7,1453.4h-5.6v-2.9h14.1v2.9h-5.6v16
				c2.5-0.6,5.1-1.3,7.8-2.1v2.9c-4.8,1.4-10,2.5-15.7,3.5l-0.8-2.9l5.7-1v-16.4H288.7z M307.2,1427.3c2.7,3,4.6,5.4,5.7,7.1
				l-2.2,1.4c-1.4-2.2-3.3-4.6-5.7-7.3L307.2,1427.3z"/>
			<path fill="#7791E5" d="M320,1445h11.1v25.3c1.7-1.6,3.8-3.5,6-6l0.8,3.2c-3,3.3-6.2,6.4-9.5,8.9l-1.1-2.7
				c0.6-0.6,1.1-1.3,1.1-1.9V1448h-8.1v-3H320z M326.1,1428.3c3.7,2.9,6.7,5.9,9.2,8.9l-2.1,2.1c-2.4-2.9-5.6-5.9-9.2-8.9
				L326.1,1428.3z M360,1473.1c-1.6-3.3-2.9-7.8-3.5-13.5c-0.6-4.6-1.1-10.8-1.3-18.6h-17.8v-3h17.8c0-2.2-0.2-5.7-0.2-10.5h3
				c0,4.9,0,8.4,0.2,10.5h11.3v3h-11.3c0.3,10.3,1,18.1,1.9,23.5c1.3,6.2,2.9,9.4,4.6,9.7c1.4-0.2,2.7-3.8,4-10.6l2.4,1.9
				c-1.7,7.9-3.8,11.9-6.4,11.9C363,1477.4,361.4,1475.9,360,1473.1z M344.3,1453.4h-5.6v-2.9h14.1v2.9h-5.6v16
				c2.5-0.6,5.1-1.3,7.8-2.1v2.9c-4.8,1.4-10,2.5-15.7,3.5l-0.8-2.9l5.7-1v-16.4H344.3z M362.8,1427.3c2.7,3,4.6,5.4,5.7,7.1
				l-2.2,1.4c-1.4-2.2-3.3-4.6-5.7-7.3L362.8,1427.3z"/>
			<path fill="#7791E5" d="M388.9,1428.8c-3,7.8-6,13.8-8.9,18.1c2.5-0.3,5.4-1,8.6-1.6l3.2-6.4l2.7,1c-4.9,10-9.2,17-12.4,21
				c4.3-0.8,8.6-1.9,12.9-3.5v2.7c-5.6,1.9-11,3.2-16.4,4.1l-0.8-2.9c0.5-0.2,1-0.5,1.4-1c2.4-2.5,5.1-6.7,8.1-12.4
				c-3,0.6-6.4,1.3-10,1.9l-0.8-2.9c0.5-0.2,1-0.6,1.3-1.1c3.3-5.2,6.2-11.3,8.6-18.3L388.9,1428.8z M395.7,1470.7
				c-5.6,2.1-11.9,3.8-18.9,5.2l-0.3-3c7.3-1.3,13.8-3,19.4-5.1v2.9H395.7z M411.9,1428.1c3.3,7,8.3,12.7,14.8,17.3l-1.7,2.5
				c-6-4.3-11-10-14.6-17c-4.1,7.1-9.1,12.9-14.6,17.3l-1.7-2.5c6-4.4,11-10.5,14.9-17.6L411.9,1428.1L411.9,1428.1z M421.4,1456.1
				v21.6h-3v-3.3h-16.2v3.3h-3v-21.6H421.4z M401.4,1445.4H419v2.9h-17.6V1445.4z M402.2,1471.5h16.2v-12.4h-16.2V1471.5z"/>
			<path fill="#7791E5" d="M434.5,1447v-17h23v17h-11c-0.2,2.2-0.3,4.8-0.6,7.6H458c0,9.5-0.3,15.4-0.8,17.6
				c-0.6,3.5-3.2,5.4-7.9,5.4c-0.6,0-1.9,0-3.7-0.2l-0.8-2.7c2.1,0,3.5,0.2,4.1,0.2c3,0,4.8-1.1,5.4-3.5c0.3-1.6,0.6-6.2,0.8-13.8
				h-9.5c-0.6,3.7-1.4,6.5-2.4,8.7c-2.1,4.6-5.4,8.6-10.2,11.9l-1.9-2.4c4.3-2.9,7.5-6.5,9.2-10.8c0.8-1.9,1.6-4.4,2.1-7.6h-10.3
				v-2.9h10.8c0.3-2.5,0.5-5.1,0.6-7.6h-9L434.5,1447L434.5,1447z M454.5,1444.2v-11.4h-17.2v11.4H454.5z M464.5,1432.6h3v34.8h-3
				V1432.6z M466.5,1477.8l-0.6-2.9c2.7,0.2,5.1,0.2,7.5,0.2c1.9,0,2.9-1.1,2.9-3.2v-44.2h3v44.9c0,3.3-1.6,5.1-4.8,5.1
				L466.5,1477.8L466.5,1477.8z"/>
			<path fill="#7791E5" d="M513.7,1427.8c0,4.1-0.2,8.3-0.3,12.2c3.2,15.4,11.3,27.2,24.5,35.4l-2.1,2.5
				c-11.9-7.8-19.9-18.1-23.5-31.3c-3,12.7-11.1,23-23.8,31.3l-1.9-2.7c15.6-9.7,23.5-22.6,24.1-38.4v-9.1L513.7,1427.8
				L513.7,1427.8z"/>
			<path fill="#7791E5" d="M543.3,1454h48.9v2.9h-9.4v17.5c0,2.7-1.4,4.1-4.4,4.1h-5.6l-0.6-2.9c2.4,0.2,4.1,0.2,5.2,0.2
				c1.6,0,2.4-0.8,2.4-2.2v-16.8h-36.5L543.3,1454L543.3,1454z M590.3,1432.3v10h-2.7v-7.3h-39.7v7.3H545v-10h21.4
				c-0.6-1.6-1.4-3.2-2.2-4.4l3.2-0.6c0.6,1.3,1.3,3,2.1,5.1L590.3,1432.3L590.3,1432.3z M550.9,1440.4h15.9
				c0.2-0.6,0.2-1.1,0.2-1.4v-2.2h2.9v2.2c0,0.3,0,0.8-0.2,1.4h14.8v2.7h-15.6c-0.3,0.6-0.6,1.3-1,1.7c6.4,1.6,12.1,3.5,17.5,5.9
				l-1.6,2.4c-5.6-2.7-11.4-4.8-17.5-6.2c-0.6,0.5-1.1,1-1.4,1.1c-3,2.1-7.8,3.7-14.6,4.9l-1.6-2.4c6.7-1.1,11.4-2.5,14.3-4.3
				c1.1-1,2.1-1.9,2.9-3.2H551L550.9,1440.4L550.9,1440.4z M551.5,1460.9h20.2v11.9h-20v-11.9H551.5z M568.8,1470.2v-6.7h-14.5v6.7
				H568.8z"/>
			<path fill="#7791E5" d="M598.4,1451h49.7v3h-49.7V1451z"/>
			<path fill="#7791E5" d="M655.2,1458.9h10.2v-7h3v7h10v2.9h-10v10.3c4.1-0.6,7.8-1.3,11.3-2.1v3c-7.1,1.6-15.6,2.7-25.1,3.7
				l-0.3-3.2c2.9-0.3,6.5-0.6,11.1-1.3v-10.8h-10.2V1458.9z M655.5,1435.6h9.8v-7.3h3v7.3h9.7v2.9h-9.7v8.1h10.8v2.9h-24.9v-2.9
				h11.1v-8.1h-9.8L655.5,1435.6L655.5,1435.6z M680,1439.2h15.6v-11.6h3v11.6h5.2v3h-5.2v30.8c0,3.3-1.7,4.9-5.2,4.9h-7l-0.6-2.9
				c3.2,0.2,5.4,0.2,6.7,0.2c2.2,0,3.3-1,3.3-3v-30h-15.6v-3H680z M684.3,1448.9c2.5,4.1,4.9,8.4,6.8,13.2l-2.5,1.3
				c-2.1-5.1-4.3-9.5-6.8-13.3L684.3,1448.9z"/>
			<path fill="#7791E5" d="M715.7,1445.8c-2.1,3.2-4.1,5.9-6.2,8.3l-1-3.2c5.7-7,9.8-14.9,12.2-23.7l2.9,1.3
				c-1.3,4.1-2.9,8.3-4.9,12.1v37.8h-3V1445.8z M724,1435.4h35.9v2.9H724V1435.4z M755.9,1459.7v18.6h-3v-3H731v3h-3v-18.6H755.9z
				 M729.1,1443.7H755v2.7h-25.9V1443.7z M729.1,1451.5H755v2.9h-25.9V1451.5z M731.1,1472.4H753v-9.8h-21.9V1472.4z M741.5,1427.5
				c1.3,2.4,2.2,4.4,2.9,6.5l-2.7,1.1c-1-2.5-1.9-4.8-3-6.8L741.5,1427.5z"/>
			<path fill="#7791E5" d="M781.7,1432.6v39.2h-3v-3.3h-8.3v4.6h-3v-40.5L781.7,1432.6L781.7,1432.6z M770.5,1465.6h8.3v-30.2h-8.3
				V1465.6z M811.8,1430.5v24.1h-21.9v16.2c0,2.4,1.1,3.7,3.5,3.7h14c1.6,0,2.5-0.8,3.3-2.2c0.5-1.1,0.8-4,1.1-8.3l2.9,1
				c-0.3,4-0.6,6.7-1.3,8.6c-1,2.5-2.7,3.8-5.2,4h-15.7c-3.7,0-5.4-1.9-5.4-5.7v-41.1h24.8L811.8,1430.5L811.8,1430.5z
				 M797.9,1433.4h-7.8v18.4h7.8V1433.4z M800.7,1451.8h8.3v-18.4h-8.3V1451.8z"/>
		</g>
	</g>
	<g>
		<path id="圆角矩形_2_1_" fill="#B8C9FF" d="M647.1,530.9h4c2.5,0,4.6,2.1,4.6,4.6v43c0,2.5-2.1,4.6-4.6,4.6h-4
			c-2.5,0-4.6-2.1-4.6-4.6v-43C642.5,533,644.6,530.9,647.1,530.9z M627.4,550.5H671c2.5,0,4.6,2.1,4.6,4.6v4c0,2.5-2.1,4.6-4.6,4.6
			h-43.5c-2.5,0-4.6-2.1-4.6-4.6v-4C622.8,552.5,624.9,550.5,627.4,550.5z M540.4,441.5h4c2.5,0,4.6,2.1,4.6,4.6v43
			c0,2.5-2.1,4.6-4.6,4.6h-4c-2.5,0-4.6-2.1-4.6-4.6v-43C535.8,443.6,537.9,441.5,540.4,441.5z M520.5,461.1H564
			c2.5,0,4.6,2.1,4.6,4.6v3.8c0,2.5-2.1,4.6-4.6,4.6h-43.5c-2.5,0-4.6-2.1-4.6-4.6v-3.8C516.1,463.1,518.2,461.1,520.5,461.1z
			 M482.7,576.2h9.8c2.5,0,4.6,2.1,4.6,4.6v65.9c0,2.5-2.1,4.6-4.6,4.6h-9.8c-2.5,0-4.6-2.1-4.6-4.6v-65.9
			C478.3,578.3,480.4,576.2,482.7,576.2L482.7,576.2z M454.5,604.5H521c2.5,0,4.6,2.1,4.6,4.6v9.5c0,2.5-2.1,4.6-4.6,4.6h-66.5
			c-2.5,0-4.6-2.1-4.6-4.6v-9.5C449.9,606.5,451.9,604.5,454.5,604.5z M875,549h6.8c2.5,0,4.6,2.1,4.6,4.6v55c0,2.5-2.1,4.6-4.6,4.6
			H875c-2.5,0-4.6-2.1-4.6-4.6v-55.1C870.4,551,872.5,549,875,549z M850.9,573h55c2.5,0,4.6,2.1,4.6,4.6v6.8c0,2.5-2.1,4.6-4.6,4.6
			h-55c-2.5,0-4.6-2.1-4.6-4.6v-6.8C846.5,575.1,848.4,573,850.9,573z"/>
		<g id="形状_2">
			<path fill="#B8C9FF" d="M425.6,483.9c6.8,0,12.4,5.6,12.4,12.4v0.2c-0.2,6.8-5.6,12.2-12.4,12.2s-12.4-5.6-12.4-12.4
				S418.7,483.9,425.6,483.9 M239.1,520.6c4.9,0,9.1,4,9.1,9.1c0,4.9-4,9.1-9.1,9.1c-4.9,0-9.1-4-9.1-9.1
				C230.2,524.6,234.2,520.6,239.1,520.6 M802.9,671.5c6.8,0,12.4,5.6,12.4,12.4s-5.6,12.4-12.4,12.4c-3.3,0-6.4-1.3-8.7-3.7
				c-2.4-2.4-3.7-5.4-3.7-8.7C790.5,677.1,796.1,671.5,802.9,671.5 M193.5,696.6c6.2,0,11.3,5.1,11.3,11.3s-5.1,11.3-11.3,11.3
				s-11.3-5.1-11.3-11.3c0-3,1.1-5.9,3.3-7.9C187.5,697.9,190.4,696.6,193.5,696.6L193.5,696.6L193.5,696.6 M425.6,471.2
				c-13.8,0-25.1,11.3-25.1,25.1s11.3,25.1,25.1,25.1l0,0c13.8,0,25.1-11.3,25.1-25.1l0,0l0,0C450.7,482.5,439.4,471.2,425.6,471.2
				L425.6,471.2z M239.1,507.9c-11.9,0-21.6,9.7-21.8,21.8c0,11.9,9.7,21.8,21.8,21.8l0,0c11.9,0,21.8-9.7,21.8-21.8
				C260.9,517.6,251.2,507.9,239.1,507.9L239.1,507.9z M802.9,658.8c-13.8,0-25.1,11.3-25.1,25.1s11.1,25.1,25.1,25.3c0,0,0,0,0.2,0
				c13.8,0,25.1-11.3,25.1-25.1l0,0C828,670.1,816.8,658.8,802.9,658.8L802.9,658.8z M193.5,683.9L193.5,683.9
				C193.4,683.9,193.4,683.9,193.5,683.9c-13.3,0-24.1,10.8-24,24.1c0,13.2,10.8,24,24,24l0,0c13.3,0,24-10.8,24-24.1l0,0
				C217.5,694.7,206.7,683.9,193.5,683.9L193.5,683.9z"/>
		</g>
		<path id="圆角矩形_3" fill="#B8C9FF" d="M331.9,563h0.8c2.5,0,4.6,2.1,4.6,4.6v15.9c0,2.5-2.1,4.6-4.6,4.6h-0.8
			c-2.5,0-4.6-2.1-4.6-4.6v-15.9C327.4,565.1,329.5,563,331.9,563z M363.9,581.3c1.4,2.4,0.6,5.4-1.7,6.8l0,0l-13,7.5
			c-2.4,1.4-5.4,0.5-6.8-1.9s-0.5-5.4,1.9-6.8l13-7.5C359.5,578.1,362.5,578.9,363.9,581.3L363.9,581.3z M363.9,618
			c-1.4,2.4-4.4,3.2-6.8,1.9l0,0l-13-7.5c-2.4-1.4-3.2-4.4-1.9-6.8c1.3-2.4,4.4-3.2,6.8-1.9l0,0l13,7.5
			C364.6,612.6,365.4,615.6,363.9,618L363.9,618z M332.3,636.4c-2.7,0-4.9-2.2-4.9-4.9l0,0v-15.1c0-2.7,2.2-4.9,4.9-4.9
			s4.9,2.2,4.9,4.9l0,0v15.1C337.3,634.2,335,636.4,332.3,636.4L332.3,636.4L332.3,636.4z M300.7,618c-1.4-2.4-0.6-5.4,1.7-6.8l0,0
			l13-7.5c2.4-1.3,5.4-0.5,6.8,1.9c1.3,2.4,0.5,5.4-1.7,6.7l-13,7.5C305.2,621.1,302.2,620.4,300.7,618L300.7,618z M300.7,581.3
			c1.4-2.4,4.4-3.2,6.8-1.9l0,0l13,7.5c2.4,1.4,3.2,4.4,1.7,6.8c-1.4,2.4-4.3,3.2-6.7,1.7l-13-7.5
			C300.1,586.7,299.3,583.7,300.7,581.3L300.7,581.3z M780.5,482.7h1.3c2.4,0,4.4,1.9,4.4,4.4v17.6c0,2.4-1.9,4.4-4.4,4.4h-1.3
			c-2.4,0-4.4-1.9-4.4-4.4l0,0v-17.6C776.1,484.6,778.2,482.7,780.5,482.7L780.5,482.7z M813.7,502.2c1.4,2.5,0.6,5.7-1.9,7.3
			l-13.3,7.9c-2.4,1.4-5.4,0.6-6.8-1.7l-0.2-0.2c-1.4-2.5-0.6-5.7,1.9-7.3l13.3-7.9c2.4-1.4,5.4-0.6,6.8,1.7
			C813.6,502,813.6,502,813.7,502.2z M813.7,540.9c-1.3,2.4-4.3,3.3-6.8,2.1c0,0-0.2,0-0.2-0.2l-13.3-7.9c-2.4-1.6-3.3-4.8-1.9-7.3
			c1.3-2.4,4.3-3.3,6.8-2.1c0,0,0.2,0,0.2,0.2l13.3,7.9C814.2,535.2,815,538.4,813.7,540.9L813.7,540.9z M781.2,560.3
			c-2.9,0-5.1-2.4-5.1-5.2v-15.9c0-2.9,2.1-5.2,4.9-5.2c2.9-0.2,5.2,2.1,5.2,4.9c0,0.2,0,0.2,0,0.3v15.9
			C786.4,557.9,784,560.3,781.2,560.3L781.2,560.3z M748.8,540.9c-1.4-2.5-0.6-5.7,1.9-7.3l13.3-7.9c2.4-1.4,5.4-0.6,6.8,1.7
			c0,0,0,0.2,0.2,0.2c1.4,2.5,0.6,5.7-1.9,7.3l-13.3,7.9c-2.4,1.4-5.4,0.6-6.8-1.7C748.8,541.1,748.8,541.1,748.8,540.9L748.8,540.9
			z M748.8,502.2c1.3-2.4,4.3-3.3,6.8-2.1c0,0,0.2,0,0.2,0.2l13.3,7.9c2.4,1.6,3.3,4.8,1.9,7.3c-1.3,2.4-4.3,3.3-6.8,2.1
			c0,0-0.2,0-0.2-0.2l-13.3-7.9C748.1,507.8,747.3,504.6,748.8,502.2z"/>
	</g>
</g>
</svg>
