<?xml version="1.0" encoding="utf-8"?>
<!-- Generator: Adobe Illustrator 18.0.0, SVG Export Plug-In . SVG Version: 6.00 Build 0)  -->
<!DOCTYPE svg PUBLIC "-//W3C//DTD SVG 1.1//EN" "http://www.w3.org/Graphics/SVG/1.1/DTD/svg11.dtd">
<svg version="1.1" id="图层_1" xmlns="http://www.w3.org/2000/svg" xmlns:xlink="http://www.w3.org/1999/xlink" x="0px" y="0px"
	 viewBox="0 0 1024 1024" enable-background="new 0 0 1024 1024" xml:space="preserve">
<title></title>
<g id="icomoon-ignore">
</g>
<g>
	<path d="M647.4,584.4c11.8-10.4,22.6-21.7,32.4-33.8c10.2-12.7,18.9-26.6,26.3-41.5c7.3-15,13-30.8,17-47.5
		c4-16.7,5.9-33.8,5.9-51.3c0-62.2-21.2-115-63.6-158.5c-42.4-43.5-93.5-65.3-153.4-65.3s-111,21.8-153.4,65.3
		c-42.4,43.5-63.6,96.4-63.6,158.5c0,35,7.5,68,22.5,98.8c15,30.8,35.5,56.4,61.5,76.7c-30.5,15.8-57.5,36.2-81,61
		c-23.5,24.9-42.2,53.7-56.4,86.5c-14.1,32.8-22.3,67.5-24.6,104.3h39.8c1.7-25.4,6.9-49.9,15.7-73.3s20.2-44.9,34.3-64.4
		c14.1-19.5,30.8-36.7,50-51.7s39.8-27,61.9-36c14.1,6.8,29.2,12.1,45.4,16.1c16.1,4,32.1,5.9,47.9,5.9c32.5,0,63.6-7.2,93.4-21.7
		C623.2,603.4,637.5,592.8,647.4,584.4z M387,539.1c-34.8-35.6-52.1-78.6-52.1-128.9c0-50.3,17.4-93.2,52.1-128.9S463.4,228,512,228
		c32.2,0,61.9,8.1,89,24.2c27.1,16.1,48.6,38.1,64.4,66.1c15.8,28,23.7,58.6,23.7,92c0,50.3-17.4,93.2-52.1,128.9
		s-76.4,53.4-125,53.4l0,0C463.4,592.5,421.7,574.7,387,539.1z"/>
	<path d="M782.4,733.2c-14.1-32.8-32.9-61.6-56.4-86.5c-13.7-14.6-28.6-27.6-44.6-39c-10.6,10-23.4,18.3-35.2,24.9
		c27.3,17.2,51,39.8,71.3,67.6c29.7,40.7,46.2,86.5,49.6,137.3H807C804.7,800.8,796.5,766,782.4,733.2z"/>
</g>
</svg>
