<?xml version="1.0" encoding="utf-8"?>
<!-- Generator: Adobe Illustrator 18.0.0, SVG Export Plug-In . SVG Version: 6.00 Build 0)  -->
<!DOCTYPE svg PUBLIC "-//W3C//DTD SVG 1.1//EN" "http://www.w3.org/Graphics/SVG/1.1/DTD/svg11.dtd">
<svg version="1.1" id="图层_1" xmlns="http://www.w3.org/2000/svg" xmlns:xlink="http://www.w3.org/1999/xlink" x="0px" y="0px"
	 viewBox="0 0 200 200" enable-background="new 0 0 200 200" xml:space="preserve">
<g>
	<path fill="#B0BBFF" d="M101.2,119.2L161.4,95c0.4-0.2,0.6-0.5,0.6-0.9V79.7c0-0.7-0.7-1.2-1.4-0.9L100.5,103
		c-0.4,0.2-0.6,0.5-0.6,0.9v14.4C99.8,119,100.5,119.5,101.2,119.2z"/>
	<g>
		<path fill="#576994" d="M162.2,78.2l6.8-2.7V56.6c0-3.8-1.3-7.1-4-9.8c-2.7-2.7-6-4-9.8-4H44.8c-3.8,0-7.1,1.3-9.8,4
			c-2.7,2.7-4,6-4,9.8v86.8c0,3.8,1.3,7.1,4,9.8c2.7,2.7,6,4,9.8,4h110.4c3.8,0,7.1-1.3,9.8-4c2.7-2.7,4-6,4-9.8V86.2h0
			c0-1.9-1.5-3.4-3.4-3.4c-1.9,0-3.4,1.5-3.4,3.4h0l0,54c0,2.7-0.9,5-2.8,6.8c-1.9,1.9-4.2,2.8-6.8,2.8H47.4c-2.7,0-5-0.9-6.8-2.8
			c-1.9-1.9-2.8-4.2-2.8-6.8v-33.1h0V71.3h0V60c0-1.3,0.3-2.6,0.8-3.7c0.5-1.2,1.2-2.2,2.1-3c0.9-0.9,1.9-1.6,3-2.1
			c1.2-0.5,2.4-0.8,3.7-0.8h105.1c2.7,0,5,0.9,6.8,2.8s2.8,4.2,2.8,6.8v12.6V78.2z"/>
		<polygon fill="#576994" points="37.8,69.7 37.8,78.3 100,103.1 162.2,78.2 162.1,69.7 100,94.5 		"/>
	</g>
</g>
</svg>
