<?xml version="1.0" encoding="utf-8"?>
<!-- Generator: Adobe Illustrator 22.1.0, SVG Export Plug-In . SVG Version: 6.00 Build 0)  -->
<svg version="1.1" id="图层_1" xmlns="http://www.w3.org/2000/svg" xmlns:xlink="http://www.w3.org/1999/xlink" x="0px" y="0px"
	 viewBox="0 0 26 26" style="enable-background:new 0 0 26 26;" xml:space="preserve">
<style type="text/css">
	.st0{fill:#6B78D6;}
	.st1{fill:#FFFFFF;}
</style>
<circle class="st0" cx="13" cy="13" r="13"/>
<path class="st1" d="M20,11.1c0.5,0,1-0.4,1-1c0-0.5-0.4-1-1-1h-1.5l1.2-2.8c0.2-0.5,0-1-0.5-1.2s-1,0-1.3,0.5l-1.5,3.5h-3.8
	l1.2-2.8c0.2-0.5,0-1-0.5-1.2s-1,0-1.2,0.5l-1.5,3.5H6c-0.5,0-1,0.4-1,1c0,0.5,0.4,1,1,1h3.9l-1.6,4H6c-0.5,0-1,0.4-1,1
	c0,0.5,0.4,1,1,1h1.5l-1.2,2.8c-0.2,0.5,0,1,0.5,1.2C6.9,21,7,21,7.1,21c0.4,0,0.7-0.2,0.9-0.6l1.5-3.5h3.8l-1.1,2.7
	c-0.2,0.5,0,1,0.5,1.2c0.1,0,0.2,0.1,0.4,0.1c0.4,0,0.7-0.2,0.9-0.6l1.5-3.5H20c0.5,0,1-0.4,1-1c0-0.5-0.4-1-1-1h-3.9l1.6-4H20V11.1
	z M14.1,15h-3.8l1.6-4h3.8L14.1,15z"/>
</svg>
