<?xml version="1.0" encoding="utf-8"?>
<!-- Generator: Adobe Illustrator 18.0.0, SVG Export Plug-In . SVG Version: 6.00 Build 0)  -->
<!DOCTYPE svg PUBLIC "-//W3C//DTD SVG 1.1//EN" "http://www.w3.org/Graphics/SVG/1.1/DTD/svg11.dtd">
<svg version="1.1" id="图层_1" xmlns="http://www.w3.org/2000/svg" xmlns:xlink="http://www.w3.org/1999/xlink" x="0px" y="0px"
	 viewBox="0 0 200 200" enable-background="new 0 0 200 200" xml:space="preserve">
<g>
	<polygon fill="#B0BBFF" points="81.5,115.4 131,99.3 137.1,105.4 87.5,121.5 	"/>
	<path fill="#B0BBFF" d="M99.5,86.3c2.2-2.2,4.5-3.5,7-3.8c2.5-0.3,4.8,0.3,7,2.5c1.9,1.9,2.9,4.1,2.5,6.7c0,2.5-1.6,5.1-4.1,7.6
		c-2.5,2.5-5.1,3.8-7.6,4.1c-2.5,0-4.8-0.6-6.7-2.5C95.6,99,95,96.8,95,94.2C95.3,91.7,96.6,89.1,99.5,86.3z"/>
	<path fill="#B0BBFF" d="M108.6,122.9c2.2-2.2,4.4-3.3,6.9-3.6c2.5-0.3,4.8,0.1,7.1,2.3c1.9,1.9,2.9,4.1,2.5,6.7
		c0,2.5-1.4,5.2-3.9,7.8c-2.5,2.5-4.7,4.1-7.2,4.4c-2.8,0.6-5.4-1-7.3-2.9c-1.9-1.9-2.7-4.2-2.5-6.7
		C104.5,128.3,106.1,125.8,108.6,122.9z"/>
	<g>
		<g>
			<path fill="#576994" d="M65.4,73.8c-8.6,1.2-19.3-5.5-25.9-12c-3.3-2.7-18.1-23.5-11.5-31c3.6-4,12.2-2.3,16.5,0
				c4.3,2.3,8.9,5.3,14.2,10.5c1.2,1.2,2.5,2.5,3.7,3.7l-4.6,4c-0.9-0.9-2.5-2.3-3.8-3.5C45,36.3,36.2,33.9,32.6,35.4
				c-0.1,3.1,2.7,12.8,11.9,22c9.8,9.8,16.9,9.4,20.9,10.3l4,4.6C68.4,73.5,66.9,73.6,65.4,73.8z"/>
			<g>
				<path fill="none" d="M73,71.3c-0.6,3.1-3.2,4.8-5.9,4.8c-0.6,0-3.4-0.7-4.8-3c-0.9-1.2-1.2-3.1-0.6-4.6c0.6-3.1,4-5.2,7.1-4.3
					C71.8,64.9,73.9,68.3,73,71.3z"/>
				<path fill="#576994" d="M68.7,64.3c-3.1-0.9-6.4,1.2-7.1,4.3c-0.6,1.5-0.3,3.4,0.6,4.6c1.4,2.3,4.2,3,4.8,3
					c2.8,0,5.3-1.7,5.9-4.8C73.9,68.3,71.8,64.9,68.7,64.3z"/>
				<path fill="#576994" d="M114.8,164.5L45.9,96.3l5.9-42.2l44.4-9.3l64.6,64.5l4.9-5L99.6,38.3c-0.9-0.9-2.2-1.3-3.5-1.1
					L47.8,47.3c-1.7,0.3-3.1,1.7-3.3,3.5l-6,45.8c-0.1,1.2,0.3,2.4,1.1,3.3l72.5,72.5c1.6,1.6,4.1,1.6,5.7,0l54.9-55.3l-4.7-5
					L114.8,164.5z"/>
			</g>
		</g>
		<g>
			<path fill="#576994" d="M93.4,80.2c2.2-2.2,4.5-3.5,7-3.8c2.5-0.3,4.8,0.3,7,2.5c1.9,1.9,2.9,4.1,2.5,6.7c0,2.5-1.6,5.1-4.1,7.6
				s-5.1,3.8-7.6,4.1c-2.5,0-4.8-0.6-6.7-2.5s-2.5-4.1-2.5-6.7C89.2,85.6,90.5,83.1,93.4,80.2z M105,81.5c-1-1-1.9-1.3-3.5-1
				c-1.3,0.3-3.2,1.3-5.4,3.5c-1.9,1.9-2.9,3.5-3.2,5.1c-0.3,1.3,0.3,2.2,1,3.2c1,1,2.2,1.6,3.5,1.3c1.3-0.3,3.2-1.3,5.1-3.5
				c1.9-1.9,2.9-3.5,3.2-5.1C105.9,83.8,106,82.4,105,81.5z M76.7,110.6l49.5-16.1l4.7,4.8l-49.6,16.1L76.7,110.6z M102.6,116.8
				c2.2-2.2,4.4-3.3,6.9-3.6c2.5-0.3,4.8,0.1,7.1,2.3c1.9,1.9,2.9,4.1,2.5,6.7c0,2.5-1.4,5.2-3.9,7.8c-2.5,2.5-4.7,4.1-7.2,4.4
				c-2.8,0.6-5.4-1-7.3-2.9c-1.9-1.9-2.7-4.2-2.5-6.7C98.4,122.2,100,119.7,102.6,116.8z M114.3,118.1c-1.1-1.1-2.8-1.3-4-1
				c-1.3,0.3-2.6,1.3-4.9,3.5c-1.9,1.9-2.8,3.2-3.1,4.8c-0.3,1.3,0.4,3,1.2,3.7c1.1,0.9,2.5,1.2,3.7,0.9c1.2-0.3,2.6-0.9,4.6-3.1
				c1.9-1.9,2.9-3.4,3.5-5.2C115.7,120.4,115.3,119.1,114.3,118.1z"/>
		</g>
	</g>
	<circle fill="#576994" cx="163.2" cy="106.8" r="3.5"/>
	<circle fill="#576994" cx="170.3" cy="114.7" r="3.5"/>
</g>
</svg>
