<?xml version="1.0" standalone="no"?><!DOCTYPE svg PUBLIC "-//W3C//DTD SVG 1.1//EN" "http://www.w3.org/Graphics/SVG/1.1/DTD/svg11.dtd"><svg t="1608347004212" class="icon" viewBox="0 0 1024 1024" version="1.1" xmlns="http://www.w3.org/2000/svg" p-id="4834" xmlns:xlink="http://www.w3.org/1999/xlink" width="200" height="200"><defs><style type="text/css"></style></defs><path d="M692.736 491.52c4.096 0 7.168-3.584 7.168-8.192 0-96.256-71.168-174.592-159.232-174.592S381.44 387.072 381.44 483.328c0 4.608 3.584 8.192 7.168 8.192h304.128z" fill="#DDDDDD" p-id="4835"></path><path d="M539.136 271.36c-59.392-4.608-108.544 14.848-150.016 54.784S326.656 414.208 326.656 471.04c0 3.584 0.512 6.656 2.048 10.24 1.536 3.584 3.072 6.656 5.632 9.216 2.048 2.56 6.144 4.608 10.752 5.12s14.848-1.536 18.432-7.68c2.56-3.584 5.12-9.728 5.12-16.896 1.536-40.448 16.896-84.48 47.616-113.152 28.672-27.136 59.904-41.472 102.4-47.616 7.68-1.024 28.16 1.536 33.792-1.536 3.072-1.536 11.264-6.144 11.776-13.824 0.512-5.12-0.512-7.68-3.072-11.776s-4.096-5.12-8.192-7.68c-4.096-3.072-8.704-4.096-13.824-4.096z" fill="#333333" p-id="4836"></path><path d="M755.2 330.752m-16.896 0a16.896 16.896 0 1 0 33.792 0 16.896 16.896 0 1 0-33.792 0Z" fill="#333333" p-id="4837"></path><path d="M723.968 282.624m-17.408 0a17.408 17.408 0 1 0 34.816 0 17.408 17.408 0 1 0-34.816 0Z" fill="#333333" p-id="4838"></path><path d="M591.36 817.152H431.616c-2.56 0-5.632 1.024-8.192 3.072-2.56 2.048-5.12 5.12-6.144 9.216-1.536 4.096-2.048 8.192-2.048 12.288 0 2.048 1.024 6.656 1.536 8.192 1.024 4.096 5.632 2.56 6.656 3.584 1.536 1.024 2.56 2.048 4.096 2.56s2.56 0.512 4.096 0.512h159.744c5.12 0 9.216-2.56 12.8-7.168 2.56-3.072 5.12-3.072 5.12-9.728 0-6.656-1.536-10.24-4.096-14.336-3.584-5.632-8.704-8.192-13.824-8.192zM740.352 339.456c14.848 30.72 22.528 64.512 22.528 100.864 0 30.72-5.632 60.416-17.408 88.576s-28.672 53.248-50.176 75.264c-21.504 22.016-41.472 39.424-69.632 52.224-11.776 5.632-17.408 14.848-17.408 27.136l-3.584 37.376c0 8.192-4.608 14.336-10.752 19.968-5.632 5.632-12.8 8.192-20.992 8.192H450.56c-3.584 0-7.68-0.512-11.264-2.048-3.584-1.536-7.168-3.584-9.728-6.144s-5.12-5.632-6.656-9.216-2.048-7.68-2.048-11.264l-5.12-36.864c0-12.288-5.632-21.504-17.408-26.624-43.52-19.968-72.704-49.152-98.816-88.064s-38.912-81.408-38.912-128c0-66.048 24.576-122.368 73.728-169.472 49.152-46.592 108.544-70.144 177.664-70.144s128.512 23.552 177.664 70.144c9.216 8.704 13.824 13.824 21.504 23.04l27.648-20.992c-22.528-28.672-49.664-50.688-82.432-69.12-44.032-24.576-92.16-36.864-143.872-36.864-38.912 0-75.776 7.168-111.104 22.016-35.328 14.848-66.048 34.304-91.648 58.88s-46.08 53.76-61.44 87.552-23.04 70.144-23.04 107.52c0 74.24 26.624 138.24 80.384 192 20.48 19.968 43.008 36.352 67.584 49.152v16.384c0 29.696 10.752 55.296 36.352 71.68 13.824 8.192 30.208 9.728 45.568 9.728H568.32c22.528 0 43.52-6.144 59.904-22.016s22.016-36.864 22.016-59.392v-16.384c18.432-9.728 35.328-20.992 51.2-34.304 20.48-17.408 37.888-36.864 51.712-58.368s25.088-45.056 32.768-70.144 11.776-51.712 11.776-78.336c0-43.008-9.216-83.456-28.16-120.832l-29.184 16.896z" fill="#333333" p-id="4839"></path></svg>