<?xml version="1.0" encoding="utf-8"?>
<!-- Generator: Adobe Illustrator 18.0.0, SVG Export Plug-In . SVG Version: 6.00 Build 0)  -->
<!DOCTYPE svg PUBLIC "-//W3C//DTD SVG 1.1//EN" "http://www.w3.org/Graphics/SVG/1.1/DTD/svg11.dtd">
<svg version="1.1" id="图层_1" xmlns="http://www.w3.org/2000/svg" xmlns:xlink="http://www.w3.org/1999/xlink" x="0px" y="0px"
	 viewBox="0 420 1080 1080" enable-background="new 0 420 1080 1080" xml:space="preserve">
<metadata><?xpacket begin="﻿" id="W5M0MpCehiHzreSzNTczkc9d"?>
<x:xmpmeta xmlns:x="adobe:ns:meta/" x:xmptk="Adobe XMP Core 5.6-c011 79.156289, 2014/03/31-23:39:12        ">
   <rdf:RDF xmlns:rdf="http://www.w3.org/1999/02/22-rdf-syntax-ns#">
      <rdf:Description rdf:about=""
            xmlns:xmp="http://ns.adobe.com/xap/1.0/"
            xmlns:xmpGImg="http://ns.adobe.com/xap/1.0/g/img/"
            xmlns:xmpTPg="http://ns.adobe.com/xap/1.0/t/pg/"
            xmlns:stDim="http://ns.adobe.com/xap/1.0/sType/Dimensions#"
            xmlns:xmpG="http://ns.adobe.com/xap/1.0/g/"
            xmlns:dc="http://purl.org/dc/elements/1.1/">
         <xmp:CreatorTool>Adobe Illustrator CC 2014 (Windows)</xmp:CreatorTool>
         <xmp:CreateDate>2018-03-06T11:08:31+08:00</xmp:CreateDate>
         <xmp:Thumbnails>
            <rdf:Alt>
               <rdf:li rdf:parseType="Resource">
                  <xmpGImg:width>184</xmpGImg:width>
                  <xmpGImg:height>256</xmpGImg:height>
                  <xmpGImg:format>JPEG</xmpGImg:format>
                  <xmpGImg:image>/9j/4AAQSkZJRgABAgEASABIAAD/7QAsUGhvdG9zaG9wIDMuMAA4QklNA+0AAAAAABAASAAAAAEA&#xA;AQBIAAAAAQAB/+4ADkFkb2JlAGTAAAAAAf/bAIQABgQEBAUEBgUFBgkGBQYJCwgGBggLDAoKCwoK&#xA;DBAMDAwMDAwQDA4PEA8ODBMTFBQTExwbGxscHx8fHx8fHx8fHwEHBwcNDA0YEBAYGhURFRofHx8f&#xA;Hx8fHx8fHx8fHx8fHx8fHx8fHx8fHx8fHx8fHx8fHx8fHx8fHx8fHx8fHx8f/8AAEQgBAAC4AwER&#xA;AAIRAQMRAf/EAaIAAAAHAQEBAQEAAAAAAAAAAAQFAwIGAQAHCAkKCwEAAgIDAQEBAQEAAAAAAAAA&#xA;AQACAwQFBgcICQoLEAACAQMDAgQCBgcDBAIGAnMBAgMRBAAFIRIxQVEGE2EicYEUMpGhBxWxQiPB&#xA;UtHhMxZi8CRygvElQzRTkqKyY3PCNUQnk6OzNhdUZHTD0uIIJoMJChgZhJRFRqS0VtNVKBry4/PE&#xA;1OT0ZXWFlaW1xdXl9WZ2hpamtsbW5vY3R1dnd4eXp7fH1+f3OEhYaHiImKi4yNjo+Ck5SVlpeYmZ&#xA;qbnJ2en5KjpKWmp6ipqqusra6voRAAICAQIDBQUEBQYECAMDbQEAAhEDBCESMUEFURNhIgZxgZEy&#xA;obHwFMHR4SNCFVJicvEzJDRDghaSUyWiY7LCB3PSNeJEgxdUkwgJChgZJjZFGidkdFU38qOzwygp&#xA;0+PzhJSktMTU5PRldYWVpbXF1eX1RlZmdoaWprbG1ub2R1dnd4eXp7fH1+f3OEhYaHiImKi4yNjo&#xA;+DlJWWl5iZmpucnZ6fkqOkpaanqKmqq6ytrq+v/aAAwDAQACEQMRAD8A9U4q7FXYq7FXYq7FXYqt&#xA;klijFZHVB4sQP14REnkgltXV1DKQynoQajEikt4FQ9/fR2VsZ5FZlBAooqd8sxYzOVBjKVC2M/py&#xA;L9NfXuL+lx48Nq/Zp40675svyx8Lg6uP4nqtk1hfR3tsJ41ZVJIowods1uXGYSouRGVi0RlbJ2Ku&#xA;xV2KuxV2KuxV2KuxV2KuxV2KuxV2KuxV2KuxVjUdsmq61dpdyMFgLLHGDTZW47ZsjPwsQMRzceuK&#xA;RtU0cNZ61cWEUhkt6E79iAD9+9DkdR68QmRRTDaVMhzXt7iARQ7jwxVLP0Q36a+vVT0eNPTpvXjx&#xA;+WZPj/u+Hq18HqtMwABQbDwzGbHYq7FXYq7FWndI0Z3PFFBLMegAwgWaCpbquqenphurKRW+JVDi&#xA;jDrvmRgw3PhkGuc9rCNa8t4zEksipLLTghO5J8BlIxk2QNgz4grZBLsVdirsVSTzJdXCG2topPRW&#xA;diHkrTYEDr4b75m6OANyIumnKTsELbCbTNYhtY7g3EUwHNfDlXtU/PLZ1kxmRFEMR6ZVbJc1rkOx&#xA;V2KuxVK9Q0C3u5/rCSNBMftMu4PatNt8ysWqMBVWGuWME2raZpFvp4YoS8r/AGpG608B4ZDNqDk5&#xA;8kwgIo7KGbsVdirsVdiqjdXtraKr3EgjVjxUmpqfoycMcpcggyA5qwIIqOmQS7FVspjETmWnphTz&#xA;r0403rhjd7c0FJtKfRvUunt1ZIPh5tLT0uu1K+/jmZnGShfPy5tUOHem1fSF1xxKji8Zh6bSboSR&#xA;twp/HEjJ4W30p9PF5p1mE2uxV2KuxVDX+n219D6U4NAaqw2YH2yzFllA2GMog80Pp+g2VlL6qcpJ&#xA;eis9Nq+AAGWZdVKYroxjjATHMdsWySJHG0kh4ogJZj2AwgEmgpLUM0c0SyxnlG4qp9jjKJBooBtf&#xA;gS7FXYq7FXYq7FXYq41pt17YqxDXJtXkRBfQrGgY+mV7n7zm300cYPpNuLkMuqeaRNrEjEXsKxwh&#xA;BwYda/ee2YOeOMfSd26Bl1TPMZsaZVZSrAMrChU7gjCDSoDVNNNxpxtbYJHQgqtOK7H2y/Bm4Z8U&#xA;t2E4WKCMNvC3pmRFdoqcGIBII7iuU8ZF11ZUqZFKWa/qNxY2qPBTm78SWFdqE5k6XEJyoteSRA2R&#xA;1nK01pBM1OUkau1OlWUHKckakR3FnE2FXIJdirsVdiqV+hq8jz2lyVktZlYJcLQMtegK7f598yuL&#xA;GKlH6h0a6lyPJa1vq8K29nZlUgjQepctQkmu4Cmv6sInjNylz7kVIbBNsxG12KuxVIvNN3cwLbLB&#xA;K0QcuW4EqTx403HzzO0WOMrsW05pEUm9jI8llbyOau8SMx8SVBOYmUVIgd7bE7K2QS7FXYqhdQ02&#xA;3v40SfkAjcgVND8u+W4sxgbDGUAeaKAAAA6DYZUydirsVdirsVWTxtJDJGrFGdSocdQSKV+jJRNE&#xA;FBDD9V0a4sYUkkmEgZuIAr4V75t8GoEzQFOLOBCYaVoN0Gtbv6zRKJLwFa0IB4/wzHz6qO8a8myG&#xA;M7G2R5rm92KuxV2KpQ+nS2v1nUDO1xdBHMVRsop041OZYyiVQqotXDVnqtTT5b6G1vxO1veFF5Oo&#xA;2I91264TlECYVcVEbo9U5zDbXYqgdasJ76z9GFwjcwx5EgECuxpX55fp8ohKywyRJDFNS0m50/0/&#xA;WZG9Xlx4En7NK1qB45tcOeOS66ONOBii7XyzfyxwzrLGiuFdTVuQBFfDr9OUz1kASKLIYjzZdmpc&#xA;p2KuxV2KuxV2KuxV2KuxV2Koe+sLa9iEc4JVTyFDQg9Msx5ZQNhjKIPNWjjSONY0FEQBVHgAKDIE&#xA;2bLIBdgV2KuxV2KuxV2KuxV2KuxVL9Y0ddRWL96YmiJoacgQ1K7VHhmRp9R4d7XbCcOJG28Ihgjh&#xA;U1EaqgJ6kKKZTKVknvZAUF+RS7FXYq7FXYq7FXYq4kAVOwHU4qlreYtJEvp+rXenMKSv35kjSZKu&#xA;mvxYpirK6hlIZWFVYbgg5jkU2N4FdiqSXPmXjO8VrbtcLHXm4JHTrsAdvfM2Gj2uRq2k5d9gmGm6&#xA;lDfwerGCpBo6HqDmPmwnGaLZGXEEXlTJ2KuxV2KuxV2KuxV2KuxV2KuxV2KuxV2KuxV2KoLWxKdK&#xA;uRFXnx7fy1HL/ha5fpq8QWwyfSUit5ND/QjLIq/WwrV2/ec9+ND4ZnSGXxdvp+xpBjw+abeWxKNK&#xA;j9Tpyb06/wAtf61zE1leIabcX0ppmK2OxVi1nc3OiST28lsZOZrHINq06b0NRm0yQjmAINONEmG1&#xA;Jj5bs7iGKeeZfTNwwKxnagFd6dvtZj6zICQB0bMUSN04zDbXYq7FXYq7FXYq7FXYqgNR8waDphpq&#xA;OpWtketLiaOI/c5GTjilLkCUGQHNLB+YvkMkD9P2O/8Axen9cs/K5f5pY+JHvTfT9Y0jUlLadfW9&#xA;6o6tbypKB/wBOVyxyjzBDIEHki8gl2KuxV2KuxV2KoBtB0lpfVNuOVakAkLX/VrTMgarJVWw8OKP&#xA;VQoCqAFAoAOgGY5LN2KuxV2KuxV2KuxV2KuxV2KuxVjPnb8wfL/lG0EmoSGS8kBNtYxUMr+/+Sv+&#xA;UfoqcyNPppZTty72E8gi8hbzT+bX5jTvDokb6fpYPFzbsYIlHhJcGjOfFV/4HNr4ODAPVvL8dHG4&#xA;pz5Ii0/Ii1j+PWddMtwxrJFZRcxU9f30pFf+AyX52R+mNDz/AFMTADmVeT8lPLFP3V3e17Fni/hH&#xA;ko6mfWvx8WBASW9/J6/s5Dc6XqTK8e8RKkMp8fUQgj6Fy+OaMtixshGaV+Y/5keTpEj11G1jSQeP&#xA;qSNycDxW4ALV9pAcx82gxz+n0lthnI83tPlTzhoXmnThfaTPzC0E8D0WWJj+zIlTT2PQ9jmlzYJY&#xA;zUnMjMSGydZSydirsVdirsVdirsVdirsVdirsVdirsVdirsVYz+YXna08o+X5NQkAlvJT6VhbH9u&#xA;Uiu9P2V6t93UjMjTac5ZV06sMk+EPIfy/wDy/wBQ88ahN5t82zO+mu5b4iVa5ZdiBSnGJacfh+Q9&#xA;trqdSMQ8PH9X3ftcaEOL1S5PWpruGO3Sx0+JbTT4RwigiUIvEew2A9sxceGjct5LPJew5ITL2p2K&#xA;uxVL9R0uK4jfiityBEkZAKuD1BBy/HlrYsJReb3Gka75S12DXfKSyOWcRz6cis/IOfscBuyMe3VT&#xA;uPa/NCM41LknHMg7PouJ2eJHZDGzKCUalVJHQ08M5guzXYFdirsVdirsVdirsVdirsVdirsVdirs&#xA;Vdir5583ST/mH+bkWhRSEabZSNa8lP2Y4atcyDtVipCn/Vze4AMGDi6n8Bw5+udPZNTNvZ28Gk2S&#xA;CG0tkVFiTZVVRRFHyGYOniTczzLLNL+EJZmW0OxV2KuxV2KpVqUbQ3CTxkqSa1HZhvXMrCbFFrls&#xA;bSL8tPO3mC38/XnlfXb+W9hujI9lJOQzLIB6q0amytHX4egPTMTXaWIhxRFU5WDKSaL2fNM5bsVd&#xA;irsVdirsVdirsVdirsVdirsVdiqG1O8Flpt3eHpbQyTGv/FaFv4ZKEbIHegmg8P/AOccrP6zreua&#xA;rKec8MMcXM9a3Ls7H6fRzcdqSqMY/jZxtONyXpV3IZbqWQ/tOSPlXbIYxUQGqRsl5Zrnn7zR5Y8y&#xA;XsGqQJdafOHfTEUBAqVPpnmBU+Dhu/TbrmwxRlEVzYMj/LzUfM+paTJf64UKXL87ABVRhEeuygfD&#xA;/LXf8MqzCINBQyrKksH/ADB8xeafL97Y6jZKkmhiiXcJAJaQk7MxBZQVpxK9+vbL8MIyBB5oUfJf&#xA;mzzR5l8w3F2kaweXIQY/SYKTzpVaPTkX7tvxA+jDlxxjGv4lZlqq1ta/ysD/AAyOA+pjPk8t8zzH&#xA;S/zA8v6qnw8ZYGc9AfTm+KvzRqHMrJHigR5JxGi+k85V2bsVdirsVdirsVdirsVdirsVdirsVdiq&#xA;XeY4Hn8vapBHu8tpOi/NomAyzEamD5olyLxz/nGq5jW71+1J/eSx20qj/JjaVW/5ODNr2qNon3uN&#xA;pjzehSqVldT1DEH6DjE7NJ5vPrv8rzqvmHUNS1u/a4t5+Qsoo6q8YavAEnakfYDr1PhmSM9RAAY0&#xA;nHkXyvqXl2xuLK7vRdwtLytUUECNO/XoWO5A2H05DLkEjYCsmypLD/OXke88y6rYvJfmLSYF/f2g&#xA;B5Fqkl07VYELv0y7HlEQdt0LPLXkK58v+ZLi7sL3josyGti1WYt+yCTtRD0br2xnl4o0RurKNTIF&#xA;o3uQB9+DD9SJ8nlPn6M3XmXQbJP72R1UU3P72VVG3zGZkjUSUYxu+ls5R2jsVdirsVdirsVdirsV&#xA;dirsVdirsVdiruuKvmvy1df8q9/N2a0uj6VgZns5WPT6tcENDIT4D4GP050GWPj4LHPn8XCieCb2&#xA;7WbYw3rNT4JfjU+56/jmFp53H3JyxqSAy9qQmralBpmmXOoTgmK1jaVlHU8RWg9z0wxjZpXmi/mh&#xA;5xjhi1q40mL9ATSGNWUNWgJBpJy6/CRUrSuZXgR5Xui3qNpdQ3drDdQmsM8ayxnxVwGH4HMQikqu&#xA;KpZq8wLJCO3xN8+2ZOCPVrmWAeTLX/FX5vRXKDnYaP8Av+falvtHQ+87Bh7YNdk4MR7zs3YI2X0P&#xA;nOue7FXYq7FXYq7FXYq7FXYq7FXYq7FXYq7FXlH56fl/Lq+nr5h02Lnf2CFbuJR8UtuN+Q8Wj3Py&#xA;+QzZ9nanhPAeRcfPjvcIP8qPzCt9f0uHyxq8wTWLVeOnXEh/v41GyEn9tQKe4361y3U4Dilxx+k8&#xA;2EZcYo82YSRvG7I44upoQcIIIsNJFIPVdOt9S025sLivo3MbRuR1HIUqPcdclGVG1eaL+Vvm54o9&#xA;Hn1eL/D8UhkRF5ctySaRlaV3JpzpmV48edbop6ha20Nraw2sI4wwIsUS+CoAqj7hmITaWrq6S3j5&#xA;Hdj9lfE5OEDIoJp5p5883G1jbTrJjLql38LcN2jDbdv226KP7Mz4xAHk1gW9N/KLyI3lXy5yu0A1&#xA;bUCs16O6AA+nFX/IBNfcnOf1uo8Se30h2OKHCGc5htrsVdirsVdirsVdirsVdirsVdirsVdirsVd&#xA;irxf8yfyTme4fXPKK8LjkZZ9NU8Tzry525qKGv7H/A+GbfSdobcOT5/rcbJh6hJ/Kn5tasNQt9B8&#xA;22zSS+qtt9fIMd1EzHiPXQj94AevRu+5zIyaUAGWM7d3T4NXFe0nqd7ZS2kvpyEEEVVh0IzGx5BM&#xA;WFnAxKHyxghL2/EB4KOUhFd+gy3Hi4t2MpU8z1vzrrGqanJo3lq1lu9QZmjadF5n4TRvTUbAD+Zt&#xA;h+OZfpgLOwRGJJZ7+WX5PpoU6655gZbvXW+OKOvNIGO5Ysftyf5XQdvHNPrNdx+mP0/e5uLDW55v&#xA;T81re7FXYq7FXYq7FXYq7FXYq7FXYq7FXYq7FXYq7FXYq+YfzssLnT/zHvLoKUS7WC5tn7GkaoxF&#xA;fCSM50XZ8hLCB3ODmFSe43HmDR9Z0uy1Oxu4ZYpEq/F1JQsAeLitVINQQc1uCEoSMSGzMQQCEF9b&#xA;tf8Afyf8EP65l0WhIdb1G0t/XvJpAtvCtWf2UdvGvbM3FGotMtyxf/nHOxuZfM+q6nx/0eK0MDt2&#xA;9SeVHUD6ITmH2pIcAHm5mnG76AzRuW7FXYq7FXYq7FXYq7FXYq7FXYq7FXYq7FXYq7FXYq7FWO+d&#xA;fIeheb7BLbUlZJoSTa3cRpJGT1pWoINNwf15kafUyxGwwnAS5vNH/wCcaVLEp5iIWvwg2dSB7n1x&#xA;+rNh/K39H7f2NP5bzaX/AJxqZTyXzKVI6EWdD/1EY/yt/R+39iPy3mrwf843xGVTeeYpZ4AatGls&#xA;I2PyZpZQP+BwHtU9I/akabzep+W/LOj+XNLTTNJg9G2QlmJPJ3c0Bd2PVjT+A2zWZcsskrk3xiAK&#xA;CaZWydirsVdirsVdirsVdirsVdirsVdirsVdirsVdirsVdiqF1WC8uNLvILKUW95LBIltOa0SVkI&#xA;RzTf4WoclAgSBPJB5Pnl/wAk/wA0ObVkic1Px/Wjv7775vf5Qw/gOJ4Mmv8AlSX5n/zRf9JWH+UM&#xA;P4CPBkmPl38nPzNtNbsrp7yOzSCVJHuFuGchVNWAVftVG1Dse+V5ddhMSKv4Mo4ZW+gM0bluxV2K&#xA;uxV2KuxV2KuxV2KuxV2KuxV2KuxV2KuxV2KuxV2KuxV2KuxV2KuxV2KuxV2KuxV2KuxV2KuxV2Ku&#xA;xV2KuxV2KuxVbJ6nE+nQt2r0wiuqoR21DwoP8mhy4CDDdRZrzuXH3jJARRusLTdy301yVBCwsx6k&#xA;4aV3JvE40ruTeJxpXcm8TjSthn7E40q4NP2LfQTgoLuqK1725n7z+vIkRTurRtqHhUf5VBkCIJFo&#xA;xeVBy696dMpLN2KuxV2KuxV2KuxV2KuxV2KuxV2KuxV2KuxV2Ku4jwGNq1xXwGNq3QeGKuxV2Kux&#xA;V2KuxV2KuxV2KuxV2KuxV2KuxV2KuxV2KuxV2KuxV2KuxV2KuxV2KuxV2KuxV2KuxV2KuxV2KuxV&#xA;2KuxV2KuxV2KuxV2KuxV2KuxV2KuxV2KuxV2KuxV2KuxV2KuxV2KuxV2KuxV2KuxV2KuxV2KuxV2&#xA;KuxV2KuxV2KuxV2KuxV2KuxV2KuxV2KuxV2KuxV2KuxV2KuxV2KuxV2KuxV2KuxV2KuxV2KuxV2K&#xA;uxV2KuxV2KuxV2KuxV2KuxV2KuxV2KuxV2Ksa84G5j+rzckS19SJJGe8ltlPKSjKyIhUrx6sW28N&#xA;sztHRsdd/wCEHo05fxugLC6um1bhBHAjPcRtbiG7lKmL6tGGUD6uVeMpD1NKN0PfLckBwb3y6xHP&#xA;iP8AS57sYk3+39iO1C3vHvjbXs8rWcjtMWFY0RY39VCjhHWsfEbMVO1QTlWOUeG4gcXL9H2/FlIG&#xA;6KLsherpqX91ftBFLaJJMX4H0pSAzMOS0oOm+Vz4eLhEb9XzZC6snokUOqIv+5KfWZo5bySKGFAL&#xA;ZHFqJCqO6vDJQ1dnoKbUB6ZlnF/CIChZ68/n8GoS62i/MUt6+hoNO1Ce6MrFzdEQCP01dVIdkhA2&#xA;bZQorU71AyvTiPieqIHlv+tlkvh2KWX/AOlvrsxmknSdWtwEd6vXinLj6LxRkVr0jy/HwcIqq3/G&#xA;9n7WErtP/MhtIRK0TXM2qSxl4raK7uYlARaeo6RyIqItNzTc+5zD03EauhHv4R+rm25K+PvdoCWa&#xA;S28Msl59fWFJFa5uZ3ScMg5OimRo2oW3HH4fDpjqDIgkcPDfQDb7LWFedoee/wBSQ2SyWdxcD9Iz&#xA;PFOkluySxOZ2iVCZgf7tl+0B0ycccTe4HpHfsdr6d6DI7bdU60eW7kjuWulaOT6w/GGR0d0QgFVb&#xA;02dRsa0rmNmABFdzZC+qPylk7FXYq7FXYq7FXYq7FXYq7FXYq7FUq1fRhe3VtMkNuHidHkupE5TA&#xA;RNzVFoPsk9fizIw5uEEWfd03YShZQz+XtQF6t+l8GvZQsV3IY+I9FXD8YApqnQjctWu/TJjUR4eH&#xA;h9PT3+fex4Dd3upX3k+01GeT6zbWltbM5Ym3hT6xJvXk8zKONTuQB/sslDWSgNjInzO3yQcQPcit&#xA;L8vW9jNIptrN4WUBJ0gjin2YNxkCKEYVUGopuOnfK8uoMxzlfvsMowruUP0RrosoLRHtRHbypMrH&#xA;1CSUk9Sh2HfJ+Nj4id9x+xHDKqRd3pmo6hAkV1cJCB6vNbcNRi8ZjSpJBovMtTuaZXDLGBsC+XP3&#xA;sjEnmghoWsTVimmitoZCJJmt3dmaZE4xuquo4UcK5od6fOtvjwG4BJ8+79Pcx4Cm0mnx/VroRpGt&#xA;1dRlZpgoXm/DiC1KnMYZDYvkGfDsvt7KJbe0SZEkltVXg9K8XCcCVJ9icEpmzXVICUQaFrqWtjAb&#xA;+1UWLB4h9WkbdVZAGb115bP/ACjMmWfGSTwn1ef/AB1rEJUN+X470x0qyvLZr2S7ljmlupxNyiRo&#xA;1oIY4qcWaQj+7/mOU5ZxlVCqH6Sf0s4gi7R+UsnYq7FXYq7FXYq7FXYq7FXYq7FXYq7FXYq7FXYq&#xA;7FXYq7FXYq7FXYq7FXYq7FXYq7FXYq7FXYq7FXYqsnkeOJnSJpmUVESFQzew5lF+84YizzpBSCLz&#xA;cz3lzF9QlEVuREQZbRXEwqXB5XAWgBXpXevhmYdJUQeIb+UuX+laxl35fd+tG3etvFpq3At2huLi&#xA;RILOCZozzkkICGsTyLx3qfi6A5VDBcquwNzV/pDIz2V/0pF+lPqnOP0vQ9XnyFeXPjTrTpkPCPBf&#xA;mni3p2q6i9rHFHbKst7dOI7WI1oe7O1N+KL8R/txxY+Ikn6RzWUq96ItryC6SR7duaxu0RahALoa&#xA;NQ03AO1RkJQMeaQbY/debL2KdIks4mP1hreQiSUjkobkAfRXuvvmZDSRIuzyvkP1tRynuRMvmR00&#xA;K71N444zCsogQNI/KWJW+FgY4yPiXIDTXkEO+vkfiUnJ6SVC+82tFLb/AFaGOWGeQKHb6xyoULGo&#xA;WBgGBFCKkjw8JQ0lg2dx7v1oOXuVdU8yXdlAksdpHPyt2uTGJJw9E+0AFtnAG43crv1pkcWmEjV1&#xA;vXT/AIr7rTLIR0/HyatvM9xLem2e0WKkqQ82NyAWdQw+1bKAaHoxGGWmAjd3tfT/AIpRk3qvx8mr&#xA;7zX6El5HDbu720kMaepFPGp9VgrHkU7E7AfaG4xx6S6JPO+o/Wpy1brHzLd3EeoGWCOFrKKKUM3r&#xA;BSJGcGoMYfb0+ynGemAMaN8RPd5efmoyE2gLTzxeXFpHN9UjWWV1VYazMwDRs9TSL/IptXvl09DE&#xA;Gr+79bEZiQmUfmSV9E+uGJEvJZ2tbaAluLTeoY1+0Fan7R26ZQdMBk4b9NWfcy8T02tXzWywS3Ml&#xA;hNJbVd7eWJrf95ArBFcI8yyHkT/L3GH8pvXEL68+fypfF8mQZhtrsVdirsVdirsVdiqldwPPbSQp&#xA;M8DOOPrR05qD141Boad8lCVG6tBFsMi02eyS+eCSK206C5dA810sIHQb87afck9S+5zZnIJVdmRH&#xA;82/98PuccRq+78eSYLYwny/5elmi/wBIgFjGvOtU5NFzHE9D8ND3ynjPiZADseL9LOvTH4Ir9DaR&#xA;/iD0/qNvw+qcuHpJSvqUrSmV+NPw+Z+rv8k8A4uXRR1qSGxu/Tt/VF9fKEN2I3kFrbLsREI1NCSP&#xA;hX+bc7DJYQZDeuGPT+cfP8ckT2PmVXSr5Yb5dOtoporB4R9SM0EkQSSIUZPjVGbkPj33rXfpkcsL&#xA;jxGuK96IP47kxO9DkxrV9OuW1aCB4ZZLuWdpOC+nydOL1dU+vFgu3Uhfn2zOw5BwE2Kr9X9D9bTK&#xA;Jv8AH601bS7yLyjqi6gnH0YrqWzib7aVgdasVlmU1Dmgrt+rHGWJzR4epjfzHkGzhPAbU9ct3/SW&#xA;oyqgW3t0jZn4R8VZ1JJJaeDcn2OSwS9MR1Pv/UUTG5UvMFtz0iyR57eO8a1jT6o6AXFJAPWZAHSp&#xA;r240rh08qmdjw8XPp5dETGwU9Ht1F/G9wBp/xRG1a8tZY3lelPtNKyBuigci3tks0vTt6ud1IbfZ&#xA;axG/cqXyRz6leK1xLfiWeNJFhAKLFCvKY8F2YxVUd2qR8sECREbCO3XvPL5qdyeqlpBhj0K/KPEt&#xA;09ryZEk5OSp+1JEIU4Fa+Ldclms5I86vu/Tf6kR+koK8tXMVwkEnpxwQJ6cJJDlhHMg4ma3UsPiY&#xA;8eNanZhTayEtxfU/q7pfjuQR+PwE/e1tpdMsZpQLiaC8iRd42AEkyFgBHHBHUgD9j6cxBMicgNgY&#xA;n7j5k/a2VsPepLDcyyenA4bUbW2lne3jcMIZTcRzRWzcSQo4rw4+GS4gNz9JIF94ogy/Sivmy9W5&#xA;KGoVqK0PUV8c1pchvFXYq7FX/9k=</xmpGImg:image>
               </rdf:li>
            </rdf:Alt>
         </xmp:Thumbnails>
         <xmpTPg:MaxPageSize rdf:parseType="Resource">
            <stDim:w>1080.000000</stDim:w>
            <stDim:h>1080.000000</stDim:h>
            <stDim:unit>Pixels</stDim:unit>
         </xmpTPg:MaxPageSize>
         <xmpTPg:NPages>1</xmpTPg:NPages>
         <xmpTPg:HasVisibleTransparency>False</xmpTPg:HasVisibleTransparency>
         <xmpTPg:HasVisibleOverprint>False</xmpTPg:HasVisibleOverprint>
         <xmpTPg:PlateNames>
            <rdf:Seq>
               <rdf:li>Cyan</rdf:li>
               <rdf:li>Magenta</rdf:li>
               <rdf:li>Yellow</rdf:li>
            </rdf:Seq>
         </xmpTPg:PlateNames>
         <xmpTPg:SwatchGroups>
            <rdf:Seq>
               <rdf:li rdf:parseType="Resource">
                  <xmpG:groupName>默认色板组</xmpG:groupName>
                  <xmpG:groupType>0</xmpG:groupType>
               </rdf:li>
            </rdf:Seq>
         </xmpTPg:SwatchGroups>
         <dc:format>image/svg+xml</dc:format>
      </rdf:Description>
   </rdf:RDF>
</x:xmpmeta>
                                                                                                    
                                                                                                    
                                                                                                    
                                                                                                    
                                                                                                    
                                                                                                    
                                                                                                    
                                                                                                    
                                                                                                    
                                                                                                    
                                                                                                    
                                                                                                    
                                                                                                    
                                                                                                    
                                                                                                    
                                                                                                    
                                                                                                    
                                                                                                    
                                                                                                    
                                                                                                    
                           
<?xpacket end="w"?>
	</metadata>
<g>
	<path id="椭圆_1" fill="#E5EBFF" d="M539.9,1123.1c102.4,0,185.5,7.1,185.5,15.9c0,8.7-83.1,15.9-185.5,15.9
		s-185.5-7.1-185.5-15.9C354.4,1130.3,437.5,1123.1,539.9,1123.1z"/>
	<g>
		<g enable-background="new    ">
			<path fill="#7791E5" d="M401.6,1346.9c-3.3,1.1-7,2.2-10.6,3.2v12.7c0,3.2-1.6,4.8-4.6,4.8h-6l-0.6-2.9c2.1,0.2,4,0.2,5.7,0.2
				s2.7-1,2.7-3v-11.3c-3.5,0.8-7.3,1.6-11.6,2.2l-0.5-3c4.3-0.6,8.3-1.4,12.1-2.4v-11.6h-11.9v-2.9h11.9v-8.7
				c-3.2,0.6-6.4,1.3-9.7,1.6l-0.6-2.9c7.9-1,14.9-2.5,21.1-4.9l1.1,2.9c-2.9,1-5.7,1.9-8.9,2.7v9.4h14.6c-0.3-4.4-0.6-9.5-0.6-15.4
				h3c0,5.9,0.2,11,0.5,15.4H426v2.9h-17.3c0.5,4.3,1,7.9,1.6,10.8c0.5,1.6,0.8,3.2,1.3,4.6c3-3.5,5.6-7.5,7.6-11.9l2.5,1.4
				c-2.5,5.4-5.6,9.8-9.2,13.7c0.8,2.1,1.7,4,2.9,5.6c1.9,2.9,3.5,4.1,4.6,4.1c1.3,0,2.5-3.3,3.5-10l2.7,1.4
				c-1.3,7.8-3.2,11.8-5.7,11.8c-2.2,0-4.4-1.7-7-5.1c-1.1-1.6-2.2-3.5-3.2-5.7c-4.1,3.8-8.9,6.8-14.1,8.9l-1.7-2.5
				c5.6-2.1,10.5-5.2,14.6-9.2c-0.6-1.9-1.3-4.1-1.9-6.5c-0.8-3.2-1.3-6.8-1.7-11.3h-14.8v11c3.8-1,7.3-2.1,10.6-3.2v3.3h0.3V1346.9
				z M414,1318.6c4,2.7,7.5,5.6,10.2,8.4l-2.1,2.1c-2.5-2.7-5.9-5.4-10.2-8.6L414,1318.6z"/>
			<path fill="#7791E5" d="M461.3,1330.2h3v5.6c-0.2,5.2-1,9.7-2.5,13.7h18.7v2.9h-20c-0.6,1.1-1.3,2.2-2.2,3.3
				c7.9,3,15.2,6.5,21.9,10.6l-1.7,2.5c-7-4.6-14.3-8.3-21.9-11.1c-4.4,4.4-11.6,8.1-21.1,10.8l-1.7-2.5
				c10.2-2.7,17.3-6.5,21.6-11.3c0.5-0.5,1-1.3,1.7-2.4h-24.6v-2.9h26.2c1.7-3.8,2.7-8.4,2.9-13.7v-5.6L461.3,1330.2L461.3,1330.2z
				 M478.8,1323.9v10.5h-3v-7.8h-38.4v7.9h-3v-10.8h21.3c-0.8-2.2-1.6-4.3-2.5-6.2l3.2-0.5c0.8,2.1,1.6,4.3,2.2,6.7h20.3v0.2H478.8z
				 M440.3,1338.2c4.1,1.6,7.9,3.7,11.8,6l-1.6,2.4c-3.7-2.5-7.5-4.8-11.6-6.4L440.3,1338.2z M443.8,1329.7c4,1.6,7.8,3.5,11.3,5.9
				l-1.6,2.4c-3.7-2.7-7.3-4.8-11.1-6.2L443.8,1329.7z"/>
			<path fill="#7791E5" d="M495.8,1345c-2.4,2.5-4.9,4.9-7.5,7.1l-1.9-2.4c7.3-6,13-13,17-21h-15.1v-3h16.5c1.1-2.5,2.1-5.2,3-8.3
				l3,0.3c-0.6,2.5-1.6,5.1-2.9,7.9h28.6v3h-29.9c-2.2,4.6-4.9,8.9-7.9,12.7v27.3h-3L495.8,1345L495.8,1345z M504.3,1344h13.2v-10.8
				h3v10.8H534v3h-13.5v16.7h16.2v3H502v-3h15.7V1347h-13.2v-3H504.3z"/>
			<path fill="#7791E5" d="M556,1348.2h-3v-16.4c-2.5,4.9-5.7,9.5-9.8,13.7l-1.1-2.9c4.6-4.3,8.1-9.2,10.8-14.9h-9.5v-2.9h9.7v-6.4
				h3v6.4h7.8v2.9H556v3c2.9,2.2,6,4.6,9.1,7.6l-1.7,2.5c-2.9-3.2-5.4-5.6-7.5-7.5v14.8h0.1V1348.2z M551.7,1352.3
				c-1.4,5.2-3.5,9.8-6.2,13.8l-2.5-1.7c2.7-3.8,4.8-8.1,5.9-12.7L551.7,1352.3z M561.2,1367.4c-3.2,0-4.8-1.6-4.8-5.1v-11.4h3v11
				c0,1.7,1,2.7,2.7,2.7h12.2c1.6,0,2.5-0.3,3.2-0.8c0.8-0.8,1.4-3.2,1.6-6.8l2.9,1c-0.3,4.6-1.1,7.3-2.2,8.4
				c-1,0.8-2.5,1.3-4.8,1.3h-13.8L561.2,1367.4L561.2,1367.4z M566.9,1349.9c2.9,3,5.1,5.6,6.5,7.6l-2.4,1.7
				c-1.4-2.2-3.5-4.8-6.4-7.9L566.9,1349.9z M567.9,1320.2h20.3v26.7h-20.3V1320.2z M570.9,1328.5h14.5v-5.4h-14.5V1328.5z
				 M570.9,1336.3h14.5v-5.2h-14.5V1336.3z M585.3,1344.4v-5.6h-14.5v5.6H585.3z M584.4,1350.2c3.7,4.6,6.5,8.9,8.6,12.5l-2.5,1.7
				c-2.2-4-5.1-8.3-8.6-12.9L584.4,1350.2z"/>
			<path fill="#7791E5" d="M600,1321h46.7v3h-18.1c-1,2.4-2.2,4.6-3.7,7v37.6h-3.2v-33.2c-5.2,7-12.4,13-21.3,18.4l-2.1-2.5
				c12.9-7.5,21.9-16.7,26.7-27.5h-25.3v-2.9L600,1321L600,1321z M631.9,1335.8c6.5,5.1,11.9,10.3,16.4,15.6l-2.4,2.4
				c-4-4.9-9.4-10.2-16.2-15.7L631.9,1335.8z"/>
			<path fill="#7791E5" d="M694.6,1337.5V1322h3v18.4h-17.2v21.3h16.7v-15.6h3v21.9h-3v-3.5h-36.5v3.5h-3v-21.9h3v15.6h16.7v-21.3
				h-17.2V1322h3v15.6h14.1v-19.9h3.2v19.9L694.6,1337.5L694.6,1337.5z"/>
		</g>
		<g enable-background="new    ">
			<path fill="#7791E5" d="M331.9,1466.2h-23.2v12.1h-2.9v-30.2c-3.3,4.3-7.3,8.3-11.8,11.8l-1.9-2.5c7.3-5.9,13-12.5,16.8-20.3
				h-15.2v-2.9h16.8c1-2.1,1.7-4.3,2.5-6.8l3,0.3c-0.6,2.1-1.4,4.3-2.2,6.5H342v2.9h-29.4c-1.3,2.5-2.7,5.1-4.1,7.3h26.2v30
				c0,2.4-1.4,3.7-4.3,3.7h-6.2l-0.8-2.7c2.9,0,4.9,0.2,6,0.2c1.6,0,2.2-0.6,2.2-2.1v-7.1h0.3V1466.2z M308.7,1447v6.8h23.2v-6.8
				H308.7z M331.9,1456.6h-23.2v6.8h23.2V1456.6z"/>
			<path fill="#7791E5" d="M355.5,1445.4c-2.2,3.3-4.8,6.4-7.5,9.2l-1-3c6.2-7.1,10.8-15.1,13.5-24.1l2.9,1.3
				c-1.3,4.1-3,8.1-4.9,11.6v38h-3V1445.4L355.5,1445.4z M379,1427.4h3.2v18.7h16v3h-16v29.2H379v-29.2h-15.7v-3H379V1427.4z"/>
			<path fill="#7791E5" d="M428.4,1428.2c-5.6,11.8-13.2,21.6-22.9,29.4l-2.1-2.4c9.1-7.3,16.4-16.5,21.6-27.8L428.4,1428.2z
				 M440,1454.1c4.6,7,8.6,14.5,11.9,22.2l-2.9,1.3c-0.8-1.7-1.6-3.7-2.5-5.6c-9.8,1.7-21.8,3-35.9,3.8l-0.8-3c1-0.3,1.7-1,2.9-1.9
				c6.8-6.5,14.8-17.6,24-33.5l3,1.4c-10.3,17.2-18.4,28.4-24.1,33.7c10.3-0.6,20.2-1.7,29.9-3.3c-2.5-5.1-5.2-9.8-8.1-14.3
				L440,1454.1z"/>
			<path fill="#7791E5" d="M466.4,1437.7h16.5v-4h-22.2v-2.7h22.2v-3.7h3v3.7h22.2v2.7h-22.2v4h16.5v10.3h-16.5v4.1h17.3v7.6h6.5
				v2.5h-6.5v7.3h-17.3v4.3c0,2.9-1.4,4.3-4.4,4.3h-6.8l-0.6-2.9c3,0.2,5.1,0.2,6.4,0.2c1.6,0,2.5-0.8,2.5-2.4v-3.5h-18.7v-2.5H483
				v-4.8h-23.7v-2.5H483v-5.2h-18.7v-2.4H483v-4.1h-16.5L466.4,1437.7L466.4,1437.7z M482.9,1445.7v-5.6h-13.5v5.6H482.9z
				 M499.3,1445.7v-5.6h-13.5v5.6H499.3z M485.8,1454.6v5.2h14.5v-5.2H485.8z M500.2,1462.2h-14.5v4.8h14.5V1462.2z"/>
			<path fill="#7791E5" d="M519.4,1438.4c-0.2,5.4-1.3,10.6-3.2,15.6l-2.2-0.6c1.7-4.8,2.9-9.7,3-15.1L519.4,1438.4z M522.1,1427.7
				h3v50.2h-3V1427.7z M547.4,1427.3h3v4.3h13.2v2.4h-13.2v4.6h11.4v2.4h-11.4v4.6h14.8v2.4h-33v-0.8l-1.7,0.3
				c-1.1-3.3-2.7-6.5-4.4-9.8l2.1-0.6c1.4,2.2,2.7,5.1,4.1,8.4h15.1v-4.6h-11.6v-2.4h11.6v-4.6h-13.5v-2.4h13.5v-4.1h0V1427.3z
				 M539.6,1468.9v9.2h-2.9v-25.7H561v20.2c0,3.7-1.4,5.4-4.3,5.4h-4.1l-0.8-2.5l4,0.2c1.6,0,2.4-1.3,2.4-3.7v-3L539.6,1468.9
				L539.6,1468.9z M558.2,1459.7v-4.9h-18.6v4.9H558.2z M539.6,1461.9v4.6h18.6v-4.6H539.6z"/>
			<path fill="#7791E5" d="M571.1,1430H620v2.9h-16.8v5.7h13.3v13.3H593c-0.8,1.6-1.9,3.5-3.2,5.7h30.8v2.9h-12.2
				c-1.1,3.7-3.3,6.7-6.7,9.2c5.9,1.7,11.9,4,18.1,6.5l-1.9,2.4c-6.2-2.5-12.5-4.9-19.1-7c-0.2,0-0.2,0.2-0.2,0.2
				c-5.4,2.9-14,5.1-25.9,6.7l-1.1-2.7c10.6-1.3,18.4-3,23.5-5.2c-4.8-1.4-9.5-2.7-14.5-3.8c1.3-2.1,2.5-4,3.8-6h-14.3v-2.9h16
				l3.3-5.7h-15.1v-13.3h13.3v-5.7h-16.8L571.1,1430L571.1,1430z M587.9,1449.2v-8.1h-10.3v8.1H587.9z M605.4,1460.5H588
				c-1.1,1.9-2.2,3.5-3,4.8c4.3,1,8.7,2.1,13.5,3.5C601.9,1466.5,604.2,1463.8,605.4,1460.5z M600.3,1438.5v-5.7h-9.5v5.7H600.3z
				 M600.3,1449.2v-8.1h-9.5v8.1H600.3z M613.6,1449.2v-8.1h-10.3v8.1H613.6z"/>
			<path fill="#7791E5" d="M627.4,1477.8l-0.6-2.9c2.2,0.2,3.8,0.2,4.8,0.2c1.4,0,2.1-0.6,2.1-1.7V1458c-2.2,1-4.6,1.7-7,2.5l-0.8-3
				c2.5-0.6,5.2-1.4,7.8-2.4v-13.3h-7.1v-3h7.1V1428h3v10.8h6v3h-6v12.1c1.9-1,3.7-1.7,5.2-2.7v3c-2.7,1.3-4.4,2.2-5.2,2.5v17.5
				c0,2.5-1.4,3.7-4.1,3.7L627.4,1477.8L627.4,1477.8z M643.3,1453h31.6v2.9h-14.3v7.1h12.1v2.7h-12.1v8.3c2.5,0.3,5.4,0.6,8.4,0.6
				c2.2,0,4.6,0,7.1-0.2l-0.8,3c-1.6,0-3.7,0-6.2-0.2c-7.3,0-12.4-0.6-14.9-2.1c-2.2-1.3-4.1-3.7-6-7.1c-1.3,3.8-3.3,7.3-6,10.5
				l-2.2-2.1c4.4-5.2,6.8-11.1,7.1-17.6l2.7,0.3c-0.2,1.9-0.3,3.8-0.8,5.7c1.9,4.1,4.1,6.8,6.5,7.9c0.6,0.3,1.3,0.5,1.9,0.6V1456
				H643v-3H643.3z M647.4,1429.6h23.8v18.7h-23.8V1429.6z M650.3,1437.9h17.8v-5.7h-17.8V1437.9z M668.3,1445.8v-5.6h-17.8v5.6
				H668.3z"/>
			<path fill="#7791E5" d="M700.5,1474.6H686v3.3h-2.5v-37.8h5.6v-7.5h-7.5v-2.7h22.6v2.7h-6.8v7.5h5.6v37.6h-2.4L700.5,1474.6
				L700.5,1474.6z M700.5,1462.8v-5.4h-3.2c-1.6,0-2.4-1-2.4-2.7V1443h-3.2v4.1c-0.2,5.9-1.4,10.2-4.1,12.9l-1.4-1.3
				c2.4-2.4,3.5-6.4,3.5-11.6v-4.1H686v19.9L700.5,1462.8L700.5,1462.8z M686,1465.2v6.7h14.5v-6.7H686z M694.9,1440.3v-7.5h-3.3
				v7.5H694.9z M696.8,1443v11.3c0,0.6,0.3,1,1,1h2.7v-12.4L696.8,1443L696.8,1443z M710,1457.4c-1.1,2.7-2.5,5.1-4.1,7l-1.7-2.2
				c2.5-3.3,4.3-7.5,5.2-12.2l2.7,0.3c-0.5,1.9-0.8,3.5-1.1,4.4h6.5v-4.8h3v4.8h9.8v2.7h-9.8v6.7h8.7v2.5h-8.7v7h11.3v2.9h-26.2
				v-2.9h12.1v-7h-8.9v-2.5h8.9v-6.7L710,1457.4L710,1457.4z M707.5,1429.8h21.8v18.1h-21.8V1429.8z M710.3,1437.7h16v-5.4h-16
				V1437.7z M726.4,1445.4v-5.2h-16v5.2H726.4z"/>
			<path fill="#7791E5" d="M744.2,1446.2c-1.7,2.7-4.1,5.6-6.7,8.4l-1-3.2c6.2-7.1,10.6-15.1,13.3-24l2.9,1.3
				c-1.4,4.4-3.2,8.6-5.4,12.5v37h-3L744.2,1446.2L744.2,1446.2L744.2,1446.2z M760.1,1437.6c-1.7,4.4-4,8.4-6.5,12.2l-2.5-1.6
				c4.3-6.2,7.5-13.2,9.4-21l2.9,0.6c-0.6,2.4-1.4,4.6-2.2,6.8h24v2.1c-1,3.5-2.1,6.8-3.7,10.2l-2.9-0.8c1.4-2.4,2.5-5.2,3.5-8.6
				L760.1,1437.6L760.1,1437.6z M762.3,1450.8c-2.1,7.8-4.8,14.6-7.9,20.5l-2.9-1.1c3.2-5.2,5.9-12.1,8.1-20.2L762.3,1450.8z
				 M760.1,1477.9l-0.6-2.9c3.3,0.2,5.6,0.2,7,0.2s2.2-0.8,2.2-2.2v-30.2h2.9v31c0,2.7-1.4,4.1-4.1,4.1H760.1L760.1,1477.9z
				 M778.8,1449.7c3,6.7,5.6,13.7,7.8,21.4l-2.7,1.3c-2.4-8.3-4.9-15.4-7.8-21.8L778.8,1449.7z"/>
		</g>
	</g>
	<g>
		<path id="圆角矩形_2_1_" fill="#B8C9FF" d="M647.1,530.9h4c2.5,0,4.6,2.1,4.6,4.6v43c0,2.5-2.1,4.6-4.6,4.6h-4
			c-2.5,0-4.6-2.1-4.6-4.6v-43C642.5,532.9,644.6,530.9,647.1,530.9z M627.4,550.4H671c2.5,0,4.6,2.1,4.6,4.6v4
			c0,2.5-2.1,4.6-4.6,4.6h-43.5c-2.5,0-4.6-2.1-4.6-4.6v-4C622.8,552.5,624.9,550.4,627.4,550.4z M540.4,441.4h4
			c2.5,0,4.6,2.1,4.6,4.6v43c0,2.5-2.1,4.6-4.6,4.6h-4c-2.5,0-4.6-2.1-4.6-4.6v-43C535.8,443.5,537.9,441.4,540.4,441.4z M520.5,461
			H564c2.5,0,4.6,2.1,4.6,4.6v3.8c0,2.5-2.1,4.6-4.6,4.6h-43.5c-2.5,0-4.6-2.1-4.6-4.6v-3.8C516.1,463,518.2,461,520.5,461z
			 M482.7,576.1h9.8c2.5,0,4.6,2.1,4.6,4.6v65.9c0,2.5-2.1,4.6-4.6,4.6h-9.8c-2.5,0-4.6-2.1-4.6-4.6v-65.9
			C478.3,578.2,480.4,576.1,482.7,576.1L482.7,576.1z M454.5,604.4H521c2.5,0,4.6,2.1,4.6,4.6v9.5c0,2.5-2.1,4.6-4.6,4.6h-66.5
			c-2.5,0-4.6-2.1-4.6-4.6V609C449.9,606.5,451.9,604.4,454.5,604.4z M875,549h6.8c2.5,0,4.6,2.1,4.6,4.6v55c0,2.5-2.1,4.6-4.6,4.6
			H875c-2.5,0-4.6-2.1-4.6-4.6v-55.1C870.4,550.9,872.5,549,875,549z M850.9,572.9h55c2.5,0,4.6,2.1,4.6,4.6v6.8
			c0,2.5-2.1,4.6-4.6,4.6h-55c-2.5,0-4.6-2.1-4.6-4.6v-6.8C846.5,575,848.4,572.9,850.9,572.9z"/>
		<g id="形状_2">
			<path fill="#B8C9FF" d="M425.6,483.8c6.8,0,12.4,5.6,12.4,12.4v0.2c-0.2,6.8-5.6,12.2-12.4,12.2s-12.4-5.6-12.4-12.4
				S418.7,483.8,425.6,483.8 M239.1,520.5c4.9,0,9.1,4,9.1,9.1c0,4.9-4,9.1-9.1,9.1c-4.9,0-9.1-4-9.1-9.1
				C230.2,524.5,234.2,520.5,239.1,520.5 M802.9,671.4c6.8,0,12.4,5.6,12.4,12.4c0,6.8-5.6,12.4-12.4,12.4c-3.3,0-6.4-1.3-8.7-3.7
				c-2.4-2.4-3.7-5.4-3.7-8.7C790.5,677,796.1,671.4,802.9,671.4 M193.5,696.5c6.2,0,11.3,5.1,11.3,11.3s-5.1,11.3-11.3,11.3
				s-11.3-5.1-11.3-11.3c0-3,1.1-5.9,3.3-7.9C187.5,697.8,190.4,696.5,193.5,696.5L193.5,696.5L193.5,696.5 M425.6,471.1
				c-13.8,0-25.1,11.3-25.1,25.1s11.3,25.1,25.1,25.1l0,0c13.8,0,25.1-11.3,25.1-25.1l0,0l0,0C450.7,482.4,439.4,471.1,425.6,471.1
				L425.6,471.1z M239.1,507.8c-11.9,0-21.6,9.7-21.8,21.8c0,11.9,9.7,21.8,21.8,21.8l0,0c11.9,0,21.8-9.7,21.8-21.8
				S251.2,507.8,239.1,507.8L239.1,507.8z M802.9,658.7c-13.8,0-25.1,11.3-25.1,25.1s11.1,25.1,25.1,25.3c0,0,0,0,0.2,0
				c13.8,0,25.1-11.3,25.1-25.1l0,0C828,670,816.8,658.7,802.9,658.7L802.9,658.7z M193.5,683.8L193.5,683.8
				C193.4,683.8,193.4,683.8,193.5,683.8c-13.3,0-24.1,10.8-24,24.1c0,13.2,10.8,24,24,24l0,0c13.3,0,24-10.8,24-24.1l0,0
				C217.5,694.6,206.7,683.8,193.5,683.8L193.5,683.8z"/>
		</g>
		<path id="圆角矩形_3" fill="#B8C9FF" d="M331.9,562.9h0.8c2.5,0,4.6,2.1,4.6,4.6v15.9c0,2.5-2.1,4.6-4.6,4.6h-0.8
			c-2.5,0-4.6-2.1-4.6-4.6v-15.9C327.4,565,329.5,562.9,331.9,562.9z M363.9,581.2c1.4,2.4,0.6,5.4-1.7,6.8l0,0l-13,7.5
			c-2.4,1.4-5.4,0.5-6.8-1.9s-0.5-5.4,1.9-6.8l13-7.5C359.5,578,362.5,578.8,363.9,581.2L363.9,581.2z M363.9,617.9
			c-1.4,2.4-4.4,3.2-6.8,1.9l0,0l-13-7.5c-2.4-1.4-3.2-4.4-1.9-6.8c1.3-2.4,4.4-3.2,6.8-1.9l0,0l13,7.5
			C364.6,612.5,365.4,615.5,363.9,617.9L363.9,617.9z M332.3,636.3c-2.7,0-4.9-2.2-4.9-4.9l0,0v-15.1c0-2.7,2.2-4.9,4.9-4.9
			s4.9,2.2,4.9,4.9l0,0v15.1C337.3,634.1,335,636.3,332.3,636.3L332.3,636.3L332.3,636.3z M300.7,617.9c-1.4-2.4-0.6-5.4,1.7-6.8
			l0,0l13-7.5c2.4-1.3,5.4-0.5,6.8,1.9c1.3,2.4,0.5,5.4-1.7,6.7l-13,7.5C305.2,621.1,302.2,620.3,300.7,617.9L300.7,617.9z
			 M300.7,581.2c1.4-2.4,4.4-3.2,6.8-1.9l0,0l13,7.5c2.4,1.4,3.2,4.4,1.7,6.8c-1.4,2.4-4.3,3.2-6.7,1.7l-13-7.5
			C300.1,586.6,299.3,583.6,300.7,581.2L300.7,581.2z M780.5,482.6h1.3c2.4,0,4.4,1.9,4.4,4.4v17.6c0,2.4-1.9,4.4-4.4,4.4h-1.3
			c-2.4,0-4.4-1.9-4.4-4.4l0,0V487C776.1,484.5,778.2,482.6,780.5,482.6L780.5,482.6z M813.7,502.1c1.4,2.5,0.6,5.7-1.9,7.3
			l-13.3,7.9c-2.4,1.4-5.4,0.6-6.8-1.7l-0.2-0.2c-1.4-2.5-0.6-5.7,1.9-7.3l13.3-7.9c2.4-1.4,5.4-0.6,6.8,1.7
			C813.6,502,813.6,502,813.7,502.1z M813.7,540.9c-1.3,2.4-4.3,3.3-6.8,2.1c0,0-0.2,0-0.2-0.2l-13.3-7.9c-2.4-1.6-3.3-4.8-1.9-7.3
			c1.3-2.4,4.3-3.3,6.8-2.1c0,0,0.2,0,0.2,0.2l13.3,7.9C814.2,535.1,815,538.3,813.7,540.9L813.7,540.9z M781.2,560.2
			c-2.9,0-5.1-2.4-5.1-5.2v-15.9c0-2.9,2.1-5.2,4.9-5.2c2.9-0.2,5.2,2.1,5.2,4.9c0,0.2,0,0.2,0,0.3V555
			C786.4,557.9,784,560.2,781.2,560.2L781.2,560.2z M748.8,540.9c-1.4-2.5-0.6-5.7,1.9-7.3l13.3-7.9c2.4-1.4,5.4-0.6,6.8,1.7
			c0,0,0,0.2,0.2,0.2c1.4,2.5,0.6,5.7-1.9,7.3l-13.3,7.9c-2.4,1.4-5.4,0.6-6.8-1.7C748.8,541,748.8,541,748.8,540.9L748.8,540.9z
			 M748.8,502.1c1.3-2.4,4.3-3.3,6.8-2.1c0,0,0.2,0,0.2,0.2l13.3,7.9c2.4,1.6,3.3,4.8,1.9,7.3c-1.3,2.4-4.3,3.3-6.8,2.1
			c0,0-0.2,0-0.2-0.2l-13.3-7.9C748.1,507.7,747.3,504.5,748.8,502.1z"/>
	</g>
	<g>
		<path id="形状_9" fill="#C2DAFF" d="M591.9,992.6l-1.7,18.9c-0.3,4-2.2,7.6-5.4,10c-2.9,2.7-6.7,4.3-10.5,4.1h-48.1
			c-1.9,0-3.8-0.5-5.6-1.1c-1.7-0.8-3.5-1.7-4.9-3s-2.5-2.9-3.3-4.8c-0.8-1.7-1.1-3.7-1.1-5.6l-2.7-18.7c0.2-5.9-3.3-11.4-8.9-13.5
			c-21.9-10-36.7-24.8-49.7-44.5c-12.9-19.1-19.9-41.6-19.7-64.6c0-33.4,12.4-61.9,37.3-85.4c24.8-23.5,54.6-35.4,89.7-35.4
			c34.9,0,56.4,11.9,81.2,35.4s31.9,51.9,31.9,85.4c0,15.4-3,30.5-8.9,44.8c-5.9,14.1-14.5,27-25.3,38c-11,11.1-27.6,23.3-35.3,26.5
			C593.1,982.1,591.9,992.6,591.9,992.6z"/>
		<g>
			<path fill="#4156A3" d="M580.4,1058.5h-81.6c-1.6,0-3,0.6-4.3,1.6c-1.6,1.3-2.7,2.9-3.2,4.8c-0.6,2.1-1.1,4.1-1.1,6.4
				c0,1.4,0.3,2.9,0.8,4.1c0.6,2.1,2.9,1.1,3.5,1.7c0.6,0.5,1.4,1,2.1,1.3c0.6,0.3,1.4,0.3,2.1,0.3h81.6c2.5,0,5.1-1.4,6.4-3.7
				c1.4-1.6,2.7-1.6,2.7-4.9c0.2-2.5-0.6-5.1-2.1-7.3C585.8,1060.2,583.3,1058.6,580.4,1058.5z"/>
			<path fill="#4156A3" d="M672.2,808c-1.3-3.2-4.4-5.4-8.1-5.4l0,0c-4.8,0-8.7,4-8.7,8.7c0,1.6,0.5,3.2,1.3,4.4
				C656.7,815.8,672.1,807.7,672.2,808z"/>
			<path fill="#4156A3" d="M672.2,808c-2.5-0.5-13.7,1.9-15.6,7.9c14.3,30.3,15.2,65.3,2.4,96.1c-6,14.3-14.6,27.3-25.6,38.3
				c-11.1,11.1-21.1,20-35.6,26.7c-5.6,2.2-9.1,7.8-8.9,13.7l-1.7,19.1c-0.3,4-2.2,7.6-5.4,10c-2.9,2.7-6.7,4.3-10.6,4.3h-62.4
				c-1.9,0-3.8-0.5-5.7-1.1c-1.7-0.8-3.5-1.7-4.9-3s-2.5-2.9-3.3-4.8c-0.8-1.7-1.1-3.7-1.1-5.7l-2.7-18.9c0.2-6-3.3-11.4-9.1-13.7
				c-22.1-10-37-24.9-50.3-44.8c-13-19.2-20-41.9-19.9-65.1c0-33.7,12.5-62.4,37.6-86.1c25.1-23.7,55.3-35.6,90.7-35.6
				c35.3,0,65.4,11.9,90.5,35.6c3.7,3.3,7,6.8,10,10.6c-0.8-1.4,11.6-12.9,13.2-11.6c-11.3-13.3-24.9-24.6-40.2-32.9
				c-57.7-31.6-129-22.7-176.9,22.2c-13.2,12.7-23.8,28-31.3,44.6c-7.6,17.2-11.6,35.9-11.6,54.6c0,37.8,13.7,70.4,41,97.7
				c10.2,10,21.9,18.4,34.5,25.1v8.4c0,15.1,5.4,28.1,18.6,36.5c7,4.1,15.6,4.9,23.3,4.9h57.7c11.4,0,22.2-3,30.7-11.3
				c8.3-8.1,11.3-18.9,11.3-30.2v-8.4c9.4-4.9,18.1-10.8,26.2-17.6c10.2-8.6,19.1-18.6,26.4-29.5c7.3-11.1,12.9-23,16.8-35.7
				c4.1-12.9,6.2-26.4,6.2-39.9C686.4,847.6,681.6,826.7,672.2,808z"/>
			<path fill="#4156A3" d="M640.5,791.5c1.6,2.5,4.3,4.1,7.5,4.1c4.9,0,8.9-4,8.9-8.9c0-2.7-1.3-5.2-3.2-6.8
				C649,776.1,639.3,788.2,640.5,791.5z"/>
		</g>
		<path id="形状_9_拷贝" fill="#9EBEFF" d="M661.3,914.6c-5.9,14.1-14.5,27-25.3,38c-11,11.1-27.6,23.3-35.3,26.5
			c-7.6,3-8.9,13.7-8.9,13.7l-1.7,18.9c-0.3,4-2.2,7.6-5.4,10c-2.9,2.7-6.7,4.3-10.5,4.1h-22.9c4,0,7.8-1.4,10.5-4.3
			c3.2-2.4,5.1-6,5.4-10l1.7-18.9c0,0,1.3-10.6,8.9-13.7c7.6-3,24.3-15.4,35.3-26.5c10.8-11,19.4-23.8,25.3-38
			c5.9-14.1,9.1-29.4,8.9-44.8c0-33.4-7.1-61.8-31.9-85.4c-22.1-21-41.5-32.6-69.9-34.9c3.8-0.3,7.6-0.5,11.6-0.5
			c30.8,0.3,60,13,81.3,35.4c19.5,20.5,31.9,51.9,31.9,85.4C670.3,885.2,667.3,900.4,661.3,914.6z"/>
		<g id="椭圆_577_拷贝_2">
			<path fill="#4156A3" d="M541,919.5c4.3,0,7.9,3.5,7.9,7.9s-3.5,7.9-7.9,7.9s-7.9-3.5-7.9-7.9S536.7,919.5,541,919.5 M541,906.8
				c-11.4,0-20.6,9.2-20.6,20.6c0,11.4,9.2,20.6,20.6,20.6s20.6-9.2,20.6-20.6C561.7,916,552.5,906.8,541,906.8L541,906.8z"/>
		</g>
		<path id="圆角矩形_2_拷贝_6" fill="#4156A3" d="M503.7,839l4.8,4.8c1.3,1.3,1.3,3.5,0,4.8l-33,33.2c-1.3,1.3-3.3,1.3-4.8,0
			l0,0l-4.8-4.8c-1.3-1.3-1.3-3.5,0-4.8l33-33.2C500.2,837.7,502.4,837.7,503.7,839L503.7,839z M475.3,839l33,33.2
			c1.3,1.3,1.3,3.5,0,4.8l-4.8,4.8c-1.3,1.3-3.5,1.3-4.8,0l-33-33.2c-1.3-1.3-1.3-3.5,0-4.8l4.8-4.8
			C471.9,837.7,474,837.7,475.3,839L475.3,839L475.3,839z M608.9,839l4.8,4.8c1.3,1.3,1.3,3.5,0,4.8l-33,33.2
			c-1.3,1.3-3.3,1.3-4.8,0l0,0l-4.8-4.8c-1.3-1.3-1.3-3.5,0-4.8l33-33.2C605.4,837.7,607.6,837.7,608.9,839L608.9,839L608.9,839z
			 M580.4,839l33,33.2c1.3,1.3,1.3,3.5,0,4.8l-4.8,4.8c-1.3,1.3-3.3,1.3-4.8,0l0,0l-33-33.2c-1.3-1.3-1.3-3.5,0-4.8l4.8-4.8
			C577.1,837.7,579.2,837.7,580.4,839L580.4,839L580.4,839z"/>
	</g>
</g>
</svg>
