<?xml version="1.0" encoding="utf-8"?>
<!-- Generator: Adobe Illustrator 18.0.0, SVG Export Plug-In . SVG Version: 6.00 Build 0)  -->
<!DOCTYPE svg PUBLIC "-//W3C//DTD SVG 1.1//EN" "http://www.w3.org/Graphics/SVG/1.1/DTD/svg11.dtd">
<svg version="1.1" id="图层_1" xmlns="http://www.w3.org/2000/svg" xmlns:xlink="http://www.w3.org/1999/xlink" x="0px" y="0px"
	 viewBox="0 0 200 200" enable-background="new 0 0 200 200" xml:space="preserve">
<g>
	<path fill="#B0BBFF" d="M135.3,96c0.8,0,1.4-0.7,1.4-1.6c0,0,0,0,0,0c0-18.8-13.9-34.1-31.1-34.1S74.5,75.6,74.5,94.4c0,0,0,0,0,0
		c0,0.9,0.7,1.6,1.4,1.6H135.3z"/>
	<path fill="#576994" d="M105.3,53C93.7,52.1,84.1,55.9,76,63.7S63.8,80.9,63.8,92c0,0.7,0.1,1.3,0.4,2s0.6,1.3,1.1,1.8
		c0.4,0.5,1.2,0.9,2.1,1s2.9-0.3,3.6-1.5c0.5-0.7,1-1.9,1-3.3c0.3-7.9,3.3-16.5,9.3-22.1c5.6-5.3,11.7-8.1,20-9.3
		c1.5-0.2,5.5,0.3,6.6-0.3c0.6-0.3,2.2-1.2,2.3-2.7c0.1-1-0.1-1.5-0.6-2.3c-0.5-0.8-0.8-1-1.6-1.5C107.2,53.2,106.3,53,105.3,53
		L105.3,53z"/>
	<circle fill="#576994" cx="147.5" cy="64.6" r="3.3"/>
	<circle fill="#576994" cx="141.4" cy="55.2" r="3.4"/>
	<g>
		<path fill="#576994" d="M115.5,159.6H84.3c-0.5,0-1.1,0.2-1.6,0.6c-0.5,0.4-1,1-1.2,1.8c-0.3,0.8-0.4,1.6-0.4,2.4
			c0,0.4,0.2,1.3,0.3,1.6c0.2,0.8,1.1,0.5,1.3,0.7c0.3,0.2,0.5,0.4,0.8,0.5c0.3,0.1,0.5,0.1,0.8,0.1h31.2c1,0,1.8-0.5,2.5-1.4
			c0.5-0.6,1-0.6,1-1.9c0-1.3-0.3-2-0.8-2.8C117.5,160.1,116.5,159.6,115.5,159.6z"/>
		<path fill="#576994" d="M144.6,66.3c2.9,6,4.4,12.6,4.4,19.7c0,6-1.1,11.8-3.4,17.3c-2.3,5.5-5.6,10.4-9.8,14.7
			c-4.2,4.3-8.1,7.7-13.6,10.2c-2.3,1.1-3.4,2.9-3.4,5.3l-0.7,7.3c0,1.6-0.9,2.8-2.1,3.9c-1.1,1.1-2.5,1.6-4.1,1.6H88
			c-0.7,0-1.5-0.1-2.2-0.4c-0.7-0.3-1.4-0.7-1.9-1.2c-0.5-0.5-1-1.1-1.3-1.8c-0.3-0.7-0.4-1.5-0.4-2.2l-1-7.2c0-2.4-1.1-4.2-3.4-5.2
			c-8.5-3.9-14.2-9.6-19.3-17.2c-5.1-7.6-7.6-15.9-7.6-25c0-12.9,4.8-23.9,14.4-33.1c9.6-9.1,21.2-13.7,34.7-13.7
			s25.1,4.6,34.7,13.7c1.8,1.7,2.7,2.7,4.2,4.5l5.4-4.1c-4.4-5.6-9.7-9.9-16.1-13.5c-8.6-4.8-18-7.2-28.1-7.2
			c-7.6,0-14.8,1.4-21.7,4.3c-6.9,2.9-12.9,6.7-17.9,11.5s-9,10.5-12,17.1S44,79.3,44,86.6c0,14.5,5.2,27,15.7,37.5
			c4,3.9,8.4,7.1,13.2,9.6v3.2c0,5.8,2.1,10.8,7.1,14c2.7,1.6,5.9,1.9,8.9,1.9H111c4.4,0,8.5-1.2,11.7-4.3s4.3-7.2,4.3-11.6v-3.2
			c3.6-1.9,6.9-4.1,10-6.7c4-3.4,7.4-7.2,10.1-11.4s4.9-8.8,6.4-13.7s2.3-10.1,2.3-15.3c0-8.4-1.8-16.3-5.5-23.6L144.6,66.3z"/>
	</g>
</g>
</svg>
