<?xml version="1.0" encoding="utf-8"?>
<!-- Generator: Adobe Illustrator 22.0.0, SVG Export Plug-In . SVG Version: 6.00 Build 0)  -->
<svg version="1.1" id="图层_1" xmlns="http://www.w3.org/2000/svg" xmlns:xlink="http://www.w3.org/1999/xlink" x="0px" y="0px"
	 viewBox="0 0 200 200" style="enable-background:new 0 0 200 200;" xml:space="preserve">
<style type="text/css">
	.st0{fill:#8C90A5;}
</style>
<g>
	<path class="st0" d="M128.7,115.3c2.5-2.2,4.8-4.6,6.9-7.2c2.2-2.7,4-5.6,5.6-8.8c1.5-3.2,2.8-6.5,3.6-10.1s1.3-7.2,1.3-10.9
		c0-13.2-4.5-24.4-13.5-33.6S112.7,31,100,31s-23.5,4.6-32.5,13.8S54,65.3,54,78.4c0,7.4,1.6,14.4,4.8,20.9s7.5,12,13,16.3
		c-6.5,3.3-12.2,7.7-17.2,12.9c-5,5.3-8.9,11.4-12,18.3c-3,7-4.7,14.3-5.2,22.1h8.4c0.4-5.4,1.5-10.6,3.3-15.5s4.3-9.5,7.3-13.6
		s6.5-7.8,10.6-11s8.4-5.7,13.1-7.6c3,1.4,6.2,2.6,9.6,3.4s6.8,1.3,10.2,1.3c6.9,0,13.5-1.5,19.8-4.6
		C123.6,119.4,126.6,117.1,128.7,115.3z M73.3,105.9c-7.4-7.6-11.1-16.8-11.1-27.5s3.7-19.9,11.1-27.5S89.6,39.5,100,39.5
		c6.9,0,13.2,1.7,19,5.2c5.8,3.4,10.4,8.1,13.7,14.1c3.4,6,5.1,12.5,5.1,19.6c0,10.7-3.7,19.9-11.1,27.5s-16.3,11.4-26.7,11.4l0,0
		C89.6,117.3,80.7,113.5,73.3,105.9z"/>
	<path class="st0" d="M157.3,146.9c-3-7-7-13.1-12-18.3c-2.9-3.1-7.3-6.9-10.7-9.3c-2.2,2.1-5,3.9-7.5,5.3
		c5.8,3.6,12.1,9.4,16.4,15.3c6.3,8.6,9.8,18.3,10.5,29.1h8.5C162,161.2,160.3,153.8,157.3,146.9z"/>
</g>
</svg>
