<?xml version="1.0" encoding="utf-8"?>
<!-- Generator: Adobe Illustrator 18.0.0, SVG Export Plug-In . SVG Version: 6.00 Build 0)  -->
<!DOCTYPE svg PUBLIC "-//W3C//DTD SVG 1.1//EN" "http://www.w3.org/Graphics/SVG/1.1/DTD/svg11.dtd">
<svg version="1.1" id="图层_1" xmlns="http://www.w3.org/2000/svg" xmlns:xlink="http://www.w3.org/1999/xlink" x="0px" y="0px"
	 viewBox="0 420 1080 1080" enable-background="new 0 420 1080 1080" xml:space="preserve">
<metadata><?xpacket begin="﻿" id="W5M0MpCehiHzreSzNTczkc9d"?>
<x:xmpmeta xmlns:x="adobe:ns:meta/" x:xmptk="Adobe XMP Core 5.6-c011 79.156289, 2014/03/31-23:39:12        ">
   <rdf:RDF xmlns:rdf="http://www.w3.org/1999/02/22-rdf-syntax-ns#">
      <rdf:Description rdf:about=""
            xmlns:xmp="http://ns.adobe.com/xap/1.0/"
            xmlns:xmpGImg="http://ns.adobe.com/xap/1.0/g/img/"
            xmlns:xmpTPg="http://ns.adobe.com/xap/1.0/t/pg/"
            xmlns:stDim="http://ns.adobe.com/xap/1.0/sType/Dimensions#"
            xmlns:xmpG="http://ns.adobe.com/xap/1.0/g/"
            xmlns:dc="http://purl.org/dc/elements/1.1/">
         <xmp:CreatorTool>Adobe Illustrator CC 2014 (Windows)</xmp:CreatorTool>
         <xmp:CreateDate>2018-03-06T11:14:06+08:00</xmp:CreateDate>
         <xmp:Thumbnails>
            <rdf:Alt>
               <rdf:li rdf:parseType="Resource">
                  <xmpGImg:width>184</xmpGImg:width>
                  <xmpGImg:height>256</xmpGImg:height>
                  <xmpGImg:format>JPEG</xmpGImg:format>
                  <xmpGImg:image>/9j/4AAQSkZJRgABAgEASABIAAD/7QAsUGhvdG9zaG9wIDMuMAA4QklNA+0AAAAAABAASAAAAAEA&#xA;AQBIAAAAAQAB/+4ADkFkb2JlAGTAAAAAAf/bAIQABgQEBAUEBgUFBgkGBQYJCwgGBggLDAoKCwoK&#xA;DBAMDAwMDAwQDA4PEA8ODBMTFBQTExwbGxscHx8fHx8fHx8fHwEHBwcNDA0YEBAYGhURFRofHx8f&#xA;Hx8fHx8fHx8fHx8fHx8fHx8fHx8fHx8fHx8fHx8fHx8fHx8fHx8fHx8fHx8f/8AAEQgBAAC4AwER&#xA;AAIRAQMRAf/EAaIAAAAHAQEBAQEAAAAAAAAAAAQFAwIGAQAHCAkKCwEAAgIDAQEBAQEAAAAAAAAA&#xA;AQACAwQFBgcICQoLEAACAQMDAgQCBgcDBAIGAnMBAgMRBAAFIRIxQVEGE2EicYEUMpGhBxWxQiPB&#xA;UtHhMxZi8CRygvElQzRTkqKyY3PCNUQnk6OzNhdUZHTD0uIIJoMJChgZhJRFRqS0VtNVKBry4/PE&#xA;1OT0ZXWFlaW1xdXl9WZ2hpamtsbW5vY3R1dnd4eXp7fH1+f3OEhYaHiImKi4yNjo+Ck5SVlpeYmZ&#xA;qbnJ2en5KjpKWmp6ipqqusra6voRAAICAQIDBQUEBQYECAMDbQEAAhEDBCESMUEFURNhIgZxgZEy&#xA;obHwFMHR4SNCFVJicvEzJDRDghaSUyWiY7LCB3PSNeJEgxdUkwgJChgZJjZFGidkdFU38qOzwygp&#xA;0+PzhJSktMTU5PRldYWVpbXF1eX1RlZmdoaWprbG1ub2R1dnd4eXp7fH1+f3OEhYaHiImKi4yNjo&#xA;+DlJWWl5iZmpucnZ6fkqOkpaanqKmqq6ytrq+v/aAAwDAQACEQMRAD8A9U4q7FXYq7FXYq7FXYqt&#xA;klijFZHVB4sQP14REnkgltXV1DKQynoQajEikt4FQ9/fR2VsZ5FZlBAooqd8sxYzOVBjKVC2M/py&#xA;L9NfXuL+lx48Nq/Zp40675svyx8Lg6uP4nqtk1hfR3tsJ41ZVJIowods1uXGYSouRGVi0RlbJ2Ku&#xA;xV2KuxV2KuxV2KuxV2KuxV2KuxV2KuxV2KuxVjUdsmq61dpdyMFgLLHGDTZW47ZsjPwsQMRzceuK&#xA;RtU0cNZ61cWEUhkt6E79iAD9+9DkdR68QmRRTDaVMhzXt7iARQ7jwxVLP0Q36a+vVT0eNPTpvXjx&#xA;+WZPj/u+Hq18HqtMwABQbDwzGbHYq7FXYq7FWndI0Z3PFFBLMegAwgWaCpbquqenphurKRW+JVDi&#xA;jDrvmRgw3PhkGuc9rCNa8t4zEksipLLTghO5J8BlIxk2QNgz4grZBLsVdirsVSTzJdXCG2topPRW&#xA;diHkrTYEDr4b75m6OANyIumnKTsELbCbTNYhtY7g3EUwHNfDlXtU/PLZ1kxmRFEMR6ZVbJc1rkOx&#xA;V2KuxVK9Q0C3u5/rCSNBMftMu4PatNt8ysWqMBVWGuWME2raZpFvp4YoS8r/AGpG608B4ZDNqDk5&#xA;8kwgIo7KGbsVdirsVdiqjdXtraKr3EgjVjxUmpqfoycMcpcggyA5qwIIqOmQS7FVspjETmWnphTz&#xA;r0403rhjd7c0FJtKfRvUunt1ZIPh5tLT0uu1K+/jmZnGShfPy5tUOHem1fSF1xxKji8Zh6bSboSR&#xA;twp/HEjJ4W30p9PF5p1mE2uxV2KuxVDX+n219D6U4NAaqw2YH2yzFllA2GMog80Pp+g2VlL6qcpJ&#xA;eis9Nq+AAGWZdVKYroxjjATHMdsWySJHG0kh4ogJZj2AwgEmgpLUM0c0SyxnlG4qp9jjKJBooBtf&#xA;gS7FXYq7FXYq7FXYq41pt17YqxDXJtXkRBfQrGgY+mV7n7zm300cYPpNuLkMuqeaRNrEjEXsKxwh&#xA;BwYda/ee2YOeOMfSd26Bl1TPMZsaZVZSrAMrChU7gjCDSoDVNNNxpxtbYJHQgqtOK7H2y/Bm4Z8U&#xA;t2E4WKCMNvC3pmRFdoqcGIBII7iuU8ZF11ZUqZFKWa/qNxY2qPBTm78SWFdqE5k6XEJyoteSRA2R&#xA;1nK01pBM1OUkau1OlWUHKckakR3FnE2FXIJdirsVdiqV+hq8jz2lyVktZlYJcLQMtegK7f598yuL&#xA;GKlH6h0a6lyPJa1vq8K29nZlUgjQepctQkmu4Cmv6sInjNylz7kVIbBNsxG12KuxVIvNN3cwLbLB&#xA;K0QcuW4EqTx403HzzO0WOMrsW05pEUm9jI8llbyOau8SMx8SVBOYmUVIgd7bE7K2QS7FXYqhdQ02&#xA;3v40SfkAjcgVND8u+W4sxgbDGUAeaKAAAA6DYZUydirsVdirsVWTxtJDJGrFGdSocdQSKV+jJRNE&#xA;FBDD9V0a4sYUkkmEgZuIAr4V75t8GoEzQFOLOBCYaVoN0Gtbv6zRKJLwFa0IB4/wzHz6qO8a8myG&#xA;M7G2R5rm92KuxV2KpQ+nS2v1nUDO1xdBHMVRsop041OZYyiVQqotXDVnqtTT5b6G1vxO1veFF5Oo&#xA;2I91264TlECYVcVEbo9U5zDbXYqgdasJ76z9GFwjcwx5EgECuxpX55fp8ohKywyRJDFNS0m50/0/&#xA;WZG9Xlx4En7NK1qB45tcOeOS66ONOBii7XyzfyxwzrLGiuFdTVuQBFfDr9OUz1kASKLIYjzZdmpc&#xA;p2KuxV2KuxV2KuxV2KuxV2Koe+sLa9iEc4JVTyFDQg9Msx5ZQNhjKIPNWjjSONY0FEQBVHgAKDIE&#xA;2bLIBdgV2KuxV2KuxV2KuxV2KuxVL9Y0ddRWL96YmiJoacgQ1K7VHhmRp9R4d7XbCcOJG28Ihgjh&#xA;U1EaqgJ6kKKZTKVknvZAUF+RS7FXYq7FXYq7FXYq4kAVOwHU4qlreYtJEvp+rXenMKSv35kjSZKu&#xA;mvxYpirK6hlIZWFVYbgg5jkU2N4FdiqSXPmXjO8VrbtcLHXm4JHTrsAdvfM2Gj2uRq2k5d9gmGm6&#xA;lDfwerGCpBo6HqDmPmwnGaLZGXEEXlTJ2KuxV2KuxV2KuxV2KuxV2KuxV2KuxV2KuxV2KoLWxKdK&#xA;uRFXnx7fy1HL/ha5fpq8QWwyfSUit5ND/QjLIq/WwrV2/ec9+ND4ZnSGXxdvp+xpBjw+abeWxKNK&#xA;j9Tpyb06/wAtf61zE1leIabcX0ppmK2OxVi1nc3OiST28lsZOZrHINq06b0NRm0yQjmAINONEmG1&#xA;Jj5bs7iGKeeZfTNwwKxnagFd6dvtZj6zICQB0bMUSN04zDbXYq7FXYq7FXYq7FXYq7FXYq7FXYq7&#xA;FXYq7FXYq7FUA2g6S0vqm3HKtSASFr/q1pmQNVkqrYeHFHqoUBVACgUAHQDMclm7FXYq7FXYq7FX&#xA;Yq7FXYq7FXYqg9X1jTNH0+XUNTuEtbOEVklc/cABuzHsBucnDGZmgLKCQNy8X8x/85GXZmaLy7p0&#xA;awgkC5vaszDxEUbKF+ljm2xdlj+M/JxpajuSJfz3/MeArLMls8ddhLblUbv1VkP3HL/5Ownv+bDx&#xA;5PU/yy/M2784rNHcaRLavbir3sfxWpO3w8moVff7O+3fNZq9IMXI397kY8nF0Zxd3tnZxGa7njt4&#xA;h1kldUX72IGYcYk8mwlAW/m3yrcy+lbazYzy1p6cdzC7V8KKxPbLDhmOcT8kcY701ypk7FXYq7FX&#xA;Yq7FXYq7FXYq7FXYq7FXYq7FXYq7FXYq+bvzH1/VvPnnyPy7pR52dtObWyiB+BpFqJZ2I7bHfso9&#xA;zm/0uKOHFxy58/2OFkkZyoPYvJP5Y+WvK1pF6dul3qYAM2ozKGkLd/TrX018Av01zVajVzyHnQ7n&#xA;JhjEWWyRxyI0cih0YUZGAII8CDmKC2PM/wAy/wAydP8AJFouh+X7eBNVkXmIo0VYbZH35si0Bduo&#xA;X6T77HSaQ5jxTPp+9oyZOHYPP9O/LPzp5tVdc80am1nDcDlA90GmuHVtwY4AVCJ4br8qZnnUwx+j&#xA;GL+75tHATvIou9/I+09L/QdWk9UD/d8K8WP+xeq/jk46o9QwIHRLNL80+fvy11KK1vWa70ljtbO5&#xA;eB0HUwOd42Fen3g4Munx5hY2kyhkMX0L5e8wab5g0i31XTZPUtbhagHZlYbMjjsynY5ocuIwkYnm&#xA;5sZAiwmOVsnYq7FXYq7FXYq7FXYq7FXYq7FXYq7FXYqhdVnkt9LvJ49pIoJHQ/5SoSMlAXIBB5Pn&#xA;/wD5x3toZvOd5PKOUsFi7RV6hnljVm+4kfTm87UNYwPNxNOPU+is0LmKN7dxWdnPdzGkVvG8sh/y&#xA;UUsfwGGMbNIJfPH5WaT/AIy896h5i1tRPBZk3txG3xK00jH0UIP7KhSQP8kDpm+1c/CxiEeZ2cPG&#xA;OKRJevXd1JcztK/U9B4DsMx4QERQYylZtRybFLPMeg2mu6RPp1yopItYpCN45B9lx8j+G2ShMxNq&#xA;w7/nHvW7qz13U/LVySI5UaeOMnZJ4GCSAD/KU7/6uDtPGDETDdp5b095zSOW7FXYq7FXYq7FXYq7&#xA;FXYq7FXYq7FXYq7FWnRXRkcckYFWU9CDscVfMVtLf/ld+ZberG0lpEzIQOs1lMdmU7AsAAf9ZaZ0&#xA;RA1OHz/S4P0SfSWj6xpusadDqOmzrcWk68o5F/EEdQw7g7jNBOBgaPNzQQRYQvm+3lufKetW0QrL&#xA;PYXUcYH8zwso/E5LAanE+YRPkXjf/OPt1F9U8zWmwneO3mX+ZkT1Fb6F5D783HaA9UD5uJi+kvRc&#xA;g1uxVokKCSaAbknpTFXlH5Pk6h+bc99b7Qf6ZckAUHpyEqv4yLl2v2w0fJswfU+jc59zXYq7FXYq&#xA;7FXYq7FXYq7FXYq7FXYq7FXYq7FWEfmrofkjVNGX/El9Fpk0XI2N6SPVVu6qn2pFPdR+GZmjyZIy&#xA;9AvvDVljEjd876b5k1ryrqcx8u6wxi5f30SuIZgOhaGZR/wy7ZvZ4o5B64uGJGJ2L3r8oPzJufN1&#xA;pd2mqmIataEOBGvASQMAOfEk7q+zU23GaXXaQYiDH6S5eLJxc3mWv2Wq/ld+Yn6Rs4eek3LO1um4&#xA;jltpD+8tyR0ZO3yVs2OKQ1GKj9Q+/vaJAwl5PS9F8y6FrsAuNKuRIpFWgeizR1/ZkSuxHSo2PY5U&#xA;YSj9TA10TIkAVOwHU4EPMvzI/Ma0Wzm0XR5hNPMDHd3SGqIh2ZEYdWboSOg9+mVhwm7KCWX/AJEe&#xA;SLnRtHm1u/jMd7qiqIImFGS3XcE+BkO9PADNb2jqBOXCOQ+9y8EKFvU81re7FXYq7FXYq7FXYq7F&#xA;XYq7FXYq7FXYq7FWB/mn+ZsHlCxW2tAk+uXS1t4W3WJOnqyAe+yjv9GZuj0hymz9IasuTh97xXy3&#xA;5N85/mNqkuoTzs0PKl1qtzUoD14RqOpFdlWgHtm3y58eCND5ONGEpm3sOhfkR5G06NTexSarcj7U&#xA;k7siV/yY4yop7MWzVZO0ckuWzkRwRDIRofkTylBJrAs7TSkt0KveKgVgrbcaj4m5eHU5R4mXKeGz&#xA;Jnwxju8Y/Mr84k8z20mi6Zpyfo5mHG4uV5zs4NFaJQaR/iflm20mh8M8RO7jZM3FsEh0D8qfzGv+&#xA;F1Z6dLZr9pLidxbN7EBiJPpC5fk1uKOxNsI4pFk9/wDlF+b1zamG41NLuECnoG8lIb5h1Cn6cojr&#xA;8N8vsZeBJhV55Y83+TdQt9Q1PSOK28gZGnRZ7VmHQMyFkPyrXMqObHlBAP62BiYmyHtvkH87NF8x&#xA;Sx6fqiLpeqvRY6tW3mY9AjndWPZW+gk5p9T2fLHvHeLlY8wOxelZr252KuxV2KuxV2KuxV2KuxV2&#xA;KuxV2KuxVQvr23sbG4vbluFvaxPNM3gkalmP3DJRiSQB1QTT5a0+21P8yPzDPrMUN/KZZ2G/oW0f&#xA;Yf6qAKvvnRyI0+Lbp97ggGcn1Fpel2GlafBp9hCsFpbKEiiUUAA/WT1J7nOcnMyNnm5wFbK11dW9&#xA;pbS3VzIIreBGkmlY0VUQVZj8gMABJoJJfMvm3zN5g/MzzbDpumI5svUKabZk0UKPtTy+/Hc/yjYe&#xA;/Q4cUdPC5c+v6nBnIzNB7X5D/K3y/wCVLeOURreawQPW1CRakHuIVNeC/Lc9zmo1OsnlPdHucqGI&#xA;R97M8xGx2KrZoYZonhmRZYpAVkjcBlZTsQQdiMINK8a8+fkGLq8F95TaK29Q1n0+ZmWNSf2omAag&#xA;/wAk/R4ZtdN2lQqe/m408Hc9a0SzurLRrCzu5zc3VtbxRXFwan1JEQKz1O/xEV3zWZJAyJHK3IiK&#xA;CNyCXYq7FXYq7FXYq7FXYq7FXYq7FXYqwr85b17T8uNXaMkPMIoQR4STIr1+aVGZmgjeYNWY+ksC&#xA;/wCcbdMQza3qjL8aLDbRN7OWeQf8ImZvas/pi1accy9yzTOU8o/5yD8zSWHl210WBysuquWnIO/o&#xA;Q0JX/ZOy/cc2fZmLimZH+Fx9RKhS/wDILyjDp/lxtfmT/TtUJELEbpbRtxAH+u6lj4jjg7Sz8U+E&#xA;ch96cEKFvVM1re7FXYq7FXYq7FXYq7FXYq7FXYq7FXYq7FXYq7FXYq7FUp81eWrHzLoVzo96zpBc&#xA;Bf3kZoysjBlYVqNiMtw5TjkJBjKPEKQHkPyHpnk7TJrKymkuGuJPVnnloCSBxAAXYADJ6nUnKbKI&#xA;QEQyXMdm+b/+cg7x5vPMcB+xbWUSKO1WZ3J/4bN/2ZGsd95cPUH1PoDy7YpYeX9NskACW1rDEKf5&#xA;EYX+GaTLLikT3ly4igmGVpdirsVdirsVdirsVdirsVdirsVdirsVdirsVdirsVdirsVdirsVYn5n&#xA;/LDyl5l1aDVNTgka5hVUf03KLKimoWQAb+G1DmVh1c8ceGPJrliEjZZYAFAAFANgB0pmK2OxV2Ku&#xA;xV2KuxV2KuxV2KuxV2KuxV2KuxV2KuxV2KuxV2KuxV2KuxV2KuxV2KuxV2KuxV2KuxV2KuxV2Kux&#xA;V2KuxV2KuxV2KuxV2KuxV2KuxV2KuxV2KuxV2KuxV2KuxV2KuxV2KuxV2KuxV2KuxV2KuxV2KuxV&#xA;bJ6nE+nQt2r0wiuqoR21DwoP8mhy4CDDdRZrzuXH3jJARRusLTdy301yVBCwsx6k4aV3JvE40ruT&#xA;eJxpXcm8TjSthn7E40q4NP2LfQTgoLuqK1725n7z+vIkRTurRtqHhUf5VBkCIJFoxeVBy696dMpL&#xA;N2KuxV2KuxV2KuxV2KuxV2KuxV2KuxV2KuxV2Ku4jwGNq1xXwGNq3QeGKuxV2KuxV2KuxV2KuxV2&#xA;KuxV2KuxV2KuxV2KuxV2KuxV2KuxV2KuxV2KuxV2KuxV2KuxV2KuxV2KuxV2KuxV2KuxV2KuxV2K&#xA;uxV2KuxV2KuxV2KuxV2KuxV2KuxV2KuxV2KuxV2KuxV2KuxV2KuxV2KuxV2KuxV2KuxV2KuxV2Ku&#xA;xV2KuxV2KuxV2KuxV2KuxV2KuxV2KuxV2KuxV2KuxV2KuxV2KuxV2KuxV2KuxV2KuxV2KuxV2Kux&#xA;V2KuxV2KuxV2KuxV2KuxV2KuxVi/mBtWF7qHpGERDTpSOXPlwqanbblmfpxDhjd/WGmd2fcraNLq&#xA;j63N6j27RiztPV9Mufh5XHHjX9qvXI5hAYxz+qX+9TC+L4D9LHbwam2oXcaetI9tdTTXIjWWTjAz&#xA;yGMEpdxg/DxogRT/ABzIcPCOW4AHLnt/R+2y0m7/AB+tknlwam2ic4ZE5yTO8MkwaRDEelAJpCP+&#xA;RhzC1PB4m/d07/kPubsd0hLG912TzFfQCW1BKpHHKY5DG7QCsioPU6r6wr/Zlk4YxjBo/MdeXTyY&#xA;gy4ira5JEb7S7a4kka+eRTOLT1gfTUM4oisQFZloS3auRwA8MiPp86TPmB1S/SoxLeabPJLNOHe1&#xA;djLNLIKy2cstQrsRvKFPTLspqMgABz6D+cB9zGPMfjosvb+6sdfnQ36oXlj9NeReK2WaQLLyL0BY&#xA;rwan7NdutSYYxLGPT0+Jobfp96DIiXNMfKGoTSMlqbxLuIQNKQoWqN6pWhKk9RvvlOrxgb1W/wCh&#xA;nil0tk+YDc7FXYq7FXYq7FXYq7FXYq7FXYq7FXYq7FUsvrG/e/8ArVr6DI0BglinDEEFuX7OX48k&#xA;RGjfO9mEom7C3T9OuoHZGtrKG3lFJhbIyM2xp2A74cmQHrInzWMSO5Ts9DeGG9PGGGS5i9CGGEER&#xA;RxrzK70BZmaQszU/VhnnsjmaN7oEOau2lyQW7LpghtbmfiLmfiSAACC6oKBn+f01pTI+KCfXZA5f&#xA;juTw1yQ0PloQ2720dy4jjcT2Ex+KaGZuXqMWP2w5apB8SOlMmdTZuvI9xHT3IGPouvbLXLn6swNv&#xA;HPbxyt6wZ6GZ43jWicdlHINXlXt74ITxxvnRr5XakSKDfyvex3kUtpcRpb26wLFEwav7j06VptuI&#xA;+PToTlo1UTEgjc39tsfDN7Ip9Kv0v3ubeC0EYDRxQksoIkf1JJHoh+MlV2+e+VjLExomX46MuE3e&#xA;zWg6NqWn3BaeWF4Gh9MpErqQ6yF1PxFgah2BO3QdeznzRmNgbtYQITzMVsdirsVdirsVdirsVdir&#xA;sVdirsVdirsVdirsVdirsVdirsVdirsVdirsVdirsVdirsVdirsVdirsVdiqTxeZIH1G4tERpvTr&#xA;6XpLu3A8Zalio+FtsyTpiIg8vxs1+JvS7RNfXUdPWdoZEuEt4p5ogpFfVQsPTqfiB4mmDPp+CVXt&#xA;ZHy71hOwpyeY3XUYLYWFzwkhlkasXx1jaMDiK9P3hr9GSGm9JPEOY6+9fE35Ii/1lba0gl4+lLcS&#xA;BESf4OKg8pHffYJGrN93jkMeHiJHd3fZ9qZToIVvMV2bu1jh0u5kguY5JEaturOq8OLKGmWgo+4e&#xA;h9uuTGnFEmQse/8AV9yPEN8le/1qW0+syGBZYbe2kuHVZF9RHiUuUkXegYbAiu+Rx4RKhe5NJlOl&#xA;0epaiL2C2urNIfrAf03Sb1N0FaEcFwHHHhJBuvL9q8RuiEBN5puo3jRbJZec7WxZGuioePkHo31W&#xA;jUaMj4a5bHSg9el/w/8AFMTkPd9/6kwtNYMtnLcyQmkT+n6cAmkk5AgEFHiiYUr4ZVPDUgAfnX6y&#xA;yEtrS6LzVePdpGLEGOeT0beESobgFWIlaSMFuITv4ePbLjpYgfVy57beVMPEN8kfq2uJYXVvCY3d&#xA;SGlunWN39OBVb4vh6fHQb9q5ViwcYJ+XvZynRU4PMkDTzLLFKsH1kW1tcLFIY2qViBMlOO8xZfuw&#xA;y0xoURdWd/j9yBkQ2t+apNLZma2QwK4jEkpuIiTWhp/o7IabnZ+gyeDSjJ13+H/FfoRPJX4/YjNM&#xA;1ee5t5JnjMnwCSFYYplDLT9l5liVie1Mry4RE195H6LZRlajB5hupLy6i/RlyY4OCigi5hmXkwas&#xA;lOhWlMlLTgRB4hv7/wBSBM3yVbvXpYIo2FhL6knqH0pGRGCxLzZti46ZGGAE/UP7VM66IG48130c&#xA;kvp2ETwRLNJza4ZXK25jD/CIWFf3wp8WWx0sSBcje3Tvvz8mJyHuTuW+jj1C3sipMlzHLIrClAIS&#xA;gNfn6gzFGMmJl3V9t/qbSd6ROQS7FXYq7FXYqxC/tLeK9vrW19Rb1+CWKRE8uciHmzsQxCDlyc1z&#xA;Y45kxBP09fx39zRIbkDmiNH023sjcWV9cXH1lIQhkEkiLLbQn4JI2j4lSoNGAao+RGRzZDKpRAq/&#xA;kT3pjGtilyLZ3Ed1fQyXrXA5Jp0Bk1GRljUguGMbFx6xUGldhx2qDlx4gRE8Nddofjb9bDY77/ai&#xA;9Qhsr7SLEwK9JJDI0d1DcX8ylCPUi3ZnSjqA3xAbZXjMozlf2ERHvZSAIH9qWXyWLjUbm4jQXsL7&#xA;Rvp8Lhm9NGJkf0pKFmY1+PbL4GQ4QPpP9I955bj7mBrc9fcnevi0t9QYy2rtaT2E8N5JCoWiOyKK&#xA;t3YgcVAqa5i6ezHY7iQpsnQPwVbdbm3vtOm1Rn5SxMFZnBSK4K8njagGxQGh9j4jIyoxkId/zCRs&#xA;RbGrixtZ9WZkKzaebmW6bUIYPrMdJebcHdF6h39xSm+Z0ZkQ7pUBRNcqaSAT5Mj006HbaLd28Gow&#xA;SR1Z5XUhBG0uy8ljZWQVG24zByeJKYJif7Pe3R4QOaTWmnzS3Uo08TNOCrQXtugt7UkqQWmaZZJH&#xA;KHtyftSm9MqeQADiqu47n4Vt9zWI77Jhrljd8mQtc3Eiaa0bzQ0HqSVP94BTZqdBlOCY8h62Uwfs&#xA;RGppBaXMOnx3Apd3NpJbWH2nj9GdHdkA+zFxi+QPTwyGImQMiOQlZ94+/dMttvclurwcdcu4nmml&#xA;VoomBYsxXmzkqhW2ueC/ANhx+nL8Mv3YNDmfx9Q/SxkPUfx+hGeWpIbaHVL6WSQRQTlPRHLhQwxS&#xA;fDEI4PjLuekYJr365VqQZGMR1H6T1s/eyx7WUquIHmnnvIrIahf3PP8ASEZQyJakGkfE/ZeSJPhe&#xA;Nd2I7UzIjKgIk8MRy/pd/wAD0LWR1qym06JJY2CaSj3sNtDPbsQaMpMIUepz4lW9jvmPE1KXH6SS&#xA;D9rYeQrdBfV9DQ3p1KWVLxHlVbQSyIXR1RuKovUSFF6DfLOLIa4QOHbeh5/cxqO9slZGk1axuWjk&#xA;VhbTqRxqimRoWoz12P7ugFN8wrqBHmP0tvUJhlLN2KuxV//Z</xmpGImg:image>
               </rdf:li>
            </rdf:Alt>
         </xmp:Thumbnails>
         <xmpTPg:MaxPageSize rdf:parseType="Resource">
            <stDim:w>1080.000000</stDim:w>
            <stDim:h>1080.000000</stDim:h>
            <stDim:unit>Pixels</stDim:unit>
         </xmpTPg:MaxPageSize>
         <xmpTPg:NPages>1</xmpTPg:NPages>
         <xmpTPg:HasVisibleTransparency>False</xmpTPg:HasVisibleTransparency>
         <xmpTPg:HasVisibleOverprint>False</xmpTPg:HasVisibleOverprint>
         <xmpTPg:PlateNames>
            <rdf:Seq>
               <rdf:li>Cyan</rdf:li>
               <rdf:li>Magenta</rdf:li>
               <rdf:li>Yellow</rdf:li>
            </rdf:Seq>
         </xmpTPg:PlateNames>
         <xmpTPg:SwatchGroups>
            <rdf:Seq>
               <rdf:li rdf:parseType="Resource">
                  <xmpG:groupName>默认色板组</xmpG:groupName>
                  <xmpG:groupType>0</xmpG:groupType>
               </rdf:li>
            </rdf:Seq>
         </xmpTPg:SwatchGroups>
         <dc:format>image/svg+xml</dc:format>
      </rdf:Description>
   </rdf:RDF>
</x:xmpmeta>
                                                                                                    
                                                                                                    
                                                                                                    
                                                                                                    
                                                                                                    
                                                                                                    
                                                                                                    
                                                                                                    
                                                                                                    
                                                                                                    
                                                                                                    
                                                                                                    
                                                                                                    
                                                                                                    
                                                                                                    
                                                                                                    
                                                                                                    
                                                                                                    
                                                                                                    
                                                                                                    
                           
<?xpacket end="w"?>
	</metadata>
<g>
	<path id="椭圆_1" fill="#E5EBFF" d="M539.9,1123.1c102.4,0,185.5,7.1,185.5,15.9c0,8.7-83.1,15.9-185.5,15.9
		s-185.5-7.1-185.5-15.9C354.4,1130.3,437.5,1123.1,539.9,1123.1z"/>
	<g>
		<path id="形状_576" fill="#C2DAFF" d="M617.1,905.7h-5.2c-34-1.4-60.5-30.2-58.9-64.2c1.4-34,30.2-60.5,64.2-58.9
			c34,1.4,60.5,30.2,58.9,64.2C674.6,878.7,649,904.3,617.1,905.7z"/>
		<path id="形状_574" fill="#4156A3" d="M688.6,930.3c-12.4-11.8-27.2-20.8-43.2-26.7c35.1-24.8,43.4-73.4,18.6-108.5
			c-24.8-35.1-73.4-43.4-108.5-18.6s-43.4,73.4-18.6,108.5c5.1,7.3,11.6,13.7,18.9,18.7c-50.5,18.9-84,67-84,120.9
			c0,6.2,4.9,11.1,11.1,11.1s11.1-4.9,11.1-11.1c0-63.5,48.6-107.4,106.1-108.8h5.7c26.2,0.8,48.9,11,68,28.9
			c4.6,4.1,11.3,6.2,15.4,1.7C693.3,941.6,693.2,934.6,688.6,930.3 M504.3,875.3c-29.1-4.8-56.2-24.9-57-54.2
			c-1-30.7,24.1-56.2,55-57.2c10-0.3,20.5,1.3,28.7,5.6c4.8-5.1,11.6-8.7,17-12.9c-35.9-23.8-84.2-14.1-108,21.8
			c-8.9,13.5-13.5,29.4-13,45.4c0.8,26.4,23.3,53.8,47.8,61.3c-49.6,6.2-88.8,55.1-87,110.5c0.2,6,5.1,11,11.3,10.8h0.2
			c6-0.3,11-5.4,10.8-11.4c1.1-53.8,37.2-92.1,94.5-95.3l5.7-0.2c0.8,0,4.9,0.2,5.7,0.2C512.3,892,506.3,883.8,504.3,875.3
			L504.3,875.3z M600.9,901.1c0,0-59.9-5.7-59.9-61.8c-0.2-32.9,26.5-59.6,59.2-59.7c32.9-0.2,59.6,26.5,59.7,59.2
			c0,0.2,0,0.2,0,0.3c0,31.9-29.9,60.5-59.6,61.8"/>
	</g>
	<g>
		<g enable-background="new    ">
			<path fill="#7791E5" d="M403.8,1331.3h7.5v-12.9h3v12.9h12.4V1318h3v13.3h12.2V1318h3v13.3h8.7v3h-8.7v17.5h-18.3v-17.5h-12.4
				v28.9h37.5v3h-40.5v-31.9h-7.5L403.8,1331.3L403.8,1331.3z M429.7,1334.3v14.5h12.2v-14.5H429.7z"/>
			<path fill="#7791E5" d="M465.6,1320.2h37.8v21.3h-11.3c3.7,4.8,9.5,8.4,17.8,11.1l-1.3,2.7c-9.2-3.5-15.7-8.1-19.5-13.8h-9.5
				c-3.8,5.4-10.3,9.8-19.2,13.3l-1.6-2.5c8.1-2.9,14.1-6.4,17.8-10.8h-11L465.6,1320.2L465.6,1320.2z M477.8,1347.8
				c0,4.3-0.6,7.9-1.9,11.1c-1.7,4-5.6,7.1-11.4,9.7l-1.9-2.4c5.1-2.1,8.6-4.8,10.3-7.9c1.3-2.9,1.9-6.2,1.9-10.3h3V1347.8z
				 M468.5,1329.6h14.3v-6.5h-14.3V1329.6z M482.9,1338.8v-6.7h-14.3v6.7H482.9z M485.8,1322.9v6.5h14.6v-6.5H485.8z M500.4,1338.8
				v-6.7h-14.6v6.7H500.4z M491.6,1348h3v20.6h-3V1348z"/>
			<path fill="#7791E5" d="M515.6,1329.9h21.9c0.3-2.9,0.5-5.9,0.5-9.4v-2.5h3v1.9c0,3.2-0.2,6.5-0.6,10h23.8v3h-22.7
				c4,14.5,11.9,25.4,23.8,33l-1.9,2.4c-11.8-7.8-19.9-18.6-24.1-32.7c-1.4,6.8-3.8,12.7-7,17.8c2.9,2.7,6.2,6.4,9.8,11l-2.2,2.2
				c-3.3-4.3-6.4-7.9-9.4-10.8c-4,5.2-8.7,9.4-14.6,12.4l-1.9-2.5c12.5-6.5,20.2-17.5,22.7-32.9h-21.4v-2.9H515.6z"/>
			<path fill="#7791E5" d="M588.4,1342.4c-2.1,0.8-4.3,1.7-6.7,2.5v19.5c0,2.7-1.4,4-4.3,4H572l-0.8-3c2.9,0.2,4.4,0.3,5.2,0.3
				c1.4,0,2.2-0.6,2.2-2.1v-17.8c-2.2,0.6-4.8,1.3-7.6,2.1l-0.8-3c2.5-0.5,5.2-1.1,8.4-2.1v-10.6c2.2-2.7,4.3-5.9,6.2-9.2h-13v-2.9
				h16.4v2.5c-1.3,2.7-3.3,6.2-6.5,10.2v8.7c2.2-0.6,4.3-1.6,6.7-2.5L588.4,1342.4L588.4,1342.4z M604.2,1323.4v40.5
				c1.9-0.6,3.7-1.1,5.4-1.9c-0.6-3.3-1.4-6.2-2.1-8.9l2.1-0.6c1.3,4.4,2.5,9.5,3.5,15.1l-2.4,0.6l-0.6-3.8c-2.7,1-5.7,1.9-9.2,2.7
				l-0.6-2.5c1-0.3,1.3-1,1.3-1.9v-38.9c-2.1,0.2-4.3,0.3-6.8,0.3v18.3c-0.3,11-2.5,19.7-6.7,26.4l-2.2-2.4c3.8-5.7,5.7-13.7,6-24
				v-21c9.1-0.2,17.5-1.1,25.3-3l1.4,2.7c-1.1,0.3-2.5,0.6-4.6,1.1c0.2,18.1,2.4,33,7,44.5l-2.1,2.1c-4.9-12.1-7.5-27.3-7.6-46.1
				C608.7,1322.9,606.3,1323.2,604.2,1323.4z"/>
			<path fill="#7791E5" d="M645.5,1320.2c-2.4,3.7-4.8,6.7-7.1,9.1c0,0,0,0-0.2,0c0.5,0.8,0.8,1.7,1.1,2.5
				c1.6,4.4,2.5,10.8,2.7,18.9c0,8.7-1.1,14-3.3,15.7c-1.3,1-3.2,1.4-5.6,1.4h-3.5l-1-2.9c1.7,0.2,2.9,0.2,3.7,0.2
				c2.1,0,3.5-0.3,4.3-1.1c1.6-1.6,2.4-6,2.4-13.5c0-3.2-0.2-5.7-0.3-7.8c-2.9,4.3-6.5,7.9-10.6,11l-1.7-2.5
				c5.1-3.3,9.1-7.5,11.9-12.4c-0.5-2.2-0.8-4.1-1.4-5.6c-0.3-0.8-0.6-1.6-1-2.1c-2.2,1.7-4.8,3.5-7.8,5.4l-1.6-2.5
				c3-1.6,5.7-3.3,8.1-5.4c-1.7-2.9-3.8-5.4-6.4-7.5l2.4-1.9c2.5,2.5,4.4,4.9,5.9,7.5c2.2-2.4,4.3-5.1,6.2-7.9L645.5,1320.2z
				 M646.8,1327.4h11.6v-9.2h3v9.2h11.8v21.8h-11.8v14c3.3-0.5,6.4-1,9.2-1.6c-0.8-2.7-1.7-5.6-3-8.6l2.4-0.8
				c1.9,4.4,3.7,9.8,5.2,16.2l-2.9,0.8c-0.5-1.7-0.8-3.3-1.3-4.8c-6.5,1.4-15.4,2.7-26.5,3.5l-0.5-3c5.2-0.3,10-0.6,14-1.3v-14.3
				h-11.8v-21.9L646.8,1327.4L646.8,1327.4z M658.6,1346.3v-16.2h-8.9v16h8.9V1346.3z M670.3,1346.3v-16.2h-8.9v16h8.9V1346.3z"/>
		</g>
		<g enable-background="new    ">
			<path fill="#7791E5" d="M241.2,1438.4c-0.2,5.6-0.8,10.8-2.1,15.9l-2.5-0.6c1.3-4.9,1.9-10,2.2-15.4L241.2,1438.4z M244.8,1427.7
				h3v50.3h-3V1427.7z M252,1436.9c1.4,3.3,2.9,7.5,4.1,12.4l-2.5,0.6c-1.1-4.1-2.4-8.3-4-12.2L252,1436.9z M256.4,1436.3h10.5v-8.7
				h3v8.7h11.8v16.7h4.9v3h-16.2c3.7,8.3,9.4,14.8,17.3,19.5l-2.1,2.4c-7.9-5.4-13.8-12.2-17.3-20.6c-2.4,9.4-7.5,16-15.1,20.3
				l-1.9-2.4c7.5-4,12.2-10.3,14.3-19.4h-12.1v-3h12.7c0.5-2.7,0.6-5.6,0.6-8.6v-5.2h-10.5L256.4,1436.3L256.4,1436.3z
				 M269.9,1439.2v4.6c0,3-0.3,6.2-0.8,9.2h9.7v-13.8L269.9,1439.2L269.9,1439.2z"/>
			<path fill="#7791E5" d="M326.8,1457.4c5.7,7.6,10.2,14,13,19.4l-2.5,1.7c-0.8-1.6-1.7-3.2-3-5.2c-12.2,1.3-24.5,2.4-37,3.3
				l-0.5-2.5c4.9-2.7,9.8-9.2,15.1-19.9h-19.1v-3h23v-11.4h-19.7v-3h19.7v-9.2h3v9.2h19.5v3h-19.5v11.4h23v3h-26.7
				c-4.3,8.9-8.6,15.4-13,19.5c14.9-1.1,25.1-2.1,30.3-2.9c-2.4-3.7-5.1-7.6-8.4-11.9L326.8,1457.4z"/>
			<path fill="#7791E5" d="M368.2,1470.6c-5.7,2.1-12.1,3.8-19.2,5.2l-0.3-3c7.5-1.3,14-2.9,19.7-5.1v2.9H368.2z M361.4,1428.5
				c-3,7.6-6,13.5-9.1,17.9c3-0.3,6-0.8,9.1-1.3l3.5-6.5l2.7,1c-5.4,10-9.8,17-13.3,20.8c4.6-0.8,9.1-2.1,13.5-3.5v2.9
				c-6,1.9-11.6,3.3-17,4.1l-0.8-2.9c0.6-0.2,1-0.5,1.3-0.8c2.5-2.5,5.4-6.5,8.7-12.2c-3.3,0.6-6.8,1.1-10.3,1.4l-0.8-2.9
				c0.5-0.2,1-0.6,1.3-1.1c3.2-5.1,6-11.1,8.6-18.1L361.4,1428.5z M367.8,1434.9h13.7v-7.1h3v7.1h13.7v2.9h-13.7v9.2h12.1v2.9h-26.8
				v-2.9h11.9v-9.2H368v-2.9H367.8z M394.4,1456.3v21.8h-2.9v-3h-17v3h-3v-21.8H394.4z M374.6,1472.2h17v-13h-17V1472.2z"/>
			<path fill="#7791E5" d="M403.5,1444.9h11.3v25.4c1.9-1.7,4.1-3.7,6.4-6l0.8,3.2c-3.2,3.2-6.5,6-9.8,8.6l-1.1-2.7
				c0.6-0.6,1-1.3,1-1.9V1448h-8.4v-3.1H403.5z M409.7,1428.2c3.5,2.9,6.7,5.7,9.4,8.7l-2.1,2.1c-2.2-2.7-5.4-5.7-9.5-8.7
				L409.7,1428.2z M434.3,1461.6c-2.9,6.5-6.2,12.2-10,17l-2.5-1.9c3.8-4.6,7.1-10,10-16.4L434.3,1461.6z M425.6,1431.2h24.8v25.1
				h-24.8V1431.2z M447.3,1453.3v-19.2h-18.7v19.2H447.3z M444,1460.1c4.6,6.5,7.9,11.9,10.2,16.4l-2.5,1.9
				c-2.5-5.1-6-10.6-10.2-16.7L444,1460.1z"/>
			<path fill="#7791E5" d="M460.8,1430h47v2.9h-21.9v5.6h17.3v21.4h-17.9c-0.6,4-1.9,7.1-3.5,9.5c7.8,3.5,17.3,5.4,28.3,5.9
				l-0.8,2.9c-11.4-0.5-21.1-2.7-29.4-6.5c-3.8,3.3-10.2,5.6-19.2,6.7l-1.3-2.7c8.3-0.8,14.1-2.5,17.8-5.4c-3.5-1.9-6.7-4.1-9.7-6.7
				l2.4-1.6c2.9,2.4,5.9,4.4,9.2,6.2c1.6-2.2,2.7-4.9,3.3-8.3h-16.7v-21.4H483v-5.6h-22v-2.9H460.8z M468.6,1447.7h14.3v-6.7h-14.3
				V1447.7z M482.6,1457.1c0.2-1.9,0.3-3.3,0.3-4.3v-2.4h-14.3v6.8L482.6,1457.1L482.6,1457.1z M500.2,1457.1v-6.8h-14.3v2.4
				c0,1.9-0.2,3.3-0.2,4.3L500.2,1457.1L500.2,1457.1z M485.9,1441.1v6.7h14.5v-6.7H485.9z"/>
			<path fill="#7791E5" d="M537.1,1462.2c2.4,2.4,4.4,4.9,6.5,7.5c6.7-2.9,11.8-7,15.4-12.5h-17.2c-4.9,2.4-10.8,4.1-17.8,5.2
				l-1.7-2.7c12.1-1.3,21-4.9,27-11.3l2.5,1.4c-1.6,1.7-3.3,3.2-5.2,4.4h16.2v2.4c-7.8,13.2-22.6,20-44,20.5l-1.3-3
				c8.9-0.2,16.7-1.3,23-3.5c-2.1-2.7-4.1-5.2-6.4-7.3L537.1,1462.2z M542.8,1429c-1.3,1.6-2.7,2.9-4,3.8h16.7v2.4
				c-6,10.6-17.2,16.7-33.4,17.9l-1.3-2.9c5.4-0.3,10-1.1,14.1-2.5c-1.7-2.4-3.8-4.4-5.9-6.2l2.5-1.3c2.2,2.1,4.3,4.1,6,6.5
				c6.2-2.5,11-6.4,14.1-11.3h-17.2c-4.3,2.7-9.5,4.6-15.4,5.9l-1.7-2.7c10-2.1,17.5-5.7,22.4-11.1L542.8,1429z"/>
			<path fill="#7791E5" d="M589.8,1437.4v37.3h-2.9v-3.3h-11.3v4.9h-2.9v-38.9h4.9c1.1-3.2,1.9-6.5,2.5-10l3,0.3
				c-0.6,3.3-1.4,6.7-2.7,9.5h9.2v0.2H589.8z M575.7,1452.8H587v-12.4h-11.3V1452.8z M575.7,1468.7H587v-13.2h-11.3V1468.7z
				 M618.5,1437.6c0,17.8-0.3,28.9-0.8,33.4s-3.2,6.7-7.8,6.7l-5.4-0.2l-0.8-2.9c2.2,0.2,4.1,0.2,5.9,0.2c3,0,4.8-1.6,5.2-4.9
				c0.5-3,0.6-12.9,0.8-29.2h-16.4c-1.6,3.7-3.5,7-5.6,9.7l-1.7-2.4c4-5.6,6.7-12.4,8.1-20.5l3,0.3c-0.6,3.7-1.6,6.8-2.5,9.7h17.9
				L618.5,1437.6L618.5,1437.6z M599.2,1450.1c4.3,4.8,7.5,8.7,9.7,12.2l-2.4,1.7c-2.2-3.7-5.4-7.8-9.7-12.4L599.2,1450.1z"/>
			<path fill="#7791E5" d="M627.4,1439.2h22.2v-5.9c-6,0.3-11.9,0.5-17.6,0.5l-1-2.7c15.4,0,28.1-1.1,38-3.3l1.4,2.5
				c-5.1,1.3-11.1,2.1-17.9,2.7v6.2h22.1v2.9h-18.7c4.1,4.9,10.8,8.7,20,11.4l-1.3,2.7c-10.3-3.5-17.6-8.3-21.9-14.1l0,0v12.5h14.6
				v23.7h-3v-3.2h-26.4v3.2h-2.7v-23.7h14.6V1442h-0.3c-3.7,5.7-10.8,10.6-21.6,14.8l-1.6-2.5c10-3.5,16.8-7.6,20.3-12.2h-19.1
				L627.4,1439.2L627.4,1439.2L627.4,1439.2z M638.1,1463.5h26.4v-6.2h-26.4V1463.5z M638.1,1472.4h26.4v-6.2h-26.4V1472.4z"/>
			<path fill="#7791E5" d="M683.2,1435.5h15.7c0.5-3.2,0.8-5.9,1-7.9h3c-0.6,5.7-1,8.4-1,7.9H731v3h-29.5c-0.6,3.7-1.3,6.7-1.7,9.2
				h25.6v2.7c-2.2,6.4-6,11.8-11.1,16.4c4.8,3.8,10.6,6.7,17.6,8.6l-1.6,2.7c-7.3-2.2-13.5-5.2-18.4-9.4c-5.1,4-11.1,7.1-18.3,9.5
				l-1.4-2.9c7-2.2,12.9-5.2,17.6-8.7c-4.6-4.4-7.9-9.8-9.8-16h-0.8c-0.6,2.9-1.4,5.4-2.4,7.6c-2.9,7.1-7.1,13.7-13,19.5l-1.9-2.4
				c5.4-5.4,9.4-11.4,12.1-17.9c1.9-5.1,3.5-11.3,4.6-18.7h-15.2v-3.2H683.2z M702.6,1450.6c2.1,5.6,5.2,10.3,9.5,14.3
				c4.6-4,7.9-8.7,10.2-14.3H702.6z"/>
			<path fill="#7791E5" d="M753.9,1432.5v39.2h-3v-3.3h-8.3v4.6h-3v-40.5L753.9,1432.5L753.9,1432.5z M742.7,1465.5h8.3v-30.2h-8.3
				V1465.5z M784,1430.4v24.1h-21.9v16.2c0,2.4,1.1,3.7,3.5,3.7h14c1.6,0,2.5-0.8,3.3-2.2c0.5-1.1,0.8-4,1.1-8.3l2.9,1
				c-0.3,4-0.6,6.7-1.3,8.6c-1,2.5-2.7,3.8-5.2,4h-15.7c-3.7,0-5.4-1.9-5.4-5.7v-41.1H784V1430.4z M770.1,1433.3h-7.8v18.4h7.8
				V1433.3z M772.9,1451.7h8.3v-18.4h-8.3V1451.7z"/>
			<path fill="#7791E5" d="M806,1468.1c0.5,0.5,0.8,1.1,0.8,2.1c0,0.8-0.3,1.4-0.8,2.1c-0.6,0.5-1.3,0.8-2.1,0.8s-1.4-0.3-2.1-0.8
				c-0.6-0.5-0.8-1.3-0.8-1.9c0-0.8,0.3-1.6,0.8-2.1s1.1-0.8,2.1-0.8C804.8,1467.3,805.5,1467.6,806,1468.1z M802.1,1433.1h3.8
				l-0.6,29.4h-2.7L802.1,1433.1z"/>
		</g>
	</g>
	<g>
		<path id="圆角矩形_2_1_" fill="#B8C9FF" d="M647.1,530.9h4c2.5,0,4.6,2.1,4.6,4.6v43c0,2.5-2.1,4.6-4.6,4.6h-4
			c-2.5,0-4.6-2.1-4.6-4.6v-43C642.5,532.9,644.6,530.9,647.1,530.9z M627.4,550.4H671c2.5,0,4.6,2.1,4.6,4.6v4
			c0,2.5-2.1,4.6-4.6,4.6h-43.5c-2.5,0-4.6-2.1-4.6-4.6v-4C622.8,552.5,624.9,550.4,627.4,550.4z M540.4,441.4h4
			c2.5,0,4.6,2.1,4.6,4.6v43c0,2.5-2.1,4.6-4.6,4.6h-4c-2.5,0-4.6-2.1-4.6-4.6v-43C535.8,443.5,537.9,441.4,540.4,441.4z M520.5,461
			H564c2.5,0,4.6,2.1,4.6,4.6v3.8c0,2.5-2.1,4.6-4.6,4.6h-43.5c-2.5,0-4.6-2.1-4.6-4.6v-3.8C516.1,463,518.2,461,520.5,461z
			 M482.7,576.1h9.8c2.5,0,4.6,2.1,4.6,4.6v65.9c0,2.5-2.1,4.6-4.6,4.6h-9.8c-2.5,0-4.6-2.1-4.6-4.6v-65.9
			C478.3,578.2,480.4,576.1,482.7,576.1L482.7,576.1z M454.5,604.4H521c2.5,0,4.6,2.1,4.6,4.6v9.5c0,2.5-2.1,4.6-4.6,4.6h-66.5
			c-2.5,0-4.6-2.1-4.6-4.6V609C449.9,606.5,451.9,604.4,454.5,604.4z M875,549h6.8c2.5,0,4.6,2.1,4.6,4.6v55c0,2.5-2.1,4.6-4.6,4.6
			H875c-2.5,0-4.6-2.1-4.6-4.6v-55.1C870.4,550.9,872.5,549,875,549z M850.9,572.9h55c2.5,0,4.6,2.1,4.6,4.6v6.8
			c0,2.5-2.1,4.6-4.6,4.6h-55c-2.5,0-4.6-2.1-4.6-4.6v-6.8C846.5,575,848.4,572.9,850.9,572.9z"/>
		<g id="形状_2">
			<path fill="#B8C9FF" d="M425.6,483.8c6.8,0,12.4,5.6,12.4,12.4v0.2c-0.2,6.8-5.6,12.2-12.4,12.2s-12.4-5.6-12.4-12.4
				S418.7,483.8,425.6,483.8 M239.1,520.5c4.9,0,9.1,4,9.1,9.1c0,4.9-4,9.1-9.1,9.1c-4.9,0-9.1-4-9.1-9.1
				C230.2,524.5,234.2,520.5,239.1,520.5 M802.9,671.4c6.8,0,12.4,5.6,12.4,12.4s-5.6,12.4-12.4,12.4c-3.3,0-6.4-1.3-8.7-3.7
				c-2.4-2.4-3.7-5.4-3.7-8.7C790.5,677,796.1,671.4,802.9,671.4 M193.5,696.5c6.2,0,11.3,5.1,11.3,11.3s-5.1,11.3-11.3,11.3
				s-11.3-5.1-11.3-11.3c0-3,1.1-5.9,3.3-7.9C187.5,697.8,190.4,696.5,193.5,696.5L193.5,696.5L193.5,696.5 M425.6,471.1
				c-13.8,0-25.1,11.3-25.1,25.1s11.3,25.1,25.1,25.1l0,0c13.8,0,25.1-11.3,25.1-25.1l0,0l0,0C450.7,482.4,439.4,471.1,425.6,471.1
				L425.6,471.1z M239.1,507.8c-11.9,0-21.6,9.7-21.8,21.8c0,11.9,9.7,21.8,21.8,21.8l0,0c11.9,0,21.8-9.7,21.8-21.8
				S251.2,507.8,239.1,507.8L239.1,507.8z M802.9,658.7c-13.8,0-25.1,11.3-25.1,25.1s11.1,25.1,25.1,25.3c0,0,0,0,0.2,0
				c13.8,0,25.1-11.3,25.1-25.1l0,0C828,670,816.8,658.7,802.9,658.7L802.9,658.7z M193.5,683.8L193.5,683.8
				C193.4,683.8,193.4,683.8,193.5,683.8c-13.3,0-24.1,10.8-24,24.1c0,13.2,10.8,24,24,24l0,0c13.3,0,24-10.8,24-24.1l0,0
				C217.5,694.6,206.7,683.8,193.5,683.8L193.5,683.8z"/>
		</g>
		<path id="圆角矩形_3" fill="#B8C9FF" d="M331.9,562.9h0.8c2.5,0,4.6,2.1,4.6,4.6v15.9c0,2.5-2.1,4.6-4.6,4.6h-0.8
			c-2.5,0-4.6-2.1-4.6-4.6v-15.9C327.4,565,329.5,562.9,331.9,562.9z M363.9,581.2c1.4,2.4,0.6,5.4-1.7,6.8l-13,7.5
			c-2.4,1.4-5.4,0.5-6.8-1.9s-0.5-5.4,1.9-6.8l0,0l13-7.5C359.5,578,362.5,578.8,363.9,581.2L363.9,581.2z M363.9,617.9
			c-1.4,2.4-4.4,3.2-6.8,1.9l0,0l-13-7.5c-2.4-1.4-3.2-4.4-1.9-6.8c1.3-2.4,4.4-3.2,6.8-1.9l0,0l13,7.5
			C364.6,612.5,365.4,615.5,363.9,617.9z M332.3,636.3c-2.7,0-4.9-2.2-4.9-4.9l0,0v-15.1c0-2.7,2.2-4.9,4.9-4.9s4.9,2.2,4.9,4.9l0,0
			v15.1C337.3,634.1,335,636.3,332.3,636.3L332.3,636.3L332.3,636.3z M300.7,617.9c-1.4-2.4-0.6-5.4,1.7-6.8l0,0l13-7.5
			c2.4-1.3,5.4-0.5,6.8,1.9c1.3,2.4,0.5,5.4-1.7,6.7l-13,7.5C305.2,621.1,302.2,620.3,300.7,617.9L300.7,617.9z M300.7,581.2
			c1.4-2.4,4.4-3.2,6.8-1.9l0,0l13,7.5c2.4,1.4,3.2,4.4,1.7,6.8c-1.4,2.4-4.3,3.2-6.7,1.7l-13-7.5
			C300.1,586.6,299.3,583.6,300.7,581.2L300.7,581.2z M780.5,482.6h1.3c2.4,0,4.4,1.9,4.4,4.4v17.6c0,2.4-1.9,4.4-4.4,4.4h-1.3
			c-2.4,0-4.4-1.9-4.4-4.4l0,0V487C776.1,484.5,778.2,482.6,780.5,482.6L780.5,482.6z M813.7,502.1c1.4,2.5,0.6,5.7-1.9,7.3
			l-13.3,7.9c-2.4,1.4-5.4,0.6-6.8-1.7l-0.2-0.2c-1.4-2.5-0.6-5.7,1.9-7.3l13.3-7.9c2.4-1.4,5.4-0.6,6.8,1.7
			C813.6,502,813.6,502,813.7,502.1z M813.7,540.9c-1.3,2.4-4.3,3.3-6.8,2.1c0,0-0.2,0-0.2-0.2l-13.3-7.9c-2.4-1.6-3.3-4.8-1.9-7.3
			c1.3-2.4,4.3-3.3,6.8-2.1c0,0,0.2,0,0.2,0.2l13.3,7.9C814.2,535.1,815,538.3,813.7,540.9L813.7,540.9z M781.2,560.2
			c-2.9,0-5.1-2.4-5.1-5.2v-15.9c0-2.9,2.1-5.2,4.9-5.2c2.9-0.2,5.2,2.1,5.2,4.9c0,0.2,0,0.2,0,0.3V555
			C786.4,557.9,784,560.2,781.2,560.2L781.2,560.2z M748.8,540.9c-1.4-2.5-0.6-5.7,1.9-7.3l13.3-7.9c2.4-1.4,5.4-0.6,6.8,1.7
			c0,0,0,0.2,0.2,0.2c1.4,2.5,0.6,5.7-1.9,7.3l-13.3,7.9c-2.4,1.4-5.4,0.6-6.8-1.7C748.8,541,748.8,541,748.8,540.9L748.8,540.9z
			 M748.8,502.1c1.3-2.4,4.3-3.3,6.8-2.1c0,0,0.2,0,0.2,0.2l13.3,7.9c2.4,1.6,3.3,4.8,1.9,7.3c-1.3,2.4-4.3,3.3-6.8,2.1
			c0,0-0.2,0-0.2-0.2l-13.3-7.9C748.1,507.7,747.3,504.5,748.8,502.1z"/>
	</g>
</g>
</svg>
