<?xml version="1.0" encoding="utf-8"?>
<!-- Generator: Adobe Illustrator 18.0.0, SVG Export Plug-In . SVG Version: 6.00 Build 0)  -->
<!DOCTYPE svg PUBLIC "-//W3C//DTD SVG 1.1//EN" "http://www.w3.org/Graphics/SVG/1.1/DTD/svg11.dtd">
<svg version="1.1" id="图层_1" xmlns="http://www.w3.org/2000/svg" xmlns:xlink="http://www.w3.org/1999/xlink" x="0px" y="0px"
	 viewBox="0 420 1080 1080" enable-background="new 0 420 1080 1080" xml:space="preserve">
<metadata><?xpacket begin="﻿" id="W5M0MpCehiHzreSzNTczkc9d"?>
<x:xmpmeta xmlns:x="adobe:ns:meta/" x:xmptk="Adobe XMP Core 5.6-c011 79.156289, 2014/03/31-23:39:12        ">
   <rdf:RDF xmlns:rdf="http://www.w3.org/1999/02/22-rdf-syntax-ns#">
      <rdf:Description rdf:about=""
            xmlns:xmp="http://ns.adobe.com/xap/1.0/"
            xmlns:xmpGImg="http://ns.adobe.com/xap/1.0/g/img/"
            xmlns:xmpTPg="http://ns.adobe.com/xap/1.0/t/pg/"
            xmlns:stDim="http://ns.adobe.com/xap/1.0/sType/Dimensions#"
            xmlns:xmpG="http://ns.adobe.com/xap/1.0/g/"
            xmlns:dc="http://purl.org/dc/elements/1.1/">
         <xmp:CreatorTool>Adobe Illustrator CC 2014 (Windows)</xmp:CreatorTool>
         <xmp:CreateDate>2018-03-06T11:19:09+08:00</xmp:CreateDate>
         <xmp:Thumbnails>
            <rdf:Alt>
               <rdf:li rdf:parseType="Resource">
                  <xmpGImg:width>212</xmpGImg:width>
                  <xmpGImg:height>256</xmpGImg:height>
                  <xmpGImg:format>JPEG</xmpGImg:format>
                  <xmpGImg:image>/9j/4AAQSkZJRgABAgEASABIAAD/7QAsUGhvdG9zaG9wIDMuMAA4QklNA+0AAAAAABAASAAAAAEA&#xA;AQBIAAAAAQAB/+4ADkFkb2JlAGTAAAAAAf/bAIQABgQEBAUEBgUFBgkGBQYJCwgGBggLDAoKCwoK&#xA;DBAMDAwMDAwQDA4PEA8ODBMTFBQTExwbGxscHx8fHx8fHx8fHwEHBwcNDA0YEBAYGhURFRofHx8f&#xA;Hx8fHx8fHx8fHx8fHx8fHx8fHx8fHx8fHx8fHx8fHx8fHx8fHx8fHx8fHx8f/8AAEQgBAADUAwER&#xA;AAIRAQMRAf/EAaIAAAAHAQEBAQEAAAAAAAAAAAQFAwIGAQAHCAkKCwEAAgIDAQEBAQEAAAAAAAAA&#xA;AQACAwQFBgcICQoLEAACAQMDAgQCBgcDBAIGAnMBAgMRBAAFIRIxQVEGE2EicYEUMpGhBxWxQiPB&#xA;UtHhMxZi8CRygvElQzRTkqKyY3PCNUQnk6OzNhdUZHTD0uIIJoMJChgZhJRFRqS0VtNVKBry4/PE&#xA;1OT0ZXWFlaW1xdXl9WZ2hpamtsbW5vY3R1dnd4eXp7fH1+f3OEhYaHiImKi4yNjo+Ck5SVlpeYmZ&#xA;qbnJ2en5KjpKWmp6ipqqusra6voRAAICAQIDBQUEBQYECAMDbQEAAhEDBCESMUEFURNhIgZxgZEy&#xA;obHwFMHR4SNCFVJicvEzJDRDghaSUyWiY7LCB3PSNeJEgxdUkwgJChgZJjZFGidkdFU38qOzwygp&#xA;0+PzhJSktMTU5PRldYWVpbXF1eX1RlZmdoaWprbG1ub2R1dnd4eXp7fH1+f3OEhYaHiImKi4yNjo&#xA;+DlJWWl5iZmpucnZ6fkqOkpaanqKmqq6ytrq+v/aAAwDAQACEQMRAD8A9U4q7FXYq7FXYq7FXYq7&#xA;FXYqseaGMgSOqE9ORAr9+ERJ5ItfgS7FUJqWpQ2ESySqzBm4gL8q98uw4TkNBjOfCxy11yKHVbi8&#xA;ZXMUykBBStaild6bUzYT0xOMR6hxxkqRLKLO6S6to7hAVWQVAbY7GmazJAxlRcmJsWrZBLsVdirs&#xA;VdiqjJdwR3EVu7Ulmr6a+NMmMZIJ6BBkLpWyCXYq7FXYq7FXYq7FXYq7FXYq7FXYq7FXYqtlcpG7&#xA;gVKqSB8hhiLKljGlabHq4nubuZzNypRSNtqg7g7eAzZ58xxVGI2caEOLcozyxPL/AKTas/qRwMPT&#xA;b2JI29tsp1sRtLvZ4jzCe5gtziARQio8DiqV2mkyRavc3b8DDKtEXvUkHp9GZU84OMR6hrEKkSmg&#xA;AAoOmYrY7FXYq7FXYqhdSXUDbg2LKJlYEq1PiXw3y3DwX6+TGd1shUtbq6ltb+4T0ZoFcNB15Hel&#xA;DXauWmcYgwG4PVjRNEr9NfWJZ3lvFWGAikcApWteteuRzDGBUdz3rHiPNMcx2x2KuxV2KuxV2Kux&#xA;V2KscujealrEtktwbeGEVAFd6U7Aip3zYw4ceMSqyWg3KVIjy9d3LTXNnPJ63oH4JK16Eg7+Hhle&#xA;rxxoSAq04pHcFO8wm52KuxV2KpHceV1MzSWtwYFf7SUrseoFCNvbM6Gt2qQtpOHuTHTdNgsIDHFV&#xA;mY1dz1JzGzZjkNlshARReVMnYq7FXYq7FVKe6t7cKZpBHzPFa9yclGBlyCCQFXIpdiqF1KC9mtxH&#xA;aSiFyw5ua1496U75bhlGJuQtjIEjZBK8tlcWemhzKkwf1ZWJ5V36b7ZcQJiU+VMORAVtNsL6zmdX&#xA;ufWtCPgVq8w1f8++QzZYzGwqSYxI67JjmO2OxV2KuxV2KuxV2KuxVK9S0C3vZvXDtDMdmZdwabbj&#xA;MrDqjAVzDXLGDuiNN0u3sIikVWZ93dupp0yvNmOQ7phARRmUs1iTwvI8aOGkjpzUHcV6VyRiQLRa&#xA;/IpdirsVS7WNYGnCL916pl5UHLiAFp7HxzI0+n8S96prnPhR1vMJoI5lFBIquAeoDCuUyjRI7mYN&#xA;hfkUuxV2KtOWCMVXkwBKrWlT4VwjmrENYvdSn9D61bejwYmPYip28c22nxwjfCbcWcieYT/S73Ur&#xA;h5Bd2voKoBVqEVPhQ5gZ8cIj0m26EieYTHMdsdiq1oomkWRkBdK8GI3FetDhEjVIpdgS7FUpsdYn&#xA;uNWuLN0URxFwjCvL4GpvvmXl04jjEu9qjMmVJtmI2uxV2KuxV2KuxV2KuxVAajPqsEqSWsKz29KS&#xA;Rj7da9RmRijjkKkaLCRkOSgbe5spLy+ijM73HAxwgGoPfl8snxxmIxJqurGiLKN083zW4a9CrMST&#xA;xTsOwO53yjLw36eTON1uicrZIDWr+axsxNCgdi4U8qkAEHc0p4Zfp8QnKiwySoMV1LVrnUPT9ZUX&#xA;0uXHgCPtUrWpPhm1w4I47rq405mSLtvM1/DHFCsUbJGFQCjciFFP5uv0ZTPRwJJsshlIZcpqoNKV&#xA;HTNSXKdirsVdiqC1LS47/wBHm5T0m5bU3B6j8Muw5jC66sJwtG5SzdirsVdirsVSnWLHVridHs7g&#xA;xRhaMgdk+Kp32zL0+XHEeoW1TjInZj1paajJqMsMMpS6Qv6knNhWjUb4huanNhkyQEASPS0xib82&#xA;U6RbX1vbMl5L6shYlTUtQU6VOavPOMpekU5EAQN0dlDN2KuxV2KuxV2KuxVAajY311NGsdz6FsB+&#xA;8CVDlq+IzIxZIxG4uTCUSeqH9Sa/lvbD1DCLcp6UqE8v9lvv0ydDGIzq7Y3xWEdp8V5FbhLuQSyg&#xA;mjjuvavTfKMsok3EUGcQQN0TlbJ2KpD5qtbmcWxhiaUJzDcAWIrxpsPlmfopxjdmmnMCaTewRksb&#xA;ZHHF1iRWU9QQoBGYmU3InzbI8gr5WydirsVdiriaAk9t8VYvbLqmrtPcJdGARmkcYYgDuBtSnzza&#xA;TMMNAi3GHFLe0z8u6hNeWbeseUkTcefiKVFffMXV4hCW3VtxSsJrmK2OxV2KuxVA22kW1vfS3iMx&#xA;klrVSRQcjU0y+eeUoiPcwEADaOyhm7FXYq7FXYq7FXYq7FXYq0ERWZlUBnpyYDc06Vw2VbwK7FXY&#xA;q7FXYq7FXYq7FXYq7FUiuPLLes7WlyYI5ftx79D22IqPbM6Os29QshpOLuKZ6dp8NjbCGMlt+Tue&#xA;pJ75jZspnKy2RjQRWVMnYqhn1PT0l9J7iNZK0ILDY++WjDMi6LHjCJBBFRuD0OVMnYq7FXYq7FXY&#xA;qtmmjhiaWVgsaCrMewwxiSaCCaSlPNOmtLwKyKhNPUIFPnQGuZZ0U6vZr8YJwrKyhlNVIqCOhBzD&#xA;IbXYq7FXYq7FXYq7FXYq7FXYq7FXYq7FXYq7FXYq7FUJq0ksWm3DxVDhDQjqOxP0DLcABmAWMzsk&#xA;NlpmlS6M1xLJScBiz8qcWFaDjmfkzZBkoDZojCJjaZeV5ZZNNIepWNysZP8ALQGn0VzG1sQJ7NmE&#xA;7JvmI2uxV2KuxV2Kpb5ihml0uQRAkqQzKOpUHf8ArmTpJATFteUWEjuNS06TR47SKD/SaKK8RswI&#xA;q1evxZmwwzGQyJ2aTMcNMk0uKWHTreOXaRUHIHt7fRmuzyBmSHIgKCKypk7FXYq7FXYq7FXYq7FX&#xA;Yq7FXYq7FXYq7FXYq7FXMqspVhVSKEHoQcQVSaTyrp7S81eREJqYwRT6CRXMwa6YHRq8EJrb28Nv&#xA;CsMK8Y0FAMxZzMjZbAKVMil2KuxV2KuxV2KqK2dmsnqrBGsnXmEUNX50yZySIqzSOEK2QS7FXYq7&#xA;FXYqk3mvzdoflfTDf6rNwQ1EMCUMsrD9mNaiv6h3y7DglkNRYymIjd4bqv5r/mL5x1E6d5Zhls4W&#xA;rwt7IFp+NftST0qvzXiM3ENFixC57+/9TinLKRoL4/yU/M++T6zfajBBM32hdXcryb+LRrKv/DY/&#xA;n8I2APwC+DLqpTaJ+cnkwC5s7+S6tYt2FrP9bioPG3k+Knvw2yQlgy7EUfMV9qPVHq9A/LX85rPz&#xA;JNHpWsIllrLbQupIhnPgvIkq/wDkk79vDMDV6A4/VHeLdjzcWx5or8yfze03yry0+xRb7XCKmEk+&#xA;lBUVBlI3J/yBv8tqw0mhOTc7RTkyiO3V5rb6Z+dHn1RdvPPDp0vxRtJJ9Utip6cY0oXH+VxPzzYm&#xA;enw7dfmWmpzauPyh8/aaTLDrdibhOiQ30kcnjsZEiH45KOrhP+GVf1WJgR1HzW6Z+aH5k+TrxLXX&#xA;A9/a1p6N2wcsB1MV0vLl86sPbBk0WLILj6T+OiY5pDze4+TvO+hebNO+t6ZL+8SgubSSgmiY/wAy&#xA;gnY9mGxzTZ9PLEak5UJiQ2T/AChm7FXYq7FXYq7FXYq7FXYq7FXYq7FXYq7FXYq7FVG9vLays57y&#xA;6cR21tG000h6KiAsx+gDDGJJoIJp8yu+u/mt5/4BjDbtUoG3W1s0PWg6tv8ASx7Dp0Xp02L8blwt&#xA;8knu+maVoflDTl0rRLdUegM0zbyO388jdWY/cPlmqAlmPFM7N0pCGwQ81xNM3KVy7e5/VmVGIHJx&#xA;zInmp5JDzn8wPy3kvJRq/l+MR6iG5XFuhEfM9fUQ7AOD18evXrk4s1bS5IRX5aflVNJdy+Z/Oieq&#xA;Q5khtJ2ErSSk1aWfdq79FPU9ffG1eqr93j/Hub8cB9UnpN9qk9yxVSY4RssY2298oxYBH3sZ5DJL&#xA;5YYpRSRQw98yBIjk1EJBr2g2lzbPb3MYntJdirdVPYg9j4HMvFk4ve1kU8qWbWPy883Q31i5eHql&#xA;fszQEjnFJT/Pocsy4hljwlsxzo2H1DpOp2mq6Za6laNytryJJoievFxWhHYjoc5ecDEkHmHYg2LR&#xA;eRS7FXYq7FXYq7FXYq7FXYq7FXYq7FXYq7FXYqwT87b+Wz/LrUBESrXLQ25YdleQFvvVSPpzN7Pj&#xA;eUeTVmPpYx/zjrpkMHl/VtZZP3s0/wBXDEb+nBGHNPYtL+GZPaciZxj+N2vAKBLL5JHkkaRzVmJJ&#xA;PucmBQpoJtAatrWl6RaG71K4W2grxDNUkk9lVQWY/IZKMSTQQhtC816Drok/Rl0Jni3kiIZHAPfi&#xA;wBp7jJTxmPNU2yCt1NKV260wKxub8xPJsN+bJ9SQTA8WYK5jDeBkA4fjTLRhlV0i2RKysoZSGVhV&#xA;WG4IPcZWlbPEJYnjP7Qp9PbDE0bQQ8x/MyySby79YI/eWsqMG/yXPAj7yM2UWqLPfyA1GS68heg7&#xA;V+o3c0CDuEYLN+uU5ou0o1lvvDscB9L0nNe3OxV2KuxV2KuxV2KuxV2KuxV2KuxV2KuxV2KsB/PG&#xA;zlufy6vmj3+rSQTMB/KJAp+7lXM3s+VZQ1Zx6Ug/5x5vkuPKWq6YGrPBdGSngk8Squ3+tE2ZHaQr&#xA;JGX42a8G8SGUkEEg7EbEZa47zL837S4F3o+ozQPc6RbORdxKSAKupIJH2eajjXMrTnmOqClvkoWu&#xA;qfmIup6BYPZaPbxt9YU7LVomUVAJUFnIPEHtXJZdoUTur17MNKE1aC5n0q8gtW4XUsEqQP0pIyEK&#xA;foOGJ3V4Gk+jW/l660a60mX/ABIZwIrgihQAj4SK8q0qOPHetc2NEyu/Sxe3+T7O9s/LGm219X61&#xA;FAokVuq91Q+6rRcwMhBkaZJrNIIomkPRRXIxFmkEvM/zLvUh8ttAT8d1KiAeynmT/wAKM2UWqPNm&#xA;/wDzj3YPb+Rpbh1p9dvZZIz4oipF/wASRs0facryV3B2GnHpem5rm92KuxV2KuxV2KuxV2KuxV2K&#xA;uxV2KuxV2KuxVDanp1rqWnXOn3S87a7ieGZf8l1KmnvvkoSMSCOiCLFPm7yrqd9+WX5iTWeqA/Uy&#xA;fq16QDR4GIMc6DvTZvGlR1zf5oDUYrjz/GzhxPBLd7xqtrE6pqFoyy2twA4dCGUhhVXBGxDV65rt&#xA;Pk/hPMM80OoSsgMCCKg7EHpTMpoWxQwwoEhRY0HRUAUfcMbVfirsVUzbwGUTGNTMBQScRyA8K9cb&#xA;VUxVKdWvU3j5BY4/ikcmg29/AZlYYVu1zLxnWbu/86earbTdLQyKz+hZLvQ1Pxyt4Dap8FGZE5iE&#xA;TIsoRvZ9Q+XtFtdD0Sy0m1/ubOJYg1KFiPtOfdmqxzl8uQzkZHq7KMaFJhlaXYq7FXYq7FXYq7FX&#xA;Yq7FXYq7FXYq7FXYq7FXYqwD83Py5XzVpIu7FANcsVJtj09aPqYWP4pXofmcztFqvDlR+ktWXHxD&#xA;zef/AJQfmb+iJP8ACnmNvT08s0drPNVTbyE0MMleiFvH7J9umdrdJxfvIc2nFkr0l6vqentaS1Xe&#xA;B90bw9jmNhy8Y82OTHwnyeb/AJrL5jhsbLU9JuJoobF2a6SFiOvHg7AfaVaEGvjmfp+G6LUUToH5&#xA;oeWr3TYpb+7SyvlUC4gcMByHUoaGqntvXIzwSB2W2KeaPNt75s1/T9J8sSzRxRvX6wnKPk5IrIQK&#xA;EJGorvl2PGIAmSvXcw0oHUL70wYoz+8P2m8P7cvxYr3LCUmHzyab5qe88q6dqkUGrzxsIeYfg7xk&#xA;O0fNVI3VTWnbLs2Xw48RFhcePiLMfyr/ACsTyhHLe38kdzrNwvAvHUpDH1KIWAJLH7Rp7fPTazWe&#xA;LsPpc7Fi4fe9CzBbnYq7FXYq7FXYq7FXYq7FXYq7FXYq7FXYq7FXYq7FXYq8i/OT8qP0okvmPQ4v&#xA;9yMa8r6zQf36j/diAf7sA6j9r59dpodZw+iXLp5OPmxXuEm/KX82IhFD5W8zSA25Ai0++kNONNlh&#xA;lJ7fyN26H2u1mjIPiQ59WGPJfpk9M1PTGtWKsOcD1CsRUEH9lspw5hMebHJj4WEX/wCV3k28nMxs&#xA;zAzbssDsiE/6m6j6BmYM8g1UnOieWtD0SJo9MtFg5/3j7s7U/mdiW+jK5TMuaVe/vhCvBDWU/gMs&#xA;xY73PJhKVPLfPfnYW4k0vTZCbptrm4U/3fiin+bxPb59M2MWIDLvyT/K+ayaHzVrKFLlkLaZanYo&#xA;sikGWQeLK3wjt160pqO0NZfojy6ubhxVuXsualyXYq7FXYq7FXYq7FXYq7FXYq7FXYq7FXYq7FXY&#xA;q7FXYq7FXYq8a/N78ofrnreYvLsP+l7yahp8Y/ve5liA/b/mX9rqN+u20Our0T5dC42XF1CX/lN+&#xA;bMZji8seZ5eUDUisL+U/Z7LFKx7fyt26H2s1mjIPiY+fUMceS/TJ6ZqOnSWcn80LfYf+B98pw5hM&#xA;ebHJj4UpvbxYEou8rfZHh7nMrHj4vc0ylTy3z156NsZNN02TleNUXNyD/d+Kqf5/E9vn0z4xYAJ/&#xA;+UP5QmUw+ZPMkNUNJNP0+Qfa7iaYHt3VT16n31eu138EPiXMxYupe5ZpnKdirsVdirsVdirsVdir&#xA;sVdirsVdirsVdirsVdirsVdirsVdirsVdirxz82/ydN+03mDy5CBemsl9p6Cnq9zJEB/uzxX9rtv&#xA;12ui13D6J8uhcbLhvcJX+Vn5uQxQL5b82TUtlHCz1CY/YC9Ipiew/Zbt0Ptbq9Gb48fPuY48gqpJ&#xA;T+Ynn6yiuprDy7eC7V6+pqCgjiD+xGSBU/5Q28PbO09mI4hRceUADztPfyk/J52eLzD5mgoBSSw0&#xA;6UbseolmU/8ACofpzX63XfwQ+JcnFh6l7hmncp2KuxV2KuxV2KuxV2KuxV2KuxV2KuxV2KuxV2Ku&#xA;xV2KuxV2KuxV2KuxV2KvNfPn5JaP5kv21Owuf0XfymtzSMSRSt/OUBQq57kHfwrvmw03aEsYoiw0&#xA;zwiW6h5K/IjSNC1FNS1S6/StzA3K2h9P04UYdGZSzlyOo7DJajtGUxURwohgANl6jmtb3Yq7FXYq&#xA;7FXYq7FXYq7FXYq7FXYq7FXYq7FXYq7FXYq7FXYq7FXYq7FXYq7FXYq7FXYq7FXYq7FXYq7FXYq7&#xA;FXYq7FXYq7FXYq7FXYq7FXYq7FXYq7FXYq7FVpkjHVgPpw0Vtr14f9+L94w8J7kW19Yg/wB+L9+P&#xA;Ae5bDvrMH+/B9+PAVsO+swf78H348BWw76xB/vxfvx4D3LYb9eH/AH4v3jHhPcttiSM9GB+kYKKb&#xA;XYFdirsVdirsVdirsVdirsVdirsVdirsVdirsVdirsVQ88E7mqSkD+Xp+rLIyA6MSEM1jceIb6f6&#xA;5YMgRwlabO5H7H4jJeJFHCVv1W4/kOPGFotfV5/99t92HjHetF31ef8A3233Y8Y71ou+rz/77b7s&#xA;eMd60XfV5/8AfbfdjxjvWi39VuP5Dg4wtFcLO5P7H4jHxIrwlctjcey/T/TInIF4SiIbedGBaU0H&#xA;Vev68rlMHoyAKJytk7FXYq7FXYq7FXYq7FXYq7FXYq7FXYq7FXYq7FXYq7FXYq7FXYq7FXYq7FXY&#xA;q7FXYq7FXYq7FXYq7FXYq7FXYq7FXYq7FXYq7FXYq7FXYq7FXYq7FXYq7FXYq7FXYq7FXYq7FXYq&#xA;7FXYq7FXYq7FXYq7FXYq7FXYq7FXYq7FXYq7FXYq7FXYq7FXYq7FXYq7FXYq7FXYq7FXYq7FXYq7&#xA;FXYq7FXYq7FXYq7FXYq7FXYq7FXYq7FXYq7FXYq7FXYq7FXYq7FXYq7FXYq7FXYq7FXYq7FXYq7F&#xA;VrSxKaM6qdtiQD8Rov3nphAK2uwK1yUMFqORBIXuQKVP440reKtcl5cajkBUr3oe+NK4ugYKWAZq&#xA;8VJ3NOtMNK5XRq8WDUNDQ1oR2wUriyggEgFjRQe5pXbGlbxVrmnPhyHOleNd6eNMaVvFXYq7FWua&#xA;8uFRzpXjXenjTGlczKoqxCioFTtuTQD6TjSt4q7FXYq7FXEgUBNK7D374q0HViwBBKmjAHoaV3+g&#xA;40reKuxVpXR15IwZT0INRiQreKtcl5cajkRUL3oO+NK3irDYo59Q1AzairWwmvREIo3ImBihD28d&#xA;VpQIHeRyD9r2zZEiEajvUfhudz9wHk443O/eitBliubK4mu7qSOCa0tjLHPKzCNpo/UaRWlLbNzC&#xA;j/VyGcGMgIjcSPIdx8vxuygbG/cxFbrTWCXMs0kcsa+m6epG3EuVJXaL4twNxmwMJcgPv/W0WObK&#xA;nuILfyzZ3qtK9rCnO++r3BEkbSKGNTFxD8HND4DfMARJymO1nlY/W3XUQUPJb61btCDdSfpS8tfS&#xA;tvTkT4/qsQbk5kVqkyysSAemTEoG9vQJb/E/qCKI96vq11eRa76iTTma1e0t4EWNDAUupYxMJHMb&#xA;cS9NjyHtkcUInHVCjxHz2Bqt0yJ4vkqaabm2e1Vb+ZpXvXi1GzdIVRZJVkmfj+79XiW3Q8z8ORyV&#xA;K/SPp2O/kO+vfsmO3Xq7U7aSLUVTU9XuYrRALqxuONqvGWHkZFLeh1Cbj+ZeQ3xxSuPoiL5Eerke&#xA;XX8bLIb7n7kfpdrq8+lNJdXspmulYpHPHFSJGYlKiJYW5+nQN8XXKssoCdACh3Xv876sogkblhsS&#xA;6pNbC7SO4ImAmSYQ3BYRtSTgrhiOBp4/TmyJgDW23mHHFkWz7Q+Z0m1d35mSNZAQCtA45AULOdq+&#xA;OajP9ZcqHJHZUyYf5ulL3v1dCzSyLxXnas8SqoDNRwCzn4hso6ncjNlpB6b/AEuPl5obyi7W95Bb&#xA;vHwmMSl5IrLhyUqBSVyokBDbFjVT45PVi4k9L/nfd0Ri2P7Efrd9rXG5t+MF0bRrOYLCroxlN3G0&#xA;cRLOwqVQ/ePHKsEIbHcXxD4cJ3ZTJ+77060W5uby2N/LIpiuqPbwJQiKOmwZqVLn9rwO3apxc0RE&#xA;8I6c/P8AZ3NkCTumGUs0o8zywfo02ruFkuGX00KyOG9N1dlIjV2oVFOmZGlB4r7vx1a8nKkht7jT&#xA;IL6zvDHa2sNtyuJpbZbh2MTRSxgN+5UKORr8R/ZzLlGZiY+ok7b13g97WCAQVbWGmfzLIkEyRzRL&#xA;E8aMH5u/oXCcYyu1eM1R75HCAMW423++P6kz+r8eaC8pS3surq6yzNEZS04pc8WpbcGdjI7If3q8&#xA;dxWo222y3ViIhyHLy7/IdzHETbPM1LkoTVhenT5hZHjcFaKwFWAJ+IoCQC3GvGppXrlmLh4hxcmM&#xA;rrZhzWN/Y2xNLuC0hHf61RUHiE1ID7l+jNkMkZH+Ek/1f+qbRwkDr9v/ABSZeaIHhsY4fWlrb6fe&#xA;yh1llBMsUaFWJLs5oTtyY5RpZXK6G8o9B+pnkG3wKDvL/j5sigaLUhPJFKEiWW33JdXAVvV4qtF+&#xA;yxB6bZbDH+5JuFWOh/UxMvV1ZrU8a8TWleO1fl1pmrchKjo88dzPeQOjXTSvJbrJy9NRIkaMWC7l&#xA;qR7fPMjxgQInlW/2/rYcPVfZaFDa28KK5aWKzjsmegCusQ+Biu+4JNN++CecyJ/rX81EK+SVw+VN&#xA;SSFEe+id1UBmKXhJIG5JF4v6hl8tXG/pP+x/4hgMZ7/v/WmcWicrHT7W7l9VLVENylNp5Y1UB3J3&#xA;I5DlTuaVyk5/VIgc+XkGfBsAUMvldeJYzlLiCiaY6A0tkRqoFDMxbl+3U7j4dhk/zXlsfq8/x0+b&#xA;Hw/2K02gzT3DXEl4yGSS1lkgjRfTLWrq/VgX+IrtRhT3yIzgCgP532pML6qtzptxPqlvccoktoG9&#xA;VgqH1pHVGRAz1pxX1CemRjkAgRvZ+STGyozaDLqI/wBzM/rxqax2sHKGJW7MTUuzDsa0Hhko5xD6&#xA;BXmdygwvmrw6fqSxyW0t+0kBA9GcKq3K0INGahRtu/AHISyRuxHf7P1/akRPelR8i2BvFmEzekI2&#xA;Qr6dvXkWUg/3XHoD2zI/PS4ar7/1sPBFps+mTrp621veSpNEQ0EzcdivRWVAisnYrT8aZjjKOKyB&#xA;X4+1s4duaPXlxHKnKnxU6V70ykskq1vQ31Ke1kWVIxbiQEOjPUyceytH/L45kYM/ACK5sJwtT0jy&#xA;/Lp9/JctMjrJEIgERkIIblX4nkyWbUCcarr+O5EYUbVf0NJEkNvbuv1czJcXc0tWnkkR1k5VFFqx&#xA;QA+A6DI+MDZPOqHcngV4dIt4Z7qSF5Io7wEzQI3FPUbrIlPiRz34n365A5iQAen4pIirWEN1DbLF&#xA;czfWJEJAmpxLLX4eQG3KnWmRyEE2BSYg9VDUtOubm4tZ7e5+rPbl/i4B6h1pShNMnjyCIIIu0Sja&#xA;UnypfiyurZNQCC6tvq0v7oHl/eVbc7f3vbMj81HiB4eRvn7v1NfhmqtHT6D9ZuJJZ5KrJdLOVXkp&#xA;9JYDCEDAgg1JauVRz8Iod1fbbIwtbaeWLC11EXMIZIo4o44ohLKeLIzHu1CtCPh6Yz1UpRo9/cFG&#xA;MA2j7W1uYLictcGW2lPOKN92jYklwG/k6cR2+VMqlIEDbdkBSKytkoX9ot5Y3FozFFuIniLjqA6l&#xA;aj5VyeOfDIHuRIWKSm58syX9qseo3sjzlbhJJISYxS4oOIBLfCoX7JqDmRHU8BuI225+TWcdjcr5&#xA;PLFu8yM8jN+7n9Wc0ExmleF0lDAAAp6A47bbDANUQPl7qF7fG0+GnHBvS4czz409Sg5VpTlSnGv0&#xA;ZjXu2LsCuxV2KuxV2KuxV2KuxV2KuxV2KuxV2KuxV2KuxV2KuxV2KuxV2KuxV2KuxV2KuxV2KuxV&#xA;2KuxV2KuxV2KuxVjs3muQi6+rWryPFBG6xFGJjlLzpKJyvIKsfodtz2rtmaNJys9fs2qvfbUcnci&#xA;dJ8w/W4bie5SKG0tgvK9SXnAzEfEFYqn2dq9fDrleXT8JAFknpW6YztDN5sBJu4kjbSkPFiWpcsO&#xA;8qRdeC+B+I9R2rZ+U/hP1/Z7r/AR4vXomNxrduliL+2je+tOLO8sDwhUVRUljLJFlEcBMuE+k+d/&#xA;oBZGe1jdC2Ov6jLCnraTcevIplWNGtVPpMx4Eq9wH+zQNUDfwyzJgiDtIV/nf8SgTPd9360Xdajd&#xA;WrPLNak2Sxep6qMgZCPtLIHZV71BDU6/TXHGJbA+q2RkQh7DXria7Fpc2E0Uspd4WAjK+grAK7Uk&#xA;an2gP1ZPJgAFiQP6/kxjPeiEvu/N9zDNKqx2/GO5NsFd5Q+0np8zxjZffY5dDSAgc+V9P1sTlR+n&#xA;a5NeWt85+rxy2zCOOQu/oszIGXkXVGG7UO2U5MAiRz3+bKM7BRUV3qs0EUsdnEpdauks5BDVIPEp&#xA;HKrL3Br9GQMIAkEn5ftDKz3Kaarcy6R9dS3Hqh2RoV5y/YkMZ48E5N0r9nCcQE+G9vl0tHFtaGtN&#xA;fvZNQtrWa1MaXBdebJNHTihf/diKD9nJzwRESQeXuQJm6TzMVsdirsVdirsVdirsVdirsVdirsVd&#xA;irsVdirsVYdqGnahd3epNdlfVS3s7g2sIiKBFkuax8p45Fc0qalRU+AzZY8kYiNd8he/dHfYuPKJ&#xA;JN+X6UZotpFPDqjC/e5sfWUWzulu8Q9OCE+ogSMJVHBXb4dulanK88yDH01Kt+d8ztz6/NlAc99k&#xA;qW4M9pPeR3BuJDITbWyWkLSvGCAS1IWo7/EVBp2r3y8xoiJFd54jX3sLsX+hM9Sgjl0azuluy9o9&#xA;1bS3P7tI/XMt1Ep9YKF+ypIK069emUYpETIrejXlUTyZyGwP45oY3WmHWjJ+nZRGbenrB4uvqV4V&#xA;9OnvlnDPw/oHPz/WixfNF6nf6dZ6u19DZeu/1dorueONQpMxiMSyykdOCE79BTxGV4scpQ4Sa32+&#xA;F3QTKQBukJoEtvZajGYbq2nF8fSe0ickWygs6LCXPxJVjyFBuagU2yzODKO4I4evf7/NENj70Jqs&#xA;1s7crdiFe7SZlS6ugN5QzNwEPFfGo6ZZiB6/zf5se73sZEfb5p7oRsZVu42VZeZWWXlLNcliBxqf&#xA;WjToFFKVzEz8Qr9QH3FshSV2slhKulPrNsbe0jsmhi+tCgZ09H4qb8a/FQNvTfL5CQ4uA2eLp8WA&#xA;ra+5WvxYXemRx2unqwhnf9GxtbpLC6KAXZ/VULHGxY1bkDtUV6ZHHxRnZlzG++/2cymVEbBKbHTL&#xA;aSVryaytDpYuWZrvT4BJsoSiLSv7nlUM6Keh2XrmRPKQOEGXHXKR/G/kftYCPWhXk9BWnEcdlpt8&#xA;s05cpvFXYq7FXYq7FXYq7FX/2Q==</xmpGImg:image>
               </rdf:li>
            </rdf:Alt>
         </xmp:Thumbnails>
         <xmpTPg:MaxPageSize rdf:parseType="Resource">
            <stDim:w>1080.000000</stDim:w>
            <stDim:h>1080.000000</stDim:h>
            <stDim:unit>Pixels</stDim:unit>
         </xmpTPg:MaxPageSize>
         <xmpTPg:NPages>1</xmpTPg:NPages>
         <xmpTPg:HasVisibleTransparency>False</xmpTPg:HasVisibleTransparency>
         <xmpTPg:HasVisibleOverprint>False</xmpTPg:HasVisibleOverprint>
         <xmpTPg:PlateNames>
            <rdf:Seq>
               <rdf:li>Cyan</rdf:li>
               <rdf:li>Magenta</rdf:li>
               <rdf:li>Yellow</rdf:li>
            </rdf:Seq>
         </xmpTPg:PlateNames>
         <xmpTPg:SwatchGroups>
            <rdf:Seq>
               <rdf:li rdf:parseType="Resource">
                  <xmpG:groupName>默认色板组</xmpG:groupName>
                  <xmpG:groupType>0</xmpG:groupType>
               </rdf:li>
            </rdf:Seq>
         </xmpTPg:SwatchGroups>
         <dc:format>image/svg+xml</dc:format>
      </rdf:Description>
   </rdf:RDF>
</x:xmpmeta>
                                                                                                    
                                                                                                    
                                                                                                    
                                                                                                    
                                                                                                    
                                                                                                    
                                                                                                    
                                                                                                    
                                                                                                    
                                                                                                    
                                                                                                    
                                                                                                    
                                                                                                    
                                                                                                    
                                                                                                    
                                                                                                    
                                                                                                    
                                                                                                    
                                                                                                    
                                                                                                    
                           
<?xpacket end="w"?>
	</metadata>
<g>
	<path id="椭圆_1" fill="#E5EBFF" d="M540,1114.1c102.4,0,185.5,7.1,185.5,15.9c0,8.7-83.1,15.9-185.5,15.9s-185.5-7.1-185.5-15.9
		S437.6,1114.1,540,1114.1z"/>
	<g>
		<path id="形状_6" fill="#C2DAFF" d="M694.5,838.5c-0.8-40-29.4-72.3-70-72.3c-48,0-57.3,37.3-68.3,37.3s-20.3-37.3-68.3-37.3
			c-41.1,0-79.1,28.3-79.3,68.9v0.3c0,0.3,0,0.6,0,1c0,2.2,0.2,4.4,0.3,6.5c0,0,0,0,0,0.2c2.2,26.7,25.9,48,47.3,75.1l90.1,90.7
			c8.6,8.6,12.5,1.3,21.1-7.3l83.7-85.6c18.9-18.6,31.8-38.8,38.3-59.2c3.2-8.3,4.9-17.2,4.9-26C694.5,830.3,694.5,839,694.5,838.5z
			"/>
		<path id="形状_6_拷贝" fill="#9EBEFF" d="M687.4,861.4c-6.5,20.5-19.5,40.7-38.3,59.2l-83.7,85.6c-8.6,8.6-10.3,8.9-18.9,0.5
			l-5.7-5.7l74-80.2c18.9-18.6,35.3-38.8,45.3-59.2c3.2-8.1,7.1-16.8,7.1-26c0-0.5,0-1,0-1.4c-0.6-34.3-24.3-59.2-57.3-66.5
			c5.2-1.1,4.9-0.6,11.3-1.6c52.3-8.4,71.3,54.2,71.3,64.5C692.3,838.8,690.4,853.3,687.4,861.4z"/>
		<path id="形状_5_拷贝_2" fill="#4156A3" d="M491.4,911.6c2.5,4.9,5.9,9.4,9.8,13.2c15.6,16.5,41.8,17.3,58.3,1.7
			c0.3-0.2,0.5-0.5,0.8-0.6c5.1-4.6,8.7-10.5,10.3-17.2c0.6-2.2,0.3-4.8-1.1-6.7c-1.1-1.6-2.9-2.9-4.8-3.3c-3.8-0.8-6.5,0.6-8.4,5.7
			c-1.7,3.5-1.9,6.2-5.7,10.5c-7.5,7-23.2,13.3-36.5,2.2c-3.2-2.4-6.8-9.1-8.9-12.9c-2.7-4.4-5.4-5.6-9.2-4.1c-4,1.3-6,5.6-4.8,9.5
			v0.2"/>
		<g id="椭圆_577">
			<path fill="#4156A3" d="M588.1,837.3c4.3,0,7.9,3.5,7.9,7.9s-3.5,7.9-7.9,7.9c-4.3,0-7.9-3.5-7.9-7.9
				C580.2,840.8,583.8,837.3,588.1,837.3 M478.4,837.3c4.3,0,7.9,3.5,7.9,7.9s-3.5,7.9-7.9,7.9c-4.3,0-7.9-3.5-7.9-7.9
				C470.4,840.8,474.1,837.3,478.4,837.3 M588.1,824.5c-11.4,0-20.6,9.2-20.6,20.6c0,11.4,9.2,20.6,20.6,20.6s20.6-9.2,20.6-20.6
				C608.7,833.8,599.6,824.5,588.1,824.5L588.1,824.5z M478.4,824.5c-11.4,0-20.6,9.2-20.6,20.6c0,11.4,9.2,20.6,20.6,20.6
				s20.6-9.2,20.6-20.6C499,833.8,489.8,824.5,478.4,824.5L478.4,824.5z"/>
		</g>
		<g>
			<path fill="#4156A3" d="M658.3,906.8c0,5.4,4.4,9.7,9.7,9.7c3.3,0,6.4-1.7,8.1-4.3l-16.2-10.8C659,903,658.3,904.8,658.3,906.8z"
				/>
			<path fill="#4156A3" d="M658.6,929.3L658.6,929.3c0-5.4-4.3-9.7-9.7-9.7l0,0c-2.2,0-4.3,0.8-5.9,2.1l14.3,12.4
				C658.2,932.5,658.6,930.9,658.6,929.3z"/>
			<path fill="#4156A3" d="M708.8,819.1L708.8,819.1c-4.6-28.4-20.5-50.8-47-66.7c-14.9-9.1-32.1-13.8-49.6-14
				c-21.8-0.2-42.6,8.1-58.6,22.7c-4.9,4.4-9.4,9.5-13.7,14.3c-13.5-16.5-27.2-26.7-43.2-31.9c-28-9.4-55.9-5.7-81.5,10.5
				c-30.5,19.4-45.7,46.9-45.4,81.6c0.2,20.5,7,39.9,20.8,59.4c14.8,21,33,42.2,57.5,67c16.4,16.7,33.4,33.4,49.7,49.4l16,15.7
				c1.4,1.4,2.9,2.7,4.3,4.1l1.9,1.7c12.1,10.8,30.7,10,41.6-1.9c27.8-26.4,57.5-55,85.8-85.8c3.5-3.8,6.4-7.1,10-11.3l-0.2-0.2
				c-0.3-6.7-8.3-11.8-14.3-12.4l-0.3-0.2c-3.3,3.8-6.4,7.1-9.5,10.6c-27.3,29.9-56.1,57.7-83.1,83.2c-2.5,2.9-6.2,4.4-10,4.8
				c-3.8,0-5.2,0.2-6.4-1l-1.4-1.4c-1.4-1.3-4.6-4.9-5.9-6.2l-15.7-15.4c-16-15.7-32.6-31.9-48.4-48.3c-23.5-24-41.5-42.7-55.7-62.9
				c-10.3-14.5-16-31.8-16-49.6c-0.2-28.3,11.8-49.9,36.8-65.8c19.2-13.2,43.5-16.4,65.4-8.6c13,4.4,24.3,13.2,36.1,27.8
				c2.9,3.5,7.1,5.4,11.6,5.6c4.3-0.2,8.4-2.1,11.3-5.4l0.6-0.8c4.3-4.8,8.4-9.4,12.9-13.5c12.5-11.6,28.9-17.9,46.1-17.8
				c14.1,0,28,4,39.9,11.3c21.8,13.2,34.3,30.7,38,53.8c3.2,20-1.1,38.9-13.5,57.5c-4.9,7.5-10.2,14.6-15.7,21.6l0.2,0.2
				c1.7,6.8,9.4,12.5,16.2,10.8h0.2c5.7-7.1,11.1-14.6,16.2-22.2C707.4,867.4,712.8,843.6,708.8,819.1z"/>
		</g>
	</g>
	<g>
		<g enable-background="new    ">
			<path fill="#7791E5" d="M132.8,1327.2c-1.7,2.7-4.1,5.6-6.7,8.4l-1-3.2c6.2-7.1,10.6-15.1,13.3-24l2.9,1.3
				c-1.4,4.4-3.2,8.6-5.4,12.5v37h-3v-32.1L132.8,1327.2L132.8,1327.2z M148.7,1318.8c-1.7,4.4-4,8.4-6.5,12.2l-2.5-1.6
				c4.3-6.2,7.5-13.2,9.4-21l2.9,0.6c-0.6,2.4-1.4,4.6-2.2,6.8h24v2.1c-1,3.5-2.1,6.8-3.7,10.2l-2.9-0.8c1.4-2.4,2.5-5.2,3.5-8.6
				L148.7,1318.8L148.7,1318.8z M150.9,1332c-2.1,7.8-4.8,14.6-7.9,20.5l-2.9-1.1c3.2-5.2,5.9-12.1,8.1-20.2L150.9,1332z
				 M148.7,1359l-0.6-2.9c3.3,0.2,5.6,0.2,7,0.2s2.2-0.8,2.2-2.2v-30.2h2.9v31c0,2.7-1.4,4.1-4.1,4.1H148.7L148.7,1359z
				 M167.4,1330.9c3,6.7,5.6,13.7,7.8,21.4l-2.7,1.3c-2.4-8.3-4.9-15.4-7.8-21.8L167.4,1330.9z"/>
			<path fill="#7791E5" d="M194.6,1335h-5.2v-9.5h34.3v9.5h-4.9l-2.5,4.6h15.1v2.7H182v-2.7h14.9L194.6,1335z M186,1319.4h18.9v-4.3
				h-20.8v-2.5h20.8v-3.8h3v3.8h21v2.5h-21v4.3h18.9v2.5h-41v-2.5H186z M224.4,1345.9v13.5h-2.9v-2.4h-30v2.4h-2.9v-13.5H224.4z
				 M191.4,1354.5h30v-6h-30V1354.5z M220.8,1332.6v-4.8h-28.6v4.8H220.8z M215.5,1335h-17.8l2.1,4.6H213L215.5,1335z"/>
			<path fill="#7791E5" d="M256.2,1350.2c-2.5-3.8-4.4-6.8-6.2-9.1c-3,6.7-7,11.9-11.9,15.7l-1.4-2.5c4.9-3.8,8.7-9.1,11.6-15.6
				c-3.7-4.9-7.1-9.1-10.3-12.5l2.1-1.9c3,3.2,6.2,7,9.5,11.3c1.7-4.9,3.2-10.6,4-17.2h-16v-2.9h18.9v2.9
				c-1.1,7.6-2.9,14.1-5.1,19.9c2.2,3,4.6,6.4,7,10L256.2,1350.2z M273.8,1325c0,3.7-0.2,7.1-0.6,10.3c2.7,9.1,7.5,16.2,14,21.4
				l-2.1,2.4c-5.9-5.1-10.2-11.4-12.9-18.7l-0.8,2.9c-2.1,6.5-6.5,11.9-13.5,16l-1.9-2.4c6.2-3.7,10.3-8.3,12.4-14
				c1.6-4.9,2.4-11,2.4-17.9L273.8,1325L273.8,1325z M268.7,1308.8c-0.5,3.3-1,6.2-1.6,8.9h18.1v2.1c-0.8,4.8-2.1,9.5-3.7,14.3
				l-3-0.8c1.4-3.7,2.5-7.8,3.5-12.4h-15.9c-1.3,4.1-3,7.8-5.2,10.6l-2.4-1.7c3.8-5.2,6.2-12.2,7.3-21.3L268.7,1308.8z"/>
			<path fill="#7791E5" d="M311.9,1318.6v37.3H309v-3.3h-11.3v4.9h-2.9v-38.9h4.9c1.1-3.2,1.9-6.5,2.5-10l3,0.3
				c-0.6,3.3-1.4,6.7-2.7,9.5h9.2v0.2H311.9z M297.8,1333.9h11.3v-12.4h-11.3V1333.9z M297.8,1349.9h11.3v-13.2h-11.3V1349.9z
				 M340.7,1318.8c0,17.8-0.3,28.9-0.8,33.4c-0.6,4.4-3.2,6.7-7.8,6.7l-5.4-0.2l-0.8-2.9c2.2,0.2,4.1,0.2,5.9,0.2
				c3,0,4.8-1.6,5.2-4.9c0.5-3,0.6-12.9,0.8-29.2h-16.4c-1.6,3.7-3.5,7-5.6,9.7l-1.7-2.4c4-5.6,6.7-12.4,8.1-20.5l3,0.3
				c-0.6,3.7-1.6,6.8-2.5,9.7h17.9L340.7,1318.8L340.7,1318.8z M321.3,1331.2c4.3,4.8,7.5,8.7,9.7,12.2l-2.4,1.7
				c-2.2-3.7-5.4-7.8-9.7-12.4L321.3,1331.2z"/>
			<path fill="#7791E5" d="M349.3,1318.5h23.5c-1.4-3.2-3.3-6.2-5.7-8.9l3-1.1c2.2,2.9,4.1,6.2,5.9,10h21.3v3h-8.9
				c-2.7,9.1-6.8,16.7-12.5,22.7c6.2,5.2,13.7,9.5,22.7,12.9l-1.6,2.5c-9.2-3.3-17-7.8-23.2-13.3c-6.4,6-14.3,10.5-24.1,13.3
				l-1.6-2.7c9.5-2.7,17.5-6.8,23.5-12.5c-6.7-6.5-11.3-14.1-13.8-23h-8.6v-2.9H349.3z M360.8,1321.5c2.5,8.1,6.8,14.9,13,20.8
				c5.2-5.7,9.2-12.5,11.4-20.8H360.8z"/>
			<path fill="#7791E5" d="M427.4,1344.5h-15.6v-16H446v16h-15.6v4.6h22.9v2.9h-22.9v7.3h-3v-7.3h-23v-2.9h23V1344.5z M416.8,1315.6
				H408v-2.5h19.1c-0.5-1.3-1.1-2.7-1.7-4.3l3.2-0.5c0.5,1.1,1.1,2.9,1.7,4.8h19.2v2.5h-8.6l-2.4,6h13.7v2.7H405v-2.7h13.8
				L416.8,1315.6z M443,1335.3v-4.3h-28.1v4.3H443z M414.8,1337.7v4.3H443v-4.3H414.8z M422.2,1321.5h13.5l2.4-6H420L422.2,1321.5z"
				/>
			<path fill="#7791E5" d="M466.1,1346.6c1.9,1.3,4,3,6.2,5.4c1.9,2.1,3.5,3.8,4.6,5.6l-2.2,1.9c-1.3-1.7-2.7-3.5-4.6-5.6
				c-2.2-2.2-4.1-4.1-6-5.4L466.1,1346.6z"/>
			<path fill="#7791E5" d="M516.3,1320.4h22.2v-5.9c-6,0.3-11.9,0.5-17.6,0.5l-1-2.7c15.4,0,28.1-1.1,38-3.3l1.4,2.5
				c-5.1,1.3-11.1,2.1-17.9,2.7v6.2h22.1v2.9h-18.7c4.1,4.9,10.8,8.7,20,11.4l-1.3,2.7c-10.3-3.5-17.6-8.3-21.9-14.1l0,0v12.5h14.6
				v23.7h-3v-3.2h-26.4v3.2h-2.7v-23.7h14.6v-12.5h-0.3c-3.7,5.7-10.8,10.6-21.6,14.8l-1.6-2.5c10-3.5,16.8-7.6,20.3-12.2h-19.1
				L516.3,1320.4L516.3,1320.4L516.3,1320.4z M527,1344.7h26.4v-6.2H527V1344.7z M527,1353.4h26.4v-6.2H527V1353.4z"/>
			<path fill="#7791E5" d="M571.8,1323.2h17.8v2.4c-3,12.2-8.9,21.6-17.5,28l-1.9-2.5c7.8-5.9,13.3-14.1,16.2-24.9h-14.6V1323.2z
				 M617.3,1319.6c-4.4,5.6-9.1,10-14,13.7c4.4,7.3,10.3,13.5,17.6,18.3l-1.9,2.9c-10.3-7.6-17.5-16.7-21.6-27.2v27.5
				c0,3-1.4,4.6-4.4,4.6h-7.1l-0.6-2.9c3.2,0.2,5.4,0.2,6.8,0.2c1.6,0,2.5-1,2.5-2.7v-45.3h3v11.4c1.1,3.8,2.7,7.5,4.6,11
				c4.6-3.8,8.9-8.1,12.7-13.2L617.3,1319.6z"/>
			<path fill="#7791E5" d="M632.9,1346.6c1.9,1.3,4,3,6.2,5.4c1.9,2.1,3.5,3.8,4.6,5.6l-2.2,1.9c-1.3-1.7-2.7-3.5-4.6-5.6
				c-2.2-2.2-4.1-4.1-6-5.4L632.9,1346.6z"/>
			<path fill="#7791E5" d="M703.3,1335.3v23.3h-3v-3h-12.9v3h-2.9v-23.3H703.3z M687.4,1352.8h12.9V1338h-12.9V1352.8z
				 M691.7,1311.3h30v17.3h-30V1311.3z M718.7,1325.8v-11.4h-23.8v11.4H718.7z M729,1335.3v23.3h-3v-3h-13.3v3h-3v-23.3H729z
				 M712.6,1352.8H726V1338h-13.3v14.8H712.6z"/>
			<path fill="#7791E5" d="M750.4,1309.3h3v15.2h3.5v2.9h-13v3.2c0,2.1,0,3.8-0.2,5.7H754v22.4h-3v-19.5h-7.6
				c-0.6,9.1-2.2,16-4.8,20.8l-2.2-2.1c2.9-5.7,4.4-14.8,4.4-27.3v-20h3v14h6.7v-15.2L750.4,1309.3L750.4,1309.3z M757,1345.6h17.8
				v-6.5h2.9v6.5h10v2.9h-10v11.1h-2.9v-11.1H757V1345.6z M760.1,1314.2h8.4c1-1.9,1.6-3.8,2.1-5.7l3,0.3c-0.5,1.7-1.1,3.7-1.9,5.4
				h12.7v22.4h-12.5l-0.8,1.6c-1.7,2.9-4.6,5.1-8.4,6.8l-1.4-2.2c3.5-1.4,6-3.5,7.6-6.2h-8.6v-22.4L760.1,1314.2L760.1,1314.2z
				 M762.8,1323.9h7.9v-7.1h-7.9V1323.9z M769.8,1333.9c0.6-1.9,1-4.4,1.1-7.3H763v7.3H769.8z M781.6,1333.9v-7.3h-7.9
				c-0.2,2.7-0.5,5.2-1,7.3H781.6z M773.6,1316.7v7.1h7.8v-7.1H773.6z"/>
			<path fill="#7791E5" d="M799.7,1346.6c1.9,1.3,4,3,6.2,5.4c1.9,2.1,3.5,3.8,4.6,5.6l-2.2,1.9c-1.3-1.7-2.7-3.5-4.6-5.6
				c-2.2-2.2-4.1-4.1-6-5.4L799.7,1346.6z"/>
			<path fill="#7791E5" d="M859.7,1317c-2.5,4.4-5.6,8.6-9.1,11.9l-2.1-2.2c4.9-4.9,8.9-11,11.8-18.3l3,0.8c-1,2.2-1.6,3.8-2.2,5.1
				h33.2v2.9h-34.6L859.7,1317L859.7,1317z M887,1355c-1.3-2.9-2.1-8.4-2.1-17v-3.7h-31.8v-2.9h34.6v6.5c0,7.8,0.5,12.7,1.3,14.8
				c0.8,2.2,1.9,3.2,3.5,3.2c0.8,0,1.6-1,2.2-3c0.5-1.7,1-4,1.4-6.8l2.5,1.3c-0.8,4.6-1.7,7.8-2.9,9.5c-1,1.6-2.1,2.2-3.2,2.2
				C890.2,1359.3,888.3,1357.9,887,1355z M859.4,1322.8h32.1v2.9h-32.1V1322.8z"/>
			<path fill="#7791E5" d="M919.9,1313.7v40.2H917v-3.7h-7.8v4.9h-2.9v-41.5L919.9,1313.7L919.9,1313.7z M909.3,1347.5h7.8v-31h-7.8
				V1347.5z M939.8,1332.9v26.7h-3v-26.7h-0.3c-2.5,8.9-7,16-13.2,21.8l-1.6-2.5c5.7-5.1,10-11.4,12.5-19.2h-11v-2.9h13.5V1320
				h-11.4v-2.9h11.4v-8.3h3v8.3h11.4v2.9h-11.4v10.2H953v2.9h-10.8c2.4,7.1,6.5,13.5,12.5,19.1l-1.9,2.4
				c-6.2-6.4-10.5-13.5-12.7-21.4h-0.3V1332.9z"/>
		</g>
		<g enable-background="new    ">
			<path fill="#7791E5" d="M359.9,1418.5h3v50.7h-3v-19.4c-3.8,3.7-7.5,6.5-10.8,8.7l-1.3-2.9c3.3-2.1,7.5-5.1,12.2-9.4v-27.8h-0.1
				V1418.5z M350.4,1425.2c2.7,3.7,5.1,7.6,7.1,11.9l-2.7,1.1c-2.2-4.6-4.6-8.6-7-12.1L350.4,1425.2z M377.5,1425.7
				c-2.5,3-5.9,5.6-9.8,7.6l-1.9-2.4c6.2-3.2,10.5-7.3,12.5-12.5l3.2,0.6c-0.5,1.3-1.1,2.7-2.1,4h16.7v2.5
				c-3.5,8.3-12.2,14.1-26.2,17.5l-1.6-2.7c4.6-1.1,8.7-2.4,12.2-4c-2.1-1.9-4-3.5-5.9-4.8l2.2-1.6c2.2,1.6,4.3,3.3,6.2,5.2
				c4.6-2.5,7.8-5.7,9.7-9.2h-15.2L377.5,1425.7L377.5,1425.7z M366.9,1445.7h21.4v-5.9h3v5.9h7.1v3h-7.1v15.7c0,3-1.6,4.6-4.8,4.6
				H379l-0.6-2.9c3.2,0.2,5.6,0.2,7,0.2c1.9,0,2.9-0.8,2.9-2.5v-15.1h-21.4V1445.7z M373.4,1451.6c3.2,3.7,5.7,6.7,7.3,9.2l-2.4,1.7
				c-1.7-2.9-4.1-6-7.1-9.5L373.4,1451.6z"/>
			<path fill="#7791E5" d="M429.9,1418.5c7.1,8.1,15.2,14.5,24.5,19.1l-1.6,2.9c-9.5-5.1-17.5-11.4-24-19.2
				c-6.2,7.5-14.1,14-24.3,19.4l-1.6-2.9c9.8-5.1,18.1-11.4,24.6-19.2h2.4V1418.5z M406.7,1447.1H451v3h-26.4
				c-2.9,5.6-6.4,10.6-10.5,14.9c10.2-0.5,19.5-1.4,28.1-2.7c-2.4-3.2-4.6-6-6.8-8.4l2.4-1.4c5.1,5.7,9.1,10.8,11.6,14.9l-2.4,1.7
				c-1-1.6-2.1-3.3-3.2-4.8c-8.3,1.4-19.4,2.5-33.2,3.5l-0.8-2.7c0.6-0.2,1.3-0.5,1.6-0.8c4.1-4.6,7.5-9.4,10-14.3h-14.6v-3h-0.1
				V1447.1z M415.5,1435.8h27v2.9h-27V1435.8z"/>
			<path fill="#7791E5" d="M468.1,1445.5c-2.4,2.5-4.9,4.9-7.5,7.1l-1.9-2.4c7.3-6,13-13,17-21h-15.1v-3h16.5c1.1-2.5,2.1-5.2,3-8.3
				l3,0.3c-0.6,2.5-1.6,5.1-2.9,7.9h28.6v3H479c-2.2,4.6-4.9,8.9-7.9,12.7v27.3h-3V1445.5L468.1,1445.5z M476.6,1444.7h13.2v-10.8h3
				v10.8h13.5v3h-13.5v16.7h16v3H474v-3h15.7v-16.7h-13.2L476.6,1444.7L476.6,1444.7z"/>
			<path fill="#7791E5" d="M551.6,1468.2c-1.9,0-5.1,0-9.8-0.2c-3.7-0.2-6.5-0.5-8.6-1.1c-2.2-0.6-4.1-2.1-5.9-4.1
				c-0.6-1-1.4-1.4-2.1-1.4c-1.6,0-4,2.5-7.1,7.8l-2.2-2.1c3.2-4.9,5.9-7.8,8.1-8.6V1441h-8.3v-2.9h11.1v20.8
				c0.6,0.3,1.3,0.8,1.7,1.4c1.3,1.6,2.9,2.9,4.4,3.7c1.7,0.6,4.3,1.1,7.5,1.1c3.7,0,7.3,0.2,10.6,0.2h7.8l6-0.2l-0.8,3h-12.5
				L551.6,1468.2L551.6,1468.2z M518.9,1419.6c3.8,2.9,7,5.6,9.7,8.4l-2.1,2.1c-2.4-2.7-5.6-5.6-9.7-8.6L518.9,1419.6z
				 M532.2,1426.9h14c-0.8-3.2-1.7-5.7-2.7-7.9l3.2-0.5c1,2.5,1.7,5.4,2.7,8.6h14.5v3h-5.4c-1.6,6.2-3.8,11.8-6.8,16.4
				c4.4,3.8,8.4,7.8,12.2,11.8l-2.2,2.2c-3.5-4-7.3-7.8-11.6-11.8c-4.4,5.6-10.2,9.7-17.2,12.1l-1.6-2.7c6.8-2.4,12.4-6,16.5-11.3
				c-4-3.5-8.4-7-13.2-10.6l2.1-2.1c4.6,3.3,8.9,6.8,12.9,10.2c2.9-4.1,4.8-8.9,6.2-14.5h-23.2v-2.9L532.2,1426.9L532.2,1426.9z"/>
			<path fill="#7791E5" d="M594.2,1446h-17.6v-25.3h38.1v25.3h-17.5v7.3h20.5v2.9h-20.5v7.9h22.7v3h-48.6v-3h22.9v-7.9h-20.5v-2.9
				h20.5L594.2,1446L594.2,1446z M594.2,1423.6h-14.6v8.4h14.6V1423.6z M579.4,1434.9v8.4H594v-8.4H579.4z M611.6,1432v-8.4H597v8.4
				H611.6z M597,1443.1h14.6v-8.4H597V1443.1z"/>
			<path fill="#7791E5" d="M625.9,1435.8h11.4v25.7c2.2-1.6,4.8-3.8,7.6-6.4l0.8,3.2c-3.3,3-7,5.9-11.1,8.4l-1.1-2.7
				c0.6-0.6,1-1.4,1-2.1v-23.5h-8.6L625.9,1435.8L625.9,1435.8z M632,1419.2c3.8,2.9,7,5.9,9.7,8.9l-2.1,2.1
				c-2.5-2.9-5.9-5.9-9.8-8.9L632,1419.2z M676.7,1453.8c-0.3,5.7-1.1,9.4-2.2,11.1c-1,1.6-3,2.5-6,2.5h-14.3
				c-3.3,0-4.9-1.7-4.9-5.2v-23.7h19.9v-14.1h-22.7v-2.9h25.7v19.9h-19.9v19.9c0,2.2,1,3.2,3,3.3H668c2.2,0,3.7-0.8,4.4-2.4
				c0.6-1.4,1.1-4.4,1.3-9.2L676.7,1453.8z"/>
			<path fill="#7791E5" d="M688.7,1420.7h31.6v18.1h10.2v2.9h-22.6v6.7c1.3,1.6,2.9,3.2,4.8,4.9c4.1-2.2,7.8-5.6,10.8-9.8l2.4,1.9
				c-3.2,4.1-6.8,7.3-11.1,9.5c4.6,3.8,9.8,7,15.9,9.5l-1.6,2.5c-8.9-4.1-15.9-9.2-21.1-15.4v12.7c0,3-1.3,4.4-4,4.4h-6.4l-0.6-2.9
				c2.9,0.2,4.8,0.2,5.9,0.2c1.3,0,2.1-0.8,2.1-2.5v-11.8c-5.9,5.6-12.9,10.5-21.1,14.8l-1.3-2.9c8.7-4.1,16-9.2,22.4-15.2v-7.3
				h-21.8v-2.9h34v-6.2h-26.7v-2.7h26.7v-6.5h-28.6v-2.1h0.1V1420.7z M688.7,1444.6c3.5,2.4,6.4,4.8,8.7,7.1l-2.1,2.1
				c-2.2-2.2-5.1-4.6-8.7-7.1L688.7,1444.6z"/>
		</g>
	</g>
	<g>
		<path id="圆角矩形_2_1_" fill="#B8C9FF" d="M656.4,540.1h4c2.5,0,4.6,2.1,4.6,4.6v43c0,2.5-2.1,4.6-4.6,4.6h-4
			c-2.5,0-4.6-2.1-4.6-4.6v-43C651.8,542.1,653.9,540.1,656.4,540.1z M636.6,559.6h43.5c2.5,0,4.6,2.1,4.6,4.6v4
			c0,2.5-2.1,4.6-4.6,4.6h-43.5c-2.5,0-4.6-2.1-4.6-4.6v-4C632.1,561.8,634,559.6,636.6,559.6z M549.7,450.7h4
			c2.5,0,4.6,2.1,4.6,4.6v43c0,2.5-2.1,4.6-4.6,4.6h-4c-2.5,0-4.6-2.1-4.6-4.6v-43C545.1,452.7,547.1,450.7,549.7,450.7z
			 M529.8,470.2h43.5c2.5,0,4.6,2.1,4.6,4.6v3.8c0,2.5-2.1,4.6-4.6,4.6h-43.5c-2.5,0-4.6-2.1-4.6-4.6v-3.8
			C525.2,472.3,527.3,470.2,529.8,470.2z M464.6,562.5h9.8c2.5,0,4.6,2.1,4.6,4.6V633c0,2.5-2.1,4.6-4.6,4.6h-9.8
			c-2.5,0-4.6-2.1-4.6-4.6v-65.9C460,564.5,462,562.5,464.6,562.5z M436.3,590.8h66.5c2.5,0,4.6,2.1,4.6,4.6v9.5
			c0,2.5-2.1,4.6-4.6,4.6h-66.5c-2.5,0-4.6-2.1-4.6-4.6v-9.5C431.7,592.8,433.7,590.8,436.3,590.8z M865.9,558.3h6.8
			c2.5,0,4.6,2.1,4.6,4.6v55c0,2.5-2.1,4.6-4.6,4.6h-6.8c-2.5,0-4.6-2.1-4.6-4.6v-55.1C861.3,560.1,863.4,558.3,865.9,558.3z
			 M841.9,582.3h55c2.5,0,4.6,2.1,4.6,4.6v6.8c0,2.5-2.1,4.6-4.6,4.6h-55c-2.5,0-4.6-2.1-4.6-4.6v-6.8
			C837.3,584.3,839.4,582.3,841.9,582.3z"/>
		<g id="形状_2">
			<path fill="#B8C9FF" d="M434.9,493.1L434.9,493.1c6.8,0,12.4,5.6,12.4,12.4c0,6.8-5.6,12.4-12.4,12.4c-3.3,0-6.4-1.3-8.7-3.7
				c-2.4-2.4-3.7-5.4-3.7-8.7C422.5,498.6,428,493.1,434.9,493.1 M248.4,529.8c4.9,0,9.1,4,9.1,9.1c0,4.9-4,9.1-9.1,9.1
				c-4.9,0-9.1-4-9.1-9.1C239.5,533.8,243.5,529.8,248.4,529.8 M688.7,625.8c5.6,0,10.2,4.6,10.2,10.2s-4.6,10.2-10.2,10.2
				c-2.7,0-5.2-1.1-7.1-3c-1.9-1.9-3-4.4-3-7.1C678.5,630.3,683.1,625.8,688.7,625.8 M812.2,680.6c3.3,0,6.5,1.3,8.7,3.7
				c2.4,2.4,3.7,5.6,3.7,8.7c0,6.8-5.6,12.4-12.4,12.4s-12.4-5.6-12.4-12.4C799.8,686.3,805.4,680.6,812.2,680.6 M202.7,705.8
				c6.2,0,11.3,5.1,11.3,11.3c0,3-1.1,5.9-3.3,7.9c-2.1,2.1-4.9,3.3-7.9,3.3c-6.2,0-11.3-5.1-11.3-11.3
				C191.4,710.8,196.5,705.8,202.7,705.8L202.7,705.8L202.7,705.8 M434.9,480.4c-13.8,0-25.1,11.3-25.1,25.1s11.3,25.1,25.1,25.1
				l0,0c13.8,0,25.1-11.3,25.1-25.1l0,0C460,491.6,448.7,480.4,434.9,480.4L434.9,480.4z M248.4,517c-11.9,0-21.6,9.7-21.8,21.8
				c0,11.9,9.7,21.8,21.8,21.8l0,0c11.9,0,21.8-9.7,21.8-21.8C270.2,526.8,260.3,517,248.4,517L248.4,517z M688.7,613
				c-12.5,0-22.9,10.2-22.9,22.9c0,12.5,10.2,22.9,22.9,22.9l0,0c12.5,0,22.9-10.2,22.9-22.9C711.5,623.3,701.2,613,688.7,613
				L688.7,613z M812.2,667.9c-13.8,0-25.1,11.3-25.1,25.1c0,13.8,11.1,25.1,25.1,25.3c0,0,0,0,0.2,0c13.8,0,25.1-11.3,25.1-25.1l0,0
				C837.3,679.3,826,667.9,812.2,667.9L812.2,667.9z M202.7,693L202.7,693L202.7,693c-13.3,0-24.1,10.8-24,24.1
				c0,13.2,10.8,24,24,24l0,0c13.3,0,24-10.8,24-24.1l0,0C226.6,703.8,216,693,202.7,693L202.7,693z"/>
		</g>
		<path id="圆角矩形_3" fill="#B8C9FF" d="M327.5,572.3h0.8c2.5,0,4.6,2.1,4.6,4.6v15.9c0,2.5-2.1,4.6-4.6,4.6h-0.8
			c-2.5,0-4.6-2.1-4.6-4.6v-15.9C322.9,574.3,325,572.3,327.5,572.3z M359.4,590.4c1.4,2.4,0.6,5.4-1.7,6.8l-13,7.5
			c-2.4,1.4-5.4,0.5-6.8-1.9s-0.5-5.4,1.9-6.8l13-7.5C355.1,587.3,358.1,588,359.4,590.4L359.4,590.4z M359.4,627.1
			c-1.4,2.4-4.4,3.2-6.8,1.9l0,0l-13-7.5c-2.4-1.4-3.2-4.4-1.9-6.8c1.3-2.4,4.4-3.2,6.8-1.9l0,0l13,7.5
			C360.1,621.8,360.8,624.8,359.4,627.1z M327.8,645.5c-2.7,0-4.9-2.2-4.9-4.9l0,0v-15.1c0-2.7,2.2-4.9,4.9-4.9s4.9,2.2,4.9,4.9
			v15.1C332.9,643.3,330.7,645.5,327.8,645.5L327.8,645.5L327.8,645.5z M296.2,627.1c-1.4-2.4-0.6-5.4,1.7-6.8l0,0l13-7.5
			c2.4-1.3,5.4-0.5,6.8,1.9c1.3,2.4,0.5,5.4-1.7,6.7l-13,7.5C300.7,630.3,297.6,629.5,296.2,627.1L296.2,627.1z M296.2,590.4
			c1.4-2.4,4.4-3.2,6.8-1.9l0,0l13,7.5c2.4,1.4,3.2,4.4,1.7,6.8c-1.4,2.4-4.3,3.2-6.7,1.7l-13-7.5
			C295.6,595.8,294.8,592.8,296.2,590.4L296.2,590.4z M780.6,473.5h1.3c2.4,0,4.4,1.9,4.4,4.4v17.6c0,2.4-1.9,4.4-4.4,4.4h-1.3
			c-2.4,0-4.4-1.9-4.4-4.4l0,0V478C776.2,475.4,778.2,473.5,780.6,473.5L780.6,473.5z M813.8,492.9c1.4,2.5,0.6,5.7-1.9,7.3
			l-13.3,7.9c-2.4,1.4-5.4,0.6-6.8-1.7l-0.2-0.2c-1.4-2.5-0.6-5.7,1.9-7.3l13.3-7.9c2.4-1.4,5.4-0.6,6.8,1.7
			C813.7,492.9,813.7,492.9,813.8,492.9z M813.8,531.8c-1.3,2.4-4.3,3.3-6.8,2.1c0,0-0.2,0-0.2-0.2l-13.3-7.9
			c-2.4-1.6-3.3-4.8-1.9-7.3c1.3-2.4,4.3-3.3,6.8-2.1c0,0,0.2,0,0.2,0.2l13.3,7.9C814.3,526.1,815.1,529.3,813.8,531.8L813.8,531.8z
			 M781.3,551.3c-2.9,0-5.1-2.4-5.1-5.2v-15.9c-0.2-2.9,2.1-5.2,4.9-5.2c2.9-0.2,5.2,2.1,5.2,4.9c0,0.2,0,0.2,0,0.3V546
			C786.5,548.8,784.1,551.3,781.3,551.3L781.3,551.3z M748.9,531.8c-1.4-2.5-0.6-5.7,1.9-7.3l13.3-7.9c2.4-1.4,5.4-0.6,6.8,1.7
			c0,0,0,0.2,0.2,0.2c1.4,2.5,0.6,5.7-1.9,7.3l-13.3,7.9c-2.4,1.4-5.4,0.6-6.8-1.7C748.9,532,748.9,531.8,748.9,531.8L748.9,531.8z
			 M748.9,492.9c1.3-2.4,4.3-3.3,6.8-2.1c0,0,0.2,0,0.2,0.2l13.3,7.9c2.4,1.6,3.3,4.8,1.9,7.3c-1.3,2.4-4.3,3.3-6.8,2.1
			c0,0-0.2,0-0.2-0.2l-13.3-7.9C748.2,498.6,747.4,495.4,748.9,492.9z"/>
	</g>
</g>
</svg>
