<?xml version="1.0" encoding="utf-8"?>
<!-- Generator: Adobe Illustrator 18.0.0, SVG Export Plug-In . SVG Version: 6.00 Build 0)  -->
<!DOCTYPE svg PUBLIC "-//W3C//DTD SVG 1.1//EN" "http://www.w3.org/Graphics/SVG/1.1/DTD/svg11.dtd">
<svg version="1.1" id="图层_1" xmlns="http://www.w3.org/2000/svg" xmlns:xlink="http://www.w3.org/1999/xlink" x="0px" y="0px"
	 viewBox="0 420 1080 1080" enable-background="new 0 420 1080 1080" xml:space="preserve">
<metadata><?xpacket begin="﻿" id="W5M0MpCehiHzreSzNTczkc9d"?>
<x:xmpmeta xmlns:x="adobe:ns:meta/" x:xmptk="Adobe XMP Core 5.6-c011 79.156289, 2014/03/31-23:39:12        ">
   <rdf:RDF xmlns:rdf="http://www.w3.org/1999/02/22-rdf-syntax-ns#">
      <rdf:Description rdf:about=""
            xmlns:xmp="http://ns.adobe.com/xap/1.0/"
            xmlns:xmpGImg="http://ns.adobe.com/xap/1.0/g/img/"
            xmlns:xmpTPg="http://ns.adobe.com/xap/1.0/t/pg/"
            xmlns:stDim="http://ns.adobe.com/xap/1.0/sType/Dimensions#"
            xmlns:xmpG="http://ns.adobe.com/xap/1.0/g/"
            xmlns:dc="http://purl.org/dc/elements/1.1/">
         <xmp:CreatorTool>Adobe Illustrator CC 2014 (Windows)</xmp:CreatorTool>
         <xmp:CreateDate>2018-03-06T11:11:47+08:00</xmp:CreateDate>
         <xmp:Thumbnails>
            <rdf:Alt>
               <rdf:li rdf:parseType="Resource">
                  <xmpGImg:width>184</xmpGImg:width>
                  <xmpGImg:height>256</xmpGImg:height>
                  <xmpGImg:format>JPEG</xmpGImg:format>
                  <xmpGImg:image>/9j/4AAQSkZJRgABAgEASABIAAD/7QAsUGhvdG9zaG9wIDMuMAA4QklNA+0AAAAAABAASAAAAAEA&#xA;AQBIAAAAAQAB/+4ADkFkb2JlAGTAAAAAAf/bAIQABgQEBAUEBgUFBgkGBQYJCwgGBggLDAoKCwoK&#xA;DBAMDAwMDAwQDA4PEA8ODBMTFBQTExwbGxscHx8fHx8fHx8fHwEHBwcNDA0YEBAYGhURFRofHx8f&#xA;Hx8fHx8fHx8fHx8fHx8fHx8fHx8fHx8fHx8fHx8fHx8fHx8fHx8fHx8fHx8f/8AAEQgBAAC4AwER&#xA;AAIRAQMRAf/EAaIAAAAHAQEBAQEAAAAAAAAAAAQFAwIGAQAHCAkKCwEAAgIDAQEBAQEAAAAAAAAA&#xA;AQACAwQFBgcICQoLEAACAQMDAgQCBgcDBAIGAnMBAgMRBAAFIRIxQVEGE2EicYEUMpGhBxWxQiPB&#xA;UtHhMxZi8CRygvElQzRTkqKyY3PCNUQnk6OzNhdUZHTD0uIIJoMJChgZhJRFRqS0VtNVKBry4/PE&#xA;1OT0ZXWFlaW1xdXl9WZ2hpamtsbW5vY3R1dnd4eXp7fH1+f3OEhYaHiImKi4yNjo+Ck5SVlpeYmZ&#xA;qbnJ2en5KjpKWmp6ipqqusra6voRAAICAQIDBQUEBQYECAMDbQEAAhEDBCESMUEFURNhIgZxgZEy&#xA;obHwFMHR4SNCFVJicvEzJDRDghaSUyWiY7LCB3PSNeJEgxdUkwgJChgZJjZFGidkdFU38qOzwygp&#xA;0+PzhJSktMTU5PRldYWVpbXF1eX1RlZmdoaWprbG1ub2R1dnd4eXp7fH1+f3OEhYaHiImKi4yNjo&#xA;+DlJWWl5iZmpucnZ6fkqOkpaanqKmqq6ytrq+v/aAAwDAQACEQMRAD8A9U4q7FXYq7FXYq7FXYqt&#xA;klijFZHVB4sQP14REnkgltWV1DKQynoQajEikt4FQ9/fR2VsZ5FZlBAooqd8sxYzOVBjKVC2M/py&#xA;L9NfXuL+lx48Nq/Zp40675svyx8Lg6uP4nqtk1hex3tstxGrKrEijddjTtmty4zCVFyIysWiMrZO&#xA;xV2KuxV2KuxV2KuxV2KuxV2KuxV2KuxV2KuxV2Ksajtk1TWrtLuRgsBZY4wabK3HaubIz8LFExHN&#xA;xwOKRtU0YNaa1cWEUhkt6E79iAD9+9DkdR68QmRRTDaVMhzXt7iARQ7jwxVLP0Q36a+vVT0eNPTp&#xA;vXjx+WZPj/u+Hq18HqtMwABQbDwzGbHYq7FXYq7FWndI0Z3PFFBLMegAwgWaCpbquqenphurKRW+&#xA;JVDijDrvmRgw3PhkGuc9rCNa8tkaJJZFWWWnBCdyT7ZSMcjZA2DPiCtkEuxV2KuxVJPMl1cIba2j&#xA;k9FZ2IkkrTYEDr4b75m6OANyIumnKTsELbCbTdYhtY7g3EMwHNfCte1T88tnWTGZEUQxHplVslzW&#xA;uQ7FXYq7FUr1DQLe7n+sJI0Ex+0y7g9q023zKxaowFVYa5YwTatpmkW+nhihLyv9qRutPAeGQzag&#xA;5OfJMICKOyhm7FXYq7FXYqo3V7a2iq9xII1Y8VJqan6MnDHKXIIMgOatkEuxVbKYxE5lp6YUl69O&#xA;NN64Y3e3NBSbSX0fndPboyW/wh2lp6XXalf45mZxkoA8/Lm1Q4d6bR9JXXHEqOLxmHpvJupJ6caf&#xA;hXEjJ4W30r6eLzTrMJudirsVdiqGv9Ptr6H0pwaA1VhswPtlmLLKBsMZRB5ofT9BsrKX1U5SS9FZ&#xA;6bV8AAMsy6qUxXRjHGAmOY7YtkkSONpJDxRASzHsBhAJNBSWoZo5olljPKNxVT7HGUSDRQDa/Al2&#xA;KuxV2KuxV2KuxVxrTbr2xViGuTavIiC+hWNAx9Mr3P3nNvpo4wfSbcXIZdU90ufWZJXF9CscYX4W&#xA;HXlXp1OYOaOMD0HdugZdUyzGbGmVWUqwDKwoVO4Iwg0qB1TTfrGnm1tgkdGBVacV2O/TL8GbhnxS&#xA;3YThYoIs28LemZEV2ipwYgEgjuK9Mp4zvXVlSpkUpZr+o3Fjao8FObvxJYV2oTmTpcQnKi15JEDZ&#xA;HWkzTWkMzABpI1cgdKsAcpyRqRHcWcTYVcgl2KuxV2KpV9X1eR57S5ZZLSZWCXAoGWvQcRT/AD75&#xA;lcWMASj9Q6NdS5Hk01vq8K29nZlUgjUepctQkmu4Cmv6sInjNylz7kVIbBNsxG12KuxVIvNN3cwL&#xA;bLBK0QcuW4EqTx403HzzO0WOMrsW05pEUm9jI8llbyOau8SMx8SVBOYmUVIgd7bE7K2QS7FXYqhd&#xA;Q023v40SfkAjcgVND8u+W4sxgbDGUAeaKypk7FXYq7FXYqsnjaSGSNWKM6lQ46gkUr9GSiaIKCGH&#xA;6ro1xYwpJJMJAzcQBXwr3zb4NQJmgKcWcCEw0rQboNa3f1miUSXgK1oQDx/hmPn1Ud415NkMZ2Ns&#xA;jzXN7sVdirsVSl9OltPrOoGZri7COYqjZRTpxqcyxmEqhVRauGrPVZHp0t9Da33rvb3nBebqNmHu&#xA;u3XCcwgTCriojdHqnOYba7FUDrNhNfWfowuEbkGPKoBArsaffl+nyiErLDJGwxTUtJudP9P1mRvV&#xA;5ceBJ+zStageObXDnjkuujjTgYou18s38scM6yxorhXU1bkARXw6/TlM9ZAEiiyGI82XZqXKdirs&#xA;VdirsVdirsVdirsVdiqHvrC2vYhHOCVU8hQ0IPTLMeWUDYYyiDzVo40jjWNBREAVR4ACgyBNmyyA&#xA;XYFdirsVdirsVdirsVdirsVS/V9IXUVirKYmiJoacgQ1K7VHhmRp9R4d7XbCcOJGwQrDBHCpJWNQ&#xA;gJ60UUymUrJPeyAoL8il2KuxV2KuxV2KuxVxIAqdgOpxVLW8xaSJfT9Wu9OYUlfvzJGkyVdNfixT&#xA;FWVlDKQysKgjcEHMcimxvArsVSO58y8Z3itbc3Cx15uCabdaUB298zoaPa5Gmk5d9gmOm6lDfwer&#xA;GCpU0dD1BzGzYTjNFshLiCLypk7FXYq7FXYq7FXYq7FXYq7FXYq7FXYq7FXYq7FUDrglOlXIiry4&#xA;70/lqOX/AAtcv01eILYZPpKRwSaF+hGWRV+thWrUfvOe/Gh8MzpDL4u30/Y0gx4fNNvLYlGlR+p0&#xA;5N6df5a/1rmJrK8Q024vpTTMVsdirFrS5utEkngktjJzNY5BtWnTehqM2mSEcwBBpxokw2pMfLdn&#xA;cQxTTzL6bXDArGdqAV3p2+1mPrMgJAHRsxRI3TjMNtdirsVdirsVdirsVdirsVdirsVdirsVdirs&#xA;VdirsVQDaDpLS+qbccq1oCQtf9UGmXjVZKq2HhxR4AUBVFANgB0Ayhm7FXYq7FXYq7FXYq7FXYq7&#xA;FXYq7FXYq8z/ADX/ADQ1Py5f2mhaFbrPq92qyM7qZOIdikaog+07sD/TfNjo9GMgMpfSGjLlI2HN&#xA;iv8AiH/nIn/lil/6RYP6Zk+FpO/7Sw4sihcfmb+cXlqW3u/MdjysJHCFJoEiVj1KrJEBxagNK/cc&#xA;I0mnybQO6PEnHm9w0jV7TVNHtdVtqm2u4VnjBHxAMtaEDuOhzTzxmMjE83KErFoe11qW5mMcdvtx&#xA;YrvXcAkV279MvnpxEWS0xyknkttn12W4QyD04QfjBVQKd/fDMYgNuaImZKxtEvZZS01zUVqG3J+4&#xA;0pkhqYgbBfBkTuU6AoAOuYTkOxV2KuxV2KuxV2KuxV2KuxV2KuxV2KuxV2KpR5g83eW/L0Ik1jUI&#xA;rSoqkTHlKw/yY15O30DLcWCc/pFsZTA5vA9Z82ab5o/OHQdT01ZRai80+FfXADEpcLUhQTRd83eP&#xA;CcenkDzo/c4hmJTBD2H82fMuu+XfKEmoaKlbozRxPPwEghjatZCpqv2gF3FN81WixRyZKlycnLIg&#xA;WHlXmLzV5g8y/k59d1sB5otWjihuggj9VBExLcVAXZiRVRTNliwxx6io/wA1x5SMob97138riR+X&#xA;mhkCp+qig+k5q9X/AHsve5GP6Qm1rqGoSSur2vFVViKAjcdBU9a4Z4oAbFjGcieSnDqmqPOita/A&#xA;zAH4WBp8yaZKWCAHNiMkr5NzarqKzMiWh4g0WqsSfpGCOCFWSk5JXyTZSxUFhxYgVXrQ+GYpbw3g&#xA;V2KuxV2KuxV2KuxV2KuxV2KuxV2KrZZY4o3llcRxxgs7sQFVQKkknoBiBavF/O352ahfXv6C8jRN&#xA;PPI3p/pBUMju3hbx0P8AwZHyHfNvp+zwBxZfl+txp5r2ig9I/JhFifX/AMxNX+rhiHmiaYcifCa4&#xA;cnc/ypX55Oev/hxD8e5Aw9ZFhnmPV/J+nfmBp+o+V4OWjaXLay8E5j1XgkEjlTL8W9KVPzzLxQyS&#xA;xET+o21SIErHJm9x/wA5JyPVYvLy+magiS6LVB9hEMwx2V/S+z9radR5Md8+/m/D5t8tLpA0j9Hu&#xA;k8cyuswlSiKwpx9OOn2sv02h8KfFdsMmXiFU9Q/J7zl5cvfKmmaPHexpqtpF6UtnIeEhKsd0B+2C&#xA;N/hr75rtdgmJmVekt+GYIp6JmA3OxV2KuxV2KuxV2KuxV2KuxV2KuxV2KuxV2Ku6Yq8G/MTzxrHn&#xA;bXl8meVKvZGT055kNBOyn4mZh0gTr79fDN1pdPHDHxJ8/wAfa4uSZkeEJ3MfKX5PaEojRdS81Xqd&#xA;WoGbsT3McIPQdWP3ikceql3QH4+bLbGPN5vb3c/nvWGvfN/mSHTrSI/CkhJIB34W8A+FRTqx/wCG&#xA;ObAxGGNY42fxzab4juXpugQ/kFoqL6V1ZXc60rcXhM7kjvR14Kf9VRmuyHVT6Ee5uj4YZXB+ZP5a&#xA;268INYs4l/lQcRt7BcxjpMx5gtniR70BqXmr8mdTjKahc6ZcgilZIwWFfBuPIfQcnDDqI8hIIMoH&#xA;ueZ+bvKH5VTq135X8yW9hdL8S2czu8LEfyyEGRD8+X0ZscGfONpxsNE4Q6FEfl5+d2oaZcJpPmiU&#xA;3lhyEaahXnLFvSrsK+qnv9r59MjquzxIcUNj3Jx5q2L36CeGeGOeCRZYZVDxyIQysrCoZSNiCM0h&#xA;FbFy1+BXYq7FXYq7FXYq7FXYq7FXYq7FXYqknmrzl5f8rWP1vV7j0+dRDboOU0pHZE/iaAdzl2HB&#xA;LIaiGMpiPN4z5t/PXV9esLnS9B017SK4Uxy3JYyT+m32uKoAEqNq1ObbB2dGBEpG3GnnJ2CT/lh+&#xA;YmheTIL8XekyzapOCFvEZSaKKpCUYKUXmKsQTXw2GW6vSyykUdmOLII9Ef5G8haj+ZOqah5j8x3M&#xA;0VlI5USw8VeSXb4I+auqxxrt09vHIajUjTxEIDdMIGZss3/6F08k/wDLdqf/ACNt/wDqhmH/ACpk&#xA;7o/b+tt/LxVY/wDnHnyKq0ae/kP8zTR1/wCFiAwHtPL5L+Xiu/6F88h/78vv+Ryf9U8f5Ty+S/l4&#xA;u/6F88h/78vv+Ryf9U8f5Ty+S/l4qT/847eR2YkXeooD+yssNB98JOH+VMndH8fFfy8UJqX/ADjl&#xA;5bNjN+jNQvUv+JNubl4ni5joHCRI1D4g7e+Sh2pO9wKQdOOiWfkl5v1DS9Xn8i63yjdHkFish3im&#xA;QkyQ16cWoWX3+eWdoYBKPix+LHDOjwl7fmncp2KuxV2KuxV2KuxV2KuxV2KuxVQv723sLG4vrluF&#xA;vaxPNM3gkalmP3DJRiZEAdUE0+ffKeg335qec73W9bd00m2ZecSkj4ST6VtGewAFWI3+lq5vM2Qa&#xA;bGIx+o/i3EhHxJWXv2maTpmlWi2mm2sVpbJ9mKFQg+Zp1Puc0c5mRsm3LAA5JV5u8i+XfNNk8GpW&#xA;y/WOJEN6gAnjPYq/UgfynbLcGonjNgsZwEubyX8s9U1XyP5/uPJWqycrK7l9OI78BMwrDKleglWi&#xA;keNPDNpq4RzYhkjzDj4yYy4S93nmjghaWQ0RBU5poxMjQcqRoWx6fXL6RyY2ESdlABP0k5sI6aI5&#xA;7uJLNIq9p5gdQVuRzoKqy7EnwPbK8mlH8LOOfvQ8uuX7vVHEa9lAB/WDlkdNAMDmkmGl6w08ggnA&#xA;Eh+w42r7HKM+n4RYbceW9imuYje8L/PrRpdI8waT5v0791PI6pNIOguLejwufdkFP9jm57NycUTj&#xA;Li5xRBD2nR9Sh1TSbLUoP7m9gjnQeAkUNQ/KuamcOGRB6OSDYtF5BLsVdirsVdirsVdirsVdirsV&#xA;Yl+bDyp+XWuGKvIwBTT+VpFDf8KTmVov72LXl+kpF/zj9HAvkItHT1HvJjMR15AIBX/YgZd2mT4v&#xA;wY4PpelZr252KvCfzsSKP8yvLk0Pw3bJbl+PX4bluDfPr92brs/+5lfLf7nFzfUHsuvBvqBp0Dry&#xA;+X+3mt0v1tmb6WN5snEdirsVVrLl9cg49fUWn35DJ9J9zKHMMvzUOe8//PWyS4/Lm9lYb2c1vMnz&#xA;Moi/VKczuzpVlHnbTnHpRX5MXj3P5caSX3aITQ19kmcL/wALQZHXxrMU4T6QzbMNtdirsVdirsVd&#xA;irsVdirsVdiqB1zSYNX0a90uc0ivYXgZh1XmpAYe6nfJ45mMhIdESFinhn5U+an8jeZNQ8qeZCLS&#xA;3mlp6r7JFcKOIYn/AH3KlPi+R6ZudZh8aAnDdxcUuE0X0ArK6hlIZWFVYbgg9xmjctB6zrWl6Np8&#xA;uoancJbWkIq0jmlT2VR1Zj2A3OTx45TNAWUEgCy8M8qi9/Mb81j5hkhaPSdMeOZQ24RIf954vDk7&#xA;jmw/1s3OasGDg/iP4Lix9c7e+zQpNE8T7q4oc0sZEGw5RFimJ3drJbTtFJ1HQ9iOxzawmJCw4Mo0&#xA;aUcmxdiqc6FYMX+tyCijaIHufHMPU5f4Q5GGHVPMwXJYB+el4kH5c30TdbuW3hT5iVZf1RHM7s6N&#xA;5R5W1Zz6VX8koJIfy30suKGVp5FHsZ3A++lcHaBvMfx0XD9LOswm12KuxV2KuxV2KuxV2KuxV2Ku&#xA;xViHn78s9D84wK85NpqcK8YL+MAtx68JF25r7VqOx65labVyxHbcdzXkxiTzaL8tvzo8vqbXQ9W9&#xA;ayB/dpDclFA8fTm4qp8eObA6vTz3kN/c0+HMcixH8xPK35habDa6l5sunu0uHaKJjOZhG1OXGn2U&#xA;5CtOPgcytLmxSsQFNeSMhuX0L5As/Ltv5T09vL8Qj064iWZSTydnYfGZG/acEUb5U6ZotTKZmePm&#xA;5eMCtmQ5QzQ99Yw3cXB9mH2HHUHLMeUwOzCcBIMZu7Ke1k4SrsfssOh+WbLHkEhYcOUDHmj9N0V5&#xA;CJrkcY+qx9z8/AZRm1FbRbceG9yn4AAAAoBsAMwHKdirw38/9bk1LWNK8pafWa4RxLPEu9Z56JAn&#xA;+txYn/ZDNz2bj4YnIfx3uLnlZAexeXtIi0fQrDSo6FbKCOHkP2iigM3+yO+anLPjkZd7kxFCkwyC&#xA;XYq7FXYq7FXYq7FXYq7FXYq7FXYq7FUl84+WLTzN5du9IuaL661glpUxyrvG4+R6+IqMuwZjjmJB&#xA;jOPEKeP/AJWedbryZrVz5M8zn6tbCYiGWQ/DBMfEn/dUuxDdO/Qk5tdZpxliMkNy42KfCeEvcxqF&#xA;gwBFzEQdwQ60p9+abhPc5Vu+vWP/AC0Rf8Gv9ceE9y2431ietxF/wa/1x4Sth316x/5aIv8Ag1/r&#xA;jwnuW3fXrH/loi/4Nf648J7ltjnnj8w9E8raRJdSTR3F84IsrJGBaR6bFqH4UH7Tfxy/T6WWSVdG&#xA;E8giHnf5M+UtQ1vW7jz7rtZHeR2seQp6kzVDy0/lT7Ke/wDq5n6/MIR8KPxasMCTxF7dmncl2Kux&#xA;V2KuxV2KuxV2KuxV2KuxV2KuxV2KuxVh/n/8stE84xxSTsbPUYPhjvolDMU/kdTTkvcb7ffmVptX&#xA;LFy3Hc15MYkwf/oWux/6v0v/AEjr/wBVMzf5VP8AN+1q/Lebv+ha7H/q/S/9I6/9VMf5VP8AN+1f&#xA;y3m7/oWux/6v0v8A0jr/ANVMf5VP837V/Lebv+ha7H/q/S/9I6/9VMf5VP8AN+1fy3m7/oWux/6v&#xA;0v8A0jr/ANVMf5VP837V/LeaJ07/AJxx0SC8ilvtVmu7ZCGe2WNYudP2S4ZyAe9N/cZGfakiNhSR&#xA;px3vXLe3gt4I7eBFigiUJFGooqqooAAOwGaskk2XIX4FdirsVdirsVdirsVdirsVdirsVdirsVdi&#xA;rsVdirsVdirsVdirsVdirsVdirsVdirsVdirsVdirsVdirsVdirsVWyepwPp05dq9MIrqqEc6h4b&#xA;f5NMuHAw3UWa87+oPvGSAj5I3WFpu5b6a5KghYWbuThpXVPjirWFW6nxwK2GfsTjSrg0/Yt9FcFB&#xA;VRWve3P8f45EiKd1aM6h4VH+VTIHgSLRi1oOXXvTplJZuxV2KuxV2KuxV2KuxV2KuxV2KuxV2Kux&#xA;V2KuxV1Ae2KtcV8BjatgAdBirsVdirsVdirsVdirsVdirsVdirsVdirsVdirsVdirsVdirsVdirs&#xA;VdirsVdirsVdirsVdirsVdirsVdirsVdirsVdirsVdirsVdirsVdirsVdirsVdirsVdirsVdirsV&#xA;dirsVdirsVdirsVdirsVdirsVdirsVdirsVdirsVdirsVdirsVdirsVdirsVdirsVdirsVdirsVd&#xA;irsVdirsVdirsVdirsVdirsVdirsVdirsVdirsVdirsVdirsVdirsVdirsVdiqC1iKaSyZYmVDUF&#xA;maaS3AUdf3kfxDLcJAlv91/exlyYPa3ddP06VmtXVoH+tTi5mMnqNCsrGR1Ussv7mtATuKZtJQ9U&#xA;hvz22HfXy3cYHYJ/qGo6tFY29s8sNs7xKZ7mWeOOZwdiIg6oA1OrFRQ9BmJjxwMiaJ35Vt8W2UjV&#xA;KOlX8lrdLDYtbmykKj6i15HK4YmhaFqsd+pRup6Ed5ZcYkLlfF38P3/rRGVHbl71l5cRXWrtG2s3&#xA;As7B/UdwluwFw3IIkdIDUIA3ItXencYYRMYfQOKXv5f6bqpNnnyR2i3iajp/rNeXV8Z7ZWlsGEC8&#xA;fUAJCyJFbbjpXllWaHBKqEaPPf8AWWUDY52gNSu5E0+1vpru8j0yMCRZ+MDyJNG5CrKArH4vs8gS&#xA;D38cuxwuRiBHi+PLyYSO170jNVTU18v2f1mZprppYWuXQOAARVl/0cBuIPhlWIw8Q0KFGvwWUr4R&#xA;aRWUk7XZETOzpqFuqhTfEiP1IS4/efBx4lq8+1fbMuYFb/zT/N8/xs1jn8fNk94Yhq0vrLLGn1SR&#xA;5PSk+GaKMgUK7FWUv8JUg5gwvgFV9Xybjz+ChpttMNTguILG7tbUQy+qbidJA5bgY6KJ5t9j2GSy&#xA;SHCQZRJsch/x0IiN+RSu4uLu4uTLBBOEuJ3ijQeg/wC9UMzISt8oqOB7DMiMQBRI2Hny/wBIwJJ/&#xA;H7U50JTf6HBb3YnR7cCOSVJyheSOqvSS3lLGh61OYuc8GQkVv5foIbIbx3S+SCK21S9SYX8unwiL&#xA;97Fe3bGLkpLFkEnMr7itPCmXCRlAVw8Rv+GO/wBjCqJ517yye0WFbaIQszw8QY3Z2kJU7gl3LM30&#xA;nMGZN7824clXIpdirsVdirsVdirsVdiqG1K1FzasggguJFIaKO5FY+Q2qdm7E9ssxy4TzI9zGQsJ&#xA;OfK1w9jZ20l6CumrAbJFiAjEsCgepKCWL1IOwIoD475kfmgJEgfVd79D3MPD2AvkrX2jajc6bb2j&#xA;zRSvy5Xryhj6iluRjUg1C12/1dsjDNGMiaPkkwJFL4NJ1GPVY755rcxlfTnt44mQcRUo6ku45Kx7&#xA;KNq+2CWWJhw0fff7FETdr2sNSg1Ce4sBbrFMkSBJOQp6ZcnZBT9vB4kTECV7X+hPCQdlmm2eu2em&#xA;R2XO2JtrZYbeQCT7aKFVnHhtU0w5J45T4t9zZRESApAp5a1S3kj4zQ6hFB/vOl3zURk15NwjrGzb&#xA;/aIy06mBHIxvnX4tj4ZHmif0Fffo6K0V4UWORmVA1xxVT9lUKSRMAKnYkjIePHi4t/s/UU8BqkHb&#xA;+U7+F5XE8LGWT1Nzdih4gU2n3+z3yyWria2P+x/4lAxn8X+tNNQ0Wa9u4p2umhVIHhljiWnMuQd2&#xA;JNFqvTv45RjzCIIq97ZyhZajsdcdrVbi4gSG2YOfRWQNIVQqoarABankRv0xM8YugbPeipIC48ni&#xA;7vI5r1o7ks3qXc9DG5IRkCRIuyDcHkWLbZdHWcMajt3ft/FMTis7pzpllPZQfVnmWWCKi21IxGyo&#xA;BTi3H4TTxCjMXLMSN1v1bIitm7a0ki1C8uGKlLj0+AFajgtDXbGUwYgd1qBuUXlbJ2KuxV2KuxV2&#xA;KuxV2KuxV2KuxV2KuxV2KuxV2KuxV2KuxV2KuxV2KuxV2KuxV2KuxV2KuxV2KuxVjzeZ52uT9Wtx&#xA;c2qySlmjZA31eBeDy8pXiQfv/hFT9lTmZ+VFbmjt8z02B6NXib7K1x5mEVlc3H1SWOS1mSF7eUxl&#xA;3ZgrFYvRaUM/BthXrkY6a5AWNxf9t0k5NuSGh83M7WifVHeSaULOsSmRVWS3a4jVWqAz8OHLt1yZ&#xA;0lXvyH6a/WxGXkn9ndRXdpBdQ1MNxGssZIoeLqGFR8jmJOJiSDzDaDYtVyKUq1PUtXs3Ux2dvLBJ&#xA;LHDE7XLo5MjBQWUQOBuf5jmRixwlzJuu79rCUiOiMtZdSKSG7t4o2X+7WCZpeXzLxw0yuQj0J+Ir&#xA;9JSL6ob9Jap/1aZv+Rtv/wBVMn4cP5w+R/UjiPct1PWZbO1t2FrI13cOoW1VfVYKGHqk+mSPhSp6&#xA;4cWESJ32HX7llOghU822jNNcenK2mxwRTC4SGR6F0MrhyoIXjGUP05M6Q7Dbisir+H32x8UfB2ve&#xA;ZpNLkelt6kMajnLILpF5t0VXS2miNajfn12xwaYZBz3/AM3/AIoH7Fnk4fwf1N6B5ifU2jZlpHKp&#xA;4enBdcAw3IaeSNI9qEfPHPp+D+2P3XawyX+Cgj5ymFsz+nBJK0UcsYhd5VjDk8zcEKPTEairZb+T&#xA;F9avrt8u+2Pi7JkmvySaRJqEdsDxlEMKGSiSVkWLmHCn4eTdePbKDpwJ8JPT9rPj2ts6lrwu1tDY&#xA;2nrPG0oH1uWnFWCnf6t4sMfDx1dyr+qP+KXildUPn+xQ1XzJLp09pbTiyhnuR8Zlu+Kx/C7ciDGr&#xA;Mn7viG2+I0yWLTCYJHEQP6PPl5olkrbb5rLfzLcyXUUZW14y3DW5hWYm4UK7LyaPj/k164ZaYAE7&#xA;8r5bfNRk3ZDmG2uxV2KuxV2KrZYklieJ68JFKtQkGhFDQihGEGjalhZiittNuQAlraINSghoVQzT&#xA;PczpDAqjduC8iF8WFM2dmUh1PoPuFRsuPyHz/Sndwl1bxahFLdmztGmWRLxviYRzD440JOzB68T2&#xA;BFBmLEgmJAs1y9zYbFsYgjS0h017a+mjuiyST2qxiVoWSweFCVEcjioCrQ169MzpHiMrArvur9V9&#xA;4aRtVH8UyfSdLsLvR9OkD3SotrDGqpczw0CIBRlieNeQ77Zg5csozkNuZ6A/e3RiCAi49CskdXWW&#xA;7JUggNeXbCo33VpSD8jlZzyP83/Sx/UngHn8ykWo6TpuqXL/AFKyUxWvrSXNyEp6swRlWJD1ajty&#xA;YjaoAzLx5ZYx6jzqh3Dva5REuQROiXeiQJGNPtvVuBah7p7dKsCCg4N0+JixNPY5XnhkP1Ha9r+K&#xA;YGI5Jl+m/wDlwvP+RX9uU+D/AEo/Nnx+RQGqSPeXOnSLDdwhWmDCMBJR8A33NKHLcQ4RIXE8vcxl&#xA;uRzS24tvqHlOGMyG3lvNL+qvpzKeT3DQhV4L1V+b0fbfv0y+MuPMTzqd35X93cwIqPwX+aI5U1y3&#xA;4vJIk1vMxR2YqhBjT93SC64fCzbhR/rdBg0pBxnyI/T/AEo/jonJ9X4/UV/liNf0jeSyu0QtYYG4&#xA;q7qpDeqpMgMFpy2jG5U9OuDUn0gDqT+jl6pLj5n8foCVRSvNbPJK9xHBcz23rH0XEUoNrDHJXiFe&#xA;T94jfCDTxy8ijQqwD13HqPy2YA/j4JhaCMWN1bQys0J1G2gt4yrxoiIsVzIVjfdKLzNOm2wymf1A&#xA;kb8BJ+0Dfr0ZDl8VWSPQS91qctlElpJF6GnoYF5zuOTM6Jx5HkSoXappXocAOTaIJu7O/L8dU+nn&#xA;Td9p18H8vpJObWO1Cxxsm7eqtpMzM69wvpKOPcFhgx5I+va7+7iH6/uWUTt+OiFsbkDXTWdzaKID&#xA;FW81B15epJyoG2Y0C8lb4enicsnH93y33/hh5fjvYg+r9pZtmrcl2KuxV//Z</xmpGImg:image>
               </rdf:li>
            </rdf:Alt>
         </xmp:Thumbnails>
         <xmpTPg:MaxPageSize rdf:parseType="Resource">
            <stDim:w>1080.000000</stDim:w>
            <stDim:h>1080.000000</stDim:h>
            <stDim:unit>Pixels</stDim:unit>
         </xmpTPg:MaxPageSize>
         <xmpTPg:NPages>1</xmpTPg:NPages>
         <xmpTPg:HasVisibleTransparency>False</xmpTPg:HasVisibleTransparency>
         <xmpTPg:HasVisibleOverprint>False</xmpTPg:HasVisibleOverprint>
         <xmpTPg:PlateNames>
            <rdf:Seq>
               <rdf:li>Cyan</rdf:li>
               <rdf:li>Magenta</rdf:li>
               <rdf:li>Yellow</rdf:li>
            </rdf:Seq>
         </xmpTPg:PlateNames>
         <xmpTPg:SwatchGroups>
            <rdf:Seq>
               <rdf:li rdf:parseType="Resource">
                  <xmpG:groupName>默认色板组</xmpG:groupName>
                  <xmpG:groupType>0</xmpG:groupType>
               </rdf:li>
            </rdf:Seq>
         </xmpTPg:SwatchGroups>
         <dc:format>image/svg+xml</dc:format>
      </rdf:Description>
   </rdf:RDF>
</x:xmpmeta>
                                                                                                    
                                                                                                    
                                                                                                    
                                                                                                    
                                                                                                    
                                                                                                    
                                                                                                    
                                                                                                    
                                                                                                    
                                                                                                    
                                                                                                    
                                                                                                    
                                                                                                    
                                                                                                    
                                                                                                    
                                                                                                    
                                                                                                    
                                                                                                    
                                                                                                    
                                                                                                    
                           
<?xpacket end="w"?>
	</metadata>
<g>
	<path id="椭圆_1" fill="#E5EBFF" d="M539.9,1123c102.4,0,185.5,7.1,185.5,15.9c0,8.7-83.1,15.9-185.5,15.9s-185.5-7.1-185.5-15.9
		C354.4,1130.1,437.5,1123,539.9,1123z"/>
	<g>
		<g enable-background="new    ">
			<path fill="#7791E5" d="M346,1346.7c-3.3,1.1-7,2.2-10.6,3.2v12.7c0,3.2-1.6,4.8-4.6,4.8h-6l-0.6-2.9c2.1,0.2,4,0.2,5.7,0.2
				s2.7-1,2.7-3v-11.3c-3.5,0.8-7.3,1.6-11.6,2.2l-0.5-3c4.3-0.6,8.3-1.4,12.1-2.4v-11.6h-11.9v-2.9h11.9v-8.7
				c-3.2,0.6-6.4,1.3-9.7,1.6l-0.6-2.9c7.9-1,14.9-2.5,21.1-4.9l1.1,2.9c-2.9,1-5.7,1.9-8.9,2.7v9.4h14.6c-0.3-4.4-0.6-9.5-0.6-15.4
				h3c0,5.9,0.2,11,0.5,15.4h17.5v2.9h-17.3c0.5,4.3,1,7.9,1.6,10.8c0.5,1.6,0.8,3.2,1.3,4.6c3-3.5,5.6-7.5,7.6-11.9l2.5,1.4
				c-2.5,5.4-5.6,9.8-9.2,13.7c0.8,2.1,1.7,4,2.9,5.6c1.9,2.9,3.5,4.1,4.6,4.1c1.3,0,2.5-3.3,3.5-10l2.7,1.4
				c-1.3,7.8-3.2,11.8-5.7,11.8c-2.2,0-4.4-1.7-7-5.1c-1.1-1.6-2.2-3.5-3.2-5.7c-4.1,3.8-8.9,6.8-14.1,8.9l-1.7-2.5
				c5.6-2.1,10.5-5.2,14.6-9.2c-0.6-1.9-1.3-4.1-1.9-6.5c-0.8-3.2-1.3-6.8-1.7-11.3H335v11c3.8-1,7.3-2.1,10.6-3.2v3.3h0.4V1346.7z
				 M358.4,1318.5c4,2.7,7.5,5.6,10.2,8.4l-2.1,2.1c-2.5-2.7-5.9-5.4-10.2-8.6L358.4,1318.5z"/>
			<path fill="#7791E5" d="M402.1,1317.7c7.1,8.1,15.2,14.5,24.5,19.1l-1.6,2.9c-9.5-5.1-17.5-11.4-24-19.2
				c-6.2,7.5-14.1,14-24.3,19.4l-1.6-2.9c9.8-5.1,18.1-11.4,24.6-19.2h2.4V1317.7z M378.9,1346.3h44.3v3h-26.4
				c-2.9,5.6-6.4,10.6-10.5,14.9c10.2-0.5,19.5-1.4,28.1-2.7c-2.4-3.2-4.6-6-6.8-8.4l2.4-1.4c5.1,5.7,9.1,10.8,11.6,14.9l-2.4,1.7
				c-1-1.6-2.1-3.3-3.2-4.8c-8.3,1.4-19.4,2.5-33.2,3.5l-0.8-2.7c0.6-0.2,1.3-0.5,1.6-0.8c4.1-4.6,7.5-9.4,10-14.3H379v-3h-0.1
				V1346.3z M387.6,1335h27v2.9h-27V1335z"/>
			<path fill="#7791E5" d="M440.2,1344.8c-2.4,2.5-4.9,4.9-7.5,7.1l-1.9-2.4c7.3-6,13-13,17-21h-15.1v-3h16.5c1.1-2.5,2.1-5.2,3-8.3
				l3,0.3c-0.6,2.5-1.6,5.1-2.9,7.9H481v3h-29.9c-2.2,4.6-4.9,8.9-7.9,12.7v27.3h-3V1344.8z M448.8,1343.9H462v-10.8h3v10.8h13.5v3
				H465v16.7h16.2v3h-34.8v-3h15.7v-16.7h-13.2v-3H448.8z"/>
			<path fill="#7791E5" d="M523.9,1367.4c-1.9,0-5.1,0-9.8-0.2c-3.7-0.2-6.5-0.5-8.6-1.1c-2.2-0.6-4.1-2.1-5.9-4.1
				c-0.6-1-1.4-1.4-2.1-1.4c-1.6,0-4,2.5-7.1,7.8l-2.2-2.1c3.2-4.9,5.9-7.8,8.1-8.6v-17.8H488v-2.9h11.1v20.8
				c0.6,0.3,1.3,0.8,1.7,1.4c1.3,1.6,2.9,2.9,4.4,3.7c1.7,0.6,4.3,1.1,7.5,1.1c3.7,0,7.3,0.2,10.6,0.2h7.8l6-0.2l-0.8,3h-12.5v0.4
				H523.9z M491,1318.8c3.8,2.9,7,5.6,9.7,8.4l-2.1,2.1c-2.4-2.7-5.6-5.6-9.7-8.6L491,1318.8z M504.3,1326.1h14
				c-0.8-3.2-1.7-5.7-2.7-7.9l3.2-0.5c1,2.5,1.7,5.4,2.7,8.6H536v3h-5.4c-1.6,6.2-3.8,11.8-6.8,16.4c4.4,3.8,8.4,7.8,12.2,11.8
				l-2.2,2.2c-3.5-4-7.3-7.8-11.6-11.8c-4.4,5.6-10.2,9.7-17.2,12.1l-1.6-2.7c6.8-2.4,12.4-6,16.5-11.3c-4-3.5-8.4-7-13.2-10.6
				l2.1-2.1c4.6,3.3,8.9,6.8,12.9,10.2c2.9-4.1,4.8-8.9,6.2-14.5h-23.2v-2.9L504.3,1326.1L504.3,1326.1z"/>
			<path fill="#7791E5" d="M566.3,1345.1h-17.6v-25.3h38.1v25.3h-17.5v7.3h20.5v2.9h-20.5v7.9H592v3h-48.6v-3h22.9v-7.9h-20.5v-2.9
				h20.5L566.3,1345.1L566.3,1345.1z M566.3,1322.8h-14.6v8.4h14.6V1322.8z M551.5,1334v8.4h14.6v-8.4H551.5z M583.8,1331.2v-8.4
				h-14.6v8.4H583.8z M569.1,1342.3h14.6v-8.4h-14.6V1342.3z"/>
			<path fill="#7791E5" d="M598.1,1335h11.4v25.7c2.2-1.6,4.8-3.8,7.6-6.4l0.8,3.2c-3.3,3-7,5.9-11.1,8.4l-1.1-2.7
				c0.6-0.6,1-1.4,1-2.1v-23.3h-8.6L598.1,1335L598.1,1335z M604.1,1318.3c3.8,2.9,7,5.9,9.7,8.9l-2.1,2.1c-2.5-2.9-5.9-5.9-9.8-8.9
				L604.1,1318.3z M648.9,1352.9c-0.3,5.7-1.1,9.4-2.2,11.1c-1,1.6-3,2.5-6,2.5h-14.3c-3.3,0-4.9-1.7-4.9-5.2v-23.7h19.9v-14.1
				h-22.9v-2.9h25.7v19.9h-19.9v19.9c0,2.2,1,3.2,3,3.3H640c2.2,0,3.7-0.8,4.4-2.4c0.6-1.4,1.1-4.4,1.3-9.2L648.9,1352.9z"/>
			<path fill="#7791E5" d="M660.8,1319.9h31.6v18.1h10.2v2.9H680v6.7c1.3,1.6,2.9,3.2,4.8,4.9c4.1-2.2,7.8-5.6,10.8-9.8l2.4,1.9
				c-3.2,4.1-6.8,7.3-11.1,9.5c4.6,3.8,9.8,7,15.9,9.5l-1.6,2.5c-8.9-4.1-15.9-9.2-21.1-15.4v12.7c0,3-1.3,4.4-4,4.4h-6.4l-0.6-2.9
				c2.9,0.2,4.8,0.2,5.9,0.2c1.3,0,2.1-0.8,2.1-2.5v-11.8c-5.9,5.6-12.9,10.5-21.1,14.8l-1.3-2.9c8.7-4.1,16-9.2,22.4-15.2v-7.3
				h-21.8v-2.9h34v-6.2h-26.7v-2.7h26.7v-6.5h-28.6v-2.1h0.1V1319.9z M660.8,1343.7c3.5,2.4,6.4,4.8,8.7,7.1l-2.1,2.1
				c-2.2-2.2-5.1-4.6-8.7-7.1L660.8,1343.7z"/>
			<path fill="#7791E5" d="M709.9,1320.8H759v3h-24.5v9.2c7,3.7,14.1,7.8,21.3,12.5l-1.7,2.7c-7.6-5.2-14.1-9.2-19.5-12.1v32.2h-3
				v-44.6H710L709.9,1320.8L709.9,1320.8z"/>
		</g>
		<g enable-background="new    ">
			<path fill="#7791E5" d="M271.7,1446c-1.7,2.7-4.1,5.6-6.7,8.4l-1-3.2c6.2-7.1,10.6-15.1,13.3-24l2.9,1.3
				c-1.4,4.4-3.2,8.6-5.4,12.5v37h-3L271.7,1446L271.7,1446z M287.6,1437.4c-1.7,4.4-4,8.4-6.5,12.2l-2.5-1.6
				c4.3-6.2,7.5-13.2,9.4-21l2.9,0.6c-0.6,2.4-1.4,4.6-2.2,6.8h24v2.1c-1,3.5-2.1,6.8-3.7,10.2l-2.9-0.8c1.4-2.4,2.5-5.2,3.5-8.6
				L287.6,1437.4L287.6,1437.4z M289.8,1450.6c-2.1,7.8-4.8,14.6-7.9,20.5l-2.9-1.1c3.2-5.2,5.9-12.1,8.1-20.2L289.8,1450.6z
				 M287.6,1477.8l-0.6-2.9c3.3,0.2,5.6,0.2,7,0.2s2.2-0.8,2.2-2.2v-30.2h2.9v31c0,2.7-1.4,4.1-4.1,4.1H287.6L287.6,1477.8z
				 M306.3,1449.5c3,6.7,5.6,13.7,7.8,21.4l-2.7,1.3c-2.4-8.3-4.9-15.4-7.8-21.8L306.3,1449.5z"/>
			<path fill="#7791E5" d="M339.8,1429.8c-2.4,3.7-4.8,6.7-7.1,9.1c0,0,0,0-0.2,0c0.5,0.8,0.8,1.7,1.1,2.5
				c1.6,4.4,2.5,10.8,2.7,18.9c0,8.7-1.1,14-3.3,15.7c-1.3,1-3.2,1.4-5.6,1.4h-3.5l-1-2.9c1.7,0.2,2.9,0.2,3.7,0.2
				c2.1,0,3.5-0.3,4.3-1.1c1.6-1.6,2.4-6,2.4-13.5c0-3.2-0.2-5.7-0.3-7.8c-2.9,4.3-6.5,7.9-10.6,11l-1.7-2.5
				c5.1-3.3,9.1-7.5,11.9-12.4c-0.5-2.2-0.8-4.1-1.4-5.6c-0.3-0.8-0.6-1.6-1-2.1c-2.2,1.7-4.8,3.5-7.8,5.4l-1.7-2.5
				c3-1.6,5.7-3.3,8.1-5.4c-1.7-2.9-3.8-5.4-6.4-7.5l2.4-1.9c2.5,2.5,4.4,4.9,5.9,7.5c2.2-2.4,4.3-5.1,6.2-7.9L339.8,1429.8z
				 M341.1,1436.9h11.6v-9.2h3v9.2h11.8v21.8h-11.8v14c3.3-0.5,6.4-1,9.2-1.6c-0.8-2.7-1.7-5.6-3-8.6l2.4-0.8
				c1.9,4.4,3.7,9.8,5.2,16.2l-2.9,0.8c-0.5-1.7-0.8-3.3-1.3-4.8c-6.5,1.4-15.4,2.7-26.5,3.5l-0.5-3c5.2-0.3,10-0.6,14-1.3v-14.3
				h-11.8v-21.9L341.1,1436.9L341.1,1436.9z M352.8,1455.8v-16h-8.9v16H352.8z M364.6,1455.8v-16h-8.9v16H364.6z"/>
			<path fill="#7791E5" d="M376,1450.8h49.7v3H376V1450.8z"/>
			<path fill="#7791E5" d="M436.4,1430.8h39.4v3h-20v4c0,3.5-0.3,7-0.8,10.3h25.4v3h-17.6v20.6c0,1.7,1,2.7,2.7,2.7h7.6
				c1.6,0,2.7-0.3,3.3-1.1c0.8-0.8,1.4-3.5,1.7-7.9l2.9,1c-0.3,5.1-1.1,8.3-2.4,9.5c-1.1,1-2.7,1.4-4.9,1.4h-9.2
				c-3.2,0-4.8-1.6-4.8-4.9v-21.3h-5.2c-0.8,4.8-2.2,8.9-4.3,12.5c-3.3,6-8.9,10.8-16.7,14.1l-1.7-2.7c7.6-3.3,13-7.9,16.4-14
				c1.4-2.9,2.5-6.4,3.3-10.2h-18.9v-3H452c0.5-3.3,0.8-6.8,0.8-10.3v-4h-16.4L436.4,1430.8L436.4,1430.8z"/>
			<path fill="#7791E5" d="M487.5,1469h49.2v3h-49.2V1469z M492.6,1433.9h39.1v3h-39.1V1433.9L492.6,1433.9z"/>
			<path fill="#7791E5" d="M562,1437.3v37.3h-3v-3.3h-11.1v4.9H545v-38.9h4.9c1.1-3.2,1.9-6.5,2.5-10l3,0.3
				c-0.6,3.3-1.4,6.7-2.7,9.5h9.2L562,1437.3L562,1437.3z M547.9,1452.7h11.3v-12.4h-11.3V1452.7z M547.9,1468.6h11.3v-13.2h-11.3
				V1468.6z M590.7,1437.4c0,17.8-0.3,28.9-0.8,33.4s-3.2,6.7-7.8,6.7l-5.4-0.2l-0.8-2.9c2.2,0.2,4.1,0.2,5.9,0.2
				c3,0,4.8-1.6,5.2-4.9c0.5-3,0.6-12.9,0.8-29.2h-16.4c-1.6,3.7-3.5,7-5.6,9.7l-1.7-2.4c4-5.6,6.7-12.4,8.1-20.5l3,0.3
				c-0.6,3.7-1.6,6.8-2.5,9.7h17.9L590.7,1437.4L590.7,1437.4z M571.4,1450c4.3,4.8,7.5,8.7,9.7,12.2l-2.4,1.7
				c-2.2-3.7-5.4-7.8-9.7-12.4L571.4,1450z"/>
			<path fill="#7791E5" d="M599.6,1439h22.2v-5.9c-6,0.3-11.9,0.5-17.6,0.5l-1-2.7c15.4,0,28.1-1.1,38-3.3l1.4,2.5
				c-5.1,1.3-11.1,2.1-17.9,2.7v6.2h22.1v2.9h-18.9c4.1,4.9,10.8,8.7,20,11.4l-1.3,2.7c-10.3-3.5-17.6-8.3-21.9-14.1h-0.2v12.5h14.6
				v23.7h-3v-3.2h-26.4v3.2h-2.9v-23.7h14.6v-12.5h-0.2c-3.7,5.7-10.8,10.6-21.6,14.8l-1.6-2.5c10-3.5,16.8-7.6,20.3-12.2h-19.1
				v-2.9L599.6,1439L599.6,1439z M610.3,1463.3h26.4v-6.2h-26.4V1463.3z M610.3,1472.2h26.4v-6.2h-26.4V1472.2z"/>
			<path fill="#7791E5" d="M656.5,1430h16.4v16.7h-5.7v9.8h6.2v2.9h-6.2v11.6c2.1-0.6,4.6-1.6,7.6-2.5v3c-5.9,2.2-12.7,4.3-20.3,6.2
				l-0.8-3l3.2-0.8V1453h2.9v20l4.8-1.3v-25.1h-7.8V1430H656.5z M670,1443.6v-11h-10.6v11H670z M687,1427.7
				c-0.5,1.7-1.1,3.2-1.7,4.4h14.3v2.2c-2.1,4.8-4.9,9.1-8.7,12.7c3.8,3.2,8.4,5.7,14,7.5l-1.7,2.4c-5.7-1.9-10.5-4.4-14.3-7.9
				c-3.8,3.2-8.4,5.9-13.7,8.3l-1.9-2.4c5.2-2.2,9.8-4.8,13.5-7.8c-2.2-2.4-4.1-4.9-5.7-7.9c-1.6,1.9-3.3,3.7-5.2,5.1l-1.9-2.4
				c5.1-4,8.4-8.9,10.2-14.8L687,1427.7z M699.7,1457.8v20.2h-2.9v-2.5h-15.6v2.5h-2.9v-20.2H699.7z M681.3,1472.5h15.4v-12.1h-15.4
				V1472.5z M688.7,1445.4c3.2-3,5.7-6.5,7.6-10.3h-12.5c-0.3,0.5-0.6,1.1-1.1,1.7C684.3,1440.1,686.4,1442.8,688.7,1445.4z"/>
			<path fill="#7791E5" d="M758.3,1430.3v3h-41v17c-0.2,11.6-2.2,20.8-5.9,27.6l-2.4-2.1c3.3-6.2,5.1-14.8,5.2-25.6v-20
				L758.3,1430.3L758.3,1430.3z M755.6,1446.8c-0.2,14.6-0.8,23.3-2.1,26.2s-3.7,4.3-7,4.3c-1.7,0-4,0-6.5-0.2l-0.8-2.9
				c2.7,0,4.9,0.2,6.7,0.2c2.9-0.2,4.8-1.4,5.4-4.1c0.8-2.7,1.3-9.7,1.3-21h-13.8c-0.6,6.2-2.1,11.4-4.1,15.7
				c-2.9,5.4-7.5,9.7-14,12.7l-1.6-2.7c6.2-3,10.8-7.1,13.5-12.4c1.7-4,2.9-8.4,3.3-13.3h-13.5v-2.7h13.7c0-1.1,0.2-2.7,0.2-4.9
				v-5.4h3v5.4c0,1.7,0,3.3-0.2,4.9h16.5L755.6,1446.8L755.6,1446.8z"/>
			<path fill="#7791E5" d="M765.6,1443h8.4v-9.1c-2.4,0.5-4.9,0.8-7.9,1.1l-0.6-2.9c7.3-0.6,13.5-1.9,18.6-3.7l1.1,2.9
				c-2.9,0.8-5.6,1.6-8.4,2.1v9.7h7.8v2.9h-7.8v3.3c2.9,2.9,5.6,5.9,8.3,9.4l-1.7,2.5c-2.7-4-4.8-7-6.5-9.2v25.9H774v-26.5
				c-1.9,5.9-4.8,11.3-8.4,16.2l-1.3-3.3c4.4-5.4,7.6-11.6,9.4-18.4h-8.1L765.6,1443L765.6,1443z M786.4,1450.9h27.3v2.9h-12.5v8.3
				H812v2.7h-10.8v8.6H815v2.9h-31v-2.9h14.1v-8.6h-10.5v-2.7h10.5v-8.3h-11.9v-2.9H786.4z M789,1429.6h21.9v15.4H789V1429.6z
				 M808,1442.3v-10h-16v10H808z"/>
		</g>
	</g>
	<g>
		<path id="圆角矩形_2_1_" fill="#B8C9FF" d="M647.1,530.7h4c2.5,0,4.6,2.1,4.6,4.6v43c0,2.5-2.1,4.6-4.6,4.6h-4
			c-2.5,0-4.6-2.1-4.6-4.6v-43C642.5,532.8,644.6,530.7,647.1,530.7z M627.4,550.2H671c2.5,0,4.6,2.1,4.6,4.6v4
			c0,2.5-2.1,4.6-4.6,4.6h-43.5c-2.5,0-4.6-2.1-4.6-4.6v-4C622.8,552.3,624.9,550.2,627.4,550.2z M540.4,441.3h4
			c2.5,0,4.6,2.1,4.6,4.6v43c0,2.5-2.1,4.6-4.6,4.6h-4c-2.5,0-4.6-2.1-4.6-4.6v-43C535.8,443.3,537.9,441.3,540.4,441.3z
			 M520.5,460.8H564c2.5,0,4.6,2.1,4.6,4.6v3.8c0,2.5-2.1,4.6-4.6,4.6h-43.5c-2.5,0-4.6-2.1-4.6-4.6v-3.8
			C516.1,462.9,518.2,460.8,520.5,460.8z M482.7,576h9.8c2.5,0,4.6,2.1,4.6,4.6v65.9c0,2.5-2.1,4.6-4.6,4.6h-9.8
			c-2.5,0-4.6-2.1-4.6-4.6v-65.9C478.3,578,480.4,576,482.7,576L482.7,576z M454.5,604.2H521c2.5,0,4.6,2.1,4.6,4.6v9.5
			c0,2.5-2.1,4.6-4.6,4.6h-66.5c-2.5,0-4.6-2.1-4.6-4.6v-9.5C449.9,606.3,451.9,604.2,454.5,604.2z M875,548.8h6.8
			c2.5,0,4.6,2.1,4.6,4.6v55c0,2.5-2.1,4.6-4.6,4.6H875c-2.5,0-4.6-2.1-4.6-4.6v-55.1C870.4,550.7,872.5,548.8,875,548.8z
			 M850.9,572.8h55c2.5,0,4.6,2.1,4.6,4.6v6.8c0,2.5-2.1,4.6-4.6,4.6h-55c-2.5,0-4.6-2.1-4.6-4.6v-6.8
			C846.5,574.9,848.4,572.8,850.9,572.8z"/>
		<g id="形状_2">
			<path fill="#B8C9FF" d="M425.6,483.7c6.8,0,12.4,5.6,12.4,12.4v0.2c-0.2,6.8-5.6,12.2-12.4,12.2s-12.4-5.6-12.4-12.4
				C413.2,489.2,418.7,483.7,425.6,483.7 M239.1,520.4c4.9,0,9.1,4,9.1,9.1c0,4.9-4,9.1-9.1,9.1c-4.9,0-9.1-4-9.1-9.1
				C230.2,524.3,234.2,520.4,239.1,520.4 M802.9,671.3c6.8,0,12.4,5.6,12.4,12.4s-5.6,12.4-12.4,12.4c-3.3,0-6.4-1.3-8.7-3.7
				c-2.4-2.4-3.7-5.4-3.7-8.7C790.5,676.8,796.1,671.3,802.9,671.3 M193.5,696.4c6.2,0,11.3,5.1,11.3,11.3c0,6.2-5.1,11.3-11.3,11.3
				s-11.3-5.1-11.3-11.3c0-3,1.1-5.9,3.3-7.9C187.5,697.6,190.4,696.4,193.5,696.4L193.5,696.4L193.5,696.4 M425.6,471
				c-13.8,0-25.1,11.3-25.1,25.1c0,13.8,11.3,25.1,25.1,25.1l0,0c13.8,0,25.1-11.3,25.1-25.1l0,0l0,0
				C450.7,482.3,439.4,471,425.6,471L425.6,471z M239.1,507.7c-11.9,0-21.6,9.7-21.8,21.8c0,11.9,9.7,21.8,21.8,21.8l0,0
				c11.9,0,21.8-9.7,21.8-21.8S251.2,507.7,239.1,507.7L239.1,507.7z M802.9,658.6c-13.8,0-25.1,11.3-25.1,25.1
				c0,13.8,11.1,25.1,25.1,25.3c0,0,0,0,0.2,0c13.8,0,25.1-11.3,25.1-25.1l0,0C828,669.8,816.8,658.6,802.9,658.6L802.9,658.6z
				 M193.5,683.6L193.5,683.6C193.4,683.6,193.4,683.6,193.5,683.6c-13.3,0-24.1,10.8-24,24.1c0,13.2,10.8,24,24,24l0,0
				c13.3,0,24-10.8,24-24.1l0,0C217.5,694.4,206.7,683.6,193.5,683.6L193.5,683.6z"/>
		</g>
		<path id="圆角矩形_3" fill="#B8C9FF" d="M331.9,562.8h0.8c2.5,0,4.6,2.1,4.6,4.6v15.9c0,2.5-2.1,4.6-4.6,4.6h-0.8
			c-2.5,0-4.6-2.1-4.6-4.6v-15.9C327.4,564.8,329.5,562.8,331.9,562.8z M363.9,581c1.4,2.4,0.6,5.4-1.7,6.8l0,0l-13,7.5
			c-2.4,1.4-5.4,0.6-6.8-1.7l0,0c-1.4-2.4-0.6-5.4,1.7-6.8l13-7.5C359.5,577.9,362.5,578.7,363.9,581L363.9,581z M363.9,617.7
			c-1.4,2.4-4.4,3.2-6.8,1.9l0,0l-13-7.5c-2.4-1.4-3.2-4.4-1.7-6.8c1.4-2.4,4.4-3.2,6.8-1.9l0,0l13,7.5
			C364.6,612.3,365.4,615.4,363.9,617.7L363.9,617.7z M332.3,636.2c-2.7,0-4.9-2.2-4.9-5.1V616c0-2.7,2.2-5.1,4.9-5.1
			s4.9,2.2,5.1,4.9l0,0v15.1C337.3,633.9,335,636.2,332.3,636.2L332.3,636.2L332.3,636.2z M300.7,617.7c-1.4-2.4-0.6-5.4,1.7-6.8
			l0,0l13-7.5c2.4-1.3,5.4-0.5,6.8,1.9c1.3,2.4,0.5,5.4-1.7,6.7l-13,7.5C305.2,620.9,302.2,620.1,300.7,617.7L300.7,617.7z
			 M300.7,581c1.4-2.4,4.4-3.2,6.8-1.9l0,0l13,7.5c2.4,1.4,3.2,4.4,1.7,6.8c-1.4,2.4-4.3,3.2-6.7,1.7l-13-7.5
			C300.1,586.4,299.3,583.4,300.7,581L300.7,581z M780.5,482.4h1.3c2.4,0,4.4,1.9,4.4,4.4l0,0v17.6c0,2.4-1.9,4.4-4.4,4.4l0,0h-1.3
			c-2.4,0-4.4-1.9-4.4-4.4l0,0v-17.6C776.1,484.3,778.2,482.4,780.5,482.4L780.5,482.4z M813.7,502c1.4,2.5,0.6,5.7-1.9,7.3
			l-13.3,7.9c-2.4,1.4-5.4,0.6-6.8-1.7l-0.2-0.2c-1.4-2.5-0.6-5.7,1.9-7.3l13.3-7.9c2.4-1.4,5.4-0.6,6.8,1.7
			C813.6,501.8,813.6,501.8,813.7,502z M813.7,540.7c-1.3,2.4-4.3,3.3-6.8,2.1c0,0-0.2,0-0.2-0.2l-13.3-7.9
			c-2.4-1.6-3.3-4.8-1.9-7.3c1.3-2.4,4.3-3.3,6.8-2.1c0,0,0.2,0,0.2,0.2l13.3,7.9C814.2,535,815,538.2,813.7,540.7L813.7,540.7z
			 M781.2,560.1c-2.9,0-5.1-2.4-5.1-5.2V539c0-2.9,2.1-5.2,4.9-5.2c2.9-0.2,5.2,2.1,5.2,4.9c0,0.2,0,0.2,0,0.3v15.9
			C786.4,557.7,784,560.1,781.2,560.1L781.2,560.1z M748.8,540.7c-1.4-2.5-0.6-5.7,1.9-7.3l13.3-7.9c2.4-1.4,5.4-0.6,6.8,1.7
			c0,0,0,0.2,0.2,0.2c1.4,2.5,0.6,5.7-1.9,7.3l-13.3,7.9c-2.4,1.4-5.4,0.6-6.8-1.7C748.8,540.9,748.8,540.9,748.8,540.7L748.8,540.7
			z M748.8,502c1.3-2.4,4.3-3.3,6.8-2.1c0,0,0.2,0,0.2,0.2l13.3,7.9c2.4,1.6,3.3,4.8,1.9,7.3c-1.3,2.4-4.3,3.3-6.8,2.1
			c0,0-0.2,0-0.2-0.2l-13.3-7.9C748.1,507.5,747.3,504.3,748.8,502z"/>
	</g>
	<g>
		<path id="香水瓶" fill="#4156A3" d="M412.7,1012.9c-8.1,0.8-15.7,2.4-23.2,2.1c-32.6-1-60.4-27-64-59.4
			c-3.5-31.4,11.3-59.6,38.8-72.3c5.9-2.7,12.5-3.8,18.7-5.9c2.4-0.6,4.4-1.9,6-3.8c26.8-41.9,63.5-71,110.9-86.6
			c4.1-1.4,5.6-3.2,5.1-7.3c-0.3-4.3-0.3-8.7,0-13c0-13.2,10.8-23.8,24-23.8c0.2,0,0.3,0,0.5,0c14-0.2,28.1,0,42.1,0
			c13.2-0.5,24.1,9.7,24.6,22.9c0,0.6,0,1.1,0,1.7c0.2,16.4,0.2,32.6,0,48.9c0,3.5,1.1,4.9,4.4,6.2c51.6,20.6,84.2,58,94,112.8
			c9.1,50.8-6.5,94.7-42.9,131.3c-3.8,4-9.4,6-14.9,5.7c-58.4-0.2-116.9-0.2-175.5,0c-4.1,0.2-8.3-1.4-11.3-4.3
			c-15.2-14.1-27.2-31.3-35.3-50.3C414.1,1016.2,413.3,1014.5,412.7,1012.9z M427.2,1005.1c6.7,18.9,17.8,36.1,32.4,49.7
			c1.3,1.1,2.9,1.6,4.6,1.6c57.2,0,114.5,0,171.7,0c2.1-0.2,4-1,5.4-2.2c48.8-45.6,52.9-127.2,8.9-177.2c-1.6-1.7-3.7-2.7-6-3
			c-62.7-0.2-125.6-0.2-188.4,0c-1.9,0-3.7,0.6-4.9,1.9c-4.9,6-9.4,12.4-14,18.7c16.4,16.4,23.8,35.6,21.9,58
			C456.9,974.9,445.6,992.2,427.2,1005.1z M392.1,893.1c-28,0-51,23.7-51,52.4c0,30,22.6,53.8,51.1,53.8c27.6,0,50.8-24,51-52.6
			C443,917.3,420,893.1,392.1,893.1z M470.7,857.2h158.8C580.4,818.3,511.3,823.6,470.7,857.2L470.7,857.2z M580.1,816.6
			c0-17.2,0.2-33.5-0.2-50c-0.2-5.1-3.8-7.6-8.7-7.6c-13.5,0-27-0.2-40.7,0c-6.7,0-9.4,3-9.4,9.7c0,11.9,0,24,0,35.9v12.1
			C540.6,812.9,560.6,812.9,580.1,816.6z M504.8,802c-40.7,13.7-75.6,40.3-99.4,75.8l18.6,6.8c0.2-0.2,0.3-0.3,0.5-0.5
			c17.9-29.2,45.4-51.3,77.8-62.4c1.3-0.6,2.2-1.9,2.4-3.3C505,813.4,504.8,808.2,504.8,802z M559.5,774.3c6.7,0,12.2,5.4,12.2,12.1
			c0,6.7-5.4,12.2-12.1,12.2c-6.7,0.2-12.4-5.1-12.5-11.9s5.1-12.4,11.9-12.5C559.3,774.3,559.3,774.3,559.5,774.3z"/>
		<path id="喷雾" fill="#C2DAFF" d="M712.2,733.7c5.6,0.2,8.3,2.2,9.1,6.5c1,4.1-1.6,8.1-5.7,9.1l0,0c-5.7,1.4-11.4,2.5-17.3,3.2
			c-4.1,1-8.3-1.7-9.1-5.9c0-0.3-0.2-0.6-0.2-1.1c-0.6-4.1,2.2-7.9,6.4-8.6h0.2C701.4,735.6,707.3,734.6,712.2,733.7z M660.8,759.9
			c-4.8-0.2-7.9-2.2-8.6-6.8c-1-3.8,1.3-7.6,5.1-8.6c0.2,0,0.3,0,0.5-0.2c6-1.6,12.1-2.7,18.3-3.5c4.1-0.5,7.9,2.5,8.4,6.7l0,0
			c1,4-1.6,7.9-5.6,8.7C672.9,758,666.7,758.8,660.8,759.9L660.8,759.9z M668.6,778.6c2.9,0,5.9-0.2,8.7,0c4.3,0,7.9,3.5,8.1,7.9
			c0,4.1-3.3,7.6-7.5,7.8c-6,0.3-12.1,0.3-18.1,0c-4.4-0.2-6.7-3.3-7.1-7.5c-0.2-4.1,3-7.8,7.1-8.1
			C662.7,778.5,665.6,778.5,668.6,778.6L668.6,778.6L668.6,778.6z M706.7,794.3c-3.2,0.2-6.2,0.2-9.4,0c-4.3-0.5-7.3-4.3-6.8-8.6
			c0.5-3.7,3.3-6.5,7-6.8c6.2-0.3,12.5-0.3,18.7,0c4.3,0.5,7.3,4.3,7,8.6c-0.3,3.7-3.3,6.7-7,7C712.9,794.3,709.9,794.5,706.7,794.3
			L706.7,794.3z M636.8,748.1c6-0.3,9.7,2.2,10.3,6.2c1,4.3-1.9,8.6-6.2,9.4c-3.7,1-7.5,1.7-11.3,2.2c-4.3,0.5-8.3-2.7-8.7-7
			c-0.5-3.7,1.7-7.1,5.2-8.4C629.7,749.4,633.2,748.8,636.8,748.1L636.8,748.1z M633.8,794.3c-2.1,0.2-4.1,0.2-6.2,0
			c-3.8-0.3-6.7-3.7-6.5-7.5c-0.5-3.8,2.1-7.3,5.9-7.8h0.2c4.6-0.6,9.4-0.6,14,0c3.8,0.3,6.7,3.8,6.4,7.6c0,0.2,0,0.3,0,0.5
			c0,3.8-3,7-6.8,7.3C638.2,794.5,636,794.5,633.8,794.3L633.8,794.3L633.8,794.3z"/>
		<path id="爱心" fill="#C2DAFF" d="M551.5,920.3c5.1-7.9,13-13.7,22.2-16c20.2-5.2,41.1,8.7,45.3,29.7c2.7,14-0.8,26.4-8.1,38.1
			c-9.2,14.8-21.8,26.8-35.1,37.8c-6.4,5.2-13.2,9.8-19.7,14.8c-2.4,2.2-5.9,2.5-8.6,0.6c-23.3-16.5-45.3-34.6-58.8-60.5
			c-7.8-14.9-8.7-30.3,1.1-45.1c14.5-21.4,43.8-22.2,59.7-1.9C550.1,918.7,550.6,919.3,551.5,920.3z"/>
	</g>
</g>
</svg>
