<?xml version="1.0" encoding="utf-8"?>
<!-- Generator: Adobe Illustrator 22.1.0, SVG Export Plug-In . SVG Version: 6.00 Build 0)  -->
<svg version="1.1" id="图层_1" xmlns="http://www.w3.org/2000/svg" xmlns:xlink="http://www.w3.org/1999/xlink" x="0px" y="0px"
	 viewBox="0 0 60 60" style="enable-background:new 0 0 60 60;" xml:space="preserve">
<style type="text/css">
	.st0{fill:#40BA49;}
</style>
<path class="st0" d="M48.9,0.1H11.1c-6,0-11,5-11,11v37.9c0,6,5,11,11,11h37.9c6,0,11-5,11-11V11.1C59.9,5,55,0.1,48.9,0.1z
	 M30,47.5c-2.4,0-4.9-0.3-7.2-1c-0.6-0.2-1.3-0.1-1.9,0.2l-4.8,2.8c-0.1,0.1-0.3,0.1-0.4,0.1c0,0,0,0-0.1,0c-0.4,0-0.7-0.3-0.7-0.7
	c0-0.2,0.1-0.4,0.1-0.6l1-3.7c0.1-0.2,0.1-0.3,0.1-0.5c0-0.5-0.2-0.9-0.6-1.2c-4.7-3.4-7.7-8.4-7.7-14c0-10.2,9.9-18.5,22.1-18.5
	c7.5,0,14.1,3.1,18.1,7.8l-22.4,9.9c-0.7,0.2-1.4,0.1-2-0.2l-4.8-3.4c-0.1-0.1-0.2-0.1-0.4-0.1c-0.2-0.1-0.4,0.1-0.5,0.2
	c-0.1,0.1-0.2,0.3-0.2,0.5c0,0.1,0,0.2,0.1,0.3l4,8.8l0.1,0.2c0.4,0.7,1.3,1,2,0.6l0.1-0.1l25.4-14.5c1.7,2.5,2.5,5.5,2.5,8.5
	C52.1,39.3,42.2,47.5,30,47.5z"/>
</svg>
