<?xml version="1.0" encoding="utf-8"?>
<!-- Generator: Adobe Illustrator 18.0.0, SVG Export Plug-In . SVG Version: 6.00 Build 0)  -->
<!DOCTYPE svg PUBLIC "-//W3C//DTD SVG 1.1//EN" "http://www.w3.org/Graphics/SVG/1.1/DTD/svg11.dtd">
<svg version="1.1" id="图层_1" xmlns="http://www.w3.org/2000/svg" xmlns:xlink="http://www.w3.org/1999/xlink" x="0px" y="0px"
	 viewBox="0 420 1080 1080" enable-background="new 0 420 1080 1080" xml:space="preserve">
<metadata><?xpacket begin="﻿" id="W5M0MpCehiHzreSzNTczkc9d"?>
<x:xmpmeta xmlns:x="adobe:ns:meta/" x:xmptk="Adobe XMP Core 5.6-c011 79.156289, 2014/03/31-23:39:12        ">
   <rdf:RDF xmlns:rdf="http://www.w3.org/1999/02/22-rdf-syntax-ns#">
      <rdf:Description rdf:about=""
            xmlns:xmp="http://ns.adobe.com/xap/1.0/"
            xmlns:xmpGImg="http://ns.adobe.com/xap/1.0/g/img/"
            xmlns:xmpTPg="http://ns.adobe.com/xap/1.0/t/pg/"
            xmlns:stDim="http://ns.adobe.com/xap/1.0/sType/Dimensions#"
            xmlns:xmpG="http://ns.adobe.com/xap/1.0/g/"
            xmlns:dc="http://purl.org/dc/elements/1.1/">
         <xmp:CreatorTool>Adobe Illustrator CC 2014 (Windows)</xmp:CreatorTool>
         <xmp:CreateDate>2018-03-06T11:25:40+08:00</xmp:CreateDate>
         <xmp:Thumbnails>
            <rdf:Alt>
               <rdf:li rdf:parseType="Resource">
                  <xmpGImg:width>192</xmpGImg:width>
                  <xmpGImg:height>256</xmpGImg:height>
                  <xmpGImg:format>JPEG</xmpGImg:format>
                  <xmpGImg:image>/9j/4AAQSkZJRgABAgEASABIAAD/7QAsUGhvdG9zaG9wIDMuMAA4QklNA+0AAAAAABAASAAAAAEA&#xA;AQBIAAAAAQAB/+4ADkFkb2JlAGTAAAAAAf/bAIQABgQEBAUEBgUFBgkGBQYJCwgGBggLDAoKCwoK&#xA;DBAMDAwMDAwQDA4PEA8ODBMTFBQTExwbGxscHx8fHx8fHx8fHwEHBwcNDA0YEBAYGhURFRofHx8f&#xA;Hx8fHx8fHx8fHx8fHx8fHx8fHx8fHx8fHx8fHx8fHx8fHx8fHx8fHx8fHx8f/8AAEQgBAADAAwER&#xA;AAIRAQMRAf/EAaIAAAAHAQEBAQEAAAAAAAAAAAQFAwIGAQAHCAkKCwEAAgIDAQEBAQEAAAAAAAAA&#xA;AQACAwQFBgcICQoLEAACAQMDAgQCBgcDBAIGAnMBAgMRBAAFIRIxQVEGE2EicYEUMpGhBxWxQiPB&#xA;UtHhMxZi8CRygvElQzRTkqKyY3PCNUQnk6OzNhdUZHTD0uIIJoMJChgZhJRFRqS0VtNVKBry4/PE&#xA;1OT0ZXWFlaW1xdXl9WZ2hpamtsbW5vY3R1dnd4eXp7fH1+f3OEhYaHiImKi4yNjo+Ck5SVlpeYmZ&#xA;qbnJ2en5KjpKWmp6ipqqusra6voRAAICAQIDBQUEBQYECAMDbQEAAhEDBCESMUEFURNhIgZxgZEy&#xA;obHwFMHR4SNCFVJicvEzJDRDghaSUyWiY7LCB3PSNeJEgxdUkwgJChgZJjZFGidkdFU38qOzwygp&#xA;0+PzhJSktMTU5PRldYWVpbXF1eX1RlZmdoaWprbG1ub2R1dnd4eXp7fH1+f3OEhYaHiImKi4yNjo&#xA;+DlJWWl5iZmpucnZ6fkqOkpaanqKmqq6ytrq+v/aAAwDAQACEQMRAD8A9U4q7FXYq7FXYqsnnigh&#xA;aaVuMaCrHJRiZGggmm45EkjWRDVHAZT4giowEUaKQV2BXYq7FVO4uYLeP1JnEaVpybxOSjAyNBBI&#xA;CSfpxf03T6yPqHGn+TXjXw8czfy37rl6mnxPVz2Tu3uYLiP1IXEiVpyXxGYUoGJotwIKpkUuxVIP&#xA;MEks2oW1gZfRgkALt2JYkb/dmfpQBAzqyGjIbICjaI+ma5HZwzGWGUDmh7Vr1A7ilcnM+JiMiKIQ&#xA;PTKmS5rXIdirsVdirsVdirsVdirsVdirsVcemKpQtpq88dxZXzK8Lr+7uVoDyqCAV2/VmWZ44kSj&#xA;z7mqpHYr2h1hZYLW2ZYrSFEVpzxLNxABHHf9WASxkGUt5HompchyTTMVsdirsVUbuzt7uH0p15pU&#xA;EDoQR3BGTx5DA2ESiDzY/wDoKH9N+h6L/UuPLl8VPs/zf62Z/wCZPhXfqaPD9VdGQWlnb2kPpQLw&#xA;SpJHUknuScwMmQzNlvjEDkrZBLsVQepaVa36KJaq6fYkXqK9suw55Y+TCUBJR03QrSxkMqkyS9Az&#xA;U2B8AMnm1MpiuQRDGAmWYzY7FXYq7FXYq7FXYq7FXYq7FXYq41pt1xVJZbCbTra6vhO095woJGGw&#xA;BI/Z36ZmjKMkhCqi0mPCCeqoNNkuWttRSdre6dI2mAFVb4QSKVGR8YRuBFx3TwXR6ptmI2uxV2Ku&#xA;xV2KuxV2KuxVBvqkCaklgVb1HWoftWlafhlwwEw42HGLpGZSzdirsVdirsVdiq2SSONC8jhEHVmI&#xA;A+84QCeSktRTwzLyikWRfFCGH4YZRI5hANr8il2KuxV2KuxV2KuxVZPPDBE0szBI16sclGJkaCCa&#xA;W211b3MfqQOJErSo8R23xnAxNFQQeSrkUuxV2KuxV2KofUEvHtWWzcRz1FGPhXfscsxGIl6uTGV1&#xA;sxaWHVhrEcbyqb4gcJNqAUPt4e2bSMsfhkgelxyJcXmybTI9QjgIvpFkl5EqV7L9wzWZjAn0ig5E&#xA;Aa3ReVMnYq7FXYq7FWOa9xm1i2t7mQx2nEEnoKkmu/0UzY6XbGTEXJoybyAPJZZrDa+YEhsJDJA6&#xA;0lAPIdCaVHWnXJZCZYbmN0R2lsybNY5DsVdirsVdirsVWXE8UELzSnjGgqxyUYmRoIJpj+s65YXe&#xA;nvBCWMjFSKrQbGuZ+n004TstM8gIpS0HWLKys3inLB2kLCgrsVUfwyWq08pysdyMcwBuyO1uobqB&#xA;Z4W5Rt0PTptmunAxNFvBsKuRS7FXYq7FXYqh20+1a9W8KVnUcQ1TT7ssGWXDw9GPCLtEZWydirsV&#xA;dirsVdiqGvtOtL1AlwnLj9lhsw+RyzHllA7MZRB5rLDSbKxJMCHm2xdjVqeGSy55T5ojABJYp9b1&#xA;V5p7Wb0YojRI60r3A2G/05mSjixACQslqBlLcJpoOpS31oxm/vY24sw2qKVBzG1WEQltyLZjlYTL&#xA;MZsdirsVdiqnc28VzA8EorG4o1NjkoTMTYQRYpj2saDY2dg88RfmpUDkQRuaeGbDT6qU50WieMAW&#xA;p6FotnfWjyzFwyyFBxIAoFB8D45LU6iUJUO5GPGCGR2dpDaW6wQg8FrSpqdzXNdkyGZsuRGNClbI&#xA;JdirsVdirsVdirsVdiqFv9TtrH0vX5cZSQGUVAp45biwynddGMpgc0GZ5TrKTh2+o/Vy5ep9OlSa&#xA;+GXcI8Ov4uL4sL9V9KRdjqlrevKtvyIipVyKKa+HftlWXDKAF9WcZg8kXlLJ2KuxVIJfL17FNIbC&#xA;59KGX7aEsKA9tq1zPjq4kDjFkNBxHoUz0vTY7C29FW5sTyd+lTmNnzHJK22EeEIzKWTsVdirsVdi&#xA;qlc20NzC0My8o26jp037ZKEzE2EEW1aWdvaQ+lAvBKkkdSSe5Jw5MhmbKxiByVsgl2KuxVTuWkW3&#xA;laIcpVRii+LAbfjkoAEi+SDyYfpt/qB1GEiaR3kkAkQkkEE79/D7s2+bFDgOw5OLGRtmmaZy3Yq7&#xA;FXYql+s3kcECxtbm5eclUipUEjx6+OZGnxmRu6phOVLVuIxaiyMCi5MJcWf7NP5a9N8JgeLiv03z&#xA;Re1dW9GvY5o3gFv9VkgoHipQb+GOoxkG74gVxyvaqTHMZsdirsVdirsVdirsVdirsVdirsVdirsV&#xA;dirA/wA0PzQj8mJaQQWy3mo3nJxE7FVSJTTk1BX4jsvyOZuk0ni2SaAasuXhT7yR5vsvNfl+HVrZ&#xA;fSZiY7m3JqYpk+0tR1G4IPgcp1GA4p8JZQnxC07WCFXMixqrnq4ABP05UZEirZUvyKXYq7FXYq7F&#xA;UIdPB1Nb7maiP0+FPfrXLvF9HD5seHe0XlLJ2KuxV2KuxV2KuxV2KuxV2KuxV2KuxV2KrZJI442k&#xA;kYJGgLO7GgAAqSTiAr5fvxqX5nfmROtm3CKcstu7g8YrWAEKzDty6/6zZ0ca0+Hf8FwTc5Jt+Snm&#xA;W48uecZ/L2pVhh1BzbSRvt6d3ESqf8Eap86eGVa/EMmPjHT7mWGVSovozNC5jsVdirsVdirsVdir&#xA;sVdirsVdirsVdirsVdirsVdirsVdirsVdirBPzr1PUrDyBefUY2Y3TJbXMiivpwSV9Rj7GnD/ZZm&#xA;6CAllF9GrMSIpH+RflZNE8sXHmO+Qx3OogsnIEMlrETSgP8Avxhy9xxy/X5TkyCEen3sMI4Y8Reb&#xA;fmrYTJr3+IYKx/XZOUjJtwmXdSCOlVH4Zt8UBGIj3OJx2be9flz5uj80+VbXUiQLxP3F8g/ZnjA5&#xA;H5OCHHzznNVg8OZHTo7DHPiFsmzHZuxV2KuxV2KuxV2KuxV2KuxV2KuxV2KuxV2KuxV2KuxV2KqV&#xA;1dW1rA9xcyrDBGCzyOQqgAVJJPsMIBJoKS8f8r/m15l8yfmUmn6bGreXXaQeiYwHWCNT++Z/tKSa&#xA;GnTfj1za5tFDHhs/U40cplKhyel+Ybv4RaL0b4pR7dhmNpMf8Sc8ujzbzToUd/YXWnPsJVrA5/ZY&#xA;bo30Hrm8xzsW4B2LEPyT80y+XvN76LfEx2uqN9WkVuiXSEiI/Sap9I8Mxu0MHHDiHOP3OVgnRrvf&#xA;SWc+5rsVdirsVdirsVdirsVdirsVdirsVdirsVdiqX+Ydcs9C0W71e8DG2s4/UdUFWbcBVWtN2Yg&#xA;ZZixmchEdUSlQt45f/8AOSdyaiw0NE/leecvX5oiJ/xLNrHsodZOMdR5Meuvz4/MS+f07P6tau32&#xA;VtoObdO3qmXLx2diHOz8WBzyKHN/+eGuCqtrDxv+1EkltGajpVBEmS4dND+b96Lme9dF+TH5oanJ&#xA;6l7biNj/ALtu7lHP/CtK34YDr8MeR+QT4Mi9b/LH8vI/I+lXVzqEkU+rXP8AfTRVKJEv2YkLBSat&#xA;udhXbwzW6rUnPICPJvhDgFlHTzPPM8r/AGnNT/TMmMREUHFkbNpfqdv6kPqAfFHv9HfMjDKjTXMP&#xA;LfNv5f3+q6uLzSzEGuABNHI4jHqDbkCfh3FOvfMwzoWURPRQHkn86tFFbWPUIkX7P1O6Dggb/Zik&#xA;Ph0IzE/MaefOviHI4JhUHnf87dF2ujfoi9Rd2fMECo+3JHX6Q2P5fTz5V8CvHMIyz/5yH86QHhd2&#xA;llcgbNVJI3r81fj/AMLkJdmYzyJSNRJkui/85HWU91DBqmkNaxyMqvcwzCQLyNORRkTYd/izHydl&#xA;kC4m2Y1HeHsualyXYq7FXYq7FXYq7FXYq7FXYq7FUPqOnWWpWE9hfRCe0uUMc0TdGU/LcfPJQkYm&#xA;xzQRb5n8/fl/qnkPW4dQtVF3pBlD2VxNGsqhgaiGdGBUn6KMOncDodNqY5o0dpfjk4WTGYG+j13y&#xA;J+Yuk63pIbTrGCyvYFUXtnGAoU9OSqoFYyeh7dDmvy6IiXqJLb422wT+TXr9vslU/wBVf61yI0sA&#xA;wOaST+YPN6aPp73+pXbxwqeKqmzOx6KqilScux6eJNAMTkl3sb8v/mhoGv6gLFDPb3L19AXIUCSm&#xA;9AVZ/i9jmRLTmIthdsrypVsrxxxPJKwWNFLOzGgCgVJJPbEK82k/Mryp+kTbo9x9X5cfrZjHpjfr&#xA;Tlz4/wCxr7ZsAJVuGvhZrBZ3JjSa2uFMbgPG6MQCDuCCMoOWJ5hREog3GvW6F/rsgVfGRiPuOR4M&#xA;UtuEfJlxTHVhPn78yLmztmsFaG81CVaH14YZhEpH2jzVvi/lH0n3sjo8fMCviUjLI9UV+Tn5TMzR&#xA;eZvMUGxpJptlINyTuJ5FP/CA/PwzC12t/gh8f1ORhxdS9vzTuU7FXYq7FXYq7FXYq7FXYq7FXYq7&#xA;FUNqemWGqWE+n6hAtxZ3ClJoXGxH8COoI6ZKEzE2OaCLfN3nPyZ5g/LjzBFqulSu2ms5+p3lK0r1&#xA;gnHQ1H0MPpA6DT6iOeNH6vxuHCnAwPk9H8n+cNP8zaf68FIb2ED65Z1qUJ25LXdo2PQ9uh96ZwMD&#xA;RY+YSX82NB1LVNFtprCNrh7KUySWyAlmRlpUKNyV8B45bp5gHdiWLWMeq+avN2kXUGi/om20wxNP&#xA;KqlV4xOH+0VQb04qu+XGoRIu7V7DmElL/MFhNqGhX9jCQs1zbyRRk7DkykCvtXJQNEFXjFNbHl7/&#xA;AAl/hx/r5n5m89NvUry5fy06bcuVOP35m7cXFezF7HoFk+keXrGzun5SWsCRytWo5AbgewOwzDl6&#xA;pbJ5MJ/MD8wfqQaxsWDXzDtuIQf2m8X8B/mczFiEWHNW/KH8qX1SSPzR5kjZ7Yt6ljaS1JnbqJpa&#xA;9U/lH7XX7P2sHXa3h9EOfUuVhxXuXvOaRy3Yq7FXYq7FXYq7FXYq7FXYq7FXYq7FXYqhNV0qw1bT&#xA;p9O1CET2dyhSWJu4PcHsR1BHQ5KEzE2OaCLFPmrzh5T1/wDLXzLBfafOxs5GY6febHko+1DMvQmh&#xA;oR0YfcOhwZ454UefVwpwMC9g8vX0mteWLDXlg9CO9RucVSeDo7RtSu/EslV9sxDKpmB5hTHa+iLy&#xA;TBZNPDCnOaRYk6cnIUVPucQFbjkjkQPGwdG3VlIII9iMVdJIscbO2yqKnCBZpBLz38xvNt9p1hH9&#xA;VHGW6ZkjftGAN29232zOxYwGF2g/ye/K069NH5l1xRJpSuzW1u/xG5kViGZ/8hXBrX7R9uuHrtZw&#xA;eiP1fc5OHFe55PoUAKAAKAbADpTNE5jsVdirsVdirsVdirsVdirsVdirsVdirsVdirsVeEf85Jah&#xA;y1DRNPB/uYZrhh/xlZUX/k0c3XZUdpFxdQdwHpWhWf6N/LzRrKlG+q24kH+WyCR/+GrmGDxZyfey&#xA;ntABD5mOM821f8sdd17XLu71XVwtn6jGyRQ0hWNjVVCEqqBa071zJjnERQCKRXlT8v8AX/LmvxyW&#xA;+qCbRmVzcQkMhY0IUGOrLUE15V7YMmYSHLdaZ1dpztpV/wAk0+jfKYGpBTyeYfmhbep5fjmA3gnU&#xA;k/5LKyn8SM2MWuLP/wDnH6++seQzATvZ3k0QHcBgsv65Dmi7TjWW+8OwwH0vSs17c7FXYq7FXYq7&#xA;FXYq7FXYq7FXYq7FXYq7FXYq7FXzb+cTPrX5rrpaEkp9UsEoa7y0eg/2U2dBofRg4veXCzbzp7v5&#xA;hKpFbwIKKKkL4AAAZrNINyW3OeQSRmVVLMQFAqSdgAMzXGYdr35qeWdKkMMLtqFwpoy29Ci/OQ/D&#xA;91cuhgkfJFpj5d89+XNdCpa3Aium62k9Ekr/AJO9G/2JORnilFWQkAih6HK0sB872hm8s6lF3jT1&#xA;P+RTB/8AjXNlEtI5on/nGy+rba7Yk/YeCdB/rh1b/iC5qu1Y7xPvc7Tnm9qzUOS7FXYq7FXYq7FX&#xA;Yq7FXYq7FXYq7FXYq7FXYq7FXzVpM8Grfnk95cSKlrFqNxcGaQgIsdpzZGZjsNolzoJgx01Dnwj7&#xA;XCG+Rmnn385vL1teGHSP9yk0a8fUQ8bcNU1/eft/7EU98p0ekkI+rZc0wTs81N7+YXn66NraRS3U&#xA;IPxW9uPTtkr09RiQvy5tmdI48QsmmuMTLk9E8qf8472caLceZrszynf6laErGPZpSOTf7ED5nNbm&#xA;7UPKA+bkR0/elXm//nHzUrQvdeWLj67CPiFlOQk4/wBSTZH+nj9OW4O0wdpimM9OejF9K/MLzj5Y&#xA;uv0fq8Mk6RbPaXgZJkH+S7Dl8uVR4ZmnFCYuLQbHNlcPm3QPMcFxbQS+jPdI6fVp6K1ZFIIG/Fuv&#xA;Y5OMSA1kbpd/zjxeGDzpd2jbC5snHH/LjkRh/wALyzC7UjeMHuLlac+p9FZoXMdirsVdirsVdirs&#xA;VdirsVdirsVdirsVdirsVca0NOvbFXyRZfl3541PWJrCPS5/rSSEXEsqmOJTXdmkfiu/UU69s6iW&#xA;qxxjd7OvGORPJ615R/5x80iyKXPmO4/SM4ofqkPKO3B/ym2d/wDhflmrz9pyO0BTkQ04HN6tY6fY&#xA;6fbJa2NvHa20eyQwqEQfJVAGa2UjI2TZbwKV8il2KpZr/lnQfMFp9V1iyju4t+BcUdCe6OKMp+Ry&#xA;zHmlA3E0xlEHm8Z83/8AOPV9b87ryvc/Woxv9QuCFlHskuyN/suPzObbB2mDtMV5uPPT9yU/k95W&#xA;82WP5iWk1xplzawWgmF7JPE8aKrxMoHJhQksRSnX5Zbrs0DiNEG2OGJEn0fmgcx2KuxV2KuxV2Ku&#xA;xV2KuxV2KuxV2KuxV2KuxV2KuxV2KuxV2KuxV2KuxV2KuxV2KuxV2KuxV2KuxV2KuxV2KuxV2Kux&#xA;V2KuxV2KtGSMdWA+nDRW1vrQ/wC/F+8Y8J7kW19Yg/34v34eA9y2HfWIP9+L9+PAe5bDvrEH+/F+&#xA;/HgPcthsXEB/3Yv3jHhPctuE0J6Ov3jBwlbXB0PRgfpxpLeBXYq7FXYq7FXYq7FXYq7FXYq7FXYq&#xA;7FXYqhpra5ckrLse24/VlsZgdGJBQ7WVz7N9P9csGSLHhKw2lyP2PxGHxAvCWvq0/wDIceMLRa+r&#xA;z/77b7sPGO9aLvQm/wB9t9xx4h3op3oTf77b7jjxDvWnfV5/99t92PGO9NFv6rcfyHBxhaK4Wdyf&#xA;2PxGPiRXhK9LK5HQhfp/pkTkinhKKghmQ/HJyH8vX8TlUpA8gyAVsgl2KuxV2KuxV2KuxV2KuxV2&#xA;KuxV2KuxV2KuxV2KuxV2KuxV2KuxV2KuxV2KuxV2KuxV2KuxV2KuxV2KuxV2KuxV2KuxV2KuxV2K&#xA;uxV2KuxV2KuxV2KuxV2KuxV2KuxV2KuxV2KuxV2KuxV2KuxV2KuxV2KuxV2KuxV2KuxV2KuxV2Ku&#xA;xV2KuxV2KuxV2KuxV2KuxV2KuxV2KuxV2KuxV2KuxV2KuxV2KuxV2KuxV2KuxV2KuxV2KuxV2Kux&#xA;V2KuxV2KuxVxIAJJoBuScVcCGAZTUHcEdCMVdirsVdirsVaVlavEg0NDTehHbGlbJAFT0xVpWVlD&#xA;KQVIqCNwQcVbJA6mldt/E4q7FXYq7FXYq1yXlxqOQFSveh740rlZWFVIYVIqN9waEfQcaVysrCqk&#xA;EAkGm+42OKt4q7FXYq7FXYq7FXYqwzza/wDuVMKSCNglvIeTzBZPUeRGViJY4kQLHuT47b5s9IPR&#xA;fv7vLyJJ3cfLzWeX0gj1dYPUEy+uEgEMsxhSNISy+mRLIhFY/iVtxXpSmHUEmF8tu4Xz67DvWHNX&#xA;vnsbi/ub70ra6tmTkst0lwgUW6n1eLekyNTiTschASERGyD5V15dUmibTLQrezl0+fTLiNWIczS2&#xA;pjlRFSWRmjAEyRkgFDTbtlOeUhISHuvboN+TKAFUkFlov1n6ncn6qr3On/W/SFtWNa8GIp6m5+Pr&#xA;mXPNw2N9pVz9/k1iF0fJkEd7Fp3l2yuoYoYRP9X5qT6cStPxDMTvQDlmGYGeQgkmr9+zbdRBSkm1&#xA;jnaVr2Kd7y7jBitNQuIyPrEqR/DHE6qePKvTMnciqIqPWI6C+rXt39e9OtXlmaWWKNLrksRNIJLY&#xA;Ky0+1xkcP1NDtmLhAoH08+ttkig/LdzcJBp8L295+8tkK+rJaGPgqqC6osnq8RyH7PcVyzUxBMjc&#xA;ef8AS/VTHGeXP7G9RvpL2xSYqogXVrWO2YV+JI7mNCx+cgalO1MccBGVdeCV/I/oWRsfFHLqTcdV&#xA;gvGWNrLk/PcKbeRS0bnr0oyn3XKjj+kx/i+9nxc7YNa6aqx2kEltAJZYeXxRwVHALy5ctMdq/F/M&#xA;3zzayybk2efn/wBVHGEeX4/3rI9ciRvK+mWtVkcSW8QVlNHaNSGoskUuw4k/FGdh0zCwH97I+/8A&#xA;HMfe2zHpASbT9PjOoxsscEX1K6iMrqkdTxCSnj6Wn27/AGWp9sfdmTkyenr6ge/3dch+5rjHf3fj&#xA;+ammp3Dtr18Ib24dUt4zMLdYx6axyOzo0hMfGgB/brv3plGKP7sWBz69du7f7myR9R3a0CSRJIAk&#xA;N7DduHupo5XLwFJuYQuDKxG5BJ41qDtjqACDvEjl57V5Ih8UuWeJ9E1S2eJ7uZea+okskgM0nxG4&#xA;EcqxLF8cu3Ek1+/LjE+JE3Q93TusXfJjfpIZN5bSFbrVBDbNZxrLGot2CgrSFWrRSw35eOYOpJqN&#xA;m9ufxbsfMp5mK2OxV2KuxV2KuxVLLzRVu7yed5WjWSO2WMx0Dq9tLLIGqwYf7sHbL4ZuGIFd/wBo&#xA;A/QwMLKy30WaC+SUXBlgEpupWlo0zzGH6uBVQihBHTtWuGWYGNVvVeVXf3qIUUD/AIVvjYNZNfho&#xA;THdIi+kBxNyrgGoNTx55b+ajxcXDvt17mHhmqtMLfTdSguLu6N2k9xPDDFEZI+Kr6TSN8QQioPq5&#xA;TLJEgCqAJ+2v1MxEizahD5aKRAm9kS6VFijlhVUjSJAQsSxMHHDfcMST49MmdTZ5beff333oGPzR&#xA;EWmXjR2MVzNGYbXl6kcKGNZCBwiFOTUVVNSPGnbIHLHcgbnv+1PCdkMvl65EAjN2fVFvHGJRWonh&#xA;blHN9P7Y/ayZ1Avl1+w9P1dyOA96veaXqM14txDdRwE2/oS1iMlSWqSBzWmRhliI0Re980mJtZp+&#xA;iXtvc2rXF0lxBa2slpGixGNqOYtyeTV2h9sOTPEg0KJlfP3/AK0RgQV97o00osrW2eK3020kgl9E&#xA;IS5+rvzVVbkAB8I7YIZgLJsyN/akw5AckTfaZBciRwifWHRYxJIrOtEf1FDIrJyAbelchDKY+5Jj&#xA;aRyeUL57mO4N9FyjDgAR3dDzpX/j8r+z2OZQ1cQKo/7H/iGvwj3/AH/rR8+h3k1nBE09uZ4AyLMY&#xA;p9kYqaLS5Dg/AKtzNcpjniJE0aPmP+Jr7GRga/H60DbeUr+3nkmS+hLySCWjRXRAZVVBt9c3Hwft&#xA;V+7bLZauJFcJ+cf+IYjER1+/9aZT6ZqUlzcTrNblp4o7fjJCzoI1LFyy8xyLF+lafPKY5YgAUdjf&#xA;P9jMxKlpXl6XS5xJb3bSpLtdxzKCCFqU9ErQxhS2y7invvksuoGQUR7v296Iwrqp3nl7UpnuhDqC&#xA;RwXUyztBJb+oAUMZG4kRv91UPah6d8MNREVcdwK5+/y80GB70dpdhfWs95LdXMU5u5FmIihaLiwj&#xA;SL9qSWo4xj6a5VlyRkAACK87633DvZRiRdphlLN2KuxV2KuxV2KuxV2KuxV2KuxV2KuxV2KuxV2K&#xA;uxV2KuxV2KuxV2KuxV2KuxV2KuxVD319HZRJNKrGIyKkjrSiBzxDt/k8qV8OuTxwMjQ5okaY+PN1&#xA;0LbT53hjiW4t1lmef1YlklaJX9O24rKWNW7jfotd6Zn5QXIXyPStt+Z5fjm1eKaCYXuuva2tk00a&#xA;W11dEPJDI3L0oo19SdiRxrwjBH+sRlMMHETW4H2nkPtZGdAKFv5kvBHD9b090llaKoV4qqtw5WIl&#xA;OZftvt2OSlpo78MuV9/Tn0QMh6hVvPMFzBez20VosiwMqmRpHWpZFfoscn8/jghpwYgk8/x3pM9+&#xA;Sn5f1zU9QuHS6hgjQK5VY3cyKY5niPJWWlDwoN+x+g6jBGA2J/ABRCZPNVtdeeW4tRNEsMM4mhmB&#xA;NWiuoN2jZthxKKxBp298jLBQNGyKPvBSJrLnXryHyzNrC2/qOUllt0WlBH8RheQMyGnHiW4777DD&#xA;HBE5RC+79qmZ4bQcnm+9TUWtHsBGyzCIxyPRwGSN1JdQ8VT6oFOeWjRxMeLi6fr+PTuY+KbqkRce&#xA;awkNpOltIYXh+uXpC8/StyjkGoI35KPorkI6WyRe90PMpOTkrQeYgZ5vVgl+qm6W2tblIyY2DMsV&#xA;WeveYsKgdKZGWn2FEXVkfb9yRkQmqearu2uTaRx2iy8mAke6BVeDCqyKqckZlO3+dbMWlEhZ4vkx&#xA;lkI22Rmh+YJNVc0hhjQcuQW4EkgCsVDGPgpCtTYnKs+nGPqfl+llCfEoHzHcNNcIJNPhEM0kIS4u&#xA;THJ+7YrUrwNK0yf5YUPqNjoEeJ7kfbawsmmadeyRlTqCw0RTXi0ycuppsMplhqUoj+G/sZCWwPel&#xA;kfmyVY4ppbcywx2X1u/NuoJjLH4PtOPh4xuSNz0+m86QXQO/FQv8e5h4v3K+ra9qNsFFraw8yIW4&#xA;XErpIDKzDjwSORT8MbdH+g9DHFgjLmT15Du+Pn3JlMjkhYfNWpnV47KWxh9KX06SRyTsVViwZjWB&#xA;a0oBuF37+EzpYcHECfs/4pAyG6r8fJGXmvahHfw2Vvpc7yszPJVrc1gTZnT9+KEsVA50/CmVwwRM&#xA;TIyH28/l9zIzN1SKtdVuLy3MsVnJbI8XqW9zcNA0LEgFP7mWRqGtenTISxCJom9+Qu/tASJX0Q1z&#xA;rt8qwxQ2DvePwklhVonHpCTjIUPqKT8O6mnhWnaccEdyZen48+nRBme50/mFm0dNRtoGjEsscUX1&#xA;gbFZGVedIy5I+LbGOn9fCT0PL9qme1hL2806kjXFVt2Fu8aEBJwW5hTtVaCnLvlv5WO3Pf3MPELK&#xA;swG9D363zwBLMxpK7BWlkqQi92Cj7TeAJAyePhv1IlfRg50+KHR7O9knaI3WlRxwShoQ/rCAAQqG&#xA;T1CJB0CGta+2bTxCZmIHKZ7+V8+7bzcbh2B8k71DT1t5dLm9Fr69Cyx/vuJeQLBK6xmvFB8TeHz6&#xA;ZjY8liQvhjt94bJRqupUILe5F272sxvLmwhsBK6NUSSJLcC4QmtK8JSePbbJSkK3FCRl90a+5AG+&#xA;3Sv0oTXLCKd7l5+ccLXFygupQgVneFAAfUil4IPTEauBXb5ZZgyEVXOht8feO+6Yzjap5dt1+vTT&#xA;RyXK2t0rtNcKqKhuAgLDlHWiIsnwEkgvyPX7Q1EvSBtY+749/Xyr4HGN0ba6PLqVleMbi5itbrkt&#xA;qsjsDIhXj6kqjiaOeg2PH55VLMISGwsc/wBn45shCwUu1dWk0AWzW013ees0MtnKFmMbxQSMWh5L&#xA;9mlCpXcg+O2XYdsl2BGufLqObCX00lJiWKUIt1p8MFy7xvWUQiNHt44Sxt3KKjDhy+HkSdjmRdjl&#xA;IkeV9SebCvcmN9bzTae8cMU10RpAgifT3rCzIZUFeLDmpoPhFfCmUwkBKyQPXfq59GZG3w6JzqyR&#xA;WlxFZxTVF5c2TwWAUsUMNwjO6U+xH6ce46AjbrmNiJkDIjkJb+8H7bLOW23uQc1pqf157q2Ekqpe&#xA;XFYgiyIhK0EgRnhqzV41LGnYZYJx4aP80f2dUEG7HepaUtzapqDJIwubexlJgHEi2fmzRoFBfhVV&#xA;5cCxp22yWWpcPcZD49/9qI7X7m5b5ub8JLpoiLQytJbOJayTFZfTVogzVXwBxEP6v8XXblt1Uy/Q&#xA;jrddRv7R/qjlza36tAb1XhIiSNTQrwVvtNsCBlUjGB36x6b9feyFkbd6Sxxxtp9kthE8szQx/pww&#xA;py/0eiEg1O8nFPhUVPEnbMkk8R4jtfpvv3+xr6CviifM0X6Tu/XtEM6NbMIJEi5Fw1tcEqr0JYD4&#xA;RSh+JqZDTHgFHbfv84/j4Msm52/HNAaMr2t/YgwTx20d1IJIzAUIMgUQIzejbAkvyevGgWi5bmPF&#xA;GW4uu/59T7vfuwhsQnvC2t9S1AX19MkztEfXjqrEcWIQcVbii8th9PWuYtmUY8MRW7bsCbLXl240&#xA;mHQYUubiWb07KM3VrOGdECIOShCvY7Ux1EZnIaAHq2IRjI4d+5L7mW3uLa30u5jOkeizN9blBjmj&#xA;DsxCW/Cq/EhoTypTahy6IIJmPXfTp8WJN7HZMp7pJNCit5TCDBMsSSRvLFGRCAyPGYld1P2fh7b7&#xA;5TGNZCRe48jz97Mn0pJAxa6vfVlDRvJG1Hubzi/FF/4rPPcd8yZchQ+yP62scz+16BDIssKSqaq6&#xA;hlIruCK96ZqCKNOUH//Z</xmpGImg:image>
               </rdf:li>
            </rdf:Alt>
         </xmp:Thumbnails>
         <xmpTPg:MaxPageSize rdf:parseType="Resource">
            <stDim:w>1080.000000</stDim:w>
            <stDim:h>1080.000000</stDim:h>
            <stDim:unit>Pixels</stDim:unit>
         </xmpTPg:MaxPageSize>
         <xmpTPg:NPages>1</xmpTPg:NPages>
         <xmpTPg:HasVisibleTransparency>False</xmpTPg:HasVisibleTransparency>
         <xmpTPg:HasVisibleOverprint>False</xmpTPg:HasVisibleOverprint>
         <xmpTPg:PlateNames>
            <rdf:Seq>
               <rdf:li>Cyan</rdf:li>
               <rdf:li>Magenta</rdf:li>
               <rdf:li>Yellow</rdf:li>
            </rdf:Seq>
         </xmpTPg:PlateNames>
         <xmpTPg:SwatchGroups>
            <rdf:Seq>
               <rdf:li rdf:parseType="Resource">
                  <xmpG:groupName>默认色板组</xmpG:groupName>
                  <xmpG:groupType>0</xmpG:groupType>
               </rdf:li>
            </rdf:Seq>
         </xmpTPg:SwatchGroups>
         <dc:format>image/svg+xml</dc:format>
      </rdf:Description>
   </rdf:RDF>
</x:xmpmeta>
                                                                                                    
                                                                                                    
                                                                                                    
                                                                                                    
                                                                                                    
                                                                                                    
                                                                                                    
                                                                                                    
                                                                                                    
                                                                                                    
                                                                                                    
                                                                                                    
                                                                                                    
                                                                                                    
                                                                                                    
                                                                                                    
                                                                                                    
                                                                                                    
                                                                                                    
                                                                                                    
                           
<?xpacket end="w"?>
	</metadata>
<g>
	<path id="椭圆_1" fill="#E5EBFF" d="M540,1115c102.4,0,185.5,7.1,185.5,15.9c0,8.7-83.1,15.9-185.5,15.9s-185.5-7.1-185.5-15.9
		S437.6,1115,540,1115z"/>
	<g>
		<path id="形状_4" fill="#C2DAFF" d="M699.1,866.8L643,921.1c-4.3,3.2-6,8.7-4.4,13.8l16.7,101L562.2,989c-4.3-3-10-3-14.3,0
			l-92.9,46.9l16.7-101c1.6-5.1-0.2-10.6-4.4-13.8l-73.9-72l102.9-15.7c5.2-0.2,10-3.5,11.8-8.4l47-91.6l47,91.5
			c1.7,4.9,6.5,8.4,11.8,8.4l105,14L699.1,866.8L699.1,866.8z"/>
		<path id="形状_4_拷贝_3" fill="#9EBEFF" d="M684.7,862.1l-56.2,54c-4.3,3.2-1.3,8.7,0.3,13.8l16.7,101l-30-12.7L601,931
			c-1.4-4.6,0.2-9.5,4.1-12.4l50.8-48.8l15.6-15.2l-83.1-5.6c-4.8,0-9.1-3-10.6-7.6l-38.1-75.3l14.5-31.1l45.6,89.7
			c1.7,4.9,6.5,8.4,11.8,8.4l93.1,9.2L684.7,862.1z"/>
		<g id="椭圆_2_拷贝_2">
			<g>
				<path fill="#4156A3" d="M486.6,864.8c4.6,0,8.3,3.8,8.3,8.3c0,2.2-0.8,4.3-2.4,5.9c-1.6,1.6-3.7,2.4-5.9,2.4
					c-4.6,0-8.3-3.8-8.3-8.4C478.4,868.5,482,864.8,486.6,864.8L486.6,864.8L486.6,864.8 M486.6,852.1L486.6,852.1L486.6,852.1
					c-11.6,0-21.1,9.4-21,21l0,0c0,11.6,9.4,21,21,21l0,0c11.6,0,21-9.4,21-21.1C507.8,861.5,498.2,852.1,486.6,852.1L486.6,852.1z"
					/>
			</g>
		</g>
		<g id="椭圆_2_拷贝_2_1_">
			<g>
				<path fill="#4156A3" d="M591.5,864.8c4.6,0,8.3,3.8,8.3,8.3c0,2.2-0.8,4.3-2.4,5.9c-1.6,1.6-3.7,2.4-5.9,2.4
					c-4.6,0-8.3-3.8-8.3-8.4C583.2,868.5,586.8,864.8,591.5,864.8L591.5,864.8L591.5,864.8 M591.5,852.1L591.5,852.1L591.5,852.1
					c-11.6,0-21.1,9.4-21,21l0,0c0,11.6,9.4,21,21,21l0,0c11.6,0,21-9.4,21-21.1C612.6,861.5,603,852.1,591.5,852.1L591.5,852.1z"/>
			</g>
		</g>
		<path id="圆角矩形_5" fill="#4156A3" d="M521.3,933.6c0,0,9.8-7.1,19.9-7.1c10.3,0,20.6,7.1,20.6,7.1c5.2,0,6,9.8,6,9.8
			c0,3.3-2.7,6-6,6l0,0c0,0-10.3-7.1-20.6-7.1c-10,0-19.9,7.1-19.9,7.1c-3.3,0-6-2.7-6-6l0,0C515.2,943.3,516,933.6,521.3,933.6z"/>
		<path id="矩形_5" fill="#4156A3" d="M519.5,758.6c0,5.2-4.3,9.5-9.5,9.5s-9.5-4.3-9.5-9.5c0-5.2,4.3-9.5,9.5-9.5l0,0
			C515.2,748.8,519.3,753.2,519.5,758.6C519.5,758.3,519.5,758.3,519.5,758.6z M733.8,828.3c0,5.1-4.1,9.4-9.2,9.4
			c-5.1,0-9.4-4.1-9.4-9.2s4.1-9.4,9.2-9.4l0,0C729.6,819.1,733.8,823.2,733.8,828.3L733.8,828.3z M734.2,831.5l-87.8,92.3
			l16.5,113.4c1.3,5.1-0.8,10.5-4.9,13.7c-2.1,1.4-4.4,2.2-7,2.2c-2.4,0-4.6-0.6-6.7-2.1l-103.9-51.3l-106.9,51.3
			c-5.2,3.7-12.5,2.4-16.2-3c-2.1-2.9-2.5-6.7-1.6-10l18.7-114l-84.3-85c-4-3-5.6-8.1-4.1-12.9c1.6-4.8,5.9-7.9,11-8.1l119.6-18.7
			l12.5-18.9l14.5,11.9l-11.9,19.5c-1.7,5.1-6.5,8.6-12.1,8.7l-104.8,15.6l75.1,74.6c4.3,3.3,6.2,8.9,4.6,14.1l-17,100.9l95-45.1
			c4.4-3,10.3-3,14.8,0l94,46.1l-16-101.6c-1.6-5.2,0.2-11,4.6-14.1l57.5-55.6l0,0l18.6-20l-106.4-13.7c-5.4-0.2-10.2-3.5-12.1-8.7
			l-47.6-95.1L517,764.6L501.3,754l27.5-59.1c2.2-6,8.9-9.2,14.9-7.1c3.3,1.1,5.9,3.8,7.1,7.1L604.3,801l120.2,17.3l-1,9.5
			c0.2,0.8,0.3,1.6,0.8,2.2C726.9,834.3,735.5,827.5,734.2,831.5L734.2,831.5z M505.1,787.1c0,5.2-4.3,9.5-9.5,9.5s-9.5-4.3-9.5-9.5
			c0-5.2,4.3-9.5,9.5-9.5l0,0C500.8,777.6,505.1,781.8,505.1,787.1L505.1,787.1z"/>
	</g>
	<g>
		<g enable-background="new    ">
			<path fill="#7791E5" d="M289.4,1309.2c0.8,1.6,1.6,3.5,2.4,5.6h22.6v2.9h-12.2c-1.1,3-2.4,5.6-3.7,7.5H311v29.7
				c0,3.7-1.4,5.4-4.4,5.4H301l-0.8-2.9l5.4,0.2c1.6,0,2.5-1.1,2.5-3.3v-26.4h-36.8v32.2h-2.9v-35h12.1c-1-2.7-2.1-5.2-3.3-7.5
				h-11.8v-2.9h23.2c-0.8-1.9-1.6-3.5-2.4-5.1L289.4,1309.2z M286.7,1331.4c-3.3,3.8-7.3,7.1-12.1,10l-1.9-2.4
				c4.6-2.7,8.6-5.9,11.8-9.5L286.7,1331.4z M279.8,1340.5h19.9v13h-19.9V1340.5z M295.2,1325.1c1.3-2.4,2.5-4.8,3.5-7.5h-18.3
				c1.3,2.4,2.2,4.9,3,7.5H295.2z M296.8,1350.6v-7.5h-14v7.5H296.8z M294.8,1329.4c4.8,3.3,8.7,6.7,11.8,10l-2.2,2.2
				c-2.9-3.2-6.7-6.7-11.4-10.2L294.8,1329.4z"/>
			<path fill="#7791E5" d="M341.9,1336.2v23.3h-3v-3H326v3h-3v-23.3H341.9z M326.1,1353.8H339v-14.7h-12.9V1353.8z M330.3,1312.4h30
				v17.3h-30V1312.4z M357.3,1326.8v-11.4h-24v11.4H357.3z M367.7,1336.2v23.3h-3v-3h-13.3v3h-3v-23.3H367.7z M351.3,1353.8h13.3
				v-14.7h-13.3V1353.8z"/>
			<path fill="#7791E5" d="M417.9,1322.2v25.9h-3v-22.9H387v23h-3v-26h14.1c0.6-2.2,1.1-4.4,1.3-6.8h-22.9v-2.9h48.8v2.9h-22.7
				c-0.3,2.2-0.8,4.4-1.4,6.8H417.9z M399.6,1328.9h3v8.9c-0.2,6-2.1,10.8-5.7,14.5c-3.7,3.3-9.4,6-17.5,7.9l-1.7-2.7
				c7.9-1.7,13.7-4.1,17.2-7.3c3-3.2,4.6-7.3,4.8-12.4L399.6,1328.9L399.6,1328.9z M404.4,1348.6c7.3,2.5,14,5.7,19.9,9.2l-1.9,2.9
				c-6.4-4-12.9-7.1-19.7-9.5L404.4,1348.6z"/>
			<path fill="#7791E5" d="M441.4,1347.5c-2.2,4.9-4.6,9.2-7.5,12.7l-2.4-1.7c2.9-3.5,5.2-7.6,7.3-12.2L441.4,1347.5z M454.2,1309.7
				h3v5.9h21.9v2.9h-21.9v7.9h17.6v17H439v-17h15.2V1309.7z M472,1340.5v-11.4h-29.9v11.4H472z M450.1,1347.8
				c1.3,4.1,2.2,8.1,3,12.1l-3,0.8c-0.6-4.6-1.6-8.7-2.9-12.2L450.1,1347.8z M461.9,1347.3c1.7,4,3.2,8.1,4.4,12.5l-3,0.8
				c-1.1-4.9-2.5-9.1-4.3-12.5L461.9,1347.3z M473.4,1346.2c3.5,4.6,6.2,8.7,8.1,12.4l-2.4,1.7c-1.9-3.7-4.6-7.8-8.1-12.5
				L473.4,1346.2z"/>
			<path fill="#7791E5" d="M492,1318.2h18.6v-8.3h3.2v8.3h18.3v2.9h-18.3v10.2h22.9v2.9h-22.9v20.8h14.1v-15.2h2.9v20.8h-2.9v-2.7
				h-31.3v2.7h-2.9v-20.8h2.9v15.2h14.1v-20.9h-22.9v-2.9h22.9v-10.1h-18.6L492,1318.2L492,1318.2z"/>
			<path fill="#7791E5" d="M555.4,1324.6c-2.7,11-6.4,19.4-10.8,25.1l-2.5-2.2c4.6-6,8.1-14,10.3-24L555.4,1324.6z M556.5,1359.7
				l-0.8-3c3.7,0.2,6.2,0.2,7.8,0.2c2.4,0,3.7-1.3,3.7-3.8v-42.6h3.2v43.4c0,4-1.9,5.9-5.6,5.9L556.5,1359.7L556.5,1359.7z
				 M582.6,1322.2c4.8,10.2,8.4,18.9,10.8,26.4l-2.7,1.9c-2.7-8.1-6.4-17-10.8-26.7L582.6,1322.2z"/>
			<path fill="#7791E5" d="M607.7,1340.3c-1.9,3.8-4,7.1-6,9.7l-1.9-2.4c3.3-4,6-9.1,8.1-15.4l2.9,0.6l-1.6,4.6h15.2v-4.8h3v4.8
				h18.9v2.7h-18.9v6.5h16.8v2.5h-16.8v6.7h21.4v2.7h-47v-2.7h22.6v-6.7h-15.9v-2.5h15.9v-6.5h-16.7V1340.3z M606.5,1311.7h35.7
				v19.1h-35.7V1311.7z M609.6,1320h29.7v-5.6h-29.7V1320z M639.3,1328.1v-5.7h-29.7v5.7H639.3z"/>
			<path fill="#7791E5" d="M663.2,1340.3c-1.9,3.8-4,7.1-6,9.7l-1.9-2.4c3.3-4,6-9.1,8.1-15.4l2.9,0.6l-1.6,4.6h15.2v-4.8h3v4.8
				h18.9v2.7h-18.9v6.5h16.8v2.5h-16.8v6.7h21.4v2.7h-47v-2.7h22.6v-6.7H664v-2.5h15.9v-6.5h-16.7V1340.3z M662.1,1311.7h35.7v19.1
				h-35.7V1311.7z M665.1,1320h29.7v-5.6h-29.7V1320z M694.8,1328.1v-5.7h-29.7v5.7H694.8z"/>
			<path fill="#7791E5" d="M710.9,1359.9l-0.6-2.9c2.1,0.2,3.5,0.2,4.3,0.2c1.6,0,2.2-0.8,2.2-2.4v-14.6c-2.1,0.8-4.4,1.6-7.3,2.4
				l-0.8-3c2.9-0.6,5.6-1.4,8.1-2.4v-13.7H710v-3h7v-10.8h3v10.8h5.7v3H720v12.4c2.1-1,4-1.9,5.7-2.7v3c-2.1,1.1-4,1.9-5.7,2.5v16.5
				c0,2.9-1.4,4.3-4.3,4.3h-4.8L710.9,1359.9L710.9,1359.9z M742.2,1323.3c-1.1,4-1.9,7.1-2.5,9.1H760v2.9h-7.1
				c-1,5.9-3,10.8-6.2,14.6c5.4,3,9.8,5.7,13.2,8.1l-1.9,2.2c-3.5-2.4-7.8-5.2-13.2-8.4c-3.8,3.7-10.3,6.5-19.2,8.6l-1.3-2.9
				c7.8-1.7,13.7-4.3,17.6-7.3c-3.2-1.7-6.7-3.8-10.8-5.9c1.6-3,3-6,4.3-9.2H727v-2.9h9.4c1.1-3.3,2.1-6.5,2.7-9.5L742.2,1323.3z
				 M757.9,1316.3v10.5H755v-7.6h-23.7v7.9h-2.9v-10.8h13.2c-0.8-2.5-1.7-4.8-2.5-6.5l3-0.5c1,2.1,1.7,4.4,2.5,7H757.9L757.9,1316.3
				z M738.5,1335.2c-1.1,2.9-2.4,5.7-3.7,8.3c2.9,1.4,5.9,3,9.2,4.9c3-3.3,5.1-7.8,5.9-13.2L738.5,1335.2L738.5,1335.2z"/>
			<path fill="#7791E5" d="M775.4,1310.5c-0.5,1.6-1,3.7-1.7,5.9h10.8v2.9h-11.9c-1.4,4-3.3,7.5-5.4,10.5l-2.4-1.6
				c3.5-5.4,6-11.6,7.8-18.3L775.4,1310.5z M770.4,1327.5h13v2.7h-6v7.6h7.9v2.9h-7.9v14.3c2.4-1,4.9-2.2,7.6-3.8l0.5,2.7
				c-3.3,1.9-7,3.5-11.1,4.8l-1.3-2.5c1-0.3,1.4-0.8,1.4-1.4v-14h-7.9v-2.9h7.9v-7.6h-4v-2.7L770.4,1327.5L770.4,1327.5z
				 M794.1,1332.9l1.6-17.5h-7.5v-2.9h24.1l-2.2,43.2h5.4v3h-30.7v-3h7l1.7-19.9h-7.1v-3L794.1,1332.9L794.1,1332.9z M794.9,1355.7
				h12.2l1-19.9h-11.4L794.9,1355.7z M809.2,1315.4h-10.6l-1.6,17.5h11.3L809.2,1315.4z"/>
		</g>
		<g enable-background="new    ">
			<path fill="#7791E5" d="M193.1,1419.4h3v50.7h-3v-19.4c-3.8,3.7-7.5,6.5-10.8,8.7l-1.3-2.9c3.3-2.1,7.5-5.1,12.2-9.4v-27.8h-0.1
				V1419.4z M183.6,1426.1c2.7,3.7,5.1,7.6,7.1,11.9l-2.7,1.1c-2.2-4.6-4.6-8.6-7-12.1L183.6,1426.1z M210.8,1426.7
				c-2.5,3-5.9,5.6-9.8,7.6l-1.9-2.4c6.2-3.2,10.5-7.3,12.5-12.5l3.2,0.6c-0.5,1.3-1.1,2.7-2.1,4h16.7v2.5
				c-3.5,8.3-12.2,14.1-26.2,17.5l-1.6-2.7c4.6-1.1,8.7-2.4,12.2-4c-2.1-1.9-4-3.5-5.9-4.8l2.2-1.6c2.2,1.6,4.3,3.3,6.2,5.2
				c4.6-2.5,7.8-5.7,9.7-9.2h-15.2L210.8,1426.7L210.8,1426.7z M200.1,1446.7h21.4v-5.9h3v5.9h7.1v3h-7.1v15.7c0,3-1.6,4.6-4.8,4.6
				h-7.5l-0.6-2.9c3.2,0.2,5.6,0.2,7,0.2c1.9,0,2.9-0.8,2.9-2.5v-15.1h-21.4L200.1,1446.7L200.1,1446.7z M206.6,1452.6
				c3.2,3.7,5.7,6.7,7.3,9.2l-2.4,1.7c-1.7-2.9-4.1-6-7.1-9.5L206.6,1452.6z"/>
			<path fill="#7791E5" d="M243.9,1438c-1.7,2.7-4.1,5.6-6.7,8.4l-1-3.2c6.2-7.1,10.6-15.1,13.3-24l2.9,1.3
				c-1.4,4.4-3.2,8.6-5.4,12.5v37h-3v-32.1L243.9,1438L243.9,1438z M259.8,1429.6c-1.7,4.4-4,8.4-6.5,12.2l-2.5-1.6
				c4.3-6.2,7.5-13.2,9.4-21l2.9,0.6c-0.6,2.4-1.4,4.6-2.2,6.8h24v2.1c-1,3.5-2.1,6.8-3.7,10.2l-2.9-0.8c1.4-2.4,2.5-5.2,3.5-8.6
				L259.8,1429.6L259.8,1429.6z M262.1,1442.8c-2.1,7.8-4.8,14.6-7.9,20.5l-2.9-1.1c3.2-5.2,5.9-12.1,8.1-20.2L262.1,1442.8z
				 M259.8,1469.8l-0.6-2.9c3.3,0.2,5.6,0.2,7,0.2s2.2-0.8,2.2-2.2v-30.2h2.9v31c0,2.7-1.4,4.1-4.1,4.1H259.8L259.8,1469.8z
				 M278.6,1441.7c3,6.7,5.6,13.7,7.8,21.4l-2.7,1.3c-2.4-8.3-4.9-15.4-7.8-21.8L278.6,1441.7z"/>
			<path fill="#7791E5" d="M340.5,1424.8v2.9h-13.7c0.2,4.3,0.8,7.8,1.4,10.6c0.5,2.1,1.1,3.8,1.7,5.2c2.2-3.3,4.1-7.3,5.7-12.2
				l2.4,1.3c-1.7,5.6-4,10-6.7,13.8l1,1.4c1.6,1.9,3,2.9,4.4,2.9c1.1,0,2.2-2.4,3.3-7.3l2.4,1.4c-1.6,5.7-3.5,8.7-5.6,8.7
				c-2.2,0-4.3-1.1-6.4-3.3c-0.3-0.3-0.6-0.8-1.1-1.4c-1.9,2.1-4,3.7-6.2,5.1l-1.6-2.4c2.2-1.3,4.3-3,6.2-5.2
				c-1-1.9-1.9-4.1-2.5-6.4c-0.8-3.2-1.4-7.1-1.7-12.1h-23.3v7.1c-0.2,7.6-2.1,13.7-5.4,18.1l-2.2-2.1c3-4,4.6-9.4,4.8-16.2v-10
				h26.2c0-1.1-0.2-3-0.2-5.6h2.9c0,2.5,0,4.4,0.2,5.6h7.3c-0.8-1.7-1.6-3.3-2.5-4.8l2.9-0.5c1,1.9,1.7,3.7,2.4,5.2L340.5,1424.8
				L340.5,1424.8z M301.9,1454.5c-1.6,5.4-3.7,10-6.4,13.8l-2.5-1.7c2.9-3.8,4.8-8.1,6.2-12.7L301.9,1454.5z M303.3,1432.9h18.3v2.5
				h-18.3V1432.9z M305.3,1439.4h14.9v11h-14.9V1439.4z M312.4,1469.3c-3.5,0-5.4-1.9-5.4-5.6v-10.2h3v9.5c0,2.2,1.1,3.3,3.2,3.3
				h10.2c1.6,0,2.9-0.3,3.5-0.8c0.8-0.6,1.4-2.7,1.7-6.2l2.9,1c-0.5,4.3-1.3,6.8-2.4,7.8c-1.1,0.8-2.7,1.1-5.1,1.1L312.4,1469.3
				L312.4,1469.3z M317.3,1447.8v-6h-9.2v6H317.3z M317.3,1453.2c2.9,3,4.9,5.6,6.2,7.6l-2.2,1.6c-1.6-2.4-3.7-4.9-6.2-7.6
				L317.3,1453.2z M334.6,1455.3c3.3,3.7,6,7.1,8.1,10.2l-2.4,1.6c-2.1-3.2-4.8-6.7-8.1-10.2L334.6,1455.3z"/>
			<path fill="#7791E5" d="M348.1,1445h31.1c4.1-7.5,7.6-15.9,10.6-25.3l2.9,1.1c-3.3,9.8-6.8,17.9-10.3,24.1h15.7v3H348v-3h0.1
				V1445z M366.4,1452.9c-4,6.4-8.4,11.9-13.7,16.5l-2.5-1.7c5.2-4.6,9.7-10,13.5-16.2L366.4,1452.9z M354.8,1423.1
				c2.7,4.8,5.4,10.3,7.9,16.5l-2.9,1.4c-2.4-6-4.9-11.4-7.9-16.5L354.8,1423.1z M368.5,1419.9c2.7,5.4,5.2,11.1,7.6,17.3l-2.9,1.4
				c-2.5-6.7-5.1-12.4-7.8-17.3L368.5,1419.9z M383.1,1451.5c5.7,6.2,10,11.6,13,16.2l-2.7,1.9c-3-4.9-7.3-10.3-12.9-16.4
				L383.1,1451.5z"/>
			<path fill="#7791E5" d="M405.5,1427.2h6.8v-7.6h2.9v7.6h6.7v2.9h-6.7v9.2h7.5v2.9h-6v8.6h6v2.7h-6v11.1c0.5,0.3,1.1,0.6,1.7,0.8
				c3.3,1.1,10.8,1.7,22.2,1.7c6,0,10.5,0,13.5-0.2l-0.6,3H441c-13.2,0-21.4-0.8-24.8-2.4c-3.2-1.4-5.9-4.1-8.3-8.1
				c-0.6,4-1.7,7.8-3,11.4l-2.2-2.1c2.2-6.7,3.5-14.3,3.8-22.7l2.5,0.3c-0.2,3.5-0.3,6.5-0.8,9.4c1.4,2.7,3,4.9,4.9,6.7v-20.3H404
				v-2.9h7.6v-9.2H405v-2.9L405.5,1427.2L405.5,1427.2z M424.7,1424.5h-3v-2.5H440v2.5h-2.9v27.5l2.9-1.3v2.7l-2.9,1.3v9.1h-2.7
				v-7.9c-4.1,1.6-8.6,2.9-13.2,4l-0.6-2.5l4-1v-31.8L424.7,1424.5L424.7,1424.5z M434.4,1424.5h-7v8.3h7V1424.5z M427.4,1443.1h7
				v-7.8h-7V1443.1z M427.4,1455.3c2.2-0.6,4.6-1.4,7-2.2v-7.5h-7V1455.3z M441.5,1432.3c2.2,4,4.1,7.8,5.7,11.1
				c1.3-4.6,2.2-9.5,2.5-15.1h-10.3v-2.7h13v2.1c-0.3,7.3-1.4,13.7-3.5,19.2c2.1,4.4,3.8,8.9,5.2,13.2l-2.4,1.1
				c-1.3-3.3-2.7-7-4.3-11c-2.1,4.6-4.8,8.7-7.9,12.1l-1.7-2.1c3.7-3.8,6.4-8.4,8.3-13.5c-2.2-5.1-4.6-9.7-7-14L441.5,1432.3z"/>
			<path fill="#7791E5" d="M478.7,1429.4v37.3h-2.9v-3.3h-11.3v4.9h-2.9v-38.9h4.9c1.1-3.2,1.9-6.5,2.5-10l3,0.3
				c-0.6,3.3-1.4,6.7-2.7,9.5h9.2v0.2H478.7z M464.6,1444.7h11.3v-12.4h-11.3V1444.7z M464.6,1460.6h11.3v-13.2h-11.3V1460.6z
				 M507.4,1429.4c0,17.8-0.3,28.9-0.8,33.4c-0.6,4.4-3.2,6.7-7.8,6.7l-5.4-0.2l-0.8-2.9c2.2,0.2,4.1,0.2,5.9,0.2
				c3,0,4.8-1.6,5.2-4.9c0.5-3,0.6-12.9,0.8-29.2h-16.4c-1.6,3.7-3.5,7-5.6,9.7l-1.7-2.4c4-5.6,6.7-12.4,8.1-20.5l3,0.3
				c-0.6,3.7-1.6,6.8-2.5,9.7h17.9L507.4,1429.4L507.4,1429.4z M488.1,1442c4.3,4.8,7.5,8.7,9.7,12.2l-2.4,1.7
				c-2.2-3.7-5.4-7.8-9.7-12.4L488.1,1442z"/>
			<path fill="#7791E5" d="M539.5,1418.9c0.8,1.6,1.6,3.5,2.4,5.6h22.6v2.9h-12.2c-1.1,3-2.4,5.6-3.7,7.5h12.5v29.7
				c0,3.7-1.4,5.4-4.4,5.4h-5.6l-0.8-2.9l5.4,0.2c1.7,0,2.5-1.1,2.5-3.3v-26.4h-36.8v32.2h-3v-34.9h12.1c-1-2.7-2.1-5.2-3.3-7.5
				h-11.8v-2.9h23.2c-0.8-1.9-1.6-3.5-2.4-5.1L539.5,1418.9z M536.8,1441.2c-3.3,3.8-7.3,7.1-12.1,10l-1.9-2.4
				c4.6-2.7,8.6-5.9,11.8-9.5L536.8,1441.2z M530,1450.2h19.9v13H530V1450.2z M545.4,1434.8c1.3-2.4,2.5-4.8,3.5-7.5h-18.3
				c1.3,2.4,2.2,4.9,3,7.5H545.4z M547,1460.6v-7.5h-14v7.5H547z M544.9,1439.1c4.8,3.3,8.7,6.7,11.8,10l-2.2,2.2
				c-2.9-3.2-6.7-6.7-11.4-10.2L544.9,1439.1z"/>
			<path fill="#7791E5" d="M592.1,1445.9v23.3h-3v-3h-12.9v3h-2.9v-23.3H592.1z M576.2,1463.6h12.9v-14.8h-12.9V1463.6z
				 M580.5,1422.1h30v17.3h-30V1422.1z M607.5,1436.6v-11.5h-23.8v11.4L607.5,1436.6L607.5,1436.6z M617.8,1445.9v23.3h-3v-3h-13.3
				v3h-3v-23.3H617.8z M601.5,1463.6h13.3v-14.8h-13.3V1463.6z"/>
			<path fill="#7791E5" d="M628.1,1456.3c0.8-0.3,1.3-0.8,1.3-1.6v-28.1h3v28.4c3-1,6-1.9,8.7-3v-32.2h3v50.2h-3v-15.1
				c-4.1,1.6-8.3,2.9-12.1,4L628.1,1456.3z M648.6,1445.8l-1.9-2.4c4.4-6.5,7.5-14.5,9.1-23.8l3,0.3c-0.6,3.3-1.3,6.4-2.1,8.9h18.7
				v3h-4.8c-0.2,10-2.2,18.3-6.4,24.8c3.5,4.9,7.8,8.6,12.5,11.3l-1.7,2.5c-4.9-2.9-9.1-6.5-12.5-11.3c-3.3,4.6-7.9,8.4-13.5,11.1
				l-1.9-2.4c5.9-2.7,10.3-6.5,13.7-11.3c-3.3-5.1-5.9-11.1-8.1-17.9C651.5,1441.2,650.1,1443.6,648.6,1445.8z M667.7,1431.8h-12.1
				l-1.3,3.3c1.9,7.3,4.6,13.7,8.1,18.9C665.9,1447.8,667.7,1440.4,667.7,1431.8z"/>
			<path fill="#7791E5" d="M684.2,1430.7h2.7v9.8h5.9v-7.5h25.1v-3.5h2.7c0,1.6,0,2.7,0,3.5h5.2c-0.6-1.7-1.3-3.3-2.1-4.6l2.5-0.5
				c0.6,1.4,1.3,3,1.9,5.1h3.2v2.5h-10.8c0.2,7.1,0.5,12.9,1.3,17c0.2,0.8,0.3,1.7,0.6,3c1.7-4.3,3-9.5,3.7-15.9l2.5,0.5
				c-1,7.9-2.5,14.3-5.2,19.4c0.5,1.6,1,2.7,1.4,3.7c1.1,2.2,2.1,3.3,2.7,3.3c0.8,0,1.4-2.9,2.1-8.3l2.2,1.3
				c-1,6.8-2.2,10.2-3.8,10.2c-1.4,0-3-1.4-4.6-4.1c-0.6-1.1-1.3-2.4-1.6-3.5c-2.1,3.2-4.6,5.6-7.5,7.3l-1.4-2.2
				c3.2-1.9,5.9-4.6,7.8-8.4c-0.5-1.7-1-3.7-1.3-5.6c-1-4.8-1.4-10.8-1.6-17.9h-22.4v17.5c-0.2,7.1-1.4,12.9-4,17l-2.2-1.9
				c2.2-3.7,3.3-8.7,3.3-15.1v-1.1h-5.2c-0.2,7.6-1.6,12.9-4.1,15.7l-2.1-1.6c2.4-2.5,3.7-7.3,3.8-14.1h-3.3v-2.5h11.1v-6.2h-8.6
				L684.2,1430.7L684.2,1430.7z M682.6,1423.4h13.5v-4h3v4h15.4v-4h3v4H731v2.7h-13.5v4.3h-3v-4.3h-15.4v4.3h-3v-4.3h-13.5V1423.4z
				 M714.5,1457.5h-5.2v6h5.6v2.5h-15.6v-26.7h15.6v2.4h-5.6v5.7h5.2V1457.5z M706.9,1442h-5.2v5.7h5.2V1442z M701.7,1449.9v5.4H712
				v-5.4H701.7z M701.7,1457.5v6h5.2v-6H701.7z"/>
			<path fill="#7791E5" d="M746,1446.6c-2.4,2.5-4.9,4.9-7.5,7.1l-1.9-2.4c7.3-6,13-13,17-21h-15.1v-3H755c1.1-2.5,2.1-5.2,3-8.3
				l3,0.3c-0.6,2.5-1.6,5.1-2.9,7.9h28.6v3h-29.9c-2.2,4.6-4.9,8.9-7.9,12.7v27.3h-3L746,1446.6L746,1446.6z M754.6,1445.6h13.2
				v-10.8h3v10.8h13.5v3h-13.5v16.7H787v3h-34.8v-3h15.7v-16.7h-13.2v-3H754.6z"/>
			<path fill="#7791E5" d="M829.5,1469.1c-1.9,0-5.1,0-9.8-0.2c-3.7-0.2-6.5-0.5-8.6-1.1c-2.2-0.6-4.1-2.1-5.9-4.1
				c-0.6-1-1.4-1.4-2.1-1.4c-1.6,0-4,2.5-7.1,7.8l-2.2-2.1c3.2-4.9,5.9-7.8,8.1-8.6v-17.8h-8.3v-2.9h11.1v20.8
				c0.6,0.3,1.3,0.8,1.7,1.4c1.3,1.6,2.9,2.9,4.4,3.7c1.7,0.6,4.3,1.1,7.5,1.1c3.7,0,7.3,0.2,10.6,0.2h7.8l6-0.2l-0.8,3h-12.5
				L829.5,1469.1L829.5,1469.1z M796.8,1420.7c3.8,2.9,7,5.6,9.7,8.4l-2.1,2.1c-2.4-2.7-5.6-5.6-9.7-8.6L796.8,1420.7z M810.2,1428
				h14c-0.8-3.2-1.7-5.7-2.7-7.9l3.2-0.5c1,2.5,1.7,5.4,2.7,8.6h14.5v3h-5.4c-1.6,6.2-3.8,11.8-6.8,16.4c4.4,3.8,8.4,7.8,12.2,11.8
				l-2.2,2.2c-3.5-4-7.3-7.8-11.6-11.8c-4.4,5.6-10.2,9.7-17.2,12.1l-1.6-2.7c6.8-2.4,12.4-6,16.5-11.3c-4-3.5-8.4-7-13.2-10.6
				l2.1-2.1c4.6,3.3,8.9,6.8,12.9,10.2c2.9-4.1,4.8-8.9,6.2-14.5h-23.2v-2.9L810.2,1428L810.2,1428z"/>
			<path fill="#7791E5" d="M872.1,1447.1h-17.6v-25.3h38.1v25.3h-17.5v7.3h20.5v2.9h-20.5v7.9h22.7v3h-48.6v-3h22.9v-7.9h-20.5v-2.9
				h20.5L872.1,1447.1L872.1,1447.1z M872.1,1424.5h-14.6v8.4h14.6V1424.5z M857.3,1435.8v8.4h14.6v-8.4H857.3z M889.6,1432.9v-8.4
				H875v8.4H889.6z M875,1444.2h14.6v-8.4H875V1444.2z"/>
		</g>
	</g>
	<g>
		<g id="形状_2">
			<path fill="#B8C9FF" d="M673.9,462c5.6,0,10,4.6,10,10.2s-4.6,10-10.2,10c-2.7,0-5.2-1.1-7.1-3c-1.9-1.9-2.9-4.4-2.9-7.1
				C663.9,466.5,668.3,462,673.9,462 M896.6,554.1c5.9,0.2,10.5,5.1,10.3,10.8c-0.3,5.4-4.8,9.7-10.2,9.7c-0.2,0-0.3,0-0.5,0
				c-5.7-0.3-10-5.1-9.8-10.6C886.7,558.6,891.2,554.3,896.6,554.1 M183.1,627.2c5.6,0,10,4.6,10,10.2c0,5.6-4.6,10-10.2,10
				c-2.7,0-5.2-1.1-7.1-3c-1.9-1.9-2.9-4.4-2.9-7.1C173.1,631.7,177.6,627.2,183.1,627.2 M588,656.3c1.7,0,3.3,1.4,3.3,3.3
				s-1.4,3.3-3.3,3.3c-1.7,0-3.3-1.4-3.3-3.3C584.6,657.8,586.2,656.3,588,656.3 M673.9,449.3c-12.5,0-22.7,10.2-22.7,22.6
				c0,12.5,10,22.9,22.6,22.9h0.2c12.5,0,22.7-10.2,22.7-22.6l0,0C696.8,459.5,686.4,449.3,673.9,449.3L673.9,449.3z M696.6,472.2
				L696.6,472.2L696.6,472.2L696.6,472.2z M896.7,541.3c-12.2,0-22.4,9.7-22.9,21.9c-0.5,12.7,9.2,23.3,21.9,24c0.3,0,0.6,0,1,0
				c12.2,0,22.4-9.7,22.9-21.9C919.9,552.3,909.6,541.8,896.7,541.3L896.7,541.3L896.7,541.3z M183.1,614.5
				c-12.5,0-22.7,10.2-22.7,22.6c0,12.5,10,22.9,22.6,22.9h0.2c12.5,0,22.7-10.2,22.7-22.6C205.8,624.7,195.7,614.5,183.1,614.5
				L183.1,614.5L183.1,614.5z M588,643.7c-8.9,0-16,7.1-16,16s7.1,16,16,16s16-7.1,16-16C604,650.8,596.9,643.7,588,643.7L588,643.7
				z"/>
		</g>
		<path id="圆角矩形_3" fill="#B8C9FF" d="M350.4,472.5h0.8c2.5,0,4.6,2.1,4.6,4.6V493c0,2.5-2.1,4.6-4.6,4.6h-0.8
			c-2.5,0-4.6-2.1-4.6-4.6v-15.9C345.8,474.6,347.8,472.5,350.4,472.5z M382.3,490.8c1.4,2.4,0.6,5.4-1.7,6.8l0,0l-13,7.5
			c-2.4,1.4-5.4,0.5-6.8-1.9s-0.5-5.4,1.9-6.8l13-7.5C378,487.6,381,488.4,382.3,490.8L382.3,490.8z M382.3,527.5
			c-1.4,2.4-4.4,3.2-6.8,1.9l0,0l-13-7.5c-2.4-1.4-3.2-4.4-1.9-6.8c1.4-2.4,4.4-3.2,6.8-1.9l13,7.5
			C382.9,522.1,383.7,525.1,382.3,527.5L382.3,527.5z M350.7,545.8c-2.7,0-4.9-2.2-4.9-4.9l0,0v-15.1c0-2.7,2.2-4.9,4.9-4.9
			c2.7,0,4.9,2.2,4.9,4.9v15.1C355.8,543.7,353.5,545.8,350.7,545.8L350.7,545.8L350.7,545.8z M319.1,527.5
			c-1.4-2.4-0.6-5.4,1.7-6.8l0,0l13-7.5c2.4-1.3,5.4-0.5,6.8,1.9c1.3,2.4,0.5,5.4-1.7,6.7l-13,7.5
			C323.5,530.6,320.5,529.8,319.1,527.5L319.1,527.5z M319.1,490.8c1.4-2.4,4.4-3.2,6.8-1.9l0,0l13,7.5c2.4,1.4,3.2,4.4,1.7,6.8
			c-1.4,2.4-4.3,3.2-6.7,1.7l-13-7.5C318.4,496.2,317.6,493.2,319.1,490.8L319.1,490.8z M782.8,611.6h1.3c2.4,0,4.4,1.9,4.4,4.4
			v17.6c0,2.4-1.9,4.4-4.4,4.4h-1.3c-2.4,0-4.4-1.9-4.4-4.4l0,0v-17.5C778.5,613.7,780.5,611.6,782.8,611.6L782.8,611.6z M816,631.2
			c1.4,2.5,0.6,5.7-1.9,7.3l-13.3,7.9c-2.4,1.4-5.4,0.6-6.8-1.7l-0.2-0.2c-1.4-2.5-0.6-5.7,1.9-7.3l13.3-7.9
			c2.4-1.4,5.4-0.6,6.8,1.7C816,631,816,631.2,816,631.2z M816,670.1c-1.3,2.4-4.3,3.3-6.8,2.1c0,0-0.2,0-0.2-0.2l-13.3-7.9
			c-2.4-1.6-3.3-4.8-1.9-7.3c1.3-2.4,4.3-3.3,6.8-2.1c0,0,0.2,0,0.2,0.2l13.3,7.9C816.7,664.3,817.5,667.5,816,670.1L816,670.1z
			 M783.6,689.5c-2.9,0-5.1-2.4-5.1-5.2v-15.9c-0.2-2.9,2.1-5.2,4.9-5.2c2.9-0.2,5.2,2.1,5.2,4.9c0,0.2,0,0.2,0,0.3v15.9
			C788.7,687.1,786.5,689.3,783.6,689.5L783.6,689.5z M751.1,670.1c-1.4-2.5-0.6-5.7,1.9-7.3l13.3-7.9c2.4-1.4,5.4-0.6,6.8,1.7
			c0,0,0,0.2,0.2,0.2c1.4,2.5,0.6,5.7-1.9,7.3l-13.3,7.9c-2.4,1.4-5.4,0.6-6.8-1.7C751.2,670.1,751.2,670.1,751.1,670.1L751.1,670.1
			z M751.1,631.2c1.3-2.4,4.3-3.3,6.8-2.1c0,0,0.2,0,0.2,0.2l13.3,7.9c2.4,1.6,3.3,4.8,1.9,7.3c-1.3,2.4-4.3,3.3-6.8,2.1
			c0,0-0.2,0-0.2-0.2l-13.3-7.9C750.6,636.8,749.6,633.7,751.1,631.2z"/>
		<path id="圆角矩形_2_1_" fill="#B8C9FF" d="M654.3,531.8h4.4c2.5,0,4.6,2.1,4.6,4.6v45.4c0,2.5-2.1,4.6-4.6,4.6h-4.4
			c-2.5,0-4.6-2.1-4.6-4.6v-45.4C649.7,533.8,651.8,531.8,654.3,531.8z M633.9,552.2h45.3c2.5,0,4.6,2.1,4.6,4.6v4.4
			c0,2.5-2.1,4.6-4.6,4.6h-45.3c-2.5,0-4.6-2.1-4.6-4.6v-4.4C629.4,554.1,631.3,552.2,633.9,552.2z M525.4,455.4h4.4
			c2.5,0,4.6,2.1,4.6,4.6v45.4c0,2.5-2.1,4.6-4.6,4.6h-4.4c-2.5,0-4.6-2.1-4.6-4.6V460C520.8,457.4,522.8,455.4,525.4,455.4z
			 M504.9,475.8h45.3c2.5,0,4.6,2.1,4.6,4.6v4.4c0,2.5-2.1,4.6-4.6,4.6h-45.3c-2.5,0-4.6-2.1-4.6-4.6v-4.4
			C500.4,477.9,502.5,475.8,504.9,475.8L504.9,475.8z M411.8,570.3h10.5c2.5,0,4.6,2.1,4.6,4.6v69.4c0,2.5-2.1,4.6-4.6,4.6h-10.5
			c-2.5,0-4.6-2.1-4.6-4.6v-69.4C407.2,572.3,409.3,570.3,411.8,570.3L411.8,570.3z M382.4,599.8h69.1c2.5,0,4.6,2.1,4.6,4.6v10.5
			c0,2.5-2.1,4.6-4.6,4.6h-69.1c-2.5,0-4.6-2.1-4.6-4.6v-10.5C377.8,602,379.9,599.8,382.4,599.8z"/>
	</g>
</g>
</svg>
