<?xml version="1.0" encoding="utf-8"?>
<!-- Generator: Adobe Illustrator 18.0.0, SVG Export Plug-In . SVG Version: 6.00 Build 0)  -->
<!DOCTYPE svg PUBLIC "-//W3C//DTD SVG 1.1//EN" "http://www.w3.org/Graphics/SVG/1.1/DTD/svg11.dtd">
<svg version="1.1" id="图层_1" xmlns="http://www.w3.org/2000/svg" xmlns:xlink="http://www.w3.org/1999/xlink" x="0px" y="0px"
	 width="28px" height="28px" viewBox="0 0 28 28" enable-background="new 0 0 28 28" xml:space="preserve">
<path fill="#9FB1FF" d="M22.1,23.7c-0.2-1.3-0.7-2.6-1.5-3.7c-0.6-0.9-1.3-1.6-2.1-2.2c-0.4-0.3-0.8-1.1-0.9-1
	c-0.1,0.1-0.4-0.2-0.7-0.1c-1.4,0.6-2.7,1-3.8,0.8c-0.5-0.1-1.5-0.6-1.9-0.8h-0.2c-0.7,0.3-1.3,1.2-1.9,1.6
	c-0.6,0.5-1.1,1.1-1.5,1.7c-0.4,0.6-0.8,1.3-1.1,2c-0.2,0.5-0.4,1.1-0.4,1.7L22.1,23.7L22.1,23.7z"/>
<g>
	<path fill="#4E6691" stroke="#4E6691" stroke-width="0.2" stroke-miterlimit="10" d="M18,16.1c0.4-0.3,0.7-0.6,1-1
		c0.3-0.4,0.6-0.8,0.8-1.2c0.2-0.4,0.4-0.9,0.5-1.4c0.1-0.5,0.2-1,0.2-1.5c0-1.9-0.6-3.4-1.9-4.7S15.8,4.3,14,4.3S10.7,5,9.5,6.3
		S7.6,9.1,7.6,11c0,1,0.2,2,0.7,2.9c0.4,0.9,1.1,1.7,1.8,2.3c-0.9,0.5-1.7,1.1-2.4,1.8C7,18.7,6.4,19.6,6,20.6c-0.4,1-0.7,2-0.7,3.1
		h1.2c0.1-0.8,0.2-1.5,0.5-2.2c0.3-0.7,0.6-1.3,1-1.9C8.3,19,8.8,18.5,9.4,18s1.2-0.8,1.8-1.1c0.4,0.2,0.9,0.4,1.3,0.5
		c0.5,0.1,1,0.2,1.4,0.2c1,0,1.9-0.2,2.8-0.6C17.3,16.7,17.8,16.4,18,16.1z M10.3,14.8c-1-1.1-1.6-2.4-1.6-3.9s0.5-2.8,1.6-3.9
		s2.3-1.6,3.7-1.6c1,0,1.9,0.2,2.7,0.7c0.8,0.5,1.5,1.1,1.9,2c0.5,0.8,0.7,1.8,0.7,2.7c0,1.5-0.5,2.8-1.6,3.9
		c-1,1.1-2.3,1.6-3.7,1.6l0,0C12.6,16.4,11.3,15.9,10.3,14.8z"/>
	<path fill="#4E6691" stroke="#4E6691" stroke-width="0.2" stroke-miterlimit="10" d="M22,20.6c-0.4-1-1-1.8-1.7-2.6
		c-0.4-0.4-1.8-1.6-2.2-2c-0.3,0.3-0.7,0.5-1.1,0.7c0.8,0.5,2.4,2,3,2.8c0.9,1.2,1.4,2.6,1.5,4.1h1.2C22.7,22.6,22.4,21.5,22,20.6z"
		/>
</g>
<circle fill="#9FB1FF" cx="14.1" cy="11" r="5.5"/>
</svg>
