<?xml version="1.0" encoding="utf-8"?>
<!-- Generator: Adobe Illustrator 18.0.0, SVG Export Plug-In . SVG Version: 6.00 Build 0)  -->
<!DOCTYPE svg PUBLIC "-//W3C//DTD SVG 1.1//EN" "http://www.w3.org/Graphics/SVG/1.1/DTD/svg11.dtd">
<svg version="1.1" id="图层_1" xmlns="http://www.w3.org/2000/svg" xmlns:xlink="http://www.w3.org/1999/xlink" x="0px" y="0px"
	 viewBox="0 0 200 200" enable-background="new 0 0 200 200" xml:space="preserve">
<g>
	<g>
		<g>
			<path fill="#576994" d="M174,69.2c-2.1-12.4-9-22.2-20.6-29.1c-6.7-4-14.2-6.1-21.7-6.1c-9.6,0-18.7,3.5-25.7,9.9
				c-2.1,2-4.1,4.1-6,6.2c-5.9-7.2-11.9-11.6-18.9-14c-12.3-4.1-24.5-2.5-35.7,4.6c-13.4,8.5-20.1,20.5-20,35.6
				c0.1,8.9,3,17.4,9.1,25.9c6.5,9.1,14.5,18.4,25.2,29.3c7.2,7.3,14.6,14.5,21.8,21.6l7,6.9c0.6,0.6,1.3,1.2,1.9,1.8l0.8,0.7
				c1.5,1.2,4.6,3.3,8.7,3.3c3.4,0,6.6-1.4,9.6-4.1c12.2-11.5,25.2-24,37.6-37.4c1.5-1.7,2.8-3.2,4.4-5l-5.1-4.8
				c-1.5,1.7-2.8,3.2-4.4,4.8c-12.3,13.4-25.4,25.9-37.6,37.4c-1.5,1.4-3,2.1-4.5,2.1c-1.8,0-3.2-1-3.8-1.4l-0.6-0.6
				c-0.6-0.6-1.2-1.2-1.8-1.8l-7.1-6.9c-7.2-7.1-14.8-14.4-21.9-21.7C54.1,115.9,46.5,107,40,98c-5.2-7.3-7.7-14.4-7.8-21.8
				c-0.1-12.7,5.4-22.4,16.6-29.5c6-3.8,12.2-5.7,18.6-5.7c3.6,0,7.3,0.6,11.1,1.9c5.9,2,11,5.9,16.3,12.5c0.4,0.4,2.3,2.5,5.3,2.5
				c1.3,0,3.2-0.4,5.1-2.4l0.3-0.3c2-2.2,3.8-4.2,5.8-6.1c5.7-5.2,12.9-8,20.8-8c6.3,0,12.5,1.8,18.1,5.1
				c9.9,5.9,15.5,13.8,17.2,24.2c1.4,9-0.5,17.4-6.1,25.9c-2.2,3.4-4.6,6.6-7.1,9.7l5.6,4.2c2.5-3.1,4.9-6.4,7.1-9.7
				C173.4,90.3,175.8,79.9,174,69.2z"/>
			<path fill="#B0BBFF" d="M78.8,103.9l-0.4-0.4l-5.1-5.8c-3.3-3.8-8-9.8-8.3-15.2c-0.3-6.8,3.9-12.8,14.8-11.7
				c3.7,0.4,8.3-3.2,8.4-9.7s-7.1-10.2-10.8-11c-3.6-0.8-9-0.4-10.2-0.2c-14.5,3.2-25,14.7-25.1,29.7c0,0,0,0.1,0,0.1
				c0,0.1,0,0.2,0,0.4c0,0.9,0,1.8,0.1,2.6c0,0,0,0,0,0c0.8,12.1,10.2,22.5,17,29.4c3.1,3.1-2.7-2.6,4.1,4.6c0.4,0.5,0.9,1,1.4,1.5
				c1.8,1.5,4,2.4,6.5,2.4c5.5,0,10-4.5,10-10C81.4,108.1,80.4,105.7,78.8,103.9z"/>
		</g>
		<circle fill="#576994" cx="156.8" cy="108" r="3.5"/>
		<circle fill="#576994" cx="148.7" cy="117.4" r="3.5"/>
	</g>
	<path fill="#576994" d="M72.6,55.4c-2.9-0.5-5.1-0.3-8.2,0.1c-11.5,1.5-19.7,12.1-18.1,23.7c0.5,4.1,1.8,7,3.8,9.2
		c0.9,1,1.5,1.3,3,1.5c0.7,0.1,1.6-0.2,2.8-1c1.5-1.3,1.7-2.9,0.2-5.1c-0.9-1.7-1.1-2.4-1.7-5.2c-0.6-5.1,1.3-12.9,9.8-15.1
		c1.9-0.6,5.2-0.8,7.3-0.5c2.6,0.2,3.8-0.6,4.4-2.5c0.6-2-0.4-4.1-2.5-4.8"/>
</g>
</svg>
