<?xml version="1.0" standalone="no"?><!DOCTYPE svg PUBLIC "-//W3C//DTD SVG 1.1//EN" "http://www.w3.org/Graphics/SVG/1.1/DTD/svg11.dtd"><svg t="1608347010653" class="icon" viewBox="0 0 1024 1024" version="1.1" xmlns="http://www.w3.org/2000/svg" p-id="5253" xmlns:xlink="http://www.w3.org/1999/xlink" width="200" height="200"><defs><style type="text/css"></style></defs><path d="M890.88 354.304c-10.752-63.488-46.08-113.664-105.472-148.992-34.304-20.48-72.704-31.232-111.104-31.232-49.152 0-95.744 17.92-131.584 50.688-10.752 10.24-20.992 20.992-30.72 31.744-30.208-36.864-60.928-59.392-96.768-71.68-62.976-20.992-125.44-12.8-182.784 23.552-68.608 43.52-102.912 104.96-102.4 182.272 0.512 45.568 15.36 89.088 46.592 132.608 33.28 46.592 74.24 94.208 129.024 150.016 36.864 37.376 74.752 74.24 111.616 110.592l35.84 35.328c3.072 3.072 6.656 6.144 9.728 9.216l4.096 3.584c7.68 6.144 23.552 16.896 44.544 16.896 17.408 0 33.792-7.168 49.152-20.992 62.464-58.88 129.024-122.88 192.512-191.488 7.68-8.704 14.336-16.384 22.528-25.6l-26.112-24.576c-7.68 8.704-14.336 16.384-22.528 24.576-62.976 68.608-130.048 132.608-192.512 191.488-7.68 7.168-15.36 10.752-23.04 10.752-9.216 0-16.384-5.12-19.456-7.168l-3.072-3.072-9.216-9.216-36.352-35.328c-36.864-36.352-75.776-73.728-112.128-111.104C276.992 593.408 238.08 547.84 204.8 501.76c-26.624-37.376-39.424-73.728-39.936-111.616-0.512-65.024 27.648-114.688 84.992-151.04 30.72-19.456 62.464-29.184 95.232-29.184 18.432 0 37.376 3.072 56.832 9.728 30.208 10.24 56.32 30.208 83.456 64 2.048 2.048 11.776 12.8 27.136 12.8 6.656 0 16.384-2.048 26.112-12.288l1.536-1.536c10.24-11.264 19.456-21.504 29.696-31.232 29.184-26.624 66.048-40.96 106.496-40.96 32.256 0 64 9.216 92.672 26.112 50.688 30.208 79.36 70.656 88.064 123.904 7.168 46.08-2.56 89.088-31.232 132.608-11.264 17.408-23.552 33.792-36.352 49.664l28.672 21.504c12.8-15.872 25.088-32.768 36.352-49.664 33.28-52.224 45.568-105.472 36.352-160.256z" fill="#333333" p-id="5254"></path><path d="M403.456 531.968l-2.048-2.048-26.112-29.696c-16.896-19.456-40.96-50.176-42.496-77.824-1.536-34.816 19.968-65.536 75.776-59.904 18.944 2.048 42.496-16.384 43.008-49.664s-36.352-52.224-55.296-56.32c-18.432-4.096-46.08-2.048-52.224-1.024-74.24 16.384-128 75.264-128.512 152.064v2.56c0 4.608 0 9.216 0.512 13.312 4.096 61.952 52.224 115.2 87.04 150.528 15.872 15.872-13.824-13.312 20.992 23.552 2.048 2.56 4.608 5.12 7.168 7.68 9.216 7.68 20.48 12.288 33.28 12.288 28.16 0 51.2-23.04 51.2-51.2 1.024-12.8-4.096-25.088-12.288-34.304z" fill="#DDDDDD" p-id="5255"></path><path d="M802.816 552.96m-17.92 0a17.92 17.92 0 1 0 35.84 0 17.92 17.92 0 1 0-35.84 0Z" fill="#333333" p-id="5256"></path><path d="M761.344 601.088m-17.92 0a17.92 17.92 0 1 0 35.84 0 17.92 17.92 0 1 0-35.84 0Z" fill="#333333" p-id="5257"></path><path d="M371.712 283.648c-14.848-2.56-26.112-1.536-41.984 0.512C270.848 291.84 228.864 346.112 237.056 405.504c2.56 20.992 9.216 35.84 19.456 47.104 4.608 5.12 7.68 6.656 15.36 7.68 3.584 0.512 8.192-1.024 14.336-5.12 7.68-6.656 8.704-14.848 1.024-26.112-4.608-8.704-5.632-12.288-8.704-26.624-3.072-26.112 6.656-66.048 50.176-77.312 9.728-3.072 26.624-4.096 37.376-2.56 13.312 1.024 19.456-3.072 22.528-12.8 3.072-10.24-2.048-20.992-12.8-24.576" fill="#333333" p-id="5258"></path></svg>