<?xml version="1.0" encoding="utf-8"?>
<!-- Generator: Adobe Illustrator 18.0.0, SVG Export Plug-In . SVG Version: 6.00 Build 0)  -->
<!DOCTYPE svg PUBLIC "-//W3C//DTD SVG 1.1//EN" "http://www.w3.org/Graphics/SVG/1.1/DTD/svg11.dtd">
<svg version="1.1" id="图层_1" xmlns="http://www.w3.org/2000/svg" xmlns:xlink="http://www.w3.org/1999/xlink" x="0px" y="0px"
	 viewBox="0 0 200 200" enable-background="new 0 0 200 200" xml:space="preserve">
<g>
	<g>
		<path fill="#B0BBFF" d="M130.7,92.4h-10.2c-0.4,0-0.6-0.5-0.3-0.7l12.7-12.8c0.7-0.7,0.7-1.9,0-2.6l-5.4-5.6
			c-0.7-0.7-1.8-0.7-2.4,0l-16.5,17.7c-0.3,0.4-0.9,0.4-1.2,0L90.9,70.5c-0.7-0.7-1.7-0.7-2.4,0l-5.4,5.6c-0.7,0.7-0.7,1.9,0,2.6
			l13,13.2c0.2,0.2,0.2,0.4-0.2,0.4H84.3c-0.5,0-0.8,0.4-0.8,0.8v8.8c0,1,0.8,1.9,1.9,1.9h16.1c0.5,0,0.8,0.4,0.8,0.8v2.8
			c0,0.5-0.4,0.8-0.8,0.8H85.3c-1,0-1.9,0.8-1.9,1.9v6.8c0,1,0.8,1.9,1.9,1.9h16.1c0.5,0,0.8,0.4,0.8,0.8v8.3c0,1,0.8,1.9,1.9,1.9
			h8.8c0.5,0,0.8-0.4,0.8-0.8v-9.4c0-0.5,0.4-0.8,0.8-0.8h17.1c0.5,0,0.8-0.4,0.8-0.8v-7.8c0-1-0.8-1.9-1.9-1.9h-16.1
			c-0.5,0-0.8-0.4-0.8-0.8v-2.9c0-0.5,0.4-0.8,0.8-0.8h16.1c1,0,1.9-0.8,1.9-1.9v-7.8C132.6,93.2,131.7,92.4,130.7,92.4z"/>
		<path fill="#576994" d="M120.7,92.5h-14.2l15.4-16.6c0.7-0.7,0.7-1.9,0-2.6l-2.4-2.6c-0.7-0.7-1.8-0.7-2.4,0L100,89L82.9,70.6
			c-0.7-0.7-1.7-0.7-2.4,0l-2.4,2.6c-0.7,0.7-0.7,1.9,0,2.6l15.5,16.6H77.9c-0.3,0-0.5,0.2-0.5,0.5v5.2c0,1,0.8,1.9,1.9,1.9h16.9
			v7.5H79.3c-1,0-1.9,0.8-1.9,1.9v3.8c0,1,0.8,1.9,1.9,1.9h16.9v13.2c0,1,0.8,1.9,1.9,1.9h5.2c0.3,0,0.5-0.2,0.5-0.5v-14.6h18.3
			c0.3,0,0.5-0.2,0.5-0.5v-5.2c0-1-0.8-1.9-1.9-1.9h-16.9V100h16.9c1,0,1.9-0.8,1.9-1.9v-3.8C122.6,93.3,121.7,92.5,120.7,92.5z"/>
		<path fill="#576994" d="M165.2,115.3c-8.4-4.3-11.5-8.2-11.5-15.3c0-7.2,2.5-10.7,11.1-15.3c0.3-0.2,0.4-0.4,0.6-0.6l-3.8-5.8v0
			c-8.9,3.2-15.4,11.6-15.4,21.7c0,10,6.4,18.5,15.4,21.7v22.1c0,3.5-2.8,6.3-6.3,6.3H44.7c-3.5,0-6.3-2.8-6.3-6.3v-22.1
			c8.9-3.2,15.4-11.6,15.4-21.7c0-10-6.4-18.5-15.4-21.7V56.2c0-3.5,2.8-6.3,6.3-6.3h109.2c4.3,0,7.7,3.4,7.7,7.7l0.1,13.1h7.2
			c0-7.1,0-16.7,0-16.7c0-6.3-5.1-11.5-11.5-11.5h-115C36.2,42.5,31,47.7,31,54c0,0,0,21.2,0,23c0,3.4,0.2,5.7,3.8,7.7
			c5.2,2.4,11.5,7.4,11.5,15.3c0,10.3-6.5,13.7-11.3,15.3c-3.3,2.1-4,5.6-4,7.7c0,1.8,0,23,0,23c0,6.3,5.1,11.5,11.5,11.5h115
			c6.3,0,11.5-5.1,11.5-11.5c0,0,0-15.3,0-23C169,118.8,168,117.5,165.2,115.3z"/>
	</g>
	<path fill="#576994" d="M165.7,79.5c2.3,3.6-1.5,7.4-5.2,5.2c-0.3-0.2-0.5-0.4-0.7-0.7c-2.3-3.6,1.5-7.4,5.2-5.2
		C165.3,79,165.5,79.2,165.7,79.5z"/>
	<path fill="#576994" d="M168.3,68.4c2.3,3.6-1.5,7.4-5.2,5.2c-0.3-0.2-0.5-0.4-0.7-0.7c-2.3-3.6,1.5-7.4,5.2-5.2
		C167.9,67.9,168.1,68.1,168.3,68.4z"/>
</g>
</svg>
