<?xml version="1.0" encoding="utf-8"?>
<!-- Generator: Adobe Illustrator 18.0.0, SVG Export Plug-In . SVG Version: 6.00 Build 0)  -->
<!DOCTYPE svg PUBLIC "-//W3C//DTD SVG 1.1//EN" "http://www.w3.org/Graphics/SVG/1.1/DTD/svg11.dtd">
<svg version="1.1" id="图层_1" xmlns="http://www.w3.org/2000/svg" xmlns:xlink="http://www.w3.org/1999/xlink" x="0px" y="0px"
	 viewBox="0 0 200 200" enable-background="new 0 0 200 200" xml:space="preserve">
<g>
	<g>
		<g>
			<path fill="#576994" d="M103.3,85.5c1.2-2.4-1-5.3-3.1-5.3c-1.3,0-2.5,0.7-3.2,1.7L91.4,94c0,0-11.2,1.4-12.2,1.6
				c-2.3,0.4-3.4,1.7-3.4,3.8c0,2.1,2.1,3.8,4.2,3.6c0.9-0.1,13.4-1.3,13.4-1.3c2-0.2,3.6-1.5,4.5-3.2
				C97.9,98.4,102.7,86.7,103.3,85.5z"/>
			<circle fill="#576994" cx="160" cy="82.3" r="3.6"/>
			<circle fill="#576994" cx="168.6" cy="86.9" r="3.5"/>
			<path fill="#576994" d="M170.3,84.9c-0.9-1.4-2.2-1.4-3.9-0.7l-10,10.2l0,0l-21.6,21c-1.7,1.2-2.3,3.4-1.7,5.3l6.1,38.4
				l-35.4-17.4c-1.7-1.2-3.9-1.2-5.5,0l-35.7,17l6.4-38c0.6-2-0.1-4.1-1.7-5.3L38.9,87.2l39.5-5.8c2,0,3.8-1.3,4.5-3.3L101,42.6
				l17.9,35.9c0.7,1.9,2.5,3.2,4.5,3.3l36.3,4.1l0.8-7.2l-35.3-4.7l-20.1-40c-0.6-1.7-2.3-2.9-4.1-2.9c-1.9,0-3.5,1.2-4.1,2.9
				L77.2,73.3l-45,7.1c-1.9,0-3.5,1.3-4.1,3c-0.6,1.8,0,3.7,1.5,4.9l31.7,32l-7.1,43c-0.6,1.8,0.1,3.7,1.6,4.8
				c1.5,1.1,3.6,1.1,5.1,0.1l40.2-19.3l39.1,19.4c0.7,0.5,1.6,0.8,2.5,0.8c0.9,0,1.8-0.3,2.6-0.8c1.5-1.1,2.4-3.4,1.8-5.1l-6.2-42.8
				L171.4,89C171.9,87.5,171.3,86.5,170.3,84.9z"/>
		</g>
	</g>
</g>
<g>
	<path fill="#B0BBFF" d="M98.2,111.7L98.2,111.7c-3.1-1.5-4.4-5.2-3-8.3l7.5-15.9c1.5-3.1,5.2-4.4,8.3-3l0,0
		c3.1,1.5,3.9,4.4,2.4,7.5l-7.5,15.9C104.5,111,101.3,113.2,98.2,111.7z"/>
	<path fill="#B0BBFF" d="M106.2,105.4L106.2,105.4c0.5,3.4-2.2,6.2-5.6,6.7L80,114.9c-3.4,0.5-6.3-1.6-6.7-5v0c-0.5-3.4,2-6.6,5.4-7
		l20.7-2.8C102.6,99.6,105.8,102,106.2,105.4z"/>
</g>
</svg>
