<?xml version="1.0" standalone="no"?><!DOCTYPE svg PUBLIC "-//W3C//DTD SVG 1.1//EN" "http://www.w3.org/Graphics/SVG/1.1/DTD/svg11.dtd"><svg t="1661825670763" class="icon" viewBox="0 0 1024 1024" version="1.1" xmlns="http://www.w3.org/2000/svg" p-id="27361" xmlns:xlink="http://www.w3.org/1999/xlink" width="200" height="200"><path d="M583.68 661.504c-57.344 0-112.64-22.528-153.6-63.488l-28.672-28.672 53.248-53.248 28.672 28.672c53.248 53.248 141.312 57.344 198.656 6.144l2.048-2.048c2.048-2.048 4.096-2.048 4.096-4.096l118.784-118.784c57.344-55.296 57.344-147.456 0-204.8l-2.048-2.048c-55.296-57.344-147.456-57.344-204.8 0l-59.392 59.392-4.096 4.096-22.528 28.672L450.56 266.24l24.576-28.672c4.096-4.096 6.144-8.192 10.24-10.24l59.392-59.392C630.784 81.92 768 81.92 854.016 167.936l2.048 2.048c86.016 86.016 86.016 223.232 0 309.248L737.28 598.016c-4.096 4.096-6.144 6.144-10.24 8.192-36.864 36.864-88.064 55.296-143.36 55.296z" fill="#F59751" p-id="27362"></path><path d="M323.584 921.6c-57.344 0-114.688-22.528-155.648-63.488l-2.048-2.048c-83.968-86.016-83.968-225.28 0-311.296l118.784-118.784c4.096-4.096 6.144-6.144 10.24-8.192 86.016-77.824 219.136-73.728 301.056 8.192l28.672 28.672-53.248 53.248-28.672-28.672c-53.248-53.248-141.312-57.344-198.656-6.144l-2.048 2.048c-2.048 2.048-4.096 2.048-4.096 4.096l-118.784 118.784c-57.344 55.296-57.344 147.456 0 204.8l2.048 2.048c55.296 57.344 147.456 57.344 204.8 0l59.392-59.392 4.096-4.096 22.528-28.672 61.44 45.056-24.576 28.672c-4.096 4.096-6.144 8.192-10.24 10.24l-59.392 59.392c-40.96 43.008-96.256 65.536-155.648 65.536z" fill="#F59751" p-id="27363"></path></svg>