<?xml version="1.0" standalone="no"?><!DOCTYPE svg PUBLIC "-//W3C//DTD SVG 1.1//EN" "http://www.w3.org/Graphics/SVG/1.1/DTD/svg11.dtd"><svg class="icon" width="200px" height="200.00px" viewBox="0 0 1024 1024" version="1.1" xmlns="http://www.w3.org/2000/svg"><path d="M649.216 124.928S593.92 102.4 512 102.4s-137.216 24.576-137.216 24.576l272.384 278.528c2.048 2.048 2.048-280.576 2.048-280.576z" fill="#FB5453" /><path d="M802.816 227.328c-59.392-57.344-118.784-77.824-118.784-77.824l-2.048 380.928 204.8-194.56s-22.528-53.248-83.968-108.544z" fill="#6468F1" /><path d="M894.976 372.736L614.4 643.072h284.672s22.528-53.248 22.528-135.168c0-81.92-26.624-135.168-26.624-135.168z" fill="#5283F0" /><path d="M692.224 878.592s55.296-22.528 114.688-77.824c59.392-55.296 79.872-110.592 79.872-110.592l-397.312-2.048 202.752 190.464z" fill="#00B2FE" /><path d="M374.784 901.12s55.296 22.528 137.216 22.528 137.216-24.576 137.216-24.576L374.784 620.544V901.12z" fill="#66D020" /><path d="M231.424 800.768c59.392 57.344 118.784 77.824 118.784 77.824l2.048-380.928-204.8 194.56c0-2.048 24.576 51.2 83.968 108.544z" fill="#9AD122" /><path d="M124.928 372.736S102.4 425.984 102.4 507.904c0 81.92 24.576 135.168 24.576 135.168L409.6 372.736H124.928z" fill="#FFC71A" /><path d="M344.064 149.504s-55.296 22.528-114.688 77.824c-59.392 55.296-79.872 110.592-79.872 110.592l397.312 2.048-202.752-190.464z" fill="#FF7612" /></svg>