<?xml version="1.0" standalone="no"?><!DOCTYPE svg PUBLIC "-//W3C//DTD SVG 1.1//EN" "http://www.w3.org/Graphics/SVG/1.1/DTD/svg11.dtd"><svg class="icon" width="200px" height="200.00px" viewBox="0 0 1024 1024" version="1.1" xmlns="http://www.w3.org/2000/svg"><path d="M870.4 712.704c-6.144-65.536-38.912-137.216-53.248-174.08l-36.864-94.208c-2.048-38.912 10.24-129.024-51.2-239.616-59.392-112.64-182.272-120.832-202.752-122.88s-163.84-2.048-229.376 118.784C227.328 321.536 245.76 444.416 245.76 444.416l-38.912 94.208s-18.432 43.008-32.768 94.208c-16.384 53.248-30.72 135.168-16.384 149.504 16.384 16.384 71.68-75.776 75.776-86.016 0 0 4.096 43.008 14.336 67.584 8.192 18.432 28.672 65.536 71.68 102.4-20.48 8.192-67.584 24.576-73.728 40.96-8.192 24.576 8.192 24.576 34.816 26.624s155.648 6.144 217.088-4.096H532.48c61.44 8.192 190.464 6.144 217.088 4.096 26.624-2.048 40.96-4.096 34.816-26.624-8.192-18.432-55.296-36.864-75.776-40.96 6.144-6.144 12.288-10.24 18.432-18.432 69.632-75.776 63.488-124.928 67.584-151.552 0 0 57.344 86.016 71.68 86.016 4.096 8.192 8.192-4.096 4.096-69.632z" fill="#FFFFFF" /><path d="M354.304 894.976c-12.288-8.192-24.576-16.384-34.816-24.576-20.48 8.192-67.584 24.576-73.728 40.96-8.192 24.576 8.192 24.576 34.816 26.624s155.648 6.144 217.088-4.096h2.048c-38.912-2.048-90.112-6.144-145.408-38.912z m350.208-24.576c-61.44 55.296-135.168 63.488-176.128 65.536h2.048c61.44 8.192 190.464 6.144 217.088 4.096 26.624-2.048 40.96-4.096 34.816-26.624-10.24-18.432-59.392-36.864-77.824-43.008z" fill="#EFAA1C" /><path d="M817.152 538.624l-36.864-94.208S532.48 522.24 245.76 444.416l-38.912 94.208s53.248 18.432 137.216 32.768v126.976s67.584 8.192 118.784 4.096v-118.784c102.4 6.144 225.28 0 354.304-45.056z" fill="#DA2820" /><path d="M731.136 206.848c-59.392-112.64-182.272-120.832-202.752-122.88s-163.84-2.048-229.376 120.832S245.76 446.464 245.76 446.464c288.768 79.872 534.528 0 534.528 0-2.048-38.912 10.24-129.024-49.152-239.616zM442.368 327.68c-24.576 0-47.104-30.72-47.104-67.584s22.528-67.584 47.104-67.584c24.576 0 47.104 30.72 47.104 67.584s-20.48 67.584-47.104 67.584z m141.312 0c-24.576 0-47.104-30.72-47.104-67.584s22.528-67.584 47.104-67.584c24.576 0 47.104 30.72 47.104 67.584S608.256 327.68 583.68 327.68z" fill="#040000" /><path d="M436.224 266.24c0 14.336 8.192 26.624 20.48 26.624s20.48-12.288 20.48-26.624-8.192-26.624-20.48-26.624c-12.288-2.048-20.48 12.288-20.48 26.624z m147.456-16.384c12.288 0 32.768 8.192 28.672 18.432-4.096 8.192-20.48-4.096-24.576-4.096-8.192-2.048-18.432-2.048-26.624 8.192-6.144 8.192-14.336 6.144-12.288-4.096 2.048-10.24 16.384-18.432 34.816-18.432z" fill="#040000" /><path d="M348.16 385.024c0 10.24 86.016 55.296 163.84 53.248s165.888-43.008 165.888-55.296c0-12.288-61.44-34.816-165.888-34.816s-163.84 18.432-163.84 36.864z" fill="#EFAA1C" /><path d="M870.4 712.704c-6.144-65.536-38.912-137.216-53.248-174.08-32.768 10.24-67.584 20.48-100.352 26.624 4.096 14.336 8.192 45.056 6.144 106.496-2.048 90.112-30.72 163.84-102.4 206.848-71.68 40.96-198.656 32.768-253.952-36.864-55.296-65.536-71.68-114.688-59.392-276.48-63.488-12.288-100.352-24.576-100.352-24.576s-18.432 43.008-32.768 94.208c-16.384 53.248-30.72 135.168-16.384 149.504 16.384 16.384 71.68-75.776 75.776-86.016 0 0 4.096 43.008 14.336 67.584 10.24 24.576 38.912 90.112 104.448 126.976 65.536 36.864 120.832 38.912 159.744 38.912 38.912 0 135.168-6.144 206.848-81.92s63.488-124.928 67.584-151.552c0 0 57.344 86.016 71.68 86.016 12.288 6.144 16.384-6.144 12.288-71.68z" fill="#040000" /></svg>