<?xml version="1.0" standalone="no"?><!DOCTYPE svg PUBLIC "-//W3C//DTD SVG 1.1//EN" "http://www.w3.org/Graphics/SVG/1.1/DTD/svg11.dtd"><svg class="icon" width="200px" height="200.00px" viewBox="0 0 1024 1024" version="1.1" xmlns="http://www.w3.org/2000/svg"><path d="M641.024 534.528c-24.576-22.528-59.392-40.96-100.352-51.2s-83.968-14.336-133.12-8.192c-71.68 8.192-131.072 30.72-178.176 67.584-47.104 36.864-67.584 79.872-63.488 126.976 4.096 30.72 18.432 59.392 43.008 81.92 24.576 22.528 59.392 40.96 100.352 51.2s83.968 14.336 133.12 10.24c71.68-8.192 131.072-30.72 178.176-67.584s67.584-79.872 63.488-129.024c-4.096-32.768-18.432-59.392-43.008-81.92z" fill="#FFFFFF" /><path d="M532.48 602.112c-14.336-28.672-38.912-49.152-75.776-57.344-34.816-8.192-67.584-6.144-100.352 8.192-34.816 14.336-57.344 36.864-71.68 65.536-14.336 30.72-16.384 61.44-4.096 90.112 12.288 28.672 36.864 51.2 69.632 61.44 36.864 12.288 71.68 10.24 108.544-6.144 36.864-14.336 61.44-38.912 75.776-71.68 14.336-30.72 12.288-61.44-2.048-90.112z m-126.976 98.304c-8.192 10.24-18.432 18.432-30.72 22.528-12.288 4.096-24.576 4.096-36.864-2.048-10.24-6.144-18.432-12.288-22.528-24.576-4.096-10.24-2.048-22.528 6.144-34.816 8.192-10.24 16.384-18.432 28.672-22.528 10.24-4.096 22.528-4.096 36.864 0 10.24 6.144 18.432 12.288 22.528 24.576 4.096 14.336 2.048 24.576-4.096 36.864z m45.056-59.392c-2.048 6.144-6.144 8.192-10.24 8.192-4.096 2.048-8.192 2.048-14.336 0-8.192-6.144-10.24-12.288-6.144-22.528 6.144-8.192 14.336-12.288 22.528-8.192 4.096 2.048 8.192 6.144 8.192 8.192 4.096 6.144 2.048 10.24 0 14.336z" fill="#040000" /><path d="M815.104 561.152c-10.24-18.432-22.528-30.72-36.864-38.912-16.384-8.192-32.768-18.432-51.2-22.528-4.096-2.048-8.192-2.048-8.192-4.096 0-4.096-2.048-4.096-4.096-4.096-2.048-2.048-4.096-4.096-2.048-6.144 2.048-4.096 2.048-6.144 2.048-8.192 14.336-36.864 14.336-65.536 0-86.016s-38.912-28.672-73.728-28.672c-34.816 0-73.728 8.192-118.784 28.672l-4.096 2.048c-2.048 2.048-4.096 2.048-8.192 2.048-2.048 0-6.144 2.048-8.192 0-2.048 0-4.096-2.048-6.144-4.096-2.048-2.048-2.048-6.144 0-8.192 14.336-47.104 10.24-79.872-8.192-100.352-22.528-22.528-63.488-24.576-118.784-4.096s-108.544 59.392-165.888 114.688c-40.96 40.96-71.68 81.92-94.208 122.88S81.92 595.968 81.92 632.832c0 34.816 10.24 65.536 30.72 96.256 22.528 28.672 49.152 53.248 81.92 73.728 34.816 20.48 71.68 34.816 114.688 45.056 43.008 10.24 88.064 16.384 133.12 16.384s88.064-6.144 129.024-14.336c40.96-10.24 77.824-22.528 108.544-38.912 28.672-16.384 57.344-34.816 79.872-57.344 22.528-22.528 38.912-43.008 51.2-65.536 12.288-22.528 18.432-45.056 18.432-67.584 4.096-22.528-4.096-43.008-14.336-59.392z m-194.56 182.272c-47.104 36.864-106.496 61.44-178.176 67.584-47.104 6.144-92.16 2.048-133.12-10.24s-75.776-28.672-100.352-51.2a134.144 134.144 0 0 1-43.008-81.92c-6.144-47.104 16.384-90.112 63.488-126.976 47.104-36.864 106.496-61.44 178.176-67.584 47.104-6.144 92.16-2.048 133.12 8.192s75.776 28.672 100.352 51.2c24.576 22.528 38.912 51.2 43.008 81.92 6.144 49.152-16.384 92.16-63.488 129.024z" fill="#CD281E" /><path d="M796.672 317.44c12.288 14.336 22.528 32.768 26.624 51.2 4.096 20.48 4.096 36.864-4.096 57.344-2.048 8.192-8.192 12.288-14.336 16.384s-14.336 4.096-22.528 2.048c-8.192-2.048-12.288-8.192-16.384-14.336-4.096-8.192-4.096-14.336-2.048-22.528 6.144-20.48 2.048-36.864-10.24-53.248-14.336-14.336-30.72-22.528-51.2-18.432-8.192 2.048-16.384 0-22.528-4.096-8.192-4.096-10.24-10.24-12.288-18.432-2.048-8.192 0-14.336 4.096-22.528 4.096-8.192 10.24-10.24 18.432-12.288 38.912-4.096 79.872 8.192 106.496 38.912z" fill="#DA761E" /><path d="M882.688 237.568c26.624 30.72 47.104 67.584 53.248 108.544 8.192 40.96 6.144 79.872-8.192 116.736-4.096 8.192-8.192 16.384-16.384 20.48-8.192 4.096-16.384 6.144-24.576 2.048-8.192-2.048-16.384-8.192-20.48-16.384-4.096-8.192-6.144-16.384-2.048-24.576 8.192-26.624 10.24-53.248 6.144-81.92-6.144-28.672-18.432-55.296-36.864-75.776-20.48-22.528-43.008-36.864-71.68-47.104-26.624-8.192-55.296-10.24-81.92-4.096-8.192 2.048-18.432 0-24.576-6.144-8.192-6.144-12.288-12.288-14.336-22.528-2.048-8.192 0-18.432 6.144-24.576s12.288-12.288 22.528-14.336c38.912-8.192 79.872-8.192 116.736 6.144 34.816 10.24 69.632 30.72 96.256 63.488z" fill="#DA761E" /></svg>