<?xml version="1.0" standalone="no"?><!DOCTYPE svg PUBLIC "-//W3C//DTD SVG 1.1//EN" "http://www.w3.org/Graphics/SVG/1.1/DTD/svg11.dtd"><svg t="1661825592973" class="icon" viewBox="0 0 1024 1024" version="1.1" xmlns="http://www.w3.org/2000/svg" p-id="27223" xmlns:xlink="http://www.w3.org/1999/xlink" width="200" height="200"><path d="M665.6 372.736c10.24 0 20.48 0 28.672 2.048-24.576-122.88-155.648-215.04-307.2-215.04-167.936 0-303.104 114.688-303.104 260.096 0 83.968 45.056 153.6 120.832 206.848l-30.72 92.16 106.496-53.248c34.816 8.192 71.68 14.336 106.496 14.336 8.192 0 20.48 0 28.672-2.048-6.144-20.48-8.192-43.008-8.192-65.536-2.048-131.072 112.64-239.616 258.048-239.616z m-163.84-81.92c20.48 2.048 36.864 20.48 36.864 40.96-2.048 20.48-16.384 34.816-36.864 36.864-22.528 0-45.056-14.336-45.056-36.864s22.528-40.96 45.056-40.96zM286.72 366.592c-22.528 0-47.104-14.336-47.104-36.864s22.528-36.864 47.104-36.864c20.48 2.048 36.864 20.48 36.864 40.96 0 16.384-16.384 32.768-36.864 32.768z m657.408 243.712c0-120.832-120.832-221.184-258.048-221.184-143.36 0-258.048 98.304-258.048 221.184s114.688 221.184 258.048 221.184c30.72-2.048 61.44-6.144 92.16-14.336l83.968 47.104-22.528-75.776c59.392-47.104 104.448-108.544 104.448-178.176zM600.064 573.44c-16.384 0-30.72-14.336-30.72-30.72s14.336-30.72 30.72-30.72c22.528 0 36.864 14.336 36.864 30.72s-14.336 30.72-36.864 30.72z m167.936 0c-16.384 0-30.72-14.336-30.72-30.72s14.336-30.72 30.72-30.72c22.528 0 36.864 14.336 36.864 30.72 2.048 16.384-14.336 30.72-36.864 30.72z" fill="#42BF39" p-id="27224"></path></svg>