<?xml version="1.0" encoding="utf-8"?>
<!-- Generator: Adobe Illustrator 18.0.0, SVG Export Plug-In . SVG Version: 6.00 Build 0)  -->
<!DOCTYPE svg PUBLIC "-//W3C//DTD SVG 1.1//EN" "http://www.w3.org/Graphics/SVG/1.1/DTD/svg11.dtd">
<svg version="1.1" id="图层_1" xmlns="http://www.w3.org/2000/svg" xmlns:xlink="http://www.w3.org/1999/xlink" x="0px" y="0px"
	 width="126px" height="126px" viewBox="0 0 126 126" style="enable-background:new 0 0 126 126;" xml:space="preserve">
<style type="text/css">
	.st0{fill:#E4E9F5;}
	.st1{fill:#C1D5EE;}
	.st2{fill:#9DB7DF;}
	.st3{fill:#3F5299;}
	.st4{enable-background:new    ;}
	.st5{fill:#738BC6;}
	.st6{fill:#B6C3E4;}
	.st7{fill:none;}
</style>
<g>
	<path class="st3" d="M104.8,23.3c-4.7-7.6-11.5-13.8-19.4-17.8c-0.9-0.5-2.1-0.1-2.6,0.8c-0.5,0.9-0.1,2.1,0.8,2.6
		c7.3,3.8,13.5,9.4,17.9,16.5c4.5,7.2,6.9,15.5,6.9,24.1c0,25.1-20.4,45.5-45.5,45.5c-25.1,0-45.5-20.4-45.5-45.5
		C17.5,24.3,37.9,3.9,63,3.9c1.1,0,1.9-0.9,1.9-1.9c0-1.1-0.9-1.9-1.9-1.9c-27.2,0-49.3,22.1-49.3,49.3c0,27.2,22.1,49.3,49.3,49.3
		c27.2,0,49.3-22.1,49.3-49.3C112.3,40.1,109.7,31.1,104.8,23.3L104.8,23.3z M104.8,23.3"/>
	<rect x="13.6" y="0" class="st7" width="98.7" height="98.9"/>
	<path class="st3" d="M75.7,4.4c0,1.1,0.9,1.9,1.9,1.9c1.1,0,1.9-0.9,1.9-1.9s-0.9-1.9-1.9-1.9C76.5,2.5,75.7,3.4,75.7,4.4L75.7,4.4
		z M75.7,4.4"/>
	<ellipse class="st2" cx="66.4" cy="49.8" rx="42.1" ry="43.4"/>
	<ellipse class="st1" cx="64.2" cy="50.1" rx="39.9" ry="43.5"/>
	<path id="椭圆_1_1_" class="st0" d="M63,115.9c32.6,0,59.1,2.3,59.1,5.1c0,2.8-26.5,5.1-59.1,5.1s-59.1-2.3-59.1-5.1
		C3.9,118.1,30.4,115.9,63,115.9z"/>
	<path class="st3" d="M50,31.6c-4.3,0-7.7,3.5-7.7,7.7c0,4.3,3.5,7.7,7.7,7.7c4.3,0,7.7-3.5,7.7-7.7C57.7,35.1,54.3,31.6,50,31.6
		L50,31.6z M50,43.2c-2.1,0-3.9-1.7-3.9-3.9c0-2.1,1.7-3.9,3.9-3.9c2.1,0,3.9,1.7,3.9,3.9C53.9,41.4,52.1,43.2,50,43.2L50,43.2z
		 M82.6,31.6c-4.3,0-7.7,3.5-7.7,7.7c0,4.3,3.5,7.7,7.7,7.7c4.3,0,7.7-3.5,7.7-7.7C90.3,35.1,86.8,31.6,82.6,31.6L82.6,31.6z
		 M82.6,43.2c-2.1,0-3.9-1.7-3.9-3.9c0-2.1,1.7-3.9,3.9-3.9c2.1,0,3.9,1.7,3.9,3.9C86.4,41.4,84.7,43.2,82.6,43.2L82.6,43.2z"/>
	<path class="st3" d="M79.5,77c-2.5-4.5-7.2-7.2-12.3-7.2c-5,0-9.7,2.8-12.4,7.2c-0.5,0.9-0.3,2.1,0.7,2.6c0.9,0.5,2.1,0.3,2.6-0.7
		c2-3.3,5.4-5.3,9-5.3c3.7,0,7.1,2,8.9,5.3c0.2,0.4,0.7,0.8,1.2,0.9c0.5,0.1,1,0.1,1.5-0.2C79.7,79.1,80.1,77.9,79.5,77L79.5,77z"/>
	<path class="st3" d="M51,58.7c0-2.3-3.7-7.4-4.1-8l-0.5-0.6l-0.5,0.6c-0.4,0.6-4.1,5.6-4.1,8c0,2.5,2.1,4.6,4.6,4.6
		C48.9,63.3,51,61.3,51,58.7L51,58.7z M42.9,58.7c0-1.5,2.2-4.9,3.4-6.6c1.3,1.8,3.4,5.2,3.4,6.6c0,1.9-1.5,3.4-3.4,3.4
		C44.5,62.2,42.9,60.6,42.9,58.7L42.9,58.7z"/>
</g>
</svg>
