<?xml version="1.0" standalone="no"?><!DOCTYPE svg PUBLIC "-//W3C//DTD SVG 1.1//EN" "http://www.w3.org/Graphics/SVG/1.1/DTD/svg11.dtd"><svg class="icon" width="200px" height="200.00px" viewBox="0 0 1024 1024" version="1.1" xmlns="http://www.w3.org/2000/svg"><path d="M332.8 41.244444h453.688889V184.888889H332.8V41.244444z" fill="#D1D1D1" /><path d="M847.644444 19.911111H176.355556c-72.533333 1.422222-128 61.155556-128 133.688889V881.777778c0 73.955556 58.311111 133.688889 128 133.688889h669.866666c71.111111 0 128-59.733333 128-133.688889V153.6c1.422222-73.955556-55.466667-133.688889-126.577778-133.688889z m61.155556 863.288889c0 34.133333-27.022222 62.577778-61.155556 62.577778H176.355556c-34.133333 0-61.155556-28.444444-61.155556-62.577778V155.022222c0-34.133333 27.022222-62.577778 61.155556-62.577778h669.866666c34.133333 0 61.155556 28.444444 61.155556 62.577778v728.177778z" fill="#444444" /><path d="M723.911111 21.333333H300.088889c-35.555556 0-64 32.711111-64 73.955556v123.733333c0 41.244444 28.444444 73.955556 64 73.955556h420.977778c36.977778 0 65.422222-32.711111 65.422222-73.955556V96.711111c1.422222-41.244444-27.022222-75.377778-62.577778-75.377778zM719.644444 99.555556v116.622222H304.355556V99.555556h415.288888zM473.6 729.6c-8.533333 0-18.488889-5.688889-24.177778-9.955556l-118.044444-116.622222c-14.222222-14.222222-11.377778-34.133333 0-45.511111 14.222222-14.222222 34.133333-11.377778 45.511111 0l96.711111 92.444445 197.688889-199.111112c11.377778-14.222222 32.711111-14.222222 45.511111-1.422222l1.422222 1.422222c14.222222 11.377778 14.222222 32.711111 1.422222 45.511112l-1.422222 1.422222L497.777778 719.644444c-5.688889 5.688889-14.222222 9.955556-24.177778 9.955556z" fill="#444444" /></svg>