<?xml version="1.0" standalone="no"?><!DOCTYPE svg PUBLIC "-//W3C//DTD SVG 1.1//EN" "http://www.w3.org/Graphics/SVG/1.1/DTD/svg11.dtd"><svg t="1690265849052" class="icon" viewBox="0 0 1024 1024" version="1.1" xmlns="http://www.w3.org/2000/svg" p-id="3854" xmlns:xlink="http://www.w3.org/1999/xlink" width="200" height="200"><path d="M510.577778 540.444444m-128 0a128 128 0 1 0 256 0 128 128 0 1 0-256 0Z" fill="#D3D3D3" p-id="3855"></path><path d="M948.622222 507.733333H686.933333c-18.488889 0-32.711111 9.955556-39.822222 25.6-22.755556 52.622222-75.377778 88.177778-133.688889 88.177778s-112.355556-36.977778-133.688889-88.177778c-7.111111-17.066667-24.177778-25.6-39.822222-25.6H75.377778c-36.977778 0-68.266667 29.866667-68.266667 68.266667v341.333333c0 36.977778 29.866667 68.266667 68.266667 68.266667h874.666666c36.977778 0 68.266667-29.866667 68.266667-68.266667v-341.333333c-2.844444-36.977778-31.288889-68.266667-69.688889-68.266667zM942.933333 881.777778c0 17.066667-14.222222 31.288889-31.288889 31.288889H112.355556c-17.066667 0-31.288889-14.222222-31.288889-31.288889V611.555556c0-17.066667 14.222222-31.288889 31.288889-31.288889h209.066666C356.977778 649.955556 429.511111 696.888889 512 696.888889c83.911111 0 156.444444-46.933333 190.577778-116.622222h209.066666c17.066667 0 31.288889 14.222222 31.288889 31.288889v270.222222z" fill="#444444" p-id="3856"></path><path d="M871.822222 460.8c-22.755556 0-34.133333-15.644444-34.133333-34.133333V173.511111c0-22.755556-15.644444-34.133333-34.133333-34.133333H224.711111c-22.755556 0-34.133333 15.644444-34.133333 34.133333v334.222222c0 22.755556-15.644444 34.133333-34.133334 34.133334-22.755556 0-34.133333-15.644444-34.133333-34.133334V173.511111c0-56.888889 49.777778-108.088889 108.088889-108.088889h577.422222c56.888889 0 108.088889 49.777778 108.088889 108.088889v250.311111c-7.111111 22.755556-22.755556 36.977778-44.088889 36.977778z" fill="#444444" p-id="3857"></path><path d="M661.333333 322.844444H366.933333c-25.6 0-45.511111-22.755556-38.4-45.511111 2.844444-17.066667 17.066667-25.6 34.133334-25.6h294.4c25.6 0 45.511111 22.755556 38.4 45.511111-4.266667 15.644444-17.066667 25.6-34.133334 25.6z" fill="#444444" p-id="3858"></path></svg>