<?xml version="1.0" standalone="no"?><!DOCTYPE svg PUBLIC "-//W3C//DTD SVG 1.1//EN" "http://www.w3.org/Graphics/SVG/1.1/DTD/svg11.dtd"><svg class="icon" width="200px" height="200.00px" viewBox="0 0 1024 1024" version="1.1" xmlns="http://www.w3.org/2000/svg"><path d="M463.644444 260.266667h98.133334v203.377777h-98.133334z" fill="#D1D1D1" /><path d="M460.8 795.022222c-8.533333 0-18.488889-5.688889-24.177778-9.955555l-119.466666-118.044445c-14.222222-14.222222-11.377778-34.133333 0-46.933333 14.222222-14.222222 34.133333-11.377778 46.933333 0l98.133333 93.866667 199.111111-201.955556c11.377778-14.222222 32.711111-14.222222 46.933334-1.422222l1.422222 1.422222c14.222222 11.377778 14.222222 32.711111 1.422222 46.933333l-1.422222 1.422223-223.288889 224.711111c-7.111111 5.688889-15.644444 9.955556-25.6 9.955555z" fill="#444444" /><path d="M924.444444 201.955556h-46.933333C867.555556 96.711111 783.644444 15.644444 679.822222 15.644444c-66.844444 0-130.844444 34.133333-164.977778 91.022223-38.4-56.888889-100.977778-91.022222-169.244444-91.022223-103.822222 0-189.155556 82.488889-199.111111 186.311112H100.977778c-46.933333 0-83.911111 38.4-85.333334 83.911111v203.377777c0 44.088889 34.133333 82.488889 78.222223 83.911112v395.377777c0 22.755556 15.644444 39.822222 38.4 39.822223h758.044444c22.755556 0 39.822222-19.911111 39.822222-42.666667V662.755556c0-18.488889-15.644444-34.133333-34.133333-34.133334s-34.133333 15.644444-34.133333 34.133334v260.266666c0 9.955556-8.533333 18.488889-18.488889 18.488889H183.466667c-9.955556 0-18.488889-8.533333-18.488889-18.488889V576h44.088889c17.066667 0 32.711111-11.377778 34.133333-27.022222 2.844444-19.911111-11.377778-39.822222-32.711111-39.822222H100.977778c-9.955556 0-17.066667-8.533333-17.066667-17.066667V285.866667c0-9.955556 8.533333-17.066667 17.066667-17.066667h824.888889c9.955556 0 17.066667 8.533333 17.066666 17.066667v203.377777c0 9.955556-8.533333 17.066667-17.066666 17.066667h-106.666667c-17.066667 0-32.711111 11.377778-34.133333 27.022222-2.844444 19.911111 11.377778 39.822222 32.711111 39.822223H924.444444c46.933333 0 83.911111-38.4 85.333334-83.911112V285.866667c-1.422222-46.933333-38.4-83.911111-85.333334-83.911111zM345.6 82.488889c66.844444 0 123.733333 52.622222 132.266667 119.466667H217.6c4.266667-66.844444 61.155556-119.466667 128-119.466667z m334.222222 0c66.844444 0 123.733333 52.622222 132.266667 119.466667H547.555556c8.533333-68.266667 64-119.466667 132.266666-119.466667z" fill="#444444" /></svg>