<?xml version="1.0" standalone="no"?><!DOCTYPE svg PUBLIC "-//W3C//DTD SVG 1.1//EN" "http://www.w3.org/Graphics/SVG/1.1/DTD/svg11.dtd"><svg class="icon" width="200px" height="200.00px" viewBox="0 0 1024 1024" version="1.1" xmlns="http://www.w3.org/2000/svg"><path d="M520.533333 651.377778L981.333333 467.911111c2.844444-1.422222 5.688889-2.844444 5.688889-7.111111v-109.511111c0-5.688889-5.688889-8.533333-9.955555-7.111111l-460.8 184.888889c-2.844444 0-2.844444 2.844444-2.844445 7.111111v109.511111c-2.844444 4.266667 1.422222 8.533333 7.111111 5.688889z" fill="#D1D1D1" /><path d="M948.622222 369.777778l68.266667-25.6v-142.222222c0-29.866667-9.955556-55.466667-31.288889-76.8-21.333333-21.333333-46.933333-31.288889-76.8-31.288889H115.2c-29.866667-1.422222-55.466667 8.533333-76.8 29.866666S7.111111 170.666667 7.111111 200.533333v622.933334c0 29.866667 9.955556 55.466667 31.288889 76.8 21.333333 21.333333 46.933333 31.288889 76.8 31.288889h792.177778c29.866667 0 55.466667-9.955556 76.8-31.288889 21.333333-21.333333 31.288889-46.933333 31.288889-76.8V448c0-18.488889-15.644444-32.711111-32.711111-32.711111-18.488889 0-32.711111 15.644444-32.711112 32.711111v352.711111c0 17.066667-5.688889 31.288889-17.066666 41.244445-12.8 12.8-25.6 17.066667-41.244445 17.066666H133.688889c-17.066667 0-31.288889-5.688889-41.244445-17.066666-12.8-12.8-17.066667-25.6-17.066666-41.244445V224.711111c0-7.111111 1.422222-15.644444 5.688889-22.755555 2.844444-7.111111 7.111111-14.222222 12.8-18.488889 5.688889-5.688889 12.8-9.955556 18.488889-12.8 8.533333-2.844444 15.644444-5.688889 22.755555-5.688889h755.2c17.066667 0 31.288889 5.688889 41.244445 17.066666 12.8 12.8 17.066667 25.6 17.066666 41.244445V369.777778z" fill="#444444" /><path d="M965.688889 280.177778L512 463.644444 55.466667 280.177778v82.488889L512 544.711111l456.533333-182.044444z" fill="#444444" /></svg>