<?xml version="1.0" standalone="no"?><!DOCTYPE svg PUBLIC "-//W3C//DTD SVG 1.1//EN" "http://www.w3.org/Graphics/SVG/1.1/DTD/svg11.dtd"><svg class="icon" width="200px" height="200.00px" viewBox="0 0 1024 1024" version="1.1" xmlns="http://www.w3.org/2000/svg"><path d="M755.2 701.155556H378.311111c-8.533333 0-15.644444-7.111111-15.644444-15.644445V371.2c0-8.533333 7.111111-15.644444 15.644444-15.644444H753.777778c8.533333 0 15.644444 7.111111 15.644444 15.644444v314.311111c1.422222 9.955556-5.688889 15.644444-14.222222 15.644445z" fill="#D1D1D1" /><path d="M278.755556 361.244444h469.333333c21.333333 0 34.133333-18.488889 34.133333-36.977777s-11.377778-36.977778-34.133333-36.977778h-469.333333c-21.333333 0-34.133333 18.488889-34.133334 36.977778-1.422222 18.488889 9.955556 36.977778 34.133334 36.977777zM278.755556 548.977778h469.333333c11.377778 0 21.333333-5.688889 28.444444-15.644445 7.111111-11.377778 8.533333-29.866667 0-44.088889-7.111111-9.955556-17.066667-17.066667-28.444444-17.066666h-469.333333c-21.333333 0-34.133333 18.488889-34.133334 36.977778-1.422222 21.333333 9.955556 39.822222 34.133334 39.822222zM745.244444 662.755556H278.755556c-21.333333 0-34.133333 18.488889-34.133334 36.977777s11.377778 36.977778 34.133334 36.977778h469.333333c21.333333 0 34.133333-18.488889 34.133333-36.977778-1.422222-18.488889-12.8-36.977778-36.977778-36.977777z" fill="#444444" /><path d="M941.511111 287.288889c18.488889 0 34.133333-15.644444 34.133333-34.133333v-105.244445c0-72.533333-56.888889-133.688889-128-133.688889H176.355556c-71.111111 0-128 59.733333-128 133.688889v728.177778c0 72.533333 56.888889 133.688889 128 133.688889h669.866666c71.111111 0 128-59.733333 128-133.688889V413.866667c0-18.488889-15.644444-34.133333-34.133333-34.133334-18.488889 0-34.133333 15.644444-34.133333 34.133334v462.222222c0 35.555556-27.022222 62.577778-61.155556 62.577778h-668.444444c-34.133333 0-61.155556-27.022222-61.155556-62.577778V147.911111C115.2 112.355556 142.222222 85.333333 176.355556 85.333333h669.866666c34.133333 0 61.155556 27.022222 61.155556 62.577778v105.244445c1.422222 18.488889 15.644444 34.133333 34.133333 34.133333z" fill="#444444" /></svg>