<?xml version="1.0" standalone="no"?><!DOCTYPE svg PUBLIC "-//W3C//DTD SVG 1.1//EN" "http://www.w3.org/Graphics/SVG/1.1/DTD/svg11.dtd"><svg class="icon" width="200px" height="200.00px" viewBox="0 0 1024 1024" version="1.1" xmlns="http://www.w3.org/2000/svg"><path d="M547.555556 640c-78.222222 0-140.8-62.577778-140.8-140.8s62.577778-140.8 140.8-140.8 140.8 62.577778 140.8 140.8S625.777778 640 547.555556 640z" fill="#D1D1D1" /><path d="M1008.355556 413.866667c-7.111111-32.711111-28.444444-55.466667-52.622223-54.044445H952.888889c-66.844444 0-118.044444-54.044444-118.044445-118.044444 0-21.333333 9.955556-45.511111 9.955556-45.511111 12.8-29.866667 2.844444-62.577778-22.755556-82.488889l-128-69.688889-1.422222-1.422222c-25.6-12.8-61.155556-5.688889-82.488889 15.644444-15.644444 17.066667-61.155556 52.622222-93.866666 52.622222-35.555556 0-82.488889-39.822222-93.866667-54.044444-19.911111-21.333333-54.044444-28.444444-82.488889-17.066667l-130.844444 71.111111-1.422223 1.422223c-25.6 17.066667-36.977778 52.622222-24.177777 82.488888v1.422223c7.111111 17.066667 9.955556 31.288889 9.955555 44.088889 0 66.844444-54.044444 118.044444-118.044444 118.044444H71.111111c-25.6 0-46.933333 19.911111-52.622222 52.622222-1.422222 2.844444-12.8 58.311111-12.8 100.977778s9.955556 98.133333 9.955555 99.555556c7.111111 32.711111 28.444444 54.044444 52.622223 54.044444h5.688889c66.844444 0 118.044444 54.044444 118.044444 118.044444 0 21.333333-9.955556 45.511111-9.955556 45.511112-12.8 28.444444-2.844444 64 22.755556 82.488888l123.733333 69.688889h1.422223c25.6 12.8 61.155556 5.688889 82.488888-17.066666 15.644444-17.066667 62.577778-55.466667 96.711112-55.466667 36.977778 0 83.911111 41.244444 96.711111 58.311111 12.8 14.222222 32.711111 22.755556 54.044444 22.755556 9.955556 0 19.911111-1.422222 28.444445-5.688889l128-69.688889 1.422222-1.422222c25.6-17.066667 36.977778-52.622222 24.177778-82.488889v-1.422222c-7.111111-17.066667-9.955556-31.288889-9.955556-44.088889 0-66.844444 54.044444-118.044444 118.044444-118.044445h2.844445c25.6 0 46.933333-21.333333 52.622222-52.622222 1.422222-2.844444 9.955556-58.311111 9.955556-99.555556 2.844444-44.088889-7.111111-98.133333-7.111111-100.977777zM662.755556 917.333333c-14.222222-14.222222-28.444444-25.6-41.244445-36.977777-39.822222-29.866667-76.8-44.088889-112.355555-44.088889s-71.111111 14.222222-109.511112 44.088889c-14.222222 9.955556-28.444444 22.755556-41.244444 36.977777L256 859.022222c5.688889-14.222222 14.222222-39.822222 14.222222-68.266666 0-105.244444-78.222222-190.577778-182.044444-199.111112-1.422222-15.644444-7.111111-51.2-7.111111-76.8 0-28.444444 5.688889-61.155556 7.111111-76.8 100.977778-11.377778 179.2-96.711111 179.2-200.533333 0-21.333333-5.688889-44.088889-14.222222-68.266667l109.511111-61.155555c12.8 12.8 28.444444 25.6 41.244444 36.977778 39.822222 28.444444 75.377778 39.822222 108.088889 39.822222s69.688889-14.222222 108.088889-39.822222c21.333333-14.222222 35.555556-29.866667 41.244444-35.555556l106.666667 59.733333c-5.688889 14.222222-14.222222 39.822222-14.222222 68.266667 0 105.244444 78.222222 190.577778 182.044444 199.111111 1.422222 15.644444 7.111111 51.2 7.111111 76.8s-5.688889 61.155556-7.111111 76.8c-102.4 8.533333-182.044444 93.866667-182.044444 199.111111 0 28.444444 8.533333 54.044444 14.222222 68.266667l-105.244444 59.733333z m2.844444 2.844445l-2.844444 4.266666v-1.422222l2.844444-2.844444z m-7.111111 7.111111l1.422222-2.844445-1.422222 2.844445z" fill="#444444" /><path d="M600.177778 634.311111C568.888889 657.066667 526.222222 669.866667 483.555556 659.911111c-59.733333-9.955556-108.088889-59.733333-120.888889-118.044444-21.333333-105.244444 68.266667-197.688889 173.511111-179.2 58.311111 8.533333 105.244444 52.622222 122.311111 108.088889 7.111111 21.333333 7.111111 41.244444 5.688889 62.577777-1.422222 17.066667 8.533333 32.711111 25.6 36.977778 19.911111 5.688889 36.977778-8.533333 39.822222-28.444444 1.422222-8.533333 1.422222-19.911111 1.422222-29.866667 0-135.111111-123.733333-240.355556-261.688889-213.333333-85.333333 17.066667-155.022222 86.755556-170.666666 174.933333-25.6 137.955556 81.066667 258.844444 213.333333 258.844444 46.933333 0 91.022222-15.644444 128-41.244444 15.644444-12.8 19.911111-35.555556 5.688889-48.355556-14.222222-15.644444-34.133333-18.488889-45.511111-8.533333z" fill="#444444" /></svg>