<?xml version="1.0" standalone="no"?><!DOCTYPE svg PUBLIC "-//W3C//DTD SVG 1.1//EN" "http://www.w3.org/Graphics/SVG/1.1/DTD/svg11.dtd"><svg class="icon" width="200px" height="200.00px" viewBox="0 0 1024 1024" version="1.1" xmlns="http://www.w3.org/2000/svg"><path d="M204.8 769.422222c0 34.133333 27.022222 61.155556 61.155556 61.155556s61.155556-27.022222 61.155555-61.155556-27.022222-61.155556-61.155555-61.155555c-32.711111 0-61.155556 27.022222-61.155556 61.155555zM698.311111 769.422222c0 34.133333 27.022222 61.155556 61.155556 61.155556s61.155556-27.022222 61.155555-61.155556-27.022222-61.155556-61.155555-61.155555-61.155556 27.022222-61.155556 61.155555z" fill="#D1D1D1" /><path d="M1016.888889 520.533333s-88.177778-157.866667-112.355556-200.533333c-24.177778-42.666667-45.511111-48.355556-93.866666-48.355556h-116.622223v-81.066666c-2.844444-27.022222-27.022222-49.777778-56.888888-49.777778H8.533333v66.844444h618.666667v267.377778c0 24.177778 18.488889 42.666667 42.666667 42.666667h128v-66.844445h-103.822223v-108.088888h136.533334L952.888889 547.555556v209.066666l-1.422222 1.422222h-78.222223v-2.844444C857.6 704 810.666667 668.444444 758.044444 668.444444c-54.044444 0-100.977778 34.133333-116.622222 86.755556 0 1.422222 0 1.422222-1.422222 2.844444H385.422222v-2.844444C369.777778 704 322.844444 668.444444 268.8 668.444444s-100.977778 34.133333-116.622222 86.755556c0 1.422222 0 1.422222-1.422222 2.844444H78.222222l-1.422222-1.422222V519.111111H8.533333v238.933333c0 38.4 31.288889 69.688889 69.688889 69.688889h76.8c15.644444 49.777778 61.155556 85.333333 113.777778 85.333334s98.133333-34.133333 113.777778-85.333334H640c15.644444 49.777778 61.155556 85.333333 113.777778 85.333334s98.133333-34.133333 113.777778-85.333334h79.644444c38.4 0 69.688889-31.288889 69.688889-69.688889V520.533333z m-200.533333 270.222223c0 9.955556-1.422222 21.333333-7.111112 29.866666-9.955556 18.488889-31.288889 31.288889-52.622222 31.288889-22.755556 0-42.666667-12.8-52.622222-31.288889-5.688889-9.955556-7.111111-18.488889-7.111111-29.866666 0-8.533333 1.422222-15.644444 5.688889-25.6 0 0 0-1.422222 1.422222-1.422223 0-1.422222 1.422222-1.422222 1.422222-2.844444 9.955556-17.066667 31.288889-29.866667 52.622222-29.866667s41.244444 12.8 52.622223 29.866667c1.422222 1.422222 1.422222 2.844444 2.844444 5.688889 1.422222 7.111111 2.844444 14.222222 2.844445 24.177778z m-487.822223 0c0 9.955556-1.422222 18.488889-7.111111 29.866666a59.875556 59.875556 0 0 1-105.244444 0c-5.688889-9.955556-7.111111-18.488889-7.111111-29.866666 0-8.533333 1.422222-15.644444 5.688889-25.6 0 0 0-1.422222 1.422222-1.422223 0-1.422222 1.422222-1.422222 1.422222-2.844444 9.955556-17.066667 31.288889-29.866667 52.622222-29.866667s41.244444 12.8 52.622222 29.866667c1.422222 1.422222 1.422222 2.844444 2.844445 5.688889 0 7.111111 2.844444 14.222222 2.844444 24.177778z" fill="#444444" /><path d="M66.844444 271.644444H8.533333v66.844445h325.688889v-66.844445zM66.844444 391.111111H8.533333v66.844445h194.844445v-66.844445z" fill="#444444" /></svg>