<?xml version="1.0" standalone="no"?><!DOCTYPE svg PUBLIC "-//W3C//DTD SVG 1.1//EN" "http://www.w3.org/Graphics/SVG/1.1/DTD/svg11.dtd"><svg class="icon" width="200px" height="200.00px" viewBox="0 0 1024 1024" version="1.1" xmlns="http://www.w3.org/2000/svg"><path d="M863.288889 571.733333c-89.6-2.844444-365.511111 0-365.511111 0l-45.511111-167.822222h502.044444S863.288889 568.888889 863.288889 571.733333z" fill="#D1D1D1" /><path d="M910.222222 238.933333c-108.088889-1.422222-460.8 0-567.466666 0-31.288889 0-48.355556 34.133333-32.711112 59.733334 7.111111 9.955556 18.488889 17.066667 32.711112 17.066666h571.733333c7.111111 0 11.377778 7.111111 8.533333 14.222223L772.266667 664.177778h-426.666667l-1.422222-2.844445L227.555556 237.511111l-34.133334-133.688889c-1.422222-15.644444-17.066667-29.866667-32.711111-29.866666H156.444444l-106.666666 1.422222c-17.066667 0-34.133333 9.955556-39.822222 27.022222-8.533333 25.6 11.377778 49.777778 35.555555 49.777778h75.377778l2.844444 4.266666 149.333334 558.933334c5.688889 18.488889 19.911111 31.288889 38.4 29.866666H796.444444c15.644444 0 29.866667-8.533333 38.4-24.177777l159.288889-354.133334c8.533333-22.755556 17.066667-56.888889 2.844445-89.6-1.422222-2.844444-2.844444-5.688889-5.688889-9.955555-21.333333-29.866667-66.844444-28.444444-81.066667-28.444445z" fill="#444444" /><path d="M342.755556 661.333333l1.422222 2.844445-1.422222-2.844445z" fill="#701293" /><path d="M310.044444 856.177778c-32.711111 0-56.888889 24.177778-56.888888 56.888889s24.177778 56.888889 56.888888 56.888889 56.888889-24.177778 56.888889-56.888889c-1.422222-34.133333-25.6-56.888889-56.888889-56.888889zM766.577778 856.177778c-31.288889 0-56.888889 25.6-56.888889 56.888889 0 32.711111 24.177778 56.888889 56.888889 56.888889s56.888889-24.177778 56.888889-56.888889c-2.844444-34.133333-27.022222-56.888889-56.888889-56.888889z" fill="#444444" /></svg>