<?xml version="1.0" standalone="no"?><!DOCTYPE svg PUBLIC "-//W3C//DTD SVG 1.1//EN" "http://www.w3.org/Graphics/SVG/1.1/DTD/svg11.dtd"><svg class="icon" width="200px" height="200.00px" viewBox="0 0 1024 1024" version="1.1" xmlns="http://www.w3.org/2000/svg"><path d="M951.466667 436.622222v214.755556H731.022222c-25.6 0-49.777778-27.022222-49.777778-59.733334v-92.444444c0-34.133333 22.755556-59.733333 49.777778-59.733333 0-2.844444 220.444444-2.844444 220.444445-2.844445z" fill="#D1D1D1" /><path d="M802.133333 590.222222c22.755556 0 41.244444-18.488889 41.244445-42.666666 0-22.755556-18.488889-41.244444-41.244445-41.244445-22.755556 0-41.244444 18.488889-41.244444 41.244445 0 24.177778 18.488889 42.666667 41.244444 42.666666z" fill="#444444" /><path d="M1018.311111 284.444444c-1.422222-71.111111-58.311111-125.155556-126.577778-125.155555H133.688889c-68.266667 0-125.155556 55.466667-125.155556 123.733333v502.044445c0 34.133333 14.222222 65.422222 38.4 88.177777C71.111111 896 102.4 908.8 135.111111 908.8h756.622222c32.711111 0 65.422222-11.377778 89.6-35.555556 24.177778-24.177778 38.4-55.466667 38.4-88.177777V284.444444z m-73.955555 362.666667H681.244444c-29.866667 0-52.622222-22.755556-52.622222-49.777778v-102.4c0-27.022222 24.177778-49.777778 52.622222-49.777777h263.111112v201.955555z m-384-145.066667v88.177778c0 34.133333 14.222222 66.844444 38.4 89.6 24.177778 24.177778 56.888889 35.555556 91.022222 35.555556h261.688889v72.533333c0 29.866667-24.177778 49.777778-51.2 49.777778H126.577778c-29.866667 0-51.2-22.755556-51.2-49.777778V278.755556c0-29.866667 24.177778-49.777778 51.2-49.777778h770.844444c29.866667 0 51.2 22.755556 51.2 49.777778v98.133333H688.355556c-69.688889 0-126.577778 56.888889-128 125.155555z" fill="#444444" /></svg>