<?xml version="1.0" standalone="no"?><!DOCTYPE svg PUBLIC "-//W3C//DTD SVG 1.1//EN" "http://www.w3.org/Graphics/SVG/1.1/DTD/svg11.dtd"><svg class="icon" width="200px" height="200.00px" viewBox="0 0 1024 1024" version="1.1" xmlns="http://www.w3.org/2000/svg"><path d="M489.244444 567.466667c-22.755556-9.955556-29.866667-36.977778-21.333333-59.733334l52.622222-112.355555c9.955556-22.755556 36.977778-29.866667 59.733334-21.333334 22.755556 9.955556 25.6 29.866667 15.644444 52.622223l-52.622222 113.777777c-8.533333 19.911111-31.288889 35.555556-54.044445 27.022223z" fill="#D1D1D1" /><path d="M547.555556 521.955556c2.844444 24.177778-15.644444 41.244444-38.4 46.933333l-145.066667 21.333333c-24.177778 2.844444-45.511111-12.8-46.933333-35.555555-2.844444-24.177778 14.222222-46.933333 38.4-48.355556l145.066666-21.333333c19.911111-2.844444 42.666667 12.8 46.933334 36.977778z" fill="#D1D1D1" /><path d="M1008.355556 375.466667c-9.955556-17.066667-28.444444-32.711111-48.355556-38.4l-160.711111-45.511111c-9.955556-1.422222-17.066667 0-25.6 2.844444s-14.222222 12.8-15.644445 22.755556c-1.422222 9.955556 0 17.066667 2.844445 25.6 2.844444 8.533333 12.8 14.222222 22.755555 15.644444l170.666667 48.355556-183.466667 206.222222c-12.8 14.222222-17.066667 35.555556-17.066666 52.622222l32.711111 260.266667-12.8-2.844445-231.822222-108.088889c-17.066667-5.688889-38.4-5.688889-58.311111 0l-244.622223 112.355556v-12.8l29.866667-247.466667c0-17.066667-5.688889-38.4-17.066667-52.622222L68.266667 411.022222l12.8-2.844444 258.844444-46.933334c17.066667-5.688889 35.555556-15.644444 45.511111-32.711111l128-236.088889 8.533334 9.955556 96.711111 145.066667c5.688889 8.533333 14.222222 14.222222 22.755555 14.222222 9.955556 1.422222 17.066667 0 25.6-5.688889 15.644444-12.8 21.333333-35.555556 9.955556-51.2L580.266667 61.155556c-5.688889-8.533333-14.222222-15.644444-22.755556-22.755556-36.977778-24.177778-86.755556-14.222222-112.355555 22.755556L327.111111 291.555556h-1.422222L65.422222 337.066667c-9.955556 1.422222-21.333333 8.533333-28.444444 14.222222-15.644444 14.222222-28.444444 32.711111-29.866667 52.622222-1.422222 22.755556 2.844444 45.511111 17.066667 61.155556l176.355555 197.688889v1.422222l-31.288889 250.311111c0 9.955556 1.422222 21.333333 2.844445 29.866667 15.644444 39.822222 62.577778 62.577778 102.4 46.933333L512 883.2l1.422222 1.422222 231.822222 108.088889c9.955556 2.844444 21.333333 5.688889 29.866667 2.844445 22.755556 0 39.822222-9.955556 54.044445-25.6s22.755556-36.977778 21.333333-58.311112l-29.866667-250.311111 1.422222-1.422222 174.933334-194.844444c5.688889-8.533333 12.8-17.066667 14.222222-28.444445 8.533333-19.911111 7.111111-42.666667-2.844444-61.155555z" fill="#444444" /><path d="M503.466667 335.644444c-12.8 0-24.177778 5.688889-29.866667 15.644445l-38.4 82.488889c-17.066667 1.422222-75.377778 9.955556-82.488889 9.955555-21.333333 2.844444-32.711111 15.644444-32.711111 36.977778 0 9.955556 2.844444 17.066667 12.8 24.177778 5.688889 5.688889 15.644444 9.955556 25.6 9.955555h2.844444c5.688889 0 93.866667-8.533333 93.866667-8.533333 15.644444-1.422222 29.866667-12.8 38.4-28.444444l1.422222-1.422223c2.844444-9.955556 32.711111-82.488889 36.977778-89.6 5.688889-9.955556 2.844444-22.755556-1.422222-35.555555-4.266667-8.533333-17.066667-15.644444-27.022222-15.644445z" fill="#444444" /></svg>