<?xml version="1.0" standalone="no"?><!DOCTYPE svg PUBLIC "-//W3C//DTD SVG 1.1//EN" "http://www.w3.org/Graphics/SVG/1.1/DTD/svg11.dtd"><svg class="icon" width="200px" height="200.00px" viewBox="0 0 1024 1024" version="1.1" xmlns="http://www.w3.org/2000/svg"><path d="M964.608 354.304c-8.192-6.144-18.432-12.288-28.672-14.336l-225.28-63.488-36.864-55.296v-2.048l-90.112-135.168c-8.192-10.24-14.336-18.432-24.576-24.576-12.288-8.192-28.672-12.288-43.008-12.288h-8.192c-14.336 0-28.672 4.096-43.008 12.288-10.24 6.144-16.384 14.336-24.576 24.576l-90.112 135.168v2.048l-36.864 55.296-225.28 63.488c-10.24 2.048-20.48 8.192-28.672 14.336-22.528 16.384-32.768 43.008-32.768 69.632 0 6.144 0 12.288 2.048 20.48 2.048 10.24 8.192 20.48 14.336 28.672l145.408 184.32-10.24 233.472c-2.048 47.104 34.816 86.016 79.872 88.064 6.144 0 10.24 0 16.384-2.048 6.144 0 12.288-2.048 18.432-4.096l217.088-81.92 217.088 81.92c6.144 2.048 12.288 4.096 18.432 4.096 6.144 2.048 12.288 2.048 16.384 2.048 45.056-2.048 81.92-40.96 79.872-88.064l-10.24-233.472 145.408-184.32c6.144-8.192 12.288-18.432 14.336-28.672 2.048-6.144 2.048-12.288 2.048-20.48 6.144-26.624-6.144-53.248-28.672-69.632z" fill="#FFFFFF" opacity=".6" /><path d="M964.608 354.304c-8.192-6.144-18.432-12.288-28.672-14.336l-225.28-63.488-36.864-55.296v-2.048l-90.112-135.168c-8.192-10.24-14.336-18.432-24.576-24.576-12.288-8.192-28.672-12.288-43.008-12.288h-8.192c-14.336 0-28.672 4.096-43.008 12.288-10.24 6.144-16.384 14.336-24.576 24.576l-90.112 135.168v2.048l-36.864 55.296-225.28 63.488c-10.24 2.048-20.48 8.192-28.672 14.336-22.528 16.384-32.768 43.008-32.768 69.632 0 6.144 0 12.288 2.048 20.48 2.048 10.24 8.192 20.48 14.336 28.672l145.408 184.32-10.24 233.472c-2.048 47.104 34.816 86.016 79.872 88.064 6.144 0 10.24 0 16.384-2.048 6.144 0 12.288-2.048 18.432-4.096l686.08-499.712c6.144-8.192 12.288-18.432 14.336-28.672 2.048-6.144 2.048-12.288 2.048-20.48 4.096-26.624-8.192-53.248-30.72-69.632z" fill="#FFFFFF" /></svg>