<?xml version="1.0" standalone="no"?><!DOCTYPE svg PUBLIC "-//W3C//DTD SVG 1.1//EN" "http://www.w3.org/Graphics/SVG/1.1/DTD/svg11.dtd"><svg t="1690605223371" class="icon" viewBox="0 0 1024 1024" version="1.1" xmlns="http://www.w3.org/2000/svg" p-id="4005" xmlns:xlink="http://www.w3.org/1999/xlink" width="200" height="200"><path d="M108.423529 111.435294c-27.105882 24.094118-27.105882 66.258824-3.011764 90.352941L415.623529 512 105.411765 828.235294c-24.094118 27.105882-24.094118 66.258824 3.011764 90.352941 24.094118 21.082353 63.247059 21.082353 87.341177-3.011764l334.305882-352.376471c30.117647-30.117647 27.105882-78.305882 0-108.423529L195.764706 114.447059C171.670588 90.352941 132.517647 90.352941 108.423529 111.435294z" fill="#FFFFFF" p-id="4006"></path><path d="M493.929412 111.435294c-27.105882 24.094118-27.105882 66.258824-3.011765 90.352941L801.129412 512 490.917647 828.235294c-24.094118 27.105882-24.094118 66.258824 3.011765 90.352941 24.094118 21.082353 63.247059 21.082353 87.341176-3.011764l334.305883-352.376471c30.117647-30.117647 27.105882-78.305882 0-108.423529L578.258824 114.447059c-21.082353-24.094118-60.235294-24.094118-84.329412-3.011765z" fill="#FFFFFF" p-id="4007"></path></svg>