<?xml version="1.0" standalone="no"?><!DOCTYPE svg PUBLIC "-//W3C//DTD SVG 1.1//EN" "http://www.w3.org/Graphics/SVG/1.1/DTD/svg11.dtd"><svg class="icon" width="200px" height="200.00px" viewBox="0 0 1024 1024" version="1.1" xmlns="http://www.w3.org/2000/svg"><path d="M489.472 655.36m-198.656 0a198.656 198.656 0 1 0 397.312 0 198.656 198.656 0 1 0-397.312 0Z" fill="#FFFFFF" opacity=".8" /><path d="M143.36 901.12c-8.192 0-18.432-2.048-26.624-8.192-14.336-12.288-92.16-79.872-83.968-190.464 6.144-104.448 81.92-161.792 96.256-172.032 18.432-12.288 45.056-8.192 57.344 10.24 12.288 18.432 8.192 45.056-10.24 57.344-6.144 4.096-57.344 43.008-61.44 110.592-4.096 71.68 49.152 118.784 55.296 122.88 18.432 14.336 20.48 40.96 6.144 57.344-8.192 6.144-20.48 12.288-32.768 12.288zM794.624 909.312c-67.584-2.048-100.352-51.2-147.456-51.2-30.72 0-57.344 20.48-73.728 24.576-20.48 8.192-83.968 32.768-155.648 18.432-43.008-8.192-81.92-28.672-108.544-57.344-65.536-67.584-49.152-174.08-40.96-225.28 28.672-198.656 90.112-423.936 122.88-540.672 6.144-22.528 28.672-34.816 51.2-28.672 22.528 10.24 34.816 32.768 28.672 55.296-32.768 114.688-92.16 335.872-120.832 530.432-6.144 40.96-16.384 116.736 20.48 155.648 14.336 16.384 38.912 26.624 65.536 32.768 47.104 10.24 94.208-8.192 110.592-14.336 10.24-4.096 18.432-8.192 26.624-12.288 16.384-8.192 36.864-16.384 65.536-18.432 34.816 0 61.44 8.192 92.16 28.672 6.144 4.096 47.104 30.72 92.16 16.384s59.392-61.44 65.536-79.872c14.336-61.44-24.576-110.592-28.672-116.736-14.336-18.432-12.288-43.008 6.144-57.344s43.008-12.288 57.344 6.144c12.288 14.336 69.632 90.112 45.056 188.416-16.384 67.584-59.392 118.784-118.784 139.264-20.48 4.096-38.912 8.192-55.296 6.144z" fill="#FFFFFF" /></svg>