<?xml version="1.0" standalone="no"?><!DOCTYPE svg PUBLIC "-//W3C//DTD SVG 1.1//EN" "http://www.w3.org/Graphics/SVG/1.1/DTD/svg11.dtd"><svg t="1668763894981" class="icon" viewBox="0 0 1024 1024" version="1.1" xmlns="http://www.w3.org/2000/svg" p-id="6256" xmlns:xlink="http://www.w3.org/1999/xlink" width="200" height="200"><path d="M777.481481 307.2c-7.585185 7.585185-15.17037 11.377778-22.755555 18.962963l-314.785185 261.688889H417.185185l-106.192592-83.437037c-11.377778-7.585185-22.755556-7.585185-34.133334 0l-26.548148 15.17037 15.17037 15.170371 159.288889 166.874074h18.962963l352.711111-341.333334c11.377778-15.17037 11.377778-34.133333 3.792593-45.511111-7.585185-7.585185-22.755556-7.585185-22.755556-7.585185z" fill="#FFFFFF" p-id="6257"></path><path d="M504.414815 60.681481C265.481481 60.681481 72.059259 265.481481 72.059259 508.207407c0 238.933333 193.422222 432.355556 432.355556 432.355556v-3.792593h18.962963c235.140741-7.585185 428.562963-201.007407 428.562963-447.525926-7.585185-235.140741-201.007407-428.562963-447.525926-428.562963zM796.444444 360.296296l-352.711111 341.333334h-18.962963L265.481481 534.755556l-15.17037-15.170371 26.548148-15.17037c11.377778-7.585185 22.755556-7.585185 34.133334 0l106.192592 83.437037H439.940741l314.785185-261.688889c7.585185-7.585185 15.17037-11.377778 22.755555-18.962963 0 0 15.17037 0 22.755556 7.585185 7.585185 11.377778 7.585185 30.340741-3.792593 45.511111z" fill="#F5C86A" p-id="6258"></path></svg>